<?xml version="1.0" encoding="utf-8"?>
<!-- Generator: Adobe Illustrator 23.0.1, SVG Export Plug-In . SVG Version: 6.00 Build 0)  -->
<svg version="1.1" id="Слой_1" xmlns="http://www.w3.org/2000/svg" xmlns:xlink="http://www.w3.org/1999/xlink" x="0px" y="0px"
	 viewBox="0 0 1920 700" style="enable-background:new 0 0 1920 700;" xml:space="preserve">
<style type="text/css">
	.st0{fill:#FFD780;}
	.st1{fill:#168594;}
	.st2{fill:#B2E866;}
	.st3{fill:#FFFFFF;}
	.st4{fill:#81BF55;}
	.st5{fill:none;}
	.st6{fill:#FAEECD;}
	.st7{fill:#66A347;}
	.st8{fill:#52873D;}
	.st9{fill:#FEC955;}
	.st10{fill:#FFE499;}
	.st11{fill:#F7C453;}
	.st12{fill:#FAE5AA;}
	.st13{fill:#FFDC8F;}
	.st14{fill:#8F8378;}
	.st15{fill:#84C457;}
	.st16{opacity:0.432;fill:#EFF6F8;enable-background:new    ;}
	.st17{opacity:0.278;fill:#F8FFFF;enable-background:new    ;}
</style>
<g id="Group_4977" transform="translate(8.37 -168.821)">
	<g id="Group_2766" transform="translate(-86 777.277)">
		<path id="Path_2060" class="st0" d="M1186.3,21.8c-31.2-32.6-117.7-60.7-195.3-60.7S865.9-10.8,834.7,21.8H1186.3z"/>
		<path id="Path_1996" class="st1" d="M1376.2-31.3L1376.2-31.3z"/>
		<path id="Path_2008" class="st2" d="M1341-43.7c82.2,0,284.6,74.7,284.6,102.5c0,20.2-153.8-26.6-99.8,12.6
			c18.8,13.7-16.4,20.9-68.9,20.9c-217.5,0-978.7-7.3-1178.5-7.3c-40.8,0-156.6,0.6-156.6-33.6c0-29.4,92.5-111.6,203.2-86
			c128.7,29.8,152-19.2,216.8-68.4c22.2-16.9,56.4-50.8,140.2,8.3c33.7,23.8,77.1,23.2,95,23.2c74.6,0,119.6-41.4,183.2-41.4
			c51.2,0,128.1,60.4,176.7,80C1209.6-3.9,1268.6-43.7,1341-43.7z"/>
		<path id="Path_2011" class="st3" d="M928.5,75.5c0,0.9-38.6,1.6-95.2,2.3c-45.2,0.5-103.5-0.4-149.7-0.4c-104,0-188.4-1.3-188.4-3
			S580,72.9,684,72.9S928.5,73.8,928.5,75.5z"/>
		<path id="Path_2012" class="st4" d="M1364.1-27c85.7-4.9,260.3,67.7,260.3,85.8c0,20.2-156.3-26.6-101.4,12.6
			c19.1,13.7-16.7,20.9-70,20.9c-221.1,0-1001.5,0-1204.5,0c-106.8,0-170.8,0-170.8,0s0-16.1,0-20.9c0-29.4,119.6-134.1,228.1-95.3
			C455.5,29.6,472.2-27,532.2-83.4c20.5-19.3,55.2-62.2,134.9-4.4c46.4,33.6,79.6,37.4,118.4,34.4c75.5-5.8,98.9-51,163.5-53.4
			c73.9-2.7,136.9,67,185.2,88.8C1231.4,25.8,1263.2-21.3,1364.1-27z"/>
		<path id="Path_2013" class="st5" d="M597.2,14.7l82.1,0l-31.5-25.7l-19.2,51.4L597.2,14.7z"/>
		<g id="Group_1189">
			<path id="Path_2014" class="st2" d="M1520.8,67.4c-3.8,0-10,0-14.8,0c-24,0-42.7-8.4-62.5-17.3c-21.7-9.7-44.2-19.8-76.1-19.8
				c-140.4,0-653.7,0.1-653.7,0.1c-43.3,0-63-12.7-83.8-26.1c-22.6-14.6-46-29.6-104.2-29.6H437v-8.4h88.5
				c60.7,0,86.3,16.5,108.8,31c19.8,12.8,38.5,24.8,79.2,24.8c0,0,513.3-0.1,653.7-0.1c33.7,0,58,10.9,79.5,20.6
				c19,8.5,36.9,16.6,59.1,16.6h10.9C1515.4,60.6,1516.4,63.3,1520.8,67.4z"/>
		</g>
		<path id="Path_2015" class="st6" d="M1042.7-84.2c-11.8-6.4-23.3-12.2-34.7-17l-0.2,0.3c24,10.9,31.1,23.9,29.6,31
			c-1.4,6.7-10.1,11.3-21.1,11.3H882.6c-24.6,0-37,6.1-49,12c-12.7,6.2-25.8,12.7-55.4,12.7h-0.8c-10.3,0-125.7-0.1-238.4-0.1
			c-34.1,0-67.9,0-98.6,0h-55.1c-20.8,0-38.1,0-50.2,0l-7,0c24.8,5.6,45.6,8.2,63.5,8.4c110.4,0,285.4,0.1,385.7,0.1h0.8
			c31.5,0,45.6-6.9,59.1-13.5c11.6-5.7,22.6-11.1,45.3-11.1h133.8c15.2,0,27.5-7.1,29.3-18C1046.6-73.6,1045.6-79.3,1042.7-84.2z"/>
		<g id="Group_1190">
			<path id="Path_2016" class="st7" d="M737.1-24.1c-3.2-4.9-3.4-10-1.9-15c2.6-8.9,3.1-17.8-6-26.7c-4.6-4.6-12.4-9-16-3
				c-2.3,3.8,1,13.7,0.9,20.9c-0.1,6.5-5,11.9-8.2,15.5c-11.5,12.9-11.2,43.1,13.1,47.2C734.8,17.4,751.9-1.1,737.1-24.1z"/>
			<path id="Path_2017" class="st8" d="M737.1-24.1c-3.2-4.9-3.4-10-1.9-15c2.6-8.9,3.1-17.8-6-26.7c-3.9-3.8-9.9-7.5-13.9-5.1
				c7.8,1.8,12.5,11.3,14.3,20.6c1.3,6.8-5.5,14.8-8.1,22.9c-3.3,10.2,7.5,21.6-6.6,26.2c-4.3,1.4-6.7,6.2-6.9,11.4
				c3.2,2.4,7,4,11,4.6C734.8,17.4,751.9-1.1,737.1-24.1z"/>
		</g>
		<g id="Group_1191">
			<path id="Path_2018" class="st7" d="M776.5-69.2c1.9-16.8-15.9-31.3-21.2-29.4c-7.5,2.7-7.3,13-6.6,23.5
				c0.4,5.4,1.3,10.2-0.9,15.2c-2,4.5-5.5,8.5-5.6,13.8c-0.1,4.7,5.4,9.6,3.1,14c-1.9,3.7-6.2,9.2-8.2,13.2
				c-3.5,7.4-4.6,15.7,2,22.5c12.4,12.8,44.2,18.5,47-2.9c1.5-11.8-3.7-24.1-9.9-34.5c-2.9-4.9-6.4-10.1-5.9-15.8
				C771-56,775.8-63.1,776.5-69.2z"/>
			<path id="Path_2019" class="st8" d="M776.3-33.8c-3-4.9-6.4-10.1-5.9-15.8c0.6-6.4,5.4-13.5,6.1-19.7
				c1.9-16.8-15.7-31.1-21.1-29.4c4.6,1.8,17.4,9.7,12,23.2c-2,5.1-5.2,8.1-6.9,17.4c-2.4,12.6,14.7,27.9,9.1,41.2
				c-6.8,16.2-33.2,8.7-30.4,20.5c12.4,12.8,44.2,18.5,47-2.9C787.8-11.1,782.5-23.3,776.3-33.8z"/>
		</g>
		<path id="Path_2020" class="st0" d="M646.6,56.5c-39-40.7-122.6-68.9-219.5-68.9S246.7,15.8,207.7,56.5H646.6z"/>
		<g id="Group_1192">
			<path id="Path_2021" class="st7" d="M340.9-62.6c-7.9-13.7-17.8-28.1-30.8-19.7c-7.5,4.8-2.5,21.6-10.4,32.8
				c-10.8,15.4-5.4,43.3,22.4,43.3C359.2-6.2,347.6-51.1,340.9-62.6z"/>
			<path id="Path_2022" class="st8" d="M340.9-62.6c-7.5-13-16.8-26.7-29-20.8c0,0,0.1,0.1,0.1,0.2c3.1,4.8,11.3,4.2,19,16.2
				c3.3,5.3,5.2,9.1,0.6,18c-6.1,11.5,3.2,19.2-1.1,25.3c-7,9.7-25.6,10.5-21.5,15c4.1,1.8,8.6,2.7,13.2,2.6
				C359.2-6.2,347.6-51.1,340.9-62.6z"/>
		</g>
		<path id="Path_2023" class="st9" d="M646.6,56.5C609.3,19.5,529.2-6.2,436.3-6.2S263.4,19.5,226,56.5H646.6z"/>
		<g id="Group_1193">
			<path id="Path_2034" class="st10" d="M533.2,56.5h-6.3c-5.2-13.8-14.1-27.2-22.4-38.9c-8-11.4-17.7-21-29.5-27.6
				c4.4,0.4,8.7,0.9,13,1.5h0c7.4,5.7,13.9,12.4,19.4,19.9c5.6,7.7,10.7,15.7,15.3,24C526.6,42.3,530.5,49.2,533.2,56.5z"/>
			<path id="Path_2035" class="st10" d="M556.2,56.5h-6.3c-4.4-12.7-10.7-23.9-18.4-35.2C524,10.5,514.6,0.2,502.9-6.3
				c4.8,0.8,9.5,1.6,14.2,2.6h0c6.4,5.3,12.1,11.4,16.9,18.2C543.4,28,551.1,41.1,556.2,56.5z"/>
			<path id="Path_2036" class="st10" d="M582.4,56.5H576c-8.4-22.6-24.6-41.8-43.2-56.9c4.4,1.1,8.8,2.2,13.1,3.4
				C561.8,17.9,575.1,36,582.4,56.5z"/>
			<path id="Path_2037" class="st10" d="M608.2,56.5h-6.5c-3.7-9.2-8.5-18-14.1-26.2c-3.6-5.1-9-8.9-13-13.7c-2.3-2.7-5-5-7.9-7.1
				c5,1.8,9.9,3.6,14.6,5.5c3.5,3.5,7.4,6.6,10.3,10.5C598.6,34.9,603.9,45.7,608.2,56.5z"/>
			<path id="Path_2038" class="st10" d="M631.5,56.5h-6.7c-3.5-6.3-7.5-12.3-11.9-18c-4.1-5.6-8.6-10.7-13.7-15.4
				c5.7,2.8,11,5.8,16.1,8.9c0,0,0,0,0,0c0,0,0,0,0,0c0.5,0.7,1.1,1.3,1.6,2C622.5,41,627.4,48.6,631.5,56.5z"/>
			<path id="Path_2039" class="st10" d="M480.8,56.5h-6.4c-11-26.7-26.1-52.5-50.4-68.8c1.1,0,2.1,0,3.2,0c2.3,0,4.6,0,6.9,0.1h0
				C456.1,5.3,470.3,30.5,480.8,56.5z"/>
			<path id="Path_2040" class="st10" d="M454.4,56.5h-6.3c-4-13.2-10.9-25.2-18.8-36.6C422,9.2,414.1-3.8,403.3-11.7
				c2.9-0.1,5.9-0.3,8.8-0.3c8.4,7.9,14.9,18.3,21.3,27.4C442.4,28,450.2,41.5,454.4,56.5z"/>
			<path id="Path_2041" class="st10" d="M428.5,56.5h-6c-1.7-12.6-8.7-25.6-14.8-36C400.9,9.1,392.5-3,380.9-10.1
				c3-0.3,6.1-0.6,9.2-0.8c9.4,7.7,16.7,18.2,22.8,28.5C419.5,28.8,426.9,43,428.5,56.5z"/>
			<path id="Path_2042" class="st10" d="M385.8,56.5h-6.3c-4.1-11.8-9.3-23.1-15.5-33.9c-6.1-10.4-13.3-20.3-23.2-27.1
				c2.7-0.5,5.3-1,8-1.4c7.9,6.6,14.1,15,19.4,23.8C375.3,30.2,381.2,43.1,385.8,56.5z"/>
			<path id="Path_2043" class="st10" d="M363.1,56.5h-6.3c-3.9-11.2-7.5-22.5-13.7-32.7c-5.4-9.1-12.1-17.4-19.8-24.6
				c2.3-0.6,4.7-1.1,7-1.6c6.9,7,13,14.7,18,23.2C355.1,32,358.9,44.3,363.1,56.5z"/>
			<path id="Path_2044" class="st10" d="M341.2,56.5h-6.3c-3.1-9.4-7.1-18.5-12-27.2c-4.9-8.6-10.7-19-18.9-25
				c2.3-0.7,4.6-1.3,6.9-2h0c6.6,6.1,11.5,14.3,15.9,21.9C332.9,34.4,337.7,45.3,341.2,56.5z"/>
			<path id="Path_2045" class="st10" d="M322.7,56.5h-6.3c-5.8-17.1-14.6-35.2-27.7-47.3c2.1-0.7,4.2-1.4,6.3-2.1h0
				C308.1,20.5,316.8,38.9,322.7,56.5z"/>
			<path id="Path_2046" class="st10" d="M302.2,56.5h-6.5c-6.2-14-12.9-29.6-23-41.3c1.9-0.8,3.9-1.6,5.9-2.3
				C288.9,25.6,295.7,42,302.2,56.5z"/>
			<path id="Path_2047" class="st10" d="M284,56.5h-6.3c-4.1-12.9-11.3-24.7-21-34.2c1.9-0.9,3.8-1.8,5.8-2.7
				C272.6,30,280,42.7,284,56.5z"/>
			<path id="Path_2048" class="st10" d="M262.4,56.5h-6.3c-3.3-9.6-6.9-18.9-13.1-26.8c1.7-1,3.5-2,5.3-3
				C254.9,35.5,258.8,46,262.4,56.5z"/>
			<path id="Path_2049" class="st10" d="M406.9,56.5h-6.4c-4.7-12.4-9.2-25.2-16.2-36.3c-6.4-10.1-13.4-21-23.4-28
				c2.7-0.4,5.5-0.8,8.3-1.1c7.6,6.8,13.5,15.8,19.1,24.3C396.5,27.9,401.5,42.5,406.9,56.5z"/>
			<path id="Path_2050" class="st10" d="M506.6,56.5h-6.5c-5.3-12.2-10.9-24.4-17.6-35.9C475,8.1,464.8-2,454-11.6
				c3.2,0.2,6.4,0.4,9.6,0.6c8.7,8,16.8,16.6,23,26.8C494.5,28.6,500.7,42.7,506.6,56.5z"/>
		</g>
		<g id="Group_1194">
			<path id="Path_2051" class="st7" d="M463.6-67.5c-3-7.3-4-15.3-2.9-23.1c1.6-13.7,1.4-27.4-7.4-41.2c-4.5-7-11.9-13.9-14.7-4.6
				c-1.8,5.9,2,21.1,2.4,32.2c0.4,10-3.6,18.4-6.2,23.9c-9.4,20-6.7,66.5,15.4,72.8C464.7-3.3,478.8-32,463.6-67.5z"/>
			<path id="Path_2052" class="st8" d="M463.6-67.5c-3-7.3-4-15.3-2.9-23.1c1.6-13.7,1.4-27.4-7.4-41.2c-3.8-5.9-9.5-11.6-12.9-7.9
				c7.2,2.8,12.1,17.4,14.5,31.8c1.7,10.5-3.8,22.8-5.5,35.4c-2.2,15.7,8.4,33.3-3.9,40.4c-3.8,2.2-5.5,9.6-5.3,17.6
				c2.6,3.4,6.2,5.9,10.3,7.1C464.7-3.3,478.8-31.9,463.6-67.5z"/>
		</g>
		<path id="Path_2053" class="st8" d="M343.6,56.5c33-8.7-22.5-35.6-72-19.9c-39.3,12.5,1-28.6-32.1-29
			c-13.5-0.1-27.4,9.4-44.9,13.7c-26.5,6.4-4.5-60.5-35.5-37.2c-13.7,10.3-18.6,28.4-25.3,40.1c-6.9,12.1-30.7-35.1-48.4,32.2H343.6
			z"/>
		<path id="Path_2054" class="st8" d="M418.2,56.5c-1.7-7.5-8.4-12.8-16-12.8c-8.8,0-18.1,6.5-22.8,12.8H418.2z"/>
		<g id="Group_1197">
			<path id="Path_2058" class="st7" d="M429.2-53.1c-3.1-4.2-4.3-8.7-2.4-12.7c5.3-11.1-13.4-27.3-23.6-14.2c-5.3,6.8,5.1,17.2-3,24
				c-10.7,9-12.2,34,14.3,36C429-19,443.6-33.5,429.2-53.1z"/>
			<path id="Path_2059" class="st8" d="M429.2-53.1c-3.1-4.2-4.3-8.7-2.4-12.7c4.1-8.6-6.1-20.2-15.7-19c3.7,1.9,9.1,4.6,10.8,8.7
				c3.7,8.9-5.1,11.6-4.9,18.8c0.3,11,9.6,12.9,5.9,21.3c-2.8,6.4-17.9,9.5-20.7,12.5c3.8,2,8,3.2,12.3,3.4
				C429-19,443.6-33.5,429.2-53.1z"/>
		</g>
		<path id="Path_2061" class="st11" d="M1186.3,21.8c-29.3-30.6-110.4-56.9-183.2-56.9S885.7-8.8,856.4,21.8H1186.3z"/>
		<g id="Group_1198">
			<path id="Path_2062" class="st12" d="M975.7-38.5c-8.3,6.9-14.7,15.9-19.1,23.2c-6.9,11.6-11.4,24.5-15.8,37.1h-3.3
				c7.3-20.7,16.3-44.9,32.5-60C972-38.3,973.8-38.4,975.7-38.5z"/>
			<path id="Path_2063" class="st12" d="M953.3-36.5c-6.6,6.4-12,14.8-17,23.1c-6.6,11-11.7,22.8-15.3,35.1h-3.3
				c4-13.8,9.9-26.9,17.5-39.1c3.9-6.6,8.4-12.8,13.5-18.5v0h0C950.1-36,951.7-36.3,953.3-36.5z"/>
			<path id="Path_2064" class="st12" d="M931-32.4c-5.9,7-10.8,15.4-14.7,22.1l-0.7,1.2c-5.8,9.8-10.6,20.2-14.4,31h-3.3
				c4-11.3,9-22.3,15.1-32.6l0.5-0.9c3.8-6.8,8-13.3,12.6-19.6C927.7-31.7,929.3-32,931-32.4z"/>
			<path id="Path_2065" class="st12" d="M906.8-25.3C896.3-10.8,888,5,882.1,21.8h-3.3c5.6-16,13.3-31.2,22.9-45.2h0
				C903.4-24,905-24.6,906.8-25.3z"/>
			<path id="Path_2066" class="st12" d="M854,4.1c-3.6,5.7-6.8,11.6-9.7,17.7H841c1.8-4,3.9-7.9,6-11.8l0,0C849.3,8,851.6,6,854,4.1
				z"/>
			<path id="Path_2067" class="st12" d="M882.8-14.7c-6.8,11.8-12.9,24-18.3,36.5h-3.4C866,10.3,871.6-1,877.8-11.9
				C879.4-12.8,881.1-13.8,882.8-14.7z"/>
			<path id="Path_2068" class="st12" d="M997.1-38.8C982.2-23,970.8-3.4,962,21.8h-3.3c8.7-25,19.8-44.6,34.4-60.7
				C994.4-38.9,995.8-38.8,997.1-38.8z"/>
			<path id="Path_2069" class="st12" d="M1014.1-38.1c-7.8,9.3-14.5,19.4-19.9,30.2c-4.9,9.8-8.3,20.1-11.3,29.7h-3.3
				c3.5-11.3,7.6-23.4,13.8-34.8c4.8-9,10.5-17.4,17-25.3C1011.7-38.2,1012.9-38.2,1014.1-38.1z"/>
			<path id="Path_2070" class="st12" d="M1031-36.6c-7.9,8.1-13.9,18.3-18.7,27.6c-5.2,9.8-9.4,20.2-12.5,30.8h-3.3
				c3.7-12.6,8.9-24.8,15.3-36.2c4.1-7.3,9.1-15.5,15.6-22.5C1028.5-36.8,1029.8-36.7,1031-36.6z"/>
			<path id="Path_2071" class="st12" d="M1046.8-34.5c-7,7.3-13.2,16.6-18.9,28.2c-3.2,6.8-6.1,13.8-8.7,20.9
				c-0.2,0.5-0.6,1.5-1.1,2.7c-0.5,1.2-1.2,2.8-1.8,4.5h-2.9c0.1-0.2,0.1-0.4,0.2-0.5c3-9.2,6.6-18.2,10.6-27
				c5.7-11.9,11.9-21.5,19-29.2h0C1044.5-34.8,1045.7-34.6,1046.8-34.5z"/>
			<path id="Path_2072" class="st12" d="M1061.9-31.9c-5.8,7.6-10.6,16-14.2,24.8c-1.4,3.2-3.1,6.3-4.7,9.3c-2,3.5-3.8,7.1-5.4,10.8
				c-1.1,2.8-2,5.8-2.7,8.7h-3.3c0.7-3.2,1.7-6.4,2.9-9.5c1.7-4,3.6-8,5.8-11.8c1.9-3.5,3.8-7.1,5.4-10.8
				c3.3-7.9,7.6-15.4,12.8-22.2C1059.6-32.3,1060.8-32.1,1061.9-31.9z"/>
			<path id="Path_2073" class="st12" d="M1078.6-28.3c-5.9,7.6-11.1,15.7-15.5,24.3c-2.9,5.8-5.6,11.8-8.1,17.6l-0.1,0.2
				c-1.1,2.6-2.3,5.3-3.4,8h-3.3c3.2-8.4,7-16.5,10-22.7c4.8-10,10.6-19.4,17.3-28.1C1076.5-28.8,1077.5-28.5,1078.6-28.3z"/>
			<path id="Path_2074" class="st12" d="M1096.6-23.6c-10.3,13.4-20.2,28.5-24.9,45.4h-3.3c4.7-16.8,14.4-32.1,25.2-46.3
				C1094.5-24.2,1095.6-23.9,1096.6-23.6z"/>
			<path id="Path_2075" class="st12" d="M1110.7-19.3c-3.8,5.5-7.3,11.3-10.5,17.2l-1.4,2.4c-3.9,6.9-7.3,14.1-10.1,21.5h-3.3
				c3.1-8.3,6.9-16.4,11.4-24l1.2-2.1c2.9-5.1,6.1-10.7,9.7-15.9h0C1108.7-19.9,1109.7-19.6,1110.7-19.3z"/>
			<path id="Path_2076" class="st12" d="M1127.4-13.2c-0.8,1.4-1.5,2.8-2.2,4.2c-1.1,2.2-2.2,4.4-3.5,6.5c-1.4,2.3-2.9,4.6-4.4,6.8
				c-3.7,5.6-7.5,11.4-9.8,17.5h-3.2c2.3-6.6,6.2-12.8,10.6-19.4c2.8-4.2,5.1-8.5,7.5-12.7c0.7-1.3,1.5-2.7,2.2-4
				C1125.6-14,1126.5-13.6,1127.4-13.2z"/>
			<path id="Path_2077" class="st12" d="M1140.6-7.7c-1.3,2.4-2.6,4.8-3.7,7.1c-0.9,1.8-1.8,3.6-2.7,5.2c-3.2,5.6-6.1,11.4-8.6,17.3
				h-3.3c3.4-7.8,7.2-15.4,11.5-22.7c0.7-1.3,1.5-2.7,2.2-4.1c0.7-1.3,1.4-2.6,2.1-3.9C1138.9-8.5,1139.8-8.1,1140.6-7.7z"/>
			<path id="Path_2078" class="st12" d="M1154.1-1.2c-0.5,0.8-1,1.6-1.5,2.4l-1.1,1.7c-3.9,5.9-7.1,12.2-9.4,18.8h-3.3
				c2.2-6.4,5.1-12.4,8.7-18.1l1-1.7c0.9-1.5,1.8-3,2.8-4.6C1152.3-2.1,1153.2-1.6,1154.1-1.2z"/>
			<path id="Path_2079" class="st12" d="M1167.3,6.6c-0.3,0.3-0.5,0.7-0.7,1l-0.2,0.2c-3.2,4.4-6,9.1-8.5,14h-3.2
				c2.1-4.3,4.4-8.4,7-12.4l0.2-0.4c0.9-1.4,1.8-2.8,2.8-4.2C1165.6,5.5,1166.4,6,1167.3,6.6z"/>
			<path id="Path_2080" class="st12" d="M1180.7,16.5c-1.2,1.7-2.4,3.5-3.5,5.3h-4c1-1.9,2.1-3.6,3.4-5.3c0.5-0.7,1.1-1.4,1.6-2.1
				C1179,15.1,1179.9,15.8,1180.7,16.5z"/>
		</g>
		<g id="Group_1199">
			<path id="Path_2081" class="st13" d="M970-33.2c-5.1,5.4-9.6,11.4-13.3,17.9c-6.9,11.6-11.4,24.5-15.8,37.1h-3.3
				c6.4-18.2,14.2-39.2,27.1-54.3h0C966.4-32.7,968.2-32.9,970-33.2z"/>
			<path id="Path_2082" class="st13" d="M946.7-29c-11.5,15.3-20.3,32.5-25.8,50.9h-3.3c4-13.8,9.9-26.9,17.5-39.1
				c2.1-3.5,4.5-7.1,7.1-10.7h0C943.7-28.3,945.2-28.7,946.7-29z"/>
			<path id="Path_2083" class="st13" d="M923.4-22.1c-2.7,4.1-5.1,8.2-7.2,11.8l-0.7,1.2c-5.8,9.8-10.6,20.2-14.4,31h-3.3
				c4-11.3,9-22.3,15.1-32.6l0.5-0.9c1.6-2.7,3.3-5.7,5.2-8.7C920.3-21,921.8-21.5,923.4-22.1z"/>
			<path id="Path_2084" class="st13" d="M896.7-9.7c-5.9,10-10.7,20.6-14.6,31.6h-3.3c3.4-9.8,7.6-19.3,12.6-28.4
				C893.1-7.7,894.9-8.7,896.7-9.7z"/>
			<path id="Path_2085" class="st13" d="M870.5,8.6c-2.1,4.3-4.1,8.7-6,13.2h-3.4c1.1-2.7,2.3-5.4,3.6-8.1
				C866.5,12,868.5,10.3,870.5,8.6z"/>
			<path id="Path_2086" class="st13" d="M993.6-35C980.4-19.8,970.1-1.4,962,21.8h-3.3c8-23,18-41.3,30.8-56.6h0
				C990.9-34.9,992.2-34.9,993.6-35z"/>
			<path id="Path_2087" class="st13" d="M1011.6-35c-6.7,8.4-12.6,17.5-17.4,27.2c-4.9,9.8-8.3,20.1-11.3,29.7h-3.3
				c3.5-11.3,7.6-23.4,13.8-34.8c4.2-7.7,9-15.1,14.4-22.1h0C1009.1-35.1,1010.3-35,1011.6-35z"/>
			<path id="Path_2088" class="st13" d="M1028.7-34.1c-6.8,7.7-12,16.7-16.4,25.1c-5.2,9.8-9.4,20.2-12.5,30.8h-3.3
				c3.7-12.6,8.9-24.8,15.3-36.2c3.8-7,8.3-13.7,13.3-20h0C1026.2-34.3,1027.5-34.2,1028.7-34.1z"/>
			<path id="Path_2089" class="st13" d="M1045-32.4c-6.2,6.9-11.9,15.6-17,26.2c-3.2,6.8-6.1,13.8-8.7,20.9
				c-0.2,0.5-0.6,1.5-1.1,2.7c-0.5,1.2-1.2,2.8-1.8,4.5h-2.9c0.1-0.2,0.1-0.4,0.2-0.5c3-9.2,6.6-18.2,10.6-27
				c4.5-9.8,10.2-18.9,17.1-27.1C1042.6-32.7,1043.8-32.6,1045-32.4z"/>
			<path id="Path_2090" class="st13" d="M1060.6-30.2c-5.2,7.2-9.5,14.9-12.9,23.1c-1.4,3.2-3.1,6.3-4.7,9.3
				c-2,3.5-3.8,7.1-5.4,10.8c-1.1,2.8-2,5.8-2.7,8.7h-3.3c0.7-3.2,1.7-6.4,2.9-9.5c1.7-4,3.6-8,5.8-11.8c1.9-3.5,3.8-7.1,5.4-10.8
				c3-7.2,6.9-14.1,11.5-20.4C1058.3-30.5,1059.4-30.3,1060.6-30.2z"/>
			<path id="Path_2091" class="st13" d="M1077.5-26.9c-5.5,7.2-10.4,14.9-14.5,22.9c-2.9,5.8-5.6,11.8-8.1,17.6l-0.1,0.2
				c-1.1,2.6-2.3,5.3-3.4,8h-3.3c3.2-8.4,7-16.5,10-22.7c4.5-9.4,9.9-18.4,16.2-26.7C1075.4-27.4,1076.5-27.2,1077.5-26.9z"/>
			<path id="Path_2092" class="st13" d="M1095.8-22.6c-10,13.2-19.5,27.9-24.1,44.4h-3.3c4.5-16.4,13.9-31.3,24.3-45.2
				C1093.7-23.1,1094.7-22.8,1095.8-22.6z"/>
			<path id="Path_2093" class="st13" d="M1110.1-18.4c-3.8,5.4-7,11.2-9.9,16.3l-1.4,2.4c-3.9,6.9-7.3,14.1-10.1,21.5h-3.3
				c3.1-8.3,6.9-16.4,11.4-24l1.2-2.1c2.8-4.8,5.7-10,9.1-15C1108.1-19,1109.1-18.7,1110.1-18.4z"/>
			<path id="Path_2094" class="st13" d="M1127.1-12.6c-0.6,1.2-1.2,2.4-1.8,3.6c-1.1,2.2-2.2,4.4-3.5,6.5c-1.4,2.3-2.9,4.6-4.4,6.8
				c-3.7,5.6-7.5,11.4-9.8,17.5h-3.2c2.3-6.6,6.2-12.8,10.6-19.4c2.8-4.2,5.1-8.5,7.5-12.7c0.6-1.1,1.2-2.2,1.9-3.4
				C1125.2-13.3,1126.1-13,1127.1-12.6z"/>
			<path id="Path_2095" class="st13" d="M1140.4-7.3c-1.2,2.2-2.4,4.5-3.5,6.6c-0.9,1.8-1.8,3.6-2.7,5.2c-3.2,5.6-6.1,11.4-8.6,17.3
				h-3.3c3.4-7.8,7.2-15.4,11.5-22.7c0.7-1.3,1.5-2.7,2.2-4.1c0.6-1.1,1.2-2.2,1.8-3.4C1138.7-8,1139.5-7.6,1140.4-7.3z"/>
			<path id="Path_2096" class="st13" d="M1153.9-0.9c-0.5,0.7-0.9,1.4-1.3,2.1l-1.1,1.7c-3.9,5.9-7.1,12.2-9.4,18.8h-3.3
				c2.2-6.4,5.1-12.4,8.7-18.1l1-1.7c0.8-1.4,1.7-2.8,2.6-4.3C1152.1-1.8,1153-1.3,1153.9-0.9z"/>
			<path id="Path_2097" class="st13" d="M1167.2,6.7c-0.2,0.3-0.4,0.6-0.6,0.9l-0.2,0.2c-3.2,4.4-6,9.1-8.5,14h-3.2
				c2.1-4.3,4.4-8.4,7-12.4l0.2-0.4c0.8-1.3,1.7-2.7,2.7-4C1165.5,5.6,1166.3,6.1,1167.2,6.7z"/>
			<path id="Path_2098" class="st13" d="M1180.7,16.5c-1.2,1.7-2.4,3.5-3.5,5.3h-4c1-1.9,2.1-3.6,3.4-5.3c0.5-0.7,1.1-1.4,1.6-2.1
				C1179,15.1,1179.9,15.8,1180.7,16.5z"/>
		</g>
		<path id="Path_2101" class="st14" d="M1068.5,56.5c2.7-4.4,8.7-9,15.4-9c6,0.1,11.5,3.6,14.1,9H1068.5z"/>
		<g id="Group_1202">
			<path id="Path_2102" class="st7" d="M1132.2,11.3c-3.1-4.2-4.3-8.7-2.4-12.7c5.3-11.1-13.4-27.3-23.6-14.2
				c-5.3,6.8,5.1,17.2-3,24c-10.7,9-12.2,34,14.3,36C1132,45.3,1146.6,30.8,1132.2,11.3z"/>
			<path id="Path_2103" class="st8" d="M1132.2,11.3c-3.1-4.2-4.3-8.7-2.4-12.7c4.1-8.6-6.1-20.2-15.7-19c3.7,1.9,9.1,4.6,10.8,8.7
				c3.7,8.9-5.1,11.6-4.9,18.8c0.3,11,9.6,12.9,5.9,21.3c-2.8,6.4-17.9,9.5-20.7,12.5c3.8,2,8,3.2,12.3,3.4
				C1132,45.3,1146.6,30.8,1132.2,11.3z"/>
		</g>
		<path id="Path_2104" class="st3" d="M586.2,56.5L586.2,56.5z"/>
		<path id="Path_2114" class="st15" d="M1997.6,91.5c-0.1-1.4-2.9-8.6-12.2-10.4c-9-1.7-17.1,4.2-25.5-0.1
			c-10-5.2-21.1-15.8-48.5-5.4c-23.4,8.9-18.9-10.3-34.7-17.4c-14.1-6.3-42.7,14.1-60.9,33.3H1997.6z"/>
		<path id="Path_2118" class="st14" d="M1055.6,56.5c-0.9-8.1-7.6-16.3-19.1-16.3s-24.6,8.2-31.8,16.3H1055.6z"/>
		<path id="Path_2119" class="st7" d="M1264.5,56.5c-0.1-0.9-10.3-17-28.1-10.3c-15.2,5.7-12.3-6.7-22.5-11.2
			c-9.1-4.1-27.7,9.1-39.5,21.6L1264.5,56.5z"/>
		<path id="Path_2120" class="st7" d="M989.1,56.5c-0.1-1.7-3.5-10.4-14.7-12.5c-10.8-2-20.6,5.1-30.7-0.2c-12-6.2-25.4-19-58.4-6.5
			c-28.2,10.7-22.8-12.4-41.8-20.9c-16.9-7.6-51.4,17-73.4,40.1L989.1,56.5z"/>
	</g>
	<path id="Path_2981" class="st16" d="M729.2,507h-60.4c16.9-20.7,13.8-51.2-6.9-68.1s-51.2-13.8-68.1,6.9
		c-5.9,7.2-9.5,15.9-10.6,25.1c-13.8-6.8-30.6-1-37.3,12.8c-3.6,7.3-3.8,15.8-0.6,23.3h-9.2c-0.5-8.8-8-15.6-16.8-15.2
		c-8.2,0.4-14.7,7-15.2,15.2h-11.9c-6.5-0.1-11.7,5.1-11.8,11.6c-0.1,6.5,5.1,11.7,11.6,11.8c0.1,0,0.1,0,0.2,0h236.9
		c6.5,0.1,11.7-5.1,11.8-11.6c0.1-6.5-5.1-11.7-11.6-11.8C729.4,507,729.3,507,729.2,507L729.2,507z"/>
	<path id="Path_2983" class="st17" d="M1052.4,184.1c4,0,7.6,2.3,9.2,6c1.4-6.6,7.8-10.9,14.5-9.5c3.5,0.7,6.5,2.9,8.2,6
		c0.2-9.9,8.4-17.8,18.3-17.6c9.9,0.2,17.8,8.4,17.6,18.3c-0.2,9.8-8.2,17.6-18,17.6h-28.6c-5.3,0-16.5-0.4-21.2-0.4
		c-5.6,0-10.1-4.5-10.1-10.1C1042.2,188.6,1046.8,184.1,1052.4,184.1L1052.4,184.1z"/>
	<path id="Path_5604" class="st17" d="M849.2,390.1c-4,0-7.6,2.3-9.2,6c-1.4-6.6-7.8-10.9-14.5-9.5c-3.5,0.7-6.4,2.9-8.2,6
		c-0.2-9.9-8.4-17.8-18.3-17.6c-9.9,0.2-17.8,8.4-17.6,18.3c0.2,9.8,8.2,17.6,18,17.6h28.6c5.3,0,16.5-0.4,21.2-0.4
		c5.6,0,10.1-4.5,10.1-10.1C859.4,394.6,854.8,390.1,849.2,390.1L849.2,390.1z"/>
	<path id="Path_2984" class="st17" d="M201.1,396.2l-4.1,0c4.1-11.2-1.6-23.6-12.8-27.8c-2.3-0.9-4.8-1.3-7.3-1.3
		c-0.3,0-0.6,0-0.9,0c-3.4-17-20-28-37-24.6c-17,3.4-28,20-24.6,37c0.4,2.1,1.1,4.2,1.9,6.2c-6.4-2.7-13.8,0.2-16.6,6.6
		c-0.4,1-0.7,2.1-0.9,3.2l-4.3,0c0.1-0.6,0.1-1.2,0.1-1.8c0.1-8.9-7.1-16.1-16-16.2c-8.9-0.1-16.1,7.1-16.2,16c0,0.6,0,1.2,0.1,1.8
		l-4,0c-3.9,0-7.1,3.2-7.1,7.1c0,3.9,3.1,7,7,7.1l18.2,0.1c1.2,0.1,2.4,0.2,3.6,0l29.4,0.2c0.5,0.1,1,0.1,1.5,0.1c0.5,0,1,0,1.5-0.1
		l61.6,0.4c0.7,0.1,1.4,0.1,2.1,0.1s1.4,0,2.1-0.1l22.3,0.1c3.9,0.1,7.1-3.1,7.2-7c0.1-3.9-3.1-7.1-7-7.2
		C201.2,396.2,201.1,396.2,201.1,396.2L201.1,396.2z"/>
	<path id="Path_2985" class="st17" d="M1864.3,471.9h-6.9c-1.1-8.8-9.2-15-18-13.8c-7.2,0.9-12.9,6.6-13.8,13.8h-1.2
		c0.1-0.8,0.1-1.5,0.1-2.3c0-11.3-9.1-20.4-20.4-20.4c-2.8,0-5.6,0.6-8.2,1.7c2.8-18.7-10.1-36.1-28.8-38.9
		c-18.7-2.8-36.1,10.1-38.9,28.8c-0.2,1.7-0.4,3.4-0.4,5c0,0.1,0,0.2,0,0.3c-11.4-5.9-25.4-1.4-31.3,10c-1.1,2.1-1.8,4.3-2.2,6.5
		c-6.3-6.3-16.4-6.2-22.7,0c-2.5,2.5-4.1,5.7-4.6,9.2h-15.3c-5.2-0.1-9.5,4.1-9.6,9.3s4.1,9.5,9.3,9.6c0.1,0,0.2,0,0.3,0h212.4
		c5.2,0.1,9.5-4.1,9.6-9.3s-4.1-9.5-9.3-9.6C1864.5,471.9,1864.4,471.9,1864.3,471.9L1864.3,471.9z M1740.1,471.9L1740.1,471.9
		C1740,471.9,1740,471.9,1740.1,471.9L1740.1,471.9z"/>
</g>
</svg>
