<svg xmlns="http://www.w3.org/2000/svg" width="1935.7" height="178.694" viewBox="0 0 1935.7 178.694">
  <g id="Group_11843" data-name="Group 11843" transform="translate(15.748 -3142.306)">
    <g id="Group_11041" data-name="Group 11041" transform="translate(225.047 3491.488)">
      <path id="Path_10378" data-name="Path 10378" d="M0-.76,1914.38,0a17.118,17.118,0,0,1,0,34.236L0,34.916c-9.454,0,0-7.6,0-17.058S-9.454-.76,0-.76Z" transform="translate(-236.592 -205.404)" fill="#898685"/>
      <g id="Group_4464" data-name="Group 4464" transform="translate(-237.046 -188.286)">
        <path id="Path_10101" data-name="Path 10101" d="M2023.849,504.164h-12.214v1.094h12.214Zm-31.292,0h-19.078v1.094h19.078Zm-38.156,0h-19.078v1.094H1954.4Zm-38.156,0h-19.078v1.094h19.078Zm-38.156,0h-19.078v1.094h19.078Zm-38.156,0h-19.078v1.094h19.078Zm-38.156,0H1782.7v1.094h19.078Zm-38.156,0h-19.078v1.094h19.078Zm-38.156,0h-19.078v1.094h19.078Zm-38.156,0h-19.078v1.094h19.078Zm-38.156,0h-19.078v1.094h19.078Zm-38.156,0h-19.078v1.094H1611Zm-38.156,0h-19.078v1.094h19.078Zm-38.156,0H1515.61v1.094h19.078Zm-38.156,0h-19.078v1.094h19.078Zm-38.156,0H1439.3v1.094h19.078Zm-38.156,0h-19.078v1.094h19.078Zm-38.156,0h-19.078v1.094h19.078Zm-38.156,0h-19.078v1.094h19.078Zm-38.156,0h-19.078v1.094h19.078Zm-38.156,0h-19.078v1.094H1267.6Zm-38.156,0h-19.078v1.094h19.078Zm-38.156,0h-19.078v1.094h19.078Zm-38.156,0h-19.078v1.094h19.078Zm-38.157,0H1095.9v1.094h19.078Zm-38.156,0h-19.078v1.094h19.078Zm-38.156,0h-19.078v1.094h19.078Zm-38.156,0H981.43v1.094h19.078Zm-38.156,0H943.274v1.094h19.078Zm-38.156,0H905.118v1.094H924.2Zm-38.156,0H866.963v1.094H886.04Zm-38.156,0H828.807v1.094h19.078Zm-38.156,0H790.651v1.094h19.078Zm-38.156,0H752.5v1.094h19.078Zm-38.156,0H714.34v1.094h19.078Zm-38.156,0H676.184v1.094h19.078Zm-38.156,0H638.029v1.094h19.078Zm-38.156,0H599.873v1.094h19.078Zm-38.156,0H561.717v1.094h19.078Zm-38.156,0H523.561v1.094h19.078Zm-38.156,0H485.406v1.094h19.078Zm-38.156,0H447.25v1.094h19.078Zm-38.156,0H409.094v1.094h19.078Zm-38.156,0H370.939v1.094h19.078Zm-38.156,0H332.783v1.094h19.078Zm-38.156,0H294.627v1.094h19.078Zm-38.156,0H256.472v1.094H275.55Zm-38.156,0H218.316v1.094h19.078Zm-38.156,0H180.16v1.094h19.078Zm-38.156,0H142v1.094h19.078Zm-38.156,0H103.849v1.094h19.078Z" transform="translate(-103.849 -504.164)" fill="#fff"/>
      </g>
      <path id="Path_10106" data-name="Path 10106" d="M1987.027,488.4H78.357c-7.464,0-13.515-3.9-13.515-8.714h0c0-4.813,6.05-8.714,13.515-8.714h1908.67c7.464,0,13.515,3.9,13.515,8.714S1994.491,488.4,1987.027,488.4Z" transform="translate(-305.636 -684.536)" fill="#9fc445"/>
      <path id="Path_10283" data-name="Path 10283" d="M1319.644,448.439a11.835,11.835,0,0,1,21.815,3.475h-53.54C1291.264,436.134,1312.912,433.718,1319.644,448.439Z" transform="translate(1 -664.708)" fill="#9fc445"/>
      <path id="Path_10284" data-name="Path 10284" d="M823.189,468.45A11.835,11.835,0,0,1,845,471.925H791.463C794.808,456.145,816.457,453.729,823.189,468.45Z" transform="translate(0 -680.214)" fill="#9fc445"/>
      <path id="Path_10285" data-name="Path 10285" d="M105.5,448.439a11.835,11.835,0,0,0-21.815,3.475h53.54C133.877,436.134,112.228,433.718,105.5,448.439Z" transform="translate(-92 -663.432)" fill="#9fc445"/>
      <path id="Path_10321" data-name="Path 10321" d="M1057.349,449.442a18.5,18.5,0,0,0-12.83,5.162A21.728,21.728,0,0,0,1010,449.4a9.849,9.849,0,0,0-13.629,13.968c-.2.407-.4.809-.575,1.23a17.035,17.035,0,0,0-28.76,7.947h37.941c.028.075.048.152.077.226H1075.3a18.52,18.52,0,0,0-17.947-23.328Z" transform="translate(-26 -682.648)" fill="#9cba3f"/>
      <path id="Path_10340" data-name="Path 10340" d="M678.7,453.757a11.835,11.835,0,0,1,21.815,3.475h-53.54C650.319,441.452,671.967,439.036,678.7,453.757Z" transform="translate(-5 -669.171)" fill="#9cba3f"/>
    </g>
    <g id="Group_11833" data-name="Group 11833" transform="translate(886.474 3142.306)">
      <rect id="Rectangle_3616" data-name="Rectangle 3616" width="6.477" height="5.065" transform="translate(95.384 141.447)" fill="#29434a"/>
      <rect id="Rectangle_3617" data-name="Rectangle 3617" width="6.477" height="5.065" transform="translate(194.978 141.447)" fill="#29434a"/>
      <rect id="Rectangle_3618" data-name="Rectangle 3618" width="114.368" height="4.231" rx="2.115" transform="translate(91.353 145.301)" fill="#80919b"/>
      <path id="Path_10117" data-name="Path 10117" d="M714.752,1180a2.041,2.041,0,0,0,2.039,1.963H827.073a2.042,2.042,0,0,0,2.039-1.963Z" transform="translate(-623.395 -1032.431)" fill="#567c8a"/>
      <path id="Path_10118" data-name="Path 10118" d="M338.832,1217.051c-71.041,0-128.63,1.981-128.63,4.424s57.59,4.424,128.63,4.424,128.63-1.981,128.63-4.424S409.873,1217.051,338.832,1217.051Z" transform="translate(-207.932 -1062.94)" fill="#004760" opacity="0.15"/>
      <g id="Group_5011" data-name="Group 5011" transform="translate(37.88 115.528)">
        <path id="Path_10119" data-name="Path 10119" d="M1389.282,1008.623h-20.209s-4.911,14.662-2.466,24.756l41.938,2.806h8.448v-16.636Z" transform="translate(-1197.471 -1006.842)" fill="#182126"/>
        <rect id="Rectangle_3619" data-name="Rectangle 3619" width="55.964" height="26.885" fill="#182126"/>
      </g>
      <path id="Path_10120" data-name="Path 10120" d="M482.047,680.287a8.458,8.458,0,0,0-6.121-7.774l-18.258-5.362a6.305,6.305,0,0,1-2.881-3.313l-15.036-45.7H229.607v94.706h37.432a1.558,1.558,0,0,0,1.554-1.554v-.016a22.172,22.172,0,1,1,44.345,0v.016a1.558,1.558,0,0,0,1.553,1.554h114.86a1.74,1.74,0,0,0,1.741-1.741l.565-4.639c1.881-9.589,10.458-14.225,14.7-15.226a16.881,16.881,0,0,1,5.21-.6c11.934.832,16.142,8.636,17.236,11.294a1.431,1.431,0,0,0,1.325.882h11.922V680.6Q482.053,680.444,482.047,680.287Z" transform="translate(-223.911 -569.779)" fill="#ffd08e"/>
      <g id="Group_5012" data-name="Group 5012" transform="translate(22.911 119.625)">
        <path id="Path_10121" data-name="Path 10121" d="M337.584,1022.105c-.3.183-.041.312-.041.312h0l.133.079a9.124,9.124,0,0,1,.829.572,9.559,9.559,0,0,1,1.786,1.816,8.951,8.951,0,0,1,.78,1.237c.058.111.112.226.167.339l.078.174.071.163.14.322.067.144c.023.048.043.1.069.146.19.4.4.786.624,1.161s.46.738.7,1.081.492.667.738.969.49.58.724.832.457.476.663.67l.15.139.143.128a.229.229,0,0,0,.324-.049c1.529-1.759,1.125-5.049-1.036-7.661C342.611,1022.16,339.6,1021.126,337.584,1022.105Z" transform="translate(-335.615 -1021.74)" fill="#20938b"/>
        <path id="Path_10122" data-name="Path 10122" d="M328.283,1026.591l-.043.04-.005,0c-1.778,1.69-1.437,5.159.819,7.888,2.185,2.644,5.389,3.652,7.4,2.416.224-.154.129-.234.064-.265l-.042-.016c-.065-.027-.134-.055-.2-.085a7.214,7.214,0,0,1-.9-.477,9.445,9.445,0,0,1-1.957-1.631,10.022,10.022,0,0,1-1.653-2.441c-.028-.056-.054-.118-.081-.177l-.08-.18c-.014-.031-.025-.057-.036-.085l-.033-.082-.066-.164-.065-.163-.059-.151-.128-.3c-.175-.394-.37-.776-.575-1.139a17.87,17.87,0,0,0-1.279-1.938c-.208-.277-.407-.529-.588-.75l-.241-.292A.169.169,0,0,0,328.283,1026.591Z" transform="translate(-327.101 -1025.693)" fill="#20938b"/>
        <path id="Path_10123" data-name="Path 10123" d="M338.21,1022.105l-.008.005c2.052-.314,4.619.827,6.489,3.088s2.51,5.009,1.808,6.966c1.357-1.8.911-4.957-1.179-7.484S340.229,1021.126,338.21,1022.105Z" transform="translate(-336.242 -1021.74)" fill="#20938b"/>
        <path id="Path_10124" data-name="Path 10124" d="M327.864,1029.425l.007-.007c-.694,1.956-.056,4.692,1.813,6.953s4.448,3.407,6.5,3.086c-2.019,1-5.04-.037-7.13-2.565S326.522,1031.224,327.864,1029.425Z" transform="translate(-327.102 -1028.062)" fill="#20938b"/>
      </g>
      <g id="Group_5013" data-name="Group 5013" transform="translate(9.358 79.095)">
        <path id="Path_10125" data-name="Path 10125" d="M267.4,800.984c-.209-.277-.315-.012-.315-.012h0c-.022.046-.044.093-.067.14a9.166,9.166,0,0,1-.493.878,9.53,9.53,0,0,1-1.642,1.947,8.989,8.989,0,0,1-1.16.891c-.105.068-.214.132-.322.2l-.166.093-.156.086-.307.169-.137.08c-.046.027-.091.051-.138.082-.378.226-.746.471-1.1.729s-.692.527-1.011.8-.619.552-.9.825-.533.542-.762.8-.432.5-.605.722l-.125.163-.114.154a.229.229,0,0,0,.078.318c1.893,1.359,5.132.651,7.533-1.742C267.809,806,268.56,802.9,267.4,800.984Z" transform="translate(-256.524 -799.328)" fill="#20938b"/>
        <path id="Path_10126" data-name="Path 10126" d="M260.617,793.117l-.043-.039-.005,0c-1.848-1.613-5.27-.952-7.778,1.547-2.429,2.421-3.136,5.7-1.719,7.593.174.209.245.107.27.039l.012-.044c.02-.068.042-.138.066-.21a7.254,7.254,0,0,1,.391-.939,9.455,9.455,0,0,1,1.443-2.1,10.006,10.006,0,0,1,2.277-1.873c.053-.033.112-.065.169-.1l.171-.1c.03-.017.055-.03.081-.043l.079-.04.158-.081.156-.08.145-.072.285-.155c.376-.211.738-.44,1.081-.678a17.932,17.932,0,0,0,1.811-1.453c.256-.233.488-.454.693-.655l.269-.267A.169.169,0,0,0,260.617,793.117Z" transform="translate(-250.346 -792.194)" fill="#20938b"/>
        <path id="Path_10127" data-name="Path 10127" d="M268.806,801.536l-.006-.008c.5,2.014-.395,4.676-2.473,6.747s-4.755,2.964-6.768,2.447c1.914,1.185,5.02.447,7.343-1.868S269.969,803.455,268.806,801.536Z" transform="translate(-257.932 -799.88)" fill="#20938b"/>
        <path id="Path_10128" data-name="Path 10128" d="M260.117,792.742l.008.006c-2.012-.51-4.677.379-6.756,2.45s-2.98,4.745-2.47,6.76c-1.178-1.918-.43-5.022,1.892-7.337S258.2,791.573,260.117,792.742Z" transform="translate(-250.348 -792.195)" fill="#20938b"/>
      </g>
      <g id="Group_5014" data-name="Group 5014" transform="translate(226.432 104.993)">
        <path id="Path_10129" data-name="Path 10129" d="M1496.183,949.319c-.184-.295-.312-.04-.312-.04h0c-.025.044-.052.088-.08.133a9.157,9.157,0,0,1-.571.83,9.564,9.564,0,0,1-1.812,1.789,8.992,8.992,0,0,1-1.236.782c-.111.058-.225.112-.339.168l-.173.078-.163.071-.322.14-.144.067c-.048.023-.1.043-.145.069-.4.191-.786.4-1.161.626s-.737.461-1.079.7-.666.493-.968.74-.579.491-.831.726-.476.458-.668.664l-.139.151-.127.143a.228.228,0,0,0,.049.323c1.762,1.526,5.051,1.116,7.66-1.049C1496.136,954.347,1497.165,951.336,1496.183,949.319Z" transform="translate(-1484.787 -947.357)" fill="#20938b"/>
        <path id="Path_10130" data-name="Path 10130" d="M1490.617,940.048l-.039-.043,0-.005c-1.694-1.775-5.162-1.427-7.887.834-2.639,2.19-3.642,5.4-2.4,7.4.154.224.234.129.266.064l.016-.042c.026-.066.055-.134.085-.2a7.232,7.232,0,0,1,.475-.9,9.449,9.449,0,0,1,1.628-1.96,10.012,10.012,0,0,1,2.438-1.658c.056-.028.118-.055.177-.081l.18-.08c.031-.014.057-.025.085-.036l.082-.033.164-.066.163-.065.151-.059.3-.128c.394-.176.775-.37,1.138-.577a17.92,17.92,0,0,0,1.936-1.283c.276-.209.527-.408.749-.589l.292-.241A.168.168,0,0,0,1490.617,940.048Z" transform="translate(-1479.756 -938.871)" fill="#20938b"/>
        <path id="Path_10131" data-name="Path 10131" d="M1497.451,949.943l-.006-.008c.318,2.051-.818,4.621-3.076,6.495s-5,2.519-6.963,1.821c1.8,1.354,4.959.9,7.482-1.192S1498.433,951.961,1497.451,949.943Z" transform="translate(-1486.055 -947.981)" fill="#20938b"/>
        <path id="Path_10132" data-name="Path 10132" d="M1490.153,939.629l.007.007c-1.958-.691-4.693-.048-6.95,1.825s-3.4,4.454-3.074,6.507c-1-2.017.028-5.04,2.552-7.134S1488.352,938.291,1490.153,939.629Z" transform="translate(-1479.757 -938.872)" fill="#20938b"/>
      </g>
      <g id="Group_5015" data-name="Group 5015" transform="translate(159.241 54.246)">
        <path id="Path_10133" data-name="Path 10133" d="M1116.426,659.884c-.215-.272-.314-.005-.314-.005h0c-.02.047-.042.094-.064.142a9.158,9.158,0,0,1-.474.889,9.542,9.542,0,0,1-1.6,1.981,8.992,8.992,0,0,1-1.141.916c-.1.07-.211.137-.318.2l-.164.1-.154.089-.3.175-.135.082c-.046.028-.09.053-.137.085-.373.234-.735.487-1.083.752s-.68.541-.994.821-.607.565-.879.844-.521.553-.744.814-.421.509-.59.735l-.121.165-.11.156a.229.229,0,0,0,.085.316c1.922,1.318,5.144.542,7.494-1.9C1116.944,664.885,1117.629,661.778,1116.426,659.884Z" transform="translate(-1105.682 -658.296)" fill="#20938b"/>
        <path id="Path_10134" data-name="Path 10134" d="M1109.34,652.328l-.044-.038-.005,0c-1.881-1.574-5.289-.84-7.744,1.713-2.377,2.472-3.014,5.771-1.556,7.628.178.2.247.1.271.033,0-.015.007-.029.011-.044.019-.068.039-.139.061-.211a7.291,7.291,0,0,1,.371-.948,9.463,9.463,0,0,1,1.4-2.131,10.02,10.02,0,0,1,2.237-1.921c.052-.034.111-.067.166-.1l.169-.1c.029-.018.054-.031.08-.045l.078-.042.156-.084.154-.083.144-.076.282-.161c.371-.219.728-.456,1.066-.7a17.893,17.893,0,0,0,1.779-1.492c.251-.238.479-.465.679-.669l.263-.273A.169.169,0,0,0,1109.34,652.328Z" transform="translate(-1099.215 -651.46)" fill="#20938b"/>
        <path id="Path_10135" data-name="Path 10135" d="M1117.867,660.42l-.006-.008c.546,2-.295,4.683-2.328,6.8s-4.691,3.064-6.714,2.591c1.939,1.144,5.029.34,7.3-2.024S1119.07,662.314,1117.867,660.42Z" transform="translate(-1107.122 -658.831)" fill="#20938b"/>
        <path id="Path_10136" data-name="Path 10136" d="M1108.833,651.964l.008.006c-2.022-.467-4.668.479-6.7,2.594s-2.877,4.807-2.324,6.811c-1.22-1.892-.538-5.011,1.735-7.376S1106.892,650.837,1108.833,651.964Z" transform="translate(-1099.217 -651.461)" fill="#20938b"/>
      </g>
      <g id="Group_5016" data-name="Group 5016" transform="translate(96.281 90.831)">
        <path id="Path_10137" data-name="Path 10137" d="M765.632,956.859a15.1,15.1,0,0,1-7.751,5.557c-6.694,1.834-9.751-4.083-10.454-10.988-.925-9.076,3.815-21.879,11.5-23.983,2.678-.734,3.738.865,3.868,2.145.482,4.734-5.276,11.061-9.583,12.241-1.688.462-1.861-.062-2.269.049s-.538,1.177-.458,1.957a2.048,2.048,0,0,0,2.833,1.971c6.461-1.77,14.791-10.461,14.093-17.31-.494-4.844-3.951-6.473-8.142-5.325-11.584,3.173-17.6,18.673-16.5,29.531.488,4.787,1.891,8.538,4.033,11.026h17.255a21.039,21.039,0,0,0,4.838-4.788C770.156,957.223,766.9,954.05,765.632,956.859Z" transform="translate(-742.64 -911.493)" fill="#20938b"/>
        <path id="Path_10138" data-name="Path 10138" d="M945.355,881.022l-.125-1.225,6.734-1.444c1.583-.319,1.523.27,1.872.174.757-.207.828-3.031.749-3.811-.119-1.169-1.265-1.256-2.545-.906-1.572.431-4.523,1.411-7.179,2.367l-1.606-15.759c-.136-1.336-1.472-2.115-3.393-1.589-.815.223-1.84.733-1.8,1.123s.633.342.8,1.956l1.611,15.814c-.349.1-.635.231-.809.279a2.056,2.056,0,0,0-.793.546c-.341-.742-1.335-.765-2.429-.465-1.572.43-4.523,1.41-7.179,2.367l-1.606-15.758c-.136-1.336-1.472-2.115-3.393-1.589-.815.223-1.84.733-1.8,1.122s.633.342.8,1.956L924.872,882c-.349.1-.635.231-.809.279a1.74,1.74,0,0,0-1.2,1.7c.091.891,1.032,1.32,2.054,1.955.128.08.261.215.389.294l.63,6.183a5.316,5.316,0,0,1-3.782,5.155,4.27,4.27,0,0,1-1.176.208,21.785,21.785,0,0,0,.2-6.237c-.55-5.4-3.165-8.748-5.9-8-3.144.861-4.409,4.3-4.051,7.806.408,4.009,2.238,7.286,5.2,8.764a4.813,4.813,0,0,1-3.219,3.057c-2.27.622-4.429-1.191-4.906-5.868-.562-5.513.975-8.051,1.77-9.643,1.417-1.361-.048-3.993-1.561-3.579-1.281.351-5.433,6.582-4.6,14.767.567,5.568,3.674,9.64,9.554,8.029a9.814,9.814,0,0,0,6.577-5.923,9.385,9.385,0,0,0,2.892-.391,8.97,8.97,0,0,0,3.631-1.94l1.251,12.285h4.548l-2.013-19.76a30.843,30.843,0,0,1,5.894,14.984c.175,1.715.267,3.32.284,4.776h4.28a36.905,36.905,0,0,0-.14-5.988c-.936-9.188-4.987-14.889-10.914-19.619l-.125-1.225,6.734-1.444c1.583-.319,1.523.27,1.873.174.45-.123.657-1.17.735-2.164a10.848,10.848,0,0,0,1.541,1.025c.128.08.261.215.389.294l2.949,28.946H948.4c-.007-.068-.015-.135-.022-.2l-2.428-23.832a30.845,30.845,0,0,1,5.894,14.984,39.992,39.992,0,0,1,.06,9.049h3.914a32.352,32.352,0,0,0,.45-10.261C955.333,891.454,951.282,885.753,945.355,881.022Zm-28.192,15.162a8.987,8.987,0,0,1-2.876-5.909c-.176-1.726.083-2.713.723-2.888,1.223-.335,1.681,2.4,2.066,6.188A19.988,19.988,0,0,1,917.162,896.185Z" transform="translate(-875.345 -858.665)" fill="#20938b"/>
        <path id="Path_10139" data-name="Path 10139" d="M1236.367,899.443c-.352,3.588-1.846,7.718-6.387,8.961-3.027.829-4.757-.3-5.765-1.97,5.482-3.161,7.952-8.874,7.532-12.995-.34-3.341-2.552-5.082-5.812-4.189-4.483,1.228-8.367,7.729-7.647,14.8a12.576,12.576,0,0,0,.438,2.269c-.7,2.951-2.382,5.818-6.034,6.819-3.027.829-4.758-.3-5.765-1.969,5.482-3.162,7.952-8.875,7.532-13-.341-3.341-2.553-5.082-5.812-4.189-4.482,1.227-8.368,7.729-7.647,14.8.709,6.96,6.129,9.654,11.427,8.2a13.171,13.171,0,0,0,8.6-6.695,8.829,8.829,0,0,0,8.689,1.959,13.6,13.6,0,0,0,10.261-13.227C1240.009,897.015,1236.635,896.794,1236.367,899.443Zm-30.612,7.869c-.355-2.307-.106-8.671,2.747-9.452.757-.207,1.3.389,1.421,1.614a9.939,9.939,0,0,1-4.007,8.825C1205.882,907.964,1205.789,907.646,1205.755,907.312Zm17.288-4.735c-.354-2.307-.106-8.671,2.747-9.452.757-.207,1.3.389,1.421,1.614a9.938,9.938,0,0,1-4.008,8.825C1223.17,903.229,1223.078,902.911,1223.044,902.577Z" transform="translate(-1119.996 -883.659)" fill="#20938b"/>
      </g>
      <path id="Path_10140" data-name="Path 10140" d="M1606.955,1116.588h-11.5a.947.947,0,0,1-.981-.908l-.02-10.409a.944.944,0,0,1,.978-.908h11.5a.948.948,0,0,1,.981.908l.02,10.409A.944.944,0,0,1,1606.955,1116.588Z" transform="translate(-1347.768 -970.149)" fill="#8ea3ad"/>
      <rect id="Rectangle_3620" data-name="Rectangle 3620" width="2.024" height="12.225" transform="translate(253.424 134.214)" fill="#a3b6bd"/>
      <rect id="Rectangle_3621" data-name="Rectangle 3621" width="3.546" height="12.225" transform="translate(248.954 134.214)" fill="#a3b6bd"/>
      <path id="Path_10141" data-name="Path 10141" d="M440.371,620.025H229.607v-1.884H439.751Z" transform="translate(-223.911 -569.779)" fill="#6b2147" opacity="0.15"/>
      <g id="Group_5017" data-name="Group 5017" transform="translate(247.937 122.937)">
        <path id="Rectangle_3622" data-name="Rectangle 3622" d="M1.2,0H5.3A1.2,1.2,0,0,1,6.5,1.2v0A1.2,1.2,0,0,1,5.3,2.4H1.2A1.2,1.2,0,0,1,0,1.2v0A1.2,1.2,0,0,1,1.2,0Z" fill="#f77e0b"/>
        <path id="Path_10142" data-name="Path 10142" d="M1607.322,1040.5h-5.04a.73.73,0,0,0-.73.73v.942a.729.729,0,0,0,.73.73h5.04a.729.729,0,0,0,.729-.73v-.942A.729.729,0,0,0,1607.322,1040.5Zm.353,1.672a.354.354,0,0,1-.353.353h-5.04a.353.353,0,0,1-.353-.353v-.942a.353.353,0,0,1,.353-.354h5.04a.354.354,0,0,1,.353.354Z" transform="translate(-1601.553 -1040.498)" fill="#e50019" opacity="0.21"/>
      </g>
      <rect id="Rectangle_3623" data-name="Rectangle 3623" width="112.231" height="1.019" transform="translate(18.553 55.148)" fill="#97a6ac"/>
      <g id="Group_5018" data-name="Group 5018" transform="translate(5.696 139.959)">
        <path id="Path_10143" data-name="Path 10143" d="M701.246,1136.9c.034.492.052.988.053,1.488H819.448c0-.04.006-.079.006-.119l.167-1.369Z" transform="translate(-617.97 -1136.902)" fill="#6b2147" opacity="0.15"/>
        <path id="Path_10144" data-name="Path 10144" d="M229.607,1138.39h38.986q0-.75.054-1.488h-39.04Z" transform="translate(-229.607 -1136.902)" fill="#6b2147" opacity="0.15"/>
      </g>
      <g id="Group_5021" data-name="Group 5021" transform="translate(17.017 55.148)">
        <g id="Group_5020" data-name="Group 5020" transform="translate(1.536)">
          <rect id="Rectangle_3624" data-name="Rectangle 3624" width="108.043" height="50.228" transform="translate(110.612 52.797) rotate(180)" fill="#312a3c"/>
          <g id="Group_5019" data-name="Group 5019" transform="translate(2.569 21.227)">
            <path id="Path_10145" data-name="Path 10145" d="M320.785,786.152v-9.36h24.57v9.36h3.653v-9.36h24.57v9.36h2.3V780.77a1.618,1.618,0,0,1,1.624-1.611h3.324a1.617,1.617,0,0,1,1.623,1.611v5.382h2.27V780.77a1.618,1.618,0,0,1,1.624-1.611h3.324a1.617,1.617,0,0,1,1.623,1.611v5.382h2.27V780.77a1.617,1.617,0,0,1,1.623-1.611H398.5a1.617,1.617,0,0,1,1.623,1.611v5.382h2.27V780.77a1.617,1.617,0,0,1,1.623-1.611h3.324a1.617,1.617,0,0,1,1.623,1.611v5.382h2.553v-9.36h11.242v9.36h2.252v1.587H316.971v-1.587Z" transform="translate(-316.971 -776.792)" fill="#262030"/>
            <path id="Path_10146" data-name="Path 10146" d="M319.223,866.55h11.242v9.36h2.553v-5.382a1.617,1.617,0,0,1,1.623-1.611h3.324a1.617,1.617,0,0,1,1.623,1.611v5.382h2.27v-5.382a1.617,1.617,0,0,1,1.623-1.611H346.8a1.617,1.617,0,0,1,1.624,1.611v5.382h2.27v-5.382a1.617,1.617,0,0,1,1.623-1.611h3.324a1.617,1.617,0,0,1,1.623,1.611v5.382h2.27v-5.382a1.617,1.617,0,0,1,1.623-1.611h3.324a1.617,1.617,0,0,1,1.624,1.611v5.382h2.3v-9.36h24.57v9.36h32.038V877.5H316.971V875.91h2.252Z" transform="translate(-316.971 -850.702)" fill="#262030"/>
          </g>
          <path id="Path_10147" data-name="Path 10147" d="M302.421,656.569v55.366H415.6V656.569H302.421Zm2.569,2.569H413.033v50.228H304.99Z" transform="translate(-302.421 -656.569)" fill="#80919b"/>
        </g>
        <path id="Rectangle_3625" data-name="Rectangle 3625" d="M1.581,0H114.672a1.581,1.581,0,0,1,1.581,1.581v0a1.581,1.581,0,0,1-1.581,1.581H1.58A1.58,1.58,0,0,1,0,1.582v0A1.581,1.581,0,0,1,1.581,0Z" transform="translate(0 55.366)" fill="#6e919f"/>
        <path id="Path_10148" data-name="Path 10148" d="M409.975,971.718v-1.15a.432.432,0,0,0-.432-.431H294.153a.431.431,0,0,0-.431.431v1.15Z" transform="translate(-293.722 -914.771)" fill="#97a6ac"/>
        <rect id="Rectangle_3626" data-name="Rectangle 3626" width="115.317" height="2.108" transform="translate(0.431 58.528)" fill="#6b2147" opacity="0.15"/>
      </g>
      <path id="Path_10149" data-name="Path 10149" d="M1660.414,973.26h-1.066v12.756h1.066a.957.957,0,0,0,.957-.957V974.217A.957.957,0,0,0,1660.414,973.26Z" transform="translate(-1401.206 -862.195)" fill="#8ea3ad"/>
      <path id="Path_10150" data-name="Path 10150" d="M1660.414,1055.068h-1.066v4.889h1.066a.957.957,0,0,0,.957-.957v-2.974A.957.957,0,0,0,1660.414,1055.068Z" transform="translate(-1401.206 -929.558)" fill="#8ea3ad"/>
      <g id="Group_5022" data-name="Group 5022" transform="translate(205.459 61.396)">
        <path id="Path_10151" data-name="Path 10151" d="M1382.888,722.62l-9.432-28.635a2.957,2.957,0,0,0-2.808-2.031h-7.925a1.749,1.749,0,0,0-1.749,1.749v29.055a1.749,1.749,0,0,0,1.749,1.749h18.8A1.437,1.437,0,0,0,1382.888,722.62Z" transform="translate(-1360.973 -691.954)" fill="#312a3c"/>
        <path id="Path_10152" data-name="Path 10152" d="M1379.724,713.015l-6.269-19.03a2.957,2.957,0,0,0-2.808-2.031h-7.925a1.749,1.749,0,0,0-1.749,1.749v7.691Z" transform="translate(-1360.973 -691.954)" fill="#463c56"/>
      </g>
      <g id="Group_5023" data-name="Group 5023" transform="translate(219.859 66.659)">
        <path id="Rectangle_3627" data-name="Rectangle 3627" d="M1.753,0h0A1.754,1.754,0,0,1,3.508,1.754V3.976A1.754,1.754,0,0,1,1.753,5.73h0A1.753,1.753,0,0,1,0,3.977V1.753A1.753,1.753,0,0,1,1.753,0Z" transform="translate(0 19.594)" fill="#d0e7f3"/>
        <path id="Path_10153" data-name="Path 10153" d="M1453.356,721.765a.685.685,0,0,0-.686.686V751.9a.686.686,0,0,0,1.371,0V722.451A.686.686,0,0,0,1453.356,721.765Z" transform="translate(-1450.88 -721.765)" fill="#8ea3ad"/>
        <path id="Path_10154" data-name="Path 10154" d="M1448.125,733.127v10.078a1.488,1.488,0,0,0,1.488-1.488v-7.1A1.488,1.488,0,0,0,1448.125,733.127Z" transform="translate(-1447.137 -731.121)" fill="#182126"/>
        <path id="Path_10155" data-name="Path 10155" d="M1448.125,801.467v10.078a1.488,1.488,0,0,0,1.488-1.488v-7.1A1.488,1.488,0,0,0,1448.125,801.467Z" transform="translate(-1447.137 -787.394)" fill="#182126"/>
      </g>
      <path id="Path_10156" data-name="Path 10156" d="M1209.3,643.035h-26.831a1.912,1.912,0,1,0,0,3.824H1209.3a1.912,1.912,0,1,0,0-3.824Z" transform="translate(-1006.956 -590.277)" fill="#6b2147" opacity="0.15"/>
      <path id="Path_10157" data-name="Path 10157" d="M215.631,1010.218v1.822a2.468,2.468,0,0,0,2.468,2.468v-6.758A2.468,2.468,0,0,0,215.631,1010.218Z" transform="translate(-212.402 -890.595)" fill="#e12a36"/>
      <path id="Path_10158" data-name="Path 10158" d="M215.631,1055.38v1.822a2.468,2.468,0,0,0,2.468,2.468v-6.758A2.468,2.468,0,0,0,215.631,1055.38Z" transform="translate(-212.402 -927.783)" fill="#e12a36"/>
      <path id="Path_10159" data-name="Path 10159" d="M224.057,1014.3a2.462,2.462,0,0,0,.98.2v-6.758a2.454,2.454,0,0,0-.98.2Z" transform="translate(-219.341 -890.595)" fill="#8ea3ad"/>
      <path id="Path_10160" data-name="Path 10160" d="M224.057,1059.466a2.452,2.452,0,0,0,.98.2v-6.758a2.458,2.458,0,0,0-.98.2Z" transform="translate(-219.341 -927.783)" fill="#8ea3ad"/>
      <g id="Group_5027" data-name="Group 5027" transform="translate(209.409 123.599)">
        <path id="Path_10161" data-name="Path 10161" d="M1419.042,1062.094a17.847,17.847,0,1,1-17.847-17.848A17.846,17.846,0,0,1,1419.042,1062.094Z" transform="translate(-1383.348 -1044.246)" fill="#242029"/>
        <path id="Path_10162" data-name="Path 10162" d="M1401.2,1044.246a17.848,17.848,0,1,0,17.847,17.848A17.849,17.849,0,0,0,1401.2,1044.246Zm11.691,29.539a16.479,16.479,0,1,1,3.543-5.256A16.487,16.487,0,0,1,1412.886,1073.785Z" transform="translate(-1383.348 -1044.246)" fill="#36323d"/>
        <path id="Path_10163" data-name="Path 10163" d="M1425.455,1073.711a12.645,12.645,0,1,0,12.645,12.646A12.66,12.66,0,0,0,1425.455,1073.711Zm11.01,12.646a10.972,10.972,0,1,1-.864-4.285A10.946,10.946,0,0,1,1436.465,1086.357Z" transform="translate(-1407.608 -1068.509)" fill="#36323d"/>
        <g id="Group_5025" data-name="Group 5025" transform="translate(6.63 6.638)">
          <path id="Path_10164" data-name="Path 10164" d="M1432.488,1104.262a11.681,11.681,0,0,1-11.582-11.232,10.724,10.724,0,0,1,10.8-11.188,11.711,11.711,0,0,1,11.624,11.188A10.769,10.769,0,0,1,1432.488,1104.262Z" transform="translate(-1420.899 -1081.842)" fill="#dadcdd" fill-rule="evenodd"/>
          <path id="Path_10165" data-name="Path 10165" d="M1436.381,1107.339a10.806,10.806,0,0,1-10.714-10.39,9.921,9.921,0,0,1,9.987-10.349,10.833,10.833,0,0,1,10.753,10.349A9.962,9.962,0,0,1,1436.381,1107.339Z" transform="translate(-1424.82 -1085.76)" fill="#8ea3ad" fill-rule="evenodd"/>
          <path id="Path_10166" data-name="Path 10166" d="M1456.589,1111.82a5.66,5.66,0,0,0-5.69,5.9,6.182,6.182,0,0,0,6.1,5.937,5.68,5.68,0,0,0,5.688-5.937A6.16,6.16,0,0,0,1456.589,1111.82Zm.386,10.994a5.3,5.3,0,0,1-5.236-5.1,4.855,4.855,0,0,1,4.88-5.057,5.284,5.284,0,0,1,5.235,5.057A4.874,4.874,0,0,1,1456.975,1122.814Z" transform="translate(-1445.599 -1106.527)" fill="#dadcdd"/>
          <path id="Path_10167" data-name="Path 10167" d="M1475.921,1138.616a1.892,1.892,0,0,1-1.877-1.852,1.731,1.731,0,0,1,1.749-1.812,1.92,1.92,0,0,1,1.916,1.812A1.772,1.772,0,0,1,1475.921,1138.616Z" transform="translate(-1464.659 -1125.574)" fill="#96999c" fill-rule="evenodd"/>
          <g id="Group_5024" data-name="Group 5024" transform="translate(1.623 1.724)">
            <path id="Path_10168" data-name="Path 10168" d="M1524.111,1116.532a5.666,5.666,0,0,0-.663-1.691,5.011,5.011,0,0,0-.933-1.329c-1.1.846-1.049,1.087-.654,2.014A1.568,1.568,0,0,0,1524.111,1116.532Z" transform="translate(-1505.446 -1109.644)" fill="#172527" fill-rule="evenodd"/>
            <path id="Path_10169" data-name="Path 10169" d="M1529.231,1148.8c-1.412-.08-1.525.161-1.814,1.087a1.558,1.558,0,0,0,1.124,2.175,5.951,5.951,0,0,0,.587-1.651A4.891,4.891,0,0,0,1529.231,1148.8Z" transform="translate(-1510.131 -1138.686)" fill="#172527" fill-rule="evenodd"/>
            <path id="Path_10170" data-name="Path 10170" d="M1508.419,1178.858a1.488,1.488,0,0,0-.481,2.376,5.256,5.256,0,0,0,1.5-.886,5.042,5.042,0,0,0,1.128-1.128C1509.485,1178.254,1509.248,1178.374,1508.419,1178.858Z" transform="translate(-1493.874 -1163.151)" fill="#172527" fill-rule="evenodd"/>
            <path id="Path_10171" data-name="Path 10171" d="M1474.849,1189.459c-1.054-.2-1.724.2-1.923,1.41a5.285,5.285,0,0,0,1.743.322,7.036,7.036,0,0,0,1.648-.081C1476.107,1189.7,1475.822,1189.62,1474.849,1189.459Z" transform="translate(-1465.363 -1172.141)" fill="#172527" fill-rule="evenodd"/>
            <path id="Path_10172" data-name="Path 10172" d="M1441.635,1174.524a6.427,6.427,0,0,0,1.175,1.37,5.229,5.229,0,0,0,1.323.966c.765-1.168.595-1.41-.076-2.175A1.539,1.539,0,0,0,1441.635,1174.524Z" transform="translate(-1439.597 -1159.461)" fill="#172527" fill-rule="evenodd"/>
            <path id="Path_10173" data-name="Path 10173" d="M1430.137,1141.338a5.16,5.16,0,0,0,.062,1.772,4.816,4.816,0,0,0,.418,1.571c1.355-.4,1.387-.644,1.311-1.651A1.584,1.584,0,0,0,1430.137,1141.338Z" transform="translate(-1430.091 -1132.557)" fill="#172527" fill-rule="evenodd"/>
            <path id="Path_10174" data-name="Path 10174" d="M1436.409,1110.186a1.526,1.526,0,0,0-.365-2.376,5.448,5.448,0,0,0-1.081,1.329,5,5,0,0,0-.674,1.45C1435.6,1111.153,1435.792,1110.952,1436.409,1110.186Z" transform="translate(-1433.548 -1104.949)" fill="#172527" fill-rule="evenodd"/>
            <path id="Path_10175" data-name="Path 10175" d="M1497.977,1094.315a7.2,7.2,0,0,0-3.107-1.329c-.315,1.369-.067,1.53.8,2.013A1.482,1.482,0,0,0,1497.977,1094.315Z" transform="translate(-1483.324 -1092.743)" fill="#172527" fill-rule="evenodd"/>
            <path id="Path_10176" data-name="Path 10176" d="M1462.085,1091.61a5.344,5.344,0,0,0-1.722.282,4.572,4.572,0,0,0-1.467.645c.649,1.288.93,1.249,1.891,1.087A1.481,1.481,0,0,0,1462.085,1091.61Z" transform="translate(-1453.81 -1091.608)" fill="#172527" fill-rule="evenodd"/>
          </g>
        </g>
        <g id="Group_5026" data-name="Group 5026" transform="translate(13.715 13.742)">
          <path id="Path_10177" data-name="Path 10177" d="M1477.6,1137.223a1.431,1.431,0,1,0,1.431,1.431A1.431,1.431,0,0,0,1477.6,1137.223Z" transform="translate(-1473.497 -1134.548)" fill="#172527"/>
          <ellipse id="Ellipse_191" data-name="Ellipse 191" cx="0.63" cy="0.63" rx="0.63" ry="0.63" transform="translate(3.477)" fill="#172527"/>
          <ellipse id="Ellipse_192" data-name="Ellipse 192" cx="0.63" cy="0.63" rx="0.63" ry="0.63" transform="translate(3.477 6.953)" fill="#172527"/>
          <path id="Path_10178" data-name="Path 10178" d="M1495.71,1128.916a.63.63,0,1,0-.89,0A.63.63,0,0,0,1495.71,1128.916Z" transform="translate(-1488.7 -1126.823)" fill="#172527"/>
          <path id="Path_10179" data-name="Path 10179" d="M1466.975,1155.868a.63.63,0,1,0,.891,0A.631.631,0,0,0,1466.975,1155.868Z" transform="translate(-1465.772 -1149.75)" fill="#172527"/>
          <ellipse id="Ellipse_193" data-name="Ellipse 193" cx="0.63" cy="0.63" rx="0.63" ry="0.63" transform="translate(6.953 3.476)" fill="#172527"/>
          <ellipse id="Ellipse_194" data-name="Ellipse 194" cx="0.63" cy="0.63" rx="0.63" ry="0.63" transform="translate(0 3.476)" fill="#172527"/>
          <path id="Path_10180" data-name="Path 10180" d="M1494.82,1155.868a.63.63,0,1,0,.89,0A.63.63,0,0,0,1494.82,1155.868Z" transform="translate(-1488.7 -1149.75)" fill="#172527"/>
          <path id="Path_10181" data-name="Path 10181" d="M1466.975,1128.025a.63.63,0,1,0,.891,0A.63.63,0,0,0,1466.975,1128.025Z" transform="translate(-1465.772 -1126.823)" fill="#172527"/>
        </g>
      </g>
      <g id="Group_5031" data-name="Group 5031" transform="translate(49.072 123.599)">
        <path id="Path_10182" data-name="Path 10182" d="M510.964,1062.094a17.848,17.848,0,1,1-17.847-17.848A17.846,17.846,0,0,1,510.964,1062.094Z" transform="translate(-475.269 -1044.246)" fill="#242029"/>
        <path id="Path_10183" data-name="Path 10183" d="M493.117,1044.246a17.848,17.848,0,1,0,17.847,17.848A17.849,17.849,0,0,0,493.117,1044.246Zm11.691,29.539a16.478,16.478,0,1,1,3.543-5.256A16.481,16.481,0,0,1,504.808,1073.785Z" transform="translate(-475.269 -1044.246)" fill="#36323d"/>
        <path id="Path_10184" data-name="Path 10184" d="M517.379,1073.711a12.645,12.645,0,1,0,12.645,12.646A12.66,12.66,0,0,0,517.379,1073.711Zm11.01,12.646a10.972,10.972,0,1,1-.865-4.285A10.944,10.944,0,0,1,528.389,1086.357Z" transform="translate(-499.531 -1068.509)" fill="#36323d"/>
        <g id="Group_5029" data-name="Group 5029" transform="translate(6.631 6.638)">
          <path id="Path_10185" data-name="Path 10185" d="M524.411,1104.262a11.681,11.681,0,0,1-11.582-11.232,10.724,10.724,0,0,1,10.8-11.188,11.711,11.711,0,0,1,11.624,11.188A10.769,10.769,0,0,1,524.411,1104.262Z" transform="translate(-512.821 -1081.842)" fill="#dadcdd" fill-rule="evenodd"/>
          <path id="Path_10186" data-name="Path 10186" d="M528.3,1107.339a10.806,10.806,0,0,1-10.714-10.39,9.921,9.921,0,0,1,9.987-10.349,10.833,10.833,0,0,1,10.753,10.349A9.962,9.962,0,0,1,528.3,1107.339Z" transform="translate(-516.742 -1085.76)" fill="#8ea3ad" fill-rule="evenodd"/>
          <path id="Path_10187" data-name="Path 10187" d="M548.513,1111.82a5.66,5.66,0,0,0-5.69,5.9,6.182,6.182,0,0,0,6.1,5.937,5.679,5.679,0,0,0,5.688-5.937A6.16,6.16,0,0,0,548.513,1111.82Zm.386,10.994a5.3,5.3,0,0,1-5.236-5.1,4.854,4.854,0,0,1,4.879-5.057,5.284,5.284,0,0,1,5.235,5.057A4.874,4.874,0,0,1,548.9,1122.814Z" transform="translate(-537.523 -1106.527)" fill="#dadcdd"/>
          <path id="Path_10188" data-name="Path 10188" d="M567.844,1138.616a1.892,1.892,0,0,1-1.877-1.852,1.731,1.731,0,0,1,1.749-1.812,1.92,1.92,0,0,1,1.916,1.812A1.772,1.772,0,0,1,567.844,1138.616Z" transform="translate(-556.583 -1125.574)" fill="#96999c" fill-rule="evenodd"/>
          <g id="Group_5028" data-name="Group 5028" transform="translate(1.623 1.724)">
            <path id="Path_10189" data-name="Path 10189" d="M616.034,1116.532a5.656,5.656,0,0,0-.664-1.691,5.016,5.016,0,0,0-.933-1.329c-1.1.846-1.049,1.087-.654,2.014A1.568,1.568,0,0,0,616.034,1116.532Z" transform="translate(-597.369 -1109.644)" fill="#172527" fill-rule="evenodd"/>
            <path id="Path_10190" data-name="Path 10190" d="M621.154,1148.8c-1.412-.08-1.524.161-1.814,1.087a1.557,1.557,0,0,0,1.123,2.175,5.954,5.954,0,0,0,.587-1.651A4.885,4.885,0,0,0,621.154,1148.8Z" transform="translate(-602.054 -1138.686)" fill="#172527" fill-rule="evenodd"/>
            <path id="Path_10191" data-name="Path 10191" d="M600.343,1178.858a1.488,1.488,0,0,0-.48,2.376,5.26,5.26,0,0,0,1.5-.886,5.039,5.039,0,0,0,1.128-1.128C601.409,1178.254,601.171,1178.374,600.343,1178.858Z" transform="translate(-585.798 -1163.151)" fill="#172527" fill-rule="evenodd"/>
            <path id="Path_10192" data-name="Path 10192" d="M566.772,1189.459c-1.054-.2-1.724.2-1.924,1.41a5.287,5.287,0,0,0,1.743.322,7.038,7.038,0,0,0,1.648-.081C568.029,1189.7,567.744,1189.62,566.772,1189.459Z" transform="translate(-557.285 -1172.141)" fill="#172527" fill-rule="evenodd"/>
            <path id="Path_10193" data-name="Path 10193" d="M533.558,1174.524a6.42,6.42,0,0,0,1.176,1.37,5.23,5.23,0,0,0,1.322.966c.764-1.168.595-1.41-.076-2.175A1.539,1.539,0,0,0,533.558,1174.524Z" transform="translate(-531.52 -1159.461)" fill="#172527" fill-rule="evenodd"/>
            <path id="Path_10194" data-name="Path 10194" d="M522.06,1141.338a5.163,5.163,0,0,0,.062,1.772,4.8,4.8,0,0,0,.418,1.571c1.355-.4,1.387-.644,1.311-1.651A1.584,1.584,0,0,0,522.06,1141.338Z" transform="translate(-522.014 -1132.557)" fill="#172527" fill-rule="evenodd"/>
            <path id="Path_10195" data-name="Path 10195" d="M528.332,1110.186a1.526,1.526,0,0,0-.365-2.376,5.443,5.443,0,0,0-1.081,1.329,4.993,4.993,0,0,0-.674,1.45C527.52,1111.153,527.715,1110.952,528.332,1110.186Z" transform="translate(-525.471 -1104.949)" fill="#172527" fill-rule="evenodd"/>
            <path id="Path_10196" data-name="Path 10196" d="M589.9,1094.315a7.2,7.2,0,0,0-3.107-1.329c-.314,1.369-.067,1.53.8,2.013A1.482,1.482,0,0,0,589.9,1094.315Z" transform="translate(-575.248 -1092.743)" fill="#172527" fill-rule="evenodd"/>
            <path id="Path_10197" data-name="Path 10197" d="M554.008,1091.61a5.341,5.341,0,0,0-1.722.282,4.573,4.573,0,0,0-1.468.645c.649,1.288.93,1.249,1.891,1.087A1.481,1.481,0,0,0,554.008,1091.61Z" transform="translate(-545.733 -1091.608)" fill="#172527" fill-rule="evenodd"/>
          </g>
        </g>
        <g id="Group_5030" data-name="Group 5030" transform="translate(13.715 13.742)">
          <path id="Path_10198" data-name="Path 10198" d="M569.527,1137.223a1.431,1.431,0,1,0,1.431,1.431A1.431,1.431,0,0,0,569.527,1137.223Z" transform="translate(-565.421 -1134.548)" fill="#172527"/>
          <path id="Path_10199" data-name="Path 10199" d="M573.266,1123.333a.63.63,0,1,0-.63-.63A.63.63,0,0,0,573.266,1123.333Z" transform="translate(-569.159 -1122.074)" fill="#172527"/>
          <path id="Path_10200" data-name="Path 10200" d="M573.266,1161.451a.63.63,0,1,0,.63.63A.629.629,0,0,0,573.266,1161.451Z" transform="translate(-569.159 -1154.498)" fill="#172527"/>
          <path id="Path_10201" data-name="Path 10201" d="M587.632,1128.916a.63.63,0,1,0-.89,0A.63.63,0,0,0,587.632,1128.916Z" transform="translate(-580.623 -1126.822)" fill="#172527"/>
          <path id="Path_10202" data-name="Path 10202" d="M558.9,1155.868a.63.63,0,1,0,.891,0A.63.63,0,0,0,558.9,1155.868Z" transform="translate(-557.695 -1149.75)" fill="#172527"/>
          <path id="Path_10203" data-name="Path 10203" d="M592.954,1141.762a.63.63,0,1,0,.63.63A.63.63,0,0,0,592.954,1141.762Z" transform="translate(-585.371 -1138.286)" fill="#172527"/>
          <path id="Path_10204" data-name="Path 10204" d="M554.205,1142.392a.63.63,0,1,0-.629.63A.63.63,0,0,0,554.205,1142.392Z" transform="translate(-552.946 -1138.286)" fill="#172527"/>
          <path id="Path_10205" data-name="Path 10205" d="M586.742,1155.868a.63.63,0,1,0,.89,0A.63.63,0,0,0,586.742,1155.868Z" transform="translate(-580.623 -1149.75)" fill="#172527"/>
          <path id="Path_10206" data-name="Path 10206" d="M558.9,1128.025a.63.63,0,1,0,.891,0A.63.63,0,0,0,558.9,1128.025Z" transform="translate(-557.695 -1126.822)" fill="#172527"/>
        </g>
      </g>
      <path id="Rectangle_3628" data-name="Rectangle 3628" d="M7.277,0H18.332a7.277,7.277,0,0,1,7.277,7.277v18a7.278,7.278,0,0,1-7.278,7.278H7.277A7.277,7.277,0,0,1,0,25.275v-18A7.277,7.277,0,0,1,7.277,0Z" transform="translate(176.127 61.396)" fill="#312a3c"/>
      <path id="Rectangle_3629" data-name="Rectangle 3629" d="M5.169,0h0a5.17,5.17,0,0,1,5.17,5.17V24.15a5.17,5.17,0,0,1-5.17,5.17h0A5.169,5.169,0,0,1,0,24.15V5.169A5.169,5.169,0,0,1,5.169,0Z" transform="translate(143.558 63.012)" fill="#312a3c"/>
      <rect id="Rectangle_3630" data-name="Rectangle 3630" width="10.339" height="29.319" rx="5.17" transform="translate(156.161 63.012)" fill="#312a3c"/>
      <path id="Path_10207" data-name="Path 10207" d="M1210.149,678.6h-26.4a1.9,1.9,0,0,0-1.9,1.9v73.538a1.9,1.9,0,0,0,1.9,1.9h26.4a1.9,1.9,0,0,0,1.9-1.9V680.5A1.9,1.9,0,0,0,1210.149,678.6Zm.95,75.438a.951.951,0,0,1-.95.95h-26.4a.951.951,0,0,1-.95-.95V680.5a.951.951,0,0,1,.95-.95h26.4a.951.951,0,0,1,.95.95Z" transform="translate(-1008.017 -619.562)" fill="#6b2147" opacity="0.15"/>
      <path id="Path_10208" data-name="Path 10208" d="M1018.157,678.6h-26.4a1.9,1.9,0,0,0-1.9,1.9v73.538a1.9,1.9,0,0,0,1.9,1.9h26.4a1.9,1.9,0,0,0,1.9-1.9V680.5A1.9,1.9,0,0,0,1018.157,678.6Zm.95,75.438a.951.951,0,0,1-.95.95h-26.4a.951.951,0,0,1-.95-.95V680.5a.951.951,0,0,1,.95-.95h26.4a.951.951,0,0,1,.95.95Z" transform="translate(-849.924 -619.562)" fill="#6b2147" opacity="0.15"/>
      <path id="Path_10209" data-name="Path 10209" d="M428.74,578.658H220.471a.887.887,0,0,0-.887.887v5.2a.887.887,0,0,0,.887.887h212.95a.887.887,0,0,0,.887-.887v-.518A5.568,5.568,0,0,0,428.74,578.658Z" transform="translate(-215.657 -537.267)" fill="#20938b"/>
      <path id="Path_10210" data-name="Path 10210" d="M440.894,588.172H234.69a1.117,1.117,0,1,0,0,2.233h206.2a1.117,1.117,0,0,0,0-2.233Z" transform="translate(-227.176 -545.101)" fill="#34b2a5"/>
      <path id="Path_10211" data-name="Path 10211" d="M209.848,1116.588h-11.5a.948.948,0,0,1-.981-.908l-.02-10.409a.944.944,0,0,1,.978-.908h11.5a.948.948,0,0,1,.981.908l.02,10.409A.944.944,0,0,1,209.848,1116.588Z" transform="translate(-197.345 -970.149)" fill="#8ea3ad"/>
      <rect id="Rectangle_3631" data-name="Rectangle 3631" width="2.024" height="12.225" transform="translate(6.741 134.214)" fill="#a3b6bd"/>
      <rect id="Rectangle_3632" data-name="Rectangle 3632" width="3.546" height="12.225" transform="translate(2.27 134.214)" fill="#a3b6bd"/>
      <g id="Group_5032" data-name="Group 5032" transform="translate(24.864 90.801)">
        <rect id="Rectangle_3633" data-name="Rectangle 3633" width="13.015" height="17.144" transform="translate(0)" fill="#6e919f"/>
        <rect id="Rectangle_3634" data-name="Rectangle 3634" width="8.566" height="11.255" transform="translate(2.225 5.889)" fill="#5e7f89"/>
        <rect id="Rectangle_3635" data-name="Rectangle 3635" width="13.015" height="2.225" transform="translate(0)" fill="#97a6ac"/>
        <rect id="Rectangle_3636" data-name="Rectangle 3636" width="8.566" height="1.248" transform="translate(2.225 15.896)" fill="#d0e7f3"/>
      </g>
      <g id="Group_5034" data-name="Group 5034" transform="translate(14.213 52.267)">
        <path id="Path_10212" data-name="Path 10212" d="M396.046,641.652a2.069,2.069,0,0,0-1.88-1.4H284a2.068,2.068,0,0,0-1.88,1.4l-4.284,10.935H400.33Z" transform="translate(-277.841 -640.255)" fill="#20938b"/>
        <g id="Group_5033" data-name="Group 5033" transform="translate(0 12.332)">
          <path id="Path_10213" data-name="Path 10213" d="M283.409,747.449a5.5,5.5,0,0,0,5.568-5.419H277.841A5.5,5.5,0,0,0,283.409,747.449Z" transform="translate(-277.841 -736.392)" fill="#037e75"/>
          <rect id="Rectangle_3637" data-name="Rectangle 3637" width="11.135" height="5.638" fill="#037e75"/>
          <path id="Path_10214" data-name="Path 10214" d="M346.474,747.449a5.5,5.5,0,0,0,5.568-5.419H340.906A5.5,5.5,0,0,0,346.474,747.449Z" transform="translate(-329.771 -736.392)" fill="#d9d6d4"/>
          <rect id="Rectangle_3638" data-name="Rectangle 3638" width="11.135" height="5.638" transform="translate(11.135)" fill="#d9d6d4"/>
          <path id="Path_10215" data-name="Path 10215" d="M409.54,747.449a5.5,5.5,0,0,0,5.568-5.419H403.972A5.5,5.5,0,0,0,409.54,747.449Z" transform="translate(-381.701 -736.392)" fill="#037e75"/>
          <rect id="Rectangle_3639" data-name="Rectangle 3639" width="11.135" height="5.638" transform="translate(22.271)" fill="#037e75"/>
          <path id="Path_10216" data-name="Path 10216" d="M472.6,747.449a5.5,5.5,0,0,0,5.568-5.419H467.037A5.5,5.5,0,0,0,472.6,747.449Z" transform="translate(-433.631 -736.392)" fill="#d9d6d4"/>
          <rect id="Rectangle_3640" data-name="Rectangle 3640" width="11.135" height="5.638" transform="translate(33.406)" fill="#d9d6d4"/>
          <path id="Path_10217" data-name="Path 10217" d="M535.671,747.449a5.5,5.5,0,0,0,5.568-5.419H530.1A5.5,5.5,0,0,0,535.671,747.449Z" transform="translate(-485.562 -736.392)" fill="#037e75"/>
          <rect id="Rectangle_3641" data-name="Rectangle 3641" width="11.135" height="5.638" transform="translate(44.541)" fill="#037e75"/>
          <path id="Path_10218" data-name="Path 10218" d="M598.737,747.449a5.5,5.5,0,0,0,5.568-5.419H593.169A5.5,5.5,0,0,0,598.737,747.449Z" transform="translate(-537.492 -736.392)" fill="#d9d6d4"/>
          <rect id="Rectangle_3642" data-name="Rectangle 3642" width="11.135" height="5.638" transform="translate(55.677)" fill="#d9d6d4"/>
          <path id="Path_10219" data-name="Path 10219" d="M661.8,747.449a5.5,5.5,0,0,0,5.568-5.419H656.234A5.5,5.5,0,0,0,661.8,747.449Z" transform="translate(-589.422 -736.392)" fill="#037e75"/>
          <rect id="Rectangle_3643" data-name="Rectangle 3643" width="11.135" height="5.638" transform="translate(66.812)" fill="#037e75"/>
          <path id="Path_10220" data-name="Path 10220" d="M724.868,747.449a5.5,5.5,0,0,0,5.568-5.419H719.3A5.5,5.5,0,0,0,724.868,747.449Z" transform="translate(-641.353 -736.392)" fill="#d9d6d4"/>
          <rect id="Rectangle_3644" data-name="Rectangle 3644" width="11.135" height="5.638" transform="translate(77.947)" fill="#d9d6d4"/>
          <path id="Path_10221" data-name="Path 10221" d="M787.933,747.449a5.5,5.5,0,0,0,5.568-5.419H782.365A5.5,5.5,0,0,0,787.933,747.449Z" transform="translate(-693.282 -736.392)" fill="#037e75"/>
          <rect id="Rectangle_3645" data-name="Rectangle 3645" width="11.135" height="5.638" transform="translate(89.083)" fill="#037e75"/>
          <path id="Path_10222" data-name="Path 10222" d="M851,747.449a5.5,5.5,0,0,0,5.568-5.419H845.432A5.5,5.5,0,0,0,851,747.449Z" transform="translate(-745.214 -736.392)" fill="#d9d6d4"/>
          <rect id="Rectangle_3646" data-name="Rectangle 3646" width="11.135" height="5.638" transform="translate(100.218)" fill="#d9d6d4"/>
          <path id="Path_10223" data-name="Path 10223" d="M914.066,747.449a5.5,5.5,0,0,0,5.568-5.419H908.5A5.5,5.5,0,0,0,914.066,747.449Z" transform="translate(-797.145 -736.392)" fill="#037e75"/>
          <rect id="Rectangle_3647" data-name="Rectangle 3647" width="11.135" height="5.638" transform="translate(111.354)" fill="#037e75"/>
        </g>
        <path id="Path_10224" data-name="Path 10224" d="M437.619,641.652a1.766,1.766,0,0,0-1.538-1.4H345.949a1.766,1.766,0,0,0-1.538,1.4l-3.5,10.935H441.124Z" transform="translate(-329.771 -640.255)" fill="#ebe7e4"/>
        <path id="Path_10225" data-name="Path 10225" d="M479.194,641.652c-.212-.85-.68-1.4-1.2-1.4h-70.1c-.516,0-.984.547-1.2,1.4l-2.726,10.935h77.947Z" transform="translate(-381.701 -640.255)" fill="#20938b"/>
        <path id="Path_10226" data-name="Path 10226" d="M520.767,641.652c-.151-.85-.486-1.4-.854-1.4H469.838c-.369,0-.7.547-.854,1.4l-1.947,10.935h55.677Z" transform="translate(-433.631 -640.255)" fill="#ebe7e4"/>
        <path id="Path_10227" data-name="Path 10227" d="M562.341,641.652c-.091-.85-.292-1.4-.513-1.4H531.784c-.221,0-.422.547-.513,1.4L530.1,652.587h33.406Z" transform="translate(-485.562 -640.255)" fill="#20938b"/>
        <path id="Path_10228" data-name="Path 10228" d="M603.915,641.652a3.656,3.656,0,0,0-.171-1.4H593.729a3.647,3.647,0,0,0-.171,1.4l-.389,10.935H604.3Z" transform="translate(-537.492 -640.255)" fill="#ebe7e4"/>
      </g>
      <path id="Path_10229" data-name="Path 10229" d="M1220.459,716.478v-23.24a1.285,1.285,0,0,0-1.285-1.285h-23.039a1.284,1.284,0,0,0-1.285,1.285v4.787Z" transform="translate(-1018.723 -630.558)" fill="#463c56"/>
      <path id="Path_10230" data-name="Path 10230" d="M1092.112,717.955v-15.69a1.158,1.158,0,0,0-1.157-1.158h-8.024a1.157,1.157,0,0,0-1.157,1.158v8.24Z" transform="translate(-925.612 -638.095)" fill="#463c56"/>
      <path id="Path_10231" data-name="Path 10231" d="M1020.731,717.955v-15.69a1.157,1.157,0,0,0-1.157-1.158h-8.024a1.157,1.157,0,0,0-1.157,1.158v8.24Z" transform="translate(-866.834 -638.095)" fill="#463c56"/>
      <g id="Group_5036" data-name="Group 5036" transform="translate(79.945 87.929)">
        <path id="Path_10232" data-name="Path 10232" d="M678.1,842.23H666.134a.768.768,0,0,0-.768.768v2.9a.768.768,0,0,0,.768.768H674v15.624H680.2V844.336A2.106,2.106,0,0,0,678.1,842.23Z" transform="translate(-662.674 -842.23)" fill="#6e919f"/>
        <path id="Path_10233" data-name="Path 10233" d="M657.095,947.508a.966.966,0,0,0-.966.966v.5H672.6v-1.469Z" transform="translate(-655.068 -928.919)" fill="#6e919f"/>
        <path id="Path_10234" data-name="Path 10234" d="M666.134,842.23a.768.768,0,0,0-.768.768v1.2H680.2a2.1,2.1,0,0,0-2.1-1.963H666.134Z" transform="translate(-662.674 -842.23)" fill="#97a6ac"/>
        <rect id="Rectangle_3648" data-name="Rectangle 3648" width="7.268" height="1.568" transform="translate(4.053 4.433)" fill="#4c747f"/>
        <path id="Path_10235" data-name="Path 10235" d="M675.364,876.217v1.354a.531.531,0,0,0,.53.531h3.982a.53.53,0,0,0,.53-.531v-1.354Z" transform="translate(-670.907 -870.216)" fill="#42656e"/>
        <path id="Path_10236" data-name="Path 10236" d="M650.54,877.92a.42.42,0,0,0,0,.839h4.038v-.839Z" transform="translate(-650.121 -871.618)" fill="#ebe7e4"/>
        <rect id="Rectangle_3649" data-name="Rectangle 3649" width="9.294" height="1.393" transform="translate(2.027 17.195)" fill="#4c747f"/>
        <g id="Group_5035" data-name="Group 5035" transform="translate(2.849 12.348)">
          <path id="Path_10237" data-name="Path 10237" d="M666.259,913.481v.809a.867.867,0,0,0,.867.867h.487v.038a1.817,1.817,0,0,0,1.817,1.817h2.089a1.817,1.817,0,0,0,1.817-1.817v-3c0-.011,0-.021,0-.032h-5.72c0,.011,0,.021,0,.032v.416h-.487A.867.867,0,0,0,666.259,913.481Zm.424.139a.57.57,0,0,1,.57-.57h.361v1.671h-.361a.569.569,0,0,1-.57-.569Z" transform="translate(-666.259 -912.165)" fill="#c9d8de"/>
          <path id="Path_10238" data-name="Path 10238" d="M690.017,912.165H692.9c0,.011,0,.021,0,.032v3a1.817,1.817,0,0,1-1.817,1.817h-1.066Z" transform="translate(-685.822 -912.165)" fill="#b4c7ce"/>
        </g>
        <rect id="Rectangle_3650" data-name="Rectangle 3650" width="1.995" height="1.568" rx="0.784" transform="translate(13.031 4.433)" fill="#b4c7ce"/>
        <path id="Rectangle_3651" data-name="Rectangle 3651" d="M.784,0h.428A.784.784,0,0,1,2,.784v0a.784.784,0,0,1-.784.784H.784A.784.784,0,0,1,0,.784v0A.784.784,0,0,1,.784,0Z" transform="translate(13.031 7.568)" fill="#b4c7ce"/>
        <path id="Rectangle_3652" data-name="Rectangle 3652" d="M.784,0h.427A.784.784,0,0,1,2,.784v0a.784.784,0,0,1-.784.784H.784A.784.784,0,0,1,0,.784v0A.784.784,0,0,1,.784,0Z" transform="translate(13.031 10.703)" fill="#b4c7ce"/>
      </g>
      <rect id="Rectangle_3653" data-name="Rectangle 3653" width="9.69" height="14.056" transform="translate(40.37 93.93)" fill="#c9d8de"/>
      <rect id="Rectangle_3654" data-name="Rectangle 3654" width="9.69" height="1.639" transform="translate(40.37 96.058)" fill="#20938b"/>
      <g id="Group_5037" data-name="Group 5037" transform="translate(42.358 99.743)">
        <path id="Path_10239" data-name="Path 10239" d="M443.809,911.62a2.233,2.233,0,0,1-1.662,1.908,2.418,2.418,0,0,1-.741.1,2.513,2.513,0,0,1-1.686,1.518c-1.507.413-2.3-.63-2.449-2.058-.214-2.1.851-3.7,1.179-3.786.388-.106.763.568.4.918a3.826,3.826,0,0,0-.454,2.472c.122,1.2.676,1.664,1.258,1.5a1.233,1.233,0,0,0,.825-.784,2.7,2.7,0,0,1-1.333-2.246,1.732,1.732,0,0,1,1.039-2c.7-.192,1.372.667,1.513,2.051a5.59,5.59,0,0,1-.052,1.6,1.1,1.1,0,0,0,.3-.053,1.363,1.363,0,0,0,.97-1.322C442.942,911.094,443.921,910.768,443.809,911.62Zm-3.141.787a5.167,5.167,0,0,0-.022-.669c-.1-.971-.216-1.672-.53-1.586-.164.045-.23.3-.185.74A2.3,2.3,0,0,0,440.667,912.407Z" transform="translate(-437.242 -909.138)" fill="#20938b"/>
      </g>
      <g id="Group_5045" data-name="Group 5045" transform="translate(98.891 85.92)">
        <path id="Rectangle_3655" data-name="Rectangle 3655" d="M3.222,0H25.269A3.221,3.221,0,0,1,28.49,3.221v0a3.221,3.221,0,0,1-3.221,3.221H3.221A3.221,3.221,0,0,1,0,3.222v0A3.222,3.222,0,0,1,3.222,0Z" transform="translate(0.19)" fill="#6e919f"/>
        <rect id="Rectangle_3656" data-name="Rectangle 3656" width="25.983" height="13.258" transform="translate(1.473 6.443)" fill="#4e747f"/>
        <path id="Path_10240" data-name="Path 10240" d="M785.446,942.428H758.322a.9.9,0,0,0-.9.9v1.421h28.928V943.33A.9.9,0,0,0,785.446,942.428Z" transform="translate(-757.42 -922.727)" fill="#6e919f"/>
        <rect id="Rectangle_3657" data-name="Rectangle 3657" width="6.26" height="16.642" transform="translate(22.42 4.691)" fill="#6e919f"/>
        <rect id="Rectangle_3658" data-name="Rectangle 3658" width="4.655" height="9.22" transform="translate(23.223 6.443)" fill="#ffd08e"/>
        <g id="Group_5038" data-name="Group 5038" transform="translate(23.747 7.098)">
          <rect id="Rectangle_3659" data-name="Rectangle 3659" width="1.015" height="0.797" rx="0.399" fill="#20938b"/>
          <rect id="Rectangle_3660" data-name="Rectangle 3660" width="2.304" height="0.423" transform="translate(1.302 0.187)" fill="#20938b"/>
        </g>
        <g id="Group_5039" data-name="Group 5039" transform="translate(23.747 8.476)">
          <path id="Rectangle_3661" data-name="Rectangle 3661" d="M.4,0H.616a.4.4,0,0,1,.4.4v0a.4.4,0,0,1-.4.4H.4A.4.4,0,0,1,0,.4v0A.4.4,0,0,1,.4,0Z" fill="#20938b"/>
          <rect id="Rectangle_3662" data-name="Rectangle 3662" width="2.304" height="0.423" transform="translate(1.302 0.188)" fill="#20938b"/>
        </g>
        <g id="Group_5040" data-name="Group 5040" transform="translate(23.747 9.853)">
          <rect id="Rectangle_3663" data-name="Rectangle 3663" width="1.015" height="0.797" rx="0.399" fill="#20938b"/>
          <rect id="Rectangle_3664" data-name="Rectangle 3664" width="2.304" height="0.423" transform="translate(1.302 0.187)" fill="#20938b"/>
        </g>
        <g id="Group_5041" data-name="Group 5041" transform="translate(23.747 11.231)">
          <rect id="Rectangle_3665" data-name="Rectangle 3665" width="1.015" height="0.798" rx="0.399" fill="#20938b"/>
          <rect id="Rectangle_3666" data-name="Rectangle 3666" width="2.304" height="0.423" transform="translate(1.302 0.188)" fill="#20938b"/>
        </g>
        <g id="Group_5042" data-name="Group 5042" transform="translate(23.747 12.608)">
          <rect id="Rectangle_3667" data-name="Rectangle 3667" width="1.015" height="0.797" rx="0.399" fill="#20938b"/>
          <rect id="Rectangle_3668" data-name="Rectangle 3668" width="2.304" height="0.423" transform="translate(1.302 0.187)" fill="#20938b"/>
        </g>
        <g id="Group_5043" data-name="Group 5043" transform="translate(23.747 13.986)">
          <rect id="Rectangle_3669" data-name="Rectangle 3669" width="1.015" height="0.798" rx="0.399" fill="#20938b"/>
          <rect id="Rectangle_3670" data-name="Rectangle 3670" width="2.304" height="0.422" transform="translate(1.302 0.188)" fill="#20938b"/>
        </g>
        <g id="Group_5044" data-name="Group 5044" transform="translate(3.8 6.443)">
          <path id="Path_10241" data-name="Path 10241" d="M778.941,869.29a.481.481,0,0,0,.481.481H785.3a.481.481,0,0,0,.481-.481v-1.951h-6.836Z" transform="translate(-778.941 -867.339)" fill="#97a6ac"/>
          <path id="Path_10242" data-name="Path 10242" d="M832.817,867.339v1.951a.481.481,0,0,0,.481.481h5.874a.481.481,0,0,0,.481-.481v-1.951Z" transform="translate(-823.304 -867.339)" fill="#97a6ac"/>
        </g>
        <rect id="Rectangle_3671" data-name="Rectangle 3671" width="1.9" height="0.756" transform="translate(4.576 8.875)" fill="#2a444a"/>
        <rect id="Rectangle_3672" data-name="Rectangle 3672" width="1.9" height="0.756" transform="translate(7.885 8.875)" fill="#2a444a"/>
        <rect id="Rectangle_3673" data-name="Rectangle 3673" width="1.9" height="0.756" transform="translate(14.126 8.875)" fill="#2a444a"/>
        <rect id="Rectangle_3674" data-name="Rectangle 3674" width="1.9" height="0.756" transform="translate(17.435 8.875)" fill="#2a444a"/>
        <path id="Rectangle_3675" data-name="Rectangle 3675" d="M.784,0h.427a.783.783,0,0,1,.783.783v0a.783.783,0,0,1-.783.783H.783A.783.783,0,0,1,0,.784v0A.784.784,0,0,1,.784,0Z" transform="translate(2.581 2.437)" fill="#b4c7ce"/>
        <path id="Rectangle_3676" data-name="Rectangle 3676" d="M.784,0h.428a.783.783,0,0,1,.783.783v0a.783.783,0,0,1-.783.783H.784A.784.784,0,0,1,0,.784v0A.784.784,0,0,1,.784,0Z" transform="translate(6.888 2.437)" fill="#b4c7ce"/>
        <path id="Rectangle_3677" data-name="Rectangle 3677" d="M.784,0h.427a.783.783,0,0,1,.783.783v0a.783.783,0,0,1-.783.783H.783A.783.783,0,0,1,0,.784v0A.784.784,0,0,1,.784,0Z" transform="translate(11.194 2.437)" fill="#b4c7ce"/>
        <path id="Rectangle_3678" data-name="Rectangle 3678" d="M.784,0h.428a.783.783,0,0,1,.783.783v0a.783.783,0,0,1-.783.783H.784A.784.784,0,0,1,0,.784v0A.784.784,0,0,1,.784,0Z" transform="translate(15.501 2.437)" fill="#b4c7ce"/>
        <path id="Rectangle_3679" data-name="Rectangle 3679" d="M.784,0h.427a.783.783,0,0,1,.783.783v0a.783.783,0,0,1-.783.783H.783A.783.783,0,0,1,0,.784v0A.784.784,0,0,1,.784,0Z" transform="translate(19.808 2.437)" fill="#b4c7ce"/>
      </g>
      <g id="Group_5046" data-name="Group 5046" transform="translate(122.089 0)">
        <path id="Path_10243" data-name="Path 10243" d="M908.315,376.023H896.194a7.784,7.784,0,0,0-6.227,3.27c-1.8,2.533-1.1,5.48-.593,8.3a59.392,59.392,0,0,0,1.868,8.559,7.343,7.343,0,0,0,6.978,5.082h12.49Zm-10.094,21.305a3.688,3.688,0,0,1-2.9-1.381,8.141,8.141,0,0,1-1.133-3.7c-.24-1.6-.5-3.2-.848-4.786-.541-2.467-1.7-6.126,1.5-7.264a14.26,14.26,0,0,1,4.731-.3c.44,0,5.2-.062,5.21.012q.828,8.722,1.657,17.444l-7.29,0C898.838,397.351,898.526,397.347,898.221,397.328Z" transform="translate(-888.805 -370.41)" fill="#92b4c5"/>
        <path id="Path_10244" data-name="Path 10244" d="M988.169,345.094a.849.849,0,0,0-.822-.858h-50.58a.848.848,0,0,0-.822.858c-.093,4.966.346,30,18.345,35.58h15.533C987.823,375.089,988.262,350.06,988.169,345.094Z" transform="translate(-927.616 -344.236)" fill="#b8d3e1"/>
        <path id="Path_10245" data-name="Path 10245" d="M955.473,344.236H936.767a.848.848,0,0,0-.822.858c-.093,4.966.346,30,18.345,35.58h7.766V344.236Z" transform="translate(-927.616 -344.236)" fill="#9cc1d2"/>
        <path id="Path_10246" data-name="Path 10246" d="M959.478,550.608h-65.1a1.127,1.127,0,0,0-.528,2.122l5.339,2.83h55.48l5.339-2.83A1.127,1.127,0,0,0,959.478,550.608Z" transform="translate(-892.463 -514.169)" fill="#b8d3e1"/>
        <path id="Path_10247" data-name="Path 10247" d="M909.218,569.29l3.12,1.654h55.48l3.12-1.654Z" transform="translate(-905.614 -529.553)" fill="#9cc1d2"/>
      </g>
    </g>
  </g>
</svg>
