<?xml version="1.0" encoding="utf-8"?>
<!-- Generator: Adobe Illustrator 23.0.1, SVG Export Plug-In . SVG Version: 6.00 Build 0)  -->
<svg version="1.1" id="Слой_1" xmlns="http://www.w3.org/2000/svg" xmlns:xlink="http://www.w3.org/1999/xlink" x="0px" y="0px"
	 viewBox="0 0 1994.5 955.8" style="enable-background:new 0 0 1994.5 955.8;" xml:space="preserve">
<style type="text/css">
	.st0{opacity:0.43;}
	.st1{fill:#B0BEC5;}
	.st2{fill:#90A4AE;}
	.st3{fill:#E7EFF2;}
	.st4{fill:#D1E0E5;}
	.st5{fill:#CFD8DC;}
	.st6{fill:#FBFFFF;}
	.st7{fill:#A6C658;}
	.st8{fill:#BAC9CE;}
	.st9{fill:#F0FCFF;}
	.st10{opacity:0.35;}
	.st11{fill-rule:evenodd;clip-rule:evenodd;fill:#C6C6C6;}
	.st12{fill-rule:evenodd;clip-rule:evenodd;fill:#7AC6E5;}
	.st13{fill:#86CFEF;}
	.st14{fill-rule:evenodd;clip-rule:evenodd;fill:#A2DAF9;}
	.st15{fill-rule:evenodd;clip-rule:evenodd;fill:#86CFEF;}
	.st16{fill-rule:evenodd;clip-rule:evenodd;fill:#EDEDED;}
	.st17{fill-rule:evenodd;clip-rule:evenodd;fill:#F9F9F9;}
	.st18{fill-rule:evenodd;clip-rule:evenodd;fill:#DDDCDB;}
	.st19{fill:#9E7A7A;}
	.st20{fill:#88CC75;}
	.st21{fill:#E1F7FF;}
	.st22{fill:#7C7C7C;}
	.st23{fill:#AED366;}
	.st24{fill:#B2877F;}
	.st25{fill:#A8837E;}
	.st26{fill:#79B264;}
	.st27{fill:#FFF4E6;}
	.st28{fill:#FCDFCD;}
	.st29{fill:#8E7272;}
	.st30{opacity:0.15;enable-background:new    ;}
	.st31{fill:#4E9FA8;}
	.st32{fill:#FFFCF8;}
	.st33{fill:#448D99;}
	.st34{fill:#B7A5A5;}
	.st35{fill:#7C5D5D;}
	.st36{fill:#B2AEAB;}
	.st37{fill:#CECECE;}
	.st38{fill:#EA8368;}
	.st39{fill:#FCA69A;}
	.st40{fill:#F4927F;}
	.st41{fill:#6D5252;}
	.st42{fill:#BAA2A2;}
	.st43{fill:#A38989;}
	.st44{fill:#FFA188;}
	.st45{fill:#FFD8D2;}
	.st46{fill:#78716C;}
	.st47{fill:#665F5A;}
	.st48{fill:#FFBDB6;}
	.st49{fill:#5EB3B7;}
	.st50{opacity:0.12;enable-background:new    ;}
	.st51{fill:#A3786D;}
	.st52{fill:#80C16B;}
	.st53{fill:#F4D1BD;}
	.st54{fill:#F2D2C0;}
	.st55{fill:#EDBFA9;}
	.st56{fill:#6D5050;}
	.st57{fill:#725656;}
	.st58{fill:#26767A;}
	.st59{fill:#EFD0BF;}
	.st60{fill:#DDDBDB;}
	.st61{fill:#F5F5F5;}
	.st62{fill-rule:evenodd;clip-rule:evenodd;fill:#FFB448;}
	.st63{fill-rule:evenodd;clip-rule:evenodd;fill:#BBDCF9;}
	.st64{fill-rule:evenodd;clip-rule:evenodd;fill:#F29E38;}
	.st65{fill-rule:evenodd;clip-rule:evenodd;fill:#DD8D36;}
	.st66{fill:#565555;}
	.st67{fill:#DAE9EF;}
	.st68{fill-rule:evenodd;clip-rule:evenodd;fill:#686868;}
	.st69{fill-rule:evenodd;clip-rule:evenodd;fill:#565555;}
	.st70{fill-rule:evenodd;clip-rule:evenodd;fill:#DAE9EF;}
	.st71{fill-rule:evenodd;clip-rule:evenodd;fill:#FFF5E1;}
	.st72{fill:#9FC445;}
	.st73{fill:#8C716C;}
	.st74{fill:#7AA8EA;}
	.st75{fill:#626977;}
	.st76{fill:#FFD2B3;}
	.st77{fill:#F76841;}
	.st78{fill:#95BEF9;}
	.st79{fill:#846863;}
	.st80{fill:#B7958D;}
	.st81{fill:#93D0F5;}
	.st82{fill:#A1EBFF;}
	.st83{fill:#FFD0B0;}
	.st84{fill:#4FB254;}
	.st85{fill:#AA8B83;}
	.st86{fill:#565656;}
	.st87{fill:#6ACC6A;}
	.st88{fill:#7B8B9B;}
	.st89{fill:#91C6E2;}
	.st90{fill:#A1E0FF;}
	.st91{fill:#FFC9A4;}
	.st92{fill:#6091D8;}
	.st93{fill:#76A8E5;}
</style>
<g id="Group_4976" transform="translate(41.688 -123.724)">
	<g id="Group_1606" transform="translate(297.403 594.265)">
		<g id="Group_1409" transform="translate(-322 15)" class="st0">
			<g id="Group_1405">
				<path id="Path_3120" class="st1" d="M532.5,195.2L406.2,420.5h231.2L532.5,195.2z"/>
				<path id="Path_3121" class="st2" d="M406.2,420.5l125.1-0.8l-8.9-77.4L509,325.2l23-129.1L406.2,420.5z"/>
				<path id="Path_3122" class="st3" d="M540.7,260.2l29.1,14.6l-37.3-79.6l-25.2,72.1l11,4.4L540.7,260.2z"/>
				<path id="Path_3123" class="st4" d="M494.6,262.2l23.8,9.5l13.6-75.7L494.6,262.2z"/>
			</g>
			<g id="Group_1406">
				<path id="Path_3124" class="st1" d="M197.9,207.3L79.7,418.1h236.4L197.9,207.3z"/>
				<path id="Path_3125" class="st2" d="M79.7,418.1l109.6-0.8l-3.4-98.8l-12.1-9.9l23.5-100.5L79.7,418.1z"/>
				<path id="Path_3126" class="st3" d="M210.8,261.6l25.7,13.4l-38.5-67.6l-13.6,53.5l14.5,7.1L210.8,261.6z"/>
				<path id="Path_3127" class="st4" d="M162.4,270l21.8-9.2l13.1-52.6L162.4,270z"/>
			</g>
			<g id="Group_1407">
				<path id="Path_3128" class="st1" d="M352,121.5l-146.6,299h323.8L427.5,235.6l-11.7-2.4L352,121.5z"/>
				<path id="Path_3129" class="st2" d="M172.2,420.5l85.1-1.1l25.4-96.6l27.4-26.8l41.2-173.3l-75.4,135l-20.5,11.5L172.2,420.5z"
					/>
				<path id="Path_3130" class="st5" d="M427.5,235.6l-11.7-2.4l-27.4-48.1l10.8,102.7l2.9,37.2l49.9,95.5h77.3L427.5,235.6z"/>
				<path id="Path_3131" class="st3" d="M352,121.5l-41,73.4l24.4-5.8l55.8,26.4l10.6-6.6L352,121.5z"/>
				<path id="Path_3132" class="st6" d="M391.3,215.5l10.6-6.6l-13.5-23.7L391.3,215.5z"/>
				<path id="Path_3133" class="st4" d="M313.1,190.9l-2.1,3.9l24.4-5.8l15.8-66.4L313.1,190.9z"/>
			</g>
			<g id="Group_1408">
				<path id="Path_3134" class="st1" d="M627.6,258.6l-23.1,47.8l-7.4,16.5l-56.6,97.7h167.9l-46.6-95.5l-7-5.5L627.6,258.6z"/>
				<path id="Path_3135" class="st2" d="M564.2,359.2l-43.6,15.2l-24.4,46h90l14.3-56.3l24.7-29.6l2.4-76L564.2,359.2z"/>
			</g>
		</g>
		<path id="Path_3136" class="st7" d="M1215.1,433.5H-275c-16.6,0-30.1,0.1-30.1,0.2h1550.4C1245.2,433.6,1231.7,433.5,1215.1,433.5
			z"/>
		<g id="Group_1410" transform="translate(-373 22)">
			<path id="Path_3137" class="st8" d="M143.6,302l-14.6-22.9l-9.8-15.3l-8.3-2.4l0.6-1.8l-3-3.2l2.2-7.2l0,0l13.6-43.6l0,0
				l-3.3,1.9l-13.5,24.9l0,0l-8.1,14.9l2,8.3l-1.8,0.4l-1.2,4l-0.1,0.2l-52.8,11.9l3.3,1.8l28.8-1l0,0l17.2-0.6l6.2-5.8L98.7,411
				h11.5l-2.3-142.6l3.9,4.1l0,0l19.7,20.7l12,12.6l0,0L143.6,302z"/>
			<path id="Path_3138" class="st8" d="M290,227.5l-60.2-11.4l-9.9,5.7l-0.1-0.2l0,0l-1.2-2h-5.9l-7.7-13.1l-28.4-48.2l0,0l-0.4,1.6
				l-0.7,3.3l12.5,35.5l0,0l7.5,21.3l10.1,5.6l-1.2,2.1l3,5l-22.4,38.1L171.3,294l0,0l4.8-1.5l25.1-28.4l0,0l7.8-8.8l-2.8,155.3
				h15.3l-3.2-175h0.2l2.8-4.8h72.3L290,227.5z"/>
		</g>
		<path id="Path_3139" class="st9" d="M1336.1-201.1c1.7-9.2-4.5-17.9-13.8-19.6c-7.3-1.3-14.7,2.1-18.2,8.5
			c-4.6-4.7-11.9-5.9-17.8-2.8c-4.2-7.5-12.9-11.2-21.4-9.2c-3.5-11.4-15.7-17.9-27.4-14.5c-8.4,2.4-14.5,9.5-15.6,18
			c-9.4-1.3-18.1,5.1-19.4,14.4c-0.3,1.8-0.2,3.6,0.1,5.4H1336.1z"/>
		<g id="Group_1411" transform="translate(-577 -209)" class="st10">
			<path id="Path_3140" class="st11" d="M465.3,191.2l-0.8,4.1l-0.2,0l0.8-4.1L465.3,191.2z"/>
			<path id="Path_3141" class="st12" d="M452.8,175l10.5,25.5l0.1-0.1l-10.5-25.5L452.8,175z"/>
			<path id="Path_3142" class="st12" d="M459.8,184.9l5.2,7.2l0.1-0.1l-5.2-7.2L459.8,184.9z"/>
			<path id="Rectangle_1443" class="st13" d="M465.8,190.2h2.1c0.1,0,0.1,0.1,0.1,0.1v0.7c0,0.1-0.1,0.1-0.1,0.1h-2.1
				c-0.1,0-0.1-0.1-0.1-0.1v-0.7C465.7,190.2,465.8,190.2,465.8,190.2z"/>
			<path id="Path_3143" class="st14" d="M474,184.9l-5.2,7.2l-0.1-0.1l5.2-7.2L474,184.9z"/>
			<path id="Path_3144" class="st14" d="M481,175l-10.5,25.5l-0.1-0.1l10.5-25.5L481,175z"/>
			<path id="Path_3145" class="st15" d="M451.4,149.7c-3.5,3.5-5,8.4-4.2,13.3c1.3,8,10.3,18.6,15.1,25.4h9.2
				c4.8-6.8,13.8-17.4,15.1-25.4c0.9-4.8-0.7-9.8-4.2-13.3C475.4,142.9,458.4,142.9,451.4,149.7z"/>
			<path id="Path_3146" class="st16" d="M456.5,149.7c-2.2,3.2-3.4,8-2.8,13.3c0.9,8,6.9,18.6,10.1,25.4h6.1
				c3.2-6.8,9.2-17.4,10.1-25.4c0.6-5.3-0.6-10.1-2.8-13.3C472.6,142.9,461.2,142.9,456.5,149.7z"/>
			<path id="Path_3147" class="st15" d="M461.7,163c0.3,8,2.7,18.6,3.9,25.4h2.4c2.1-11.5,6-27,2.9-38.7
				C468.5,140.5,460.9,142.9,461.7,163z"/>
			<path id="Path_3148" class="st17" d="M468.1,188.4h1.9c3.2-6.8,9.2-17.4,10.1-25.4c1-9.5-3.2-18.4-13.2-18.4
				c1.6,0,3.1,1.7,4.1,5.1C474.1,161.3,470.2,176.9,468.1,188.4z"/>
			<path id="Path_3149" class="st14" d="M466.9,188.2v-43.7c5,0,5.3,13.4,5.1,18.3c-0.3,8-2.7,18.5-3.9,25.3H466.9z"/>
			<path id="Path_3150" class="st14" d="M470,188.4h1.5c4.8-6.8,13.8-17.4,15.1-25.4c1.6-10-5.5-18.4-19.6-18.4
				c9.9,0,14.2,8.9,13.2,18.4C479.2,171,473.2,181.5,470,188.4z"/>
			<path id="Path_3151" class="st12" d="M459.8,184.9H474l-2.5,3.4h-9.2L459.8,184.9z"/>
			<path id="Path_3152" class="st15" d="M466.9,184.9h7.1l-2.5,3.4h-4.6V184.9z"/>
			<path id="Path_3153" class="st18" d="M468.5,191.2l0.8,4.1l0.2,0l-0.8-4.1L468.5,191.2z"/>
			<path id="Path_3154" class="st15" d="M464.2,195.3c0.1,0,5.4,0,5.4,0l0.9,5.1c0,0,0,0.1,0,0.1c0,0,0,0,0,0l0,0
				c-0.1,0-7.2,0-7.2-0.1C463.2,200.5,464.2,195.4,464.2,195.3C464.2,195.3,464.2,195.3,464.2,195.3L464.2,195.3z"/>
			<path id="Path_3155" class="st14" d="M466.9,191.1v-0.9c0.9,0,1.1-0.1,1.1,0.1v0.7C468.1,191.2,467.8,191.1,466.9,191.1z"/>
			<path id="Path_3156" class="st11" d="M465.3,191c3.4,0,3.4-0.1,3.5,0.2l0.2,1.2c0,0.1-0.1,0.2-0.2,0.2c-3.5,0-4,0.1-3.9-0.2
				l0.2-1.2C465.1,191.1,465.1,191,465.3,191z"/>
			<path id="Path_3157" class="st18" d="M466.9,192.6V191h1.6c0.1,0,0.2,0.1,0.2,0.2l0.2,1.2c0,0.1-0.1,0.2-0.2,0.2L466.9,192.6z"/>
			<path id="Path_3158" class="st14" d="M466.9,200.5v-5.2h2.6c0.1,0,1,5.2,0.9,5.2L466.9,200.5L466.9,200.5z"/>
			<path id="Path_3159" class="st12" d="M468.1,195.3l0.4,5.2h-3.1l0.4-5.2H468.1z"/>
			<path id="Path_3160" class="st15" d="M466.9,200.5v-5.2h1.2l0.4,5.2H466.9z"/>
		</g>
		<g id="Group_1412" transform="translate(-425 3)">
			<path id="Path_3161" class="st19" d="M179.6,411c-2.1-39.5-2-35.8-2-37.1l0,0.5l0-0.5c0,1.3,0.2-2.5-2,37.1H179.6z"/>
			<path id="Path_3162" class="st20" d="M187,358.8l-7.5,0.6l6.4-3.6c-0.9-2.5-5.5-15.2-8.2-15.2c-3.1,0.1-9.7,18.1-12.6,29.9
				l7.6,2.8l-8.2-0.3c-0.5,2-0.8,4-0.9,6c0,7.6,6.3,13.8,14.1,13.9h0c7.8,0,14.1-6.2,14.1-13.9C191.9,375.4,189.7,366.9,187,358.8z"
				/>
		</g>
		<g id="Group_1413" transform="translate(-425 3)">
			<path id="Path_3163" class="st19" d="M142.7,411c-2.1-39-1.9-35.3-1.9-36.5l0,0.4l0-0.4c0,1.3,0.2-2.4-1.9,36.5H142.7z"/>
			<path id="Path_3164" class="st20" d="M149.9,359.5l-7.4,0.6l6.3-3.6c-0.9-2.4-5.5-15-8.1-15c-3,0.1-9.6,17.8-12.5,29.5l7.5,2.8
				l-8.1-0.3c-0.5,1.9-0.8,3.9-0.9,5.9c0,7.5,6.2,13.6,13.9,13.7h0c7.7,0,13.9-6.1,13.9-13.7c0,0,0,0,0,0
				C154.8,375.9,152.6,367.5,149.9,359.5z"/>
		</g>
		<g id="Group_1414" transform="translate(399 25)">
			<path id="Path_3165" class="st19" d="M554.7,411c-2.3-43-2.1-38.9-2.1-40.3l0,0.5l0-0.5c0,1.4,0.2-2.7-2.1,40.3H554.7z"/>
			<path id="Path_3166" class="st20" d="M562.8,354.2l-8.1,0.6l7-3.9c-1-2.7-6-16.6-8.9-16.6c-3.3,0.1-10.6,19.6-13.8,32.5l8.3,3
				l-8.9-0.3c-0.5,2.1-0.8,4.3-0.9,6.5c0,8.3,6.9,15.1,15.3,15.1h0c8.5,0,15.4-6.7,15.4-15.1C568.1,372.3,565.7,363,562.8,354.2z"/>
		</g>
		<path id="Path_3167" class="st9" d="M-167.2-220.8c-8.6,0-15.7,6.9-15.7,15.3c0,0,0,0,0,0h31.3
			C-151.5-214-158.5-220.8-167.2-220.8C-167.2-220.8-167.2-220.8-167.2-220.8z"/>
		<path id="Path_3168" class="st9" d="M1481.8-11.4c-8.6,0-15.7,6.9-15.7,15.3h31.3C1497.4-4.5,1490.4-11.4,1481.8-11.4L1481.8-11.4
			z"/>
		<path id="Path_3169" class="st9" d="M-133,55.6c-3.7,0-7.3,1.4-10.1,3.8c-6.1-9.7-19.1-12.8-29-6.8c-6.2,3.8-10.1,10.4-10,17.6
			h64.1C-118,62.2-124.7,55.6-133,55.6z"/>
		<path id="Path_3170" class="st9" d="M1108.2-58.6c-3.7,0-7.3,1.4-10.1,3.8c-6.1-9.7-19.1-12.8-29-6.8
			c-6.3,3.8-10.1,10.4-10.1,17.6h64.1C1123.2-52,1116.5-58.6,1108.2-58.6z"/>
		<g id="Group_1417">
			<g id="Group_1415">
				<path id="Path_3171" class="st21" d="M662.2,150.2c-1.8-4-5.3-7-9.6-8.2l0.8-2.4c3.5,1,6.5,3.1,8.8,5.8c2.3-2.7,5.4-4.8,8.8-5.8
					l0.8,2.4c-3.5,1-6.5,3.2-8.5,6.2L662.2,150.2z"/>
			</g>
			<g id="Group_1416">
				<path id="Path_3172" class="st21" d="M638.9,164.6c-1.4-2.8-4-4.7-7.1-5.4l0.7-2.4c2.4,0.6,4.7,1.8,6.4,3.6
					c1.8-1.7,4-2.9,6.4-3.6l0.7,2.4C643,159.9,640.4,161.9,638.9,164.6z"/>
			</g>
		</g>
		<path id="Path_3196" class="st22" d="M1655.4,448.9l-1990.7,0.6c0,0-10.9-13.7,4.1-13.7l176.4-1.9l1782.9,1.9
			C1643.2,435.8,1655.4,441.7,1655.4,448.9z"/>
		<path id="Path_3197" class="st23" d="M1655.4,449.6c0,9.3-12.1,16.8-27,16.8H-312.1c-14.9,0-27-7.5-27-16.8H1655.4z"/>
		<g id="Group_1420">
			<path id="Path_3199" class="st23" d="M861.2,450c7.1-17,33.1-12,33.1,6.4h-56.6c1.8-7.3,9.3-11.9,16.8-10.1
				C857,446.8,859.3,448.1,861.2,450z"/>
		</g>
		<g id="Group_1422" transform="translate(398 3)">
			<g id="Group_1421">
				<path id="Path_3200" class="st24" d="M928.5,432.7h-10.8l3-133.4l5.4-5.7L928.5,432.7z"/>
				<path id="Path_3201" class="st25" d="M924.2,293.5l-3.5,4.8L918.1,410l0,0c3.7-0.2,6.8,2.6,7,6.3c0,0.2,0,0.4,0,0.6v15.8h3.7
					V410l-2.4-116.5H924.2z"/>
			</g>
			<path id="Path_3202" class="st20" d="M917.6,292.9l-19.9,17.1l7.2,2.6l-21.6,7.8l-6.8,11.1l19.7-0.2l-24.6,14.2v13l34.2-10.4
				l15-18l54.5,11.2v-13.9l-20.9-8.8l11.3-1l-5.5-7.6l-31.4-8.5h10l-18-27.6L917.6,292.9z"/>
			<path id="Path_3203" class="st26" d="M920.8,330.2l54.5,11.2v-13.9l-20.9-8.8l11.3-1l-5.5-7.6l-31.4-8.5h10L922,275.9l5.4,20.5
				l-6.5,3.4l25.3,19.9l-27.2,2.6l-21.3,17.9l-25.3,4.9l-0.8,0.5v13l34.2-10.4L920.8,330.2z"/>
			<path id="Path_3204" class="st20" d="M917.6,251.6l-19.9,17.1l7.2,2.6l-21.6,7.8l-6.8,11.1l19.7-0.2l-24.6,14.2v13l34.2-10.4
				l15-18l54.5,11.2v-13.9l-20.9-8.8l11.3-1l-5.5-7.6l-31.4-8.5h10l-18-27.6L917.6,251.6z"/>
			<path id="Path_3205" class="st26" d="M920.8,288.8l54.5,11.2v-13.9l-20.9-8.8l11.3-1l-5.5-7.6l-31.4-8.5h10L922,234.5l5.4,20.5
				l-6.5,3.4l25.3,19.9l-27.2,2.6l-21.3,17.9l-25.3,4.9l-0.8,0.5v13l34.2-10.4L920.8,288.8z"/>
		</g>
		<g id="Group_1429" transform="translate(-425 1)">
			<rect id="Rectangle_1445" x="351.8" y="320.7" class="st27" width="66.1" height="107.9"/>
			<rect id="Rectangle_1446" x="265.6" y="320.7" class="st28" width="86.6" height="107.9"/>
			<rect id="Rectangle_1447" x="417.7" y="363" class="st28" width="71.2" height="65.6"/>
			<rect id="Rectangle_1448" x="417.7" y="320.7" class="st28" width="71.2" height="42.3"/>
			<g id="Group_1423">
				<rect id="Rectangle_1449" x="283" y="395.7" class="st29" width="47" height="32.9"/>
				<rect id="Rectangle_1450" x="306.5" y="395.7" class="st30" width="23.5" height="32.9"/>
				<path id="Path_3206" class="st30" d="M330.1,395.7l-47.1,0.1v33h2.9v-30h44.2V395.7z"/>
			</g>
			<g id="Group_1425">
				<rect id="Rectangle_1451" x="376.5" y="380.1" class="st31" width="100.1" height="48.5"/>
				<g id="Group_1424">
					<path id="Path_3207" class="st28" d="M479,377.8l-2.7,2.7h-99.8v-2.6v-0.1L479,377.8z"/>
					<path id="Path_3208" class="st32" d="M476.4,380.4v48.2l2.7,0v-50.8L476.4,380.4z"/>
				</g>
				<rect id="Rectangle_1452" x="456" y="380.6" class="st33" width="1.5" height="48.1"/>
				<rect id="Rectangle_1453" x="434.7" y="380.6" class="st33" width="1.5" height="48.1"/>
				<rect id="Rectangle_1454" x="473.4" y="380.6" class="st33" width="2.9" height="48.1"/>
				<rect id="Rectangle_1455" x="376.8" y="397.7" class="st33" width="99.4" height="1.5"/>
				<rect id="Rectangle_1456" x="376.5" y="380.3" class="st33" width="99.7" height="2.9"/>
				<rect id="Rectangle_1457" x="377.8" y="382.8" class="st31" width="40.3" height="45.8"/>
				<rect id="Rectangle_1458" x="376.8" y="397.7" class="st33" width="41.2" height="1.5"/>
				<rect id="Rectangle_1459" x="376.5" y="377.9" class="st28" width="41.5" height="2.5"/>
				<rect id="Rectangle_1460" x="379.1" y="380.3" class="st33" width="38.9" height="2.8"/>
				<rect id="Rectangle_1461" x="398.5" y="380.6" class="st33" width="1.5" height="48.1"/>
				<rect id="Rectangle_1462" x="379.1" y="380.6" class="st33" width="2.9" height="48.1"/>
				<path id="Path_3209" class="st32" d="M379.1,380.4v48.2l-2.7,0v-50.8L379.1,380.4z"/>
			</g>
			<rect id="Rectangle_1463" x="433.8" y="339.6" class="st31" width="34.4" height="23.5"/>
			<g id="Group_1426">
				<path id="Path_3210" class="st28" d="M474.2,333.6l-6.3,6.2h-34.1v-2.6v-3.6L474.2,333.6z"/>
				<path id="Path_3211" class="st32" d="M468,339.6V363l6.2,0v-29.4L468,339.6z"/>
			</g>
			<rect id="Rectangle_1464" x="465" y="340.1" class="st33" width="2.9" height="23"/>
			<rect id="Rectangle_1465" x="433.8" y="339.8" class="st33" width="34.1" height="2.9"/>
			<rect id="Rectangle_1466" x="417.8" y="378" class="st28" width="1.6" height="50.7"/>
			<rect id="Rectangle_1467" x="416.3" y="378" class="st28" width="1.6" height="50.7"/>
			<rect id="Rectangle_1468" x="417.7" y="362.5" class="st29" width="79.7" height="1.4"/>
			<rect id="Rectangle_1469" x="265.6" y="320.5" class="st30" width="223.1" height="2.9"/>
			<rect id="Rectangle_1470" x="417.7" y="363.9" class="st29" width="79.7" height="11.3"/>
			<rect id="Rectangle_1471" x="417.6" y="362.5" class="st34" width="10.6" height="1.4"/>
			<rect id="Rectangle_1472" x="417.6" y="363.9" class="st34" width="10.6" height="11.4"/>
			<g id="Group_1428">
				<rect id="Rectangle_1473" x="285.5" y="340.2" class="st31" width="43.7" height="40.1"/>
				<g id="Group_1427">
					<path id="Path_3212" class="st28" d="M283.1,337.8l2.7,2.7h43.4v-2.6v-0.1L283.1,337.8z"/>
					<path id="Path_3213" class="st32" d="M285.8,340.4v39.8l-2.7,0v-42.4L285.8,340.4z"/>
				</g>
				<rect id="Rectangle_1474" x="314.3" y="340.5" class="st33" width="1.5" height="39.6"/>
				<rect id="Rectangle_1475" x="299" y="340.5" class="st33" width="1.5" height="39.6"/>
				<rect id="Rectangle_1476" x="285.8" y="340.5" class="st33" width="2.9" height="39.6"/>
				<rect id="Rectangle_1477" x="285.9" y="358.6" class="st33" width="43" height="1.5"/>
				<rect id="Rectangle_1478" x="285.9" y="340.4" class="st33" width="43.3" height="2.9"/>
			</g>
			<rect id="Rectangle_1479" x="260.9" y="311.1" class="st35" width="83.3" height="9.6"/>
			<rect id="Rectangle_1480" x="410.9" y="311.1" class="st35" width="83.3" height="9.6"/>
			<rect id="Rectangle_1481" x="344" y="311.1" class="st29" width="82.4" height="9.6"/>
			<rect id="Rectangle_1482" x="260.9" y="427.7" class="st36" width="83.3" height="4.8"/>
			<rect id="Rectangle_1483" x="410.9" y="427.7" class="st36" width="83.3" height="4.8"/>
			<rect id="Rectangle_1484" x="344" y="427.7" class="st37" width="82.4" height="4.8"/>
		</g>
		<g id="Group_1451" transform="translate(398 3)">
			<g id="Group_1449">
				<rect id="Rectangle_1485" x="667" y="423.2" class="st29" width="217.4" height="9.7"/>
				<g id="Group_1432">
					<rect id="Rectangle_1486" x="577.2" y="370.5" class="st38" width="91.2" height="53.1"/>
					<g id="Group_1431">
						<rect id="Rectangle_1487" x="605.2" y="388.2" class="st33" width="37" height="21.2"/>
						<rect id="Rectangle_1488" x="607.7" y="390.6" class="st31" width="32" height="16.3"/>
						<g id="Group_1430">
							<path id="Path_3214" class="st39" d="M605.5,388.6v20.6l-3.2,3.1v-26.8L605.5,388.6z"/>
							<path id="Path_3215" class="st39" d="M645.1,385.5l-3.2,3.1h-36.4l-3.2-3.1H645.1z"/>
							<path id="Path_3216" class="st40" d="M641.9,388.6v20.5l3.2,3.2v-26.8L641.9,388.6z"/>
							<path id="Path_3217" class="st40" d="M645.1,412.2l-3.1-3.1h-36.4l-3.3,3.1L645.1,412.2z"/>
						</g>
						<rect id="Rectangle_1489" x="616.3" y="390.4" class="st33" width="1.8" height="17.2"/>
						<rect id="Rectangle_1490" x="628.5" y="390.4" class="st33" width="1.8" height="17.2"/>
						<rect id="Rectangle_1491" x="606.7" y="398" class="st33" width="34.3" height="1.8"/>
					</g>
					<rect id="Rectangle_1492" x="577" y="374.6" class="st30" width="92" height="4.3"/>
					<path id="Path_3218" class="st35" d="M583.6,346.8l-14.1,23.7h99.6v-23.7H583.6z"/>
					<rect id="Rectangle_1493" x="569.5" y="370.4" class="st41" width="99.6" height="4.5"/>
				</g>
				<rect id="Rectangle_1494" x="577.3" y="423.2" class="st35" width="91.2" height="9.8"/>
				<rect id="Rectangle_1495" x="778" y="428" class="st42" width="45.3" height="4.9"/>
				<rect id="Rectangle_1496" x="783.3" y="423.2" class="st43" width="35.7" height="5"/>
				<rect id="Rectangle_1497" x="668.4" y="318.1" class="st44" width="216" height="105.1"/>
				<path id="Path_3219" class="st29" d="M775.9,253.9L656,320.4h239.9L775.9,253.9z"/>
				<rect id="Rectangle_1498" x="784.3" y="377.9" class="st45" width="33.4" height="45.3"/>
				<rect id="Rectangle_1499" x="787.8" y="380.7" class="st46" width="26.4" height="42.5"/>
				<g id="Group_1433">
					<path id="Path_3220" class="st47" d="M809.9,417.8h-17.7v-33.5h17.7V417.8z M793.6,416.5h14.9v-30.8h-14.9V416.5z"/>
				</g>
				<path id="Path_3221" class="st29" d="M775.9,253.9v66.3h119.7L775.9,253.9z"/>
				<g id="Group_1435">
					<rect id="Rectangle_1500" x="688.8" y="341.8" class="st31" width="28.3" height="25.5"/>
					<g id="Group_1434">
						<rect id="Rectangle_1501" x="689.6" y="342.8" class="st33" width="2" height="23.7"/>
						<rect id="Rectangle_1502" x="714.2" y="342.8" class="st33" width="2.2" height="23.7"/>
						<rect id="Rectangle_1503" x="689.7" y="342.7" class="st33" width="27" height="2.1"/>
						<rect id="Rectangle_1504" x="689.7" y="364.5" class="st33" width="27" height="2"/>
						<path id="Path_3222" class="st48" d="M689.7,342.8h26.7l3.4-3.3l-33.5-0.1L689.7,342.8z"/>
						<path id="Path_3223" class="st48" d="M686.3,369.6l3.4-3.3v-23.5l-3.4-3.3h-0.1L686.3,369.6z"/>
						<path id="Path_3224" class="st45" d="M689.7,366.3h26.6l3.4,3.3l-33.4-0.1L689.7,366.3z"/>
						<path id="Path_3225" class="st45" d="M719.7,369.6l-3.4-3.3v-23.5l3.4-3.3h0.1L719.7,369.6z"/>
					</g>
				</g>
				<g id="Group_1437">
					<rect id="Rectangle_1505" x="737.9" y="341.8" class="st31" width="28.3" height="25.5"/>
					<g id="Group_1436">
						<path id="Path_3226" class="st49" d="M765,349.7l-19.7,19.3h5.8l14-13.7L765,349.7z"/>
						<path id="Path_3227" class="st49" d="M764,344l-22.3,21.9l-0.1,3.6l22.4-22L764,344z"/>
						<rect id="Rectangle_1506" x="738.6" y="342.8" class="st33" width="2" height="23.7"/>
						<rect id="Rectangle_1507" x="763.2" y="342.8" class="st33" width="2.2" height="23.7"/>
						<rect id="Rectangle_1508" x="738.7" y="342.7" class="st33" width="27" height="2.1"/>
						<rect id="Rectangle_1509" x="738.7" y="364.5" class="st33" width="27" height="2"/>
						<path id="Path_3228" class="st48" d="M738.7,342.8h26.7l3.4-3.3l-33.5-0.1L738.7,342.8z"/>
						<path id="Path_3229" class="st48" d="M735.4,369.6l3.4-3.3v-23.5l-3.4-3.3h-0.1L735.4,369.6z"/>
						<path id="Path_3230" class="st45" d="M738.7,366.3h26.6l3.4,3.3l-33.4-0.1L738.7,366.3z"/>
						<path id="Path_3231" class="st45" d="M768.8,369.6l-3.4-3.3v-23.5l3.4-3.3h0.1L768.8,369.6z"/>
					</g>
				</g>
				<g id="Group_1439">
					<rect id="Rectangle_1510" x="786.9" y="341.8" class="st31" width="28.3" height="25.5"/>
					<g id="Group_1438">
						<path id="Path_3232" class="st49" d="M814.1,349.7l-19.7,19.3h5.8l14-13.7L814.1,349.7z"/>
						<path id="Path_3233" class="st49" d="M813.1,344l-22.3,21.9l-0.1,3.6l22.4-22L813.1,344z"/>
						<rect id="Rectangle_1511" x="787.6" y="342.8" class="st33" width="2" height="23.7"/>
						<rect id="Rectangle_1512" x="812.2" y="342.8" class="st33" width="2.2" height="23.7"/>
						<rect id="Rectangle_1513" x="787.7" y="342.7" class="st33" width="27" height="2.1"/>
						<rect id="Rectangle_1514" x="787.7" y="364.5" class="st33" width="27" height="2"/>
						<path id="Path_3234" class="st48" d="M787.8,342.8h26.7l3.4-3.3l-33.5-0.1L787.8,342.8z"/>
						<path id="Path_3235" class="st48" d="M784.4,369.6l3.4-3.3v-23.5l-3.4-3.3h-0.1L784.4,369.6z"/>
						<path id="Path_3236" class="st45" d="M787.8,366.3h26.6l3.4,3.3l-33.4-0.1L787.8,366.3z"/>
						<path id="Path_3237" class="st45" d="M817.8,369.6l-3.4-3.3v-23.5l3.4-3.3h0.1L817.8,369.6z"/>
					</g>
				</g>
				<g id="Group_1441">
					<rect id="Rectangle_1515" x="835.9" y="341.8" class="st31" width="28.3" height="25.5"/>
					<g id="Group_1440">
						<rect id="Rectangle_1516" x="836.6" y="342.8" class="st33" width="2" height="23.7"/>
						<rect id="Rectangle_1517" x="861.3" y="342.8" class="st33" width="2.2" height="23.7"/>
						<rect id="Rectangle_1518" x="836.7" y="342.7" class="st33" width="27" height="2.1"/>
						<rect id="Rectangle_1519" x="836.7" y="364.5" class="st33" width="27" height="2"/>
						<path id="Path_3238" class="st48" d="M836.8,342.8h26.7l3.4-3.3l-33.5-0.1L836.8,342.8z"/>
						<path id="Path_3239" class="st48" d="M833.4,369.6l3.4-3.3v-23.5l-3.4-3.3h-0.1L833.4,369.6z"/>
						<path id="Path_3240" class="st45" d="M836.8,366.3h26.6l3.4,3.3l-33.4-0.1L836.8,366.3z"/>
						<path id="Path_3241" class="st45" d="M866.8,369.6l-3.4-3.3v-23.5l3.4-3.3h0.1L866.8,369.6z"/>
					</g>
				</g>
				<g id="Group_1443">
					<rect id="Rectangle_1520" x="688.8" y="380.9" class="st31" width="28.3" height="25.5"/>
					<g id="Group_1442">
						<rect id="Rectangle_1521" x="689.6" y="381.8" class="st33" width="2" height="23.7"/>
						<rect id="Rectangle_1522" x="714.2" y="381.8" class="st33" width="2.2" height="23.7"/>
						<rect id="Rectangle_1523" x="689.7" y="381.8" class="st33" width="27" height="2.1"/>
						<rect id="Rectangle_1524" x="689.7" y="403.5" class="st33" width="27" height="2"/>
						<path id="Path_3242" class="st48" d="M689.7,381.9h26.7l3.3-3.3h-33.4L689.7,381.9z"/>
						<path id="Path_3243" class="st48" d="M686.3,408.6l3.4-3.3v-23.5l-3.4-3.3h-0.1L686.3,408.6z"/>
						<path id="Path_3244" class="st45" d="M689.7,405.4h26.6l3.4,3.3h-33.4L689.7,405.4z"/>
						<path id="Path_3245" class="st45" d="M719.7,408.7l-3.4-3.3V382l3.4-3.3h0.1L719.7,408.7z"/>
					</g>
				</g>
				<g id="Group_1445">
					<rect id="Rectangle_1525" x="737.9" y="380.9" class="st31" width="28.3" height="25.5"/>
					<g id="Group_1444">
						<path id="Path_3246" class="st49" d="M765,388.8l-19.7,19.3h5.8l14-13.7L765,388.8z"/>
						<path id="Path_3247" class="st49" d="M764,383l-22.3,21.9l-0.1,3.6l22.4-22L764,383z"/>
						<rect id="Rectangle_1526" x="738.6" y="381.8" class="st33" width="2" height="23.7"/>
						<rect id="Rectangle_1527" x="763.2" y="381.8" class="st33" width="2.2" height="23.7"/>
						<rect id="Rectangle_1528" x="738.7" y="381.8" class="st33" width="27" height="2.1"/>
						<rect id="Rectangle_1529" x="738.7" y="403.5" class="st33" width="27" height="2"/>
						<path id="Path_3248" class="st48" d="M738.7,381.9h26.7l3.3-3.3h-33.4L738.7,381.9z"/>
						<path id="Path_3249" class="st48" d="M735.4,408.6l3.4-3.3v-23.5l-3.4-3.3h-0.1L735.4,408.6z"/>
						<path id="Path_3250" class="st45" d="M738.7,405.4h26.6l3.4,3.3h-33.4L738.7,405.4z"/>
						<path id="Path_3251" class="st45" d="M768.8,408.7l-3.4-3.3V382l3.4-3.3h0.1L768.8,408.7z"/>
					</g>
				</g>
				<g id="Group_1447">
					<rect id="Rectangle_1530" x="835.9" y="380.9" class="st31" width="28.3" height="25.5"/>
					<g id="Group_1446">
						<rect id="Rectangle_1531" x="836.6" y="381.8" class="st33" width="2" height="23.7"/>
						<rect id="Rectangle_1532" x="861.3" y="381.8" class="st33" width="2.2" height="23.7"/>
						<rect id="Rectangle_1533" x="836.7" y="381.8" class="st33" width="27" height="2.1"/>
						<rect id="Rectangle_1534" x="836.7" y="403.5" class="st33" width="27" height="2"/>
						<path id="Path_3252" class="st48" d="M836.8,381.9h26.7l3.4-3.3l-33.5-0.1L836.8,381.9z"/>
						<path id="Path_3253" class="st48" d="M833.4,408.6l3.4-3.3v-23.5l-3.4-3.3h-0.1L833.4,408.6z"/>
						<path id="Path_3254" class="st45" d="M836.8,405.4h26.6l3.4,3.3l-33.4-0.1L836.8,405.4z"/>
						<path id="Path_3255" class="st45" d="M866.8,408.7l-3.4-3.3V382l3.4-3.3h0.1L866.8,408.7z"/>
					</g>
				</g>
				<rect id="Rectangle_1535" x="656.2" y="320.2" class="st35" width="239.5" height="4.6"/>
				<rect id="Rectangle_1536" x="668.4" y="324.7" class="st30" width="216" height="4.6"/>
				<g id="Group_1448">
					<rect id="Rectangle_1537" x="792.3" y="401.6" class="st47" width="17" height="1.3"/>
				</g>
				<path id="Path_3256" class="st50" d="M817.7,377.9l-33.4,32.6v-32.6H817.7z"/>
			</g>
			<g id="Group_1450">
				<rect id="Rectangle_1538" x="789.3" y="400.9" class="st47" width="1.4" height="3.8"/>
			</g>
		</g>
		<g id="Group_1452" transform="translate(-425 3)">
			<rect id="Rectangle_1539" x="236.4" y="399.1" class="st24" width="11.5" height="33.4"/>
			<path id="Path_3257" class="st51" d="M236.4,399.1v9.4c4.4,0,7.9,3,7.9,7.3v16.7h3.9v-33.4L236.4,399.1z"/>
			<path id="Path_3258" class="st20" d="M242.5,250.9l-23.1,70.4l23.1-11.2l23.1,11.2L242.5,250.9z"/>
			<path id="Path_3259" class="st20" d="M242.5,273l-29.7,90.5l29.7-14.4l29.7,14.4L242.5,273z"/>
			<path id="Path_3260" class="st20" d="M242.5,296.5l-40.4,123.1l40.4-19.5l40.4,19.5L242.5,296.5z"/>
			<path id="Path_3261" class="st52" d="M242.5,250.9l23.1,70.4l-17.8-8.6L242.5,250.9z"/>
			<path id="Path_3262" class="st52" d="M249.1,292.8l23.1,70.4l-17.8-8.6L249.1,292.8z"/>
			<path id="Path_3263" class="st52" d="M259.8,349.2l23.1,70.4l-17.8-8.6L259.8,349.2z"/>
			<path id="Path_3264" class="st26" d="M257,317.1l-14.5-7l-14.5,7l-5.6,17.2l19.5-15.8l20.7,15.3L257,317.1z"/>
			<path id="Path_3265" class="st26" d="M263,358.8l-20.5-9.9l-20.5,9.9l-8,24.3l27.5-22.3l29.3,21.7L263,358.8z"/>
		</g>
		<g id="Group_1472" transform="translate(398 3)">
			<rect id="Rectangle_1540" x="954.6" y="360.9" class="st28" width="79.9" height="61.7"/>
			<path id="Path_3266" class="st27" d="M1090.2,275.6l0.4,147.7h65.4l0-98.2L1090.2,275.6z"/>
			<rect id="Rectangle_1541" x="1005.1" y="269.2" class="st28" width="85.9" height="152.3"/>
			<path id="Path_3267" class="st27" d="M1007.7,430h50.7V321.5l-50.7,38.6V430z"/>
			<rect id="Rectangle_1542" x="1007.4" y="428.8" class="st53" width="148.3" height="3.8"/>
			<rect id="Rectangle_1543" x="1007.2" y="421.3" class="st28" width="148.6" height="7.8"/>
			<g id="Group_1454">
				<rect id="Rectangle_1544" x="1107.2" y="389.9" class="st29" width="19.9" height="31.4"/>
				<g id="Group_1453">
					<path id="Path_3268" class="st28" d="M1129,388l-2.2,2.1h-19.7V388v0L1129,388z"/>
					<path id="Path_3269" class="st32" d="M1126.9,390.1v31.1l2.2,0V388L1126.9,390.1z"/>
				</g>
			</g>
			<g id="Group_1456">
				<rect id="Rectangle_1545" x="1026.6" y="379.2" class="st31" width="16.4" height="35.3"/>
				<path id="Path_3270" class="st49" d="M1026.6,407.3l14-13.7v-2.2l-14,13.8L1026.6,407.3z"/>
				<path id="Path_3271" class="st49" d="M1026.6,409l14-13.7v3.7l-14,13.7L1026.6,409z"/>
				<g id="Group_1455">
					<path id="Path_3272" class="st28" d="M1044.9,377.3l-2.2,2.1h-16.1v-2.1v0H1044.9z"/>
					<path id="Path_3273" class="st32" d="M1042.7,379.4v35.1l2.2,0v-37.2L1042.7,379.4z"/>
				</g>
				<rect id="Rectangle_1546" x="1040.3" y="379.5" class="st33" width="2.4" height="34.9"/>
				<rect id="Rectangle_1547" x="1026.6" y="379.4" class="st33" width="16" height="2.3"/>
			</g>
			<g id="Group_1458">
				<rect id="Rectangle_1548" x="1026.6" y="359.1" class="st31" width="16.4" height="11.7"/>
				<g id="Group_1457">
					<path id="Path_3274" class="st28" d="M1044.9,357.2l-2.2,2.1h-16.1v-2.1v0L1044.9,357.2z"/>
					<path id="Path_3275" class="st32" d="M1042.7,359.4v11.4l2.2,0v-13.5L1042.7,359.4z"/>
				</g>
				<rect id="Rectangle_1549" x="1040.3" y="359.4" class="st33" width="2.4" height="11.3"/>
				<rect id="Rectangle_1550" x="1026.6" y="359.3" class="st33" width="16" height="2.3"/>
			</g>
			<g id="Group_1460">
				<rect id="Rectangle_1551" x="1028.4" y="291.5" class="st31" width="16.4" height="19.8"/>
				<g id="Group_1459">
					<path id="Path_3276" class="st28" d="M1026.5,289.6l2.2,2.1h16.1v-2.1v0L1026.5,289.6z"/>
					<path id="Path_3277" class="st32" d="M1028.6,291.7v19.6l-2.2,0v-21.7L1028.6,291.7z"/>
				</g>
				<rect id="Rectangle_1552" x="1028.6" y="291.8" class="st33" width="2.4" height="19.5"/>
				<rect id="Rectangle_1553" x="1028.7" y="291.7" class="st33" width="16" height="2.3"/>
			</g>
			<g id="Group_1462">
				<rect id="Rectangle_1554" x="969.6" y="384.8" class="st31" width="27.1" height="36.9"/>
				<g id="Group_1461">
					<path id="Path_3278" class="st54" d="M964.7,379.9l8.5,8.3h23.5v-5.4v-2.9L964.7,379.9z"/>
					<path id="Path_3279" class="st27" d="M973.1,388.4v33.3l-8.5,0v-41.8L973.1,388.4z"/>
				</g>
				<rect id="Rectangle_1555" x="973.1" y="388.4" class="st33" width="2.4" height="33.3"/>
				<rect id="Rectangle_1556" x="973.1" y="388.2" class="st33" width="23.3" height="2.3"/>
			</g>
			<rect id="Rectangle_1557" x="954.8" y="428.8" class="st55" width="52.6" height="3.8"/>
			<rect id="Rectangle_1558" x="954.7" y="421.3" class="st53" width="52.7" height="7.8"/>
			<rect id="Rectangle_1559" x="1058.6" y="428.8" class="st55" width="32.4" height="3.8"/>
			<rect id="Rectangle_1560" x="1058.6" y="421.3" class="st53" width="32.4" height="7.8"/>
			<g id="Group_1466">
				<g id="Group_1465">
					<path id="Path_3280" class="st35" d="M1058.3,318.3h-53.5l-55.2,41.4h53.8L1058.3,318.3z"/>
					<g id="Group_1464">
						<g id="Group_1463">
							<path id="Path_3281" class="st29" d="M1058.4,322.6l-0.1-4.2l-55.3,41.4l2.3,2.8L1058.4,322.6z"/>
						</g>
					</g>
				</g>
				<path id="Path_3282" class="st56" d="M1005.5,362.5h-53.6l-2.4-2.8h53.6L1005.5,362.5z"/>
			</g>
			<path id="Path_3283" class="st50" d="M1156.2,326.7v4.3l-66.1-49.7h-84.8v-5h84.6L1156.2,326.7z"/>
			<g id="Group_1468">
				<g id="Group_1467">
					<path id="Path_3284" class="st29" d="M1090.9,273.9l0.1-4.7l71.9,56.1l-2.1,2.1L1090.9,273.9z"/>
					<path id="Path_3285" class="st57" d="M1090.9,273.9l0.1,3.3l65.9,50.2h3.8L1090.9,273.9z"/>
				</g>
				<rect id="Rectangle_1561" x="1002.9" y="269.2" class="st35" width="88.1" height="4.8"/>
				<rect id="Rectangle_1562" x="1002.9" y="273.8" class="st56" width="88.1" height="3.4"/>
			</g>
			<g id="Group_1469">
				<path id="Path_3286" class="st57" d="M1140.2,365.7l-23.5,2l8,16.8h31.4L1140.2,365.7z"/>
				<path id="Path_3287" class="st35" d="M1140.2,361h-21.9l-17.7,21.2h22L1140.2,361z"/>
				<path id="Path_3288" class="st56" d="M1124.9,384.6h-22l-2.4-2.3h22L1124.9,384.6z"/>
				<path id="Path_3289" class="st29" d="M1140.2,365.7l-15.3,18.8l-2.4-2.3l17.8-21.2l17.9,21.5l-2.1,2.1L1140.2,365.7z"/>
			</g>
			<g id="Group_1471">
				<rect id="Rectangle_1563" x="1067.8" y="324.4" class="st31" width="70.8" height="28.6"/>
				<g id="Group_1470">
					<path id="Path_3290" class="st28" d="M1140.5,322.6l-2.1,2.1h-70.5v-2.1v0L1140.5,322.6z"/>
					<path id="Path_3291" class="st32" d="M1138.3,324.7v28.4l2.2,0v-30.5L1138.3,324.7z"/>
				</g>
				<rect id="Rectangle_1564" x="1113.8" y="324.8" class="st33" width="1.2" height="28.2"/>
				<rect id="Rectangle_1565" x="1135.9" y="324.8" class="st33" width="2.4" height="28.2"/>
				<rect id="Rectangle_1566" x="1068" y="338.7" class="st33" width="70.2" height="1.2"/>
				<rect id="Rectangle_1567" x="1067.8" y="324.6" class="st33" width="70.4" height="2.3"/>
				<rect id="Rectangle_1568" x="1068.8" y="327" class="st33" width="22.3" height="26.1"/>
				<rect id="Rectangle_1569" x="1069.9" y="338.7" class="st58" width="21.2" height="1.2"/>
				<rect id="Rectangle_1570" x="1067.8" y="322.6" class="st59" width="23.3" height="2"/>
				<rect id="Rectangle_1571" x="1069.9" y="324.6" class="st58" width="21.2" height="2.2"/>
				<rect id="Rectangle_1572" x="1069.8" y="324.8" class="st58" width="2.4" height="28.2"/>
				<path id="Path_3292" class="st32" d="M1069.9,324.7v28.4l-2.2,0v-30.5L1069.9,324.7z"/>
				<rect id="Rectangle_1573" x="1090.9" y="324.6" class="st28" width="1.3" height="28.4"/>
				<rect id="Rectangle_1574" x="1089.7" y="324.6" class="st59" width="1.3" height="28.4"/>
			</g>
			<rect id="Rectangle_1575" x="1118.7" y="421.3" class="st32" width="20.6" height="6.1"/>
			<rect id="Rectangle_1576" x="1123" y="427.2" class="st27" width="20.3" height="5.3"/>
			<path id="Path_3293" class="st55" d="M1107.2,432.6h16.5v-5.4h-4.6v-5.9h-11.9L1107.2,432.6z"/>
			<rect id="Rectangle_1577" x="1123.7" y="390.2" class="st35" width="2.9" height="31.1"/>
		</g>
		<g id="Group_1503" transform="translate(-425 1)">
			<g id="Group_1482">
				<g id="Group_1474">
					<g id="Group_1473">
						<rect id="Rectangle_1578" x="439.4" y="415.8" class="st60" width="43.4" height="2.2"/>
					</g>
				</g>
				<g id="Group_1476">
					<g id="Group_1475">
						<rect id="Rectangle_1579" x="439.4" y="425.1" class="st60" width="43.4" height="2.2"/>
					</g>
				</g>
				<g id="Group_1477">
					<path id="Path_3294" class="st61" d="M445.6,432.8h-3.2v-20.4l1.6-2.6l1.6,2.6V432.8z"/>
				</g>
				<g id="Group_1478">
					<path id="Path_3295" class="st61" d="M454.1,432.8h-3.2v-22.7l1.6-2.6l1.6,2.6V432.8z"/>
				</g>
				<g id="Group_1479">
					<path id="Path_3296" class="st61" d="M462.6,432.8h-3.2v-25.3l1.6-2.5l1.6,2.6L462.6,432.8z"/>
				</g>
				<g id="Group_1480">
					<path id="Path_3297" class="st61" d="M471.1,432.8h-3.2v-22.7l1.6-2.6l1.6,2.6V432.8z"/>
				</g>
				<g id="Group_1481">
					<path id="Path_3298" class="st61" d="M479.6,432.8h-3.2v-20.4l1.6-2.6l1.6,2.6V432.8z"/>
				</g>
			</g>
			<g id="Group_1492">
				<g id="Group_1484">
					<g id="Group_1483">
						<rect id="Rectangle_1580" x="482.1" y="415.8" class="st60" width="43.4" height="2.2"/>
					</g>
				</g>
				<g id="Group_1486">
					<g id="Group_1485">
						<rect id="Rectangle_1581" x="482.1" y="425.1" class="st60" width="43.4" height="2.2"/>
					</g>
				</g>
				<g id="Group_1487">
					<path id="Path_3299" class="st61" d="M488.2,432.8h-3.2v-20.4l1.6-2.6l1.6,2.6V432.8z"/>
				</g>
				<g id="Group_1488">
					<path id="Path_3300" class="st61" d="M496.7,432.8h-3.2v-22.7l1.6-2.6l1.6,2.6V432.8z"/>
				</g>
				<g id="Group_1489">
					<path id="Path_3301" class="st61" d="M505.3,432.8h-3.2v-25.3l1.6-2.6l1.6,2.6V432.8z"/>
				</g>
				<g id="Group_1490">
					<path id="Path_3302" class="st61" d="M513.8,432.8h-3.2v-22.7l1.6-2.6l1.6,2.6V432.8z"/>
				</g>
				<g id="Group_1491">
					<path id="Path_3303" class="st61" d="M522.3,432.8h-3.2v-20.4l1.6-2.6l1.6,2.6V432.8z"/>
				</g>
			</g>
			<g id="Group_1502">
				<g id="Group_1494">
					<g id="Group_1493">
						<rect id="Rectangle_1582" x="397" y="415.8" class="st60" width="43.4" height="2.2"/>
					</g>
				</g>
				<g id="Group_1496">
					<g id="Group_1495">
						<rect id="Rectangle_1583" x="397" y="425.1" class="st60" width="43.4" height="2.2"/>
					</g>
				</g>
				<g id="Group_1497">
					<path id="Path_3304" class="st61" d="M403.1,432.8h-3.2v-20.4l1.6-2.6l1.6,2.6V432.8z"/>
				</g>
				<g id="Group_1498">
					<path id="Path_3305" class="st61" d="M411.6,432.8h-3.2v-22.7l1.6-2.6l1.6,2.6V432.8z"/>
				</g>
				<g id="Group_1499">
					<path id="Path_3306" class="st61" d="M420.1,432.8h-3.2v-25.3l1.6-2.6l1.6,2.6V432.8z"/>
				</g>
				<g id="Group_1500">
					<path id="Path_3307" class="st61" d="M428.6,432.8h-3.2v-22.7l1.6-2.6l1.6,2.6V432.8z"/>
				</g>
				<g id="Group_1501">
					<path id="Path_3308" class="st61" d="M437.1,432.8h-3.2v-20.4l1.6-2.6l1.6,2.6V432.8z"/>
				</g>
			</g>
		</g>
		<g id="Group_1504" transform="translate(-584 1)">
			<path id="Path_3309" class="st62" d="M295.1,435.1c-0.1,3.1,2.4,5.7,5.6,5.7c0.1,0,0.2,0,0.2,0h94.4l5.8-1.1
				c3.2-0.6,5.8-2.6,5.8-5.7c0-5.8,1-16.1-3-22.4c-4.7-7.4-35.2-7.9-51.8-5.7c-12.4,1.7-18.1,6.2-28.1,10.2
				C304.6,423.8,296.7,413.4,295.1,435.1z"/>
			<path id="Path_3310" class="st63" d="M397.5,411.9c-5.4-4.2-19.4-4.9-25.2-4.9c-7.4,0-15.8,0.4-23.2,2.1
				c-7.2,1.6-13.9,4.8-19.7,9.3l70.9-1.5C399.9,415,398.9,413.3,397.5,411.9z"/>
			<path id="Path_3311" class="st64" d="M397.5,411.9c-5.4-4.2-19.4-4.9-25.2-4.9c-7.4,0-15.8,0.4-23.2,2.1
				c-7.2,1.6-13.9,4.8-19.7,9.3l70.9-1.5C399.9,415,398.9,413.3,397.5,411.9L397.5,411.9z M332,417.6c5.2-3.7,11.1-6.3,17.3-7.7
				c7.3-1.7,15.4-2.1,23-2.1c6.4,0,19.7,0.8,24.7,4.7c1.1,1,1.9,2.2,2.3,3.6L332,417.6z"/>
			<path id="Path_3312" class="st64" d="M310,424.3h6.9c4.8,0,7.9,3.3,9.4,7.4h46.5c1.5-4.1,4.6-7.4,9.4-7.4h6.9
				c4.6,0,7.7,3.1,9.2,6.9l3.3-0.7c2-0.4,3.9-1.4,5.4-2.9c0,2.4-0.1,4.6-0.1,6.3c0,3.2-2.7,5.1-5.8,5.7l-5.8,1.1h-94.4
				c-3.2,0.1-5.8-2.4-5.8-5.5c0-0.1,0-0.2,0-0.2c0.1-1.8,0.4-3.7,0.7-5.5c1.5,1.2,2.9,2.1,4.5,2.1h0.3
				C302.1,427.6,305.2,424.3,310,424.3z"/>
			<path id="Path_3313" class="st65" d="M382.3,426h6.9c4.6,0,7.3,3.7,8.3,8.1c0.2,0.8,0.4,1.8,0.7,2.7l3-0.6
				c2.2-0.4,4.2-1.3,5.9-2.8c0,0.2,0,0.4,0,0.5c0,3.2-2.7,5.1-5.8,5.7l-2.4,0.5l0,0l-3.3,0.7h0l-0.1,0h-94.4
				c-3.2,0.1-5.8-2.4-5.8-5.5c0-0.1,0-0.2,0-0.2c0-0.1,0-0.3,0-0.4c1.6,1.5,3.6,2.5,5.8,2.7h0.1l0.7-3.3c0.9-4.4,3.7-8.1,8.3-8.1
				h6.9c4.6,0,7.3,3.7,8.3,8.1l0.7,3.3h47.4l0.7-3.3C374.9,429.8,377.7,426,382.3,426z"/>
			<ellipse id="Ellipse_147" class="st66" cx="313.5" cy="438.6" rx="9.4" ry="9.2"/>
			<ellipse id="Ellipse_148" class="st67" cx="313.5" cy="438.6" rx="6" ry="5.9"/>
			<path id="Path_3314" class="st68" d="M313.5,438.1c0.3,0,0.6,0.3,0.6,0.6c0,0.3-0.3,0.6-0.6,0.6s-0.6-0.3-0.6-0.6c0,0,0,0,0,0
				C312.9,438.3,313.1,438.1,313.5,438.1C313.5,438.1,313.5,438.1,313.5,438.1z M315,434.3c1,0.4,1.9,1,2.5,2
				c-0.1,0.3-0.3,0.5-0.5,0.6c-0.5,0.2-1.1,0.2-1.6,0.1c-0.6-0.1-0.7-0.1-0.8-0.8c-0.1-0.5-0.1-1.1,0.1-1.5
				C314.8,434.5,314.9,434.4,315,434.3L315,434.3z M318.2,439c-0.1,1.1-0.5,2.1-1.3,2.9c-0.3,0-0.5-0.2-0.7-0.4
				c-0.3-0.4-0.5-0.9-0.5-1.5c-0.1-0.7,0-0.7,0.6-1c0.5-0.2,1-0.3,1.6-0.3C318,438.8,318.1,438.9,318.2,439L318.2,439z M315.1,443
				c-1,0.4-2.2,0.4-3.2,0c0-0.2,0-0.4,0-0.6c0.2-0.5,0.6-0.9,1-1.2c0.5-0.4,0.6-0.4,1.1,0c0.4,0.3,0.8,0.7,1,1.2
				C315.1,442.6,315.1,442.8,315.1,443L315.1,443z M310,441.8c-0.7-0.8-1.2-1.8-1.3-2.9c0.1-0.1,0.3-0.1,0.4-0.2
				c0.5,0,1.1,0.1,1.6,0.3c0.6,0.2,0.7,0.3,0.6,1c0,0.5-0.2,1-0.5,1.5C310.5,441.7,310.3,441.8,310,441.8L310,441.8z M309.4,436.2
				c0.6-0.9,1.4-1.6,2.5-2c0.1,0.1,0.2,0.2,0.3,0.4c0.2,0.5,0.2,1,0.1,1.5c-0.1,0.7-0.2,0.7-0.8,0.8c-0.5,0.1-1.1,0.1-1.6-0.1
				C309.7,436.7,309.5,436.5,309.4,436.2L309.4,436.2z M313.5,439.9c0.2,0,0.3,0.2,0.3,0.3s-0.2,0.3-0.3,0.3s-0.3-0.2-0.3-0.3l0,0
				C313.1,440.1,313.3,439.9,313.5,439.9z M314.9,438.9c0.2,0,0.3,0.2,0.3,0.3c0,0.2-0.2,0.3-0.3,0.3s-0.3-0.2-0.3-0.3c0,0,0,0,0,0
				C314.5,439.1,314.7,438.9,314.9,438.9z M312,438.9c0.2,0,0.3,0.2,0.3,0.3s-0.2,0.3-0.3,0.3s-0.3-0.2-0.3-0.3l0,0
				C311.7,439.1,311.8,438.9,312,438.9z M314.4,437.1c0.2,0,0.3,0.2,0.3,0.3c0,0.2-0.2,0.3-0.3,0.3s-0.3-0.2-0.3-0.3c0,0,0,0,0,0
				C314.1,437.2,314.2,437.1,314.4,437.1z M312.5,437.1c0.2,0,0.3,0.2,0.3,0.3s-0.2,0.3-0.3,0.3c-0.2,0-0.3-0.2-0.3-0.3l0,0
				C312.2,437.2,312.3,437.1,312.5,437.1L312.5,437.1z"/>
			<path id="Path_3315" class="st69" d="M385.7,447.8c5.2,0,9.4-4.1,9.4-9.2c0-5.1-4.2-9.2-9.4-9.2c-5.2,0-9.4,4.1-9.4,9.2
				C376.3,443.7,380.5,447.8,385.7,447.8z"/>
			<path id="Path_3316" class="st70" d="M385.7,444.5c3.3,0,6-2.6,6-5.9c0-3.2-2.7-5.9-6-5.9c-3.3,0-6,2.6-6,5.9c0,0,0,0,0,0
				C379.7,441.8,382.4,444.5,385.7,444.5z"/>
			<path id="Path_3317" class="st68" d="M385.7,438.1c0.3,0,0.6,0.3,0.6,0.6s-0.3,0.6-0.6,0.6s-0.6-0.3-0.6-0.6c0,0,0,0,0,0
				C385.1,438.3,385.4,438.1,385.7,438.1C385.7,438.1,385.7,438.1,385.7,438.1z M387.3,434.3c1,0.4,1.9,1,2.5,2
				c-0.1,0.3-0.3,0.5-0.5,0.6c-0.5,0.2-1.1,0.2-1.6,0.1c-0.6-0.1-0.7-0.1-0.8-0.8c-0.1-0.5-0.1-1.1,0.1-1.5
				C387,434.5,387.1,434.4,387.3,434.3L387.3,434.3z M390.4,439c-0.1,1.1-0.5,2.1-1.3,2.9c-0.3,0-0.5-0.2-0.7-0.4
				c-0.3-0.4-0.5-0.9-0.5-1.5c-0.1-0.7,0-0.7,0.6-1c0.5-0.2,1-0.3,1.6-0.3C390.2,438.8,390.3,438.9,390.4,439z M387.3,443
				c-1,0.4-2.2,0.4-3.2,0c0-0.2,0-0.4,0-0.6c0.2-0.5,0.6-0.9,1-1.2c0.5-0.4,0.6-0.4,1.1,0c0.4,0.3,0.8,0.7,1,1.2
				C387.3,442.6,387.3,442.8,387.3,443L387.3,443z M382.2,441.8c-0.7-0.8-1.2-1.8-1.3-2.9c0.1-0.1,0.3-0.1,0.4-0.2
				c0.5,0,1.1,0.1,1.6,0.3c0.6,0.2,0.7,0.3,0.6,1c0,0.5-0.2,1-0.5,1.5C382.7,441.7,382.5,441.8,382.2,441.8L382.2,441.8z
				 M381.6,436.2c0.6-0.9,1.4-1.6,2.5-2c0.1,0.1,0.2,0.2,0.3,0.4c0.2,0.5,0.2,1,0.1,1.5c-0.1,0.7-0.2,0.7-0.8,0.8
				c-0.5,0.1-1.1,0.1-1.6-0.1C381.9,436.7,381.7,436.5,381.6,436.2L381.6,436.2z M385.7,439.9c0.2,0,0.3,0.2,0.3,0.3
				s-0.2,0.3-0.3,0.3s-0.3-0.2-0.3-0.3l0,0C385.3,440.1,385.5,439.9,385.7,439.9z M387.1,438.9c0.2,0,0.3,0.2,0.3,0.3
				s-0.2,0.3-0.3,0.3c-0.2,0-0.3-0.2-0.3-0.3l0,0C386.8,439.1,386.9,438.9,387.1,438.9z M384.3,438.9c0.2,0,0.3,0.2,0.3,0.3
				c0,0.2-0.2,0.3-0.3,0.3c-0.2,0-0.3-0.2-0.3-0.3c0,0,0,0,0,0C383.9,439.1,384.1,438.9,384.3,438.9z M386.7,437.1
				c0.2,0,0.3,0.2,0.3,0.3s-0.2,0.3-0.3,0.3c-0.2,0-0.3-0.2-0.3-0.3l0,0C386.3,437.2,386.5,437.1,386.7,437.1z M384.7,437.1
				c0.2,0,0.3,0.2,0.3,0.3c0,0.2-0.2,0.3-0.3,0.3s-0.3-0.2-0.3-0.3c0,0,0,0,0,0C384.4,437.2,384.5,437.1,384.7,437.1L384.7,437.1z"
				/>
			<path id="Path_3318" class="st71" d="M298.2,423.1l3.1,0c2.2,0,0.7,2.7-0.3,4c-0.8,1-3.3,0.6-4.8,0.1
				C296.7,425.7,297.3,424.3,298.2,423.1z"/>
			<path id="Path_3319" class="st64" d="M406.6,419.6h-4.8c-2.4,0-0.3,5.2,2.8,5.2h2.4C407,423,406.9,421.3,406.6,419.6z"/>
			<path id="Path_3320" class="st64" d="M359.7,407.5l1.2,10.3l-3.6,0.1l-1.2-10C357.2,407.7,358.5,407.6,359.7,407.5z"/>
			<path id="Path_3321" class="st64" d="M378.8,407.2l1.2,10.1l-1.7,0l-1.2-10.3C377.7,407.2,378.3,407.2,378.8,407.2z"/>
			<path id="Path_3322" class="st64" d="M336.2,414l1.2,4.3l-8,0.2C331.6,416.8,333.8,415.3,336.2,414z"/>
			<path id="Path_3323" class="st65" d="M358.1,408.2l1.1,9.6l-0.6,21.4h-0.6l0.6-21.4l-1.1-9.6c-2.8,0.3-5.6,0.8-8.4,1.4
				c-9.5,2.2-16.3,6-23.5,11.4l2.3,18.2l-0.6,0l-2.4-18.5c7.7-5.6,14.3-9.4,24-11.6c7.3-1.7,15.7-2.1,23.2-2.1c1.5,0,4.7,0.1,7,0.2
				l1.6,12.9l-1.6,10.8l-0.6-0.1l1.6-10.7l-1.5-12.3c-2-0.1-5-0.2-6.5-0.2C367.5,407.5,362.8,407.7,358.1,408.2z"/>
			<path id="Path_3324" class="st62" d="M338.1,413.7c1.2-0.1,1.4-0.3,1.4,0.7c0,1,0.2,3.1-0.6,3.4s-2.6,0.3-3-0.3
				c-0.4-0.7-0.4-1.6-0.1-2.3C336.2,414.3,337.1,413.7,338.1,413.7z"/>
			<path id="Path_3325" class="st64" d="M335.7,417c0.7-0.2,1.4-0.4,2.1-0.4c0.5,0,1.1-0.1,1.6,0c-0.1,0.6-0.2,1-0.6,1.1
				c-0.8,0.3-2.6,0.3-3-0.3C335.8,417.3,335.8,417.2,335.7,417z"/>
			<path id="Path_3326" class="st64" d="M352,419.1l4.7-0.1c0.5,0,0.9,0.4,0.9,0.8l0,0c0,0.5-0.4,0.9-0.9,0.9l-4.7,0.1
				c-0.5,0-0.9-0.4-0.9-0.8l0,0C351.1,419.5,351.5,419.1,352,419.1C352,419.1,352,419.1,352,419.1z"/>
			<path id="Path_3327" class="st64" d="M351.5,419.6l5.6-0.1c0.2,0,0.4,0.2,0.4,0.4l0,0c0,0.2-0.2,0.4-0.4,0.4c0,0,0,0,0,0
				l-5.6,0.1c-0.2,0-0.4-0.2-0.4-0.4l0,0C351.1,419.7,351.3,419.6,351.5,419.6z"/>
			<path id="Path_3328" class="st64" d="M372.1,418.7l4.7-0.1c0.5,0,0.9,0.4,0.9,0.8l0,0c0,0.5-0.4,0.9-0.9,0.9l-4.7,0.1
				c-0.5,0-0.9-0.4-0.9-0.8l0,0C371.3,419.1,371.6,418.7,372.1,418.7z"/>
			<path id="Path_3329" class="st64" d="M371.7,419.1l5.6-0.1c0.2,0,0.4,0.2,0.4,0.4l0,0c0,0.2-0.2,0.4-0.4,0.4c0,0,0,0,0,0
				l-5.6,0.1c-0.2,0-0.4-0.2-0.4-0.4l0,0C371.3,419.3,371.4,419.1,371.7,419.1C371.7,419.1,371.7,419.1,371.7,419.1z"/>
		</g>
		<path id="Path_3330" class="st72" d="M1655.4,465.4H-339.1c0,11,18.4,19.9,41,19.9h1912.5C1637.1,485.3,1655.4,476.4,1655.4,465.4
			L1655.4,465.4z"/>
		<g id="Group_1543" transform="translate(398 3)">
			<g id="Group_1509">
				<g id="Group_1506">
					<g id="Group_1505">
						<path id="Path_3331" class="st73" d="M678.1,448.2l-2.9-0.2c-0.7,0.8-1.1,1.8-1,2.8l8.4,0.8
							C681.4,449.2,678.1,448.2,678.1,448.2z"/>
					</g>
				</g>
				<g id="Group_1508">
					<g id="Group_1507">
						<path id="Path_3332" class="st74" d="M659,417.1c0,0,19.8,7.7,22,11.1s-3,20-3,20l-2.9-0.2c0,0-0.3-10.8,0.9-16.2
							c-7.8,3.1-18.6-2.1-18.6-2.1L659,417.1z"/>
					</g>
				</g>
			</g>
			<g id="Group_1511">
				<g id="Group_1510">
					<path id="Path_3333" class="st75" d="M673.4,457.7c5.4,0,5.4-8,0-8C668,449.6,668,457.7,673.4,457.7z"/>
				</g>
			</g>
			<g id="Group_1513">
				<g id="Group_1512">
					<rect id="Rectangle_1584" x="656.5" y="431.8" class="st75" width="35.6" height="2.2"/>
				</g>
			</g>
			<g id="Group_1515">
				<g id="Group_1514">
					<path id="Path_3334" class="st75" d="M684.8,453.6c0-7.4,6.1-13.4,13.6-13.4c7.5,0,13.6,6,13.6,13.4c0,7.4-6.1,13.4-13.6,13.4
						C690.9,467,684.8,461,684.8,453.6z M687,453.6c0,6.2,5.1,11.2,11.4,11.2c6.3,0,11.4-5,11.4-11.2c0-6.2-5.1-11.2-11.4-11.2l0,0
						C692.1,442.5,687,447.5,687,453.6z"/>
				</g>
			</g>
			<g id="Group_1517">
				<g id="Group_1516">
					<path id="Path_3335" class="st75" d="M635.7,453.6c0-7.4,6.1-13.4,13.6-13.4c7.5,0,13.6,6,13.6,13.4c0,7.4-6.1,13.4-13.6,13.4
						c0,0,0,0,0,0C641.8,467,635.7,461,635.7,453.6z M637.9,453.6c0,6.2,5.1,11.2,11.4,11.2s11.4-5,11.4-11.2
						c0-6.2-5.1-11.2-11.4-11.2C643.1,442.5,638,447.5,637.9,453.6L637.9,453.6z"/>
				</g>
			</g>
			<g id="Group_1519">
				<g id="Group_1518">
					<polygon id="Rectangle_1585" class="st75" points="686.3,419.5 688.4,418.8 699.5,453.3 697.4,454 					"/>
				</g>
			</g>
			<g id="Group_1521">
				<g id="Group_1520">
					<path id="Path_3336" class="st75" d="M671,454.5l1.8-1.2l-17.6-26.2l-4.8-1.3l-0.6,2.1l4,1.1L671,454.5z"/>
				</g>
			</g>
			<g id="Group_1523">
				<g id="Group_1522">
					<path id="Path_3337" class="st75" d="M647.8,455h27l12-21.5l-1.9-1l-11.3,20.4h-22.6l7.2-19.5l-2.1-0.7L647.8,455z"/>
				</g>
			</g>
			<g id="Group_1525">
				<g id="Group_1524">
					<path id="Path_3338" class="st75" d="M679.3,423h2.2c0-3.5,1.4-2.7,10.6-2.7v-2.2h-8.6C681.6,418.1,679.3,419.4,679.3,423z"/>
				</g>
			</g>
			<g id="Group_1542">
				<g id="Group_1527">
					<g id="Group_1526">
						<path id="Path_3339" class="st73" d="M673.5,458l-2.6-0.5c-0.8,0.6-1.4,1.6-1.5,2.6l8.7,2.2C677.4,460,673.5,458,673.5,458z"
							/>
					</g>
				</g>
				<g id="Group_1529">
					<g id="Group_1528">
						<path id="Path_3340" class="st76" d="M675.7,393.2l-1.4,6.4l-4.8-4.9l4-2.5L675.7,393.2z"/>
					</g>
				</g>
				<g id="Group_1531">
					<g id="Group_1530">
						<path id="Path_3341" class="st77" d="M669.5,394.7c0,0-15.6,9.8-19.2,29.2h17.2l6.8-24.3L669.5,394.7z"/>
					</g>
				</g>
				<g id="Group_1533">
					<g id="Group_1532">
						<path id="Path_3342" class="st76" d="M670.6,404.2c-1.2,1.6-3.3,4.8-4.7,5.4c3.2-0.6,13,7.5,13,7.5l-0.7,1.7
							c0,0-17.2-3.8-17.9-6.9c-0.5-2.1,3.4-8.5,5.3-11.2c0.8-1.1,2.2-1.5,3.5-1.1l0,0c1.6,0.6,2.5,2.3,1.9,3.9
							C670.9,403.7,670.8,403.9,670.6,404.2z"/>
					</g>
				</g>
				<g id="Group_1535">
					<g id="Group_1534">
						<path id="Path_3343" class="st76" d="M671.8,387.7c-0.1-1.9,0.6-3.8,2-5.3c0.9-1,2.1-1.6,3.4-1.7c2.4-0.1,4.7,1.8,5.6,4.6l0,0
							c1.3,4.4-1.8,10-5,10.1c-2.3,0.1-4.3-2.4-5.2-4.5C672.2,390,671.9,388.9,671.8,387.7z"/>
					</g>
				</g>
				<g id="Group_1537">
					<g id="Group_1536">
						<path id="Path_3344" class="st76" d="M680.7,420.2c-1.9-1-3.2-1.4-2.6-2.6c0.2-0.4,0.6-0.6,1.1-0.6l2.5,0.3
							c0.9,0.1,1.5,0.8,1.4,1.7c0,0,0,0.1,0,0.1c-0.2,0.9-1.1,1.4-1.9,1.2C681,420.4,680.8,420.3,680.7,420.2z"/>
					</g>
				</g>
				<g id="Group_1539">
					<g id="Group_1538">
						<path id="Path_3345" class="st78" d="M667.5,423.8l9.6,11.2l-3.5,23l-2.6-0.5c0,0-5.2-15.1,0.6-19.7c0,0-18-5.9-18.9-14
							L667.5,423.8z"/>
					</g>
				</g>
				<g id="Group_1541">
					<g id="Group_1540">
						<path id="Path_3346" class="st79" d="M684,386.2l-5-1.3l-0.3,1.7l-2.5-0.4l-2.9,6.1l-2.7-3.9
							C670.4,376.8,682.9,378.2,684,386.2z"/>
					</g>
				</g>
			</g>
		</g>
		<path id="Path_3347" class="st72" d="M490.9,450.6c4.7-0.1,9.1,1.9,12.1,5.5c2.4-11.3,13.7-18.5,25.2-16.2
			c3.6,0.7,6.9,2.3,9.7,4.7c9.1-5.2,20.7-2.2,26,6.7c1,1.7,1.8,3.6,2.2,5.6c2.7-3.1,6.7-4.8,10.8-4.6c7.8,0.2,14,6.4,14,14H475.3
			C475.3,455.3,482.3,450.6,490.9,450.6z"/>
		<g id="Group_1559" transform="translate(398 3)">
			<g id="Group_1544">
				<path id="Path_3348" class="st80" d="M1047.3,460.2c1.4,0.2,2.7,0.2,4.1,0.1c0.9,1.1,1.3,2.5,1.1,3.9l-11.3,0
					C1042.3,462.3,1046.1,460.5,1047.3,460.2z"/>
			</g>
			<g id="Group_1545">
				<path id="Path_3349" class="st80" d="M1068.9,456.8c1.2-0.7,2.4-1.6,3.3-2.6c1.4,0.3,2.6,1.2,3.3,2.5l-8.7,7
					C1066.3,461.4,1068.2,457.7,1068.9,456.8z"/>
			</g>
			<g id="Group_1546">
				<path id="Path_3350" class="st81" d="M1055.6,436.6l-1.4,1.4c0.6,2.8,0.7,5.6,0.4,8.4c-0.6,4.3-3.4,8.3-3.2,13.9
					c-1.3,0.9-3,0.8-4.2-0.1c0,0,0.2-20.3,0.3-21.5c0.1-0.9,1-18,1.2-18.8l2-0.1L1055.6,436.6z"/>
			</g>
			<g id="Group_1547">
				<path id="Path_3351" class="st82" d="M1065.1,419.3c0.2,8.4-3.4,12.8-5,17c2.3,1.4,4.2,3.3,5.6,5.6c2.3,3.9,2.3,8.3,6.5,12.3
					c0,0-0.6,2.9-3.3,2.6l-14.9-18l-4.8-18.9L1065.1,419.3z"/>
			</g>
			<g id="Group_1548">
				<polygon id="Rectangle_1586" class="st81" points="1054.8,421.8 1055.6,421.1 1059.6,425 1058.8,425.7 				"/>
			</g>
			<g id="Group_1549">
				<path id="Path_3352" class="st83" d="M1055,387.5l-2.3,5.6c0,0,4,1.4,6.7-3.3v-4.4L1055,387.5z"/>
			</g>
			<g id="Group_1550">
				<path id="Path_3353" class="st84" d="M1049.4,400.6l3.3-7.4l6.7-3.3c0.4,0.5,0.8,1.1,1.2,1.6c1,1.6,1.8,3.4,2.3,5.2
					c2.6,10,5.2,23,5.2,23l-20.3,1.6L1049.4,400.6z"/>
			</g>
			<g id="Group_1551">
				<path id="Path_3354" class="st83" d="M1058.9,378.3l0.5,7.8c-1.8,1.3-3.8,1.9-5.3,1.3c-2.7-1.1-3.6-6.2-2.1-9.6L1058.9,378.3z"
					/>
			</g>
			<g id="Group_1552">
				<path id="Path_3355" class="st85" d="M1051.3,377.7l2.7,0.2l1.9-1.6l0.2,1.8l2.7,0.2l0.5,7.8c0,0,5.3-1.3,6.3-5.9
					c-0.5-2.2-1.6-4.2-3.1-5.9c-2.1-2.3-5.4-2.8-8.1-1.3C1052.2,374.2,1051.3,377.7,1051.3,377.7z"/>
			</g>
			<g id="Group_1553">
				<polygon id="Rectangle_1587" class="st86" points="1055,389 1051.5,385.6 1057.1,380.1 1060.6,383.5 				"/>
			</g>
			<g id="Group_1554">
				<path id="Path_3356" class="st83" d="M1057.1,384.3L1057.1,384.3c-0.6-0.7-1.7-0.8-2.4-0.2c0,0,0,0,0,0l-1.8,1.9
					c-0.5,0.5-0.5,1.3,0,1.9l0,0c0.5,0.6,1.3,0.7,1.9,0.3l2.1-1.4C1057.6,386.1,1057.7,385,1057.1,384.3
					C1057.1,384.3,1057.1,384.3,1057.1,384.3z"/>
			</g>
			<g id="Group_1555">
				<path id="Path_3357" class="st87" d="M1059.7,399.1c0,0.8-0.4,1.5-1,2c-5.3,4.3-14.5,4.1-14.5,4.1c-0.9-3.3,0.8-7.3,2.9-10.7
					l3.3,1.9c-0.6,1.3-1.3,2.6-2.1,3.8c1.8-2,5.8-3,7.8-3.7c1.4-0.5,3,0.2,3.5,1.6C1059.6,398.5,1059.7,398.8,1059.7,399.1z"/>
			</g>
			<g id="Group_1556">
				<path id="Path_3358" class="st83" d="M1054,377.9l2.2,0.2l-0.2-1.8L1054,377.9z"/>
			</g>
			<g id="Group_1557">
				<path id="Path_3359" class="st83" d="M1054.2,388.2c0,0-2,4.6-3.9,8.3l-3.3-1.9c1.6-2.6,3.5-5,5.7-7.2L1054.2,388.2z"/>
			</g>
			<g id="Group_1558">
				<path id="Path_3360" class="st87" d="M1054.2,409.2l5.9,3.1l-1,2c-0.5,1-1.6,1.7-2.8,1.7l0,0c-1.7,0-3.1-1.3-3.1-3
					c0-0.3,0-0.5,0.1-0.8L1054.2,409.2z"/>
			</g>
		</g>
		<g id="Group_1590" transform="translate(359 3)">
			<g id="Group_1569">
				<g id="Group_1561">
					<g id="Group_1560">
						<rect id="Rectangle_1588" x="860" y="415.7" class="st60" width="43.4" height="2.2"/>
					</g>
				</g>
				<g id="Group_1563">
					<g id="Group_1562">
						<rect id="Rectangle_1589" x="860" y="425" class="st60" width="43.4" height="2.2"/>
					</g>
				</g>
				<g id="Group_1564">
					<path id="Path_3361" class="st61" d="M866.2,432.6H863v-20.4l1.6-2.6l1.6,2.6V432.6z"/>
				</g>
				<g id="Group_1565">
					<path id="Path_3362" class="st61" d="M874.7,432.6h-3.2v-22.7l1.6-2.6l1.6,2.6V432.6z"/>
				</g>
				<g id="Group_1566">
					<path id="Path_3363" class="st61" d="M883.2,432.6H880v-25.3l1.6-2.6l1.6,2.6V432.6z"/>
				</g>
				<g id="Group_1567">
					<path id="Path_3364" class="st61" d="M891.7,432.6h-3.2v-22.7l1.6-2.6l1.6,2.6V432.6z"/>
				</g>
				<g id="Group_1568">
					<path id="Path_3365" class="st61" d="M900.2,432.6H897v-20.4l1.6-2.6l1.6,2.6V432.6z"/>
				</g>
			</g>
			<g id="Group_1579">
				<g id="Group_1571">
					<g id="Group_1570">
						<rect id="Rectangle_1590" x="902.7" y="415.7" class="st60" width="43.4" height="2.2"/>
					</g>
				</g>
				<g id="Group_1573">
					<g id="Group_1572">
						<rect id="Rectangle_1591" x="902.7" y="425" class="st60" width="43.4" height="2.2"/>
					</g>
				</g>
				<g id="Group_1574">
					<path id="Path_3366" class="st61" d="M908.8,432.6h-3.2v-20.4l1.6-2.6l1.6,2.6V432.6z"/>
				</g>
				<g id="Group_1575">
					<path id="Path_3367" class="st61" d="M917.3,432.6h-3.2v-22.7l1.6-2.6l1.6,2.6V432.6z"/>
				</g>
				<g id="Group_1576">
					<path id="Path_3368" class="st61" d="M925.8,432.6h-3.2v-25.3l1.6-2.6l1.6,2.6V432.6z"/>
				</g>
				<g id="Group_1577">
					<path id="Path_3369" class="st61" d="M934.3,432.6h-3.2v-22.7l1.6-2.6l1.6,2.6V432.6z"/>
				</g>
				<g id="Group_1578">
					<path id="Path_3370" class="st61" d="M942.8,432.6h-3.2v-20.4l1.6-2.6l1.6,2.6V432.6z"/>
				</g>
			</g>
			<g id="Group_1589">
				<g id="Group_1581">
					<g id="Group_1580">
						<rect id="Rectangle_1592" x="817.5" y="415.7" class="st60" width="43.4" height="2.2"/>
					</g>
				</g>
				<g id="Group_1583">
					<g id="Group_1582">
						<rect id="Rectangle_1593" x="817.5" y="425" class="st60" width="43.4" height="2.2"/>
					</g>
				</g>
				<g id="Group_1584">
					<path id="Path_3371" class="st61" d="M823.7,432.6h-3.2v-20.4l1.6-2.6l1.6,2.6V432.6z"/>
				</g>
				<g id="Group_1585">
					<path id="Path_3372" class="st61" d="M832.2,432.6H829v-22.7l1.6-2.6l1.6,2.6V432.6z"/>
				</g>
				<g id="Group_1586">
					<path id="Path_3373" class="st61" d="M840.7,432.6h-3.2v-25.3l1.6-2.6l1.6,2.6V432.6z"/>
				</g>
				<g id="Group_1587">
					<path id="Path_3374" class="st61" d="M849.2,432.6H846v-22.7l1.6-2.6l1.6,2.6V432.6z"/>
				</g>
				<g id="Group_1588">
					<path id="Path_3375" class="st61" d="M857.7,432.6h-3.2v-20.4l1.6-2.6l1.6,2.6V432.6z"/>
				</g>
			</g>
		</g>
		<g id="Group_1591" transform="translate(398 3)">
			<rect id="Rectangle_1594" x="1182.3" y="399.1" class="st24" width="11.5" height="33.4"/>
			<path id="Path_3376" class="st51" d="M1182.3,399.1v9.4c4.4,0,7.9,3,7.9,7.3v16.7h3.9v-33.4L1182.3,399.1z"/>
			<path id="Path_3377" class="st20" d="M1188.4,250.9l-23.1,70.4l23.1-11.2l23.1,11.2L1188.4,250.9z"/>
			<path id="Path_3378" class="st20" d="M1188.4,273l-29.7,90.5l29.7-14.4l29.7,14.4L1188.4,273z"/>
			<path id="Path_3379" class="st20" d="M1188.4,296.5L1148,419.6l40.4-19.5l40.4,19.5L1188.4,296.5z"/>
			<path id="Path_3380" class="st52" d="M1188.4,250.9l23.1,70.4l-17.8-8.6L1188.4,250.9z"/>
			<path id="Path_3381" class="st52" d="M1195,292.8l23.1,70.4l-17.8-8.6L1195,292.8z"/>
			<path id="Path_3382" class="st52" d="M1205.7,349.2l23.1,70.4L1211,411L1205.7,349.2z"/>
			<path id="Path_3383" class="st26" d="M1202.9,317.1l-14.5-7l-14.5,7l-5.6,17.2l19.5-15.8l20.7,15.3L1202.9,317.1z"/>
			<path id="Path_3384" class="st26" d="M1208.9,358.8l-20.5-9.9l-20.5,9.9l-8,24.3l27.5-22.3l29.3,21.7L1208.9,358.8z"/>
		</g>
		<g id="Group_1605" transform="translate(-63 1)">
			<g id="Group_1592">
				<path id="Path_3385" class="st88" d="M176.1,448.5l-0.9-3c-1.1-0.4-2.3-0.4-3.4,0.1l2.4,8.9
					C176.3,452.3,176.1,448.5,176.1,448.5z"/>
			</g>
			<g id="Group_1593">
				<path id="Path_3386" class="st88" d="M217.1,460.4l-2.9,0.8c-0.5,1.1-0.5,2.3-0.1,3.4l9.8-2.1
					C221.9,460.4,217.1,460.4,217.1,460.4z"/>
			</g>
			<g id="Group_1594">
				<path id="Path_3387" class="st89" d="M208.1,419.2c0,0-6.2,21.3-9.8,24.2s-22.2,5.1-22.2,5.1l-0.9-3c0,0,12.1-7.7,18.5-7
					c-4.5-8.1-2.2-19.3-2.2-19.3H208.1z"/>
			</g>
			<g id="Group_1595">
				<path id="Path_3388" class="st90" d="M208.4,419.2l8.7,17.3l0,23.9l-2.9,0.8c0,0-6.7-14.2-3.2-21.5c0,0-18.1-11.5-19.2-20.5
					L208.4,419.2z"/>
			</g>
			<g id="Group_1596">
				<path id="Path_3389" class="st91" d="M205.9,392.6c0,0,5.9,4.2,8.3,8c2.9-2.4,7.6-5.7,7.6-5.7l1.6,1.1c0,0-5.9,8.9-8.9,9.7
					c-3.1,0.9-12.4-6.9-12.4-6.9L205.9,392.6z"/>
			</g>
			<g id="Group_1597">
				<path id="Path_3390" class="st91" d="M211.2,382.4l-0.6,4.9l-6.9-1.8l5-4.2L211.2,382.4z"/>
			</g>
			<g id="Group_1598">
				<path id="Path_3391" class="st92" d="M203.7,385.5c-9.6,9.3-14.9,22-14.6,35.2h20.2l1.3-33.4L203.7,385.5z"/>
			</g>
			<g id="Group_1599">
				<path id="Path_3392" class="st91" d="M191.8,401.3c-0.5,3.5,16.6,9.3,16.6,9.3l0.6-1.7c0,0-6.7-7.2-10.4-7.8
					c1.2-0.1,3.1-1.2,4.8-2.4l-4.3-5.2C195.8,396,192,399.5,191.8,401.3z"/>
			</g>
			<g id="Group_1600">
				<path id="Path_3393" class="st91" d="M205.7,378.3c-0.2-0.4-0.3-0.8-0.4-1.2c0-0.2-0.1-0.5-0.1-0.7c0-0.3-0.1-0.6-0.1-0.9
					c0-0.8,0-1.5,0.2-2.2c0.3-1.4,1-2.6,2-3.6c1-1.1,2.4-1.8,3.9-1.9c0.3,0,0.6,0,0.9,0.1c0.2,0,0.5,0.1,0.7,0.2
					c0.2,0.1,0.5,0.2,0.7,0.3c0.3,0.1,0.5,0.3,0.8,0.4c0.2,0.2,0.5,0.3,0.7,0.5c0.6,0.5,1.2,1.1,1.6,1.8c0.3,0.4,0.2,0.3,0.4,0.6
					c0.2,0.4,0.4,0.9,0.6,1.4l0,0c0.2,0.7,0.3,1.4,0.4,2.1c0.2,4.1-2.7,9.1-6,9.2c-2.2,0.1-4.5-2.1-5.8-4.9c0,0,0-0.1,0-0.1
					C205.9,378.9,205.8,378.6,205.7,378.3z"/>
			</g>
			<g id="Group_1601">
				<path id="Path_3394" class="st91" d="M213.3,411.7c-0.5,0.8-1.7,1.1-2.5,0.5c0,0,0,0,0,0l-2.4-1.5c-0.5-0.3-0.7-1-0.4-1.6l0,0
					c0.3-0.4,0.8-0.6,1.2-0.6l2.8,0.5c1,0.2,1.6,1,1.5,2c0,0.1,0,0.1,0,0.2C213.5,411.5,213.4,411.6,213.3,411.7z"/>
			</g>
			<g id="Group_1602">
				<path id="Path_3395" class="st91" d="M225.5,392.2c0.6,0.8,0.4,1.9-0.4,2.5l-2.3,1.6c-0.5,0.4-1.3,0.3-1.7-0.2l0,0
					c-0.3-0.4-0.3-0.9-0.1-1.3l1.5-2.4c0.5-0.8,1.6-1.1,2.4-0.6c0,0,0.1,0.1,0.1,0.1C225.3,392,225.5,392.1,225.5,392.2z"/>
			</g>
			<g id="Group_1603">
				<path id="Path_3396" class="st85" d="M218.7,373.7l-4.2-1.1l-2.5,1.8l-2-0.7l-3.3,6.8l-3-4.4
					C203.5,363.2,217.5,364.7,218.7,373.7z"/>
			</g>
			<g id="Group_1604">
				<path id="Path_3397" class="st93" d="M198.5,393.4l4.8,5.8c1-0.6,1.9-1.3,2.6-1.7c1.8-1.2,2.2-3.5,1-5.3c-1.2-1.7-3.6-2.2-5.4-1
					C200.8,391.7,199.7,392.5,198.5,393.4z"/>
			</g>
		</g>
		<g id="Group_944" transform="translate(1419.994 -470.541)">
			<path id="Path_1445" class="st11" d="M31.5,67.4l-1.2,6l-0.3,0l1.2-6L31.5,67.4z"/>
			<path id="Path_1446" class="st12" d="M13.3,44l15.2,36.9l0.2-0.1L13.6,43.9L13.3,44z"/>
			<path id="Path_1447" class="st12" d="M23.5,58.4l7.6,10.5l0.2-0.1l-7.6-10.5L23.5,58.4z"/>
			<path id="Rectangle_796" class="st13" d="M32.2,66h3c0.1,0,0.2,0.1,0.2,0.2v1c0,0.1-0.1,0.2-0.2,0.2h-3c-0.1,0-0.2-0.1-0.2-0.2
				v-1C32.1,66,32.2,66,32.2,66z"/>
			<path id="Path_1448" class="st14" d="M44,58.4l-7.6,10.5l-0.2-0.1l7.6-10.5L44,58.4z"/>
			<path id="Path_1449" class="st14" d="M54.2,44L39,80.9l-0.2-0.1L54,43.9L54.2,44z"/>
			<path id="Path_1450" class="st15" d="M11.4,7.4c-5,5.1-7.3,12.2-6,19.2c1.9,11.6,14.9,26.9,21.8,36.8h13.3
				c6.9-9.9,19.9-25.2,21.8-36.8c1.3-7-1-14.1-6-19.2C46.1-2.5,21.5-2.5,11.4,7.4z"/>
			<path id="Path_1451" class="st16" d="M18.8,7.4c-3.2,4.6-4.9,11.5-4,19.2c1.3,11.6,10,26.9,14.6,36.8h8.9
				c4.6-9.9,13.3-25.2,14.6-36.8C53.7,19,52,12,48.8,7.4C42-2.5,25.5-2.5,18.8,7.4z"/>
			<path id="Path_1452" class="st15" d="M26.3,26.6c0.5,11.6,3.9,26.9,5.7,36.8h3.5c3-16.6,8.6-39.1,4.1-55.9
				C36.1-5.8,25.1-2.5,26.3,26.6z"/>
			<path id="Path_1453" class="st17" d="M35.5,63.3h2.7c4.6-9.9,13.3-25.2,14.6-36.8C54.3,12.9,48.1,0,33.8,0c2.3,0,4.5,2.5,5.9,7.4
				C44.2,24.2,38.6,46.8,35.5,63.3z"/>
			<path id="Path_1454" class="st14" d="M33.8,63.2V0c7.2,0,7.7,19.4,7.4,26.5c-0.5,11.6-3.9,26.8-5.7,36.6L33.8,63.2z"/>
			<path id="Path_1455" class="st14" d="M38.2,63.3h2.2c6.9-9.9,19.9-25.2,21.8-36.8C64.5,12.1,54.3,0,33.8,0
				c14.3,0,20.5,12.9,19,26.6C51.6,38.2,42.9,53.5,38.2,63.3z"/>
			<path id="Path_1456" class="st12" d="M23.5,58.4H44l-3.6,5H27.1L23.5,58.4z"/>
			<path id="Path_1457" class="st15" d="M33.8,58.4H44l-3.6,5h-6.6V58.4z"/>
			<path id="Path_1458" class="st18" d="M36.1,67.4l1.2,6l0.3,0l-1.2-6L36.1,67.4z"/>
			<path id="Path_1459" class="st15" d="M29.9,73.4c0.1,0,7.8,0,7.8,0.1l1.3,7.4c0,0,0,0.1-0.1,0.1c0,0,0,0,0,0l0,0
				c-0.1,0-10.5,0-10.5-0.1C28.5,80.9,29.9,73.5,29.9,73.4C29.9,73.4,29.9,73.4,29.9,73.4z"/>
			<path id="Path_1460" class="st14" d="M33.8,67.3V66c1.2,0,1.7-0.1,1.7,0.2v1C35.5,67.4,35,67.3,33.8,67.3z"/>
			<path id="Path_1461" class="st11" d="M31.4,67.2c4.9,0,4.9-0.2,5,0.3l0.3,1.7c0,0.2-0.1,0.3-0.3,0.3c-5.1,0-5.8,0.2-5.7-0.3
				l0.3-1.7C31.1,67.3,31.3,67.2,31.4,67.2z"/>
			<path id="Path_1462" class="st18" d="M33.8,69.4v-2.2h2.3c0.2,0,0.3,0.1,0.3,0.3l0.3,1.7c0,0.2-0.1,0.3-0.3,0.3L33.8,69.4z"/>
			<path id="Path_1463" class="st14" d="M33.8,80.9v-7.5h3.8c0.1,0,1.5,7.5,1.4,7.5L33.8,80.9L33.8,80.9z"/>
			<path id="Path_1464" class="st12" d="M35.5,73.4l0.5,7.5h-4.5l0.5-7.5H35.5z"/>
			<path id="Path_1465" class="st15" d="M33.8,80.9v-7.5h1.7l0.5,7.5H33.8z"/>
		</g>
	</g>
</g>
</svg>
