<?xml version="1.0" encoding="utf-8"?>
<!-- Generator: Adobe Illustrator 23.0.1, SVG Export Plug-In . SVG Version: 6.00 Build 0)  -->
<svg version="1.1" id="Слой_1" xmlns="http://www.w3.org/2000/svg" xmlns:xlink="http://www.w3.org/1999/xlink" x="0px" y="0px"
	 viewBox="0 0 1920 536" style="enable-background:new 0 0 1920 536;" xml:space="preserve">
<style type="text/css">
	.st0{fill:#69B26C;}
	.st1{opacity:7.400000e-02;}
	.st2{fill:#FFFBFA;}
	.st3{fill:#66625F;}
	.st4{fill:#6DB3B4;}
	.st5{fill:#A7A9AC;}
	.st6{fill:#FFFFFF;}
	.st7{fill:#333333;}
	.st8{fill:#F15A29;}
	.st9{fill:#A97C50;}
	.st10{fill:#CCCCCC;}
	.st11{fill:#D7DF23;}
	.st12{fill:#8DC63F;}
	.st13{opacity:0.8;fill:#FFFFFF;enable-background:new    ;}
	.st14{fill:#F1F2F2;}
	.st15{fill:#CFAD89;}
	.st16{fill:#BD9F7F;}
	.st17{fill:#B8835D;}
	.st18{fill:#637D37;}
	.st19{fill:#9EBA66;}
	.st20{fill:#7FA147;}
	.st21{fill:#70482F;}
	.st22{fill:#FBD5A2;}
	.st23{fill:#996D55;}
	.st24{opacity:0.4;fill:#552F27;enable-background:new    ;}
	.st25{fill:#705F5F;}
	.st26{fill:#808285;}
	.st27{fill:#AB7A5F;}
	.st28{fill:#959699;}
	.st29{fill:#C5A396;}
	.st30{fill:#9C8176;}
	.st31{fill:#9D5A3C;}
	.st32{opacity:0.2;fill:#231F20;enable-background:new    ;}
	.st33{fill:#FF7926;}
	.st34{fill:#E35700;}
	.st35{fill:#F9F8EF;}
	.st36{fill:#A1A6AB;}
	.st37{fill:#283740;}
	.st38{fill:#3A535E;}
	.st39{fill:#888C91;}
	.st40{fill:#B37B48;}
	.st41{fill:#FBBB6E;}
	.st42{opacity:0.28;fill:#6B6B6B;enable-background:new    ;}
	.st43{fill:#282222;}
	.st44{fill:#686473;}
	.st45{opacity:0.33;fill:url(#Path_5725_1_);enable-background:new    ;}
	.st46{fill:#97C5D1;}
	.st47{fill:#B4EFEF;}
	.st48{fill:#D8EEEF;}
	.st49{fill:#D8EBEC;}
	.st50{fill:#C8DDDD;}
	.st51{fill:#A6C6C9;}
	.st52{fill:#84B7B7;}
	.st53{fill:#D4F9F8;}
	.st54{opacity:0.32;fill:#FCFCFC;enable-background:new    ;}
	.st55{fill:#B7C9CE;}
	.st56{fill:#1CA59E;}
	.st57{fill:#F9F0D9;}
	.st58{fill:#493324;}
	.st59{fill:#06A779;}
	.st60{fill:#0EB781;}
	.st61{fill:#F9ED32;}
	.st62{fill:#F4E876;}
	.st63{fill:#7D9E49;}
	.st64{fill:#6F8C41;}
	.st65{fill:#83A64D;}
	.st66{fill:#FFC06D;}
	.st67{fill:#E8AA61;}
	.st68{fill:#FFF0C4;}
	.st69{fill:#CC9653;}
	.st70{fill:#D08C89;}
	.st71{fill:#F5948D;}
	.st72{fill:#472E4F;}
	.st73{fill:#8783A4;}
	.st74{fill:#B9543F;}
	.st75{fill:#4D3A4E;}
	.st76{fill:#8783A6;}
	.st77{fill:#C46B4D;}
	.st78{fill:#D59A92;}
	.st79{fill:#1F1524;}
	.st80{fill:#E3ACA5;}
	.st81{fill:#4D3C60;}
	.st82{fill:#FFA998;}
	.st83{fill:#CD896D;}
	.st84{fill:#5A3D5B;}
	.st85{fill:#754962;}
	.st86{fill:#EBE8EF;}
	.st87{fill:#402848;}
	.st88{fill:#D6FEE8;}
	.st89{fill:#F98786;}
	.st90{fill:#F9D562;}
	.st91{fill:#AAAAAA;}
</style>
<g id="Group_4974" transform="translate(0 -87.5)">
	<rect id="Rectangle_3598" x="0" y="533.7" class="st0" width="1920" height="89.8"/>
	<g id="Group_2961" transform="translate(390.291 435.037)" class="st1">
		<g id="Group_2956" transform="translate(181.634 473.46)">
			<path id="Path_5791" class="st2" d="M332.7-373.8H159.6L-0.7-285h274.1L332.7-373.8z"/>
			<path id="Path_5792" class="st3" d="M246.7-373.8h-1.4l-107.6,86.9h2.2L246.7-373.8z"/>
			<path id="Path_5793" class="st3" d="M299.9-333.5H77.2l-1,0.5h223.4L299.9-333.5z"/>
			<path id="Path_5794" class="st3" d="M320.9-356.3H132.8L132-356h188.6L320.9-356.3z"/>
		</g>
		<g id="Group_2957" transform="translate(477.737 473.46)">
			<path id="Path_5795" class="st2" d="M223.4-373.8H50.3L-1.1-285H273L223.4-373.8z"/>
			<path id="Path_5796" class="st3" d="M137.2-373.8H136l-1.4,86.9h2.5V-373.8z"/>
			<path id="Path_5797" class="st3" d="M247.8-333.5H25l-0.3,0.5h223.4L247.8-333.5z"/>
			<path id="Path_5798" class="st3" d="M230.8-356.3H42.7l-0.2,0.3H231L230.8-356.3z"/>
		</g>
		<g id="Group_2958" transform="translate(-178.291 473.46)">
			<path id="Path_5799" class="st2" d="M465.6-373.8H292.5L-0.3-285h274.1L465.6-373.8z"/>
			<path id="Path_5800" class="st3" d="M379.5-373.8h-1.4l-236.8,86.9h2.2L379.5-373.8z"/>
			<path id="Path_5801" class="st3" d="M363.3-333.5H140.5l-1.8,0.5h223.4L363.3-333.5z"/>
			<path id="Path_5802" class="st3" d="M430.4-356.3H242.3L241-356h188.6L430.4-356.3z"/>
		</g>
		<g id="Group_2959" transform="translate(759.897 471.855)">
			<path id="Path_5803" class="st2" d="M171.7-372.2c-70-0.8-160.1-1.7-173.1,0l83,88.8h274.1L171.7-372.2z"/>
			<path id="Path_5804" class="st3" d="M85.8-372.2h-1.4l129.7,86.9h2.2L85.8-372.2z"/>
			<path id="Path_5805" class="st3" d="M266.6-331.9H43.8l0.5,0.5h223.4L266.6-331.9z"/>
			<path id="Path_5806" class="st3" d="M202.7-354.5H14.6l0.4,0.3h188.6L202.7-354.5z"/>
		</g>
		<g id="Group_2960" transform="translate(946.913 473.46)">
			<path id="Path_5807" class="st2" d="M171.5-373.8H-1.7l192,88.8h274.1L171.5-373.8z"/>
			<path id="Path_5808" class="st3" d="M85.6-373.8h-1.4l236,86.9h2.2L85.6-373.8z"/>
			<path id="Path_5809" class="st3" d="M323.5-333.5H100.8l1.2,0.5h223.4L323.5-333.5z"/>
			<path id="Path_5810" class="st3" d="M221.7-356.3H33.6l0.9,0.3H223L221.7-356.3z"/>
		</g>
	</g>
	<g id="Group_2747" transform="translate(858.034 372.644)">
		<g id="Group_2708" transform="translate(893.903 334.543)">
			<path id="Path_5475" class="st4" d="M23-372.4l-25.2,25.1v40.6h45v-65.7H23z"/>
			<path id="Path_5476" class="st5" d="M23-372.4l-25.2,25.1v40.6h45v-65.7H23z"/>
			<path id="Path_5477" class="st4" d="M31-372.4L5.8-347.3v40.6h45v-65.7H31z"/>
			<rect id="Rectangle_3313" x="-2.2" y="-347.3" class="st5" width="8" height="40.6"/>
			<path id="Path_5478" class="st6" d="M1.8-370v22.7h4L28.5-370H1.8z"/>
			<path id="Path_5479" class="st5" d="M27-370L5-348.1H1.8v0.8h4L28.5-370H27z"/>
			<path id="Path_5480" class="st5" d="M25.7-368H3.4v20.6H5L25.7-368z"/>
			<path id="Path_5481" class="st6" d="M26.5-368H4.2v20.6h1.6L26.5-368z"/>
			<path id="Path_5482" class="st5" d="M25.1-368l-20,20H4.2v0.7h1.6L26.5-368H25.1z"/>
			<path id="Path_5483" class="st6" d="M-1-337.4c0-1.3,1.1-2.4,2.4-2.4s2.4,1.1,2.4,2.4c0,1.3-1.1,2.4-2.4,2.4l0,0
				C0.1-335-1-336.1-1-337.4z"/>
			<path id="Path_5484" class="st5" d="M-1-337.4c0-1.3,1.1-2.4,2.4-2.4s2.4,1.1,2.4,2.4c0,1.3-1.1,2.4-2.4,2.4l0,0
				C0.1-335-1-336.1-1-337.4z"/>
		</g>
		<g id="Group_2709" transform="translate(929.996 334.543)">
			<path id="Path_5485" class="st7" d="M22.9-372.4l-25.2,25.1v40.6h45v-65.7H22.9z"/>
			<path id="Path_5486" class="st5" d="M22.9-372.4l-25.2,25.1v40.6h45v-65.7H22.9z"/>
			<path id="Path_5487" class="st7" d="M30.9-372.4L5.8-347.3v40.6h45v-65.7H30.9z"/>
			<rect id="Rectangle_3314" x="-2.2" y="-347.3" class="st5" width="8" height="40.6"/>
			<path id="Path_5488" class="st6" d="M1.8-370v22.7h4L28.5-370H1.8z"/>
			<path id="Path_5489" class="st5" d="M26.9-370L5-348.1H1.8v0.8h4L28.5-370H26.9z"/>
			<rect id="Rectangle_3315" x="0" y="-335.6" class="st6" width="2.4" height="13.9"/>
			<rect id="Rectangle_3316" x="0" y="-335.6" class="st5" width="2.4" height="13.9"/>
			<path id="Path_5490" class="st5" d="M25.6-368H3.3v20.6h1.6L25.6-368z"/>
			<path id="Path_5491" class="st6" d="M26.5-368H4.2v20.6h1.6L26.5-368z"/>
			<path id="Path_5492" class="st5" d="M25.1-368l-20,20H4.2v0.7h1.6L26.5-368H25.1z"/>
		</g>
		<g id="Group_2710" transform="translate(962.242 390.525)">
			<path id="Path_5493" class="st8" d="M42.1-364.8c-1.6,0-2.9-1.3-2.9-2.9c0-1.6,1.3-2.9,2.9-2.9h8.2v-2H2.7c-2.7,0-5,2.1-5,4.9
				s2.1,5,4.9,5c0,0,0.1,0,0.1,0h47.6v-2L42.1-364.8z"/>
			<path id="Path_5494" class="st6" d="M42.1-364.8h5.1v-5.8h-5.1c-1.6,0-2.9,1.3-2.9,2.9l0,0l0,0C39.1-366.1,40.4-364.8,42.1-364.8
				C42.1-364.8,42.1-364.8,42.1-364.8z"/>
			<path id="Path_5495" class="st5" d="M35.4-367.7c0-2.7,2.2-4.9,5-4.9l0,0H2.7c-2.7,0-5,2.1-5,4.9s2.1,5,4.9,5c0,0,0.1,0,0.1,0
				h37.7C37.6-362.7,35.4-365,35.4-367.7z"/>
			<path id="Path_5496" class="st5" d="M40.2-367.7c0-1.6,1.3-2.9,2.9-2.9h-1c-1.6,0-2.9,1.3-2.9,2.9c0,1.6,1.3,2.9,2.9,2.9
				c0,0,0,0,0,0h1C41.5-364.8,40.2-366.1,40.2-367.7C40.2-367.7,40.2-367.7,40.2-367.7z"/>
		</g>
		<g id="Group_2711" transform="translate(957.763 380.476)">
			<path id="Path_5497" class="st4" d="M42.1-364.7c-1.6,0-2.9-1.3-2.9-2.9c0-1.6,1.3-2.9,2.9-2.9c0,0,0,0,0,0h8.2v-2H2.7
				c-2.7,0-5,2.2-5,4.9c0,2.7,2.2,4.9,5,4.9h47.6v-2L42.1-364.7z"/>
			<path id="Path_5498" class="st6" d="M42.1-364.7h5.1v-5.8h-5.1c-1.6,0-2.9,1.3-2.9,2.9l0,0C39.1-366,40.4-364.7,42.1-364.7
				L42.1-364.7z"/>
			<path id="Path_5499" class="st5" d="M35.4-367.6c0-2.7,2.2-4.9,5-4.9H2.7c-2.7,0-5,2.2-5,4.9c0,2.7,2.2,4.9,5,4.9h37.7
				C37.6-362.7,35.4-364.9,35.4-367.6L35.4-367.6z"/>
			<path id="Path_5500" class="st5" d="M40.2-367.6c0-1.6,1.3-2.9,2.9-2.9l0,0h-1c-1.6,0-2.9,1.3-2.9,2.9c0,1.6,1.3,2.9,2.9,2.9
				c0,0,0,0,0,0h1C41.5-364.7,40.2-366,40.2-367.6C40.2-367.6,40.2-367.6,40.2-367.6z"/>
		</g>
		<path id="Path_5501" class="st9" d="M1159.8,280.6"/>
		<rect id="Rectangle_3317" x="692.6" y="27.8" class="st9" width="334.2" height="8.5"/>
		<rect id="Rectangle_3318" x="692.6" y="27.8" class="st5" width="39.2" height="8.5"/>
		<g id="Group_2725" transform="translate(694.492 510.867)">
			<rect id="Rectangle_3327" x="-1.9" y="-373.1" class="st9" width="334.2" height="8.5"/>
			<g id="Group_2719" transform="translate(12.735 8.52)">
				<path id="Path_5502" class="st10" d="M-1.9-373.1H7l36.3,102.7h-8.9L-1.9-373.1z"/>
				<path id="Path_5503" class="st5" d="M-1.9-373.1H7l36.3,102.7h-8.9L-1.9-373.1z"/>
				<path id="Path_5504" class="st5" d="M0.3-373.1H7l36.3,102.7h-6.7L0.3-373.1z"/>
			</g>
			<g id="Group_2720" transform="translate(12.882 8.52)">
				<path id="Path_5505" class="st10" d="M31.8-373.1h8.9L7-270.4h-8.9L31.8-373.1z"/>
				<path id="Path_5506" class="st5" d="M31.8-373.1h8.9L7-270.4h-8.9L31.8-373.1z"/>
				<path id="Path_5507" class="st5" d="M34.1-373.1h6.7L7-270.4H0.3L34.1-373.1z"/>
			</g>
			<g id="Group_2721" transform="translate(282.493 8.508)">
				<path id="Path_5508" class="st10" d="M-2.3-373.1h8.9L43-270.4H34L-2.3-373.1z"/>
				<path id="Path_5509" class="st5" d="M-2.3-373.1h8.9L43-270.4H34L-2.3-373.1z"/>
				<path id="Path_5510" class="st5" d="M0-373.1h6.7L43-270.4h-6.7L0-373.1z"/>
			</g>
			<g id="Group_2722" transform="translate(282.639 8.508)">
				<path id="Path_5511" class="st10" d="M31.5-373.1h8.9L6.7-270.4h-8.9L31.5-373.1z"/>
				<path id="Path_5512" class="st5" d="M31.5-373.1h8.9L6.7-270.4h-8.9L31.5-373.1z"/>
				<path id="Path_5513" class="st5" d="M33.7-373.1h6.7L6.7-270.4H0L33.7-373.1z"/>
			</g>
			<rect id="Rectangle_3328" x="-1.9" y="-373.1" class="st5" width="39.2" height="8.5"/>
			<g id="Group_2723" transform="translate(282.493 8.508)">
				<path id="Path_5514" class="st5" d="M7.4-371l-0.7-2.1h-8.9l0.7,2.1H7.4z"/>
				<path id="Path_5515" class="st5" d="M40.6-373.1l-0.7,2.1h-8.9l0.7-2.1H40.6z"/>
			</g>
			<g id="Group_2724" transform="translate(12.727 8.508)">
				<path id="Path_5516" class="st5" d="M7.7-371L7-373.1h-8.9l0.7,2.1H7.7z"/>
				<path id="Path_5517" class="st5" d="M40.9-373.1l-0.7,2.1h-8.9l0.7-2.1H40.9z"/>
			</g>
		</g>
		<g id="Group_2728" transform="translate(954.429 464.587)">
			<g id="Group_2726" transform="translate(0.763)">
				<path id="Path_5518" class="st11" d="M3.2-345.4c0,0-1.9-4-1.9-7.2c0.1-3.2,1-7.1,0.1-8.9c1.7,2.2,2.8,4.8,3.4,7.5
					c0.4,2.8,0.3,5.7-0.1,8.5L3.2-345.4z"/>
				<path id="Path_5519" class="st12" d="M4.8-345.4c0,0-2.8-7-2.3-12.4c0.5-5.4,2.5-12,1.1-15.1c0,0,4.3,6.2,4.9,13
					c0.3,4.8-0.1,9.7-1.2,14.4H4.8z"/>
				<path id="Path_5520" class="st11" d="M8.5-345.4c0,0-1.9-3.2-1.9-5.7c0.1-2.5,1-5.6,0.1-7.1c1.6,1.7,2.8,3.7,3.4,6
					c0.4,2.2,0.3,4.5-0.1,6.7L8.5-345.4z"/>
				<path id="Path_5521" class="st12" d="M10.1-345.4c0,0-2.8-5.5-2.3-9.8c0.5-4.3,2.5-9.5,1.1-12c0,0,4.3,4.9,4.9,10.3
					c0.3,3.9-0.2,7.7-1.2,11.5L10.1-345.4z"/>
				<path id="Path_5522" class="st11" d="M12.1-344.2c0,0-1.1-3.4-0.4-5.9c0.7-2.5,2.3-5.4,1.8-6.9c1.2,1.9,1.8,4.1,1.9,6.4
					c-0.2,2.3-0.8,4.5-1.8,6.6L12.1-344.2z"/>
				<path id="Path_5523" class="st12" d="M18.3-343.9c0,0,2.8-2.8,3.5-5.2c0.7-2.5,0.7-5.7,2-6.9c-2.1,1.4-3.8,3.1-5.1,5.2
					c-1,2.1-1.6,4.3-1.9,6.6L18.3-343.9z"/>
				<path id="Path_5524" class="st11" d="M3.3-343.1c0,0-2.8-2.8-3.5-5.2s-0.7-5.7-2-6.9c2.1,1.4,3.8,3.1,5.1,5.2
					c1,2.1,1.6,4.3,1.8,6.6L3.3-343.1z"/>
				<path id="Path_5525" class="st11" d="M13.6-344c0,0-1.4-5.8,0.1-10s4.8-9,4-11.6c0,0,3,5.5,2.3,10.9c-0.7,5.4-4,11.1-4,11.1
					L13.6-344z"/>
			</g>
			<g id="Group_2727" transform="translate(0 25.796)">
				<path id="Path_5526" class="st7" d="M21.5-373H-2.2l3.1,17.3c0.3,1.8,1.9,3.1,3.7,3.1h10c1.8,0,3.4-1.3,3.7-3.1L21.5-373z"/>
				<path id="Path_5527" class="st10" d="M21.5-373H-2.2l3.1,17.3c0.3,1.8,1.9,3.1,3.7,3.1h10c1.8,0,3.4-1.3,3.7-3.1L21.5-373z"/>
				<path id="Path_5528" class="st7" d="M24.5-373H0.8l3.1,17.3c0.3,1.8,1.9,3.1,3.7,3.1h10c1.8,0,3.4-1.3,3.7-3.1L24.5-373z"/>
			</g>
		</g>
		<g id="Group_2731" transform="translate(775.504 452.07)">
			<g id="Group_2730">
				<path id="Path_5529" class="st7" d="M89.5-372.9H2.1c-2.3,0-4.1,1.9-4.1,4.1v49.2h92.4V-372C90.4-372.5,90-372.9,89.5-372.9z"/>
				<path id="Path_5530" class="st5" d="M89.5-372.9H2.1c-2.3,0-4.1,1.9-4.1,4.1v49.2h92.4V-372C90.4-372.5,90-372.9,89.5-372.9z"/>
				<path id="Path_5531" class="st7" d="M92.4-372.9H1.8c-0.5,0-0.9,0.4-0.9,0.9v52.5h92.4V-372C93.3-372.5,92.9-372.9,92.4-372.9z"
					/>
				<rect id="Rectangle_3329" x="4.7" y="-369.1" class="st4" width="84.9" height="44.5"/>
				<g id="Group_2729" transform="translate(14.324 13.099)">
					<rect id="Rectangle_3330" x="-2" y="-372.9" class="st13" width="26.4" height="25.9"/>
					<rect id="Rectangle_3331" x="8.2" y="-366.6" class="st13" width="15.3" height="13.4"/>
					<rect id="Rectangle_3332" x="0.3" y="-366.6" class="st13" width="6.6" height="13.4"/>
					<rect id="Rectangle_3333" x="21.5" y="-372" class="st13" width="1.8" height="2.2"/>
					<rect id="Rectangle_3334" x="18.7" y="-372" class="st13" width="1.8" height="2.2"/>
					<rect id="Rectangle_3335" x="15.8" y="-372" class="st13" width="1.8" height="2.2"/>
					<rect id="Rectangle_3336" x="32.5" y="-372.9" class="st13" width="35.1" height="25.9"/>
					<rect id="Rectangle_3337" x="51.5" y="-366.6" class="st13" width="15.3" height="13.4"/>
					<rect id="Rectangle_3338" x="33.5" y="-366.6" class="st13" width="15.3" height="13.4"/>
					<rect id="Rectangle_3339" x="64.8" y="-372" class="st13" width="1.8" height="2.2"/>
					<rect id="Rectangle_3340" x="61.9" y="-372" class="st13" width="1.8" height="2.2"/>
					<rect id="Rectangle_3341" x="59.1" y="-372" class="st13" width="1.8" height="2.2"/>
				</g>
			</g>
			<path id="Path_5532" class="st5" d="M106.7-314.2H3.3c-2.9,0-5.3-2.4-5.3-5.3h114.1C112.1-316.6,109.7-314.2,106.7-314.2
				L106.7-314.2z"/>
			<path id="Path_5533" class="st5" d="M106.7-314.2H3.3c-2.9,0-5.3-2.4-5.3-5.3h114.1C112.1-316.6,109.7-314.2,106.7-314.2
				L106.7-314.2z"/>
			<path id="Path_5534" class="st5" d="M112.1-319.5H25.7c0,2.9,2.4,5.3,5.3,5.3h75.7C109.7-314.2,112.1-316.6,112.1-319.5
				C112.1-319.5,112.1-319.5,112.1-319.5L112.1-319.5z"/>
		</g>
		<g id="Group_2735" transform="translate(792.202 389.802)">
			<g id="Group_2732" transform="translate(0 5.326)">
				<path id="Path_5535" class="st5" d="M106.7-367.3H3.3c-2.9,0-5.3-2.4-5.3-5.3v0H112C112-369.7,109.7-367.3,106.7-367.3
					L106.7-367.3z"/>
				<path id="Path_5536" class="st5" d="M106.7-367.3H3.3c-2.9,0-5.3-2.4-5.3-5.3v0H112C112-369.7,109.7-367.3,106.7-367.3
					L106.7-367.3z"/>
				<path id="Path_5537" class="st5" d="M112-372.6H25.7c0,2.9,2.4,5.3,5.3,5.3l0,0h75.7C109.7-367.3,112-369.7,112-372.6L112-372.6
					z"/>
			</g>
			<g id="Group_2734">
				<g id="Group_2733">
					<path id="Path_5538" class="st7" d="M106.7-372.6H3.3c-2.9,0-5.3,2.4-5.3,5.3c0,0,0,0,0,0H112
						C112-370.3,109.7-372.6,106.7-372.6C106.7-372.6,106.7-372.6,106.7-372.6L106.7-372.6z"/>
					<path id="Path_5539" class="st5" d="M106.7-372.6H3.3c-2.9,0-5.3,2.4-5.3,5.3c0,0,0,0,0,0H112
						C112-370.3,109.7-372.6,106.7-372.6C106.7-372.6,106.7-372.6,106.7-372.6L106.7-372.6z"/>
					<path id="Path_5540" class="st7" d="M112-367.3H25.7c0-2.9,2.4-5.3,5.3-5.3h75.7C109.7-372.6,112-370.3,112-367.3
						C112-367.3,112-367.3,112-367.3z"/>
				</g>
			</g>
		</g>
		<g id="Group_2743" transform="translate(710.232 334.543)">
			<path id="Path_5580" class="st8" d="M23.2-372.4l-25.2,25.1v40.6h45v-65.7H23.2z"/>
			<path id="Path_5581" class="st5" d="M23.2-372.4l-25.2,25.1v40.6h45v-65.7H23.2z"/>
			<path id="Path_5582" class="st8" d="M31.2-372.4L6-347.3v40.6h45v-65.7H31.2z"/>
			<rect id="Rectangle_3349" x="-1.9" y="-347.3" class="st5" width="8" height="40.6"/>
			<path id="Path_5583" class="st6" d="M2.1-370v22.7h4L28.8-370H2.1z"/>
			<path id="Path_5584" class="st5" d="M27.2-370L5.3-348.1H2.1v0.8h4L28.8-370H27.2z"/>
			<rect id="Rectangle_3350" x="0.3" y="-335.6" class="st6" width="2.4" height="13.9"/>
			<rect id="Rectangle_3351" x="0.3" y="-335.6" class="st5" width="2.4" height="13.9"/>
		</g>
		<g id="Group_2744" transform="translate(738.803 334.543)">
			<path id="Path_5585" class="st4" d="M23.2-372.4L-2-347.3v40.6h45v-65.7H23.2z"/>
			<path id="Path_5586" class="st5" d="M23.2-372.4L-2-347.3v40.6h45v-65.7H23.2z"/>
			<path id="Path_5587" class="st4" d="M31.2-372.4L6-347.3v40.6h45v-65.7H31.2z"/>
			<rect id="Rectangle_3352" x="-2" y="-347.3" class="st5" width="8" height="40.6"/>
			<path id="Path_5588" class="st6" d="M2-370v22.7h4L28.7-370H2z"/>
			<path id="Path_5589" class="st5" d="M27.2-370L5.2-348.1H2v0.8h4L28.7-370H27.2z"/>
			<rect id="Rectangle_3353" x="0.3" y="-335.6" class="st6" width="2.4" height="13.9"/>
			<rect id="Rectangle_3354" x="0.3" y="-335.6" class="st5" width="2.4" height="13.9"/>
		</g>
		<g id="Group_2745" transform="translate(751.188 334.543)">
			<path id="Path_5590" class="st4" d="M23.2-372.4L-2-347.3v40.6h45v-65.7H23.2z"/>
			<path id="Path_5591" class="st5" d="M23.2-372.4L-2-347.3v40.6h45v-65.7H23.2z"/>
			<path id="Path_5592" class="st4" d="M31.1-372.4L6-347.3v40.6h45v-65.7H31.1z"/>
			<rect id="Rectangle_3355" x="-2" y="-347.3" class="st5" width="8" height="40.6"/>
			<path id="Path_5593" class="st6" d="M2-370v22.7h4L28.7-370H2z"/>
			<path id="Path_5594" class="st5" d="M27.2-370L5.2-348.1H2v0.8h4L28.7-370H27.2z"/>
			<rect id="Rectangle_3356" x="0.2" y="-335.6" class="st6" width="2.4" height="13.9"/>
			<rect id="Rectangle_3357" x="0.2" y="-335.6" class="st5" width="2.4" height="13.9"/>
		</g>
		<g id="Group_2746" transform="translate(742.802 486.221)">
			<path id="Rectangle_3358" class="st8" d="M-0.9-367.5h18.4v17.1c0,1.2-1,2.2-2.2,2.2c0,0,0,0,0,0H1.3c-1.2,0-2.2-1-2.2-2.2
				c0,0,0,0,0,0V-367.5z"/>
			<path id="Path_5595" class="st5" d="M16.2-367.5v5.2c0,7.1-5.7,12.8-12.8,12.8H1c-0.5,0-1-0.1-1.5-0.4c0.5,1,1.6,1.6,2.8,1.6
				h12.1c1.7,0,3.2-1.4,3.2-3.1c0,0,0,0,0,0v-16.1H16.2z"/>
			<path id="Rectangle_3359" class="st14" d="M-0.5-369.7h17.3c0.8,0,1.5,0.7,1.5,1.5v2.9H-2v-2.9C-2-369.1-1.3-369.7-0.5-369.7
				C-0.5-369.7-0.5-369.7-0.5-369.7z"/>
			<path id="Rectangle_3360" class="st14" d="M1.6-373h13c0.6,0,1.1,0.5,1.1,1.1c0,0,0,0,0,0v2.2H0.5v-2.2C0.5-372.5,1-373,1.6-373
				C1.6-373,1.6-373,1.6-373z"/>
			<rect id="Rectangle_3361" x="-0.9" y="-365.4" class="st5" width="18.4" height="0.5"/>
			<rect id="Rectangle_3362" x="0.6" y="-370.2" class="st5" width="15.2" height="0.5"/>
		</g>
	</g>
	<g id="Group_2825" transform="translate(825.931 442.564)">
		<g id="Group_2817" transform="translate(640.334 356.839)">
			<path id="Path_5627" class="st15" d="M0.6-197.7c0.4-14.6,0.4-29.1,0-43.7c-0.4-14.6-1.1-29.1-1.8-43.7
				c-0.6-14.6-0.9-29.3-0.4-43.9c0.5-14.6,1.8-29.2,3.6-43.8l2.7,0.3c-1.6,14.5-2.8,29-3.1,43.5c-0.4,14.5,0,29.1,0.8,43.6
				c0.8,14.6,1.7,29.1,2.2,43.8c0.5,14.6,0.6,29.3,0.4,43.9L0.6-197.7z"/>
			<g id="Group_2816" transform="translate(0.03 21.783)">
				<path id="Path_5628" class="st16" d="M1.5-344.1l-3.1-1.2c-0.1,3.2-0.1,6.4-0.1,9.6l3.2-2C1.4-339.8,1.4-341.9,1.5-344.1z"/>
				<path id="Path_5629" class="st16" d="M1.6-325.5l-3.3,0.2c0,0.6,0,1.1,0,1.7l3.4,2.3C1.7-322.7,1.6-324.1,1.6-325.5z"/>
				<path id="Path_5630" class="st16" d="M2.3-307.1c-0.1-1.3-0.1-2.7-0.2-4l-3.4,2.2c0,0.7,0.3,7.3,0.4,9.9l3.5-2
					C2.6-303,2.5-305,2.3-307.1z"/>
				<path id="Path_5631" class="st16" d="M-1.4-353.7l3,1.4c0.1-2.4,0.2-4.9,0.3-7.3l-3,0.4C-1.3-357.5-1.3-355.6-1.4-353.7z"/>
				<path id="Path_5632" class="st16" d="M-0.5-292.3c0.1,1.3,0.1,2.6,0.2,3.9l3.7-0.5c-0.1-2-0.2-4-0.3-6.1l-3.2,2.1L-0.5-292.3z"
					/>
				<path id="Path_5633" class="st16" d="M-0.7-367l2.9,0.5c0.1-2.1,0.2-4.3,0.4-6.4h-2.9C-0.4-370.9-0.5-368.9-0.7-367z"/>
				<path id="Path_5634" class="st16" d="M4.9-219.4C5-224.1,5-228.8,5-233.5l-4.2,0.8c0,3.9-0.1,7.8-0.2,11.8l3.5,1.5L4.9-219.4z"
					/>
				<path id="Path_5635" class="st16" d="M4.7-259l-3.9,5c0,3,0.1,5.9,0.1,8.9l4.1-0.7C4.9-250.2,4.8-254.6,4.7-259z"/>
				<path id="Path_5636" class="st16" d="M4.1-272.9c-0.1-2.7-0.3-5.4-0.4-8.1l-3.6,5.6c0.1,2.5,0.2,5,0.2,7.5L4.1-272.9z"/>
			</g>
		</g>
		<g id="Group_2821" transform="translate(633.055 423.922)">
			<path id="Path_5637" class="st17" d="M15.4-349.7c-2.3,6.7-3.8,13.7-4.5,20.8c-0.7,7.1-0.8,14.2-0.2,21.3
				c0.6,7.1,1.6,14.2,2.6,21.3c0.5,3.6,1,7.1,1.3,10.8c0.4,3.8,0.3,7.6-0.4,11.4l-4.7-1.2c1.7-6.2,0.9-13.6,0.3-20.6
				c-0.7-7.1-1.3-14.3-1.5-21.5c-0.3-7.2,0-14.5,0.9-21.6c0.9-7.2,2.6-14.2,5-21.1L15.4-349.7z"/>
			<g id="Group_2820">
				<g id="Group_2818" transform="translate(4.874 3.212)">
					<path id="Path_5638" class="st18" d="M16.3-351.6l0.6-0.5l0.4,0.2l-0.2,0.7c0.2,0.1,0.5,0.2,0.7,0.3l1.1-0.2v0.7
						c0.2,0.1,0.3,0.1,0.5,0.2c0.1,0,0.2,0.1,0.3,0.1l0.7-0.2l-0.2,0.4l0.3,0.1l0.6-0.4l-0.2,0.6l0.6,0.2l0.6-0.4l-0.2,0.5
						c0.2,0.1,0.5,0.2,0.7,0.2l0.2-0.2l0.4,0.1l0,0.2c1.7,0.5,3.5,0.9,5.3,1.1c-1.2-0.9-2.5-1.7-3.8-2.4l-0.6,0.6l0.2-0.9l-0.5-0.3
						l-0.6,0.4l0.2-0.6c-0.3-0.2-0.6-0.3-0.9-0.5l-0.5,0.5c0,0,0-0.5-0.1-0.8c-0.1,0-0.2-0.1-0.3-0.1c-0.2,0.2-0.5,0.4-0.5,0.4
						l-0.1-0.6c-0.1-0.1-0.3-0.1-0.5-0.2l-0.5,0.4l0.1-0.5l-0.1,0c-2.9-1.2-6-2-9.1-2.4C11.2-354.6,13.7-353,16.3-351.6z"/>
					<path id="Path_5639" class="st18" d="M17.1-353.1l0.4-0.6l0.5,0l0,0.7c0.3,0,0.5,0.1,0.8,0.1l1-0.6l0.2,0.7
						c0.2,0,0.4,0,0.6,0.1c0.1,0,0.2,0,0.3,0l0.6-0.4l0,0.4l0.4,0l0.5-0.6l0,0.6c0.2,0,0.4,0,0.6,0l0.4-0.6l0,0.6H24l0.2-0.3l0.4,0
						l0.1,0.2c1.8,0,3.6-0.2,5.4-0.5c-1.4-0.5-2.9-0.8-4.3-1.1l-0.4,0.8l-0.1-0.9c-0.2,0-0.4-0.1-0.5-0.1l-0.4,0.6l0-0.7
						c-0.3-0.1-0.7-0.1-1-0.2l-0.3,0.6c0,0-0.2-0.4-0.3-0.7l-0.3,0c-0.2,0.2-0.4,0.5-0.4,0.5l-0.3-0.6c-0.2,0-0.3,0-0.5,0l-0.3,0.5
						l0-0.6l-0.1,0c-3.1-0.2-6.3-0.1-9.4,0.4C11.4-354.5,14.3-353.7,17.1-353.1z"/>
					<path id="Path_5640" class="st18" d="M17.3-354.9l0.2-0.7l0.5-0.1l0.3,0.7c0.3,0,0.5-0.1,0.8-0.1l0.8-0.8l0.4,0.6
						c0.2,0,0.4-0.1,0.6-0.1c0.1,0,0.2-0.1,0.3-0.1l0.4-0.6l0.1,0.4c0.1,0,0.2-0.1,0.3-0.1l0.3-0.7l0.1,0.6c0.2-0.1,0.4-0.1,0.6-0.2
						l0.2-0.7l0.1,0.6c0.2-0.1,0.5-0.2,0.7-0.2l0.1-0.3l0.4-0.1l0.1,0.2c1.7-0.6,3.4-1.3,5-2.1c-1.5,0-3,0.1-4.5,0.2l-0.2,0.9
						l-0.4-0.8c-0.2,0-0.4,0-0.5,0.1l-0.2,0.7l-0.1-0.6c-0.3,0-0.7,0.1-1,0.2l-0.1,0.7c0,0-0.3-0.3-0.5-0.6c-0.1,0-0.2,0-0.3,0.1
						c-0.1,0.3-0.2,0.6-0.2,0.6l-0.4-0.5c-0.2,0-0.3,0.1-0.5,0.1l-0.2,0.6l-0.2-0.5l-0.1,0c-3.1,0.7-6.1,1.8-8.9,3.2
						C11.4-354.5,14.4-354.6,17.3-354.9z"/>
					<path id="Path_5641" class="st18" d="M16.9-356.6l0-0.8l0.4-0.2l0.5,0.6c0.2-0.1,0.5-0.2,0.7-0.4l0.5-1l0.6,0.4
						c0.2-0.1,0.3-0.2,0.5-0.3c0.1-0.1,0.2-0.1,0.3-0.2l0.2-0.7l0.2,0.4l0.3-0.2l0-0.8l0.3,0.6c0.2-0.1,0.3-0.2,0.5-0.3v-0.7
						l0.3,0.5c0.2-0.1,0.4-0.3,0.6-0.4l0-0.3l0.4-0.2l0.2,0.1c1.5-1.1,2.9-2.2,4.2-3.5c-1.4,0.4-2.8,0.9-4.2,1.5l0.1,0.9l-0.6-0.7
						c-0.2,0.1-0.3,0.1-0.5,0.2v0.7l-0.3-0.6c-0.3,0.1-0.6,0.3-0.9,0.5l0.1,0.7c0,0-0.4-0.2-0.7-0.4c-0.1,0-0.2,0.1-0.3,0.1v0.6
						l-0.5-0.3c-0.1,0.1-0.3,0.2-0.4,0.2l0,0.6l-0.3-0.4l-0.1,0c-2.7,1.6-5.2,3.5-7.5,5.7C11.4-354.5,14.2-355.4,16.9-356.6z"/>
					<path id="Path_5642" class="st18" d="M16-358.2l-0.2-0.7l0.3-0.3l0.6,0.4c0.2-0.2,0.4-0.4,0.6-0.6l0.2-1.1l0.7,0.3
						c0.1-0.1,0.3-0.3,0.4-0.4c0.1-0.1,0.1-0.2,0.2-0.2l0-0.7l0.3,0.3c0.1-0.1,0.2-0.2,0.2-0.3l-0.2-0.8l0.5,0.4
						c0.1-0.2,0.3-0.3,0.4-0.5l-0.2-0.7l0.4,0.4c0.2-0.2,0.3-0.4,0.5-0.6l-0.1-0.3l0.3-0.3l0.2,0.1c1.1-1.4,2.1-3,2.9-4.6
						c-1.2,0.8-2.4,1.7-3.5,2.7l0.3,0.8l-0.8-0.4l-0.4,0.4l0.2,0.7l-0.5-0.4c-0.2,0.2-0.5,0.5-0.8,0.7l0.3,0.6c0,0-0.4-0.1-0.8-0.2
						c-0.1,0.1-0.1,0.1-0.2,0.2c0.1,0.3,0.2,0.6,0.2,0.6l-0.6-0.2c-0.1,0.1-0.2,0.2-0.3,0.4l0.2,0.6l-0.5-0.3l-0.1,0.1
						c-2.1,2.3-4,4.9-5.5,7.7C11.4-354.5,13.8-356.2,16-358.2z"/>
					<path id="Path_5643" class="st18" d="M14.7-359.4l-0.4-0.6l0.2-0.4l0.7,0.2c0.1-0.2,0.3-0.5,0.4-0.7l-0.2-1.1l0.7,0
						c0.1-0.2,0.2-0.3,0.2-0.5c0-0.1,0.1-0.2,0.1-0.3l-0.2-0.7l0.4,0.2l0.1-0.3l-0.4-0.7L17-364c0.1-0.2,0.2-0.4,0.2-0.6l-0.4-0.6
						l0.5,0.2c0.1-0.2,0.2-0.5,0.3-0.7l-0.2-0.2l0.2-0.4h0.2c0.6-1.7,1.1-3.4,1.4-5.2c-0.9,1.2-1.8,2.4-2.6,3.6l0.6,0.7l-0.9-0.2
						c-0.1,0.2-0.2,0.3-0.3,0.5l0.4,0.6l-0.6-0.3c-0.2,0.3-0.3,0.6-0.5,0.9l0.5,0.5c0,0-0.5,0-0.8,0c0,0.1-0.1,0.2-0.1,0.3
						c0.2,0.2,0.4,0.5,0.4,0.5l-0.6,0c-0.1,0.1-0.1,0.3-0.2,0.4l0.4,0.5l-0.5-0.2l0,0.1c-1.3,2.9-2.3,5.9-2.9,9
						C11.4-354.5,13.2-356.9,14.7-359.4z"/>
					<path id="Path_5644" class="st18" d="M13.1-360.1l-0.6-0.5l0.1-0.5l0.7,0c0.1-0.3,0.1-0.5,0.2-0.8l-0.5-1l0.7-0.2
						c0-0.2,0.1-0.4,0.1-0.6c0-0.1,0-0.2,0-0.3l-0.4-0.6l0.4,0.1c0-0.1,0-0.2,0-0.3l-0.6-0.5l0.6,0.1c0-0.2,0-0.4,0-0.6l-0.6-0.4
						l0.6,0.1c0-0.3,0-0.5,0-0.8l-0.3-0.2l0.1-0.4l0.2-0.1c0.1-1.8,0-3.6-0.2-5.4c-0.5,1.4-1,2.8-1.4,4.2l0.7,0.5l-0.9,0.1
						c0,0.2-0.1,0.4-0.1,0.5l0.6,0.5l-0.7-0.1c-0.1,0.3-0.1,0.7-0.2,1l0.6,0.3c0,0-0.4,0.2-0.7,0.3c0,0.1,0,0.2,0,0.3
						c0.2,0.2,0.5,0.4,0.5,0.4l-0.6,0.2c0,0.2,0,0.3-0.1,0.5L12-364l-0.6,0l0,0.1c-0.4,3.1-0.4,6.3-0.1,9.4
						C11.4-354.5,12.4-357.3,13.1-360.1z"/>
					<path id="Path_5645" class="st18" d="M11.3-360.4l-0.7-0.3l-0.1-0.5l0.7-0.2c0-0.3-0.1-0.5-0.1-0.8l-0.8-0.8l0.6-0.4
						c0-0.2-0.1-0.4-0.1-0.6c0-0.1,0-0.2-0.1-0.3l-0.5-0.4l0.4-0.1c0-0.1,0-0.2-0.1-0.3l-0.7-0.3l0.6-0.1c0-0.2-0.1-0.4-0.1-0.6
						l-0.7-0.3l0.6-0.1c-0.1-0.3-0.1-0.5-0.2-0.7l-0.3-0.1l-0.1-0.4l0.2-0.1c-0.5-1.7-1.1-3.4-1.8-5.1c-0.1,1.5-0.1,3,0,4.5l0.8,0.2
						l-0.8,0.3c0,0.2,0,0.4,0,0.5l0.7,0.3L8.2-367c0,0.3,0.1,0.7,0.1,1l0.7,0.1c0,0-0.4,0.3-0.6,0.5c0,0.1,0,0.2,0,0.3
						c0.3,0.1,0.6,0.2,0.6,0.2l-0.5,0.4c0,0.2,0.1,0.3,0.1,0.5l0.6,0.2l-0.5,0.2l0,0.1c0.6,3.1,1.5,6.1,2.7,9
						C11.4-354.5,11.5-357.5,11.3-360.4z"/>
					<path id="Path_5646" class="st18" d="M9.5-360.1l-0.8,0l-0.2-0.4l0.6-0.4c-0.1-0.2-0.2-0.5-0.3-0.7l-1-0.6l0.5-0.5
						c-0.1-0.2-0.2-0.3-0.3-0.5c-0.1-0.1-0.1-0.2-0.2-0.3l-0.6-0.3l0.4-0.2c-0.1-0.1-0.1-0.2-0.2-0.3l-0.8-0.1l0.6-0.3
						c-0.1-0.2-0.2-0.4-0.3-0.5l-0.7,0l0.5-0.3c-0.1-0.2-0.3-0.4-0.4-0.7H6.1l-0.2-0.4l0.1-0.2c-1-1.5-2.1-3-3.3-4.3
						c0.3,1.4,0.8,2.9,1.3,4.3l0.9,0l-0.7,0.6c0.1,0.2,0.1,0.3,0.2,0.5l0.7,0l-0.6,0.3c0.1,0.3,0.3,0.6,0.4,1l0.7-0.1
						c0,0-0.3,0.4-0.5,0.6c0,0.1,0.1,0.2,0.1,0.3c0.3,0,0.6,0,0.6,0l-0.4,0.5c0.1,0.1,0.1,0.3,0.2,0.4h0.6L6-362.4l0,0.1
						c1.5,2.8,3.2,5.4,5.3,7.8C11.4-354.5,10.6-357.4,9.5-360.1z"/>
					<path id="Path_5647" class="st18" d="M7.9-359.3l-0.7,0.2l-0.3-0.3l0.5-0.6c-0.2-0.2-0.4-0.4-0.5-0.6l-1.1-0.2l0.3-0.7
						c-0.1-0.1-0.3-0.3-0.4-0.4c-0.1-0.1-0.2-0.2-0.2-0.2l-0.7-0.1l0.3-0.3c-0.1-0.1-0.2-0.2-0.3-0.2l-0.8,0.2l0.5-0.5
						c-0.2-0.1-0.3-0.3-0.5-0.4l-0.7,0.2l0.4-0.4c-0.2-0.2-0.4-0.3-0.6-0.5l-0.3,0.1l-0.3-0.3l0.1-0.2c-1.4-1.2-2.9-2.2-4.4-3.2
						c0.8,1.3,1.6,2.5,2.5,3.7l0.8-0.3L1-363.7c0.1,0.1,0.2,0.3,0.3,0.4l0.7-0.2L1.6-363c0.2,0.3,0.4,0.5,0.7,0.8l0.6-0.3
						c0,0-0.1,0.4-0.2,0.7c0.1,0.1,0.1,0.1,0.2,0.2c0.3-0.1,0.6-0.2,0.6-0.2L3.3-361c0.1,0.1,0.2,0.2,0.3,0.4l0.6-0.2l-0.3,0.4
						l0.1,0.1c2.2,2.2,4.7,4.2,7.4,5.9C11.4-354.5,9.7-357,7.9-359.3z"/>
				</g>
				<g id="Group_2819">
					<path id="Path_5648" class="st19" d="M20.6-345.7l0.8-0.6l0.5,0.2l-0.3,0.9c0.3,0.2,0.6,0.3,0.9,0.5l1.4-0.3l0,0.9
						c0.2,0.1,0.4,0.2,0.7,0.3c0.1,0.1,0.3,0.1,0.4,0.2l0.8-0.3l-0.2,0.5l0.4,0.2l0.8-0.5l-0.3,0.7c0.2,0.1,0.5,0.2,0.7,0.3l0.7-0.5
						l-0.3,0.7c0.3,0.1,0.6,0.2,0.9,0.3l0.3-0.3l0.5,0.2v0.3c2.2,0.7,4.4,1.2,6.7,1.6c-1.5-1.1-3.1-2.2-4.7-3.1l-0.8,0.7l0.2-1.1
						c-0.2-0.1-0.4-0.2-0.6-0.3l-0.8,0.5l0.3-0.8c-0.4-0.2-0.8-0.4-1.2-0.6l-0.6,0.6c0,0,0-0.6-0.1-1c-0.1-0.1-0.2-0.1-0.3-0.2
						c-0.3,0.2-0.6,0.5-0.6,0.5l-0.1-0.8c-0.2-0.1-0.4-0.2-0.6-0.3l-0.6,0.5l0.2-0.7c0,0-0.1,0-0.1,0c-3.7-1.6-7.5-2.7-11.5-3.4
						C14.3-349.7,17.4-347.5,20.6-345.7z"/>
					<path id="Path_5649" class="st20" d="M21.8-347.5l0.6-0.8l0.6,0.1l0,1c0.3,0.1,0.7,0.1,1,0.2l1.3-0.7l0.3,0.9
						c0.2,0,0.5,0.1,0.7,0.1l0.4,0l0.7-0.5l-0.1,0.6l0.4,0l0.6-0.8l-0.1,0.8c0.3,0,0.5,0,0.8,0l0.5-0.7l-0.1,0.7c0.3,0,0.7,0,1,0
						l0.2-0.3l0.5,0.1l0.1,0.3c2.3,0,4.6-0.1,6.9-0.4c-1.8-0.6-3.6-1.2-5.5-1.6l-0.6,1l-0.1-1.1c-0.2,0-0.5-0.1-0.7-0.1l-0.6,0.7
						l0.1-0.8c-0.4-0.1-0.9-0.2-1.3-0.2l-0.4,0.8c0,0-0.2-0.5-0.4-0.9c-0.1,0-0.2,0-0.4-0.1c-0.2,0.3-0.5,0.6-0.5,0.6l-0.3-0.8
						c-0.2,0-0.4,0-0.6-0.1l-0.4,0.7l0-0.7l-0.1,0c-4-0.4-8-0.3-12,0.2C14.5-349.5,18.1-348.3,21.8-347.5z"/>
					<path id="Path_5650" class="st20" d="M22-349.8l0.3-0.9l0.6-0.1l0.3,0.9c0.3,0,0.7-0.1,1-0.1l1-1l0.5,0.8
						c0.2,0,0.5-0.1,0.7-0.1c0.1,0,0.3-0.1,0.4-0.1l0.5-0.7l0.1,0.6l0.4-0.1l0.4-0.9l0.2,0.8c0.3-0.1,0.5-0.1,0.7-0.2l0.3-0.8
						l0.1,0.7c0.3-0.1,0.6-0.2,0.9-0.3l0.1-0.4l0.5-0.1l0.2,0.2c2.2-0.7,4.4-1.5,6.4-2.5c-1.9-0.1-3.8,0-5.7,0.1l-0.3,1.1l-0.4-1
						c-0.2,0-0.5,0-0.7,0.1l-0.3,0.9l-0.2-0.8c-0.4,0-0.9,0.1-1.3,0.2l-0.1,0.9c0,0-0.4-0.5-0.6-0.8c-0.1,0-0.2,0-0.4,0.1
						c-0.1,0.3-0.3,0.8-0.3,0.8l-0.5-0.6c-0.2,0-0.4,0.1-0.6,0.1l-0.2,0.7l-0.2-0.7c0,0-0.1,0-0.1,0c-3.9,0.8-7.7,2.1-11.4,3.8
						C14.5-349.5,18.3-349.5,22-349.8z"/>
					<path id="Path_5651" class="st19" d="M21.6-352v-1l0.5-0.3l0.6,0.8c0.3-0.1,0.6-0.3,0.9-0.4l0.7-1.3l0.7,0.6
						c0.2-0.1,0.4-0.2,0.6-0.3c0.1-0.1,0.2-0.1,0.4-0.2l0.3-0.8l0.3,0.5c0.1-0.1,0.3-0.2,0.4-0.2l0.1-1l0.4,0.7
						c0.2-0.1,0.4-0.3,0.7-0.4l0-0.9l0.4,0.7c0.3-0.2,0.5-0.4,0.8-0.5l0-0.4l0.5-0.3l0.2,0.2c1.9-1.3,3.7-2.7,5.4-4.3
						c-1.8,0.5-3.6,1.1-5.4,1.8l0.1,1.1l-0.7-0.8c-0.2,0.1-0.4,0.2-0.6,0.3l0,0.9l-0.4-0.7c-0.4,0.2-0.8,0.4-1.2,0.5l0.1,0.9
						c0,0-0.5-0.3-0.8-0.6c-0.1,0.1-0.2,0.1-0.3,0.2c0,0.3,0,0.8,0,0.8l-0.7-0.4c-0.2,0.1-0.4,0.2-0.6,0.3l0,0.8l-0.4-0.6l-0.1,0.1
						c-3.5,1.9-6.8,4.3-9.7,7C14.5-349.5,18.2-350.6,21.6-352z"/>
					<path id="Path_5652" class="st20" d="M20.5-354l-0.3-0.9l0.4-0.4l0.8,0.6c0.2-0.2,0.5-0.5,0.8-0.7l0.3-1.4l0.9,0.3
						c0.2-0.2,0.3-0.3,0.5-0.5c0.1-0.1,0.2-0.2,0.3-0.3l0-0.9l0.4,0.4l0.3-0.3l-0.2-1l0.6,0.6c0.2-0.2,0.3-0.4,0.5-0.6l-0.2-0.9
						l0.5,0.5c0.2-0.3,0.4-0.5,0.6-0.8l-0.1-0.4l0.4-0.4l0.3,0.1c1.4-1.8,2.7-3.7,3.9-5.7c-1.6,1-3.1,2.1-4.6,3.3l0.4,1l-0.9-0.6
						c-0.2,0.1-0.4,0.3-0.5,0.5l0.2,0.9l-0.6-0.6c-0.3,0.3-0.7,0.6-1,0.9l0.4,0.8c0,0-0.6-0.2-1-0.3l-0.3,0.3
						c0.1,0.3,0.2,0.8,0.2,0.8l-0.8-0.2c-0.1,0.1-0.3,0.3-0.4,0.4l0.3,0.7l-0.6-0.4c0,0-0.1,0.1-0.1,0.1c-2.8,2.9-5.2,6.1-7.2,9.6
						C14.5-349.5,17.7-351.7,20.5-354z"/>
					<path id="Path_5653" class="st20" d="M18.9-355.6l-0.5-0.8l0.3-0.5l0.9,0.3c0.2-0.3,0.3-0.6,0.5-0.9l-0.2-1.4l0.9,0.1
						c0.1-0.2,0.2-0.4,0.3-0.6c0.1-0.1,0.1-0.3,0.2-0.4l-0.2-0.9l0.5,0.3c0.1-0.1,0.1-0.3,0.2-0.4l-0.5-0.9l0.7,0.4
						c0.1-0.2,0.2-0.5,0.3-0.7l-0.5-0.8l0.7,0.3c0.1-0.3,0.2-0.6,0.4-0.9l-0.2-0.3l0.2-0.5l0.3,0c0.8-2.1,1.5-4.3,2-6.6
						c-1.2,1.4-2.3,3-3.4,4.5l0.7,0.9l-1.1-0.3c-0.1,0.2-0.2,0.4-0.4,0.6l0.5,0.8l-0.8-0.4c-0.2,0.4-0.5,0.7-0.7,1.1l0.6,0.7
						c0,0-0.6,0-1,0c-0.1,0.1-0.1,0.2-0.2,0.3c0.2,0.3,0.4,0.7,0.4,0.7l-0.8,0c-0.1,0.2-0.2,0.4-0.3,0.6l0.5,0.6l-0.7-0.2
						c0,0,0,0.1-0.1,0.1c-1.8,3.6-3.1,7.4-4,11.3C14.5-349.5,16.9-352.5,18.9-355.6z"/>
					<path id="Path_5654" class="st19" d="M16.8-356.6l-0.8-0.6l0.1-0.6l1,0c0.1-0.3,0.1-0.7,0.2-1l-0.6-1.3l0.9-0.2
						c0-0.2,0.1-0.5,0.1-0.7c0-0.1,0-0.3,0.1-0.4l-0.5-0.7l0.6,0.1c0-0.1,0-0.3,0.1-0.4l-0.7-0.7l0.8,0.1c0-0.3,0.1-0.5,0.1-0.8
						l-0.7-0.6l0.7,0.1c0-0.3,0.1-0.7,0.1-1l-0.3-0.2L18-366l0.3-0.1c0.1-2.3,0.1-4.6-0.1-6.9c-0.7,1.7-1.4,3.5-1.9,5.4l0.9,0.6
						l-1.1,0.1c-0.1,0.2-0.1,0.4-0.2,0.7l0.7,0.6l-0.8-0.1c-0.1,0.4-0.2,0.8-0.3,1.3l0.8,0.4c0,0-0.6,0.2-0.9,0.3
						c0,0.1,0,0.2-0.1,0.4c0.3,0.2,0.6,0.5,0.6,0.5l-0.8,0.3c0,0.2-0.1,0.4-0.1,0.6l0.6,0.5l-0.7,0c0,0,0,0.1,0,0.1
						c-0.6,4-0.8,8-0.5,12C14.5-349.5,15.9-353.1,16.8-356.6z"/>
					<path id="Path_5655" class="st20" d="M14.6-357l-0.9-0.3l-0.1-0.6l0.9-0.3c0-0.3-0.1-0.7-0.1-1l-1-1.1l0.8-0.5
						c0-0.2-0.1-0.5-0.1-0.7c0-0.1,0-0.3-0.1-0.4l-0.7-0.6l0.6-0.1c0-0.1-0.1-0.3-0.1-0.4l-0.9-0.4l0.8-0.1c0-0.3-0.1-0.5-0.2-0.8
						l-0.8-0.3l0.7-0.1c-0.1-0.3-0.1-0.6-0.2-0.9l-0.4-0.1l-0.1-0.5l0.3-0.2c-0.6-2.2-1.3-4.4-2.1-6.5c-0.2,1.9-0.2,3.8-0.2,5.7
						l1.1,0.3l-1,0.4c0,0.2,0,0.5,0,0.7l0.9,0.4l-0.8,0.1c0,0.4,0.1,0.9,0.1,1.3l0.9,0.2c0,0-0.5,0.3-0.8,0.6c0,0.1,0,0.2,0,0.4
						c0.3,0.1,0.7,0.3,0.7,0.3l-0.7,0.5c0,0.2,0.1,0.4,0.1,0.6l0.7,0.2l-0.7,0.2c0,0,0,0.1,0,0.1c0.6,4,1.7,7.8,3.1,11.6
						C14.5-349.5,14.7-353.3,14.6-357z"/>
					<path id="Path_5656" class="st19" d="M12.3-356.7l-1-0.1l-0.3-0.5l0.8-0.5c-0.1-0.3-0.3-0.6-0.4-0.9l-1.3-0.7l0.6-0.7
						c-0.1-0.2-0.2-0.4-0.3-0.7c-0.1-0.1-0.1-0.2-0.2-0.4l-0.8-0.3l0.5-0.2l-0.2-0.4l-1-0.1l0.7-0.4c-0.1-0.2-0.2-0.5-0.4-0.7
						l-0.9-0.1l0.7-0.3c-0.2-0.3-0.3-0.6-0.5-0.8l-0.4,0l-0.2-0.5l0.2-0.2c-1.2-2-2.5-3.8-4-5.6c0.4,1.8,0.9,3.7,1.5,5.5l1.1,0
						l-0.9,0.7c0.1,0.2,0.2,0.4,0.2,0.7L7-364l-0.8,0.4c0.2,0.4,0.3,0.8,0.5,1.2l0.9-0.1c0,0-0.3,0.5-0.6,0.8c0,0.1,0.1,0.2,0.1,0.3
						c0.3,0,0.8,0.1,0.8,0.1l-0.5,0.7c0.1,0.2,0.2,0.4,0.3,0.6l0.8,0L8-359.7l0.1,0.1c1.8,3.6,3.9,7,6.5,10.1
						C14.5-349.5,13.6-353.2,12.3-356.7z"/>
					<path id="Path_5657" class="st20" d="M10.3-355.7l-0.9,0.2L9-355.9l0.6-0.7c-0.2-0.3-0.4-0.5-0.7-0.8l-1.4-0.3l0.4-0.8
						c-0.2-0.2-0.3-0.4-0.5-0.5c-0.1-0.1-0.2-0.2-0.3-0.3l-0.9-0.1l0.4-0.4c-0.1-0.1-0.2-0.2-0.3-0.3l-1,0.2l0.6-0.6
						c-0.2-0.2-0.4-0.4-0.6-0.5L4.5-361l0.5-0.5c-0.2-0.2-0.5-0.4-0.7-0.7L3.9-362l-0.4-0.4l0.1-0.3c-1.7-1.5-3.6-2.9-5.5-4.2
						c0.9,1.6,2,3.2,3.1,4.8l1.1-0.3l-0.6,0.9c0.1,0.2,0.3,0.4,0.4,0.6l0.9-0.2l-0.6,0.6c0.3,0.3,0.5,0.7,0.8,1l0.8-0.3
						c0,0-0.2,0.6-0.3,0.9c0.1,0.1,0.2,0.2,0.2,0.3c0.3-0.1,0.8-0.2,0.8-0.2l-0.3,0.8c0.1,0.2,0.3,0.3,0.4,0.5l0.7-0.2l-0.4,0.5
						l0.1,0.1c2.8,2.9,5.8,5.5,9.2,7.7C14.5-349.5,12.5-352.7,10.3-355.7z"/>
				</g>
			</g>
		</g>
		<path id="Path_5658" class="st21" d="M669.9,155.2h-49.1l6.8,24.4h35.6L669.9,155.2z"/>
		<g id="Group_2824" transform="translate(573.052 300.898)">
			<g id="Group_2822" transform="translate(14.976 7.609)">
				<path id="Path_5659" class="st18" d="M69.3-321.4l0.3-2.2l1.3-0.5l1,1.9c0.7-0.2,1.5-0.5,2.3-0.7l1.9-2.7l1.4,1.6
					c0.5-0.2,1-0.4,1.6-0.6c0.3-0.1,0.6-0.2,0.9-0.4l1-1.8l0.5,1.2c0.3-0.1,0.6-0.3,0.9-0.4l0.5-2.2l0.7,1.7
					c0.6-0.2,1.1-0.5,1.6-0.7l0.4-2l0.6,1.6c0.7-0.3,1.4-0.6,2-1l0.1-0.9l1.1-0.4l0.5,0.5c4.7-2.4,9.3-5.1,13.7-8.1
					c-4.3,0.6-8.6,1.4-12.8,2.4l-0.2,2.6l-1.4-2.2c-0.5,0.1-1,0.3-1.6,0.4l-0.4,2.1l-0.7-1.8c-1,0.3-1.9,0.6-2.9,0.9v2.1
					c0,0-1-0.9-1.7-1.5c-0.3,0.1-0.5,0.2-0.8,0.3c-0.1,0.8-0.3,1.8-0.3,1.8l-1.4-1.2c-0.4,0.2-0.9,0.3-1.4,0.5l-0.2,1.8l-0.8-1.4
					c-0.1,0-0.2,0.1-0.3,0.1c-14.1,5.4-22.9,26.1-22.9,26.1S61-319.3,69.3-321.4z"/>
				<path id="Path_5660" class="st18" d="M68.2-326.3l-0.3-2.2l1.1-0.8l1.6,1.5c0.6-0.4,1.3-0.9,1.9-1.4l1-3.2l1.8,1.1
					c0.4-0.3,0.9-0.7,1.3-1c0.3-0.2,0.5-0.4,0.7-0.6l0.4-2l0.8,1c0.3-0.2,0.5-0.4,0.8-0.7l-0.2-2.3l1.2,1.5c0.5-0.4,0.9-0.8,1.3-1.2
					l-0.3-2.1l1.1,1.3c0.6-0.5,1.1-1,1.6-1.5l-0.2-0.9l0.9-0.7l0.6,0.3c3.8-3.7,7.4-7.6,10.6-11.8c-4,1.8-7.8,3.9-11.5,6.1l0.6,2.5
					l-2-1.6c-0.4,0.3-0.9,0.6-1.4,0.9l0.3,2.1l-1.2-1.5c-0.8,0.5-1.7,1.1-2.5,1.7l0.6,2c0,0-1.2-0.5-2.1-0.9
					c-0.2,0.2-0.5,0.3-0.7,0.5c0.1,0.8,0.3,1.8,0.3,1.8l-1.7-0.8c-0.4,0.3-0.8,0.6-1.1,0.9l0.3,1.8l-1.2-1.1
					c-0.1,0.1-0.1,0.1-0.2,0.2c-11.9,9.4-18,32.8-18,32.8S60.9-321.8,68.2-326.3z"/>
				<path id="Path_5661" class="st18" d="M64.9-330.4l-1-2l0.8-1.1l2,1c0.5-0.6,1-1.2,1.4-1.9l0-3.3l2.1,0.5c0.3-0.5,0.6-0.9,1-1.4
					c0.2-0.3,0.4-0.5,0.5-0.8l-0.2-2l1.1,0.7c0.2-0.3,0.4-0.6,0.6-0.9l-0.9-2.1l1.6,1.1c0.3-0.5,0.6-1,0.9-1.5l-0.9-1.9l1.4,1
					c0.4-0.7,0.8-1.3,1.1-1.9l-0.4-0.8l0.7-1l0.7,0.1c2.5-4.6,4.8-9.4,6.6-14.4c-3.2,2.9-6.3,6-9.2,9.3l1.3,2.2l-2.4-1
					c-0.3,0.4-0.7,0.8-1,1.2l0.9,1.9l-1.6-1.1c-0.6,0.8-1.3,1.6-1.9,2.4l1.2,1.7c0,0-1.3-0.1-2.3-0.3c-0.2,0.2-0.3,0.5-0.5,0.7
					c0.3,0.7,0.8,1.6,0.8,1.6l-1.9-0.2c-0.3,0.4-0.6,0.8-0.8,1.2l0.9,1.6l-1.5-0.7c-0.1,0.1-0.1,0.2-0.2,0.2
					c-8.5,12.5-11.2,37.7-11.2,37.7S59.3-324,64.9-330.4z"/>
				<path id="Path_5662" class="st18" d="M60.6-333.4l-1.5-1.6l0.4-1.3l2.2,0.4c0.3-0.7,0.5-1.5,0.8-2.2l-1-3.2l2.1-0.2
					c0.2-0.5,0.3-1.1,0.5-1.6c0.1-0.3,0.2-0.6,0.3-0.9l-0.8-1.9l1.3,0.4c0.1-0.3,0.2-0.7,0.3-1l-1.5-1.8l1.8,0.5
					c0.1-0.6,0.3-1.2,0.4-1.7l-1.4-1.5l1.6,0.5c0.2-0.7,0.3-1.5,0.5-2.2l-0.7-0.6l0.3-1.1l0.7-0.1c1-5.2,1.7-10.4,2-15.7
					c-2.2,3.7-4.2,7.6-6,11.6l1.9,1.7l-2.6-0.2c-0.2,0.5-0.4,1-0.6,1.5l1.4,1.6l-1.9-0.6c-0.4,0.9-0.7,1.9-1.1,2.8l1.6,1.3
					c0,0-1.3,0.3-2.2,0.4c-0.1,0.3-0.2,0.5-0.3,0.8c0.5,0.6,1.2,1.3,1.2,1.3l-1.8,0.4c-0.2,0.5-0.3,0.9-0.4,1.4l1.3,1.2l-1.6-0.2
					c0,0.1-0.1,0.2-0.1,0.3c-4.4,14.5-3.3,40.4-3.3,40.4S57.2-325.6,60.6-333.4z"/>
				<path id="Path_5663" class="st18" d="M55.6-335l-1.9-1.1l0-1.4l2.2-0.3c0-0.8,0.1-1.6,0.1-2.4l-1.9-2.8l2-0.8c0-0.6,0-1.1,0-1.7
					c0-0.3,0-0.6,0-1l-1.3-1.5l1.3,0c0-0.3,0-0.7,0-1L54-350l1.9,0c0-0.6-0.1-1.2-0.1-1.8l-1.8-1l1.7,0c-0.1-0.8-0.1-1.5-0.2-2.2
					l-0.8-0.4l0-1.2l0.6-0.3c-0.6-5.3-1.5-10.5-2.8-15.6c-1,4.2-1.7,8.5-2.2,12.9l2.3,1.1l-2.5,0.5c-0.1,0.5-0.1,1.1-0.1,1.6
					l1.8,1.1l-1.9,0c-0.1,1-0.1,2-0.2,3l1.9,0.7c0,0-1.2,0.6-2,1.1c0,0.3,0,0.6,0,0.9c0.7,0.4,1.6,0.9,1.6,0.9l-1.6,0.9
					c0,0.5,0,1,0,1.4l1.6,0.8l-1.6,0.3v0.3c0.1,15.1,5,40.6,5,40.6S54.7-326.5,55.6-335z"/>
				<path id="Path_5664" class="st18" d="M50.4-335l-2.2-0.4l-0.4-1.3l2-0.9c-0.2-0.8-0.4-1.5-0.6-2.3l-2.6-2.1l1.6-1.4
					c-0.2-0.5-0.3-1.1-0.5-1.6c-0.1-0.3-0.2-0.6-0.3-0.9l-1.7-1l1.2-0.4c-0.1-0.3-0.2-0.6-0.3-1l-2.2-0.6l1.8-0.6
					c-0.2-0.6-0.4-1.1-0.6-1.7l-2-0.5l1.6-0.5c-0.3-0.7-0.6-1.4-0.9-2.1l-0.9-0.2l-0.4-1.1l0.5-0.5c-2.1-4.8-4.6-9.5-7.3-14
					c0.3,4.3,0.9,8.7,1.7,12.9l2.5,0.3l-2.2,1.3c0.1,0.5,0.2,1,0.3,1.6l2.1,0.5l-1.8,0.6c0.2,1,0.5,1.9,0.7,3l2.1,0.1
					c0,0-0.9,1-1.6,1.6c0.1,0.3,0.2,0.5,0.2,0.8c0.8,0.2,1.8,0.4,1.8,0.4l-1.3,1.3c0.1,0.5,0.3,0.9,0.4,1.4l1.8,0.3l-1.5,0.7
					c0,0.1,0.1,0.2,0.1,0.3c4.7,14.4,13,38.3,13,38.3S52.1-326.6,50.4-335z"/>
				<path id="Path_5665" class="st18" d="M45.4-333.4l-2.2,0.2l-0.8-1.1l1.6-1.5c-0.4-0.7-0.8-1.3-1.3-2l-3.1-1.2l1.2-1.8
					c-0.3-0.5-0.6-0.9-0.9-1.4c-0.2-0.3-0.4-0.5-0.6-0.8l-2-0.5l1.1-0.8c-0.2-0.3-0.4-0.5-0.6-0.8l-2.3,0.1l1.5-1.1
					c-0.4-0.5-0.7-0.9-1.1-1.4l-2.1,0.2l1.4-1c-0.5-0.6-1-1.2-1.4-1.7l-0.9,0.1l-0.7-1l0.4-0.6c-3.5-4-7.2-7.7-11.2-11.2
					c1.6,4,3.5,8,5.5,11.8l2.5-0.5l-1.8,1.9c0.3,0.5,0.5,0.9,0.8,1.4l2.1-0.2l-1.6,1.1c0.5,0.9,1,1.7,1.6,2.6l2-0.5
					c0,0-0.6,1.2-1.1,2c0.1,0.2,0.3,0.5,0.5,0.7c0.8-0.1,1.8-0.2,1.8-0.2l-0.8,1.7c0.3,0.4,0.5,0.8,0.8,1.2l1.8-0.3l-1.2,1.1
					c0.1,0.1,0.1,0.2,0.2,0.2c8.8,12.3,20,33.7,20,33.7S49.5-325.9,45.4-333.4z"/>
				<path id="Path_5666" class="st18" d="M41.1-330.4l-2,0.9l-1.1-0.8l1.1-1.9c-0.6-0.5-1.2-1-1.8-1.5l-3.3-0.2l0.6-2
					c-0.4-0.3-0.9-0.7-1.3-1c-0.3-0.2-0.5-0.4-0.8-0.6l-2,0.1l0.8-1c-0.3-0.2-0.6-0.4-0.8-0.6l-2.2,0.8l1.1-1.5
					c-0.5-0.3-1-0.7-1.5-1l-1.9,0.8l1-1.4c-0.6-0.4-1.3-0.8-1.9-1.2l-0.8,0.4l-0.9-0.7l0.2-0.7c-4.5-2.8-9.2-5.2-14.1-7.4
					c2.7,3.4,5.7,6.6,8.8,9.6l2.3-1.2l-1.1,2.3c0.4,0.4,0.8,0.7,1.2,1.1l2-0.8l-1.2,1.5c0.7,0.7,1.5,1.3,2.3,2l1.8-1.1
					c0,0-0.2,1.3-0.4,2.2c0.2,0.2,0.4,0.4,0.7,0.5c0.7-0.3,1.7-0.7,1.7-0.7l-0.3,1.8c0.4,0.3,0.8,0.6,1.1,0.9l1.6-0.8L29-332
					c0.1,0.1,0.1,0.1,0.2,0.2c12,9.2,25.3,27.3,25.3,27.3S47.3-324.5,41.1-330.4z"/>
				<path id="Path_5667" class="st18" d="M37.9-326.3l-1.7,1.4l-1.3-0.5l0.5-2.1c-0.7-0.3-1.4-0.6-2.2-0.9l-3.3,0.8l-0.1-2.1
					c-0.5-0.2-1-0.4-1.6-0.6c-0.3-0.1-0.6-0.2-0.9-0.3l-1.9,0.7l0.4-1.2c-0.3-0.1-0.7-0.2-1-0.3l-1.8,1.4l0.6-1.8
					c-0.6-0.2-1.1-0.4-1.7-0.5l-1.6,1.3l0.6-1.6c-0.7-0.2-1.4-0.4-2.2-0.6l-0.7,0.6l-1.1-0.4l0-0.7c-5.1-1.3-10.3-2.3-15.6-2.8
					c3.6,2.4,7.4,4.6,11.3,6.5l1.8-1.8l-0.4,2.5c0.5,0.2,1,0.5,1.4,0.7l1.7-1.3l-0.7,1.8c0.9,0.4,1.8,0.8,2.8,1.2l1.4-1.6
					c0,0,0.2,1.3,0.3,2.3c0.3,0.1,0.5,0.2,0.8,0.3c0.6-0.5,1.4-1.2,1.4-1.2l0.3,1.8c0.4,0.2,0.9,0.3,1.4,0.5l1.3-1.2l-0.3,1.6
					l0.3,0.1c14.2,5.1,28.4,19.5,28.4,19.5S45.6-322.5,37.9-326.3z"/>
				<path id="Path_5668" class="st18" d="M36.1-321.4l-1.2,1.9l-1.4-0.1l-0.2-2.2c-0.8-0.1-1.6-0.2-2.4-0.2l-2.9,1.7l-0.7-2
					c-0.6,0-1.1-0.1-1.7-0.1c-0.3,0-0.6,0-1,0l-1.6,1.3l0.1-1.3c-0.3,0-0.7,0-1,0l-1.3,1.9l0.1-1.9c-0.6,0-1.2,0-1.8,0l-1.1,1.7
					l0.1-1.7c-0.8,0-1.5,0-2.2,0.1l-0.5,0.8l-1.2-0.1l-0.2-0.6c-5.3,0.3-10.6,0.9-15.7,2c4.2,1.2,8.4,2.2,12.7,2.9l1.2-2.3l0.4,2.5
					c0.5,0.1,1.1,0.2,1.6,0.2l1.2-1.8l-0.1,1.9c1,0.1,2,0.3,3,0.4l0.8-1.9c0,0,0.6,1.2,0.9,2.1c0.3,0,0.6,0,0.9,0.1
					c0.4-0.7,1-1.5,1-1.5l0.8,1.7c0.5,0,1,0.1,1.4,0.1l0.9-1.6l0.2,1.6c0.1,0,0.2,0,0.3,0c15.1,0.7,29,11.2,29,11.2
					S44.5-320,36.1-321.4z"/>
			</g>
			<g id="Group_2823">
				<path id="Path_5669" class="st19" d="M88.6-306.9l0.5-2.8l1.6-0.6l1.2,2.5c1-0.3,1.9-0.5,2.9-0.8l2.6-3.4l1.8,2
					c0.7-0.2,1.3-0.4,2-0.7c0.4-0.1,0.8-0.3,1.2-0.4l1.3-2.2l0.6,1.6c0.4-0.2,0.8-0.3,1.2-0.5l0.7-2.8l0.8,2.2
					c0.7-0.3,1.4-0.6,2.1-0.9l0.5-2.6l0.7,2.1c0.9-0.4,1.8-0.8,2.6-1.2l0.2-1.2l1.4-0.5l0.6,0.6c6.1-2.8,12-6.1,17.6-9.8
					c-5.5,0.6-11,1.4-16.4,2.7l-0.3,3.2l-1.7-2.8c-0.6,0.1-1.3,0.3-2,0.5l-0.5,2.7l-0.8-2.3c-1.2,0.3-2.5,0.7-3.7,1l-0.1,2.6
					c0,0-1.3-1.2-2.1-2c-0.3,0.1-0.7,0.2-1,0.3c-0.2,1-0.4,2.3-0.4,2.3l-1.7-1.6c-0.6,0.2-1.2,0.4-1.7,0.6l-0.3,2.2l-1-1.8
					c-0.1,0-0.2,0.1-0.3,0.1c-18.1,6.4-30,28.8-30,28.8S78-304.5,88.6-306.9z"/>
				<path id="Path_5670" class="st20" d="M87.3-313.2l-0.4-2.8l1.4-1l1.9,2c0.8-0.5,1.7-1.1,2.5-1.7l1.4-4l2.3,1.4
					c0.6-0.4,1.1-0.8,1.7-1.2c0.3-0.2,0.6-0.5,1-0.7l0.5-2.5l1,1.3c0.3-0.3,0.7-0.5,1-0.8l-0.2-2.9l1.4,1.9c0.6-0.5,1.2-1,1.7-1.4
					l-0.3-2.6l1.3,1.7c0.7-0.6,1.4-1.3,2.1-1.9l-0.2-1.1l1.2-0.9l0.8,0.4c5-4.5,9.6-9.4,13.9-14.6c-5.1,2.2-10.1,4.7-14.9,7.4
					l0.7,3.2l-2.5-2.1c-0.6,0.3-1.2,0.7-1.8,1.1l0.3,2.7l-1.5-2c-1.1,0.7-2.2,1.4-3.3,2.1l0.7,2.5c0,0-1.6-0.7-2.6-1.3
					c-0.3,0.2-0.6,0.4-0.9,0.6c0.1,1,0.3,2.3,0.3,2.3l-2.1-1c-0.5,0.4-1,0.7-1.5,1.1l0.4,2.2l-1.5-1.5c-0.1,0.1-0.2,0.1-0.3,0.2
					c-15.4,11.5-23.9,37.5-23.9,37.5S77.9-307.7,87.3-313.2z"/>
				<path id="Path_5671" class="st20" d="M83.4-318.6l-1.2-2.6l1-1.4l2.4,1.3c0.6-0.8,1.3-1.5,1.9-2.3l0.2-4.2l2.6,0.6
					c0.4-0.6,0.8-1.1,1.3-1.7c0.2-0.3,0.5-0.7,0.7-1l-0.2-2.6l1.4,1c0.2-0.4,0.5-0.7,0.7-1.1l-1-2.7l1.9,1.4
					c0.4-0.6,0.8-1.3,1.2-1.9l-1.1-2.4l1.8,1.3c0.5-0.8,1-1.6,1.5-2.4l-0.5-1l0.9-1.2l0.9,0.2c3.4-5.8,6.4-11.8,8.9-18.1
					c-4.2,3.6-8.2,7.4-11.9,11.5l1.6,2.8l-3-1.3c-0.4,0.5-0.9,1-1.4,1.5l1.1,2.5l-2-1.4c-0.8,0.9-1.7,1.9-2.5,3l1.4,2.2
					c0,0-1.7-0.2-2.9-0.4c-0.2,0.3-0.4,0.6-0.7,0.9c0.4,0.9,1,2.1,1,2.1l-2.4-0.3c-0.4,0.5-0.7,1-1.1,1.5l1,2l-1.8-0.9
					c-0.1,0.1-0.1,0.2-0.2,0.3c-11.2,15.6-15.5,43.9-15.5,43.9S76-310.5,83.4-318.6z"/>
				<path id="Path_5672" class="st19" d="M78-322.5l-1.9-2.1l0.5-1.6l2.7,0.5c0.4-0.9,0.7-1.8,1.1-2.8l-1.1-4.1l2.7-0.2
					c0.2-0.7,0.5-1.3,0.7-2c0.1-0.4,0.2-0.8,0.4-1.2l-1-2.4l1.6,0.5c0.1-0.4,0.2-0.8,0.4-1.3l-1.8-2.3l2.3,0.7
					c0.2-0.7,0.4-1.5,0.6-2.2l-1.7-2l2.1,0.7c0.2-0.9,0.5-1.9,0.7-2.8l-0.8-0.8l0.5-1.4l0.9-0.1c1.5-6.6,2.5-13.2,3.1-19.9
					c-2.9,4.7-5.6,9.5-8,14.6l2.4,2.2l-3.3-0.4c-0.3,0.6-0.6,1.2-0.8,1.9l1.8,2l-2.3-0.8c-0.5,1.1-1,2.3-1.5,3.6l2,1.7
					c0,0-1.7,0.3-2.9,0.4c-0.1,0.3-0.3,0.7-0.4,1c0.7,0.8,1.5,1.7,1.5,1.7l-2.3,0.4c-0.2,0.6-0.4,1.2-0.6,1.7l1.6,1.6l-2-0.4
					c0,0.1-0.1,0.2-0.1,0.3c-6.1,18.2-5.5,47.6-5.5,47.6S73.4-312.6,78-322.5z"/>
				<path id="Path_5673" class="st20" d="M71.7-324.6l-2.4-1.4l0-1.7l2.8-0.3c0.1-1,0.2-2,0.2-3l-2.3-3.6l2.5-1
					c0-0.7,0.1-1.4,0.1-2.1c0-0.4,0-0.8,0-1.2l-1.7-2l1.7,0c0-0.4,0-0.9,0-1.3l-2.4-1.6l2.4,0c0-0.8,0-1.5-0.1-2.3l-2.2-1.4l2.2,0
					c0-1-0.1-1.9-0.2-2.8l-1-0.6l0-1.5l0.8-0.3c-0.5-6.7-1.5-13.3-3-19.9c-1.4,5.4-2.5,10.8-3.2,16.3l2.9,1.4l-3.2,0.6
					c-0.1,0.7-0.2,1.3-0.2,2l2.3,1.4l-2.5,0c-0.1,1.2-0.3,2.5-0.4,3.8l2.4,1c0,0-1.5,0.8-2.6,1.3c0,0.4,0,0.7-0.1,1.1
					c0.9,0.5,2,1.2,2,1.2l-2.1,1.1c0,0.6,0,1.2-0.1,1.8l2,1.1l-2,0.3c0,0.1,0,0.2,0,0.4c-0.3,19.2,5.1,48.1,5.1,48.1
					S70.3-313.9,71.7-324.6z"/>
				<path id="Path_5674" class="st20" d="M65-324.8l-2.8-0.6l-0.5-1.7l2.6-1.1c-0.2-1-0.4-1.9-0.7-2.9l-3.3-2.7l2.1-1.7
					c-0.2-0.7-0.4-1.4-0.6-2c-0.1-0.4-0.2-0.8-0.4-1.2l-2.2-1.4l1.6-0.5c-0.1-0.4-0.3-0.8-0.4-1.2l-2.8-0.8l2.3-0.7
					c-0.2-0.7-0.5-1.4-0.8-2.1l-2.6-0.7l2.1-0.6c-0.3-0.9-0.7-1.8-1-2.7l-1.1-0.2l-0.4-1.5l0.7-0.6c-2.5-6.2-5.5-12.3-8.9-18.1
					c0.3,5.5,0.9,11,1.8,16.5l3.2,0.5l-2.9,1.5c0.1,0.7,0.2,1.3,0.4,2l2.6,0.7l-2.4,0.7c0.2,1.2,0.5,2.5,0.8,3.8l2.6,0.2
					c0,0-1.2,1.2-2.1,2c0.1,0.3,0.2,0.7,0.3,1.1c1,0.3,2.3,0.6,2.3,0.6l-1.7,1.7c0.2,0.6,0.3,1.2,0.5,1.8l2.2,0.4l-1.9,0.9
					c0,0.1,0.1,0.2,0.1,0.3c5.4,18.4,15.3,45.5,15.3,45.5S66.9-314.1,65-324.8z"/>
				<path id="Path_5675" class="st19" d="M58.6-323l-2.8,0.2l-1-1.4L57-326c-0.5-0.9-1-1.7-1.5-2.6l-3.9-1.6l1.5-2.2
					c-0.4-0.6-0.8-1.2-1.2-1.8c-0.2-0.3-0.5-0.7-0.7-1l-2.5-0.7l1.4-0.9c-0.3-0.4-0.5-0.7-0.8-1h-2.9l2-1.3
					c-0.5-0.6-0.9-1.2-1.4-1.8l-2.6,0.1l1.8-1.2c-0.6-0.8-1.2-1.5-1.8-2.2l-1.2,0.1l-0.8-1.3l0.5-0.7c-4.3-5.2-8.9-10.1-13.9-14.6
					c1.9,5.2,4.1,10.3,6.6,15.2l3.2-0.5l-2.3,2.3c0.3,0.6,0.6,1.2,1,1.8l2.7-0.1l-2,1.4c0.6,1.1,1.2,2.2,1.9,3.4l2.6-0.6
					c0,0-0.8,1.5-1.4,2.5c0.2,0.3,0.4,0.6,0.6,0.9c1,0,2.3-0.1,2.3-0.1l-1.1,2.1c0.3,0.5,0.7,1,1,1.5l2.3-0.3l-1.5,1.4
					c0.1,0.1,0.1,0.2,0.2,0.3c10.7,16,24.3,39.9,24.3,39.9S63.6-313.3,58.6-323z"/>
				<path id="Path_5676" class="st20" d="M53.1-319.3l-2.6,1l-1.3-1.1l1.5-2.4c-0.7-0.7-1.5-1.3-2.2-2l-4.2-0.4l0.8-2.6
					c-0.5-0.4-1.1-0.9-1.6-1.3c-0.3-0.3-0.6-0.5-1-0.8l-2.6,0.1l1-1.3c-0.3-0.3-0.7-0.5-1-0.8l-2.8,0.9l1.5-1.9
					c-0.6-0.5-1.2-0.9-1.8-1.3l-2.5,0.9l1.4-1.7c-0.8-0.6-1.6-1.1-2.4-1.6L32-335l-1.2-0.9l0.2-0.8c-5.6-3.7-11.5-7-17.6-9.8
					c3.4,4.4,7,8.6,10.9,12.5l2.9-1.4l-1.5,2.9c0.5,0.5,1,1,1.5,1.4l2.5-0.9l-1.5,1.9c0.9,0.9,1.9,1.8,2.8,2.6l2.3-1.3
					c0,0-0.3,1.7-0.6,2.8c0.3,0.2,0.5,0.5,0.8,0.7c1-0.3,2.2-0.8,2.2-0.8l-0.5,2.3c0.5,0.4,0.9,0.8,1.4,1.2l2.1-0.9l-1,1.8
					c0.1,0.1,0.2,0.2,0.3,0.2c15,12,31.3,31.8,31.3,31.8S60.7-311.6,53.1-319.3z"/>
				<path id="Path_5677" class="st19" d="M48.8-314.2l-2.2,1.8l-1.6-0.6l0.7-2.7c-0.9-0.4-1.8-0.8-2.7-1.3l-4.2,0.9v-2.7
					c-0.7-0.3-1.3-0.5-2-0.8c-0.4-0.1-0.8-0.3-1.1-0.4l-2.4,0.9l0.6-1.6c-0.4-0.1-0.8-0.3-1.2-0.4l-2.4,1.7l0.9-2.2
					c-0.7-0.2-1.4-0.5-2.2-0.7l-2.1,1.6l0.8-2c-0.9-0.3-1.8-0.6-2.7-0.8l-0.9,0.8l-1.4-0.6l0-0.9c-6.5-1.8-13.1-3.2-19.7-4.1
					c4.5,3.2,9.3,6.1,14.1,8.7l2.4-2.2l-0.5,3.2c0.6,0.3,1.2,0.6,1.8,0.9l2.1-1.7l-0.9,2.3c1.1,0.6,2.3,1.1,3.5,1.7l1.8-1.9
					c0,0,0.2,1.7,0.3,2.9c0.3,0.1,0.7,0.3,1,0.4c0.8-0.6,1.8-1.4,1.8-1.4l0.3,2.4c0.6,0.2,1.1,0.5,1.7,0.7L34-314l-0.5,2
					c0.1,0,0.2,0.1,0.3,0.1c17.9,7,35.5,22.1,35.5,22.1S58.5-309.1,48.8-314.2z"/>
				<path id="Path_5678" class="st20" d="M46.4-308l-1.6,2.4l-1.7-0.1l-0.1-2.8c-1-0.1-2-0.3-3-0.4l-3.7,2.1l-0.8-2.6
					c-0.7-0.1-1.4-0.1-2.1-0.2c-0.4,0-0.8,0-1.2-0.1l-2.1,1.6l0.1-1.7c-0.4,0-0.9,0-1.3-0.1l-1.8,2.3l0.2-2.4c-0.8,0-1.5,0-2.3,0
					l-1.5,2.2l0.2-2.2c-1,0-1.9,0-2.8,0l-0.6,1l-1.5-0.1l-0.3-0.8c-6.7,0.2-13.4,0.8-20.1,2c5.3,1.7,10.7,3,16.1,4.1l1.6-2.8
					l0.4,3.2c0.7,0.1,1.3,0.2,2,0.4l1.5-2.2l-0.2,2.5c1.2,0.2,2.5,0.4,3.8,0.6l1.1-2.4c0,0,0.7,1.6,1.1,2.7c0.4,0,0.7,0.1,1.1,0.1
					c0.6-0.8,1.3-1.9,1.3-1.9l1,2.2c0.6,0.1,1.2,0.1,1.8,0.2l1.2-1.9l0.2,2.1c0.1,0,0.2,0,0.4,0c19.2,1.3,36.6,11.6,36.6,11.6
					S57.1-306,46.4-308z"/>
			</g>
		</g>
	</g>
	<g id="Group_2875" transform="translate(103.111 417.188)">
		<rect id="Rectangle_3493" x="189.5" y="-113" class="st22" width="126.1" height="5.7"/>
		<rect id="Rectangle_3494" x="189.5" y="-65.8" class="st22" width="126.1" height="5.7"/>
		<rect id="Rectangle_3495" x="189.5" y="-17.7" class="st22" width="126.1" height="5.7"/>
		<g id="Group_2856" transform="translate(207.22 272.32)">
			<rect id="Rectangle_3496" x="-0.4" y="-372.4" class="st23" width="7.5" height="34.2"/>
			<rect id="Rectangle_3497" x="-0.4" y="-364.2" class="st24" width="7.5" height="4.8"/>
		</g>
		<g id="Group_2857" transform="translate(214.757 267.752)">
			<rect id="Rectangle_3498" x="-0.4" y="-372.3" class="st25" width="7.5" height="38.8"/>
		</g>
		<g id="Group_2858" transform="translate(229.831 272.32)">
			<rect id="Rectangle_3499" x="-0.4" y="-372.4" class="st26" width="7.5" height="34.2"/>
			<rect id="Rectangle_3500" x="-0.4" y="-364.2" class="st24" width="7.5" height="4.8"/>
		</g>
		<g id="Group_2859" transform="translate(244.905 269.671)">
			<rect id="Rectangle_3501" x="-0.4" y="-372.3" class="st27" width="7.5" height="36.9"/>
		</g>
		<g id="Group_2860" transform="translate(237.368 267.752)">
			<rect id="Rectangle_3502" x="-0.4" y="-372.3" class="st28" width="7.5" height="38.8"/>
			<rect id="Rectangle_3503" x="-0.4" y="-363.1" class="st24" width="7.5" height="5.5"/>
		</g>
		<g id="Group_2861" transform="translate(252.442 272.32)">
			<rect id="Rectangle_3504" x="-0.4" y="-372.4" class="st29" width="7.5" height="34.2"/>
			<rect id="Rectangle_3505" x="-0.4" y="-364.2" class="st24" width="7.5" height="4.8"/>
		</g>
		<g id="Group_2862" transform="translate(267.516 269.671)">
			<rect id="Rectangle_3506" x="-0.5" y="-372.3" class="st30" width="7.5" height="36.9"/>
		</g>
		<g id="Group_2863" transform="translate(275.053 272.32)">
			<rect id="Rectangle_3507" x="-0.5" y="-372.4" class="st29" width="7.5" height="34.2"/>
			<rect id="Rectangle_3508" x="-0.5" y="-364.2" class="st24" width="7.5" height="4.8"/>
		</g>
		<g id="Group_2864" transform="translate(282.59 267.752)">
			<rect id="Rectangle_3509" x="-0.5" y="-372.3" class="st31" width="7.5" height="38.8"/>
			<rect id="Rectangle_3510" x="-0.5" y="-363.1" class="st24" width="7.5" height="5.5"/>
		</g>
		<g id="Group_2865" transform="translate(206.306 320.557)">
			<rect id="Rectangle_3511" x="-0.4" y="-372.5" class="st25" width="7.5" height="34.2"/>
			<rect id="Rectangle_3512" x="-0.4" y="-364.3" class="st24" width="7.5" height="4.8"/>
		</g>
		<g id="Group_2866" transform="translate(221.38 317.908)">
			<rect id="Rectangle_3513" x="-0.4" y="-372.5" class="st27" width="7.5" height="36.9"/>
		</g>
		<g id="Group_2867" transform="translate(213.843 315.989)">
			<rect id="Rectangle_3514" x="-0.4" y="-372.5" class="st28" width="7.5" height="38.8"/>
			<rect id="Rectangle_3515" x="-0.4" y="-363.2" class="st24" width="7.5" height="5.5"/>
		</g>
		<g id="Group_2868" transform="translate(228.917 320.557)">
			<rect id="Rectangle_3516" x="-0.4" y="-372.5" class="st29" width="7.5" height="34.2"/>
			<rect id="Rectangle_3517" x="-0.4" y="-364.3" class="st24" width="7.5" height="4.8"/>
		</g>
		<g id="Group_2869" transform="translate(243.991 317.908)">
			<rect id="Rectangle_3518" x="-0.4" y="-372.5" class="st23" width="7.5" height="36.9"/>
			<rect id="Rectangle_3519" x="-0.4" y="-363.7" class="st24" width="7.5" height="5.2"/>
		</g>
		<g id="Group_2870" transform="translate(251.528 320.557)">
			<rect id="Rectangle_3520" x="-0.4" y="-372.5" class="st26" width="7.5" height="34.2"/>
			<rect id="Rectangle_3521" x="-0.4" y="-364.3" class="st24" width="7.5" height="4.8"/>
		</g>
		<g id="Group_2871" transform="translate(266.602 317.908)">
			<rect id="Rectangle_3522" x="-0.5" y="-372.5" class="st23" width="7.5" height="36.9"/>
			<rect id="Rectangle_3523" x="-0.5" y="-363.7" class="st24" width="7.5" height="5.2"/>
		</g>
		<g id="Group_2872" transform="translate(259.065 315.989)">
			<rect id="Rectangle_3524" x="-0.4" y="-372.5" class="st25" width="7.5" height="38.8"/>
			<rect id="Rectangle_3525" x="-0.4" y="-363.2" class="st24" width="7.5" height="5.5"/>
		</g>
		<g id="Group_2873" transform="translate(274.139 320.557)">
			<rect id="Rectangle_3526" x="-0.5" y="-372.5" class="st29" width="7.5" height="34.2"/>
		</g>
		<g id="Group_2874" transform="translate(281.676 315.989)">
			<rect id="Rectangle_3527" x="-0.5" y="-372.5" class="st28" width="7.5" height="38.8"/>
			<rect id="Rectangle_3528" x="-0.5" y="-363.2" class="st24" width="7.5" height="5.5"/>
		</g>
		<rect id="Rectangle_3529" x="189.5" y="-107.3" class="st32" width="126" height="18.7"/>
		<rect id="Rectangle_3530" x="189.5" y="-60.1" class="st32" width="126" height="14.2"/>
		<rect id="Rectangle_3531" x="189.5" y="-12" class="st32" width="125.8" height="10.2"/>
	</g>
	<g id="Group_2918" transform="translate(-405.997 501.111)">
		<g id="Group_2910" transform="translate(457.997 364.814)">
			<path id="Path_5702" class="st33" d="M88.3-334.2C69-336.4,53.2-348,47.7-363.3c-1.9-5.7-7.2-9.6-13.2-9.7H9.8v85H95v-38.1
				C95.1-330.1,92.2-333.6,88.3-334.2z"/>
			<rect id="Rectangle_3564" x="60.2" y="-298.9" class="st34" width="41.9" height="10.9"/>
			<path id="Path_5703" class="st34" d="M55-334.2c-15.3-2.2-27.7-13.8-32-29.2c-1.6-5.9-8.7-9.7-13.3-9.7H1.6l7.5,85h51.3v-38.1
				C60.3-330.3,58-333.7,55-334.2z"/>
			<rect id="Rectangle_3565" x="57.4" y="-288" class="st35" width="8.4" height="44.7"/>
			<path id="Path_5704" class="st35" d="M-0.1-243.4h8.4l9.8-44.7H9.8L-0.1-243.4z"/>
			<rect id="Rectangle_3566" x="84.8" y="-288" class="st36" width="8.4" height="44.7"/>
			<path id="Path_5705" class="st36" d="M29.5-243.4h8.4l9.8-44.7h-8.4L29.5-243.4z"/>
		</g>
		<g id="Group_2911" transform="translate(670.642 364.87)">
			<path id="Path_5706" class="st37" d="M54-363.3c-5.4,15.4-21.2,27-40.5,29.2c-3.9,0.6-6.8,4.1-6.7,8v38.1h85.2l8.2-85H67.2
				C61.2-372.9,55.9-369,54-363.3z"/>
			<rect id="Rectangle_3567" x="-0.3" y="-298.9" class="st38" width="72.1" height="10.9"/>
			<path id="Path_5707" class="st38" d="M89.2-363.3c-2.2,15.4-8.5,27-16.3,29.2c-1.5,0.4-2.7,3.9-2.7,8v38.1h26.1l3.8-85h-4.2
				C93.6-373,90-369.2,89.2-363.3z"/>
			<path id="Path_5708" class="st36" d="M37.6-288l9.8,44.7h8.4L46-288H37.6z"/>
			<rect id="Rectangle_3568" x="57.7" y="-288" class="st35" width="8.4" height="44.7"/>
			<path id="Path_5709" class="st35" d="M83.6-288l9.8,44.7h8.4L91.9-288H83.6z"/>
			<rect id="Rectangle_3569" x="8.5" y="-288" class="st36" width="8.4" height="44.7"/>
		</g>
		<g id="Group_2917" transform="translate(566.349 381.808)">
			<g id="Group_2912" transform="translate(0 30.751)">
				<rect id="Rectangle_3570" x="4.3" y="-357.1" class="st35" width="75.6" height="66"/>
				<rect id="Rectangle_3571" x="79.9" y="-357.1" class="st39" width="38.8" height="66"/>
				<path id="Rectangle_3572" class="st40" d="M74.3-373.2h48.4c1.5,0,2.8,1.2,2.8,2.8c0,0,0,0,0,0v13.3H74.3V-373.2z"/>
				<path id="Rectangle_3573" class="st41" d="M2.6-373.2h77.1c1.5,0,2.8,1.2,2.8,2.8v13.3H-0.2v-13.3C-0.2-372,1-373.2,2.6-373.2z"
					/>
				<rect id="Rectangle_3574" x="4.3" y="-357.1" class="st42" width="114.4" height="8.1"/>
			</g>
			<g id="Group_2916" transform="translate(45.087)">
				<g id="Group_2914">
					<g id="Group_2913">
						<path id="Path_5710" class="st43" d="M39.2-371.9l2.1,26.2c0,0.7-0.5,1.2-1.2,1.2h-37c-0.7,0-1.2-0.5-1.2-1.2c0,0,0,0,0,0
							l-2.1-26.2c0-0.7,0.5-1.2,1.2-1.2l0,0h37C38.7-373.1,39.2-372.5,39.2-371.9L39.2-371.9z"/>
					</g>
				</g>
				<path id="Path_5711" class="st44" d="M39.7-346.4H3.6l-2.1-24.6h36.1L39.7-346.4z"/>
				<g id="Group_2915" transform="translate(4.118 28.637)">
					<path id="Path_5712" class="st36" d="M44.5-373.2H0c-0.1,0-0.3,0.1-0.3,0.3v0.5c0,1.2,6.6,1.3,6.9,1.3h31.2
						c0.3,0,6.9-0.1,6.9-1.3v-0.5C44.8-373.1,44.6-373.2,44.5-373.2z"/>
					<path id="Path_5713" class="st35" d="M52.3-373.2H7.8c-0.1,0-0.3,0.1-0.3,0.3v0.5c0,1.2,6.6,1.3,6.9,1.3h31.2
						c0.3,0,6.9-0.1,6.9-1.3v-0.5C52.6-373.1,52.4-373.2,52.3-373.2z"/>
				</g>
			</g>
		</g>
	</g>
	<g id="_27" transform="translate(54.326 429.195)">
		
			<linearGradient id="Path_5725_1_" gradientUnits="userSpaceOnUse" x1="-54.5873" y1="-938.9121" x2="-54.5873" y2="-938.9121" gradientTransform="matrix(1 0 0 -1 211.365 -937.884)">
			<stop  offset="0" style="stop-color:#FFFFFF"/>
			<stop  offset="5.400000e-02" style="stop-color:#DFDFDF"/>
			<stop  offset="0.155" style="stop-color:#ACACAC"/>
			<stop  offset="0.261" style="stop-color:#7E7E7E"/>
			<stop  offset="0.369" style="stop-color:#575757"/>
			<stop  offset="0.48" style="stop-color:#373737"/>
			<stop  offset="0.595" style="stop-color:#1F1F1F"/>
			<stop  offset="0.716" style="stop-color:#0D0D0D"/>
			<stop  offset="0.845" style="stop-color:#030303"/>
			<stop  offset="1" style="stop-color:#000000"/>
		</linearGradient>
		<path id="Path_5725" class="st45" d="M156.8,1"/>
		<g id="Group_2936">
			<rect id="Rectangle_3577" x="27.6" y="-135.4" class="st6" width="123.3" height="7.5"/>
			<g id="Group_2935">
				<rect id="Rectangle_3578" x="39.9" y="-319.1" class="st46" width="98.6" height="54.9"/>
				<rect id="Rectangle_3579" x="39.9" y="-257.1" class="st46" width="98.6" height="115.1"/>
				<g id="Group_2934">
					<path id="Path_5726" class="st47" d="M39.5-318.6v46.9l47.1-46.9H39.5z"/>
					<path id="Path_5727" class="st47" d="M86.6-318.6l-47.1,46.9v129.9h96.7v-176.8H86.6z"/>
					<rect id="Rectangle_3580" x="39.5" y="-236.8" class="st48" width="18.7" height="94.5"/>
					<rect id="Rectangle_3581" x="61.7" y="-228.2" class="st49" width="21.3" height="86.4"/>
					<rect id="Rectangle_3582" x="39.5" y="-212.3" class="st50" width="27" height="70.6"/>
					<rect id="Rectangle_3583" x="66.6" y="-195" class="st51" width="27.1" height="53.2"/>
					<rect id="Rectangle_3584" x="91.2" y="-170" class="st52" width="38.5" height="28.2"/>
					<path id="Path_5728" class="st53" d="M120.6-277.1c1.2-3.8-0.9-7.9-4.8-9.1c-0.7-0.2-1.4-0.3-2.2-0.3c-0.2,0-0.4,0-0.6,0
						c-1-5.4-6.2-9-11.6-8.1c-1.4,0.3-2.8,0.8-4,1.7c-2-5.1-7.8-7.6-13-5.6c-3.4,1.4-5.9,4.5-6.3,8.2c-0.6-0.1-1.3-0.2-1.9-0.2
						c-5.5,0-10,4.5-10,10c0,1.2,0.2,2.3,0.6,3.4H120.6z"/>
					<path id="Path_5729" class="st53" d="M136.2-210.2c-4.3-3.4-10.6-2.7-14,1.7c-1.2,1.5-1.9,3.2-2.1,5.1
						c-5.4-1-10.7,2.5-11.7,7.9c-0.3,1.8-0.2,3.6,0.4,5.3h27.4L136.2-210.2z"/>
					<path id="Path_5730" class="st53" d="M135.3-236.8c0.1-0.5,0.2-0.9,0.2-1.4c0-2.6-2-4.7-4.6-4.7c-0.1,0-0.2,0-0.4,0
						c-0.5-3.1-3.1-5.3-6.2-5.4c-1.3,0-2.6,0.4-3.6,1.2c-1.2-3.3-4.8-4.9-8.1-3.7c-2.3,0.8-3.9,3-4.1,5.4c-0.4-0.1-0.8-0.1-1.2-0.1
						c-3.6,0-6.4,3-6.3,6.5c0,0.8,0.1,1.5,0.4,2.2L135.3-236.8z"/>
					<path id="Path_5731" class="st53" d="M97.2-251.2c0.1-0.5,0.2-0.9,0.2-1.4c0-2.6-2-4.7-4.6-4.7c-0.1,0-0.2,0-0.4,0
						c-0.5-3.1-3.1-5.3-6.2-5.4c-1.3,0-2.6,0.4-3.6,1.2c-1.2-3.3-4.8-4.9-8.1-3.7c-2.3,0.8-3.9,3-4.1,5.4c-0.4-0.1-0.8-0.1-1.2-0.1
						c-3.5,0-6.4,3-6.3,6.5c0,0.8,0.1,1.5,0.4,2.2L97.2-251.2z"/>
					<path id="Path_5732" class="st54" d="M136.2-293.3l-96.7,96.4v21.8l96.7-96.4L136.2-293.3z"/>
					<path id="Path_5733" class="st54" d="M136.2-265.6v14.7l-96.7,96.4v-14.7L136.2-265.6z"/>
					<path id="Path_5734" class="st54" d="M136.2-234.9l-93.4,93.2h19.5l73.9-73.7V-234.9z"/>
					<path id="Path_5735" class="st54" d="M110.1-318.6l-70.5,70.4v18.3l88.9-88.7H110.1z"/>
				</g>
				<rect id="Rectangle_3585" x="32.4" y="-138.3" class="st55" width="113.5" height="3"/>
				<path id="Path_5736" class="st6" d="M146-257.1v-68.7H32.4v187.5H146V-257.1z M138.5-142H39.9v-115.1h98.6L138.5-142z
					 M39.9-264.2v-54.9h98.6v54.9H39.9z"/>
			</g>
		</g>
	</g>
	<g id="_15" transform="translate(148.848 510.14)">
		<ellipse id="Ellipse_200" class="st56" cx="206.7" cy="-279.2" rx="35.9" ry="35.8"/>
		<path id="Path_5737" class="st6" d="M229.3-301.4l-44.9,44.8c3.9,3.8,8.8,6.6,14,8l38.9-38.8C235.9-292.7,233.2-297.5,229.3-301.4
			z"/>
		<path id="Path_5738" class="st57" d="M198.5-248.6c17,4.5,34.4-5.5,38.9-22.4c1.4-5.4,1.4-11,0-16.4L198.5-248.6z"/>
		<path id="Path_5739" class="st57" d="M229.3-301.4c-2.4-2.4-5.1-4.5-8.2-6l-42.8,42.7c1.6,3,3.6,5.8,6,8.1L229.3-301.4z"/>
		<path id="Path_5740" class="st6" d="M221.2-307.4c-15.6-8-34.8-1.9-42.8,13.7c-4.7,9.1-4.7,19.9,0,29L221.2-307.4z"/>
		<path id="Path_5741" class="st56" d="M209-304.6c0,1.3-1.1,2.4-2.4,2.4s-2.4-1.1-2.4-2.4s1.1-2.4,2.4-2.4S209-305.9,209-304.6
			L209-304.6z"/>
		<path id="Path_5742" class="st56" d="M209-254.3c0,1.3-1.1,2.4-2.4,2.4s-2.4-1.1-2.4-2.4c0-1.3,1.1-2.4,2.4-2.4
			S209-255.6,209-254.3L209-254.3z"/>
		<path id="Path_5743" class="st56" d="M231.9-277.1c-1.3,0-2.4-1.1-2.4-2.4c0-1.3,1.1-2.4,2.4-2.4c1.3,0,2.4,1.1,2.4,2.4
			S233.2-277.1,231.9-277.1L231.9-277.1z"/>
		<path id="Path_5744" class="st56" d="M181.4-277.1c-1.3,0-2.4-1.1-2.4-2.4c0-1.3,1.1-2.4,2.4-2.4c1.3,0,2.4,1.1,2.4,2.4
			c0,0,0,0,0,0C183.8-278.1,182.7-277.1,181.4-277.1z"/>
		<g id="Group_2937" transform="translate(199.156 68.137)">
			<path id="Path_5745" class="st58" d="M-0.4-363.5l6.1,19.9c0.3,0.8,1.1,1.3,2,1.1l0,0c0.8-0.3,1.3-1.1,1.1-2c0,0,0,0,0,0
				l-6.1-19.9c-0.3-0.8-1.1-1.3-2-1.1l0,0C-0.1-365.2-0.6-364.3-0.4-363.5C-0.4-363.5-0.4-363.5-0.4-363.5z"/>
			<polygon id="Rectangle_3586" class="st58" points="3.1,-335.4 18.5,-371.9 19.5,-371.5 4,-335.1 			"/>
			<path id="Path_5746" class="st58" d="M32.3-343.5H6.6c-0.5,0-0.9-0.4-0.9-0.9l0,0c0-0.5,0.4-0.9,0.9-0.9h25.7
				c0.5,0,0.9,0.4,0.9,0.9l0,0C33.2-343.9,32.8-343.5,32.3-343.5L32.3-343.5z"/>
			<path id="Path_5747" class="st58" d="M9.6-344.7c0,1.3-1.1,2.4-2.4,2.4c-1.3,0-2.4-1.1-2.4-2.4c0-1.3,1.1-2.4,2.4-2.4
				c0,0,0,0,0,0C8.6-347,9.6-346,9.6-344.7z"/>
			<path id="Path_5748" class="st6" d="M8.6-344.7c0,0.7-0.6,1.3-1.4,1.3s-1.4-0.6-1.4-1.3c0-0.7,0.6-1.3,1.4-1.3
				C8-346,8.6-345.4,8.6-344.7C8.6-344.7,8.6-344.7,8.6-344.7z"/>
		</g>
		<g id="Group_2940" transform="translate(184.35 69.38)">
			<g id="Group_2938" transform="translate(35.295)">
				<path id="Path_5749" class="st56" d="M-0.5-370.2c0,1,0.8,1.8,1.8,1.8c1,0,1.8-0.8,1.8-1.8s-0.8-1.8-1.8-1.8l0,0
					C0.3-371.9-0.5-371.2-0.5-370.2z"/>
				<path id="Path_5750" class="st56" d="M7.5-360.8c0,1,0.8,1.8,1.8,1.8c1,0,1.8-0.8,1.8-1.8s-0.8-1.8-1.8-1.8l0,0
					C8.3-362.6,7.5-361.8,7.5-360.8z"/>
			</g>
			<g id="Group_2939">
				<path id="Path_5751" class="st56" d="M11.1-370.2c0,1-0.8,1.8-1.8,1.8c-1,0-1.8-0.8-1.8-1.8c0-1,0.8-1.8,1.8-1.8
					c0.5,0,0.9,0.2,1.3,0.5C10.9-371.1,11.1-370.6,11.1-370.2z"/>
				<path id="Path_5752" class="st56" d="M3.1-360.8c0,1-0.8,1.8-1.8,1.8c-1,0-1.8-0.8-1.8-1.8s0.8-1.8,1.8-1.8l0,0
					C2.3-362.6,3.1-361.8,3.1-360.8z"/>
			</g>
		</g>
		<g id="Group_2943" transform="translate(184.35 101.358)">
			<g id="Group_2941">
				<path id="Path_5753" class="st56" d="M11.1-361c0-1-0.8-1.8-1.8-1.8s-1.8,0.8-1.8,1.8c0,1,0.8,1.8,1.8,1.8c0,0,0,0,0,0
					C10.3-359.2,11.1-360,11.1-361L11.1-361z"/>
				<path id="Path_5754" class="st56" d="M3.1-370.3c0-1-0.8-1.8-1.8-1.8c-1,0-1.8,0.8-1.8,1.8s0.8,1.8,1.8,1.8
					c0.5,0,0.9-0.2,1.3-0.5C3-369.4,3.1-369.8,3.1-370.3z"/>
			</g>
			<g id="Group_2942" transform="translate(35.295)">
				<path id="Path_5755" class="st56" d="M-0.5-361c0-1,0.8-1.8,1.8-1.8s1.8,0.8,1.8,1.8c0,1-0.8,1.8-1.8,1.8c0,0,0,0,0,0
					C0.3-359.2-0.5-360-0.5-361z"/>
				<path id="Path_5756" class="st56" d="M7.5-370.3c0-1,0.8-1.8,1.8-1.8c1,0,1.8,0.8,1.8,1.8c0,1-0.8,1.8-1.8,1.8
					c-0.5,0-0.9-0.2-1.3-0.5C7.7-369.4,7.5-369.8,7.5-370.3L7.5-370.3z"/>
			</g>
		</g>
	</g>
	<g id="Group_2950" transform="translate(1584.326 407.195)">
		<g id="_27-2">
			<g id="Group_2949" transform="translate(-1 6)">
				<rect id="Rectangle_3588" x="25.7" y="-135.3" class="st6" width="123.3" height="7.5"/>
				<g id="Group_2948">
					<rect id="Rectangle_3589" x="38" y="-319" class="st46" width="98.6" height="54.9"/>
					<rect id="Rectangle_3590" x="38" y="-257" class="st46" width="98.6" height="115.1"/>
					<g id="Group_2947">
						<path id="Path_5767" class="st47" d="M37.7-318.5v46.9l47.1-46.9H37.7z"/>
						<path id="Path_5768" class="st47" d="M84.7-318.5l-47.1,46.9v129.9h96.7v-176.8H84.7z"/>
						<rect id="Rectangle_3591" x="37.7" y="-236.7" class="st48" width="18.7" height="94.5"/>
						<rect id="Rectangle_3592" x="59.9" y="-228.1" class="st49" width="21.3" height="86.4"/>
						<rect id="Rectangle_3593" x="37.7" y="-212.3" class="st50" width="27" height="70.6"/>
						<rect id="Rectangle_3594" x="64.7" y="-194.9" class="st51" width="27.1" height="53.2"/>
						<rect id="Rectangle_3595" x="89.3" y="-169.9" class="st52" width="38.5" height="28.2"/>
						<path id="Path_5769" class="st53" d="M118.7-277c1.2-3.8-0.9-7.9-4.8-9.1c-0.7-0.2-1.4-0.3-2.2-0.3c-0.2,0-0.4,0-0.6,0
							c-1-5.4-6.2-9-11.6-8.1c-1.4,0.3-2.8,0.8-4,1.7c-2-5.1-7.8-7.6-13-5.6c-3.4,1.4-5.9,4.5-6.3,8.2c-0.6-0.1-1.3-0.2-1.9-0.2
							c-5.5,0-10,4.5-10,10c0,1.2,0.2,2.3,0.6,3.4H118.7z"/>
						<path id="Path_5770" class="st53" d="M134.3-210.1c-4.3-3.4-10.6-2.7-14,1.7c-1.2,1.5-1.9,3.2-2.1,5.1
							c-5.4-1-10.7,2.5-11.7,7.9c-0.3,1.8-0.2,3.6,0.4,5.3h27.4L134.3-210.1z"/>
						<path id="Path_5771" class="st53" d="M133.4-236.7c0.1-0.5,0.2-0.9,0.2-1.4c0-2.6-2-4.7-4.6-4.7c-0.1,0-0.2,0-0.4,0
							c-0.5-3.1-3.1-5.3-6.2-5.4c-1.3,0-2.6,0.4-3.6,1.2c-1.2-3.3-4.8-4.9-8.1-3.7c-2.3,0.8-3.9,3-4.1,5.4c-0.4-0.1-0.8-0.1-1.2-0.1
							c-3.6,0-6.4,3-6.3,6.5c0,0.8,0.1,1.5,0.4,2.2L133.4-236.7z"/>
						<path id="Path_5772" class="st53" d="M95.3-251.1c0.1-0.5,0.2-0.9,0.2-1.4c0-2.6-2-4.7-4.6-4.7c-0.1,0-0.2,0-0.4,0
							c-0.5-3.1-3.1-5.3-6.2-5.4c-1.3,0-2.6,0.4-3.6,1.2c-1.2-3.3-4.8-4.9-8.1-3.7c-2.3,0.8-3.9,3-4.1,5.4c-0.4-0.1-0.8-0.1-1.2-0.1
							c-3.5,0-6.4,3-6.3,6.5c0,0.8,0.1,1.5,0.4,2.2L95.3-251.1z"/>
						<path id="Path_5773" class="st54" d="M134.3-293.3l-96.7,96.4v21.8l96.7-96.4L134.3-293.3z"/>
						<path id="Path_5774" class="st54" d="M134.3-265.5v14.7l-96.7,96.4v-14.7L134.3-265.5z"/>
						<path id="Path_5775" class="st54" d="M134.3-234.9l-93.4,93.2h19.5l73.9-73.7V-234.9z"/>
						<path id="Path_5776" class="st54" d="M108.2-318.5l-70.5,70.4v18.3l88.9-88.7H108.2z"/>
					</g>
					<rect id="Rectangle_3596" x="30.6" y="-138.2" class="st55" width="113.5" height="3"/>
					<path id="Path_5777" class="st6" d="M144.1-257v-68.7H30.6v187.5h113.5V-257z M136.6-141.9H38V-257h98.6L136.6-141.9z
						 M38-264.1V-319h98.6v54.9H38z"/>
				</g>
			</g>
		</g>
		<g id="_28">
			<path id="Path_5778" class="st59" d="M66.6-158.1v-23.6l-3.8,25.1l-4-27.8v27.5l-4-40.3l1.3,38.2l-4.8-26.3l-2.2,25.3l-10-32.3
				l6.2,34.3c0,0-8.4-16.3-8.4-15.2s5.4,20.2,6.5,20.5c1.1,0.4,19.6,5.7,19.6,5.7L66.6-158.1z"/>
			<path id="Path_5779" class="st60" d="M66.6-149.9c0,0,0.7-17.8,6.7-22.9c-4.6,1.4-7.6,7.7-8.1,19.2c-3.2-8.6-1.3-23.1-1.3-23.1
				l-2.4,27.3l-4.6-26.8l-3.3,20.6l-6.4-28.7l3.2,30.8c0,0-4.3-21.2-12.1-27.9c2.2,7.4,11,23.6,9.7,31.2c0,0-3.8-13.7-11-18.1
				c2.9,5.9,9.7,15.3,10.2,22.2C55-143.6,66.6-149.9,66.6-149.9z"/>
			<path id="Path_5780" class="st61" d="M65.1-156.6l-19.7,19.7c-3-1.4-4.9-4.4-4.9-7.7v-6.8c0-1.8,0.6-3.6,1.7-5.1H65.1z"/>
			<path id="Path_5781" class="st62" d="M68.1-156.6c1.1,1.5,1.7,3.3,1.7,5.1v6.9c0,4.7-3.9,8.6-8.6,8.6H49.1
				c-1.3,0-2.6-0.3-3.7-0.9l19.7-19.7L68.1-156.6z"/>
		</g>
		<g id="Group_2951" transform="translate(138.674 51.805)">
			<rect id="Rectangle_3588-2" x="-2.1" y="-181.1" class="st6" width="123.3" height="7.5"/>
			<g id="Group_2948-2" transform="translate(4.883)">
				<rect id="Rectangle_3589-2" x="5.3" y="-364.8" class="st46" width="98.6" height="54.9"/>
				<rect id="Rectangle_3590-2" x="5.3" y="-302.8" class="st46" width="98.6" height="115.1"/>
				<g id="Group_2947-2" transform="translate(9.76 7.202)">
					<path id="Path_5767-2" class="st47" d="M94.5-371.5v46.9l-47.1-46.9H94.5z"/>
					<path id="Path_5768-2" class="st47" d="M47.4-371.5l47.1,46.9v129.9H-2.1v-176.8H47.4z"/>
					<rect id="Rectangle_3591-2" x="75.9" y="-289.7" class="st48" width="18.7" height="94.5"/>
					<rect id="Rectangle_3592-2" x="51.1" y="-281.2" class="st49" width="21.3" height="86.4"/>
					<rect id="Rectangle_3593-2" x="67.5" y="-265.3" class="st50" width="27" height="70.6"/>
					<rect id="Rectangle_3594-2" x="40.4" y="-247.9" class="st51" width="27.1" height="53.2"/>
					<rect id="Rectangle_3595-2" x="4.4" y="-223" class="st52" width="38.5" height="28.2"/>
					<path id="Path_5769-2" class="st53" d="M13.5-330c-1.2-3.8,0.9-7.9,4.8-9.1c0.7-0.2,1.4-0.3,2.2-0.3c0.2,0,0.4,0,0.6,0
						c1-5.4,6.2-9,11.6-8.1c1.4,0.3,2.8,0.8,4,1.6c2-5.1,7.8-7.6,13-5.6c3.5,1.4,5.9,4.5,6.3,8.2c0.6-0.1,1.3-0.2,1.9-0.2
						c5.5,0,10,4.5,10,10c0,1.2-0.2,2.3-0.6,3.4H13.5z"/>
					<path id="Path_5770-2" class="st53" d="M-2.1-263.2c4.3-3.4,10.6-2.7,14,1.7c1.2,1.5,1.9,3.2,2.1,5.1c5.4-1,10.7,2.5,11.7,7.9
						c0.3,1.8,0.2,3.6-0.4,5.3H-2.1V-263.2z"/>
					<path id="Path_5771-2" class="st53" d="M-1.2-289.7c-0.1-0.5-0.2-0.9-0.2-1.4c0-2.6,2-4.7,4.6-4.7c0.1,0,0.2,0,0.4,0
						c0.5-3.1,3.1-5.3,6.2-5.4c1.3,0,2.6,0.4,3.6,1.2c1.2-3.3,4.8-4.9,8.1-3.7c2.3,0.8,3.9,3,4.1,5.4c0.4-0.1,0.8-0.1,1.2-0.1
						c3.6,0,6.4,3,6.3,6.5c0,0.8-0.1,1.5-0.4,2.2L-1.2-289.7z"/>
					<path id="Path_5772-2" class="st53" d="M36.9-304.1c-0.1-0.5-0.2-0.9-0.2-1.4c0-2.6,2-4.7,4.6-4.7c0.1,0,0.2,0,0.4,0
						c0.5-3.1,3.1-5.3,6.2-5.4c1.3,0,2.6,0.4,3.6,1.2c1.2-3.3,4.8-4.9,8.1-3.7c2.3,0.8,3.9,3,4.1,5.4c0.4-0.1,0.8-0.1,1.2-0.1
						c3.6,0,6.4,3,6.3,6.5c0,0.8-0.1,1.5-0.4,2.2H36.9z"/>
					<path id="Path_5773-2" class="st54" d="M-2.1-346.3l96.7,96.4v21.8l-96.7-96.4V-346.3z"/>
					<path id="Path_5774-2" class="st54" d="M-2.1-318.5v14.7l96.7,96.4v-14.7L-2.1-318.5z"/>
					<path id="Path_5775-2" class="st54" d="M-2.1-287.9l93.4,93.2H71.7l-73.9-73.7V-287.9z"/>
					<path id="Path_5776-2" class="st54" d="M24-371.5l70.5,70.4v18.3L5.6-371.5H24z"/>
				</g>
				<rect id="Rectangle_3596-2" x="-2.1" y="-184" class="st55" width="113.5" height="3"/>
				<path id="Path_5777-2" class="st6" d="M-2.1-302.8v-68.7h113.5V-184H-2.1V-302.8z M5.3-187.7h98.6v-115.1H5.3V-187.7z
					 M103.9-309.9v-54.9H5.3v54.9H103.9z"/>
			</g>
		</g>
	</g>
	<g id="Group_2955" transform="translate(-1073.747 394.743)">
		<g id="Group_2952" transform="translate(1481.747 417.131)">
			<path id="Path_5782" class="st63" d="M79.9-372.7c1.7,0.2-19.7-2.6-25.4,11.3S41.8-257.5,41.8-257.5S49.5-377.1,79.9-372.7z"/>
			<path id="Path_5783" class="st64" d="M-0.5-344.2c0,0,42.7,6.2,46.6,77.9C46.1-266.3,41.7-316-0.5-344.2z"/>
			<path id="Path_5784" class="st64" d="M46.1-264.4c0,0,6.9-85.9-15.7-92.3C30.4-356.7,48.8-310.9,46.1-264.4z"/>
			<path id="Path_5785" class="st63" d="M43.6-267.5c0,0,10.1-73,39.2-64.3C82.8-331.8,48.7-302.2,43.6-267.5z"/>
			<path id="Path_5786" class="st63" d="M45.2-267.5c0,0-0.1-49.2-40.7-37.8C4.5-305.3,39.2-295.2,45.2-267.5z"/>
			<path id="Path_5787" class="st65" d="M38.7-264.4c0,0,17.6-41.1,35-34.8L38.7-264.4z"/>
		</g>
		<g id="Group_2954" transform="translate(1503.747 518.336)">
			<g id="Group_2953" transform="translate(0.382 1.557)">
				<path id="Path_5788" class="st66" d="M42.9-373.2H-0.5l4.8,69.9c11.4-0.9,22.8-2.8,34.2-4.8L42.9-373.2z"/>
				<path id="Path_5789" class="st67" d="M4.3-303.3L5-292.9h32.5l1-15.1C27.1-306.1,15.7-304.2,4.3-303.3z"/>
				<path id="Path_5790" class="st68" d="M28.2-373.2h-5.4l1.2,60.4L28.2-373.2z"/>
			</g>
			<rect id="Rectangle_3597" x="-0.5" y="-373.2" class="st69" width="44.2" height="1.6"/>
		</g>
	</g>
	<g id="Group_2962" transform="translate(1622.543 753.021)">
		<path id="Path_2887" class="st70" d="M83.1-227.8c5.3,0.3,10.3-2.6,12.6-7.3l26.4-53.2c1.8-3.6,0.3-7.9-3.3-9.7
			c-3.6-1.8-8-0.3-9.8,3.3l0,0l-25.9,52l-35.2-17.4c-3.6-1.8-8-0.3-9.8,3.3c-1.8,3.6-0.3,7.9,3.3,9.7l36.4,18
			C79.6-228.4,81.3-227.9,83.1-227.8z"/>
		<path id="Rectangle_1298" class="st71" d="M35.1-253.3l-6.2-3.1c-1.9-0.9-2.6-3.2-1.7-5l3.7-7.4c0.9-1.9,3.2-2.6,5.1-1.7l6.2,3.1
			c1.9,0.9,2.6,3.2,1.7,5l-3.7,7.4C39.3-253.1,37-252.4,35.1-253.3z"/>
		<path id="Rectangle_1299" class="st72" d="M44.6-247l-7-3.5c-0.1-0.1-0.1-0.2-0.1-0.3l6.4-12.9c0.1-0.1,0.2-0.1,0.3-0.1l7,3.5
			c0.1,0.1,0.1,0.2,0.1,0.3l-6.4,12.9C44.9-247,44.7-247,44.6-247z"/>
		<path id="Path_2888" class="st71" d="M14.3-264.8l21,0.3c0.4,0,0.8,0.4,0.8,0.8c0,0,0,0,0,0l-0.2,8.1c0,0.4-0.4,0.8-0.8,0.8
			L21.3-255c-4.4-0.1-7.9-3.7-7.9-8.1c0,0,0-0.1,0-0.1l0-0.9C13.5-264.4,13.8-264.8,14.3-264.8L14.3-264.8z"/>
		<path id="Path_2889" class="st73" d="M78.1-131.7c4.8,0-0.5,1.9,6,0c6.6-1.9-1.6-36-1.6-36l-4.4-18.2c0,0-4.9-7.4,13.1-8.3
			l61.6-13.7c1.2-4.6-30.2-17.4-34.8-18.6c-4.6-1.2-9.3,1.5-10.5,6.1l-46.3,15c-11.3,4.7,3.2,42.3,3.2,42.3l5,15.2
			C69.4-147.9,73.4-131.7,78.1-131.7z"/>
		<path id="Path_2890" class="st74" d="M57.6-130.2l30.6,0.1c3.6-4,1.9-9.8,0.3-14.5c-6,0-12-0.1-18-0.1c0.1,0.8-0.4,1.5-1.2,1.8
			c-2.5,1.3-9.2,4.1-13.5,7.3c-1.3,1-1.6,2.9-0.6,4.2C55.8-130.6,56.7-130.2,57.6-130.2L57.6-130.2z"/>
		<path id="Path_2891" class="st75" d="M88.1-143.8c-6.2,0-12.5,0-18.7,0c-0.2,0-0.4-0.2-0.4-0.4c0,0,0,0,0,0c0-0.9,0-1.8,0-2.7
			c0-0.2,0.2-0.4,0.4-0.4c0,0,0,0,0,0c6.2,0,12.5,0,18.7,0c0.2,0,0.4,0.2,0.4,0.4v2.7C88.4-144,88.2-143.8,88.1-143.8L88.1-143.8z"
			/>
		<path id="Path_2892" class="st73" d="M137.9-147.2h0.2c4.8,0,8.5-1.6,8.4-3.6c0-0.3-1.4-26-1.4-34.4c0-7.2,1.4-28.5,1.4-28.7
			c0.1-1.9-3.6-3.6-8.4-3.6c-4.8-0.1-8.7,1.5-8.9,3.4c-0.1,0.9-1.4,21.7-1.4,28.9c0,8.5,1.4,34.2,1.4,34.5
			C129.4-148.8,133.2-147.2,137.9-147.2z"/>
		<path id="Path_2893" class="st74" d="M116.4-139.1l30.6,0.1c3.6-4,1.9-9.8,0.3-14.5c-6,0-12-0.1-18-0.1c0.1,0.8-0.4,1.5-1.2,1.8
			c-2.5,1.3-9.2,4.1-13.5,7.3c-1.3,1-1.6,2.9-0.6,4.2C114.6-139.6,115.4-139.1,116.4-139.1L116.4-139.1z"/>
		<path id="Path_2894" class="st75" d="M147.5-152.8c-6.2,0-12.5,0-18.7,0c-0.2,0-0.4-0.2-0.4-0.4c0,0,0,0,0,0c0-0.9,0-1.8,0-2.7
			c0-0.2,0.2-0.4,0.4-0.4c0,0,0,0,0,0c6.2,0,12.5,0,18.7,0c0.2,0,0.4,0.2,0.4,0.4c0,0.9,0,1.8,0,2.7
			C147.9-153,147.7-152.8,147.5-152.8z"/>
		<path id="Path_2895" class="st76" d="M104.5-194.1c7.7,5.8,32.8,5.1,39.9,0c8.2-5.9,0-33.5,0-33.5h-39.9
			C104.5-227.5,96.4-200.1,104.5-194.1z"/>
		<path id="Path_2896" class="st72" d="M144.8-213.6H104v-85.8l27.1-5.9l14.4,4L144.8-213.6z"/>
		<path id="Path_2897" class="st76" d="M134.4-218.2c-8.8,2.4-17.8,3.5-26.9,3.2c-1.4-0.1-3.5-0.1-3.5-0.1l0,0l-0.3-2.5l0.1-0.2
			c0,0,2.1,0.1,3.5,0.1c9.1,0.2,18.1-0.9,26.9-3.2c0,0,9.3,3.1,7,6.4C139.2-216.5,134.4-218.2,134.4-218.2z"/>
		<path id="Path_2898" class="st77" d="M134.1-211.4c-16.5,4.1-29.3,2.2-29.3,2.2l-0.8-6.2l0,0c0,0,2.1,0.1,3.5,0.1
			c9.1,0.2,18.1-0.9,26.9-3.2c0,0,4.9,1.6,6.7,3.8C140.3-213.5,138.2-212.4,134.1-211.4z"/>
		<path id="Path_2899" class="st78" d="M125.8-267.7c2.6-15.5,13.5-33.9,13.5-33.9l-3.8-1.1v-2.5c0,0,25.8,1.9,27.5,10.2
			c3.3,16-6.3,32.4-13.7,46c-7.4,13.6-6.8,19.4-5.2,27.4c1.6,7.9,7.8,9.8,7.1,28.8c0,0.4-0.1,2.4-0.1,2.4h-20.4
			c-3.8,0-6.9-3.1-7-6.9C123.4-214.4,122.2-246.7,125.8-267.7z"/>
		<path id="Path_2900" class="st79" d="M149.3-297.2L149.3-297.2"/>
		<path id="Path_2901" class="st80" d="M138.1-301.1l-2.6-0.8v-1.4c3.8,0.5,7.6,1.4,11.3,2.5c0.1,0,0.2,0.1,0.4,0.2
			c0.9,0.6,1.6,1.4,2.2,2.3l0,0c0.3,0.8,0.1,1.7-1.3,2.3l0,0c-0.4,0.2-0.8,0.3-1.2,0.4c-6,1.4-7.3,3.3-7.3,3.3l2.6,1.6
			c1.1,0.7,1.5,2.1,0.9,3.3c-0.4,0.7-0.8,1.4-1,1.8c-17.6,31.8-18.6,60.3-18.7,61.6c0-14.6,0.5-30.7,2.5-42.9
			c2.2-13.3,10.6-28.7,12.9-32.8c0.3-0.5,0.1-1-0.4-1.3C138.2-301.1,138.2-301.1,138.1-301.1L138.1-301.1z"/>
		<path id="Path_2902" class="st78" d="M120.3-304.8c-5.7,0.7-15,3.1-18.2,7.1c-4.7,5.8-2,39.7-0.5,46.7c1.5,7,3.8,18.3,3.2,28.1
			c-0.5,9.8-5.5,20.6-4,30.8c0,0.1,0.1,0.3,0.1,0.3h3.4c3.9,0,7-3.1,7-7c0,0,0,0,0,0c0-7.3-0.2-19-1-28.1
			c-2.2-24.1-2.2-55.4,3.8-67.9c1.5-2.6,3.3-5,5.5-7.1c0.3-0.3,0.6-0.4,1-0.4l1.6,0.1v-2.7C122-304.9,120.7-304.8,120.3-304.8z"/>
		<path id="Path_2903" class="st80" d="M103.5-286.7c0-0.3,0.1-0.7,0.1-1.1c0.1-1,0.7-1.9,1.5-2.4l4.6-3c0,0-2.5-1.5-2.6-2.5
			c-0.1-1,5.4-5.1,12.5-7.2c0.4-0.1,0.8-0.2,1.2-0.2c0.3,0,0.7-0.1,1-0.1v1.6l-1.6,0c-0.4,0-0.7,0.1-1,0.4c-2.2,2.1-4,4.5-5.5,7.1
			c-5.8,12.3-5.9,42.4-3.9,66.3C107.2-237.6,101.2-262.8,103.5-286.7z"/>
		<path id="Path_2904" class="st81" d="M116.4-208.2c0,0,0.1,0,0.1,0l5.7-0.4c1-0.1,1.7-0.9,1.6-1.9l-0.3-4.3
			c-0.1-1-0.9-1.7-1.9-1.6L116-216c-0.5,0-0.9,0.3-1.2,0.6c-0.3,0.4-0.5,0.8-0.4,1.3l0.3,4.3c0,0.5,0.3,0.9,0.6,1.2
			C115.6-208.3,116-208.2,116.4-208.2z M121.8-215.5c0.4,0,0.8,0.3,0.8,0.7l0.3,4.3c0,0.4-0.3,0.8-0.7,0.8l-5.7,0.4
			c-0.4,0-0.8-0.3-0.8-0.7c0,0,0,0,0,0l-0.3-4.3c0-0.2,0.1-0.4,0.2-0.6c0.1-0.2,0.3-0.3,0.5-0.3L121.8-215.5L121.8-215.5z"/>
		<path id="Path_2905" class="st80" d="M132.3-259.5l13.8,0.2c0.5,0,0.8-0.3,0.9-0.8l0.1-1.2c0.1-0.4-0.2-0.8-0.6-0.8
			c0,0-0.1,0-0.1,0l-13.8-0.2c-0.5,0-0.8,0.3-0.9,0.8l-0.1,1.2c-0.1,0.4,0.2,0.8,0.6,0.8C132.2-259.5,132.2-259.5,132.3-259.5
			L132.3-259.5z"/>
		<path id="Path_2906" class="st82" d="M118.4-279.7l20.4-14.5v-50.4h-18.7v48.4L118.4-279.7z"/>
		<path id="Path_2907" class="st82" d="M124-305.2h-13.7c-5.8,0-10.5-4.7-10.5-10.5l0,0v-32c0-6.9,5.6-12.5,12.5-12.5h9.7
			c6.9,0,12.5,5.6,12.5,12.5v32C134.5-309.9,129.8-305.2,124-305.2z"/>
		<rect id="Rectangle_1300" x="129.6" y="-351.5" class="st83" width="9" height="13.8"/>
		<rect id="Rectangle_1301" x="129.7" y="-351.4" class="st84" width="9" height="20.4"/>
		<path id="Path_2908" class="st71" d="M120.5-315h3.2c3.6,0,6.5-2.9,6.5-6.5l0,0v-2.3h3.8v11.3l0,0v1.8c0,7.9-5.8,14.6-13.6,15.8
			l0.1-1.3L120.5-315z"/>
		<path id="Path_2909" class="st82" d="M139.2-329.6h-6.3v-3.2c0-3.4,2.8-6.2,6.3-6.2l0,0c2.6,0,4.7,2.1,4.7,4.7l0,0
			C143.9-331.7,141.8-329.6,139.2-329.6L139.2-329.6z"/>
		<path id="Path_2910" class="st71" d="M139.3-331.7L139.3-331.7c-1.4,0-2.6-1.2-2.6-2.6l0,0c0-1.4,1.2-2.6,2.6-2.6l0,0
			c1.4,0,2.6,1.2,2.6,2.6l0,0C141.9-332.9,140.7-331.7,139.3-331.7z"/>
		<path id="Path_2911" class="st85" d="M105-346.8h34.6c0-10.4-8.5-18.8-18.9-18.8c0,0,0,0,0,0H92v5.9
			C92-352.5,97.8-346.8,105-346.8L105-346.8z"/>
		<path id="Path_2912" class="st84" d="M117.5-346.8h7.2c0-11.8-9.6-21.4-21.4-21.4h-6.2v1C97.1-355.9,106.2-346.8,117.5-346.8
			C117.5-346.8,117.5-346.8,117.5-346.8L117.5-346.8z"/>
		<path id="Path_2913" class="st85" d="M127.5-346.8L127.5-346.8v-5.4c0-11.3-9.2-20.4-20.5-20.4h0l0,0v5.4
			C107-355.9,116.2-346.8,127.5-346.8L127.5-346.8z"/>
		<path id="Path_2914" class="st85" d="M134.5-314.1c0,5.8-4.7,10.5-10.5,10.5h0h-13.7c-5.8,0-10.5-4.7-10.5-10.5l0,0v-4.3
			c0-3,2.5-5.5,5.5-5.5h0h21.8c4.1,0,7.4,3.3,7.4,7.4c0,0,0,0,0,0L134.5-314.1z"/>
		<path id="Path_2915" class="st82" d="M109.1-311.5h10.8c2.3,0,4.2-1.9,4.2-4.2l0,0c0-3.4-2.8-6.2-6.2-6.2c0,0,0,0,0,0h-8.8
			c-2.7,0-4.8,2.2-4.8,4.8v0.7C104.2-313.7,106.4-311.5,109.1-311.5C109.1-311.5,109.1-311.5,109.1-311.5L109.1-311.5z"/>
		<path id="Path_2916" class="st85" d="M129.9-317.3h3.8V-334l0,0c-2.1,0-3.8,1.7-3.8,3.8l0,0V-317.3z"/>
		<path id="Path_2917" class="st85" d="M118.7-300.8l0.7-0.2c0.3-0.1,0.5,0.1,0.6,0.4c0,0.1,0,0.1,0,0.2l-1.1,14.4
			c0,0,0.1-0.2,0.2-0.3c0.1-0.2,0.3-0.4,0.4-0.5c5.9-7.8,16.3-13,19.3-14.3l0,0.3l1.2,0.3c0.4,0.1,0.6,0.5,0.5,1
			c-0.1,0.2-0.2,0.4-0.4,0.5c-9.2,4.9-17.6,13.2-20.5,16.2c-0.7,0.7-1.7,1-2.7,0.7l0,0c-0.2-0.1-0.4-0.3-0.4-0.5l0.8-16.5
			C117.3-300,117.9-300.6,118.7-300.8L118.7-300.8z"/>
		<path id="Path_2918" class="st84" d="M138.9-345.5L138.9-345.5v-5.4c0-11.3-9.2-20.4-20.5-20.4c0,0,0,0,0,0l0,0v5.4
			C118.4-354.7,127.6-345.5,138.9-345.5C138.9-345.5,138.9-345.5,138.9-345.5z"/>
		<path id="Rectangle_1302" class="st86" d="M121.5-335.1L121.5-335.1c1.7,0,3.1,1.4,3.1,3v0.8c0,1.7-1.4,3-3.1,3l0,0
			c-1.7,0-3.1-1.4-3.1-3v-0.8C118.4-333.7,119.8-335.1,121.5-335.1z"/>
		<path id="Rectangle_1303" class="st87" d="M121.7-333.8L121.7-333.8c1.3,0,2.4,1.1,2.4,2.4v0.7c0,1.3-1.1,2.4-2.4,2.4l0,0
			c-1.3,0-2.4-1.1-2.4-2.4v-0.7C119.3-332.7,120.4-333.8,121.7-333.8z"/>
		<path id="Rectangle_1304" class="st84" d="M117.2-338.6h8.9c0.5,0,0.9,0.4,0.9,0.9v0.7c0,0.5-0.4,0.9-0.9,0.9h-8.9
			c-0.5,0-0.9-0.4-0.9-0.9v-0.7C116.3-338.2,116.7-338.6,117.2-338.6z"/>
		<path id="Rectangle_1305" class="st84" d="M100.3-338.6h8.9c0.5,0,0.9,0.4,0.9,0.9v0.7c0,0.5-0.4,0.9-0.9,0.9h-8.9
			c-0.5,0-0.9-0.4-0.9-0.9v-0.7C99.4-338.2,99.8-338.6,100.3-338.6z"/>
		<path id="Path_2919" class="st88" d="M108.5-316.2c-0.5-0.8-0.9-1.7-1.1-2.7c-0.1-0.6,0.3-1.3,1-1.4c0.1,0,0.1,0,0.2,0h8
			c0.7,0,1.2,0.5,1.2,1.2c0,0.1,0,0.1,0,0.2c-0.2,1-0.6,2-1.2,2.8c-0.8-1.3-2.2-2.2-3.8-2.3C111.1-318.4,109.5-317.6,108.5-316.2z"
			/>
		<path id="Path_2920" class="st89" d="M108.5-316.2c1-1.4,2.6-2.2,4.3-2.2c1.5,0.2,2.9,1,3.8,2.3c-1.4,2.2-4.4,2.8-6.6,1.4
			C109.4-315,108.9-315.5,108.5-316.2z"/>
		<path id="Rectangle_1306" class="st71" d="M102-327h3.8c0.7,0,1.3,0.6,1.3,1.3l0,0c0,0.7-0.6,1.3-1.3,1.3H102
			c-0.7,0-1.3-0.6-1.3-1.3l0,0C100.8-326.4,101.3-327,102-327z"/>
		<path id="Rectangle_1307" class="st71" d="M119.9-327h3.8c0.7,0,1.3,0.6,1.3,1.3l0,0c0,0.7-0.6,1.3-1.3,1.3h-3.8
			c-0.7,0-1.3-0.6-1.3-1.3l0,0C118.6-326.4,119.2-327,119.9-327z"/>
		<path id="Path_2922" class="st78" d="M163.2-224.1c3.5-2.7,5.4-6.9,5-11.3l-4-54.3c-0.3-4-3.7-7-7.8-6.7c-4,0.3-7,3.7-6.8,7.7
			c0,0,0,0,0,0.1l3.9,52.6l-34.8-1.9c-4-0.2-7.4,2.8-7.7,6.8c-0.2,4,2.9,7.4,6.9,7.7l0,0l36.5,2
			C157.6-221.3,160.7-222.2,163.2-224.1z"/>
		<path id="Path_2932" class="st90" d="M69.3-339.9l-3.9,1.5l3.9,1.5l1.5,3.9l1.5-3.9l3.9-1.5l-3.9-1.5l-1.5-3.9L69.3-339.9z"/>
		<path id="Path_2933" class="st90" d="M82.9-336l-7.3,2.9l7.3,2.9l2.9,7.3l2.9-7.3l7.3-2.9l-7.3-2.9l-2.9-7.3L82.9-336z"/>
		<path id="Rectangle_3599" class="st86" d="M105.5-335.1L105.5-335.1c1.7,0,3.1,1.4,3.1,3v0.8c0,1.7-1.4,3-3.1,3l0,0
			c-1.7,0-3.1-1.4-3.1-3v-0.8C102.4-333.7,103.8-335.1,105.5-335.1z"/>
		<path id="Rectangle_3600" class="st87" d="M105.7-333.8L105.7-333.8c1.3,0,2.4,1.1,2.4,2.4v0.7c0,1.3-1.1,2.4-2.4,2.4l0,0
			c-1.3,0-2.4-1.1-2.4-2.4v-0.7C103.3-332.7,104.4-333.8,105.7-333.8z"/>
	</g>
	<g id="Group_2963" transform="translate(1717.176 837.255)">
		<path id="Rectangle_3342" class="st4" d="M0.8-281.5h89c1.6,0,3,1.3,3,3v5.6c0,1.6-1.3,3-3,3h-89c-1.6,0-3-1.3-3-3v-5.6
			C-2.1-280.2-0.8-281.5,0.8-281.5z"/>
		<path id="Rectangle_3343" class="st5" d="M0.8-281.5h89c1.6,0,3,1.3,3,3v5.6c0,1.6-1.3,3-3,3h-89c-1.6,0-3-1.3-3-3v-5.6
			C-2.1-280.2-0.8-281.5,0.8-281.5z"/>
		<path id="Rectangle_3344" class="st4" d="M5.5-281.5h89c1.6,0,3,1.3,3,3v5.6c0,1.6-1.3,3-3,3h-89c-1.6,0-3-1.3-3-3v-5.6
			C2.6-280.2,3.9-281.5,5.5-281.5z"/>
		<path id="Path_5541" class="st7" d="M6.6-270c1.6,3.7,5.3,6.1,9.4,6.1h63.2c4.1,0,7.8-2.4,9.4-6.1H6.6z"/>
		<path id="Path_5542" class="st7" d="M11.4-270c1.6,3.7,5.3,6.1,9.4,6.1h63.2c4.1,0,7.8-2.4,9.4-6.1L11.4-270z"/>
		<path id="Path_5543" class="st5" d="M11.4-270c1.6,3.7,5.3,6.1,9.4,6.1h63.2c4.1,0,7.8-2.4,9.4-6.1L11.4-270z"/>
		<g id="Group_2736" transform="translate(4.994)">
			<path id="Path_5544" class="st7" d="M49.4-372.9H33.6c-14.1,0-26.1,10.5-27.8,24.5l-8,63.7c0,2.1,1.7,3.8,3.8,3.8h80.8
				c2.1,0,3.8-1.7,3.8-3.8l-9-64.1C75.2-362.6,63.4-372.9,49.4-372.9z"/>
			<path id="Path_5545" class="st7" d="M1.6-281c1.6,3.7,5.3,6.1,9.4,6.1h63.2c4.1,0,7.8-2.4,9.4-6.1H1.6z"/>
			<path id="Path_5546" class="st7" d="M6.4-281c1.6,3.7,5.3,6.1,9.4,6.1h63.2c4.1,0,7.8-2.4,9.4-6.1L6.4-281z"/>
			<path id="Path_5547" class="st5" d="M6.4-281c1.6,3.7,5.3,6.1,9.4,6.1h63.2c4.1,0,7.8-2.4,9.4-6.1L6.4-281z"/>
			<path id="Path_5548" class="st5" d="M87.4-279.2c0.4-0.6,0.8-1.2,1.1-1.8H1.6c0.3,0.6,0.6,1.2,1.1,1.8H87.4z"/>
			<path id="Path_5549" class="st7" d="M54.8-372.9H39.1c-14.1,0-26.1,10.5-27.8,24.5l-8,63.7c0,2.1,1.7,3.8,3.8,3.8h80.8
				c2.1,0,3.8-1.7,3.8-3.8l-9-64.1C80.7-362.6,68.8-372.9,54.8-372.9z"/>
			<path id="Path_5550" class="st5" d="M54.8-372.9H39.1c-14.1,0-26.1,10.5-27.8,24.5l-8,63.7c0,2.1,1.7,3.8,3.8,3.8h80.8
				c2.1,0,3.8-1.7,3.8-3.8l-9-64.1C80.7-362.6,68.8-372.9,54.8-372.9z"/>
		</g>
		<g id="Group_2738" transform="translate(44.409 54.86)">
			<path id="Rectangle_3345" class="st91" d="M2.5-373.1h9.8c0.7,0,1.2,0.5,1.2,1.2v41H1.2v-40.9C1.2-372.5,1.8-373.1,2.5-373.1z"/>
			<path id="Path_5551" class="st91" d="M1.2-371.2v40.3h1.7v-42.2C1.9-373,1.2-372.2,1.2-371.2z"/>
			<g id="Group_2737" transform="translate(3.503)">
				<path id="Path_5552" class="st5" d="M-0.6-373.1c-0.5,0-0.9,0.3-1.2,0.6C-1.5-372.8-1.1-373-0.6-373.1z"/>
				<path id="Path_5553" class="st5" d="M8.2-373.1h-8.6c-0.1,0-0.1,0-0.2,0v42.2H10v-40.4C10-372.3,9.2-373.1,8.2-373.1z"/>
				<path id="Path_5554" class="st5" d="M-2.2-371.9c0.1-0.2,0.2-0.3,0.3-0.4C-2-372.2-2.1-372.1-2.2-371.9z"/>
			</g>
			<path id="Path_5555" class="st91" d="M-2.2-349.9h16.8v20.8c0,4.6-3.8,8.4-8.4,8.4s-8.4-3.7-8.4-8.4L-2.2-349.9z"/>
			<path id="Path_5556" class="st91" d="M-0.3-349.9h16.8v20.8c0.1,4.6-3.7,8.4-8.3,8.5c-4.6,0.1-8.4-3.7-8.5-8.3c0-0.1,0-0.1,0-0.2
				V-349.9z"/>
			<path id="Path_5557" class="st5" d="M-0.3-349.9h16.8v20.8c0.1,4.6-3.7,8.4-8.3,8.5c-4.6,0.1-8.4-3.7-8.5-8.3c0-0.1,0-0.1,0-0.2
				V-349.9z"/>
		</g>
		<g id="Group_2739" transform="translate(14.017 151.642)">
			<path id="Path_5558" class="st5" d="M5.2-369.8c0-1.2-0.6-2.3-1.5-3v-0.7H1.5c-2,0-3.6,1.7-3.6,3.7c0,2,1.6,3.6,3.6,3.6h2.2v-0.7
				C4.6-367.5,5.2-368.6,5.2-369.8L5.2-369.8z"/>
			<path id="Path_5559" class="st5" d="M5.2-369.8c0-1.2-0.6-2.3-1.5-3v-0.7H1.5c-2,0-3.6,1.7-3.6,3.7c0,2,1.6,3.6,3.6,3.6h2.2v-0.7
				C4.6-367.5,5.2-368.6,5.2-369.8L5.2-369.8z"/>
			<path id="Path_5560" class="st7" d="M0-369.8c0-2,1.6-3.7,3.7-3.7c2,0,3.7,1.6,3.7,3.7c0,2-1.6,3.7-3.7,3.7c0,0,0,0,0,0
				C1.6-366.2,0-367.8,0-369.8L0-369.8z"/>
			<path id="Path_5561" class="st5" d="M1.5-369.8c0-1.2,1-2.1,2.1-2.1c1.2,0,2.1,1,2.1,2.1c0,1.2-1,2.1-2.1,2.1c0,0,0,0,0,0
				C2.5-367.7,1.5-368.6,1.5-369.8z"/>
		</g>
		<g id="Group_2740" transform="translate(49.5 151.642)">
			<path id="Path_5562" class="st5" d="M5.1-369.8c0-1.2-0.6-2.3-1.5-3v-0.7H1.4c-2,0-3.6,1.7-3.6,3.7c0,2,1.6,3.6,3.6,3.6h2.2v-0.7
				C4.6-367.5,5.1-368.6,5.1-369.8L5.1-369.8z"/>
			<path id="Path_5563" class="st5" d="M5.1-369.8c0-1.2-0.6-2.3-1.5-3v-0.7H1.4c-2,0-3.6,1.7-3.6,3.7c0,2,1.6,3.6,3.6,3.6h2.2v-0.7
				C4.6-367.5,5.1-368.6,5.1-369.8L5.1-369.8z"/>
			<path id="Path_5564" class="st7" d="M0-369.8c0-2,1.6-3.7,3.7-3.7c2,0,3.7,1.6,3.7,3.7c0,2-1.6,3.7-3.7,3.7l0,0
				C1.6-366.2,0-367.8,0-369.8L0-369.8L0-369.8z"/>
			<path id="Path_5565" class="st5" d="M1.5-369.8c0-1.2,1-2.1,2.1-2.1c1.2,0,2.1,1,2.1,2.1c0,1.2-1,2.1-2.1,2.1
				S1.5-368.6,1.5-369.8C1.5-369.8,1.5-369.8,1.5-369.8z"/>
		</g>
		<g id="Group_2741" transform="translate(82.743 151.642)">
			<path id="Path_5566" class="st5" d="M5.1-369.8c0-1.2-0.6-2.3-1.5-3v-0.7H1.4c-2,0-3.6,1.7-3.6,3.7c0,2,1.6,3.6,3.6,3.6h2.2v-0.7
				C4.5-367.5,5.1-368.6,5.1-369.8L5.1-369.8z"/>
			<path id="Path_5567" class="st5" d="M5.1-369.8c0-1.2-0.6-2.3-1.5-3v-0.7H1.4c-2,0-3.6,1.7-3.6,3.7c0,2,1.6,3.6,3.6,3.6h2.2v-0.7
				C4.5-367.5,5.1-368.6,5.1-369.8L5.1-369.8z"/>
			<path id="Path_5568" class="st7" d="M-0.1-369.8c0-2,1.6-3.7,3.7-3.7c2,0,3.7,1.6,3.7,3.7c0,2-1.6,3.7-3.7,3.7l0,0
				C1.6-366.2-0.1-367.8-0.1-369.8z"/>
			<path id="Path_5569" class="st5" d="M1.4-369.8c0-1.2,1-2.1,2.1-2.1c1.2,0,2.1,1,2.1,2.1c0,1.2-1,2.1-2.1,2.1
				S1.4-368.6,1.4-369.8C1.4-369.8,1.4-369.8,1.4-369.8z"/>
		</g>
		<path id="Path_5570" class="st5" d="M47.4-231.5l-34.1,9.5c-2.5,0.7-4.7,2-6.5,3.8l-0.1,0.1h3.5l38.2-3.8v-8.5L47.4-231.5z"/>
		<path id="Path_5571" class="st5" d="M59-255.4H42.6l-1.2-8.3h18.9L59-255.4z"/>
		<path id="Path_5572" class="st5" d="M44.3-263.7l1.2,8.3H59l1.2-8.3H44.3z"/>
		<rect id="Rectangle_3346" x="47.4" y="-255.4" class="st5" width="7.8" height="25"/>
		<path id="Path_5573" class="st5" d="M47.4-230.5l-30.6,8.4c-2.5,0.7-4.7,2-6.5,3.8l-0.1,0.1l41.6-3.8v-8.5H47.4z"/>
		<path id="Path_5574" class="st5" d="M56.1-230.5l30.6,8.4c2.5,0.7,4.7,2,6.5,3.8l0.1,0.1L51.8-222v-8.5H56.1z"/>
		<path id="Path_5575" class="st5" d="M52.7-226.9c-1.6,0.2-2.8,1.6-2.8,3.2v5.2h5.6v-5.2C55.5-225.3,54.3-226.7,52.7-226.9z"/>
		<path id="Path_5576" class="st5" d="M44.3-263.7l1.2,8.3H59l1.2-8.3H44.3z"/>
		<rect id="Rectangle_3347" x="49.3" y="-255.4" class="st5" width="5.9" height="25"/>
		<path id="Path_5577" class="st5" d="M47.4-230.5l-30.6,8.4c-2.5,0.7-4.7,2-6.5,3.8l-0.1,0.1l41.6-3.8v-8.5H47.4z"/>
		<path id="Path_5578" class="st5" d="M56.1-230.5l30.6,8.4c2.5,0.7,4.7,2,6.5,3.8l0.1,0.1L51.8-222v-8.5H56.1z"/>
		<path id="Rectangle_3348" class="st5" d="M50.8-226.9h2.5c1.2,0,2.2,1,2.2,2.2c0,0,0,0,0,0v6.2h-6.9v-6.2
			C48.6-225.9,49.6-226.9,50.8-226.9C50.8-226.9,50.8-226.9,50.8-226.9z"/>
		<path id="Path_5579" class="st5" d="M52.7-226.9c-1.6,0.2-2.8,1.6-2.8,3.2v5.2h5.6v-5.2C55.5-225.3,54.3-226.7,52.7-226.9z"/>
	</g>
</g>
</svg>
