<?xml version="1.0" encoding="utf-8"?>
<!-- Generator: Adobe Illustrator 23.0.1, SVG Export Plug-In . SVG Version: 6.00 Build 0)  -->
<svg version="1.1" id="Слой_1" xmlns="http://www.w3.org/2000/svg" xmlns:xlink="http://www.w3.org/1999/xlink" x="0px" y="0px"
	 viewBox="0 0 1024 320" style="enable-background:new 0 0 1024 320;" xml:space="preserve">
<style type="text/css">
	.st0{fill:#F0FCFF;}
	.st1{opacity:0.43;}
	.st2{fill:#B0BEC5;}
	.st3{fill:#90A4AE;}
	.st4{fill:#E7EFF2;}
	.st5{fill:#D1E0E5;}
	.st6{fill:#CFD8DC;}
	.st7{fill:#FBFFFF;}
	.st8{fill:#8BC34A;}
	.st9{fill:#689F38;}
	.st10{fill:#9CCC65;}
	.st11{fill:#C5F294;}
	.st12{fill:#6D4C41;}
	.st13{fill:#795548;}
	.st14{fill:#388E3C;}
	.st15{fill:#2E7D32;}
	.st16{fill:#C5E1A5;}
</style>
<g id="Group_4965" transform="translate(0.249 -359.596)">
	<path id="Path_3139" class="st0" d="M521.9,391.2c1.4-7.5-3.6-14.7-11.1-16.1c-5.9-1.1-11.8,1.7-14.6,7c-3.7-3.9-9.5-4.8-14.2-2.3
		c-3.3-6.1-10.4-9.2-17.1-7.5c-2.8-9.3-12.6-14.7-21.9-11.9c-6.7,2-11.6,7.8-12.5,14.7c-7.5-1.1-14.5,4.2-15.6,11.7
		c-0.2,1.5-0.2,2.9,0.1,4.4H521.9z"/>
	<path id="Path_3168" class="st0" d="M940,499.4c-6.9,0-12.6,5.6-12.6,12.6h25.1C952.6,505.1,946.9,499.4,940,499.4L940,499.4z"/>
	<path id="Path_3169" class="st0" d="M143,443.9c-3,0-5.9,1.1-8.1,3.1c-4.9-8-15.3-10.4-23.3-5.6c-5,3.1-8.1,8.5-8.1,14.4H155
		C155,449.3,149.6,443.9,143,443.9z"/>
	<path id="Path_3170" class="st0" d="M791.6,437.6c-3,0-5.9,1.1-8.1,3.1c-4.9-8-15.3-10.4-23.3-5.6c-5,3.1-8.1,8.5-8.1,14.4h51.4
		C803.6,443,798.2,437.6,791.6,437.6z"/>
	<g id="Group_1409" transform="translate(-108.597 728.49)" class="st1">
		<g id="Group_1405" transform="translate(326.354 171.73)">
			<path id="Path_3120" class="st2" d="M29.4-372.1l-69,125.7H86.8L29.4-372.1z"/>
			<path id="Path_3121" class="st3" d="M-39.6-246.5l68.4-0.5l-4.9-43.2l-7.3-9.5l12.5-72L-39.6-246.5z"/>
			<path id="Path_3122" class="st4" d="M33.9-335.9l15.9,8.1l-20.4-44.4l-13.8,40.2l6,2.5L33.9-335.9z"/>
			<path id="Path_3123" class="st5" d="M8.7-334.8l13,5.3l7.4-42.2L8.7-334.8z"/>
		</g>
		<g id="Group_1406" transform="translate(108.348 179.978)">
			<path id="Path_3124" class="st2" d="M64.6-373.6L0-256.1h129.2L64.6-373.6z"/>
			<path id="Path_3125" class="st3" d="M0-256.1l59.9-0.4L58-311.6l-6.6-5.6l12.8-56L0-256.1z"/>
			<path id="Path_3126" class="st4" d="M71.6-343.4l14,7.5l-21.1-37.7l-7.5,29.8l7.9,3.9L71.6-343.4z"/>
			<path id="Path_3127" class="st5" d="M45.2-338.7l11.9-5.2l7.2-29.4L45.2-338.7z"/>
		</g>
		<g id="Group_1407" transform="translate(170.072 121.51)">
			<path id="Path_3128" class="st2" d="M87.1-363L7-196.2h176.9l-55.6-103.1l-6.4-1.3L87.1-363z"/>
			<path id="Path_3129" class="st3" d="M-11.2-196.2l46.5-0.6l13.9-53.9l15-15l22.5-96.7l-41.2,75.3l-11.2,6.4L-11.2-196.2z"/>
			<path id="Path_3130" class="st6" d="M128.3-299.4l-6.4-1.3l-15-26.8l5.9,57.3l1.6,20.8l27.3,53.2h42.2L128.3-299.4z"/>
			<path id="Path_3131" class="st4" d="M87.1-363l-22.4,40.9l13.3-3.2l30.5,14.7l5.8-3.7L87.1-363z"/>
			<path id="Path_3132" class="st7" d="M108.5-310.6l5.8-3.7l-7.4-13.2L108.5-310.6z"/>
			<path id="Path_3133" class="st5" d="M65.8-324.3l-1.1,2.2l13.3-3.2l8.6-37L65.8-324.3z"/>
		</g>
		<g id="Group_1408" transform="translate(386.441 214.966)">
			<path id="Path_3134" class="st2" d="M21.3-380L8.7-353.4l-4,9.2l-31,54.5h91.8L40-343l-3.8-3.1L21.3-380z"/>
			<path id="Path_3135" class="st3" d="M-13.3-323.9l-23.8,8.5l-13.4,25.7h49.2l7.8-31.4L20-337.6l1.3-42.4L-13.3-323.9z"/>
		</g>
	</g>
	<g id="Group_1404" transform="translate(0 104.769)">
		<path id="Path_2986" class="st8" d="M1023.8,573H0v-29.8c169.4,0,433.4-31.6,528.8-31.7c231.8,0,239.8,26.8,491.6,26.8L1023.8,573
			z"/>
		<path id="Path_2989" class="st9" d="M839.9,522.6l137.1,7.2l46.8-2.4l0,24.2l-232.1-29l-68.5-7.5L839.9,522.6z"/>
		<path id="Path_2990" class="st10" d="M289.5,573H0v-31.2c0,0,89.6,0,150,7.2C210.3,556.2,289.5,573,289.5,573z"/>
		<path id="Path_2991" class="st11" d="M955.7,543.3c0,0-294.5-45.6-383.4-45.6l0,0c-119.1,0-513.8,45.6-513.8,45.6
			s42.2,2.7,117.7-1.7c108.7-6.3,272.4-9.4,396-9.4C775.5,532.3,955.7,543.3,955.7,543.3z"/>
		<g id="Group_1397" transform="translate(1139.435 900.982)">
			<rect id="Rectangle_1436" x="-201.6" y="-349.6" class="st12" width="1.3" height="12.5"/>
			<rect id="Rectangle_1437" x="-200.4" y="-349.6" class="st13" width="1.3" height="12.5"/>
			<path id="Path_3109" class="st14" d="M-200.6-391.3l-6.3,44.8l6.6,3.3l6.1-3.3L-200.6-391.3z"/>
			<path id="Path_3110" class="st15" d="M-200.6-391.3l-6.3,44.8l6.6,3.3L-200.6-391.3z"/>
		</g>
		<g id="Group_1398" transform="translate(1184.915 898.783)">
			<rect id="Rectangle_1438" x="-211.5" y="-361.9" class="st12" width="0.9" height="8.7"/>
			<rect id="Rectangle_1439" x="-210.6" y="-361.9" class="st13" width="0.9" height="8.7"/>
			<path id="Path_3111" class="st14" d="M-210.8-390.9l-4.4,31.3l4.6,2.3l4.2-2.3L-210.8-390.9z"/>
			<path id="Path_3112" class="st15" d="M-210.8-390.9l-4.4,31.3l4.6,2.3L-210.8-390.9z"/>
		</g>
		<g id="Group_1399" transform="translate(1207.005 893.635)">
			<rect id="Rectangle_1440" x="-214.9" y="-356" class="st12" width="1" height="10.2"/>
			<rect id="Rectangle_1441" x="-213.9" y="-356" class="st13" width="1" height="10.2"/>
			<path id="Path_3113" class="st14" d="M-214.1-390l-5.2,36.5l5.4,2.7l4.9-2.7L-214.1-390z"/>
			<path id="Path_3114" class="st15" d="M-214.1-390l-5.2,36.5l5.4,2.7L-214.1-390z"/>
		</g>
		<rect id="Rectangle_1442" x="0" y="563.7" class="st16" width="1023.8" height="11.1"/>
	</g>
</g>
</svg>
