<?xml version="1.0" encoding="utf-8"?>
<!-- Generator: Adobe Illustrator 23.0.1, SVG Export Plug-In . SVG Version: 6.00 Build 0)  -->
<svg version="1.1" id="Слой_1" xmlns="http://www.w3.org/2000/svg" xmlns:xlink="http://www.w3.org/1999/xlink" x="0px" y="0px"
	 viewBox="0 0 800 200" style="enable-background:new 0 0 800 200;" xml:space="preserve">
<style type="text/css">
	.st0{fill:#7C7C7C;}
	.st1{fill:#FFFFFF;}
	.st2{fill:#E1F7FF;}
	.st3{fill:#B2877F;}
	.st4{fill:#A8837E;}
	.st5{fill:#88CC75;}
	.st6{fill:#79B264;}
	.st7{fill:#F0FCFF;}
	.st8{fill:#F6C254;}
	.st9{fill:#9FC445;}
	.st10{fill:#7C5D5D;}
	.st11{fill:#EDC69F;}
	.st12{opacity:0.12;enable-background:new    ;}
	.st13{fill:#4E9FA8;}
	.st14{fill:#CE9B72;}
	.st15{fill:#448D99;}
	.st16{fill:#FFE4CA;}
	.st17{fill:#6D5252;}
	.st18{fill:#8E7272;}
	.st19{fill:#725757;}
	.st20{fill:#C19481;}
	.st21{fill:#D8AA88;}
	.st22{fill:#E2BC9A;}
	.st23{fill:#E2B991;}
	.st24{fill:#997A7A;}
	.st25{fill:#FCC68B;}
	.st26{fill:#7F6262;}
	.st27{fill:#F7C79F;}
	.st28{fill:#755757;}
	.st29{fill:#FFDABB;}
	.st30{fill:#EFB27B;}
	.st31{fill:#FFF1E6;}
	.st32{fill:#A08787;}
	.st33{fill:#846969;}
	.st34{fill:#57B8BC;}
	.st35{fill:#9E8282;}
	.st36{fill:#B29797;}
	.st37{fill:#E57373;}
	.st38{fill:#EAEAEA;}
	.st39{fill:#C66666;}
	.st40{fill:#CECDCC;}
	.st41{fill:#B5B5B5;}
	.st42{fill:#DBDAD9;}
	.st43{fill:#B7A5A5;}
	.st44{fill:#F9DEC0;}
	.st45{fill:#9B7E7E;}
	.st46{fill:#479093;}
	.st47{fill:#FFEBD7;}
	.st48{fill:#F7D2C4;}
	.st49{fill:#DBB391;}
	.st50{fill:#7F7F7E;}
	.st51{fill:#6B6B6A;}
	.st52{fill:#C99A7B;}
	.st53{fill:#FF9173;}
	.st54{fill:#CCA8A8;}
	.st55{fill:#468E91;}
	.st56{fill:#F7605E;}
	.st57{fill:#E54C4C;}
	.st58{fill:#DDDDDD;}
	.st59{fill:#E56248;}
	.st60{opacity:0.15;enable-background:new    ;}
	.st61{fill:#F4C3BD;}
	.st62{fill:#FFD9D4;}
	.st63{fill:#C95043;}
	.st64{fill:#EA8368;}
	.st65{fill:#FCA69A;}
	.st66{fill:#F4927F;}
	.st67{fill:#BAA2A2;}
	.st68{fill:#A38989;}
	.st69{fill:#FFA188;}
	.st70{fill:#FFB9AB;}
	.st71{fill:#78716C;}
	.st72{fill:#665F5A;}
	.st73{fill:#FFCBC2;}
	.st74{fill:#5EB3B7;}
	.st75{fill:#DDDBDB;}
	.st76{fill:#F5F5F5;}
	.st77{fill:#80C16B;}
	.st78{fill:#A3786D;}
	.st79{fill:#6091D8;}
	.st80{fill:#87CBF4;}
	.st81{fill:#5C6777;}
	.st82{fill:#6F7B89;}
	.st83{fill:#FFC9A4;}
	.st84{fill:#ABE9FF;}
	.st85{fill:#616A7A;}
	.st86{fill-rule:evenodd;clip-rule:evenodd;fill:#FFB448;}
	.st87{fill-rule:evenodd;clip-rule:evenodd;fill:#BBDCF9;}
	.st88{fill-rule:evenodd;clip-rule:evenodd;fill:#F29E38;}
	.st89{fill-rule:evenodd;clip-rule:evenodd;fill:#DD8D36;}
	.st90{fill:#565555;}
	.st91{fill-rule:evenodd;clip-rule:evenodd;fill:#DAE9EF;}
	.st92{fill-rule:evenodd;clip-rule:evenodd;fill:#686868;}
	.st93{fill-rule:evenodd;clip-rule:evenodd;fill:#565555;}
	.st94{fill-rule:evenodd;clip-rule:evenodd;fill:#FFF5E1;}
	.st95{fill:#939393;}
	.st96{fill:#EA6A4B;}
	.st97{fill:#FF7950;}
	.st98{fill:#78A1DD;}
	.st99{fill:#8FC5FF;}
	.st100{fill:#565656;}
	.st101{fill:#B26857;}
	.st102{fill:#DD967A;}
	.st103{fill:#C9745D;}
	.st104{fill:#AA6666;}
	.st105{fill:#7C838C;}
	.st106{fill:#FFE1EA;}
	.st107{fill:#FFD2B3;}
	.st108{fill:#FFC5AE;}
	.st109{fill:#AA8B83;}
	.st110{fill:#F48273;}
	.st111{fill:#FF8B77;}
	.st112{fill:#45995D;}
	.st113{fill:#50BC6F;}
	.st114{fill:#F2A2B5;}
	.st115{fill:#F9CDDB;}
	.st116{fill:#98A0A8;}
	.st117{fill-rule:evenodd;clip-rule:evenodd;fill:#E0AC2B;}
	.st118{fill-rule:evenodd;clip-rule:evenodd;fill:#F2C033;}
	.st119{fill-rule:evenodd;clip-rule:evenodd;fill:#FFD039;}
	.st120{fill:#DAE9EF;}
	.st121{fill:#686868;}
	.st122{fill:#E09C6F;}
	.st123{fill:#1F3049;}
	.st124{fill:#C9402E;}
	.st125{fill:#CA6A46;}
	.st126{fill:#4D917B;}
</style>
<g>
	<path id="Path_1614" class="st0" d="M788.3,200H11.7C5.2,200,0,196.9,0,193l0,0c0-3.9,5.2-7,11.7-7h776.6c6.5,0,11.7,3.1,11.7,7
		l0,0C800,196.9,794.8,200,788.3,200z"/>
	<g>
		<g id="Group_955">
			<path id="Path_1615" class="st1" d="M786.6,194h-8.2v-1.2h8.2V194z M770.1,194h-8.2v-1.2h8.2V194z M753.7,194h-8.2v-1.2h8.2V194z
				 M737.2,194H729v-1.2h8.2V194z M720.8,194h-8.2v-1.2h8.2V194z M704.3,194h-8.2v-1.2h8.2V194z M687.9,194h-8.2v-1.2h8.2V194z
				 M671.4,194h-8.2v-1.2h8.2V194z M655,194h-8.2v-1.2h8.2V194z M638.5,194h-8.2v-1.2h8.2V194z M622.1,194h-8.2v-1.2h8.2V194z
				 M605.6,194h-8.2v-1.2h8.2V194z M589.2,194H581v-1.2h8.2V194z M572.7,194h-8.2v-1.2h8.2V194z M556.3,194h-8.2v-1.2h8.2V194z
				 M539.8,194h-8.2v-1.2h8.2V194z M523.4,194h-8.2v-1.2h8.2V194z M507,194h-8.2v-1.2h8.2V194z M490.5,194h-8.2v-1.2h8.2V194z
				 M474.1,194h-8.2v-1.2h8.2V194z M457.6,194h-8.2v-1.2h8.2V194z M441.2,194H433v-1.2h8.2V194z M424.7,194h-8.2v-1.2h8.2V194z
				 M408.3,194h-8.2v-1.2h8.2V194z M391.8,194h-8.2v-1.2h8.2V194z M375.4,194h-8.2v-1.2h8.2V194z M358.9,194h-8.2v-1.2h8.2V194z
				 M342.5,194h-8.2v-1.2h8.2V194z M326,194h-8.3v-1.2h8.2L326,194z M309.6,194h-8.2v-1.2h8.2V194z M293.1,194h-8.2v-1.2h8.2V194z
				 M276.7,194h-8.2v-1.2h8.2V194z M260.3,194H252v-1.2h8.2L260.3,194L260.3,194z M243.8,194h-8.2v-1.2h8.2V194z M227.3,194h-8.2
				v-1.2h8.2V194z M210.9,194h-8.2v-1.2h8.2V194z M194.5,194h-8.2v-1.2h8.2V194z M178,194h-8.2v-1.2h8.2V194z M161.6,194h-8.2v-1.2
				h8.2V194z M145.1,194h-8.2v-1.2h8.2V194z M128.7,194h-8.2v-1.2h8.2V194z M112.2,194H104v-1.2h8.2V194z M95.8,194h-8.2v-1.2h8.2
				V194z M79.3,194h-8.2v-1.2h8.2V194z M62.9,194h-8.2v-1.2h8.2V194z M46.4,194h-8.2v-1.2h8.2V194z M30,194h-8.2v-1.2H30V194z
				 M13.5,194H5.3v-1.2h8.2V194z"/>
		</g>
		<g id="Group_4954" transform="translate(23.547 -248.352)">
			<g id="Group_2655" transform="translate(209.355 421.664)">
				<g id="Group_947">
					<path id="Path_1592" class="st2" d="M237.3-106.9L237.3-106.9L237.3-106.9L237.3-106.9z"/>
				</g>
				<g id="Group_949">
					<g id="Group_948">
						<path id="Path_1593" class="st3" d="M368-0.2h-4.3l1.2-55.4l2.2-2.4L368-0.2z"/>
						<path id="Path_1594" class="st4" d="M366.3-58l-1.4,2l-1,46.3l0,0c1.5-0.1,2.7,1.1,2.8,2.6c0,0.1,0,0.2,0,0.2v6.5h1.5v-9.4
							l-1-48.4L366.3-58L366.3-58z"/>
					</g>
					<path id="Path_1595" class="st5" d="M363.6-58.2l-7.9,7.1l2.9,1.1l-8.6,3.2l-2.7,4.6l7.9-0.1l-9.8,5.9v5.4l13.6-4.4l6-7.4
						l21.7,4.6v-5.7l-8.3-3.6l4.5-0.4l-2.2-3.1l-12.5-3.5h4L365-66.1L363.6-58.2z"/>
					<path id="Path_1596" class="st6" d="M364.9-42.7l21.7,4.6v-5.7l-8.3-3.6l4.5-0.4l-2.2-3.1L368-54.7h4l-6.7-10.6l2.2,8.5
						l-2.6,1.4l10.1,8.2L364.1-46l-8.5,7.4l-10.1,2l-0.3,0.2v5.4l13.7-4.3L364.9-42.7z"/>
					<path id="Path_1597" class="st5" d="M363.6-75.3l-7.9,7.1l2.9,1.1l-8.6,3.2l-2.7,4.6l7.9-0.1l-9.8,5.9v5.4l13.7-4.3l6-7.4
						l21.7,4.6v-5.7l-8.3-3.6l4.5-0.4l-2.2-3.1l-12.5-3.5h4L365-83.3L363.6-75.3z"/>
					<path id="Path_1598" class="st6" d="M364.9-60l21.7,4.6v-5.7l-8.3-3.6l4.5-0.4l-2.2-3.1L368-71.8h4l-6.7-10.6l2.2,8.5l-2.6,1.4
						l10.1,8.2l-10.9,1.1l-8.5,7.4l-10.1,2l-0.3,0.2v5.4l13.7-4.3L364.9-60z"/>
				</g>
				<g id="Group_951">
					<g id="Group_950">
						<path id="Path_1599" class="st3" d="M259.2-2.4h-4.3l1.2-55.4l2.2-2.4L259.2-2.4z"/>
						<path id="Path_1600" class="st4" d="M257.5-60.1l-1.4,2l-1,46.3l0,0c1.5-0.1,2.7,1.1,2.8,2.6c0,0.1,0,0.2,0,0.2v6.5h1.5v-9.4
							l-1-48.3L257.5-60.1L257.5-60.1z"/>
					</g>
					<path id="Path_1601" class="st5" d="M254.9-60.4l-7.9,7.1l2.9,1.1l-8.6,3.2l-2.7,4.6l7.9-0.1l-9.8,5.9v5.4l13.7-4.3l6-7.4
						l21.6,4.5V-46l-8.3-3.6l4.5-0.4l-2.2-3.1l-12.5-3.5h4l-7.2-11.4L254.9-60.4z"/>
					<path id="Path_1602" class="st6" d="M256.1-44.9l21.7,4.6V-46l-8.3-3.6l4.5-0.4l-2.2-3.1l-12.5-3.5h4l-6.7-10.6l2.2,8.5
						l-2.6,1.4l10.1,8.2l-10.9,1.1l-8.5,7.4l-10.1,2l-0.3,0.2v5.4l13.7-4.3L256.1-44.9z"/>
					<path id="Path_1603" class="st5" d="M254.9-77.5l-7.9,7.1l2.9,1.1l-8.6,3.2l-2.7,4.6l7.9-0.1l-9.8,5.9v5.4l13.7-4.3l6-7.4
						l21.7,4.6V-63l-8.3-3.6l4.5-0.4l-2.2-3.1l-12.5-3.5h4l-7.5-11.7L254.9-77.5z"/>
					<path id="Path_1604" class="st6" d="M256.1-62.1l21.7,4.6v-5.7l-8.3-3.6l4.5-0.4l-2.2-3.1l-12.5-3.5h4l-6.7-10.6l2.2,8.5
						l-2.6,1.4l10.1,8.2l-10.8,1l-8.5,7.4l-10.1,2l-0.3,0.2v5.4l13.7-4.3L256.1-62.1z"/>
				</g>
				<path id="Path_1605" class="st7" d="M138.9-121.7c-3.5,0-6.2,2.9-6.2,6.3l0,0h12.5C145.2-118.8,142.4-121.7,138.9-121.7
					L138.9-121.7z"/>
				<path id="Path_1606" class="st7" d="M499.8-109.4c-3.5,0-6.2,2.9-6.2,6.3l0,0h12.5C506.1-106.5,503.3-109.4,499.8-109.4z"/>
				<path id="Path_1607" class="st7" d="M210.8-139.2c-5.2,0-9.8,3.4-11.4,8.4c-2-4.2-7-6-11.1-4c-2.9,1.4-4.7,4.4-4.7,7.7h39.2
					C222.7-133.7,217.4-139.2,210.8-139.2L210.8-139.2z"/>
				<path id="Path_1608" class="st7" d="M436.9-125.8c-1.5,0-2.9,0.6-4,1.6c-2.4-4-7.6-5.3-11.6-2.8c-2.5,1.6-4,4.3-4,7.3h25.6
					C442.9-123.1,440.2-125.8,436.9-125.8z"/>
				<path id="Path_1609" class="st8" d="M306.4-153.3c-7.1,0-12.9,5.8-12.9,13.1c0,0.8,0.1,1.7,0.2,2.5c6.1-1.3,12,2.6,13.3,8.7
					c0.1,0.6,0.2,1.2,0.2,1.9c7.1-0.5,12.4-6.8,11.9-14C318.7-148,313.1-153.3,306.4-153.3z"/>
				<g id="Group_954">
					<g id="Group_952">
						<path id="Path_1610" class="st2" d="M380.2-128.8c-0.7-1.7-2.1-2.9-3.8-3.4l0.3-1c1.4,0.4,2.6,1.3,3.5,2.4
							c0.9-1.1,2.2-2,3.5-2.4l0.3,1c-1.4,0.4-2.6,1.3-3.4,2.6L380.2-128.8z"/>
					</g>
					<g id="Group_953">
						<path id="Path_1611" class="st2" d="M370.9-122.8c-0.6-1.2-1.6-1.9-2.8-2.2l0.3-1c1,0.2,1.9,0.7,2.6,1.5
							c0.7-0.7,1.6-1.2,2.6-1.5l0.3,1C372.5-124.7,371.5-124,370.9-122.8z"/>
					</g>
				</g>
				<path id="Path_1613" class="st9" d="M562.6,13.3H60.1c-2.2,0-3.9-1.8-3.9-3.9l0,0c0-2.2,1.7-3.9,3.9-3.9h502.6
					c2.2,0,3.9,1.8,3.9,3.9S564.7,13.3,562.6,13.3L562.6,13.3z"/>
				<g id="Group_959">
					<path id="Path_1616" class="st10" d="M145.8-52.4h-36.2L90.8-30H127L145.8-52.4z"/>
					<path id="Path_1617" class="st11" d="M145-29.2v4.5h-12.9V2.5h-38v-31.7H145z"/>
					<rect id="Rectangle_797" x="94.2" y="-28.7" class="st12" width="34.6" height="1.3"/>
					<g id="Group_956">
						<rect id="Rectangle_798" x="99.6" y="-19.1" class="st13" width="7.5" height="11.7"/>
						<rect id="Rectangle_799" x="99.6" y="-19.1" class="st14" width="1.3" height="11.7"/>
						<rect id="Rectangle_800" x="101" y="-19.1" class="st15" width="1.3" height="11.7"/>
						<rect id="Rectangle_801" x="101" y="-19.1" class="st15" width="6.1" height="1.3"/>
					</g>
					<g id="Group_957">
						<rect id="Rectangle_802" x="113.2" y="-19.1" class="st13" width="7.5" height="11.7"/>
						<rect id="Rectangle_803" x="113.2" y="-19.1" class="st14" width="1.3" height="11.7"/>
						<rect id="Rectangle_804" x="114.6" y="-19.1" class="st15" width="1.3" height="11.7"/>
						<rect id="Rectangle_805" x="114.5" y="-19.1" class="st15" width="6.1" height="1.3"/>
					</g>
					<path id="Path_1618" class="st16" d="M145.8-50.5L128.3-30l-0.9,1.1V2.4H162v-31.1L145.8-50.5z"/>
					<rect id="Rectangle_806" x="116.5" y="-56.5" class="st17" width="4.8" height="15.6"/>
					<path id="Path_1619" class="st18" d="M125.4-46.2v-10.2h-4.3v15.6h0.1L125.4-46.2z"/>
					<path id="Path_1620" class="st19" d="M128.3-28.7H92L90.7-30H127L128.3-28.7z"/>
					<path id="Path_1621" class="st18" d="M145.7-49.8l-17.5,21.1L127-30l18.8-22.5l18.8,22.6l-1.1,1.2L145.7-49.8z"/>
					<path id="Path_1622" class="st19" d="M145.7-49.8l-0.9,1.1l17.2,20h1.5L145.7-49.8z"/>
					<path id="Path_1623" class="st12" d="M127.3-27.4h2.2L145-46.1l15,17.5h2l-17.1-20l-16.6,20.1h-0.9L127.3-27.4z"/>
					<path id="Path_1624" class="st20" d="M150.4-18.9h-11.2l-0.1,21.4h11.2L150.4-18.9z"/>
					<path id="Path_1625" class="st21" d="M149.3-17.9l-1.5,1.6H140v-1.6H149.3z"/>
					<path id="Path_1626" class="st22" d="M147.8-16.2V2.5h1.5v-20.4L147.8-16.2z"/>
					<path id="Path_1627" class="st11" d="M150.6-19.2L150.6-19.2H139V2.5h1.3v-20.4h9.2V2.5h1.3L150.6-19.2L150.6-19.2z"/>
					<rect id="Rectangle_807" x="146.6" y="-16.2" class="st12" width="1.3" height="18.8"/>
					<g id="Group_958">
						<rect id="Rectangle_808" x="141" y="-34.8" class="st13" width="7.2" height="7.6"/>
						<rect id="Rectangle_809" x="146.9" y="-34.8" class="st11" width="1.3" height="7.6"/>
						<rect id="Rectangle_810" x="145.6" y="-34.8" class="st15" width="1.3" height="7.6"/>
						<rect id="Rectangle_811" x="141" y="-34.8" class="st15" width="5.9" height="1.3"/>
					</g>
					<rect id="Rectangle_812" x="125.9" y="2.5" class="st23" width="36.3" height="2.8"/>
					<rect id="Rectangle_813" x="93.8" y="2.5" class="st14" width="33.5" height="2.8"/>
					<rect id="Rectangle_814" x="119.9" y="-57.5" class="st24" width="6.6" height="1.2"/>
					<rect id="Rectangle_815" x="115.6" y="-57.5" class="st10" width="6.6" height="1.2"/>
				</g>
				<g id="Group_981">
					<rect id="Rectangle_816" x="182.6" y="-111.9" class="st10" width="5.7" height="12"/>
					<rect id="Rectangle_817" x="181.6" y="-113.7" class="st18" width="7.6" height="2.3"/>
					<rect id="Rectangle_818" x="182.6" y="-111.5" class="st19" width="5.7" height="1.4"/>
					<path id="Path_1628" class="st18" d="M237.3-105h-66.2v21h75.2v-21H237.3L237.3-105z"/>
					<path id="Path_1629" class="st10" d="M235.2-84.6H169v2.2h75.2v-2.2H235.2z"/>
					<path id="Path_1630" class="st25" d="M212.7-82.5h-42.4v51.6h72.6v-51.6C242.9-82.5,212.7-82.5,212.7-82.5z"/>
					<path id="Path_1631" class="st18" d="M212.7-30.3h-42.4V4.9h72.6v-35.2H212.7z"/>
					<rect id="Rectangle_819" x="170.4" y="1.6" class="st10" width="72.1" height="4"/>
					<path id="Path_1632" class="st12" d="M239.8-82.6h-69.5v1.8H243v-1.8H239.8z"/>
					<g id="Group_960">
						<rect id="Rectangle_820" x="199.4" y="-18.7" class="st26" width="15.1" height="20.2"/>
						<rect id="Rectangle_821" x="202.1" y="-15.9" class="st13" width="9.8" height="17.6"/>
						<rect id="Rectangle_822" x="202.1" y="-15.9" class="st27" width="0.9" height="17.6"/>
						<rect id="Rectangle_823" x="211" y="-15.9" class="st27" width="0.9" height="17.6"/>
						<rect id="Rectangle_824" x="202.1" y="-16" class="st27" width="9.8" height="0.9"/>
						<path id="Path_1633" class="st28" d="M202.1-15.9l-2.7-2.7h15.3l-2.8,2.7C211.9-15.9,202.2-16,202.1-15.9z"/>
					</g>
					<path id="Path_1634" class="st25" d="M215.7-96.7l-8.9-3.9l-8.3,3.9v19.1h17.2V-96.7z"/>
					<g id="Group_962">
						<rect id="Rectangle_825" x="203.6" y="-93" class="st15" width="7.4" height="6.9"/>
						<rect id="Rectangle_826" x="204.5" y="-92" class="st13" width="5.5" height="5.9"/>
						<g id="Group_961">
							<path id="Path_1635" class="st29" d="M210.9-92.8v6.8h1.2v-8L210.9-92.8z"/>
							<path id="Path_1636" class="st30" d="M202.5-94l1.2,1.2h7.2l1.2-1.2l0,0H202.5z"/>
							<path id="Path_1637" class="st29" d="M203.7-92.8v6.8h-1.2v-8L203.7-92.8z"/>
						</g>
					</g>
					<path id="Path_1638" class="st12" d="M198.5-93.5l8.6-4.9l8.5,5v-2.3l-2.3-1.4l-6.3-3.4l-7.8,4.2l-0.8,0.5L198.5-93.5z"/>
					<path id="Path_1639" class="st10" d="M196.6-93.9l10.5-6.2l10.9,6.2v-2.3l-10.9-6.4l-10.5,6.4V-93.9z"/>
					<rect id="Rectangle_827" x="166.8" y="-109.2" class="st31" width="4.3" height="94.4"/>
					<rect id="Rectangle_828" x="166.8" y="-88.7" class="st29" width="4.3" height="94.4"/>
					<rect id="Rectangle_829" x="242.1" y="-109.2" class="st31" width="4.3" height="94.4"/>
					<g id="Group_964">
						<rect id="Rectangle_830" x="177.8" y="-73.3" class="st15" width="13.7" height="15.5"/>
						<rect id="Rectangle_831" x="178.9" y="-72.1" class="st13" width="11.5" height="14.2"/>
						<g id="Group_963">
							<path id="Path_1640" class="st29" d="M191.4-73.1v15.4h1.2v-16.6L191.4-73.1z"/>
							<path id="Path_1641" class="st30" d="M176.8-74.3l1.2,1.2h13.5l1.2-1.2l0,0H176.8z"/>
							<path id="Path_1642" class="st29" d="M177.9-73.1v15.4h-1.2v-16.6L177.9-73.1z"/>
						</g>
						<rect id="Rectangle_832" x="184.5" y="-66.2" class="st15" width="0.7" height="8.2"/>
						<rect id="Rectangle_833" x="178.4" y="-66.5" class="st15" width="12.6" height="0.7"/>
					</g>
					<g id="Group_966">
						<rect id="Rectangle_834" x="202.4" y="-73.3" class="st15" width="9.4" height="15.5"/>
						<rect id="Rectangle_835" x="203.5" y="-72.1" class="st13" width="7.2" height="14.2"/>
						<g id="Group_965">
							<path id="Path_1643" class="st29" d="M211.7-73.1v15.4h1.2v-16.6L211.7-73.1z"/>
							<path id="Path_1644" class="st30" d="M201.3-74.3l1.2,1.2h9.2l1.2-1.2l0,0H201.3z"/>
							<path id="Path_1645" class="st29" d="M202.5-73.1v15.4h-1.2v-16.6L202.5-73.1z"/>
						</g>
						<rect id="Rectangle_836" x="203" y="-67.7" class="st15" width="8.1" height="0.7"/>
					</g>
					<g id="Group_968">
						<rect id="Rectangle_837" x="202.4" y="-51.2" class="st15" width="9.4" height="15.5"/>
						<rect id="Rectangle_838" x="203.5" y="-50" class="st13" width="7.2" height="14.2"/>
						<g id="Group_967">
							<path id="Path_1646" class="st29" d="M211.7-51.1v15.4h1.2v-16.6L211.7-51.1z"/>
							<path id="Path_1647" class="st30" d="M201.3-52.3l1.2,1.2h9.2l1.2-1.2l0,0H201.3z"/>
							<path id="Path_1648" class="st29" d="M202.5-51.1v15.4h-1.2v-16.6L202.5-51.1z"/>
						</g>
						<rect id="Rectangle_839" x="203" y="-45.5" class="st15" width="8.1" height="0.7"/>
					</g>
					<g id="Group_970">
						<rect id="Rectangle_840" x="222.7" y="-73.3" class="st15" width="13.7" height="15.5"/>
						<rect id="Rectangle_841" x="223.7" y="-72.1" class="st13" width="11.5" height="14.2"/>
						<g id="Group_969">
							<path id="Path_1649" class="st29" d="M236.3-73.1v15.4h1.2v-16.6L236.3-73.1z"/>
							<path id="Path_1650" class="st30" d="M221.6-74.3l1.2,1.2h13.5l1.2-1.2l0,0H221.6z"/>
							<path id="Path_1651" class="st29" d="M222.8-73.1v15.4h-1.2v-16.6L222.8-73.1z"/>
						</g>
						<rect id="Rectangle_842" x="229.3" y="-66.2" class="st15" width="0.7" height="8.2"/>
						<rect id="Rectangle_843" x="223.3" y="-66.5" class="st15" width="12.6" height="0.7"/>
					</g>
					<g id="Group_972">
						<rect id="Rectangle_844" x="177.8" y="-51.3" class="st15" width="13.7" height="15.5"/>
						<rect id="Rectangle_845" x="178.9" y="-50.1" class="st13" width="11.5" height="14.2"/>
						<g id="Group_971">
							<path id="Path_1652" class="st29" d="M191.4-51.1v15.4h1.2v-16.6L191.4-51.1z"/>
							<path id="Path_1653" class="st30" d="M176.8-52.3l1.2,1.2h13.5l1.2-1.2l0,0H176.8z"/>
							<path id="Path_1654" class="st29" d="M177.9-51.1v15.4h-1.2v-16.6L177.9-51.1z"/>
						</g>
						<rect id="Rectangle_846" x="184.5" y="-44.1" class="st15" width="0.7" height="8.2"/>
						<rect id="Rectangle_847" x="178.4" y="-44.4" class="st15" width="12.6" height="0.7"/>
					</g>
					<g id="Group_974">
						<rect id="Rectangle_848" x="222.7" y="-51.3" class="st15" width="13.7" height="15.5"/>
						<rect id="Rectangle_849" x="223.7" y="-50.1" class="st13" width="11.5" height="14.2"/>
						<g id="Group_973">
							<path id="Path_1655" class="st29" d="M236.3-51.1v15.4h1.2v-16.6L236.3-51.1z"/>
							<path id="Path_1656" class="st30" d="M221.6-52.3l1.2,1.2h13.5l1.2-1.2l0,0H221.6z"/>
							<path id="Path_1657" class="st29" d="M222.8-51.1v15.4h-1.2v-16.6L222.8-51.1z"/>
						</g>
						<rect id="Rectangle_850" x="229.3" y="-44.1" class="st15" width="0.7" height="8.2"/>
						<rect id="Rectangle_851" x="223.3" y="-44.4" class="st15" width="12.6" height="0.7"/>
					</g>
					<g id="Group_976">
						<rect id="Rectangle_852" x="177.8" y="-17.6" class="st15" width="13.7" height="14.1"/>
						<rect id="Rectangle_853" x="178.9" y="-16.3" class="st13" width="11.5" height="12.8"/>
						<g id="Group_975">
							<path id="Path_1658" class="st32" d="M191.4-17.5v13.9h1.2v-15.2L191.4-17.5z"/>
							<path id="Path_1659" class="st33" d="M176.8-18.7l1.2,1.2h13.5l1.2-1.2l0,0H176.8z"/>
							<path id="Path_1660" class="st32" d="M177.9-17.5v13.9h-1.2v-15.2L177.9-17.5z"/>
						</g>
						<path id="Path_1661" class="st34" d="M190.4-15.2L178.9-3.5h1.1l10.5-10.6L190.4-15.2z"/>
						<path id="Path_1662" class="st34" d="M190.4-12.4l-8.8,8.9h1.1l7.7-7.9V-12.4z"/>
					</g>
					<g id="Group_978">
						<rect id="Rectangle_854" x="222.7" y="-17.6" class="st15" width="13.7" height="14.1"/>
						<rect id="Rectangle_855" x="223.7" y="-16.3" class="st13" width="11.5" height="12.8"/>
						<g id="Group_977">
							<path id="Path_1663" class="st32" d="M236.3-17.5v13.9h1.2v-15.2L236.3-17.5z"/>
							<path id="Path_1664" class="st33" d="M221.6-18.7l1.2,1.2h13.5l1.2-1.2l0,0H221.6z"/>
							<path id="Path_1665" class="st32" d="M222.8-17.5v13.9h-1.2v-15.2L222.8-17.5z"/>
						</g>
						<path id="Path_1666" class="st34" d="M235.1-15.2L223.6-3.5h1.1l10.5-10.6L235.1-15.2z"/>
						<path id="Path_1667" class="st34" d="M235.1-12.4l-8.8,8.9h1.1l7.7-7.9V-12.4z"/>
					</g>
					<rect id="Rectangle_856" x="242.1" y="-88.7" class="st29" width="4.3" height="94.2"/>
					<rect id="Rectangle_857" x="199.4" y="2.8" class="st35" width="15.2" height="1.5"/>
					<rect id="Rectangle_858" x="199.4" y="4.3" class="st36" width="15.2" height="1.2"/>
					<rect id="Rectangle_859" x="199.4" y="1.5" class="st18" width="15.2" height="1.4"/>
					<g id="Group_980">
						<rect id="Rectangle_860" x="171.1" y="-28.8" class="st37" width="4.2" height="5.3"/>
						<rect id="Rectangle_861" x="175.2" y="-28.8" class="st38" width="4.2" height="5.3"/>
						<rect id="Rectangle_862" x="179.4" y="-28.8" class="st37" width="4.2" height="5.3"/>
						<rect id="Rectangle_863" x="183.5" y="-28.8" class="st38" width="4.2" height="5.3"/>
						<rect id="Rectangle_864" x="187.7" y="-28.8" class="st37" width="4.2" height="5.3"/>
						<rect id="Rectangle_865" x="191.9" y="-28.8" class="st38" width="4.2" height="5.3"/>
						<rect id="Rectangle_866" x="196.1" y="-28.8" class="st37" width="4.2" height="5.3"/>
						<rect id="Rectangle_867" x="200.2" y="-28.8" class="st38" width="4.2" height="5.3"/>
						<rect id="Rectangle_868" x="204.4" y="-28.8" class="st37" width="4.2" height="5.3"/>
						<rect id="Rectangle_869" x="208.5" y="-28.8" class="st38" width="4.2" height="5.3"/>
						<rect id="Rectangle_870" x="212.7" y="-28.8" class="st37" width="4.2" height="5.3"/>
						<rect id="Rectangle_871" x="216.8" y="-28.8" class="st38" width="4.2" height="5.3"/>
						<rect id="Rectangle_872" x="221" y="-28.8" class="st37" width="4.2" height="5.3"/>
						<rect id="Rectangle_873" x="225.1" y="-28.8" class="st38" width="4.2" height="5.3"/>
						<rect id="Rectangle_874" x="229.4" y="-28.8" class="st37" width="4.2" height="5.3"/>
						<rect id="Rectangle_875" x="237.7" y="-28.8" class="st37" width="4.2" height="5.3"/>
						<rect id="Rectangle_876" x="233.4" y="-28.8" class="st38" width="4.2" height="5.3"/>
						<g id="Group_979">
							<path id="Rectangle_877" class="st39" d="M171.1-23.6h4.2l0,0v1.8c0,1-0.8,1.9-1.9,1.9l0,0H173c-1,0-1.9-0.8-1.9-1.9l0,0
								V-23.6L171.1-23.6z"/>
							<path id="Rectangle_878" class="st40" d="M175.2-23.6h4.2l0,0v1.8c0,1-0.8,1.9-1.9,1.9l0,0H177c-1,0-1.9-0.8-1.9-1.9l0,0
								L175.2-23.6L175.2-23.6z"/>
							<path id="Rectangle_879" class="st39" d="M179.4-23.6h4.2l0,0v1.8c0,1-0.8,1.9-1.9,1.9l0,0h-0.5c-1,0-1.9-0.8-1.9-1.9
								L179.4-23.6L179.4-23.6z"/>
							<path id="Rectangle_880" class="st40" d="M183.5-23.6h4.2l0,0v1.8c0,1-0.8,1.9-1.9,1.9l0,0h-0.5c-1,0-1.9-0.8-1.9-1.9
								L183.5-23.6L183.5-23.6z"/>
							<path id="Rectangle_881" class="st39" d="M187.7-23.6h4.2l0,0v1.8c0,1-0.8,1.9-1.9,1.9l0,0h-0.5c-1,0-1.9-0.8-1.9-1.9l0,0
								L187.7-23.6L187.7-23.6z"/>
							<path id="Rectangle_882" class="st40" d="M191.9-23.6h4.2l0,0v1.8c0,1-0.8,1.9-1.9,1.9l0,0h-0.5c-1,0-1.9-0.8-1.9-1.9l0,0
								L191.9-23.6L191.9-23.6z"/>
							<path id="Rectangle_883" class="st39" d="M196.1-23.6h4.2l0,0v1.8c0,1-0.8,1.9-1.9,1.9l0,0H198c-1,0-1.9-0.8-1.9-1.9l0,0
								V-23.6L196.1-23.6z"/>
							<path id="Rectangle_884" class="st40" d="M200.2-23.6h4.2l0,0v1.8c0,1-0.8,1.9-1.9,1.9H202c-1,0-1.9-0.8-1.9-1.9L200.2-23.6
								L200.2-23.6z"/>
							<path id="Rectangle_885" class="st39" d="M204.4-23.6h4.2l0,0v1.8c0,1-0.8,1.9-1.9,1.9h-0.5c-1,0-1.9-0.8-1.9-1.9l0,0
								L204.4-23.6L204.4-23.6z"/>
							<path id="Rectangle_886" class="st40" d="M208.5-23.6h4.2l0,0v1.8c0,1-0.8,1.9-1.9,1.9l0,0h-0.5c-1,0-1.9-0.8-1.9-1.9l0,0
								L208.5-23.6L208.5-23.6z"/>
							<path id="Rectangle_887" class="st39" d="M212.7-23.6h4.2l0,0v1.8c0,1-0.8,1.9-1.9,1.9l0,0h-0.5c-1,0-1.9-0.8-1.9-1.9l0,0
								L212.7-23.6L212.7-23.6z"/>
							<path id="Rectangle_888" class="st40" d="M216.8-23.6h4.2l0,0v1.8c0,1-0.8,1.9-1.9,1.9l0,0h-0.5c-1,0-1.9-0.8-1.9-1.9
								L216.8-23.6L216.8-23.6z"/>
							<path id="Rectangle_889" class="st39" d="M221-23.6h4.2l0,0v1.8c0,1-0.8,1.9-1.9,1.9h-0.5c-1,0-1.9-0.8-1.9-1.9L221-23.6
								L221-23.6z"/>
							<path id="Rectangle_890" class="st40" d="M225.1-23.6h4.2l0,0v1.8c0,1-0.8,1.9-1.9,1.9l0,0H227c-1,0-1.9-0.8-1.9-1.9l0,0
								V-23.6L225.1-23.6z"/>
							<path id="Rectangle_891" class="st39" d="M229.4-23.6h4.2l0,0v1.8c0,1-0.8,1.9-1.9,1.9l0,0h-0.5c-1,0-1.9-0.8-1.9-1.9l0,0
								L229.4-23.6L229.4-23.6z"/>
							<path id="Rectangle_892" class="st39" d="M237.7-23.6h4.2l0,0v1.8c0,1-0.8,1.9-1.9,1.9l0,0h-0.5c-1,0-1.9-0.8-1.9-1.9
								L237.7-23.6L237.7-23.6z"/>
							<path id="Rectangle_893" class="st40" d="M233.4-23.6h4.2l0,0v1.8c0,1-0.8,1.9-1.9,1.9l0,0h-0.5c-1,0-1.9-0.8-1.9-1.9l0,0
								L233.4-23.6L233.4-23.6z"/>
						</g>
					</g>
					<rect id="Rectangle_894" x="171" y="-30.4" class="st41" width="70.9" height="1.6"/>
					<rect id="Rectangle_895" x="171" y="-31.3" class="st42" width="70.9" height="1"/>
					<rect id="Rectangle_896" x="175.3" y="-3.8" class="st43" width="18.4" height="1.5"/>
					<rect id="Rectangle_897" x="220.3" y="-3.8" class="st43" width="18.4" height="1.5"/>
				</g>
				<g id="Group_1020">
					<g id="Group_1004">
						<path id="Path_1668" class="st18" d="M435.8-99.7H376v8.6h63.1v-8.6H435.8z"/>
						<path id="Path_1669" class="st10" d="M435.8-91.2h-59.7v2.2h63.1v-2.2H435.8z"/>
						<path id="Path_1670" class="st44" d="M422.2-89.1h-44.8V5.2h60.5v-94.3H422.2z"/>
						<path id="Path_1671" class="st12" d="M440.5-89.1h-63.2v1.9H438v-1.9H440.5z"/>
						<rect id="Rectangle_898" x="373.7" y="-103" class="st31" width="4.4" height="87.2"/>
						<rect id="Rectangle_899" x="437.1" y="-102.9" class="st31" width="4.4" height="87.2"/>
						<rect id="Rectangle_900" x="377.5" y="1.2" class="st18" width="60" height="4.1"/>
						<rect id="Rectangle_901" x="407.9" y="2.4" class="st35" width="15.7" height="1.6"/>
						<rect id="Rectangle_902" x="407.9" y="4" class="st36" width="15.7" height="1.3"/>
						<rect id="Rectangle_903" x="407.9" y="1.1" class="st18" width="15.7" height="1.5"/>
						<rect id="Rectangle_904" x="394.7" y="1.2" class="st45" width="13.2" height="4.1"/>
						<rect id="Rectangle_905" x="423.6" y="1.2" class="st45" width="13.5" height="4.1"/>
						<rect id="Rectangle_906" x="437.1" y="-92.6" class="st44" width="4.4" height="97.8"/>
						<rect id="Rectangle_907" x="373.7" y="-92.6" class="st44" width="4.4" height="98.1"/>
						<path id="Path_1672" class="st18" d="M407.9-76.2l8.3-8.5l7.5,8.5H407.9z"/>
						<path id="Path_1673" class="st10" d="M416.1-84.9l11.7,6.9l-5.9,0.2L416.1-84.9z"/>
						<path id="Path_1674" class="st10" d="M416.1-84.9L404.4-78l5.9,0.2L416.1-84.9z"/>
						<g id="Group_1000">
							<g id="Group_998">
								<rect id="Rectangle_908" x="407.9" y="-68.9" class="st44" width="15.8" height="68.8"/>
								<rect id="Rectangle_909" x="423.6" y="-68.9" class="st11" width="13.6" height="70.1"/>
								<rect id="Rectangle_910" x="394.7" y="-68.9" class="st11" width="13.3" height="70.1"/>
								<rect id="Rectangle_911" x="407.9" y="-68.9" class="st10" width="15.8" height="2"/>
								<rect id="Rectangle_912" x="423.6" y="-68.9" class="st28" width="13.6" height="2"/>
								<rect id="Rectangle_913" x="394.7" y="-68.9" class="st28" width="13.3" height="2"/>
								<rect id="Rectangle_914" x="407.9" y="-76" class="st18" width="15.8" height="7"/>
								<path id="Path_1675" class="st10" d="M427.9-76h-4.2v7h13.6L427.9-76z"/>
								<path id="Path_1676" class="st10" d="M408-76h-3.7l-9.6,7H408V-76z"/>
								<rect id="Rectangle_915" x="404.3" y="-78.3" class="st28" width="23.6" height="2.2"/>
								<g id="Group_983">
									<rect id="Rectangle_916" x="412" y="-38.7" class="st46" width="7.6" height="9.8"/>
									<rect id="Rectangle_917" x="413.1" y="-37.4" class="st13" width="5.3" height="8.5"/>
									<g id="Group_982">
										<path id="Path_1677" class="st47" d="M419.5-38.5v9.6h1.3v-10.9L419.5-38.5z"/>
										<path id="Path_1678" class="st48" d="M410.9-39.8l1.2,1.3h7.3l1.3-1.3l0,0H410.9z"/>
										<path id="Path_1679" class="st47" d="M412.2-38.5v9.6h-1.3v-10.9L412.2-38.5z"/>
									</g>
									<rect id="Rectangle_918" x="415.5" y="-38.4" class="st46" width="0.7" height="9.4"/>
								</g>
								<g id="Group_985">
									<rect id="Rectangle_919" x="412" y="-59.3" class="st46" width="7.6" height="9.8"/>
									<rect id="Rectangle_920" x="413.1" y="-58.1" class="st13" width="5.3" height="8.5"/>
									<g id="Group_984">
										<path id="Path_1680" class="st47" d="M419.5-59.1v9.6h1.3v-10.9L419.5-59.1z"/>
										<path id="Path_1681" class="st48" d="M410.9-60.4l1.2,1.3h7.3l1.3-1.3l0,0H410.9z"/>
										<path id="Path_1682" class="st47" d="M412.2-59.1v9.6h-1.3v-10.9L412.2-59.1z"/>
									</g>
									<rect id="Rectangle_921" x="415.5" y="-58.9" class="st46" width="0.7" height="9.4"/>
								</g>
								<g id="Group_987">
									<rect id="Rectangle_922" x="427.6" y="-38.7" class="st46" width="5.6" height="13.2"/>
									<rect id="Rectangle_923" x="428.8" y="-37.4" class="st13" width="3.3" height="11.9"/>
									<g id="Group_986">
										<path id="Path_1683" class="st47" d="M433.1-38.5v13h1.3v-14.3L433.1-38.5z"/>
										<path id="Path_1684" class="st48" d="M426.5-39.8l1.2,1.3h5.4l1.3-1.3l0,0H426.5z"/>
										<path id="Path_1685" class="st47" d="M427.7-38.5v13h-1.3v-14.3L427.7-38.5z"/>
									</g>
								</g>
								<g id="Group_989">
									<rect id="Rectangle_924" x="399" y="-38.7" class="st46" width="5.6" height="13.2"/>
									<rect id="Rectangle_925" x="400.1" y="-37.4" class="st13" width="3.3" height="11.9"/>
									<g id="Group_988">
										<path id="Path_1686" class="st47" d="M404.5-38.5v13h1.3v-14.3L404.5-38.5z"/>
										<path id="Path_1687" class="st48" d="M397.9-39.8l1.2,1.3h5.4l1.3-1.3l0,0H397.9z"/>
										<path id="Path_1688" class="st47" d="M399.1-38.5v13h-1.3v-14.3L399.1-38.5z"/>
									</g>
								</g>
								<g id="Group_991">
									<rect id="Rectangle_926" x="427.6" y="-59.3" class="st46" width="5.6" height="13.2"/>
									<rect id="Rectangle_927" x="428.8" y="-58.1" class="st13" width="3.3" height="11.9"/>
									<g id="Group_990">
										<path id="Path_1689" class="st47" d="M433.1-59.1v13h1.3v-14.3L433.1-59.1z"/>
										<path id="Path_1690" class="st48" d="M426.5-60.4l1.2,1.3h5.4l1.3-1.3l0,0H426.5z"/>
										<path id="Path_1691" class="st47" d="M427.7-59.1v13h-1.3v-14.3L427.7-59.1z"/>
									</g>
								</g>
								<g id="Group_993">
									<rect id="Rectangle_928" x="399" y="-59.3" class="st46" width="5.6" height="13.2"/>
									<rect id="Rectangle_929" x="400.1" y="-58.1" class="st13" width="3.3" height="11.9"/>
									<g id="Group_992">
										<path id="Path_1692" class="st47" d="M404.5-59.1v13h1.3v-14.3L404.5-59.1z"/>
										<path id="Path_1693" class="st48" d="M397.9-60.4l1.2,1.3h5.4l1.3-1.3l0,0H397.9z"/>
										<path id="Path_1694" class="st47" d="M399.1-59.1v13h-1.3v-14.3L399.1-59.1z"/>
									</g>
								</g>
								<g id="Group_995">
									<rect id="Rectangle_930" x="427.6" y="-18.4" class="st46" width="5.6" height="13.2"/>
									<rect id="Rectangle_931" x="428.8" y="-17.1" class="st13" width="3.3" height="11.9"/>
									<g id="Group_994">
										<path id="Path_1695" class="st47" d="M433.1-18.3v13h1.3v-14.2L433.1-18.3z"/>
										<path id="Path_1696" class="st48" d="M426.5-19.5l1.2,1.3h5.4l1.3-1.3l0,0H426.5z"/>
										<path id="Path_1697" class="st47" d="M427.7-18.3v13h-1.3v-14.2L427.7-18.3z"/>
									</g>
								</g>
								<g id="Group_997">
									<rect id="Rectangle_932" x="399" y="-18.4" class="st46" width="5.6" height="13.2"/>
									<rect id="Rectangle_933" x="400.1" y="-17.1" class="st13" width="3.3" height="11.9"/>
									<g id="Group_996">
										<path id="Path_1698" class="st47" d="M404.5-18.3v13h1.3v-14.2L404.5-18.3z"/>
										<path id="Path_1699" class="st48" d="M397.9-19.5l1.2,1.3h5.4l1.3-1.3l0,0H397.9z"/>
										<path id="Path_1700" class="st47" d="M399.1-18.3v13h-1.3v-14.2L399.1-18.3z"/>
									</g>
								</g>
							</g>
							<g id="Group_999">
								<rect id="Rectangle_934" x="407.9" y="-19.9" class="st49" width="15.7" height="21"/>
								<rect id="Rectangle_935" x="410.6" y="-17" class="st50" width="10.2" height="18.2"/>
								<rect id="Rectangle_936" x="410.6" y="-17" class="st51" width="0.9" height="18.2"/>
								<rect id="Rectangle_937" x="419.9" y="-17" class="st51" width="0.9" height="18.2"/>
								<rect id="Rectangle_938" x="410.6" y="-17" class="st51" width="10.1" height="1"/>
								<path id="Path_1701" class="st52" d="M410.6-17l-2.8-2.8h15.8l-2.9,2.8C420.9-17,410.7-17,410.6-17z"/>
							</g>
						</g>
						<g id="Group_1001">
							<path id="Path_1702" class="st47" d="M380.7-4.9v-10.2c0-2.5,2-4.5,4.4-4.5s4.5,2,4.5,4.5c0,0,0,0,0,0.1v10.2L380.7-4.9
								L380.7-4.9z"/>
							<path id="Path_1703" class="st46" d="M382.1-4.9v-10.2c0-1.7,1.4-3.1,3.1-3.1s3.1,1.4,3.1,3.1l0,0v10.2H382.1z"/>
							<path id="Path_1704" class="st13" d="M383.1-4.9v-10.2c0-1.1,0.9-2.1,2-2.1s2,0.9,2,2l0,0V-5h-4V-4.9z"/>
							<rect id="Rectangle_939" x="382.6" y="-11.7" class="st46" width="5.1" height="0.7"/>
						</g>
						<g id="Group_1002">
							<path id="Path_1705" class="st47" d="M380.7-25.4v-30.4c0-2.5,2-4.5,4.4-4.5s4.5,2,4.5,4.5c0,0,0,0,0,0.1v30.3H380.7z"/>
							<path id="Path_1706" class="st46" d="M382.1-25.4v-30.4c0-1.7,1.4-3.1,3.1-3.1s3.1,1.4,3.1,3.1v30.4H382.1z"/>
							<path id="Path_1707" class="st13" d="M383.1-25.4v-30.4c0-1.1,0.9-2.1,2-2.1s2,0.9,2,2l0,0v30.5H383.1z"/>
							<rect id="Rectangle_940" x="382.7" y="-50.2" class="st46" width="5.1" height="0.7"/>
							<rect id="Rectangle_941" x="382.7" y="-42.1" class="st46" width="5.1" height="0.7"/>
							<rect id="Rectangle_942" x="382.7" y="-34" class="st46" width="5.1" height="0.7"/>
						</g>
						<g id="Group_1003">
							<path id="Path_1708" class="st47" d="M380.7-67.8v-10.2c0-2.5,2-4.5,4.5-4.5c2.4,0,4.4,2,4.4,4.5v10.2H380.7z"/>
							<path id="Path_1709" class="st46" d="M382.1-67.8v-10.2c0-1.7,1.4-3.1,3.1-3.1s3.1,1.4,3.1,3.1v10.2H382.1z"/>
							<path id="Path_1710" class="st13" d="M383.1-67.8v-10.2c0-1.1,0.9-2,2-2s2,0.9,2,2v10.2H383.1z"/>
							<rect id="Rectangle_943" x="382.7" y="-74.6" class="st46" width="5.1" height="0.7"/>
						</g>
					</g>
					<g id="Group_1005">
						<path id="Path_1711" class="st53" d="M496.9-62.3h-49V5.4h67.9v-67.7H496.9z"/>
						<path id="Path_1712" class="st12" d="M512-62.3h-64.1v1.9h67.9v-1.9H512z"/>
						<path id="Path_1713" class="st18" d="M514.3-72.9h-66.4v8.6h67.9v-8.6H514.3z"/>
						<path id="Path_1714" class="st10" d="M514.2-64.4h-66.3v2.2h67.9v-2.2H514.2z"/>
					</g>
					<g id="Group_1013">
						<rect id="Rectangle_944" x="447.7" y="-36.9" class="st18" width="68.4" height="42.3"/>
						<g id="Group_1006">
							<rect id="Rectangle_945" x="476.8" y="-14.3" class="st26" width="11.5" height="18.1"/>
							<rect id="Rectangle_946" x="477.7" y="-13.4" class="st13" width="9.8" height="17.2"/>
							<path id="Path_1715" class="st27" d="M487.4-13.4h-9.8V3.7h0.9v-16.3h8V3.8h0.9v-16.4l0,0V-13.4z"/>
							<rect id="Rectangle_947" x="465.3" y="1.7" class="st36" width="33.9" height="1.8"/>
							<rect id="Rectangle_948" x="463.8" y="3.6" class="st54" width="37" height="1.8"/>
						</g>
						<g id="Group_1008">
							<rect id="Rectangle_949" x="454.3" y="-13.6" class="st55" width="16.8" height="13.4"/>
							<rect id="Rectangle_950" x="455.2" y="-12.8" class="st13" width="15.2" height="11.7"/>
							<g id="Group_1007">
								<path id="Path_1716" class="st33" d="M454.4-13.5v13.2l-0.8,0.8v-15L454.4-13.5z"/>
								<path id="Path_1717" class="st33" d="M471.9-14.3l-0.8,0.8h-16.6l-0.8-0.8l0,0H471.9z"/>
								<path id="Path_1718" class="st43" d="M471.1-13.5v13.2l0.8,0.8v-14.9L471.1-13.5z"/>
								<path id="Path_1719" class="st43" d="M471.9,0.5l-0.8-0.8h-16.6l-0.8,0.8l0,0H471.9z"/>
							</g>
							<rect id="Rectangle_951" x="462.6" y="-13" class="st55" width="0.7" height="12.4"/>
						</g>
						<g id="Group_1010">
							<rect id="Rectangle_952" x="494.6" y="-13.6" class="st55" width="16.8" height="13.4"/>
							<rect id="Rectangle_953" x="495.4" y="-12.8" class="st13" width="15.2" height="11.7"/>
							<g id="Group_1009">
								<path id="Path_1720" class="st33" d="M494.6-13.5v13.2l-0.8,0.8v-15L494.6-13.5z"/>
								<path id="Path_1721" class="st33" d="M512.1-14.3l-0.8,0.8h-16.6l-0.8-0.8l0,0H512.1z"/>
								<path id="Path_1722" class="st43" d="M511.3-13.5v13.2l0.8,0.8v-14.9L511.3-13.5z"/>
								<path id="Path_1723" class="st43" d="M512.1,0.5l-0.8-0.8h-16.6l-0.8,0.8l0,0H512.1z"/>
							</g>
							<rect id="Rectangle_954" x="502.8" y="-13" class="st55" width="0.7" height="12.4"/>
						</g>
						<g id="Group_1012">
							<rect id="Rectangle_955" x="446" y="-29.8" class="st56" width="4.3" height="7"/>
							<rect id="Rectangle_956" x="450.1" y="-29.8" class="st38" width="4.3" height="7"/>
							<rect id="Rectangle_957" x="454.4" y="-29.8" class="st56" width="4.3" height="7"/>
							<rect id="Rectangle_958" x="458.6" y="-29.8" class="st38" width="4.3" height="7"/>
							<rect id="Rectangle_959" x="462.9" y="-29.8" class="st56" width="4.3" height="7"/>
							<rect id="Rectangle_960" x="467" y="-29.8" class="st38" width="4.3" height="7"/>
							<rect id="Rectangle_961" x="471.3" y="-29.8" class="st56" width="4.3" height="7"/>
							<rect id="Rectangle_962" x="475.5" y="-29.8" class="st38" width="4.3" height="7"/>
							<rect id="Rectangle_963" x="479.8" y="-29.8" class="st56" width="4.3" height="7"/>
							<rect id="Rectangle_964" x="483.9" y="-29.8" class="st38" width="4.3" height="7"/>
							<rect id="Rectangle_965" x="488.2" y="-29.8" class="st56" width="4.3" height="7"/>
							<rect id="Rectangle_966" x="492.4" y="-29.8" class="st38" width="4.3" height="7"/>
							<rect id="Rectangle_967" x="496.7" y="-29.8" class="st56" width="4.3" height="7"/>
							<rect id="Rectangle_968" x="500.9" y="-29.8" class="st38" width="4.3" height="7"/>
							<rect id="Rectangle_969" x="505.2" y="-29.8" class="st56" width="4.3" height="7"/>
							<rect id="Rectangle_970" x="513.6" y="-29.8" class="st56" width="4.3" height="7"/>
							<rect id="Rectangle_971" x="509.3" y="-29.8" class="st38" width="4.3" height="7"/>
							<g id="Group_1011">
								<path id="Rectangle_972" class="st57" d="M446-22.9h4.3l0,0v3c0,1.1-0.9,2-2,2h-0.4c-1.1,0-2-0.9-2-2L446-22.9L446-22.9z"/>
								<path id="Rectangle_973" class="st58" d="M450.1-22.9h4.3l0,0v3c0,1.1-0.9,2-2,2H452c-1.1,0-2-0.9-2-2L450.1-22.9
									L450.1-22.9z"/>
								<path id="Rectangle_974" class="st57" d="M454.4-22.9h4.3l0,0v3c0,1.1-0.9,2-2,2h-0.4c-1.1,0-2-0.9-2-2L454.4-22.9
									L454.4-22.9z"/>
								<path id="Rectangle_975" class="st58" d="M458.6-22.9h4.3l0,0v3c0,1.1-0.9,2-2,2h-0.4c-1.1,0-2-0.9-2-2L458.6-22.9
									L458.6-22.9z"/>
								<path id="Rectangle_976" class="st57" d="M462.9-22.9h4.3l0,0v3c0,1.1-0.9,2-2,2h-0.4c-1.1,0-2-0.9-2-2L462.9-22.9
									L462.9-22.9z"/>
								<path id="Rectangle_977" class="st58" d="M467-22.9h4.3l0,0v3c0,1.1-0.9,2-2,2H469c-1.1,0-2-0.9-2-2V-22.9L467-22.9z"/>
								<path id="Rectangle_978" class="st57" d="M471.3-22.9h4.3l0,0v3c0,1.1-0.9,2-2,2h-0.4c-1.1,0-2-0.9-2-2L471.3-22.9
									L471.3-22.9z"/>
								<path id="Rectangle_979" class="st58" d="M475.5-22.9h4.3l0,0v3c0,1.1-0.9,2-2,2h-0.4c-1.1,0-2-0.9-2-2L475.5-22.9
									L475.5-22.9z"/>
								<path id="Rectangle_980" class="st57" d="M479.8-22.9h4.3l0,0v3c0,1.1-0.9,2-2,2h-0.4c-1.1,0-2-0.9-2-2L479.8-22.9
									L479.8-22.9z"/>
								<path id="Rectangle_981" class="st58" d="M483.9-22.9h4.3l0,0v3c0,1.1-0.9,2-2,2h-0.4c-1.1,0-2-0.9-2-2L483.9-22.9
									L483.9-22.9z"/>
								<path id="Rectangle_982" class="st57" d="M488.2-22.9h4.3l0,0v3c0,1.1-0.9,2-2,2h-0.4c-1.1,0-2-0.9-2-2L488.2-22.9
									L488.2-22.9z"/>
								<path id="Rectangle_983" class="st58" d="M492.4-22.9h4.3l0,0v3c0,1.1-0.9,2-2,2h-0.4c-1.1,0-2-0.9-2-2L492.4-22.9
									L492.4-22.9z"/>
								<path id="Rectangle_984" class="st57" d="M496.7-22.9h4.3l0,0v3c0,1.1-0.9,2-2,2h-0.4c-1.1,0-2-0.9-2-2L496.7-22.9
									L496.7-22.9z"/>
								<path id="Rectangle_985" class="st58" d="M500.9-22.9h4.3l0,0v3c0,1.1-0.9,2-2,2h-0.4c-1.1,0-2-0.9-2-2L500.9-22.9
									L500.9-22.9z"/>
								<path id="Rectangle_986" class="st57" d="M505.2-22.9h4.3l0,0v3c0,1.1-0.9,2-2,2h-0.4c-1.1,0-2-0.9-2-2L505.2-22.9
									L505.2-22.9z"/>
								<path id="Rectangle_987" class="st57" d="M513.6-22.9h4.3l0,0v3c0,1.1-0.9,2-2,2h-0.4c-1.1,0-2-0.9-2-2L513.6-22.9
									L513.6-22.9z"/>
								<path id="Rectangle_988" class="st58" d="M509.3-22.9h4.3l0,0v3c0,1.1-0.9,2-2,2h-0.4c-1.1,0-2-0.9-2-2L509.3-22.9
									L509.3-22.9z"/>
							</g>
						</g>
						<rect id="Rectangle_989" x="446" y="-31.8" class="st57" width="72" height="2.2"/>
						<rect id="Rectangle_990" x="446.1" y="-38.3" class="st59" width="71.7" height="2.7"/>
						<rect id="Rectangle_991" x="447.6" y="-35.6" class="st60" width="68.4" height="1.8"/>
					</g>
					<g id="Group_1015">
						<rect id="Rectangle_992" x="456.2" y="-54.4" class="st55" width="9.5" height="9.8"/>
						<rect id="Rectangle_993" x="457" y="-53.5" class="st13" width="7.9" height="8.1"/>
						<g id="Group_1014">
							<path id="Path_1724" class="st61" d="M456.3-54.3v9.6l-0.8,0.8v-11.2L456.3-54.3z"/>
							<path id="Path_1725" class="st61" d="M466.4-55.1l-0.8,0.8h-9.3l-0.8-0.8l0,0H466.4z"/>
							<path id="Path_1726" class="st62" d="M465.6-54.3v9.6l0.8,0.8v-11.2L465.6-54.3z"/>
							<path id="Path_1727" class="st62" d="M466.4-43.8l-0.8-0.8h-9.3l-0.8,0.8l0,0H466.4z"/>
						</g>
						<rect id="Rectangle_994" x="460.6" y="-53.8" class="st55" width="0.7" height="8.8"/>
						<rect id="Rectangle_995" x="454.3" y="-45.3" class="st59" width="12.9" height="3.7"/>
						<rect id="Rectangle_996" x="454.3" y="-45.3" class="st63" width="12.9" height="0.6"/>
					</g>
					<g id="Group_1017">
						<rect id="Rectangle_997" x="476.9" y="-54.4" class="st55" width="9.5" height="9.8"/>
						<rect id="Rectangle_998" x="477.7" y="-53.5" class="st13" width="7.9" height="8.1"/>
						<g id="Group_1016">
							<path id="Path_1728" class="st61" d="M477-54.3v9.6l-0.8,0.8v-11.2L477-54.3z"/>
							<path id="Path_1729" class="st61" d="M487.1-55.1l-0.8,0.8H477l-0.8-0.8l0,0H487.1z"/>
							<path id="Path_1730" class="st62" d="M486.3-54.3v9.6l0.8,0.8v-11.2L486.3-54.3z"/>
							<path id="Path_1731" class="st62" d="M487.1-43.8l-0.8-0.8H477l-0.8,0.8l0,0H487.1z"/>
						</g>
						<rect id="Rectangle_999" x="481.3" y="-53.8" class="st55" width="0.7" height="8.8"/>
						<rect id="Rectangle_1000" x="475" y="-45.3" class="st59" width="12.9" height="3.7"/>
						<rect id="Rectangle_1001" x="475" y="-45.3" class="st63" width="12.9" height="0.6"/>
					</g>
					<g id="Group_1019">
						<rect id="Rectangle_1002" x="497.6" y="-54.4" class="st55" width="9.5" height="9.8"/>
						<rect id="Rectangle_1003" x="498.4" y="-53.5" class="st13" width="7.9" height="8.1"/>
						<g id="Group_1018">
							<path id="Path_1732" class="st61" d="M497.6-54.3v9.6l-0.8,0.8v-11.2L497.6-54.3z"/>
							<path id="Path_1733" class="st61" d="M507.7-55.1l-0.8,0.8h-9.3l-0.8-0.8l0,0H507.7z"/>
							<path id="Path_1734" class="st62" d="M507-54.3v9.6l0.8,0.8v-11.2L507-54.3z"/>
							<path id="Path_1735" class="st62" d="M507.8-43.8l-0.8-0.8h-9.3l-0.8,0.8l0,0H507.8z"/>
						</g>
						<rect id="Rectangle_1004" x="502" y="-53.8" class="st55" width="0.7" height="8.8"/>
						<rect id="Rectangle_1005" x="495.7" y="-45.3" class="st59" width="12.9" height="3.7"/>
						<rect id="Rectangle_1006" x="495.7" y="-45.3" class="st63" width="12.9" height="0.6"/>
					</g>
				</g>
				<g id="Group_1042">
					<g id="Group_1040">
						<rect id="Rectangle_1007" x="283.5" y="1.6" class="st18" width="78.3" height="3.6"/>
						<g id="Group_1023">
							<rect id="Rectangle_1008" x="251.1" y="-18.2" class="st64" width="32.8" height="19.9"/>
							<g id="Group_1022">
								<rect id="Rectangle_1009" x="261.2" y="-11.5" class="st15" width="13.3" height="7.9"/>
								<rect id="Rectangle_1010" x="262.1" y="-10.5" class="st13" width="11.6" height="6.1"/>
								<g id="Group_1021">
									<path id="Path_1736" class="st65" d="M261.3-11.3v7.7l-1.1,1.2v-10L261.3-11.3z"/>
									<path id="Path_1737" class="st65" d="M275.6-12.5l-1.1,1.2h-13.1l-1.1-1.2H275.6z"/>
									<path id="Path_1738" class="st66" d="M274.5-11.3v7.7l1.1,1.2v-10L274.5-11.3z"/>
									<path id="Path_1739" class="st66" d="M275.6-2.5l-1.1-1.2h-13.1l-1.2,1.2H275.6z"/>
								</g>
								<rect id="Rectangle_1011" x="265.2" y="-10.7" class="st15" width="0.7" height="6.4"/>
								<rect id="Rectangle_1012" x="269.7" y="-10.7" class="st15" width="0.7" height="6.4"/>
								<rect id="Rectangle_1013" x="261.8" y="-7.8" class="st15" width="12.4" height="0.7"/>
							</g>
							<rect id="Rectangle_1014" x="251.1" y="-16.5" class="st60" width="33.1" height="1.6"/>
							<path id="Path_1740" class="st10" d="M253.5-27.1l-5,8.8h35.9v-8.8H253.5z"/>
							<rect id="Rectangle_1015" x="248.4" y="-18.2" class="st17" width="35.9" height="1.7"/>
						</g>
						<rect id="Rectangle_1016" x="251.2" y="1.6" class="st10" width="32.8" height="3.6"/>
						<rect id="Rectangle_1017" x="323.5" y="3.4" class="st67" width="16.3" height="1.8"/>
						<rect id="Rectangle_1018" x="325.4" y="1.6" class="st68" width="12.9" height="1.9"/>
						<rect id="Rectangle_1019" x="284" y="-37.7" class="st69" width="77.8" height="39.3"/>
						<path id="Path_1741" class="st18" d="M322.7-61.9l-43.2,25h86.4L322.7-61.9z"/>
						<rect id="Rectangle_1020" x="325.7" y="-15.3" class="st70" width="12" height="17"/>
						<rect id="Rectangle_1021" x="327" y="-14.3" class="st71" width="9.5" height="16"/>
						<g id="Group_1024">
							<path id="Path_1742" class="st72" d="M335-0.4h-6.4v-12.5h6.4V-0.4z M329.1-0.9h5.4v-11.5h-5.4V-0.9z"/>
						</g>
						<path id="Path_1743" class="st18" d="M322.7-61.9V-37h43.1L322.7-61.9z"/>
						<g id="Group_1026">
							<rect id="Rectangle_1022" x="291.3" y="-28.9" class="st13" width="10.2" height="9.6"/>
							<g id="Group_1025">
								<rect id="Rectangle_1023" x="291.6" y="-28.5" class="st15" width="0.7" height="8.8"/>
								<rect id="Rectangle_1024" x="300.5" y="-28.5" class="st15" width="0.8" height="8.8"/>
								<rect id="Rectangle_1025" x="291.7" y="-28.5" class="st15" width="9.7" height="0.8"/>
								<rect id="Rectangle_1026" x="291.7" y="-20.4" class="st15" width="9.7" height="0.7"/>
								<path id="Path_1744" class="st73" d="M291.7-28.5h9.6l1.2-1.2h-12L291.7-28.5z"/>
								<path id="Path_1745" class="st73" d="M290.4-18.5l1.2-1.2v-8.8l-1.2-1.2l0,0V-18.5z"/>
								<path id="Path_1746" class="st70" d="M291.7-19.7h9.6l1.2,1.2h-12L291.7-19.7z"/>
								<path id="Path_1747" class="st70" d="M302.5-18.5l-1.2-1.2v-8.8l1.2-1.2l0,0V-18.5z"/>
							</g>
						</g>
						<g id="Group_1028">
							<rect id="Rectangle_1027" x="309" y="-28.9" class="st13" width="10.2" height="9.6"/>
							<g id="Group_1027">
								<path id="Path_1748" class="st74" d="M318.8-25.9l-7.1,7.2h2.1l5-5.1V-25.9z"/>
								<path id="Path_1749" class="st74" d="M318.4-28.1l-8.1,8.2v1.3l8.1-8.2V-28.1z"/>
								<rect id="Rectangle_1028" x="309.3" y="-28.5" class="st15" width="0.7" height="8.8"/>
								<rect id="Rectangle_1029" x="318.2" y="-28.5" class="st15" width="0.8" height="8.8"/>
								<rect id="Rectangle_1030" x="309.3" y="-28.5" class="st15" width="9.7" height="0.8"/>
								<rect id="Rectangle_1031" x="309.3" y="-20.4" class="st15" width="9.7" height="0.7"/>
								<path id="Path_1750" class="st73" d="M309.3-28.5h9.6l1.2-1.2h-12L309.3-28.5z"/>
								<path id="Path_1751" class="st73" d="M308.1-18.5l1.2-1.2v-8.8l-1.2-1.2l0,0V-18.5z"/>
								<path id="Path_1752" class="st70" d="M309.3-19.7h9.6l1.2,1.2h-12L309.3-19.7z"/>
								<path id="Path_1753" class="st70" d="M320.2-18.5l-1.2-1.2v-8.8l1.2-1.2l0,0V-18.5z"/>
							</g>
						</g>
						<g id="Group_1030">
							<rect id="Rectangle_1032" x="326.7" y="-28.9" class="st13" width="10.2" height="9.6"/>
							<g id="Group_1029">
								<path id="Path_1754" class="st74" d="M336.5-25.9l-7.1,7.2h2.1l5-5.1V-25.9z"/>
								<path id="Path_1755" class="st74" d="M336.1-28.1l-8.1,8.2v1.3l8.1-8.2V-28.1z"/>
								<rect id="Rectangle_1033" x="326.9" y="-28.5" class="st15" width="0.7" height="8.8"/>
								<rect id="Rectangle_1034" x="335.8" y="-28.5" class="st15" width="0.8" height="8.8"/>
								<rect id="Rectangle_1035" x="326.9" y="-28.5" class="st15" width="9.7" height="0.8"/>
								<rect id="Rectangle_1036" x="326.9" y="-20.4" class="st15" width="9.7" height="0.7"/>
								<path id="Path_1756" class="st73" d="M327-28.5h9.6l1.2-1.2h-12L327-28.5z"/>
								<path id="Path_1757" class="st73" d="M325.8-18.5l1.2-1.2v-8.8l-1.2-1.2l0,0V-18.5z"/>
								<path id="Path_1758" class="st70" d="M327-19.7h9.6l1.2,1.2h-12L327-19.7z"/>
								<path id="Path_1759" class="st70" d="M337.8-18.5l-1.2-1.2v-8.8l1.2-1.2l0,0V-18.5z"/>
							</g>
						</g>
						<g id="Group_1032">
							<rect id="Rectangle_1037" x="344.3" y="-28.9" class="st13" width="10.2" height="9.6"/>
							<g id="Group_1031">
								<rect id="Rectangle_1038" x="344.6" y="-28.5" class="st15" width="0.7" height="8.8"/>
								<rect id="Rectangle_1039" x="353.5" y="-28.5" class="st15" width="0.8" height="8.8"/>
								<rect id="Rectangle_1040" x="344.6" y="-28.5" class="st15" width="9.7" height="0.8"/>
								<rect id="Rectangle_1041" x="344.6" y="-20.4" class="st15" width="9.7" height="0.7"/>
								<path id="Path_1760" class="st73" d="M344.6-28.5h9.6l1.2-1.2h-12L344.6-28.5z"/>
								<path id="Path_1761" class="st73" d="M343.4-18.5l1.2-1.2v-8.8l-1.2-1.2l0,0V-18.5z"/>
								<path id="Path_1762" class="st70" d="M344.6-19.7h9.6l1.2,1.2h-12L344.6-19.7z"/>
								<path id="Path_1763" class="st70" d="M355.5-18.5l-1.2-1.2v-8.8l1.2-1.2l0,0V-18.5z"/>
							</g>
						</g>
						<g id="Group_1034">
							<rect id="Rectangle_1042" x="291.3" y="-14.2" class="st13" width="10.2" height="9.6"/>
							<g id="Group_1033">
								<rect id="Rectangle_1043" x="291.6" y="-13.8" class="st15" width="0.7" height="8.8"/>
								<rect id="Rectangle_1044" x="300.5" y="-13.8" class="st15" width="0.8" height="8.8"/>
								<rect id="Rectangle_1045" x="291.7" y="-13.8" class="st15" width="9.7" height="0.8"/>
								<rect id="Rectangle_1046" x="291.7" y="-5.7" class="st15" width="9.7" height="0.7"/>
								<path id="Path_1764" class="st73" d="M291.7-13.8h9.6l1.2-1.2h-12L291.7-13.8z"/>
								<path id="Path_1765" class="st73" d="M290.4-3.8l1.2-1.2v-8.8l-1.2-1.2l0,0V-3.8z"/>
								<path id="Path_1766" class="st70" d="M291.7-5h9.6l1.2,1.2h-12L291.7-5z"/>
								<path id="Path_1767" class="st70" d="M302.5-3.8L301.3-5v-8.8l1.2-1.2l0,0V-3.8z"/>
							</g>
						</g>
						<g id="Group_1036">
							<rect id="Rectangle_1047" x="309" y="-14.2" class="st13" width="10.2" height="9.6"/>
							<g id="Group_1035">
								<path id="Path_1768" class="st74" d="M318.8-11.2L311.7-4h2.1l5-5.1V-11.2z"/>
								<path id="Path_1769" class="st74" d="M318.4-13.4l-8.1,8.2v1.3l8.1-8.2V-13.4z"/>
								<rect id="Rectangle_1048" x="309.3" y="-13.8" class="st15" width="0.7" height="8.8"/>
								<rect id="Rectangle_1049" x="318.2" y="-13.8" class="st15" width="0.8" height="8.8"/>
								<rect id="Rectangle_1050" x="309.3" y="-13.8" class="st15" width="9.7" height="0.8"/>
								<rect id="Rectangle_1051" x="309.3" y="-5.7" class="st15" width="9.7" height="0.7"/>
								<path id="Path_1770" class="st73" d="M309.3-13.8h9.6l1.2-1.2h-12L309.3-13.8z"/>
								<path id="Path_1771" class="st73" d="M308.1-3.8l1.2-1.2v-8.8l-1.2-1.2l0,0V-3.8z"/>
								<path id="Path_1772" class="st70" d="M309.3-5h9.6l1.2,1.2h-12L309.3-5z"/>
								<path id="Path_1773" class="st70" d="M320.2-3.8L319-5v-8.8l1.2-1.2l0,0V-3.8z"/>
							</g>
						</g>
						<g id="Group_1038">
							<rect id="Rectangle_1052" x="344.3" y="-14.2" class="st13" width="10.2" height="9.6"/>
							<g id="Group_1037">
								<rect id="Rectangle_1053" x="344.6" y="-13.8" class="st15" width="0.7" height="8.8"/>
								<rect id="Rectangle_1054" x="353.5" y="-13.8" class="st15" width="0.8" height="8.8"/>
								<rect id="Rectangle_1055" x="344.6" y="-13.8" class="st15" width="9.7" height="0.8"/>
								<rect id="Rectangle_1056" x="344.6" y="-5.7" class="st15" width="9.7" height="0.7"/>
								<path id="Path_1774" class="st73" d="M344.6-13.8h9.6l1.2-1.2h-12L344.6-13.8z"/>
								<path id="Path_1775" class="st73" d="M343.4-3.8l1.2-1.2v-8.8l-1.2-1.2l0,0V-3.8z"/>
								<path id="Path_1776" class="st70" d="M344.6-5h9.6l1.2,1.2h-12L344.6-5z"/>
								<path id="Path_1777" class="st70" d="M355.5-3.8L354.3-5v-8.8l1.2-1.2l0,0V-3.8z"/>
							</g>
						</g>
						<rect id="Rectangle_1057" x="279.6" y="-37" class="st10" width="86.3" height="1.7"/>
						<rect id="Rectangle_1058" x="284" y="-35.3" class="st60" width="77.8" height="1.7"/>
						<g id="Group_1039">
							<rect id="Rectangle_1059" x="328.6" y="-6.4" class="st72" width="6.1" height="0.5"/>
						</g>
						<path id="Path_1778" class="st12" d="M337.8-15.3l-12,12.2v-12.2H337.8z"/>
					</g>
					<g id="Group_1041">
						<rect id="Rectangle_1060" x="327.5" y="-6.7" class="st72" width="0.5" height="1.4"/>
					</g>
				</g>
				<g id="Group_1046">
					<g id="Group_1045">
						<path id="Path_1785" class="st3" d="M88.2,5.2h-4.3l1.2-55.4l2.2-2.4L88.2,5.2z"/>
						<path id="Path_1786" class="st4" d="M86.5-52.5l-1.4,2l-1,46.3l0,0c1.5-0.1,2.7,1.1,2.8,2.6c0,0.1,0,0.2,0,0.2v6.5h1.5v-9.4
							l-1-48.4L86.5-52.5L86.5-52.5z"/>
					</g>
					<path id="Path_1787" class="st5" d="M83.9-52.8L76-45.6l2.9,1.1l-8.6,3.2l-2.7,4.6l7.9-0.1l-9.8,5.9v5.4l13.6-4.3l6-7.4
						l21.7,4.6v-5.7l-8.3-3.6l4.5-0.4l-2.2-3.1L88.5-49h4l-7.2-11.4L83.9-52.8z"/>
					<path id="Path_1788" class="st6" d="M85.1-37.3l21.7,4.6v-5.7L98.5-42l4.5-0.4l-2.2-3.1l-12.5-3.5h4l-6.7-10.6l2.2,8.5
						l-2.6,1.4l10.1,8.2l-10.9,0.9l-8.5,7.4l-10.1,2L65.5-31v5.4l13.6-4.3L85.1-37.3z"/>
					<path id="Path_1789" class="st5" d="M83.9-69.9L76-62.8l2.9,1.1l-8.6,3.2l-2.7,4.6l7.9-0.1l-9.8,5.9v5.4L79.4-47l6-7.4
						l21.7,4.6v-5.7l-8.3-3.6l4.5-0.4l-2.2-3.1l-12.8-3.7h4l-7.2-11.4L83.9-69.9z"/>
					<path id="Path_1790" class="st6" d="M85.1-54.5l21.7,4.6v-5.7l-8.3-3.6l4.5-0.4l-2.2-3.1l-12.5-3.6h4L85.6-77l2.2,8.5L85.2-67
						l10.1,8.2l-10.9,1.1l-8.5,7.4l-10.1,2l-0.3,0.2v5.4L79.2-47L85.1-54.5z"/>
				</g>
				<g id="Group_1077">
					<g id="Group_1056">
						<g id="Group_1048">
							<g id="Group_1047">
								<rect id="Rectangle_1061" x="122.6" y="-3.1" class="st75" width="21.2" height="1.1"/>
							</g>
						</g>
						<g id="Group_1050">
							<g id="Group_1049">
								<rect id="Rectangle_1062" x="122.6" y="1.7" class="st75" width="21.2" height="1.1"/>
							</g>
						</g>
						<g id="Group_1051">
							<path id="Path_1791" class="st76" d="M125.7,5.5h-1.5V-4.8l0.8-1.3l0.8,1.3L125.7,5.5z"/>
						</g>
						<g id="Group_1052">
							<path id="Path_1792" class="st76" d="M129.8,5.5h-1.5V-6l0.8-1.3l0.8,1.3L129.8,5.5z"/>
						</g>
						<g id="Group_1053">
							<path id="Path_1793" class="st76" d="M134,5.5h-1.5V-7.3l0.8-1.3l0.8,1.3L134,5.5z"/>
						</g>
						<g id="Group_1054">
							<path id="Path_1794" class="st76" d="M138.1,5.5h-1.5V-6l0.8-1.3l0.8,1.3L138.1,5.5z"/>
						</g>
						<g id="Group_1055">
							<path id="Path_1795" class="st76" d="M142.3,5.5h-1.5V-4.8l0.8-1.3l0.8,1.3L142.3,5.5z"/>
						</g>
					</g>
					<g id="Group_1066">
						<g id="Group_1058">
							<g id="Group_1057">
								<rect id="Rectangle_1063" x="143.5" y="-3.1" class="st75" width="21.2" height="1.1"/>
							</g>
						</g>
						<g id="Group_1060">
							<g id="Group_1059">
								<rect id="Rectangle_1064" x="143.5" y="1.7" class="st75" width="21.2" height="1.1"/>
							</g>
						</g>
						<g id="Group_1061">
							<path id="Path_1796" class="st76" d="M146.5,5.5H145V-4.8l0.8-1.3l0.8,1.3L146.5,5.5z"/>
						</g>
						<g id="Group_1062">
							<path id="Path_1797" class="st76" d="M150.6,5.5h-1.5V-6l0.8-1.3l0.8,1.3L150.6,5.5z"/>
						</g>
						<g id="Group_1063">
							<path id="Path_1798" class="st76" d="M154.8,5.5h-1.6V-7.3l0.8-1.3l0.8,1.3V5.5z"/>
						</g>
						<g id="Group_1064">
							<path id="Path_1799" class="st76" d="M158.9,5.5h-1.5V-6l0.8-1.3L159-6L158.9,5.5z"/>
						</g>
						<g id="Group_1065">
							<path id="Path_1800" class="st76" d="M163.1,5.5h-1.5V-4.8l0.8-1.3l0.8,1.3L163.1,5.5z"/>
						</g>
					</g>
					<g id="Group_1076">
						<g id="Group_1068">
							<g id="Group_1067">
								<rect id="Rectangle_1065" x="101.9" y="-3.1" class="st75" width="21.2" height="1.1"/>
							</g>
						</g>
						<g id="Group_1070">
							<g id="Group_1069">
								<rect id="Rectangle_1066" x="101.9" y="1.7" class="st75" width="21.2" height="1.1"/>
							</g>
						</g>
						<g id="Group_1071">
							<path id="Path_1801" class="st76" d="M104.9,5.5h-1.5V-4.8l0.8-1.3l0.8,1.3L104.9,5.5z"/>
						</g>
						<g id="Group_1072">
							<path id="Path_1802" class="st76" d="M109.1,5.5h-1.5V-6l0.8-1.3l0.8,1.3L109.1,5.5z"/>
						</g>
						<g id="Group_1073">
							<path id="Path_1803" class="st76" d="M113.2,5.5h-1.5V-7.3l0.8-1.3l0.8,1.3L113.2,5.5z"/>
						</g>
						<g id="Group_1074">
							<path id="Path_1804" class="st76" d="M117.4,5.5h-1.5V-6l0.8-1.3l0.8,1.3L117.4,5.5L117.4,5.5z"/>
						</g>
						<g id="Group_1075">
							<path id="Path_1805" class="st76" d="M121.5,5.5H120V-4.8l0.8-1.3l0.8,1.3L121.5,5.5z"/>
						</g>
					</g>
				</g>
				<g id="Group_1078">
					<path id="Path_1806" class="st5" d="M167.8-53.6l-7.5,18.8h15.1L167.8-53.6z"/>
					<path id="Path_1807" class="st5" d="M167.8-47.9l-10.4,26h20.8L167.8-47.9z"/>
					<path id="Path_1808" class="st5" d="M167.8-42.7L154.3-8.9h27.1L167.8-42.7z"/>
					<path id="Path_1809" class="st5" d="M167.8-37.8L151.2,3.6h33.2L167.8-37.8z"/>
					<path id="Path_1810" class="st77" d="M167.8-53.6l3.2,18.9h4.3L167.8-53.6z"/>
					<path id="Path_1811" class="st77" d="M170.7-40.7l3.2,19h4.3L170.7-40.7z"/>
					<path id="Path_1812" class="st77" d="M173.8-27.8l3.2,19h4.3L173.8-27.8z"/>
					<path id="Path_1813" class="st77" d="M176.9-15.3l3.2,19h4.3L176.9-15.3z"/>
					<path id="Path_1814" class="st6" d="M162.6-34.8l10.6,0.2l2,5L162-33.3L162.6-34.8z"/>
					<path id="Path_1815" class="st6" d="M159.4-21.9h16.7l2,5l-19.4-3.5L159.4-21.9z"/>
					<path id="Path_1816" class="st6" d="M156.3-8.8h23l2,5l-25.6-3.5L156.3-8.8z"/>
					<rect id="Rectangle_1067" x="165.5" y="3.6" class="st3" width="4.5" height="9.1"/>
					<path id="Path_1817" class="st78" d="M165.5,3.6v2.5c1.7,0,3.1,1.2,3.1,2.9v3.7h1.5V3.6C170.1,3.6,165.5,3.6,165.5,3.6z"/>
				</g>
				<g id="Group_1100">
					<g id="Group_1082">
						<g id="Group_1080">
							<path id="Path_1830" class="st79" d="M131.6,5.6l-1.1-0.1c-0.3,0.3-0.4,0.7-0.4,1.1l3.3,0.3C132.9,6,131.6,5.6,131.6,5.6z"/>
						</g>
						<g id="Group_1081">
							<path id="Path_1831" class="st80" d="M124.2-6.9c0,0,7.7,3.1,8.6,4.5c0.9,1.4-1.1,8.1-1.1,8.1l-1.1-0.1c0,0-0.1-4.3,0.4-6.6
								c-3.1,1.2-7.2-0.8-7.2-0.8L124.2-6.9z"/>
						</g>
					</g>
					<g id="Group_1083">
						<ellipse id="Ellipse_137" class="st81" cx="129.8" cy="7.8" rx="1.6" ry="1.6"/>
					</g>
					<g id="Group_1084">
						<rect id="Rectangle_1069" x="123.2" y="-1" class="st82" width="13.8" height="0.9"/>
					</g>
					<g id="Group_1085">
						<path id="Path_1832" class="st82" d="M134.2,7.8c0-3,2.4-5.4,5.3-5.4c2.9,0,5.3,2.4,5.3,5.4s-2.4,5.4-5.3,5.4
							C136.6,13.3,134.2,10.8,134.2,7.8z M135.1,7.8c0,2.5,2,4.5,4.4,4.5s4.4-2,4.4-4.5s-2-4.5-4.4-4.5C137,3.3,135.1,5.3,135.1,7.8
							z"/>
					</g>
					<g id="Group_1086">
						<path id="Path_1833" class="st82" d="M115.1,7.8c0-3,2.4-5.4,5.3-5.4s5.3,2.4,5.3,5.4s-2.4,5.4-5.3,5.4
							C117.5,13.3,115.1,10.8,115.1,7.8z M116,7.8c0,2.5,2,4.5,4.4,4.5s4.4-2,4.4-4.5s-2-4.5-4.4-4.5S116,5.3,116,7.8z"/>
					</g>
					<g id="Group_1087">
						<polygon id="Rectangle_1070" class="st82" points="134.8,-6 135.6,-6.2 139.9,7.7 139.1,7.9 						"/>
					</g>
					<g id="Group_1088">
						<path id="Path_1834" class="st82" d="M128.8,8.1l0.7-0.5l-6.9-10.5l-1.9-0.5l-0.2,0.8l1.5,0.4L128.8,8.1z"/>
					</g>
					<g id="Group_1089">
						<path id="Path_1835" class="st82" d="M119.8,8.4h10.5l4.6-8.7l-0.8-0.4l-4.4,8.2H121l2.8-7.9L123-0.7L119.8,8.4z"/>
					</g>
					<g id="Group_1090">
						<path id="Path_1836" class="st82" d="M132.1-4.6h0.9v-0.3c0-0.5,0.4-0.8,0.8-0.8h3.3v-0.9h-3.3c-0.9,0-1.7,0.7-1.7,1.7V-4.6z"
							/>
					</g>
					<g id="Group_1099">
						<g id="Group_1091">
							<path id="Path_1837" class="st79" d="M129.8,9.6l-1-0.2c-0.3,0.2-0.5,0.7-0.6,1.1l3.4,0.9C131.3,10.4,129.8,9.6,129.8,9.6z"
								/>
						</g>
						<g id="Group_1092">
							<path id="Path_1838" class="st83" d="M130.7-16.6l-0.6,2.6l-1.9-2l1.6-1L130.7-16.6z"/>
						</g>
						<g id="Group_1093">
							<path id="Path_1839" class="st79" d="M128.2-16c0,0-6.1,3.9-7.5,11.8h6.7L130-14L128.2-16z"/>
						</g>
						<g id="Group_1094">
							<path id="Path_1840" class="st83" d="M128.7-12.2c-0.4,0.6-1.3,1.9-1.8,2.2c1.3-0.2,5,3,5,3l-0.2,0.7c0,0-6.7-1.5-7-2.8
								c-0.2-0.9,1.3-3.4,2.1-4.5c0.3-0.5,0.9-0.6,1.4-0.5l0,0c0.6,0.2,0.9,0.9,0.7,1.6C128.8-12.4,128.7-12.2,128.7-12.2z"/>
						</g>
						<g id="Group_1095">
							<path id="Path_1841" class="st83" d="M129.4-17.8c0-0.2-0.1-0.3-0.1-0.5c0-0.1,0-0.2,0-0.2c0-0.1,0-0.2,0-0.3
								c0-0.3,0-0.5,0.1-0.8c0.1-0.5,0.4-1,0.7-1.3c1.3-1.4,3-0.5,3.5,1.2l0,0c0.5,1.8-0.7,4-2,4.1c-0.8,0-1.6-0.8-2-1.8l0,0
								C129.4-17.6,129.4-17.7,129.4-17.8z"/>
						</g>
						<g id="Group_1096">
							<path id="Path_1842" class="st83" d="M132.6-5.7l-0.9-0.5c-0.2-0.1-0.3-0.4-0.2-0.6l0,0c0.1-0.2,0.2-0.2,0.4-0.2l1,0.1
								c0.3,0,0.6,0.3,0.6,0.7l0,0c-0.1,0.3-0.4,0.5-0.8,0.5C132.7-5.6,132.7-5.6,132.6-5.7z"/>
						</g>
						<g id="Group_1097">
							<path id="Path_1843" class="st84" d="M127.4-4.2l3.7,4.5l-1.4,9.3l-1-0.2c0,0-2-6.1,0.2-7.9c0,0-7-2.4-7.4-5.7L127.4-4.2z"/>
						</g>
						<g id="Group_1098">
							<path id="Path_1844" class="st85" d="M133.9-19.5l-2-0.5l-0.1,0.7l-1-0.2l-1.1,2.5l-1.1-1.6
								C128.6-23.3,133.5-22.8,133.9-19.5z"/>
						</g>
					</g>
				</g>
				<g id="Group_1101">
					<path id="Path_1845" class="st86" d="M466.1,11.8c-0.1,1.4,1.1,2.5,2.5,2.5h39.8l2.4-0.5c1.3-0.3,2.5-1.1,2.5-2.5
						c0-2.5,0.4-7-1.3-9.8C510-1.7,497.2-2,490.2-1c-5.2,0.7-7.6,2.7-11.8,4.5C470.1,6.9,466.8,2.3,466.1,11.8z"/>
					<path id="Path_1846" class="st87" d="M509.2,1.7c-2.3-1.8-8.2-2.2-10.6-2.2c-3.1,0-6.7,0.2-9.8,0.9c-3,0.7-5.9,2.1-8.3,4.1
						l29.9-0.6C510.3,3,509.8,2.3,509.2,1.7z"/>
					<path id="Path_1847" class="st88" d="M509.2,1.7c-2.3-1.8-8.2-2.2-10.6-2.2c-3.1,0-6.7,0.2-9.8,0.9c-3,0.7-5.9,2.1-8.3,4.1
						l29.9-0.6C510.3,3,509.8,2.2,509.2,1.7L509.2,1.7z M481.7,4.1c2.2-1.6,4.7-2.7,7.3-3.3c3.1-0.7,6.5-0.9,9.7-0.9
						c2.7,0,8.3,0.4,10.4,2.1c0.4,0.4,0.8,1,1,1.6L481.7,4.1z"/>
					<path id="Path_1848" class="st88" d="M472.4,7.1h2.9c2,0,3.3,1.4,3.9,3.2h19.6c0.6-1.8,2-3.2,3.9-3.2h2.9c2,0,3.3,1.4,3.9,3
						l1.4-0.3c0.9-0.2,1.6-0.6,2.3-1.3c0,1,0,2,0,2.8c0,1.4-1.1,2.2-2.5,2.5l-2.4,0.5h-39.8c-1.3,0-2.6-1.1-2.5-2.5
						c0-0.8,0.2-1.6,0.3-2.4c0.6,0.5,1.2,0.9,1.9,0.9h0.1C469,8.5,470.4,7.1,472.4,7.1z"/>
					<path id="Path_1849" class="st89" d="M502.8,7.8h2.9c1.9,0,3.1,1.7,3.5,3.6c0.1,0.3,0.2,0.8,0.3,1.2l1.3-0.2
						c0.9-0.2,1.8-0.6,2.5-1.2c0,0.1,0,0.2,0,0.2c0,1.4-1.1,2.2-2.5,2.5l-1,0.2l0,0l-1.4,0.3l0,0l0,0h-39.8c-1.3,0-2.6-1.1-2.5-2.5
						c0,0,0-0.1,0-0.2c0.7,0.7,1.5,1.1,2.4,1.2l0,0l0.3-1.4c0.4-1.9,1.6-3.6,3.5-3.6h2.9c1.9,0,3.1,1.7,3.5,3.6L479,13h19.9l0.3-1.4
						C499.7,9.5,500.9,7.8,502.8,7.8z"/>
					<ellipse id="Ellipse_138" class="st90" cx="473.8" cy="13.4" rx="4" ry="4.1"/>
					<path id="Path_1850" class="st91" d="M473.8,16c1.4,0,2.5-1.2,2.5-2.6c0-1.4-1.1-2.6-2.5-2.6s-2.5,1.2-2.5,2.6
						S472.5,16,473.8,16z"/>
					<path id="Path_1851" class="st92" d="M473.8,13.2c0.1,0,0.2,0.1,0.2,0.2c0,0.1-0.1,0.2-0.2,0.2s-0.2-0.1-0.2-0.2l0,0
						C473.6,13.3,473.7,13.2,473.8,13.2L473.8,13.2z M474.5,11.4c0.4,0.2,0.8,0.5,1.1,0.9c0,0.1-0.1,0.2-0.2,0.2
						c-0.2,0.1-0.4,0.1-0.7,0c-0.2,0-0.3,0-0.3-0.3c0-0.2,0-0.5,0-0.7C474.4,11.5,474.4,11.5,474.5,11.4L474.5,11.4z M475.8,13.6
						c0,0.5-0.2,0.9-0.5,1.2c-0.1,0-0.2-0.1-0.3-0.2c-0.1-0.2-0.2-0.4-0.2-0.6c0-0.3,0-0.3,0.2-0.4
						C475.2,13.5,475.4,13.5,475.8,13.6C475.8,13.5,475.8,13.5,475.8,13.6L475.8,13.6z M474.5,15.4c-0.4,0.2-0.9,0.2-1.3,0
						c0-0.1,0-0.2,0-0.2c0.1-0.2,0.2-0.4,0.4-0.5c0.2-0.2,0.2-0.2,0.5,0c0.2,0.1,0.3,0.3,0.4,0.5C474.5,15.2,474.5,15.3,474.5,15.4
						L474.5,15.4z M472.4,14.8c-0.3-0.3-0.5-0.8-0.5-1.2c0,0,0.1,0,0.2-0.1c0.2,0,0.4,0,0.7,0.1c0.2,0.1,0.3,0.1,0.2,0.4
						c0,0.2-0.1,0.5-0.2,0.6C472.6,14.8,472.5,14.8,472.4,14.8L472.4,14.8z M472.1,12.4c0.2-0.4,0.6-0.7,1.1-0.9
						c0,0,0.1,0.1,0.1,0.2c0.1,0.2,0.1,0.5,0,0.7c0,0.3-0.1,0.3-0.3,0.3c-0.2,0-0.4,0-0.7,0C472.3,12.6,472.2,12.5,472.1,12.4
						L472.1,12.4z M473.8,14c0.1,0,0.2,0.1,0.2,0.2c0,0.1-0.1,0.2-0.2,0.2s-0.2-0.1-0.2-0.2C473.7,14.1,473.8,14,473.8,14L473.8,14z
						 M474.4,13.5c0.1,0,0.2,0.1,0.2,0.2c0,0.1-0.1,0.2-0.2,0.2s-0.2-0.1-0.2-0.2C474.2,13.6,474.4,13.5,474.4,13.5L474.4,13.5z
						 M473.2,13.5c0.1,0,0.2,0.1,0.2,0.2c0,0.1-0.1,0.2-0.2,0.2s-0.2-0.1-0.2-0.2C473.1,13.6,473.1,13.5,473.2,13.5L473.2,13.5z
						 M474.2,12.8c0.1,0,0.2,0.1,0.2,0.2s-0.1,0.2-0.2,0.2S474,13.1,474,13S474.2,12.8,474.2,12.8L474.2,12.8z M473.4,12.8
						c0.1,0,0.2,0.1,0.2,0.2s-0.1,0.2-0.2,0.2s-0.2-0.1-0.2-0.2S473.3,12.8,473.4,12.8L473.4,12.8L473.4,12.8z"/>
					<path id="Path_1852" class="st93" d="M504.3,17.5c2.2,0,4-1.8,4-4.1c0-2.2-1.8-4.1-4-4.1s-4,1.8-4,4.1l0,0
						C500.3,15.7,502.1,17.5,504.3,17.5z"/>
					<path id="Path_1853" class="st91" d="M504.3,16c1.4,0,2.5-1.2,2.5-2.6c0-1.4-1.1-2.6-2.5-2.6s-2.5,1.2-2.5,2.6l0,0
						C501.8,14.8,502.8,16,504.3,16z"/>
					<path id="Path_1854" class="st92" d="M504.3,13.2c0.1,0,0.2,0.1,0.2,0.2c0,0.1-0.1,0.2-0.2,0.2s-0.2-0.1-0.2-0.2l0,0
						C504,13.3,504.1,13.2,504.3,13.2L504.3,13.2z M504.9,11.4c0.4,0.2,0.8,0.5,1.1,0.9c0,0.1-0.1,0.2-0.2,0.2
						c-0.2,0.1-0.4,0.1-0.7,0c-0.2,0-0.3,0-0.3-0.3c0-0.2,0-0.5,0-0.7C504.8,11.5,504.9,11.5,504.9,11.4L504.9,11.4z M506.3,13.6
						c0,0.5-0.2,0.9-0.5,1.2c-0.1,0-0.2-0.1-0.3-0.2c-0.1-0.2-0.2-0.4-0.2-0.6c0-0.3,0-0.3,0.2-0.4
						C505.7,13.5,505.9,13.5,506.3,13.6C506.1,13.5,506.2,13.5,506.3,13.6L506.3,13.6z M504.9,15.4c-0.4,0.2-0.9,0.2-1.3,0
						c0-0.1,0-0.2,0-0.2c0.1-0.2,0.2-0.4,0.4-0.5c0.2-0.2,0.2-0.2,0.5,0c0.2,0.1,0.3,0.3,0.4,0.5C505,15.2,505,15.3,504.9,15.4
						L504.9,15.4z M502.8,14.8c-0.3-0.3-0.5-0.8-0.5-1.2c0,0,0.1,0,0.2-0.1c0.2,0,0.4,0,0.7,0.1c0.2,0.1,0.3,0.1,0.2,0.4
						c0,0.2-0.1,0.5-0.2,0.6C503,14.8,502.9,14.8,502.8,14.8L502.8,14.8z M502.6,12.4c0.2-0.4,0.6-0.7,1.1-0.9c0,0,0.1,0.1,0.1,0.2
						c0.1,0.2,0.1,0.5,0,0.7c0,0.3-0.1,0.3-0.3,0.3c-0.2,0-0.4,0-0.7,0C502.7,12.6,502.6,12.5,502.6,12.4L502.6,12.4z M504.3,14
						c0.1,0,0.2,0.1,0.2,0.2c0,0.1-0.1,0.2-0.2,0.2s-0.2-0.1-0.2-0.2C504.1,14.1,504.2,14,504.3,14L504.3,14z M504.9,13.5
						c0.1,0,0.2,0.1,0.2,0.2c0,0.1-0.1,0.2-0.2,0.2s-0.2-0.1-0.2-0.2l0,0C504.7,13.6,504.8,13.5,504.9,13.5L504.9,13.5z M503.7,13.5
						c0.1,0,0.2,0.1,0.2,0.2c0,0.1-0.1,0.2-0.2,0.2s-0.2-0.1-0.2-0.2C503.5,13.6,503.6,13.5,503.7,13.5L503.7,13.5z M504.7,12.8
						c0.1,0,0.2,0.1,0.2,0.2c0,0.1-0.1,0.2-0.2,0.2s-0.2-0.1-0.2-0.2l0,0C504.5,12.8,504.6,12.8,504.7,12.8z M503.9,12.8
						c0.1,0,0.2,0.1,0.2,0.2s-0.1,0.2-0.2,0.2s-0.2-0.1-0.2-0.2S503.8,12.8,503.9,12.8L503.9,12.8L503.9,12.8z"/>
					<path id="Path_1855" class="st94" d="M467.4,6.5h1.3c0.9,0,0.3,1.2-0.1,1.7c-0.3,0.5-1.4,0.2-2,0C466.8,7.7,467,7.1,467.4,6.5z
						"/>
					<path id="Path_1856" class="st88" d="M513.1,5h-2c-1,0-0.1,2.3,1.2,2.2h1C513.2,6.5,513.2,5.8,513.1,5z"/>
					<path id="Path_1857" class="st88" d="M493.3-0.3l0.5,4.5h-1.5l-0.5-4.3C492.3-0.2,492.8-0.2,493.3-0.3z"/>
					<path id="Path_1858" class="st88" d="M501.4-0.4l0.5,4.4h-0.7l-0.5-4.5C500.9-0.4,501.2-0.4,501.4-0.4z"/>
					<path id="Path_1859" class="st88" d="M483.4,2.6l0.5,1.9l-3.3,0.1C481.5,3.8,482.4,3.1,483.4,2.6z"/>
					<path id="Path_1860" class="st89" d="M492.6,0l0.5,4.2l-0.2,9.3h-0.2l0.2-9.3L492.4,0c-1.2,0.1-2.4,0.3-3.5,0.6
						c-4,1-6.8,2.6-9.9,5l1,7.9h-0.2l-1-8.1c3.3-2.4,6-4.1,10.1-5.1c3.1-0.7,6.6-0.9,9.8-0.9c0.7,0,2,0,3,0.1l0.7,5.6l-0.7,4.7h-0.2
						l0.7-4.7l-0.6-5.4c-0.9,0-2.1-0.1-2.7-0.1C496.6-0.2,494.6-0.2,492.6,0z"/>
					<path id="Path_1861" class="st86" d="M484.2,2.4c0.5,0,0.6-0.1,0.6,0.3c0,0.4,0.1,1.4-0.2,1.5c-0.3,0.1-1.1,0.1-1.3-0.1
						c-0.2-0.3-0.2-0.7,0-1C483.4,2.7,483.8,2.4,484.2,2.4z"/>
					<path id="Path_1862" class="st88" d="M483.2,3.9c0.3-0.1,0.6-0.2,0.9-0.2c0.2,0,0.4,0,0.7,0c0,0.2-0.1,0.5-0.2,0.5
						c-0.3,0.1-1.1,0.1-1.3-0.1C483.3,4,483.2,4,483.2,3.9z"/>
					<path id="Path_1863" class="st88" d="M490.1,4.8h2c0.2,0,0.4,0.2,0.4,0.4l0,0l0,0c0,0.2-0.2,0.4-0.4,0.4l0,0h-2
						c-0.2,0-0.4-0.2-0.4-0.4l0,0l0,0C489.7,5,489.9,4.8,490.1,4.8z"/>
					<path id="Path_1864" class="st88" d="M489.9,5h2.4c0.1,0,0.2,0.1,0.2,0.2l0,0c0,0.1-0.1,0.2-0.2,0.2h-2.4
						c-0.1,0-0.2-0.1-0.2-0.2l0,0C489.7,5.1,489.8,5,489.9,5z"/>
					<path id="Path_1865" class="st88" d="M498.5,4.6h2c0.2,0,0.4,0.2,0.4,0.4l0,0l0,0c0,0.2-0.2,0.4-0.4,0.4h-2
						c-0.2,0-0.4-0.2-0.4-0.4l0,0l0,0C498.2,4.8,498.3,4.6,498.5,4.6L498.5,4.6z"/>
					<path id="Path_1866" class="st88" d="M498.3,4.8h2.4c0.1,0,0.2,0.1,0.2,0.2l0,0c0,0.1-0.1,0.2-0.2,0.2h-2.4
						c-0.1,0-0.2-0.1-0.2-0.2l0,0C498.2,4.9,498.3,4.8,498.3,4.8z"/>
				</g>
				<path id="Path_1897" class="st95" d="M451.3,7.9H171.4c-2.6,0-4.8,2.2-4.8,4.8l0,0H456C456,10.1,453.9,7.9,451.3,7.9z"/>
				<g id="Group_1161" transform="translate(-69.206 -29.664)">
					<g id="Group_1134" transform="translate(520.888 532.364)">
						<path id="Path_1910" class="st96" d="M-241.8-491.6c-0.5,0.1-1,0.1-1.5,0c-0.3,0.4-0.5,0.9-0.4,1.4h4.1
							C-240.1-490.8-241.4-491.5-241.8-491.6z"/>
					</g>
					<g id="Group_1135" transform="translate(509.702 464.642)">
						<path id="Path_1911" class="st83" d="M-235.5-451.1c0,0.8,0.3,1.5,0.8,2.1c0,0-1.4,0.5-2.4-1.2v-1.7L-235.5-451.1z"/>
					</g>
					<g id="Group_1136" transform="translate(503.829 468.626)">
						<path id="Path_1912" class="st97" d="M-227.5-449c0.3-0.5,0.4-1.9,0.4-1.9l-1.7-2c-1.8-0.1-2.4-1.2-2.4-1.2
							c-0.6,0.7-1,1.6-1.3,2.6c-0.6,2.8-1,5.6-1.1,8.4l7.6,0.3C-226.6-445.5-227.5-449-227.5-449z"/>
					</g>
					<g id="Group_1137" transform="translate(508.325 476.375)">
						<path id="Path_1913" class="st83" d="M-233.3-455.5c0.1-1.1,0-2.2-0.3-3.3l-2.6,0.7c0.2,1.3,0.7,2.6,1.5,3.6l5.7,2.9l0.5-0.7
							C-229.8-453.1-231.3-455.1-233.3-455.5z"/>
					</g>
					<g id="Group_1138" transform="translate(496.93 529.184)">
						<path id="Path_1914" class="st96" d="M-227.2-489c-0.5-0.2-0.9-0.4-1.3-0.7c-0.5,0.2-0.9,0.6-1,1.2l3.6,1.9
							C-226-487.4-226.9-488.7-227.2-489z"/>
					</g>
					<g id="Group_1139" transform="translate(509.695 457.643)">
						<path id="Path_1915" class="st83" d="M-237-447.7l-0.2,2.9c2.5,1.9,3.4-1.3,2.7-3.1L-237-447.7z"/>
					</g>
					<g id="Group_1140" transform="translate(526.066 492.155)">
						<path id="Path_1916" class="st83" d="M-246-466.5c-0.6-0.5-1.1-0.8-0.8-1.3c0.2-0.2,0.4-0.3,0.7-0.2l0.8,0.5
							c0.3,0.2,0.4,0.6,0.2,0.9C-245.3-466.4-245.7-466.3-246-466.5L-246-466.5z"/>
					</g>
					<g id="Group_1141" transform="translate(517.125 495.796)">
						<path id="Path_1917" class="st98" d="M-241.5-463.8l0.5,0.5c-0.7,4.3,1.4,5.3,1.4,8.3c0.4,0.3,1,0.3,1.5,0
							c-0.3-12.9-0.1-6.3-1.9-15.2h-0.3L-241.5-463.8z"/>
					</g>
					<g id="Group_1142" transform="translate(499.378 495.295)">
						<path id="Path_1918" class="st99" d="M-228.3-469.9c-0.1,3.1,1.5,5.1,2,6.7c-3.3,1-2.5,5.1-4.8,7.3c0,0,0.2,0.5,1.3,0.7
							l5.7-7.3l1.4-7.2L-228.3-469.9z"/>
					</g>
					<g id="Group_1143" transform="translate(503.628 452.517)">
						<path id="Path_1919" class="st100" d="M-228.2-442.8l-2.8,0.2l-0.2,3.7l-1.5-0.9l0.1-0.9l-0.5,0.6l-0.6-0.5
							c0,0,0.4-2.5,1.3-3.6C-231.2-445.3-228.8-445.3-228.2-442.8z"/>
					</g>
					<g id="Group_1144" transform="translate(502.434 495.014)">
						<path id="Path_1920" class="st96" d="M-232.2-469.7l-0.6,1.4l8.6,0.2l-0.4-1.4L-232.2-469.7z"/>
					</g>
					<g id="Group_1158" transform="translate(530.66 497.262)">
						<g id="Group_1145" transform="translate(15.477 23.171)">
							<path id="Path_1921" class="st101" d="M-254.9-483.7c-0.7,0.9-1.3,1.7-2.1,2.5c-0.2,0.7,0.2,3.1,0.2,3.1h-0.7
								c-0.3-1.3-0.7-2.6-1.3-3.8l1-2.8h3L-254.9-483.7z"/>
						</g>
						<g id="Group_1146" transform="translate(38.263 25.15)">
							<path id="Path_1922" class="st101" d="M-272.2-483.5l0.7,3.4h0.5l-0.2-5.7L-272.2-483.5z"/>
						</g>
						<g id="Group_1147" transform="translate(43.236 0.876)">
							<path id="Path_1923" class="st101" d="M-274.4-469.9l-0.1-1.7l-0.7,0.7l0.1,0.5L-274.4-469.9z"/>
						</g>
						<g id="Group_1148" transform="translate(0 4.31)">
							<path id="Path_1924" class="st102" d="M-244.3-468.4c0,0-4.2-1-3.8-5.1c-0.7,0.4-1,1.1-0.9,1.9l-0.5-0.2
								c-0.2,0.6,0.1,1.3,0.6,1.7l-0.3,0.2c0,0,0.5,1.9,4.6,1.9L-244.3-468.4z"/>
						</g>
						<g id="Group_1149" transform="translate(7.454 12.868)">
							<path id="Path_1925" class="st103" d="M-239.5-475.4c-0.6,2.3-2.6,4.8-3.4,7.6h-0.6l0.4-4.1c-1.1-0.1-1.9-0.5-3.3-1.3
								c-0.9-0.5-1.9-0.6-2.9-0.4c-0.7,1.6-2,2.8-3.7,3.1l-0.5,2.6h-0.6v-3.2c0.4-0.2,1.2-1.1,1.1-1.7c-0.2-1-0.5-3.4,1.2-4.3
								c1.7-1,4.2,0.1,5.5-0.1c0.8-0.1,1.6-0.4,2.3-0.7l2.1-0.7l1.8,0.9L-239.5-475.4z"/>
						</g>
						<g id="Group_1150" transform="translate(31.55 3.304)">
							<path id="Path_1926" class="st102" d="M-266.7-467v-1.1l-0.9,0.6l-0.7-1.1c2-0.8,2.2-3.9,3.7-4.3c1.2-0.3,1.3,0,2.4,0.8
								l0.3,0.8l1.7,0.8l-0.5,0.9c-0.8,0.2-1.7,0.3-2.5,0.3c0,1.3-0.6,1.3,0,3.4l-1.3,0.2l-0.2-0.6l-0.7,0.1L-266.7-467z"/>
						</g>
						<g id="Group_1151" transform="translate(40.081)">
							<path id="Path_1927" class="st102" d="M-271.9-468.9v-2.1c-0.7,0.5-1.2,1.2-1.4,2L-271.9-468.9z"/>
						</g>
						<g id="Group_1152" transform="translate(7.449 37.753)">
							<path id="Path_1928" class="st103" d="M-254-492.6h1c0-0.3-0.2-0.5-0.5-0.5S-254-492.9-254-492.6z"/>
						</g>
						<g id="Group_1153" transform="translate(18.538 37.854)">
							<path id="Path_1929" class="st101" d="M-260.5-492.6h1c0-0.3-0.2-0.5-0.5-0.5S-260.5-492.9-260.5-492.6L-260.5-492.6z"/>
						</g>
						<g id="Group_1154" transform="translate(33.532 37.753)">
							<path id="Path_1930" class="st103" d="M-269.4-492.6h1c0-0.3-0.2-0.5-0.5-0.5C-269.2-493.1-269.4-492.9-269.4-492.6z"/>
						</g>
						<g id="Group_1155" transform="translate(40.076 37.695)">
							<path id="Path_1931" class="st101" d="M-273.3-492.5h1c0-0.3-0.2-0.5-0.5-0.5C-273.1-493-273.3-492.8-273.3-492.5
								L-273.3-492.5z"/>
						</g>
						<g id="Group_1156" transform="translate(42.876 6.709)">
							<path id="Path_1932" class="st104" d="M-274.4-475l0.1,0.4h-0.7C-274.9-474.8-274.7-475-274.4-475z"/>
						</g>
						<g id="Group_1157" transform="translate(49.506 8.446)">
							<path id="Path_1933" class="st101" d="M-278.9-475.6l0.5,0.1h0.1l0.1-0.2l-0.7-0.3V-475.6z"/>
						</g>
					</g>
					<g id="Group_1160" transform="translate(530.056 495.171)">
						<g id="Group_1159" transform="translate(0)">
							<path id="Path_1934" class="st104" d="M-231.2-462.2c-0.1,0-1.8-0.1-3.5-2.2c-0.7-0.1-9.7-1.4-14.5-5.3l0.1-0.2
								c3.6,2.9,10.4,4.7,14.4,5.3c1.2,1.4,2.6,2.1,3.4,2.1L-231.2-462.2z"/>
						</g>
					</g>
				</g>
				<g id="Group_1164">
					<path id="Path_1957" class="st9" d="M537.7,1.4c-2,0-3.8,1.2-4.6,3c-1-1.7-3.2-2.4-4.9-1.3c-0.9,0.5-1.5,1.4-1.7,2.4h16.2
						C542.2,3.1,540.1,1.4,537.7,1.4z"/>
				</g>
				<g id="Group_1165">
					<path id="Path_1958" class="st9" d="M259.6,1.4c-2,0-3.8,1.2-4.6,3c-1-1.7-3.2-2.4-4.9-1.3c-0.9,0.5-1.5,1.4-1.7,2.4h16.2
						C264.2,3.1,262.1,1.4,259.6,1.4z"/>
				</g>
				<g id="Group_1166">
					<path id="Path_1959" class="st9" d="M85.8,1.4c-2,0-3.8,1.2-4.6,3c-1-1.7-3.2-2.4-4.9-1.3c-0.9,0.5-1.5,1.4-1.7,2.4h16.2
						C90.3,3.1,88.2,1.4,85.8,1.4z"/>
				</g>
				<path id="Path_1961" class="st9" d="M389.2,1.1c-0.4-1.6-2.1-2.4-3.6-2c-0.6,0.2-1.1,0.5-1.5,1c-3.7-3.6-10.3-2.2-12.1,2.7
					c-1.6-1.9-4.4-2.2-6.3-0.6c-1,0.9-1.6,2.2-1.6,3.5h32.2C395.5,2.5,392.4,0.5,389.2,1.1z"/>
				<g id="Group_1186" transform="translate(35.382 -41.448)">
					<g id="Group_1167" transform="translate(853.039 519.626)">
						<path id="Path_1962" class="st105" d="M-498.6-470l6.6-6.8l-0.5-0.5l-6.6,6.9C-498.9-470.2-498.8-470.1-498.6-470z"/>
						<path id="Path_1963" class="st105" d="M-502.8-468.3c0-1.4,1.2-2.6,2.6-2.6s2.6,1.2,2.6,2.6c0,1.4-1.2,2.6-2.6,2.6
							C-501.7-465.6-502.8-466.9-502.8-468.3z M-502.1-468.3c0,1.1,0.9,1.9,2,1.9s1.9-0.9,1.9-2s-0.9-1.9-1.9-1.9
							C-501.3-470.3-502.1-469.4-502.1-468.3L-502.1-468.3z"/>
					</g>
					<g id="Group_1168" transform="translate(866.954 490.108)">
						<path id="Rectangle_1086" class="st106" d="M-501.8-448.4h-9.2l0,0v-11.5l0,0h2c4,0,7.3,3.3,7.3,7.4l0,0L-501.8-448.4
							L-501.8-448.4z"/>
					</g>
					<g id="Group_1169" transform="translate(821.188 469.82)">
						<path id="Path_1964" class="st107" d="M-482.1-447.3l0.7,2.4c0,0-1.5,0.6-2.5-1.4l0.4-1.8L-482.1-447.3z"/>
					</g>
					<g id="Group_1170" transform="translate(822.279 460.792)">
						<path id="Path_1965" class="st107" d="M-484.4-442l-0.2,3.2c0.7,0.5,1.5,0.8,2.1,0.5c1.1-0.5,1.3-3.1,0.7-4.5L-484.4-442z"/>
					</g>
					<g id="Group_1171" transform="translate(809.513 503.317)">
						<path id="Path_1966" class="st108" d="M-474.6-467.7c-0.1,3.4,2,6.8,2,6.8c-2.4,1.7-4.4,7.8-4.4,7.8l0.7,0.5l6.4-7.4l1.6-7.4
							L-474.6-467.7z"/>
					</g>
					<g id="Group_1172" transform="translate(815.451 503.411)">
						<path id="Path_1967" class="st107" d="M-480.5-467.7c0,0,2,5.1,5.2,7.8c-0.9,2.9,1.3,9,1.3,9l0.9-0.3v-9.2l-1-7.1h-0.8
							L-480.5-467.7z"/>
					</g>
					<g id="Group_1173" transform="translate(828.725 538.16)">
						<path id="Path_1968" class="st109" d="M-488.3-487.7l2-0.4v1.9c0,0,1.9,0.7,2.4,1.4l-4.4,0.4c-0.2-0.8,0.5-1.6,0.5-1.6
							L-488.3-487.7z"/>
					</g>
					<g id="Group_1174" transform="translate(805.171 534.463)">
						<path id="Path_1969" class="st109" d="M-474.4-483.4c0.3-0.5,0.7-0.9,1.3-1l0.7-1.6l1.3,1.2l-1,1.2c0.5,0.9,0.9,1.8,0.9,2.9
							L-474.4-483.4z"/>
					</g>
					<g id="Group_1175" transform="translate(812.032 503.411)">
						<path id="Path_1970" class="st110" d="M-470.6-467.5l0.9,6.7l-8.8-0.4l1.4-6.5L-470.6-467.5z"/>
					</g>
					<g id="Group_1176" transform="translate(815.451 503.411)">
						<path id="Path_1971" class="st111" d="M-480.5-467.7c0,0,1.8,4.7,4.1,6.7l3.3,0.2l-0.9-6.7L-480.5-467.7z"/>
					</g>
					<g id="Group_1177" transform="translate(815.419 474.174)">
						<path id="Path_1972" class="st112" d="M-474.1-446.4l-1.6-3.1l-2.4-1.1c0,0-2.6,2.5-2.3,12.3h6.5l-0.6-6.2L-474.1-446.4z"/>
					</g>
					<g id="Group_1178" transform="translate(832.771 494.976)">
						<path id="Path_1973" class="st107" d="M-490.8-461.2l2.4,1.2l0.6-0.8c-0.7-0.5-1.5-1.3-2.4-2
							C-490.3-462.4-490.6-461.8-490.8-461.2z"/>
					</g>
					<g id="Group_1179" transform="translate(819.214 482.536)">
						<path id="Path_1974" class="st113" d="M-482.7-454.7c0.2,1.4,0.8,2.8,1.7,3.9l3.8,1.9c0.2-0.5,0.4-1.1,0.7-1.6
							c-0.9-0.7-1.8-1.3-2.9-1.5c0.1-1.2,0-2.4-0.4-3.6L-482.7-454.7z"/>
					</g>
					<g id="Group_1180" transform="translate(819.214 474.174)">
						<path id="Path_1975" class="st113" d="M-479.5-449.5l-0.2,1.3l-3.1-1.3c0.2-0.4,0.4-0.7,0.8-1L-479.5-449.5z"/>
					</g>
					<g id="Group_1181" transform="translate(815.469 457.02)">
						<path id="Path_1976" class="st109" d="M-480.5-433.5c0,0,0.5-5.2,1.5-6.3c0.9-1,2.4-1,3.3-0.4c0.4,0.4,0.8,0.8,1.1,1.3
							l-2.8,0.7l-0.1,6.8C-477.6-431.3-480-431.4-480.5-433.5z"/>
					</g>
					<g id="Group_1182" transform="translate(849.398 513.106)">
						<path id="Rectangle_1087" class="st114" d="M-486.3-469.1h-12.3c-1.1,0-2-0.9-2-2.1v-2.2l0,0h16.4l0,0v2.2
							C-484.3-470.1-485.2-469.1-486.3-469.1z"/>
					</g>
					<g id="Group_1183" transform="translate(849.398 512.774)">
						<path id="Path_1977" class="st115" d="M-500.6-473.2h16.4v1l0,0c0,0.1,0,0.1,0,0.2c-1.1-0.3-2.4,0.1-3.1,1.1
							c-0.1-0.6-0.7-1-1.2-0.8c-0.4,0.1-0.7,0.4-0.8,0.8c-0.1-0.6-0.7-1-1.2-0.8c-0.4,0.1-0.7,0.4-0.8,0.8c-0.1-0.6-0.7-1-1.2-0.8
							c-0.4,0.1-0.7,0.4-0.8,0.8c-0.1-0.6-0.7-1-1.2-0.8c-0.4,0.1-0.7,0.4-0.8,0.8c-0.1-0.6-0.7-1-1.2-0.8c-0.4,0.1-0.7,0.4-0.8,0.8
							c-0.1-0.6-0.7-1-1.2-0.8c-0.4,0.1-0.7,0.4-0.8,0.8c-0.6,0-1.1-0.5-1.1-1c0-0.1,0-0.1,0-0.2l0,0L-500.6-473.2L-500.6-473.2z"/>
					</g>
					<g id="Group_1184" transform="translate(840.772 501.682)">
						<path id="Path_1978" class="st116" d="M-480.3-452.6l-11.5-12.6l-3.5-1.5l-0.3,0.6l3.3,1.5l11.3,12.4
							C-480.7-452.4-480.5-452.5-480.3-452.6z"/>
						<path id="Path_1979" class="st105" d="M-482.2-450.4c0-1.4,1.2-2.6,2.6-2.6s2.6,1.2,2.6,2.6c0,1.4-1.2,2.6-2.6,2.6
							S-482.2-448.9-482.2-450.4z M-481.5-450.4c0,1.1,0.9,1.9,2,1.9s1.9-0.9,1.9-2s-0.9-1.9-1.9-1.9
							C-480.6-452.4-481.5-451.5-481.5-450.4z"/>
					</g>
					<g id="Group_1185" transform="translate(838.63 499.779)">
						<path id="Path_1980" class="st107" d="M-492.4-464.1L-492.4-464.1c-0.2,0.3-0.6,0.4-0.9,0.2l-0.8-0.7
							c-0.2-0.2-0.2-0.5-0.1-0.7l0,0c0.2-0.2,0.5-0.3,0.7-0.2l0.9,0.5C-492.3-464.8-492.2-464.4-492.4-464.1z"/>
					</g>
				</g>
				<path id="Path_1981" class="st7" d="M303.2-125L303.2-125c0-5.4-4.3-9.7-9.5-9.7c-2.9,0-5.7,1.4-7.5,3.8
					c-2.4-5.7-8.9-8.3-14.5-5.8c-2,0.9-3.7,2.4-4.9,4.2c-4.1-3.4-10.1-2.8-13.4,1.4c-1.4,1.7-2.2,3.9-2.2,6.1l0,0H303.2L303.2-125z"
					/>
				<g id="Group_1132">
					<path id="Path_1867" class="st117" d="M301,3.1h8.4l-0.3-1.4c-0.2-0.7-0.8-1.2-1.6-1.2h-4.6c-0.7,0-1.4,0.5-1.6,1.2L301,3.1z"
						/>
					<path id="Path_1868" class="st118" d="M299.4,3.1h8.4l-0.3-1.4c-0.2-0.7-0.8-1.2-1.6-1.2h-4.6c-0.7,0-1.4,0.5-1.6,1.2
						L299.4,3.1z"/>
					<g id="Group_1102">
						<path id="Path_1869" class="st119" d="M333.5,21.5h-45.7c-1.9,0-3.6-1.6-3.4-3.4c0.4-4.9,2-14.3,7.9-15.3
							c3.8-0.6,17.2-0.5,20.5,0.7c4.9,1.7,7.6,5.7,14.4,6.7c3.5,0.5,8.9,0.9,9.4,5C336.8,18,337.4,21.5,333.5,21.5z"/>
					</g>
					<g id="Group_1103">
						<path id="Path_1870" class="st87" d="M292.5,8.9c1.1-2.7,2.9-4.9,5.7-4.9h9.6c5.7,0,9.6,2.9,12.9,7.2L292.5,8.9z"/>
					</g>
					<g id="Group_1104">
						<path id="Path_1871" class="st118" d="M336.6,15.4c-4.4,0-4.4,0.1-5.5-0.7c-1.3-0.8-2.7-1.2-4.2-1.3l-41-3.4
							c-0.8,2.6-1.3,5.3-1.5,8c-0.2,1.9,1.5,3.4,3.4,3.4h45.7C337.4,21.5,336.8,18,336.6,15.4z"/>
					</g>
					<g id="Group_1105">
						<path id="Path_1872" class="st92" d="M326.9,14.9c-3.1,0-5.5,2.5-5.5,5.6c0,0.4,0,0.8,0.1,1.2h10.8c0.7-3-1.2-6-4.2-6.7
							C327.6,14.9,327.3,14.9,326.9,14.9z"/>
					</g>
					<g id="Group_1106">
						<path id="Path_1873" class="st93" d="M326.9,24c-2.4,0-4.3-2-4.3-4.4s2-4.4,4.3-4.4c2.4,0,4.3,2,4.3,4.4l0,0
							C331.2,22.1,329.2,24,326.9,24z"/>
					</g>
					<g id="Group_1107">
						<path id="Path_1874" class="st91" d="M326.9,23.2c-1.8,0-3.2-1.4-3.2-3.3c0-1.9,1.4-3.3,3.2-3.3c1.8,0,3.2,1.4,3.2,3.3l0,0
							C330.1,21.7,328.7,23.2,326.9,23.2z"/>
					</g>
					<g id="Group_1108">
						<path id="Path_1875" class="st92" d="M291.4,14.9c-3.1,0-5.5,2.5-5.5,5.6c0,0.2,0,0.5,0,0.7c1.1,0.7,1.1,0.5,10.9,0.5
							c0.7-3-1.2-6-4.2-6.7C292.2,14.9,291.8,14.9,291.4,14.9z"/>
					</g>
					<g id="Group_1109">
						<ellipse id="Ellipse_139" class="st90" cx="291.4" cy="19.9" rx="4.3" ry="4.4"/>
					</g>
					<g id="Group_1110">
						<ellipse id="Ellipse_140" class="st120" cx="291.4" cy="19.9" rx="3.2" ry="3.3"/>
					</g>
					<g id="Group_1111">
						<path id="Path_1876" class="st94" d="M335.7,13.1h-1.1c-0.6,0-1.1,0.5-1.1,1.1s0.5,1.1,1.1,1.1h2
							C336.5,14.5,336.2,13.7,335.7,13.1z"/>
					</g>
					<g id="Group_1112">
						<path id="Path_1877" class="st117" d="M307.6,11.3c-0.3,0.3-0.4,0.7-0.2,1.2c0.4,1.1,3.2,1.1,3.2,0
							C310.6,11.3,308.3,10.6,307.6,11.3z"/>
					</g>
					<g id="Group_1113">
						<path id="Path_1878" class="st119" d="M307.8,11.5c0.4-0.5,2.4,0.1,2.4,0.8c-0.9-0.3-1.7-0.4-2.6-0.3
							C307.6,11.8,307.7,11.6,307.8,11.5L307.8,11.5z M310,12.8c-0.6,0.3-1.9,0.3-2.3-0.3C308.5,12.3,309.3,12.5,310,12.8z"/>
					</g>
					<g id="Group_1114">
						<path id="Path_1879" class="st117" d="M305,4l-0.6,5.9l2.7,0.2L306.5,4C306.5,4,305,4,305,4z"/>
					</g>
					<g id="Group_1115">
						<path id="Path_1880" class="st117" d="M305.3,4l-0.6,5.9l2,0.2l-0.6-6h-0.8V4z"/>
					</g>
					<g id="Group_1116">
						<path id="Path_1881" class="st117" d="M316,6.6l0.5,4.3l4.2,0.4C319.4,9.4,317.8,7.9,316,6.6z"/>
					</g>
					<g id="Group_1117">
						<path id="Path_1882" class="st118" d="M316.4,6.8l0.4,4l3.9,0.3C319.5,9.6,318,8.1,316.4,6.8z"/>
					</g>
					<g id="Group_1118">
						<path id="Path_1883" class="st117" d="M318.2,9.4c0,0,0.8,0.2,0.7,0.6c0,0.4-0.6,0.4-0.9,0.5c-0.2-0.2-0.3-0.6-0.1-0.8
							C318,9.5,318.1,9.5,318.2,9.4z"/>
					</g>
					<g id="Group_1119">
						<path id="Path_1884" class="st119" d="M316.3,8.4c-0.8,0.2-1,1.6-0.2,2c0.6,0.3,1.3,0.3,1.9,0.1c0.2-0.2,0.4-0.5,0.3-0.8
							C318.2,8.7,317,8.1,316.3,8.4z"/>
					</g>
					<g id="Group_1120">
						<path id="Path_1885" class="st118" d="M318.3,9.8c-0.9,0-1.8-0.2-2.7-0.3c0,1.4,2,1.2,2.4,1C318.2,10.3,318.3,10.1,318.3,9.8z
							"/>
					</g>
					<g id="Group_1121">
						<path id="Path_1886" class="st117" d="M296.1,4.4l-0.5,4.7l1.4,0.1l0.6-5.2C297,4.1,296.6,4.2,296.1,4.4z"/>
					</g>
					<g id="Group_1122">
						<path id="Path_1887" class="st117" d="M296.5,4.3L296,9.1h0.7l0.5-5.1C297,4.1,296.7,4.2,296.5,4.3z"/>
					</g>
					<g id="Group_1123">
						<path id="Path_1888" class="st117" d="M322.2,13l-1.8-2.1l-0.2,0.2l1.7,2l-2.7,6.8l-13-0.7c0-8.8,0.1-7-0.3-9.5h-0.3
							c0.4,2.5,0.3,0.7,0.3,9.5l-6.8-0.4l-7-8.3l0.8-1.8l-0.2-0.1l-0.9,1.9c2.4,2.9,4.8,5.7,7.2,8.5c6.8,0.4,13.5,0.7,20.3,1.1
							L322.2,13z"/>
					</g>
					<g id="Group_1124">
						<path id="Path_1889" class="st117" d="M293.9,10.1c-0.3,0.3-0.4,0.7-0.2,1.2c0.4,1.1,3.2,1.1,3.2,0
							C296.9,10.1,294.6,9.5,293.9,10.1z"/>
					</g>
					<g id="Group_1125">
						<path id="Path_1890" class="st119" d="M294.1,10.3c0.4-0.5,2.4,0.1,2.4,0.8c-0.9-0.3-1.7-0.4-2.6-0.3
							C293.9,10.7,294,10.5,294.1,10.3L294.1,10.3z M296.3,11.5c-0.6,0.3-1.9,0.3-2.3-0.3C294.8,11.1,295.6,11.3,296.3,11.5z"/>
					</g>
					<g id="Group_1126">
						<path id="Path_1891" class="st118" d="M292,2.9c-1.2,2.9-3.2,7.9-6.4,8.2C286.6,7.2,288.5,3.6,292,2.9z"/>
					</g>
					<g id="Group_1127">
						<path id="Path_1892" class="st117" d="M287.4,6.5h1.1c0.5,0,0.9-0.4,0.9-0.9l0,0c0-0.4-0.3-0.8-0.7-0.9
							C288.3,5.2,287.8,5.8,287.4,6.5z"/>
					</g>
					<g id="Group_1128">
						<path id="Path_1893" class="st117" d="M287.5,7.3H287c-0.3,0.6-0.6,1.2-0.8,1.8h1.3c0.5,0,0.9-0.4,0.9-0.9l0,0
							C288.4,7.7,288,7.3,287.5,7.3z"/>
					</g>
					<g id="Group_1129">
						<path id="Path_1894" class="st92" d="M327.6,17.5c-0.3,1.1-0.3,0.9-0.4,1.3c-0.2,0-0.4,0-0.6,0l-0.4-1.3
							C326.6,17.3,327.1,17.3,327.6,17.5z M327.2,19.9c0,0.2-0.2,0.4-0.4,0.4c-0.2,0-0.4-0.2-0.4-0.4s0.2-0.4,0.4-0.4
							C327.1,19.5,327.2,19.7,327.2,19.9z M327.4,19.9c0-0.1,0.1-0.2,0.2-0.2s0.2,0.1,0.2,0.2s-0.1,0.2-0.2,0.2
							C327.4,20,327.4,20,327.4,19.9z M327,19.2c0,0.1-0.1,0.2-0.2,0.2s-0.2-0.1-0.2-0.2s0.1-0.2,0.2-0.1
							C326.9,19.1,327,19.1,327,19.2L327,19.2z M326,19.9c0-0.1,0.1-0.2,0.2-0.2s0.2,0.1,0.2,0.2s-0.1,0.2-0.2,0.2
							C326.1,20,326,20,326,19.9z M327,20.6c0,0.1-0.1,0.2-0.2,0.2s-0.2-0.1-0.2-0.2s0.1-0.2,0.2-0.1C326.9,20.4,327,20.5,327,20.6
							L327,20.6z M325.6,17.7c-0.4,0.2-0.7,0.6-1,1l1.2,0.6c0.1-0.2,0.2-0.3,0.4-0.4L325.6,17.7L325.6,17.7z M324.5,19.2l1.3,0.4
							c0,0.2,0,0.4,0,0.6l-1.3,0.4C324.3,20.1,324.3,19.7,324.5,19.2z M324.7,21.1c0.2,0.4,0.6,0.7,1,1l0.6-1.2
							c-0.2-0.1-0.3-0.2-0.4-0.4L324.7,21.1z M326.2,22.3c0.4-1.2,0.3-1,0.4-1.3c0.2,0,0.4,0,0.6,0l0.4,1.3
							C327.1,22.4,326.6,22.4,326.2,22.3L326.2,22.3z M328,22.1c0.4-0.2,0.7-0.6,1-1l-1.2-0.6c-0.1,0.2-0.2,0.3-0.4,0.4
							C327.6,21.2,327.4,20.9,328,22.1z M329.2,20.6l-1.3-0.4c0-0.2,0-0.4,0-0.6l1.3-0.4C329.3,19.7,329.3,20.1,329.2,20.6z
							 M328,17.7c-0.6,1.1-0.4,0.9-0.6,1.2c0.2,0.1,0.3,0.2,0.4,0.4l1.2-0.6C328.8,18.3,328.5,17.9,328,17.7L328,17.7z"/>
					</g>
					<g id="Group_1130">
						<path id="Path_1895" class="st92" d="M292,17.5l-0.4,1.3c-0.2,0-0.4,0-0.6,0c0-0.2,0-0.1-0.4-1.3
							C291.1,17.3,291.6,17.3,292,17.5z M291.8,19.9c0,0.2-0.2,0.4-0.4,0.4s-0.4-0.2-0.4-0.4s0.2-0.4,0.4-0.4
							C291.6,19.5,291.8,19.7,291.8,19.9z M291.9,19.9c0-0.1,0.1-0.2,0.2-0.2s0.2,0.1,0.2,0.2s-0.1,0.2-0.2,0.2
							C292,20,291.9,20,291.9,19.9z M291.5,19.2c0,0.1-0.1,0.2-0.2,0.2s-0.2-0.1-0.2-0.2s0.1-0.2,0.2-0.2S291.5,19.1,291.5,19.2
							L291.5,19.2L291.5,19.2z M290.5,19.9c0-0.1,0.1-0.2,0.2-0.2s0.2,0.1,0.2,0.2s-0.1,0.2-0.2,0.2C290.6,20,290.5,20,290.5,19.9z
							 M291.5,20.6c0,0.1-0.1,0.2-0.2,0.2s-0.2-0.1-0.2-0.2s0.1-0.2,0.2-0.2S291.5,20.5,291.5,20.6L291.5,20.6z M290.2,17.7
							c-0.4,0.2-0.7,0.6-1,1l1.2,0.6c0.1-0.2,0.2-0.3,0.4-0.4C290.6,18.5,290.8,18.8,290.2,17.7z M289,19.2l1.3,0.4
							c0,0.2,0,0.4,0,0.6l-1.3,0.4C288.9,20.1,288.9,19.7,289,19.2z M289.2,21.1c0.2,0.4,0.6,0.7,1,1l0.6-1.2
							c-0.2-0.1-0.3-0.2-0.4-0.4L289.2,21.1z M290.7,22.3c0.4-1.2,0.3-1,0.4-1.3c0.2,0,0.4,0,0.6,0c0.1,0.3,0,0.1,0.4,1.3
							C291.6,22.4,291.1,22.4,290.7,22.3L290.7,22.3z M292.6,22.1c0.4-0.2,0.7-0.6,1-1l-1.2-0.6c-0.1,0.2-0.2,0.3-0.4,0.4
							C292.1,21.2,292,20.9,292.6,22.1z M293.7,20.6l-1.3-0.4c0-0.2,0-0.4,0-0.6l1.3-0.4C293.9,19.7,293.9,20.1,293.7,20.6z
							 M292.6,17.7c-0.6,1.1-0.4,0.9-0.6,1.2c0.2,0.1,0.3,0.2,0.4,0.4l1.2-0.6C293.3,18.3,293,17.9,292.6,17.7L292.6,17.7z"/>
					</g>
					<g id="Group_1131">
						<path id="Path_1896" class="st117" d="M320.7,11.2c-3.3-4.3-7.3-7.2-12.9-7.2h-9.6c-2.7,0-4.5,2.2-5.7,4.9L320.7,11.2z
							 M298.1,4.3h9.6c5.2,0,9,2.5,12.2,6.5L293,8.6C294,6.4,295.6,4.3,298.1,4.3L298.1,4.3z"/>
					</g>
					<rect id="Rectangle_1071" x="315.7" y="14.7" class="st121" width="1.1" height="1.1"/>
					<rect id="Rectangle_1072" x="313.6" y="14.7" class="st121" width="1.1" height="1.1"/>
					<rect id="Rectangle_1073" x="311.5" y="14.7" class="st121" width="1.1" height="1.1"/>
					<rect id="Rectangle_1074" x="309.4" y="14.7" class="st121" width="1.1" height="1.1"/>
					<rect id="Rectangle_1075" x="314.7" y="15.8" class="st121" width="1.1" height="1.1"/>
					<rect id="Rectangle_1076" x="312.5" y="15.8" class="st121" width="1.1" height="1.1"/>
					<rect id="Rectangle_1077" x="310.5" y="15.8" class="st121" width="1.1" height="1.1"/>
					<rect id="Rectangle_1078" x="304.2" y="14.7" class="st121" width="1.1" height="1.1"/>
					<rect id="Rectangle_1079" x="302.1" y="14.7" class="st121" width="1.1" height="1.1"/>
					<rect id="Rectangle_1080" x="300" y="14.7" class="st121" width="1.1" height="1.1"/>
					<rect id="Rectangle_1081" x="297.9" y="14.7" class="st121" width="1.1" height="1.1"/>
					<rect id="Rectangle_1082" x="303.1" y="15.8" class="st121" width="1.1" height="1.1"/>
					<rect id="Rectangle_1083" x="301" y="15.8" class="st121" width="1.1" height="1.1"/>
					<rect id="Rectangle_1084" x="299" y="15.8" class="st121" width="1.1" height="1.1"/>
				</g>
			</g>
			<g id="Layer_8" transform="translate(288.231 835.974)">
				<g id="Group_110">
					<g id="Group_109">
						<path id="Path_743" class="st122" d="M13.1-432.4l-2.5-1.8h-33.2v3.7h33.2L13.1-432.4z"/>
						<path id="Path_744" class="st1" d="M8.6-416c0,0.6-0.4,1-1,1H-7.8c-0.6,0-1-0.5-1-1v-11.5c0-0.6,0.4-1,1-1H7.6
							c0.6,0,1,0.5,1,1V-416z"/>
						<g id="Group_106" transform="translate(43.649 32.278)">
							<path id="Path_745" class="st123" d="M-46.2-458h-1.7v0.8h1.5v0.6h-1.5v1.4h-0.7v-3.4h2.4V-458L-46.2-458z"/>
							<path id="Path_746" class="st123" d="M-44.1-458.7c0.2,0,0.4,0,0.7,0.1s0.4,0.2,0.5,0.4c0.2,0.2,0.2,0.3,0.3,0.5
								c0.2,0.5,0.2,1,0,1.4c-0.1,0.2-0.2,0.4-0.3,0.6c-0.2,0.2-0.3,0.3-0.5,0.4c-0.4,0.2-0.9,0.2-1.3,0c-0.2-0.1-0.4-0.2-0.5-0.4
								s-0.2-0.4-0.3-0.6s-0.1-0.5-0.1-0.7c0-0.2,0-0.5,0.1-0.7c0.1-0.2,0.2-0.4,0.3-0.5c0.2-0.2,0.3-0.3,0.5-0.4
								C-44.5-458.7-44.3-458.7-44.1-458.7z M-44.1-455.7c0.1,0,0.3,0,0.4-0.1s0.2-0.1,0.3-0.2c0.1-0.1,0.2-0.2,0.2-0.4
								c0-0.2,0.1-0.3,0.1-0.5s0-0.3-0.1-0.5c0-0.1-0.1-0.2-0.2-0.4c-0.1-0.1-0.2-0.2-0.3-0.2c-0.2-0.1-0.5-0.1-0.8,0
								c-0.1,0-0.2,0.1-0.3,0.2s-0.2,0.2-0.2,0.4c0,0.2-0.1,0.3-0.1,0.5s0,0.3,0.1,0.5c0,0.1,0.1,0.2,0.2,0.4
								c0.1,0.1,0.2,0.2,0.3,0.2C-44.3-455.8-44.2-455.7-44.1-455.7L-44.1-455.7z"/>
							<path id="Path_747" class="st123" d="M-38.9-455.2h-0.7l-0.3-0.9c0-0.1,0-0.1-0.1-0.2s-0.1-0.1-0.1-0.1s-0.1-0.1-0.2-0.1
								c-0.1,0-0.1,0-0.2,0h-0.7v1.4h-0.7v-3.5h1.7c0.1,0,0.2,0,0.2,0c0.1,0,0.2,0,0.2,0.1c0.1,0,0.1,0.1,0.2,0.1
								c0,0,0.1,0.1,0.1,0.2c0,0,0.1,0.1,0.1,0.2s0.1,0.3,0.1,0.4c0,0.4-0.2,0.7-0.6,0.9c0.2,0.1,0.3,0.3,0.4,0.5L-38.9-455.2z
								 M-41.2-457.2h0.8c0.1,0,0.2,0,0.3,0s0.1,0,0.2-0.1l0.1-0.1c0-0.1,0-0.1,0-0.2c0-0.1,0-0.2-0.1-0.3c-0.1-0.1-0.3-0.1-0.4-0.1
								h-0.9L-41.2-457.2L-41.2-457.2z"/>
						</g>
						<g id="Group_107" transform="translate(40.822 45.668)">
							<path id="Path_748" class="st123" d="M-45.4-463c-0.2,0-0.4,0-0.7-0.1c-0.2,0-0.3-0.2-0.4-0.3c-0.1-0.1-0.2-0.2-0.3-0.4
								s-0.1-0.3-0.1-0.5h0.6c0,0.1,0,0.2,0.1,0.3c0,0.1,0.1,0.2,0.2,0.2c0.1,0,0.2,0.1,0.2,0.1c0.1,0,0.2,0,0.3,0s0.2,0,0.3,0
								s0.2,0,0.2-0.1c0-0.1,0.1-0.1,0.1-0.1s0-0.1,0-0.2s0-0.1,0-0.2c0,0-0.1-0.1-0.2-0.1c-0.1,0-0.2-0.1-0.3-0.1s-0.2-0.1-0.4-0.1
								s-0.3-0.1-0.5-0.2c-0.1,0-0.2-0.1-0.3-0.2s-0.2-0.2-0.2-0.3c0-0.1,0-0.2,0-0.3s0-0.3,0.1-0.4c0-0.1,0.2-0.2,0.2-0.3
								c0.1-0.1,0.2-0.2,0.4-0.2c0.2-0.1,0.3-0.1,0.5-0.1s0.4,0,0.5,0.1c0.2,0,0.3,0.1,0.4,0.2c0.2,0.2,0.4,0.5,0.4,0.9h-0.6
								c0-0.3-0.3-0.6-0.7-0.6l0,0c-0.2,0-0.3,0-0.4,0.1c-0.1,0-0.2,0.2-0.2,0.3v0.1l0.1,0.1c0.1,0,0.1,0.1,0.2,0.1
								c0.1,0,0.2,0,0.3,0.1c0.1,0,0.2,0,0.3,0.1s0.2,0,0.3,0.1c0.1,0,0.2,0.1,0.3,0.1s0.2,0.1,0.2,0.2c0.1,0.1,0.1,0.2,0.2,0.2
								c0,0.1,0.1,0.2,0.1,0.3c0,0.2,0,0.3-0.1,0.5c-0.1,0.1-0.2,0.2-0.3,0.3c-0.1,0.1-0.2,0.2-0.4,0.2C-45.1-463-45.2-463-45.4-463
								z"/>
							<path id="Path_749" class="st123" d="M-40.6-463.1h-0.7l-0.4-1h-1.2l-0.4,1H-44l1.3-3.4h0.6L-40.6-463.1z M-41.9-464.6
								l-0.4-1.1l-0.4,1.1H-41.9z"/>
							<path id="Path_750" class="st123" d="M-38.1-463.1h-2.2v-3.4h0.7v2.9h1.5V-463.1z"/>
							<path id="Path_751" class="st123" d="M-34.9-463.1h-2.6v-3.4h2.5v0.6h-1.9v0.8h1.7v0.6h-1.7v0.9h2V-463.1z"/>
						</g>
						<g id="Group_108" transform="translate(37.342 13.048)">
							<path id="Path_752" class="st124" d="M-44.8-447.5v6.8c0,0.4,0.3,0.7,0.7,0.7s0.7-0.3,0.7-0.7v-6.8H-44.8z"/>
							<path id="Path_753" class="st124" d="M-31.3-447.5v6.8c0,0.4,0.3,0.7,0.7,0.7c0.4,0,0.7-0.3,0.7-0.7v-6.8H-31.3z"/>
						</g>
						<rect id="Rectangle_88" x="-13.7" y="-434.3" class="st125" width="0.9" height="3.7"/>
						<path id="Path_754" class="st122" d="M-15.5-439.9l-1.8,2.6v33.9h3.6v-33.9L-15.5-439.9z"/>
						<path id="Path_755" class="st126" d="M-13.1-404.3l-2.1-4.1l-2.1,4.1l-2-4v6.7h8.3v-6.7L-13.1-404.3z"/>
					</g>
					<ellipse id="Ellipse_23" class="st125" cx="-15.6" cy="-432.3" rx="0.9" ry="0.9"/>
				</g>
			</g>
		</g>
	</g>
</g>
</svg>
