<svg xmlns="http://www.w3.org/2000/svg" xmlns:xlink="http://www.w3.org/1999/xlink" width="1598" height="319" viewBox="0 0 1598 319">
  <defs>
    <radialGradient id="radial-gradient" cx="12710.881" cy="12262.705" r="10.962" gradientTransform="translate(-39884.256 -38451.899) scale(4.426 4.42)" gradientUnits="userSpaceOnUse">
      <stop offset="0.574" stop-color="#130c0e"/>
      <stop offset="0.798" stop-color="#130c0e"/>
      <stop offset="1" stop-color="#130c0e"/>
    </radialGradient>
    <radialGradient id="radial-gradient-2" cx="17748.724" cy="15423.107" r="8.883" gradientTransform="translate(-72239.394 -62731.047) scale(5.365 5.357)" xlink:href="#radial-gradient"/>
    <radialGradient id="radial-gradient-3" cx="-908.886" cy="-1096.879" r="7.889" gradientTransform="translate(-1150.114 -1415.628) scale(0.237 0.237)" xlink:href="#radial-gradient"/>
    <radialGradient id="radial-gradient-4" cx="-991.108" cy="-711.095" r="17.921" gradientTransform="translate(-1259.161 -888.788) scale(0.376 0.376)" xlink:href="#radial-gradient"/>
  </defs>
  <g id="Group_11846" data-name="Group 11846" transform="translate(-322 -86)">
    <path id="Path_22739" data-name="Path 22739" d="M11793.6,3018l119.994,85.474-3.887,123.686L11758.43,3018Z" transform="translate(-10619 -2932)" fill="#fff" opacity="0.279"/>
    <path id="Path_22740" data-name="Path 22740" d="M11950.111,3018l-191.68,136.537,5.534,153.771L12006.291,3018Z" transform="translate(-10411.697 -2932)" fill="#fff" opacity="0.279"/>
    <g id="Group_11683" data-name="Group 11683" transform="translate(324.144 -63.454)">
      <rect id="Rectangle_10064" data-name="Rectangle 10064" width="5.695" height="286.841" transform="translate(525.712 171.38)" fill="#fff"/>
      <rect id="Rectangle_10065" data-name="Rectangle 10065" width="390" height="204.739" transform="translate(330.762 176.733)" fill="#edf5f8"/>
      <rect id="Rectangle_10067" data-name="Rectangle 10067" width="355.363" height="167.441" transform="translate(349.378 194.007)" fill="#fff"/>
    </g>
    <text id="APPEARANCES" transform="translate(661.642 188)" fill="#0b6c75" font-size="50" font-family="HelveticaNeue-CondensedBold, Helvetica Neue" font-weight="700"><tspan x="41.65" y="48">APPEARANCES</tspan></text>
    <g id="Group_11787" data-name="Group 11787" transform="translate(394.086 -303.843)">
      <g id="Group_11788" data-name="Group 11788" transform="translate(867.151 415.92)">
        <g id="Group_11768" data-name="Group 11768" transform="translate(0 81.05)">
          <path id="Path_22738" data-name="Path 22738" d="M0,253.471Z" transform="translate(0 -243.858)" fill="#b0454f"/>
        </g>
        <g id="Group_11785" data-name="Group 11785" transform="translate(16.223)">
          <g id="Group_11780" data-name="Group 11780" transform="translate(3.299)">
            <g id="Group_11771" data-name="Group 11771" transform="translate(15.832 125.312)">
              <path id="Path_22672" data-name="Path 22672" d="M1073.461,1021.273l-28.889-2.414-1.311,72.091.064,0,1.289,61.583h15.135l3.686-60.686Z" transform="translate(-1042.013 -1018.859)" fill="url(#radial-gradient)"/>
              <path id="Path_22673" data-name="Path 22673" d="M1043.261,1093.642l.064,0,1.289,61.583h4.943l.434-60.686,6.2-72.286-11.638.415Z" transform="translate(-1042.013 -1021.551)" fill="#191717"/>
              <path id="Path_22674" data-name="Path 22674" d="M1180.975,1157.722h-17.282l-4.078-132.318h24.663Z" transform="translate(-1134.185 -1024.044)" fill="url(#radial-gradient-2)"/>
              <path id="Path_22675" data-name="Path 22675" d="M1171.861,1157.722h-8.167l-4.078-132.318h12.245Z" transform="translate(-1134.185 -1024.044)" fill="#191717"/>
              <g id="Group_11769" data-name="Group 11769" transform="translate(28.561 128.454)">
                <path id="Path_22676" data-name="Path 22676" d="M1184.441,1636.916a9.764,9.764,0,0,0-9.764,9.764c0,.232.019.459.035.686h19.458c.016-.228.035-.454.035-.686A9.763,9.763,0,0,0,1184.441,1636.916Z" transform="translate(-1174.677 -1636.916)" fill="#231f20"/>
                <path id="Path_22677" data-name="Path 22677" d="M1202.626,1649.26c0,.739-1.225,1.338-2.735,1.338s-2.735-.6-2.735-1.338,1.224-1.338,2.735-1.338S1202.626,1648.521,1202.626,1649.26Z" transform="translate(-1192.483 -1645.635)" fill="#2b2b2b"/>
              </g>
              <g id="Group_11770" data-name="Group 11770" transform="translate(0 128.454)">
                <path id="Path_22678" data-name="Path 22678" d="M1047.02,1636.916a9.764,9.764,0,0,0-9.764,9.764c0,.232.019.459.035.686h19.457c.016-.228.035-.454.035-.686A9.764,9.764,0,0,0,1047.02,1636.916Z" transform="translate(-1037.256 -1636.916)" fill="#231f20"/>
                <path id="Path_22679" data-name="Path 22679" d="M1065.2,1649.26c0,.739-1.224,1.338-2.735,1.338s-2.735-.6-2.735-1.338,1.225-1.338,2.735-1.338S1065.2,1648.521,1065.2,1649.26Z" transform="translate(-1055.062 -1645.635)" fill="#2b2b2b"/>
              </g>
            </g>
            <g id="Group_11773" data-name="Group 11773" transform="translate(0 51.512)">
              <rect id="Rectangle_10146" data-name="Rectangle 10146" width="11.02" height="10.137" transform="translate(36.755 0.181)" fill="#ffab6c"/>
              <path id="Path_22680" data-name="Path 22680" d="M1148.947,665.772a23.287,23.287,0,0,1-5.633.661,20.026,20.026,0,0,1-5.388-.661v-2h11.021Z" transform="translate(-1101.172 -663.77)" fill="#ff9852"/>
              <rect id="Rectangle_10147" data-name="Rectangle 10147" width="24.565" height="38.752" transform="translate(30.598 12.081)" fill="#f1f2f2"/>
              <g id="Group_11772" data-name="Group 11772" transform="translate(37.237 10.318)">
                <path id="Path_22681" data-name="Path 22681" d="M1142.374,785.963l-.045-.779.045.779,4.648,8.491,5.032-7.874-2.661-29.026h-4.937Z" transform="translate(-1141.896 -748.381)" fill="#b0454f"/>
                <path id="Path_22682" data-name="Path 22682" d="M1140.247,717.323l5.121-3.909,5.037,3.841-2.661,5.333h-4.937Z" transform="translate(-1140.247 -713.414)" fill="#b0454f"/>
                <path id="Path_22683" data-name="Path 22683" d="M1147.668,719.077l-7,3.013-.417-.858.307-.234,6.159-2.649Zm2.736,2.087-.932-.711-7.943,3.417.458.943,8.4-3.613Zm-1.385,2.777-6.222,2.676-.086,1.177,5.583-2.4Zm-1.162,3.792-5.309,2.284-.086,1.177,5.5-2.364Zm.29,3.168-5.848,2.516-.086,1.177,6.035-2.6Zm.29,3.167-6.388,2.748-.086,1.177,6.574-2.828Zm.29,3.167-6.927,2.98-.086,1.177,7.114-3.06Zm.291,3.168-7.467,3.212-.086,1.177,7.653-3.292Zm.29,3.167-8.006,3.444-.086,1.177,8.193-3.524Zm.29,3.167-8.546,3.676-.086,1.177,8.733-3.757Zm.291,3.168-9.085,3.908-.08,1.091.037.067,9.229-3.97Zm.29,3.167-8.465,3.641.505.923,8.061-3.467Zm-.433,3.479-6.573,2.828.505.923,5.063-2.178Zm-2.9,4.541-2.213.952.505.923.7-.3Z" transform="translate(-1140.247 -717.322)" fill="#e56060"/>
              </g>
              <path id="Path_22684" data-name="Path 22684" d="M1157.271,758.771l-.112-1.216h-4.937l-.089,1.216Z" transform="translate(-1112.426 -738.063)" opacity="0.16" fill="url(#radial-gradient-3)"/>
              <path id="Path_22685" data-name="Path 22685" d="M1024.214,708.526l-12.043,1.235,6.021,78h21.17l5.166-13.467V747.664C1043.435,738.941,1024.214,708.526,1024.214,708.526Z" transform="translate(-1001.553 -699.224)" fill="#939598"/>
              <path id="Path_22686" data-name="Path 22686" d="M1154.168,915.71l1.375,10.748,1.375-10.748V889.077a13.289,13.289,0,0,0-.457-2.037,35.587,35.587,0,0,0-2.288,7.363Z" transform="translate(-1114.038 -840.637)" fill="#c7f464" opacity="0.4"/>
              <path id="Path_22687" data-name="Path 22687" d="M1179.4,708.526l12.042,1.235-6.021,78h-21.17l-5.166-13.467.006-21.306C1160.182,744.268,1179.4,708.526,1179.4,708.526Z" transform="translate(-1117.931 -699.224)" fill="#939598"/>
              <path id="Path_22688" data-name="Path 22688" d="M1114.408,678.812l5.657,7.191-10,7.63-1.764-10.564Z" transform="translate(-1077.707 -675.686)" fill="#fff"/>
              <path id="Path_22689" data-name="Path 22689" d="M1081.219,699.3l-7.106,1.918,4.016,18.836,6.482.926-4.2,4.632,14.76,15.994Z" transform="translate(-1050.621 -691.915)" fill="#c7f464" opacity="0.4"/>
              <path id="Path_22690" data-name="Path 22690" d="M1173.945,701.528l8.033,1.918s-1.482,16.4-4.016,18.836-6.482.926-6.482.926,4.915,1.346,4.2,4.632-14.8,20.071-14.8,20.071Z" transform="translate(-1119.356 -693.681)" fill="#a7a9ac" opacity="0.4"/>
              <path id="Path_22691" data-name="Path 22691" d="M1074.162,699.98l-8.033,1.918s1.469,16.74,4.016,18.836,6.483.926,6.483.926-4.812,2.066-4.2,4.632,14.761,15.994,14.761,15.994Z" transform="translate(-1044.297 -692.454)" fill="#a7a9ac" opacity="0.4"/>
              <path id="Path_22692" data-name="Path 22692" d="M1077.688,699.3l-8.032,1.918s1.623,17.317,4.016,18.836,6.482.926,6.482.926-4.542,2.156-4.2,4.632,14.761,15.994,14.761,15.994Z" transform="translate(-1047.09 -691.915)" fill="#a7a9ac"/>
              <path id="Path_22693" data-name="Path 22693" d="M1170.552,678.812,1164.886,686l10,7.63,1.764-10.564Z" transform="translate(-1122.528 -675.686)" fill="#fff"/>
              <path id="Path_22694" data-name="Path 22694" d="M1168.186,699.3l7.106,1.918-4.016,18.836-6.482.926,4.2,4.632-14.8,20.071Z" transform="translate(-1114.06 -691.915)" fill="#c7f464" opacity="0.4"/>
              <path id="Path_22695" data-name="Path 22695" d="M1171.716,699.3l8.033,1.918s-1.482,16.6-4.016,18.836-6.482.926-6.482.926,4.568,2.272,4.2,4.632-14.8,20.071-14.8,20.071Z" transform="translate(-1117.59 -691.915)" fill="#a7a9ac"/>
              <path id="Path_22696" data-name="Path 22696" d="M1172.03,934.589a.945.945,0,1,1-.945-.945A.945.945,0,0,1,1172.03,934.589Z" transform="translate(-1126.69 -877.554)" fill="#a7a9ac"/>
              <path id="Path_22697" data-name="Path 22697" d="M1172.03,963.438a.945.945,0,1,1-.945-.946A.945.945,0,0,1,1172.03,963.438Z" transform="translate(-1126.69 -900.407)" fill="#a7a9ac"/>
              <path id="Path_22698" data-name="Path 22698" d="M1172.03,995.288a.945.945,0,1,1-.945-.945A.945.945,0,0,1,1172.03,995.288Z" transform="translate(-1126.69 -925.638)" fill="#a7a9ac"/>
              <path id="Path_22699" data-name="Path 22699" d="M1223.563,975.488l9.215-.589s3.871,2.614,2.007,3.905-10.086,1.554-10.942,1.252S1223.563,975.488,1223.563,975.488Z" transform="translate(-1168.86 -910.236)" fill="#a7a9ac"/>
              <path id="Path_22700" data-name="Path 22700" d="M1068.417,975.488l-9.215-.589s-3.555,2.723-2.007,3.905,9.807,1.669,10.943,1.252S1068.417,975.488,1068.417,975.488Z" transform="translate(-1036.91 -910.236)" fill="#a7a9ac"/>
              <path id="Path_22701" data-name="Path 22701" d="M1122.593,720.124l8.79-6.71,9.052,6.71-9.048-4.754Z" transform="translate(-1089.025 -703.096)" opacity="0.4" fill="url(#radial-gradient-4)"/>
              <path id="Path_22702" data-name="Path 22702" d="M1284.691,793.471l5.643-73.1v-4.636l-3.425,30.189-1.249,16.992-1.14,30.56Z" transform="translate(-1217.298 -704.931)" fill="#a7a9ac" opacity="0.4"/>
              <path id="Path_22703" data-name="Path 22703" d="M1296.606,714.469l10.171,45.552H1292.04l.967,1.891,1.248-16.992Z" transform="translate(-1223.255 -703.932)" fill="#939598"/>
              <path id="Path_22704" data-name="Path 22704" d="M1018.975,793.471l-5.643-73.1-.295-4.636,3.72,30.189,1.248,16.992,1.14,30.56Z" transform="translate(-1002.239 -704.931)" fill="#a7a9ac" opacity="0.4"/>
              <path id="Path_22705" data-name="Path 22705" d="M971.7,714.469,961.081,757.7h14.737l-.265,4.213L974.3,744.921Z" transform="translate(-961.081 -703.932)" fill="#939598"/>
            </g>
            <g id="Group_11779" data-name="Group 11779" transform="translate(22.981)">
              <path id="Path_22706" data-name="Path 22706" d="M1076.342,482.786s-.957,22.176,0,24.983,7.848,10.433,10.81,12.255,9.755,2.131,14.309,0c3.628-1.575,9.144-9,10.478-12.778s0-24.46,0-24.46Z" transform="translate(-1075.031 -468.889)" fill="#ffab6c"/>
              <path id="Path_22707" data-name="Path 22707" d="M1133.664,606.319a6.074,6.074,0,1,0,12.148,0Z" transform="translate(-1120.776 -566.747)" fill="#f1f2f2"/>
              <path id="Path_22708" data-name="Path 22708" d="M1112.463,482.786h-35.44s-.107,2.479-.214,5.882c-.082,7.067-.057,16.621.583,19.915.165.31.369.649.606,1.012.483-.936,1.758-6.5,2.278-7.2.588-.793-1.279-11.521.961-14.454,3.812-4.991,26.948-4.405,28.26-1.008,2.335,6.047,1.083,15.551,1.083,15.551s.37,6.009,1.093,6.835a15.335,15.335,0,0,0,.947-2.07c.005-.015.01-.033.016-.049C1113.373,501.665,1112.692,487.432,1112.463,482.786Z" transform="translate(-1075.712 -468.889)" fill="#ff9852"/>
              <path id="Path_22709" data-name="Path 22709" d="M1073.962,427.345l5.32-5.4,2.56,2.779,1.3-4.169,5.988-4.109,1.282,4.5,1.708-5.021,6.074,3.706.877,1.621,2.027-1.621,7.375,2.547a55.372,55.372,0,0,1,2.316,6.021c0,.695,1.186,25.994-.925,27.182-.926.521-.96-6.252-.96-6.252s1.3-9.395-1.126-15.372c-1.364-3.358-26.375-3.937-30.338,1-2.328,2.9-.388,13.5-1,14.287s-.737,7.079-1.353,6.568C1073.415,454.217,1073.962,427.345,1073.962,427.345Z" transform="translate(-1073.415 -415.92)" fill="#231f20"/>
              <path id="Path_22710" data-name="Path 22710" d="M1076.635,552.568c0,2.052-1.115,3.714-2.49,3.714s-2.49-1.663-2.49-3.714,1.115-3.714,2.49-3.714S1076.635,550.516,1076.635,552.568Z" transform="translate(-1071.656 -521.225)" fill="#ffab6c"/>
              <path id="Path_22711" data-name="Path 22711" d="M1235.421,552.568c0,2.052-1.115,3.714-2.49,3.714s-2.489-1.663-2.489-3.714,1.115-3.714,2.489-3.714S1235.421,550.516,1235.421,552.568Z" transform="translate(-1197.441 -521.225)" fill="#ffab6c"/>
              <path id="Path_22712" data-name="Path 22712" d="M1090.666,456.153a27.374,27.374,0,0,1,7.461-1.7q-2.587-4.025-4.979-8.171l-.354,1.387-2.56-2.779-2.532,2.572C1088.689,451,1089.677,452.616,1090.666,456.153Z" transform="translate(-1084.366 -438.871)" fill="#333132"/>
              <path id="Path_22713" data-name="Path 22713" d="M1181.818,446.161l5.211-7.567c-.511-1.237-.972-2.3-.972-2.3l-7.375-2.547-1.405,1.124q-2.622,5.252-5.464,10.39A49.6,49.6,0,0,1,1181.818,446.161Z" transform="translate(-1150.997 -430.044)"/>
              <g id="Group_11778" data-name="Group 11778" transform="translate(1.744 26.395)">
                <g id="Group_11774" data-name="Group 11774" transform="translate(7.895 3.23)">
                  <path id="Path_22714" data-name="Path 22714" d="M1121.175,560.59a1.014,1.014,0,1,1-1.014-1.014A1.014,1.014,0,0,1,1121.175,560.59Z" transform="translate(-1118.916 -559.344)" fill="#231f20"/>
                  <path id="Path_22715" data-name="Path 22715" d="M1119.278,560.952a1.245,1.245,0,1,1,1.245-1.245A1.247,1.247,0,0,1,1119.278,560.952Zm0-2.027a.782.782,0,1,0,.782.782A.783.783,0,0,0,1119.278,558.925Z" transform="translate(-1118.033 -558.462)" fill="#231f20"/>
                </g>
                <g id="Group_11775" data-name="Group 11775" transform="translate(23.825 3.23)">
                  <path id="Path_22716" data-name="Path 22716" d="M1197.818,560.59a1.014,1.014,0,1,1-1.014-1.014A1.014,1.014,0,0,1,1197.818,560.59Z" transform="translate(-1195.559 -559.344)" fill="#231f20"/>
                  <path id="Path_22717" data-name="Path 22717" d="M1195.922,560.952a1.245,1.245,0,1,1,1.245-1.245A1.247,1.247,0,0,1,1195.922,560.952Zm0-2.027a.782.782,0,1,0,.782.782A.783.783,0,0,0,1195.922,558.925Z" transform="translate(-1194.677 -558.462)" fill="#231f20"/>
                </g>
                <g id="Group_11777" data-name="Group 11777">
                  <g id="Group_11776" data-name="Group 11776" transform="translate(0.672 0.734)" opacity="0.4">
                    <path id="Path_22718" data-name="Path 22718" d="M1090.907,554.744c4.214,0,7.629-3.711,7.629-8.289h-15.259C1083.278,551.033,1086.694,554.744,1090.907,554.744Z" transform="translate(-1083.278 -546.455)" fill="#c4e5f2"/>
                    <path id="Path_22719" data-name="Path 22719" d="M1176.709,554.744c4.214,0,7.63-3.711,7.63-8.289H1169.08C1169.08,551.033,1172.5,554.744,1176.709,554.744Z" transform="translate(-1151.247 -546.455)" fill="#c4e5f2"/>
                    <path id="Path_22720" data-name="Path 22720" d="M1126.073,551.621l-2.587-4.766a.641.641,0,0,0-.921-.257.774.774,0,0,0-.235,1.007l2.587,4.766a.663.663,0,0,0,.579.36.626.626,0,0,0,.343-.1A.774.774,0,0,0,1126.073,551.621Z" transform="translate(-1114.139 -546.486)" fill="#89cce0"/>
                    <path id="Path_22721" data-name="Path 22721" d="M1133.918,549.234l-1.425-2.4a.638.638,0,0,0-.929-.217.777.777,0,0,0-.2,1.016l1.425,2.4a.658.658,0,0,0,.565.335.627.627,0,0,0,.365-.118A.776.776,0,0,0,1133.918,549.234Z" transform="translate(-1121.285 -546.486)" fill="#89cce0"/>
                    <path id="Path_22722" data-name="Path 22722" d="M1217.018,551.622l-2.587-4.766a.641.641,0,0,0-.921-.257.774.774,0,0,0-.235,1.007l2.587,4.766a.662.662,0,0,0,.578.36.625.625,0,0,0,.342-.1A.774.774,0,0,0,1217.018,551.622Z" transform="translate(-1186.182 -546.487)" fill="#89cce0"/>
                    <path id="Path_22723" data-name="Path 22723" d="M1224.861,549.235l-1.425-2.4a.639.639,0,0,0-.929-.217.776.776,0,0,0-.2,1.016l1.425,2.4a.658.658,0,0,0,.564.335.629.629,0,0,0,.365-.118A.777.777,0,0,0,1224.861,549.235Z" transform="translate(-1193.327 -546.488)" fill="#89cce0"/>
                  </g>
                  <path id="Path_22724" data-name="Path 22724" d="M1113.808,542.921h-33.091a.705.705,0,0,0-.672.734c0,4.976,3.724,9.024,8.3,9.024a8.472,8.472,0,0,0,8.037-6.8h1.76a8.472,8.472,0,0,0,8.036,6.8c4.577,0,8.3-4.048,8.3-9.024A.705.705,0,0,0,1113.808,542.921Zm-25.462,8.289a7.215,7.215,0,0,1-6.924-6.82h13.849A7.215,7.215,0,0,1,1088.346,551.21Zm17.833,0a7.148,7.148,0,0,1-6.832-6.132v-.688H1113.1A7.215,7.215,0,0,1,1106.179,551.21Z" transform="translate(-1080.045 -542.921)" fill="#231f20"/>
                  <path id="Path_22725" data-name="Path 22725" d="M1099.979,547.175a1.5,1.5,0,1,1-1.488-1.3A1.4,1.4,0,0,1,1099.979,547.175Z" transform="translate(-1093.478 -545.259)" fill="#e6e7e8" opacity="0.61"/>
                  <path id="Path_22726" data-name="Path 22726" d="M1098.854,545.873a1.487,1.487,0,0,0-1.393.855h2.786A1.487,1.487,0,0,0,1098.854,545.873Z" transform="translate(-1093.841 -545.259)" fill="#33423e"/>
                </g>
              </g>
            </g>
          </g>
          <g id="Group_11783" data-name="Group 11783" transform="translate(0 77.487)">
            <g id="Group_11781" data-name="Group 11781" transform="translate(15.354)">
              <circle id="Ellipse_367" data-name="Ellipse 367" cx="4.4" cy="4.4" r="4.4" transform="translate(4.886)" fill="#231f20"/>
              <circle id="Ellipse_368" data-name="Ellipse 368" cx="4.4" cy="4.4" r="4.4" transform="translate(46.61)" fill="#231f20"/>
              <ellipse id="Ellipse_369" data-name="Ellipse 369" cx="1.968" cy="0.984" rx="1.968" ry="0.984" transform="translate(6.69 0.735)" fill="#33423e"/>
              <path id="Path_22727" data-name="Path 22727" d="M1253.594,792.873c0,.569.841,1.03,1.878,1.03s1.879-.461,1.879-1.03-.841-1.03-1.879-1.03S1253.594,792.3,1253.594,792.873Z" transform="translate(-1204.854 -791.2)" fill="#33423e"/>
              <path id="Path_22728" data-name="Path 22728" d="M1026.182,806.424l-6.32,4.967a1.6,1.6,0,0,0-.751,1.621,1.568,1.568,0,0,0-.027.269v21.61a1.595,1.595,0,0,0,3.19,0V813.664l5.549-4.5a1.595,1.595,0,0,0-1.64-2.736Z" transform="translate(-1019.083 -802.572)" fill="#33423e"/>
              <path id="Path_22729" data-name="Path 22729" d="M1026.182,806.424l-6.32,4.967a1.6,1.6,0,0,0-.751,1.621,1.568,1.568,0,0,0-.027.269v21.61a1.595,1.595,0,0,0,3.19,0V813.664l5.549-4.5a1.595,1.595,0,0,0-1.64-2.736Z" transform="translate(-1019.083 -802.572)" fill="#33423e"/>
              <path id="Path_22730" data-name="Path 22730" d="M1026.926,806.242a1.571,1.571,0,0,0-.744.217l-6.32,4.967a1.6,1.6,0,0,0-.751,1.621,1.567,1.567,0,0,0-.027.269v21.531a1.6,1.6,0,0,0,1.523-1.588V812.032l5.549-4.5A1.6,1.6,0,0,0,1026.926,806.242Z" transform="translate(-1019.083 -802.606)" fill="#58595b"/>
              <path id="Path_22731" data-name="Path 22731" d="M1265.846,806.424l6.32,4.967a1.6,1.6,0,0,1,.751,1.621,1.58,1.58,0,0,1,.027.269v21.61a1.595,1.595,0,0,1-3.19,0V813.664l-5.549-4.5a1.595,1.595,0,1,1,1.64-2.736Z" transform="translate(-1212.648 -802.572)" fill="#33423e"/>
              <path id="Path_22732" data-name="Path 22732" d="M1279.248,811.6l-6.32-4.967a1.567,1.567,0,0,0-.433-.171,1.6,1.6,0,0,0,.645,1.98l5.549,4.5v21.227a1.6,1.6,0,0,0,1.212,1.543,1.579,1.579,0,0,0,.125-.617V813.49a3.129,3.129,0,0,0-.779-1.891Z" transform="translate(-1219.73 -802.78)" fill="#58595b"/>
            </g>
            <g id="Group_11782" data-name="Group 11782" transform="translate(0 26.06)">
              <rect id="Rectangle_10148" data-name="Rectangle 10148" width="64.657" height="127.342" transform="translate(12.942 25.165)" fill="#602813"/>
              <rect id="Rectangle_10149" data-name="Rectangle 10149" width="64.657" height="10.883" transform="translate(12.942 25.165)" fill="#512610"/>
              <rect id="Rectangle_10150" data-name="Rectangle 10150" width="90.54" height="25.165" fill="#753b29"/>
              <rect id="Rectangle_10151" data-name="Rectangle 10151" width="84.611" height="5.471" transform="translate(2.965 152.506)" fill="#6b2c18"/>
              <rect id="Rectangle_10152" data-name="Rectangle 10152" width="90.447" height="5.471" transform="translate(0.047 157.977)" fill="#602813"/>
            </g>
          </g>
          <g id="Group_11784" data-name="Group 11784" transform="translate(0.51 98.592)">
            <path id="Path_22733" data-name="Path 22733" d="M1320.357,904.542a11.1,11.1,0,0,1-9.336.262,4.673,4.673,0,0,1-2.914-2.938c-.382-1.7.883-3.43,2.465-4.17a11.671,11.671,0,0,1,5.142-.707,11.222,11.222,0,0,1,4.92.812,3.841,3.841,0,0,1,2.263,4.067A4.517,4.517,0,0,1,1320.357,904.542Z" transform="translate(-1233.139 -895.593)" fill="#512d10"/>
            <path id="Path_22734" data-name="Path 22734" d="M959.983,904.542a11.1,11.1,0,0,1-9.336.262,4.672,4.672,0,0,1-2.914-2.938c-.382-1.7.883-3.43,2.464-4.17a11.671,11.671,0,0,1,5.142-.707,11.221,11.221,0,0,1,4.92.812,3.841,3.841,0,0,1,2.263,4.067A4.517,4.517,0,0,1,959.983,904.542Z" transform="translate(-947.663 -895.593)" fill="#512d10"/>
            <path id="Path_22735" data-name="Path 22735" d="M1320.357,897.857a11.1,11.1,0,0,1-9.336.262,4.672,4.672,0,0,1-2.914-2.938c-.382-1.7.883-3.43,2.465-4.17a11.673,11.673,0,0,1,5.142-.707,11.23,11.23,0,0,1,4.92.812,3.841,3.841,0,0,1,2.263,4.068A4.517,4.517,0,0,1,1320.357,897.857Z" transform="translate(-1233.139 -890.296)" fill="#ffab6c"/>
            <path id="Path_22736" data-name="Path 22736" d="M959.983,897.857a11.1,11.1,0,0,1-9.336.262,4.672,4.672,0,0,1-2.914-2.938c-.382-1.7.883-3.43,2.464-4.17a11.674,11.674,0,0,1,5.142-.707,11.229,11.229,0,0,1,4.92.812,3.841,3.841,0,0,1,2.263,4.068A4.518,4.518,0,0,1,959.983,897.857Z" transform="translate(-947.663 -890.296)" fill="#ffab6c"/>
          </g>
        </g>
      </g>
    </g>
    <rect id="Rectangle_10135" data-name="Rectangle 10135" width="1598" height="25" transform="translate(322 380)" fill="#0b6c75"/>
  </g>
</svg>
