<svg xmlns="http://www.w3.org/2000/svg" xmlns:xlink="http://www.w3.org/1999/xlink" width="1947.453" height="268.772" viewBox="0 0 1947.453 268.772">
  <defs>
    <linearGradient id="linear-gradient" x1="0.479" y1="0.262" x2="0.619" y2="0.957" gradientUnits="objectBoundingBox">
      <stop offset="0" stop-color="#ea8e3d"/>
      <stop offset="1" stop-color="#f4c270"/>
    </linearGradient>
    <linearGradient id="linear-gradient-2" x1="0.494" y1="0.439" x2="0.101" y2="1.249" gradientUnits="objectBoundingBox">
      <stop offset="0" stop-color="#f9b776"/>
      <stop offset="1" stop-color="#f7cf7a"/>
    </linearGradient>
    <linearGradient id="linear-gradient-3" x1="0.789" y1="0.303" x2="0.063" y2="0.912" gradientUnits="objectBoundingBox">
      <stop offset="0" stop-color="#512425"/>
      <stop offset="0.65" stop-color="#8c4d17"/>
      <stop offset="1" stop-color="#8c4d17"/>
    </linearGradient>
    <linearGradient id="linear-gradient-4" x1="0.979" y1="0.498" x2="-0.022" y2="0.502" gradientUnits="objectBoundingBox">
      <stop offset="0" stop-color="#512425"/>
      <stop offset="0.22" stop-color="#512425"/>
      <stop offset="0.77" stop-color="#8c4d17"/>
      <stop offset="1" stop-color="#8c4d17"/>
    </linearGradient>
    <linearGradient id="linear-gradient-5" x1="0.122" y1="0.279" x2="0.898" y2="0.725" xlink:href="#linear-gradient-4"/>
  </defs>
  <g id="Group_11687" data-name="Group 11687" transform="translate(7.501 -1415.962)">
    <g id="Group_11081" data-name="Group 11081" transform="translate(241.046 1159.655)">
      <path id="Path_10378" data-name="Path 10378" d="M.026-.76l1926,.76a17.118,17.118,0,1,1,0,34.236l-1926,.68c-9.511,0,0-7.6,0-17.058S-9.486-.76.026-.76Z" transform="translate(-244.346 490.163)" fill="#898685"/>
      <g id="Group_4464" data-name="Group 4464" transform="translate(-340.895 2.117)">
        <path id="Path_10101" data-name="Path 10101" d="M2023.849,504.164h-12.214v1.094h12.214Zm-31.292,0h-19.078v1.094h19.078Zm-38.156,0h-19.078v1.094H1954.4Zm-38.156,0h-19.078v1.094h19.078Zm-38.156,0h-19.078v1.094h19.078Zm-38.156,0h-19.078v1.094h19.078Zm-38.156,0H1782.7v1.094h19.078Zm-38.156,0h-19.078v1.094h19.078Zm-38.156,0h-19.078v1.094h19.078Zm-38.156,0h-19.078v1.094h19.078Zm-38.156,0h-19.078v1.094h19.078Zm-38.156,0h-19.078v1.094H1611Zm-38.156,0h-19.078v1.094h19.078Zm-38.156,0H1515.61v1.094h19.078Zm-38.156,0h-19.078v1.094h19.078Zm-38.156,0H1439.3v1.094h19.078Zm-38.156,0h-19.078v1.094h19.078Zm-38.156,0h-19.078v1.094h19.078Zm-38.156,0h-19.078v1.094h19.078Zm-38.156,0h-19.078v1.094h19.078Zm-38.156,0h-19.078v1.094H1267.6Zm-38.156,0h-19.078v1.094h19.078Zm-38.156,0h-19.078v1.094h19.078Zm-38.156,0h-19.078v1.094h19.078Zm-38.157,0H1095.9v1.094h19.078Zm-38.156,0h-19.078v1.094h19.078Zm-38.156,0h-19.078v1.094h19.078Zm-38.156,0H981.43v1.094h19.078Zm-38.156,0H943.274v1.094h19.078Zm-38.156,0H905.118v1.094H924.2Zm-38.156,0H866.963v1.094H886.04Zm-38.156,0H828.807v1.094h19.078Zm-38.156,0H790.651v1.094h19.078Zm-38.156,0H752.5v1.094h19.078Zm-38.156,0H714.34v1.094h19.078Zm-38.156,0H676.184v1.094h19.078Zm-38.156,0H638.029v1.094h19.078Zm-38.156,0H599.873v1.094h19.078Zm-38.156,0H561.717v1.094h19.078Zm-38.156,0H523.561v1.094h19.078Zm-38.156,0H485.406v1.094h19.078Zm-38.156,0H447.25v1.094h19.078Zm-38.156,0H409.094v1.094h19.078Zm-38.156,0H370.939v1.094h19.078Zm-38.156,0H332.783v1.094h19.078Zm-38.156,0H294.627v1.094h19.078Zm-38.156,0H256.472v1.094H275.55Zm-38.156,0H218.316v1.094h19.078Zm-38.156,0H180.16v1.094h19.078Zm-38.156,0H142v1.094h19.078Zm-38.156,0H103.849v1.094h19.078Z" transform="translate(0)" fill="#fff"/>
      </g>
      <path id="Path_10106" data-name="Path 10106" d="M1994.726,488.4H78.411c-7.494,0-13.569-3.9-13.569-8.714h0c0-4.813,6.075-8.714,13.569-8.714H1994.726c7.494,0,13.569,3.9,13.569,8.714S2002.22,488.4,1994.726,488.4Z" transform="translate(-313.39 2)" fill="#9fc445"/>
      <path id="Path_10283" data-name="Path 10283" d="M1319.644,448.439a11.835,11.835,0,0,1,21.815,3.475h-53.54C1291.264,436.134,1312.912,433.718,1319.644,448.439Z" transform="translate(7 21)" fill="#9fc445"/>
      <path id="Path_10284" data-name="Path 10284" d="M823.189,468.45A11.835,11.835,0,0,1,845,471.925H791.463C794.808,456.145,816.457,453.729,823.189,468.45Z" transform="translate(0 3)" fill="#9fc445"/>
      <path id="Path_10285" data-name="Path 10285" d="M105.5,448.439a11.835,11.835,0,0,0-21.815,3.475h53.54C133.877,436.134,112.228,433.718,105.5,448.439Z" transform="translate(-180 23)" fill="#9fc445"/>
      <path id="Path_10321" data-name="Path 10321" d="M1057.349,449.442a18.5,18.5,0,0,0-12.83,5.162A21.728,21.728,0,0,0,1010,449.4a9.849,9.849,0,0,0-13.629,13.968c-.2.407-.4.809-.575,1.23a17.035,17.035,0,0,0-28.76,7.947h37.941c.028.075.048.152.077.226H1075.3a18.52,18.52,0,0,0-17.947-23.328Z" transform="translate(-23 2)" fill="#9cba3f"/>
      <path id="Path_10340" data-name="Path 10340" d="M678.7,453.757a11.835,11.835,0,0,1,21.815,3.475h-53.54C650.319,441.452,671.967,439.036,678.7,453.757Z" transform="translate(-22 18)" fill="#9cba3f"/>
    </g>
    <g id="Group_6472" data-name="Group 6472" transform="translate(1746.677 1415.962)">
      <g id="Group_6471" data-name="Group 6471">
        <path id="Path_14901" data-name="Path 14901" d="M166.593,905.319h-5.931v1.5H87.677v-1.5h-5.95V903.63H91.943v-1.5h64.625v1.5h10.024Z" transform="translate(-81.727 -670.423)" fill="#dee6de" fill-rule="evenodd" opacity="0.42"/>
        <path id="Path_14902" data-name="Path 14902" d="M167.786,501.246c-.3,2.119-.756,7-1.052,8.734-1.781,10.456-5.858,31.134-9.414,46.573a528.405,528.405,0,0,1-3.614,57.752l5.612,1.151c4.069-15.782,8.274-37.278,9.349-45.01-.319-4.928-.956-8.348-1.567-13.591,4.428-11.027,11.266-26.3,14.229-36.192l1.431-.112c1.225,13.811,1.6,22.777,2.677,36.592l-1.27,13.563-.966,44.042,5.629,0,7.494-44.3L195,556.881c1.715-15.787,3.414-29.814,4.253-45.76-.427-2.79-.98-6.891-1.632-9.92a69.058,69.058,0,0,1-29.834.044Z" transform="translate(-132.742 -386.263)" fill="#3f353d" fill-rule="evenodd"/>
        <path id="Path_14903" data-name="Path 14903" d="M318.092,303.271c1.512,4.97,4.9,18.366,6.01,21.777l-.01.077,9.147-1.339c-.092-9.172-6.525-34.7-10.109-44.426a12.927,12.927,0,0,0-1.537-.537C318.62,288.925,317.878,296.163,318.092,303.271Z" transform="translate(-249.227 -228.65)" fill="#bfcbd2" fill-rule="evenodd"/>
        <path id="Path_14904" data-name="Path 14904" d="M179.342,261.836a72.93,72.93,0,0,1,17.677-6.778l9.959-.091a145.774,145.774,0,0,1,17.832,7.483c-.245,6.53-1.743,14.557-3.343,24.627-1.608,10.12-3.8,20.032-4.276,30.438.1,1.67.467,3.21.549,4.425a4.9,4.9,0,0,1-2.4,3.47c-8.353,3.322-23.028,2.03-29.521.979-1.341-1.844-1.654-2.952-1.653-3.584a45.921,45.921,0,0,1,.371-5.548c.3-10.266-.933-18.667-2.187-28.79C181.333,280.29,179.2,269.07,179.342,261.836Z" transform="translate(-150.907 -211.742)" fill="#bfcbd2" fill-rule="evenodd"/>
        <path id="Path_14905" data-name="Path 14905" d="M233.27,217.077c.007,1.333.656,5,4.089,5.874a6.97,6.97,0,0,0,8.6-5.681c-.052-3.514.188-11.788.325-16.116l-12.313,8.709Z" transform="translate(-189.134 -173.604)" fill-rule="evenodd" fill="url(#linear-gradient)"/>
        <path id="Path_14906" data-name="Path 14906" d="M225.335,251.5l2.14-2.475a19.736,19.736,0,0,0,5.569,7.694l-4.951,3.932a25.491,25.491,0,0,1-2.759-9.151Zm16.881-.552-1.525-2.459a19.312,19.312,0,0,1-7.635,8.226,54.015,54.015,0,0,0,5.274,4.257A24.671,24.671,0,0,0,242.216,250.945Z" transform="translate(-183.51 -207.15)" fill="#d4dee4" fill-rule="evenodd"/>
        <path id="Path_14907" data-name="Path 14907" d="M231.329,498.53c-8.353,3.929-23.848,1.717-30.34.666l.087-3.556c6.492,1.051,21.359,2.612,29.712-.71C230.926,495.761,231.265,497.871,231.329,498.53Z" transform="translate(-166.254 -381.819)" fill="#80695b" fill-rule="evenodd"/>
        <path id="Path_14908" data-name="Path 14908" d="M243.615,504.4h-.007l-3.795-.023a1.044,1.044,0,0,1-1.037-1.048l.017-2.944a1.044,1.044,0,0,1,1.043-1.037h.006l3.795.023a1.044,1.044,0,0,1,1.037,1.049l-.017,2.944a1.044,1.044,0,0,1-1.042,1.036Zm-3.777-4.314a.306.306,0,0,0-.305.3l-.017,2.944a.307.307,0,0,0,.3.307l3.795.023a.293.293,0,0,0,.216-.089.3.3,0,0,0,.091-.215l.006-1.116h-1.464V501.5h1.468l.007-1.09a.306.306,0,0,0-.3-.307l-3.795-.023Z" transform="translate(-193.037 -384.947)" fill="#bca18e"/>
        <path id="Path_14909" data-name="Path 14909" d="M334.331,421.836a26.4,26.4,0,0,1-.7-4.188l10.776-2.583a13.828,13.828,0,0,1,.209,5.262Z" transform="translate(-260.262 -325.214)" fill="#d4dee4" fill-rule="evenodd"/>
        <g id="Group_6467" data-name="Group 6467" transform="translate(57.444 105.458)">
          <path id="Path_14910" data-name="Path 14910" d="M302.654,503.339c-2.587,1.243-6.172,2.291-9.107,3.816-.689-6.194-1.057-13.4-1.84-19.157-.278-2.043-1-6.16-2.323-6.992,9.93-3.488,15.244-5.235,24.934-8.066a88.085,88.085,0,0,1,3.609,18.948,8.321,8.321,0,0,1-.276,3.561,2.765,2.765,0,0,1-1.516,1.487C312.7,498.677,307.148,501.205,302.654,503.339Z" transform="translate(-286.349 -471.692)" fill="#815131" fill-rule="evenodd"/>
          <path id="Path_14911" data-name="Path 14911" d="M283.32,501.682a3.325,3.325,0,0,0-1.917-1.612c-.681-.221-1.332-.148-1.6.43l-.846,23.893c.128,1.44,1.6.54,3.117.852,1.635.337,2.913,1.87,4.082,1.058C285.306,518.3,285.316,507.983,283.32,501.682Z" transform="translate(-278.962 -490.838)" fill="#8d5738" fill-rule="evenodd"/>
          <path id="Path_14912" data-name="Path 14912" d="M311.022,468.919a4.624,4.624,0,0,0-3.286.113,116.415,116.415,0,0,1-12.034,4.6c-2.471.843-4.975,1.647-7.469,2.421a25.838,25.838,0,0,0-4.955,1.817c1.262-.246,5.133,2.065,6.149,3.679a17.083,17.083,0,0,1,1.424,4.121c1.182,3.572,1.747,4.394,5.311,2.889,2.578-1.089,13.114-5.25,15.548-6.805a2.831,2.831,0,0,0,1.412-2.311,48.214,48.214,0,0,0-.813-7.673C312.087,470.568,311.8,469.308,311.022,468.919Z" transform="translate(-282.022 -468.651)" fill="#70482c" fill-rule="evenodd"/>
          <path id="Path_14913" data-name="Path 14913" d="M293.781,526.54a.246.246,0,0,1-.244-.222c-.176-1.837-.3-3.724-.417-5.549-.089-1.365-.172-2.654-.277-3.929l-.052-.657c-.768-9.725-1.754-15.021-2.931-15.74a.246.246,0,0,1,.256-.42c1.782,1.089,2.66,9.722,3.165,16.122l.052.655c.1,1.28.193,2.631.278,3.938.118,1.821.241,3.7.416,5.534a.246.246,0,0,1-.221.268Z" transform="translate(-286.602 -490.86)" fill="#70482c"/>
        </g>
        <path id="Path_14914" data-name="Path 14914" d="M324.307,551.812l1.817.044.56-1.669,1.657-.076,2.14-2.126-.217-5.671-.85-1.906q.126-.582.246-1.163l-3.987-.619-.056,1.339-2.585,3.422-1.013,3.417-.308,2.19.954.056.861-1.644.214,1.162Z" transform="translate(-251.817 -412.787)" fill="#fdbf78" fill-rule="evenodd"/>
        <path id="Path_14915" data-name="Path 14915" d="M335.967,434.8c-.161,6.029-.726,24.27-.859,31.21l3.7.212c2.319-10.442,5.736-24.111,6.046-32.713Z" transform="translate(-261.312 -338.286)" fill="#fdbf78" fill-rule="evenodd"/>
        <path id="Path_14916" data-name="Path 14916" d="M188,341.466a122.022,122.022,0,0,1-.617-15.938l.6.015a121.573,121.573,0,0,0,.615,15.87Zm38.426-.156c-.3-1.264-.6-2.415-.908-3.634-.567-2.224-1.211-4.745-2.187-8.984l.582-.134c.974,4.232,1.617,6.75,2.183,8.971.312,1.221.606,2.374.91,3.641Z" transform="translate(-156.579 -261.754)" fill="#7d8894"/>
        <path id="Path_14917" data-name="Path 14917" d="M243.447,279.466l-2.623-2.387-2.9,2.153.938,3.951,3.41.075,1.173-3.792Zm-1.7,4.324-2.425-.049-3.112,26.388,3.447,5.226,3.925-5.119Z" transform="translate(-191.216 -227.415)" fill="#594b54" fill-rule="evenodd"/>
        <rect id="Rectangle_5875" data-name="Rectangle 5875" width="6.232" height="0.764" transform="translate(45.917 134.654) rotate(-12.096)" fill="#434242"/>
        <path id="Path_14918" data-name="Path 14918" d="M126.743,895.606s-.046-2.229.955-3.161c.9-.521,3.605-.377,3.605-.377l3.172-1.315,5.666.6.172,4.235Z" transform="translate(-113.632 -662.359)" fill="#854c2b" fill-rule="evenodd"/>
        <path id="Path_14919" data-name="Path 14919" d="M257.317,895.8h-8.951l-.111-1.97,2.013-2.8,5.506-.008,1.422,2.706Z" transform="translate(-199.755 -662.55)" fill="#854c2b" fill-rule="evenodd"/>
        <path id="Path_14920" data-name="Path 14920" d="M157.965,278.069a2.651,2.651,0,0,0-.426.185c-4.057,11.941-7.414,31.4-8.854,41.743,3.518-.015,7.764.63,10.071,2.5,2.492-7.03,3.14-11.368,4.5-19.747C162.492,296.435,161.435,285.219,157.965,278.069Z" transform="translate(-129.184 -228.117)" fill="#bfcbd2" fill-rule="evenodd"/>
        <path id="Path_14921" data-name="Path 14921" d="M158.473,552.505l-1.814-.118-.41-1.712-1.643-.223-1.942-2.308.721-5.63,1.017-1.822q-.074-.592-.142-1.18l4.026-.262-.064,1.339,2.27,3.638.705,3.494.112,2.208-.954-.029-.712-1.715-.316,1.138Z" transform="translate(-132.004 -413.229)" fill="#fdbf78" fill-rule="evenodd"/>
        <path id="Path_14922" data-name="Path 14922" d="M157.653,434.271c-.376,6.02-1.776,24.759-2.261,31.683l-3.7-.118c-1.381-10.607-2.787-23.849-2.954-32.341A15.958,15.958,0,0,1,157.653,434.271Z" transform="translate(-129.218 -338.049)" fill="#fdbf78" fill-rule="evenodd"/>
        <path id="Path_14923" data-name="Path 14923" d="M190.266,363.315c-.151-2.092-.441-4.77-.777-7.871-.176-1.62-.362-3.34-.544-5.119-.593-5.807-1.3-14.025-1.3-20.2h.492c0,6.152.707,14.352,1.3,20.147.181,1.778.368,3.5.543,5.116.337,3.105.628,5.787.779,7.888Z" transform="translate(-156.796 -265.014)" fill="#7d8894"/>
        <path id="Path_14924" data-name="Path 14924" d="M155.225,422.949a24.639,24.639,0,0,0,1.674-3.577,18.128,18.128,0,0,0-12.519-3.073,21.812,21.812,0,0,0-.287,5.724A18.13,18.13,0,0,1,155.225,422.949Z" transform="translate(-125.877 -325.983)" fill="#d4dee4" fill-rule="evenodd"/>
        <g id="Group_6469" data-name="Group 6469" transform="translate(21.508 121.831)">
          <path id="Path_14925" data-name="Path 14925" d="M157.049,531.862l4.463.406.06-2.15-4.632-.141Z" transform="translate(-156.543 -528.489)" fill="#8d5738" fill-rule="evenodd"/>
          <g id="Group_6468" data-name="Group 6468">
            <path id="Path_14926" data-name="Path 14926" d="M156.283,528.084c.194,1.294,1.014,2.253,1.832,2.142s1.324-1.249,1.129-2.543-1.014-2.253-1.832-2.142S156.089,526.79,156.283,528.084Z" transform="translate(-156.048 -525.338)" fill="#e7dcc5" fill-rule="evenodd"/>
            <path id="Path_14927" data-name="Path 14927" d="M157.511,529.956c-.878,0-1.69-.977-1.891-2.315h0a3.036,3.036,0,0,1,.431-2.221,1.3,1.3,0,0,1,.864-.543c.937-.126,1.837.885,2.05,2.3a3.036,3.036,0,0,1-.431,2.221,1.3,1.3,0,0,1-.864.543A1.209,1.209,0,0,1,157.511,529.956ZM156,527.583c.175,1.168.915,2.074,1.615,1.978a.922.922,0,0,0,.606-.391,2.684,2.684,0,0,0,.358-1.931c-.175-1.167-.916-2.073-1.614-1.978a.924.924,0,0,0-.606.391,2.686,2.686,0,0,0-.358,1.931Z" transform="translate(-155.576 -524.867)" fill="#5d595a"/>
          </g>
          <path id="Path_14928" data-name="Path 14928" d="M157.793,530.113l-.073-.721.293-.03.073.721Zm.586-1.011-.681-1.014-.285.372-.234-.179.535-.7.91,1.355Zm.87-1.133-.592-.019.01-.295.592.019Zm-2.351-.038-.589-.009,0-.3.589.009Zm.535-1.713-.062-.723.294-.025.062.723Z" transform="translate(-156.096 -525.294)" fill="#5d595a"/>
        </g>
        <g id="Group_6470" data-name="Group 6470" transform="translate(34.239)">
          <path id="Path_14929" data-name="Path 14929" d="M200.7,146.611a33.94,33.94,0,0,0,4.557,5.639,31.131,31.131,0,0,0,5.689.575c3.643-1.09,7.909-4.221,9.243-5.381a98.95,98.95,0,0,0,3.353-13.024c1.2-5.957.858-10.648-.8-14.41-2.026-4.6-6.3-4.481-10.711-4.771-3.877-.254-6.506-1.751-9.38,2.52-1.409,2.093-1.51,4.751-1.865,7.764-.177,1.5-.049,3.11-.082,4.608-.173,1.016-1.248,2.845-1.42,3.728a46.76,46.76,0,0,0,1.184,7.8C200.56,143.294,200.493,144.963,200.7,146.611Z" transform="translate(-199.286 -112.384)" fill-rule="evenodd" fill="url(#linear-gradient-2)"/>
          <path id="Path_14930" data-name="Path 14930" d="M226.285,126.706a63.193,63.193,0,0,0,2.266-9.359c.256-2.475-1.618-7.654-4.875-9.362-4.107-1.228-8.62-2.1-13.71-.746-1.439.382-3.428,1.016-4.877,1.425a2.722,2.722,0,0,0-.814,2.966,6.247,6.247,0,0,0-1.308,2.37,37.185,37.185,0,0,0-.771,6.921l.57,1.921c.24-2.009,1.25-8.793,3.83-9.306.419.13.059,1.547,2.276,1.782,2.752.292,13.479-2.7,15.19,2.136.91,3.067-.122,9.857-.122,9.857Z" transform="translate(-201.348 -106.556)" fill-rule="evenodd" fill="url(#linear-gradient-3)"/>
          <path id="Path_14931" data-name="Path 14931" d="M242.923,168.812c.08,1.063.725,1,2.04,1.11a12.217,12.217,0,0,0,2.085.327,1.114,1.114,0,0,0,.825-.789c.41-1.4-1.057-2.406-2.371-2.515A2.165,2.165,0,0,0,242.923,168.812Z" transform="translate(-230.214 -149.349)" fill="#fff" fill-rule="evenodd"/>
          <path id="Path_14932" data-name="Path 14932" d="M246.946,168.921a1.494,1.494,0,1,0,1.612-1.364A1.495,1.495,0,0,0,246.946,168.921Z" transform="translate(-233.062 -149.787)" fill="#454646" fill-rule="evenodd"/>
          <path id="Path_14933" data-name="Path 14933" d="M247.394,168.013c-.681-1.978-4.218-2.6-5.933-.893A10.412,10.412,0,0,1,247.394,168.013Z" transform="translate(-229.178 -148.776)" fill="#4e4437" fill-rule="evenodd"/>
          <path id="Path_14934" data-name="Path 14934" d="M214.228,166.264c-.1,1.219-1.694.956-2.914.855s-1.833-.063-1.734-1.282,1.23-1.326,2.449-1.227S214.327,165.045,214.228,166.264Z" transform="translate(-206.574 -147.682)" fill="#fff" fill-rule="evenodd"/>
          <path id="Path_14935" data-name="Path 14935" d="M215.09,166.334a1.4,1.4,0,1,1-.99-1.719A1.4,1.4,0,0,1,215.09,166.334Z" transform="translate(-208.532 -147.671)" fill="#454646" fill-rule="evenodd"/>
          <path id="Path_14936" data-name="Path 14936" d="M247.54,152.647s-3.68-1.877-4.766-2.216a2.935,2.935,0,0,0-.646,2.1A23.008,23.008,0,0,1,247,153.771,1.822,1.822,0,0,0,247.54,152.647Z" transform="translate(-229.648 -137.653)" fill-rule="evenodd" fill="url(#linear-gradient-4)"/>
          <path id="Path_14937" data-name="Path 14937" d="M210.765,151.436a12.56,12.56,0,0,1,3.89-1.044,3.42,3.42,0,0,1,.215,1.918,11.278,11.278,0,0,0-3.793.322A2.2,2.2,0,0,1,210.765,151.436Z" transform="translate(-207.422 -137.625)" fill-rule="evenodd" fill="url(#linear-gradient-5)"/>
          <path id="Path_14938" data-name="Path 14938" d="M273.848,176.547c-.425,1.235-.456,3.038.679,3.429s2.685-.857,3.11-2.092.265-2.641-.871-3.033A2.481,2.481,0,0,0,273.848,176.547Z" transform="translate(-251.939 -154.893)" fill="#f8b879" fill-rule="evenodd"/>
          <path id="Path_14939" data-name="Path 14939" d="M238,176.778c-.172,1.011,1.12,2.088,3.009,2.409s3.56-.239,3.733-1.249-1.222-2.089-3.112-2.409S238.176,175.767,238,176.778Z" transform="translate(-226.717 -155.376)" fill="#f8b879" fill-rule="evenodd"/>
          <path id="Path_14940" data-name="Path 14940" d="M203.437,174.719c.139,1.015,1.022.915,2.921.655s3.2-.526,3.064-1.541-1.374-1.537-3.29-1.464C203.567,172.466,203.3,173.7,203.437,174.719Z" transform="translate(-202.207 -153.196)" fill="#f8b879" fill-rule="evenodd"/>
          <path id="Path_14941" data-name="Path 14941" d="M208.4,164.108c1.189-1.344,4.234-1.39,5.01.378A10.2,10.2,0,0,0,208.4,164.108Z" transform="translate(-205.743 -146.651)" fill="#4e4437" fill-rule="evenodd"/>
          <path id="Path_14942" data-name="Path 14942" d="M220.322,179.459c-1.963-.588-2.944-1.589-2.691-2.746.077-.352.42-1.177,1.939-1.392A11.041,11.041,0,0,0,220.753,171l.526.009a11.417,11.417,0,0,1-1.307,4.681l-.065.123-.138.015c-.916.1-1.508.467-1.624,1-.266,1.214,1.539,1.894,2.328,2.13Z" transform="translate(-212.261 -152.228)" fill="#d89159"/>
          <path id="Path_14943" data-name="Path 14943" d="M217.324,206.91s2.945,1.8,8.547-.7c-.826,2.507-2.52,4.07-4.891,4.273a5.249,5.249,0,0,1-3.685-.96Z" transform="translate(-212.05 -177.183)" fill="#fefefe" fill-rule="evenodd"/>
          <path id="Path_14944" data-name="Path 14944" d="M248.621,202.176l-.385-.016.029-.7a1.27,1.27,0,0,1-1.108-.971l.376-.083a.935.935,0,0,0,.929.684l.2,0Z" transform="translate(-233.215 -173.07)" fill="#d99867" fill-rule="evenodd"/>
          <path id="Path_14945" data-name="Path 14945" d="M212.814,205.426,212.7,205l.054.211L212.7,205s.457-.127.488-.47l.435.04C213.567,205.223,212.845,205.419,212.814,205.426Z" transform="translate(-208.795 -175.998)" fill="#d99867" fill-rule="evenodd"/>
          <path id="Path_14946" data-name="Path 14946" d="M224.871,224.3a2.657,2.657,0,0,1-1.459-.474l.226-.308a2.017,2.017,0,0,0,1.923.229l.174.341A1.923,1.923,0,0,1,224.871,224.3Z" transform="translate(-216.385 -189.452)" fill="#d99867" fill-rule="evenodd"/>
          <path id="Path_14947" data-name="Path 14947" d="M217.859,205a6.639,6.639,0,0,1-4.132-1.283l.346-.446c1.767,1.369,4.486,1.54,7.458.469a26.39,26.39,0,0,0,2.774-1.3l.266.5a27.025,27.025,0,0,1-2.849,1.331A11.474,11.474,0,0,1,217.859,205Z" transform="translate(-209.521 -174.518)" fill="#d99867"/>
        </g>
      </g>
    </g>
  </g>
</svg>
