<svg xmlns="http://www.w3.org/2000/svg" width="1939.51" height="1161.908" viewBox="0 0 1939.51 1161.908">
  <g id="Group_11699" data-name="Group 11699" transform="translate(8.807 -1162.111)">
    <g id="Group_11362" data-name="Group 11362" transform="translate(1430.319 2057.717)">
      <g id="Group_11360" data-name="Group 11360" transform="translate(0 21.697)">
        <g id="Group_11343" data-name="Group 11343" transform="translate(26.816 19.458)">
          <path id="Path_21529" data-name="Path 21529" d="M454.5,886.2c-1.667.118-2.77.408-2.873-.619a.845.845,0,0,1,.471-.844l1.8-.876a1.242,1.242,0,0,1,1.722.64A1.278,1.278,0,0,1,454.5,886.2Z" transform="translate(-451.627 -883.729)" fill="#ffd1c5"/>
        </g>
        <g id="Group_11344" data-name="Group 11344" transform="translate(2.003 15.494)">
          <path id="Path_21530" data-name="Path 21530" d="M471.507,884.144l8.17,1.363.828-4.946-4.444-.743a3.778,3.778,0,0,0-4.35,3.1Z" transform="translate(-471.507 -879.765)" fill="#dd6fa1"/>
        </g>
        <g id="Group_11345" data-name="Group 11345" transform="translate(8.709 0.217)">
          <path id="Path_21531" data-name="Path 21531" d="M472.068,867.4c-2-1.752.137-3.849,1.731-2.455Z" transform="translate(-471.256 -864.488)" fill="#ed7cb7"/>
        </g>
        <g id="Group_11346" data-name="Group 11346" transform="translate(3.593 0.387)">
          <path id="Path_21532" data-name="Path 21532" d="M478.881,864.872l0-.031c-1.766-.826-5.072,1.178-5.576,5.517l3.934,5.509c-.613-6.648,1.672-8.879,1.672-8.879l-.286-.206A1.468,1.468,0,0,1,478.881,864.872Z" transform="translate(-473.309 -864.659)" fill="#f4ba5b"/>
        </g>
        <g id="Group_11347" data-name="Group 11347" transform="translate(13.453 54.254)">
          <path id="Path_21533" data-name="Path 21533" d="M464.834,918.525a9.449,9.449,0,0,1-2.594.045,3.294,3.294,0,0,0-.72,2.5l7.535.026C468.141,918.525,465.545,918.725,464.834,918.525Z" transform="translate(-461.471 -918.525)" fill="#8a8d93"/>
        </g>
        <g id="Group_11348" data-name="Group 11348" transform="translate(11.208 8.663)">
          <path id="Path_21534" data-name="Path 21534" d="M470.618,874.3l.682,3.643s-2.534.884-4.233-2.16l.757-2.849Z" transform="translate(-467.067 -872.934)" fill="#ffd1c5"/>
        </g>
        <g id="Group_11349" data-name="Group 11349" transform="translate(0 49.672)">
          <path id="Path_21535" data-name="Path 21535" d="M481.478,915.9a7.371,7.371,0,0,1-1.822-1.96,3.173,3.173,0,0,0-2.3,1.279l4.868,5.246A4.9,4.9,0,0,0,481.478,915.9Z" transform="translate(-477.353 -913.943)" fill="#8a8d93"/>
        </g>
        <g id="Group_11350" data-name="Group 11350" transform="translate(12.302 3.679)">
          <path id="Path_21536" data-name="Path 21536" d="M464.864,868.647l.029,5.41c4.976,3.251,6.267-2.786,4.661-6.107Z" transform="translate(-464.864 -867.95)" fill="#ffd1c5"/>
        </g>
        <g id="Group_11351" data-name="Group 11351" transform="translate(8.722)">
          <path id="Path_21537" data-name="Path 21537" d="M473.786,867.883l-1.813.268-1.4-1.052-.085,1.272-1.855.275.033,5.409c-2.6-.7-4.982-5.078-2.694-8.037C467.828,863.627,472.256,863.2,473.786,867.883Z" transform="translate(-465.053 -864.271)" fill="#f4ba5b"/>
        </g>
        <g id="Group_11352" data-name="Group 11352" transform="translate(14.159 2.828)">
          <path id="Path_21538" data-name="Path 21538" d="M468.349,868.151l-1.483.219.085-1.271Z" transform="translate(-466.866 -867.099)" fill="#ffd1c5"/>
        </g>
        <g id="Group_11353" data-name="Group 11353" transform="translate(2.293 27.744)">
          <path id="Path_21539" data-name="Path 21539" d="M471.108,892.015c-.062,6.4,1.224,8.3,2.218,11.005-4.237,2.308-4.022,6.553-8.459,10.923a1.689,1.689,0,0,0,1.822,1.96L477.2,904.614l3.014-12.241Z" transform="translate(-464.857 -892.015)" fill="#f2d1a0"/>
        </g>
        <g id="Group_11354" data-name="Group 11354" transform="translate(8.482 27.727)">
          <path id="Path_21540" data-name="Path 21540" d="M463.82,892s-.568,6.422,5.993,12.151a18.411,18.411,0,0,0-.28,5.452c.383,2.8.1,5.378-.053,8.974a2.3,2.3,0,0,0,2.662-.05s1.947-13.15,1.883-13.938c-.049-.6-.642-11.63-.733-12.195C471.678,892.332,473.291,892.4,463.82,892Z" transform="translate(-463.807 -891.998)" fill="#ffe6bb"/>
        </g>
        <g id="Group_11355" data-name="Group 11355" transform="translate(5.875 11.512)">
          <path id="Path_21541" data-name="Path 21541" d="M475.787,882.764l-2.106-4.821-4.233-2.16c-2.088,2.649-3.211,6.175-5.333,21.524l12.518,2.184Z" transform="translate(-464.115 -875.783)" fill="#6ccbff"/>
        </g>
        <g id="Group_11356" data-name="Group 11356" transform="translate(7.582 14.555)">
          <path id="Path_21542" data-name="Path 21542" d="M474.178,882.048l.748-.45c-2.945-4.9-7.748-2.02-8.434-1.02l.72.493-.36-.246.354.254a5.475,5.475,0,0,1,3.676-1.373A4.218,4.218,0,0,1,474.178,882.048Z" transform="translate(-466.492 -878.827)" fill="#dd6fa1"/>
        </g>
        <g id="Group_11357" data-name="Group 11357" transform="translate(6.28 21.331)">
          <path id="Path_21543" data-name="Path 21543" d="M466.958,892.8c.31-.045,7.612-1.168,9.27-6.956l-.838-.24c-1.5,5.243-8.487,6.323-8.558,6.333Z" transform="translate(-466.832 -885.602)" fill="#dd6fa1"/>
        </g>
        <g id="Group_11358" data-name="Group 11358" transform="translate(11.03 15.774)">
          <path id="Path_21544" data-name="Path 21544" d="M464.72,884.233c.916.016,6.574.511,6.574.511l.184,1.5a65.538,65.538,0,0,1-6.8.9,27.5,27.5,0,0,1-8.4-2.83,2.348,2.348,0,0,1-.352-3.755C457.287,879.339,458.959,880.19,464.72,884.233Z" transform="translate(-455.149 -880.046)" fill="#8adbff"/>
        </g>
        <g id="Group_11359" data-name="Group 11359" transform="translate(1.107 19.873)">
          <path id="Path_21545" data-name="Path 21545" d="M475.5,884.144l5.906.985c-.541,2.734-1.02,5.563-1.376,7.807C473.473,891.838,474.129,892.33,475.5,884.144Z" transform="translate(-474.599 -884.144)" fill="#ed7eac"/>
        </g>
      </g>
      <g id="Group_11361" data-name="Group 11361" transform="translate(26.787 0)">
        <path id="Path_21546" data-name="Path 21546" d="M452.947,914.8l-2.484-1.29a3.713,3.713,0,0,0-1.979,2.21l7.237,3.825C455.572,916.992,452.947,914.8,452.947,914.8Z" transform="translate(-448.484 -842.574)" fill="#ff946e"/>
        <path id="Path_21547" data-name="Path 21547" d="M426.4,917.619l-2.625.115a3.8,3.8,0,0,0-.741,2.9l8.73.031C430.54,918.563,426.4,917.619,426.4,917.619Z" transform="translate(-399.01 -842.574)" fill="#ff946e"/>
        <path id="Path_21548" data-name="Path 21548" d="M440.95,888.082s-.153,6.687.636,9.891c-3.885,2.649-6.194,11.525-8.8,15.54,0,0,1.077,1.6,2.484,1.29l11.491-14.064c4.977-7.692,6.936-14.73,6.981-18.991l-5.13-.226Z" transform="translate(-430.807 -842.574)" fill="#6aa4ea"/>
        <path id="Path_21549" data-name="Path 21549" d="M425.563,868.167c2.189,4.38.621,2.03,7.326,10.721l-1.072,1.643-5.748-5.545Z" transform="translate(-402.731 -842.574)" fill="#f7d5cb"/>
        <path id="Path_21550" data-name="Path 21550" d="M440.278,846.194c-2.383-2.383.5-4.837,2.39-2.949Z" transform="translate(-426.324 -842.574)" fill="#ff946e"/>
        <path id="Path_21551" data-name="Path 21551" d="M449.484,842.979l.008-.039c-2.172-1.2-6.5,1.088-7.5,6.486l1.338,2.175,1.283-2.119-.056,4.015,1.9,3.346c.084-.378,2.474-11.1,2.55-11.477A1.855,1.855,0,0,1,449.484,842.979Z" transform="translate(-435.766 -842.574)" fill="#b2846d"/>
        <path id="Path_21552" data-name="Path 21552" d="M432.753,852.186l.023-.107,2.685-5.086h4.417l.124-.151C441.521,851.389,437.9,858.444,432.753,852.186Z" transform="translate(-417.384 -842.574)" fill="#ffd4cf"/>
        <path id="Path_21553" data-name="Path 21553" d="M442.074,846.842l-.124.151h-4.417l-2.685,5.086-.023.107c-3.24-3.928-1.391-8.418,1.3-9.234C438.332,842.278,441.173,843.964,442.074,846.842Z" transform="translate(-419.456 -842.574)" fill="#b2846d"/>
        <path id="Path_21554" data-name="Path 21554" d="M443.844,882.3a62.269,62.269,0,0,1,1.049-11.476l3.909-7.579,3.211,3.017-3.775,5.51c.564,3.123-2.423,7.926-2.776,10.8Z" transform="translate(-440.136 -842.574)" fill="#ffd4cf"/>
        <path id="Path_21555" data-name="Path 21555" d="M450.476,884.437c.978-1.9,1.349-3.19,2.5-2.638a1.047,1.047,0,0,1,.59,1.04l-.229,2.461a1.538,1.538,0,0,1-1.783,1.408A1.582,1.582,0,0,1,450.476,884.437Z" transform="translate(-448.152 -842.574)" fill="#ffd4cf"/>
        <path id="Path_21556" data-name="Path 21556" d="M424.409,882c-1.129-1.792-2.068-2.787-1.005-3.5a1.051,1.051,0,0,1,1.2.02l2.008,1.45a1.539,1.539,0,0,1,.308,2.255A1.584,1.584,0,0,1,424.409,882Z" transform="translate(-394.499 -842.574)" fill="#f7d5cb"/>
        <path id="Path_21557" data-name="Path 21557" d="M445.9,917.619c-2.9-23.22-1.258-15-7.185-36.037l-9.538-.5c-.626,2.63-1.243,4.359-.525,7h0c.767,2.818,1.63,3.271,9.521,11.593-.145,5.339,3.162,11.62,5.1,18.059C443.276,917.734,444.958,918.4,445.9,917.619Z" transform="translate(-418.51 -842.574)" fill="#7db2ff"/>
        <path id="Path_21558" data-name="Path 21558" d="M446.105,858.783l3.123,5.889-1.562,4.238,1.026,13.017-14.007-.131,2.505-14.983-1.383,1.294-.9,1.663-3.688-2.307s3.766-10.025,9.316-10.977Z" transform="translate(-424.731 -842.574)" fill="#ff6e6e"/>
        <path id="Path_21559" data-name="Path 21559" d="M438.127,854.063a5.187,5.187,0,0,1-2.783-.973h0l-1,3.4a6.76,6.76,0,0,0,5.565,2.3,12.964,12.964,0,0,1-1.428-4.713Z" transform="translate(-418.538 -842.574)" fill="#ffd4cf"/>
      </g>
    </g>
    <g id="Group_5637" data-name="Group 5637" transform="translate(601.862 1824.171)">
      <g id="background" transform="translate(870.905 -37.107)">
        <line id="Line_20" data-name="Line 20" y1="536.955" fill="#fff"/>
      </g>
      <g id="illustration" transform="translate(0 56.604)">
        <g id="Group_5636" data-name="Group 5636">
          <g id="Group_5258" data-name="Group 5258" transform="translate(654.768 187.796)">
            <g id="Group_5257" data-name="Group 5257" transform="translate(15.223 20.509)">
              <path id="Path_12620" data-name="Path 12620" d="M852.22,911.45h-3.58l1-44.945,1.785-1.936Z" transform="translate(-848.641 -864.569)" fill="#af9d9a"/>
              <path id="Path_12621" data-name="Path 12621" d="M850.835,864.569l-1.166,1.625-.847,37.614a2.216,2.216,0,0,1,2.314,2.315v5.327h1.214c0-9.891.121-1.694-.8-46.881Z" transform="translate(-848.672 -864.569)" fill="#af9d9a"/>
            </g>
            <path id="Path_12622" data-name="Path 12622" d="M845.424,862.981l-6.576,5.778,2.386.879-7.125,2.633-2.261,3.738,6.5-.068-8.133,4.777V885.1l11.3-3.5,4.956-6.079,18,3.767v-4.678l-6.908-2.962,3.735-.324-1.819-2.566L849.1,865.892h3.31l-5.94-9.287Z" transform="translate(-830.213 -842.675)" fill="#aae0a0"/>
            <path id="Path_12623" data-name="Path 12623" d="M846.473,875.652l18,3.767v-4.678l-6.908-2.962,3.735-.324-1.819-2.566L849.1,866.022h3.31l-5.544-8.667,1.776,6.916-2.135,1.13,8.353,6.72-8.981.879-7.034,6.029-8.361,1.658-.274.161v4.383l11.3-3.5Z" transform="translate(-830.213 -842.806)" fill="#9ccc92"/>
            <path id="Path_12624" data-name="Path 12624" d="M845.424,846.119l-6.576,5.778,2.386.879-7.125,2.633-2.261,3.738,6.5-.068-8.133,4.777v4.383l11.3-3.5,4.956-6.079,18,3.767v-4.678l-6.908-2.962,3.735-.324-1.819-2.566L849.1,849.03h3.31l-5.94-9.287Z" transform="translate(-830.213 -839.743)" fill="#aae0a0"/>
            <path id="Path_12625" data-name="Path 12625" d="M846.473,858.79l18,3.767v-4.678l-6.908-2.962,3.735-.324-1.819-2.566L849.1,849.16h3.31l-5.544-8.667,1.776,6.916-2.135,1.13,8.353,6.72-8.981.879-7.034,6.029-8.361,1.659-.274.161v4.383l11.3-3.5Z" transform="translate(-830.213 -839.874)" fill="#9ccc92"/>
          </g>
          <g id="Group_5259" data-name="Group 5259" transform="translate(-602.213 116.238)" opacity="0.07">
            <path id="Path_12626" data-name="Path 12626" d="M666.377,786.525v16.609H655.139v-17.32H628.575v24.6H610.131V761.735H599.913v-7.152h-24.52v6.64h-8.685v33.4l-23.675-.238V777.722H499.615v41.321l-30.261-.149v-54H448.272l-18.253,10.33v52.38L403.2,813.836V789.2h-8.174V775.408H372.186V789.2H328.43V774.386h-28.1v13.532l-11.447.021V753.713h.1v-1.33l-.1-.1v-.135L275.593,738.6l-.014.015-.012-.012L262.8,752.383v1.33h.03v24.009H247V766.994H222.181v24.321H192.344V767.5H172.15l-.053.069h-.147c-1.709,2.48.187-.051-11.278,14.914v31.513H143.3V777.573H120.839V767.356H100.915v10.728H85.781v110.77H678.99V786.43Z" transform="translate(-85.781 -738.597)" fill="#1258d6"/>
            <path id="Path_12627" data-name="Path 12627" d="M121.136,758.292a10,10,0,0,0-17.035,7.06V769.7h19.923C124.024,765.324,124.533,761.7,121.136,758.292Z" transform="translate(-88.967 -741.513)" fill="#1258d6"/>
          </g>
          <g id="Group_5260" data-name="Group 5260" transform="translate(1117.029 2)" opacity="0.15">
            <path id="Path_12628" data-name="Path 12628" d="M668.7,704.137h-9.039a89.6,89.6,0,0,0-8.048-28.837c7.756-.02,7.082.606,7.066-5.636h0l-.018-7.1h0l-.006-2.168a1.974,1.974,0,0,0-1.98-1.97c-15.542.039-14.6-.061-15.219.232a91.1,91.1,0,0,0-17.241-17.1c1.578-.629,1.246-1.985,1.228-5.269h0l-.039-7.32h0l-.011-2.168a1.976,1.976,0,0,0-1.987-1.964l-14.379.077a1.975,1.975,0,0,0-1.964,1.986l.01,1.834h0l.013,2.617a89.59,89.59,0,0,0-27.235-7.485v-9.467a1.976,1.976,0,0,0-1.975-1.976H563.5a1.976,1.976,0,0,0-1.975,1.976v9.3a89.6,89.6,0,0,0-27.379,6.976l-.016-2.689h0l-.01-1.635a1.976,1.976,0,0,0-1.988-1.964l-14.379.088a1.976,1.976,0,0,0-1.964,1.988l.013,2.167h0l.045,7.4h0c.021,3.434-.157,4.018.648,4.772a91.054,91.054,0,0,0-17.508,16.89c-.342-.069-14.429.005-14.783.007a1.974,1.974,0,0,0-1.969,1.982l.006,1.834h0l.024,7.437h0v.3h0c.019,5.883-.354,5.322,6.164,5.3a89.6,89.6,0,0,0-8.3,28.7h-8.351a1.976,1.976,0,0,0-1.975,1.975v12.914a1.976,1.976,0,0,0,1.975,1.976h7.987a89.653,89.653,0,0,0,6.955,28.819l-2.912-.008a1.976,1.976,0,0,0-1.982,1.97l0,1.833h0c0,.042,0,.293,0,.334h0l-.021,7.1h0l-.011,3.641a1.976,1.976,0,0,0,1.97,1.982l12.422.036a91.082,91.082,0,0,0,18.858,19.533l0,1.323h0l.017,7.1h0l.008,3.642a1.976,1.976,0,0,0,1.98,1.971l14.38-.033a1.976,1.976,0,0,0,1.97-1.98l0-1.136a89.777,89.777,0,0,0,9.965,3.726c-1.166,4.291-1,3.692-1.6,5.893h0l-1.252,4.614h0l-2.923,10.765h0l-.557,2.051h-5.5v6.535h3.723l-.615,1.891h.1l-1.122,4.133h0l-1.252,4.613h0l-1.879,6.921h-.209l-.626,3.076h0l-2.309,8.506H499.39v9.11H642.1v-9.11H613l.054-.014c-2.759-9.976-2.168-7.618-2.986-11.567h-.213l-1.913-6.921h0c-1.631-5.9-1.156-4.178-2.126-7.689h0L605,829.828h2.611v-6.535h-4.42l-.567-2.051h0l-2.126-7.689h0l-2.127-7.689h0c-.65-2.35-.308-1.112-1.661-6.007a89.548,89.548,0,0,0,9.616-3.625v1.619a1.974,1.974,0,0,0,1.975,1.974l14.38,0a1.975,1.975,0,0,0,1.975-1.976V794.42h0l0-7.32h0v-1.749a91.1,91.1,0,0,0,18.3-18.773c16.721,0,15.267,1.4,15.269-5.4h0c0-12.7,1.052-11.463-5.6-11.466A89.611,89.611,0,0,0,659.856,721H668.7a1.976,1.976,0,0,0,1.976-1.976V706.113A1.976,1.976,0,0,0,668.7,704.137Zm-11.209,0c-5.89,0-5.146-.651-5.146,8.4H633.809a63.845,63.845,0,0,0-1.476-12.662l12.733-24.563,4.17-.01A87.486,87.486,0,0,1,657.494,704.137ZM588.8,791.253h0l1.276,4.614h0c.567,2.047.357,1.289.925,3.341a87.54,87.54,0,0,1-12.045,2.1c0-4.851.541-6.347-2.7-6.347l9.521-14.665C587.442,786.333,588.027,788.447,588.8,791.253Zm-37.571,0h0l.835-3.076h0l1.252-4.614h0l.626-2.306h0l.24-.881,9.33,14.587H562.6a1.975,1.975,0,0,0-1.975,1.975v4.36a87.509,87.509,0,0,1-11.58-2Zm36.5-78.711a17.779,17.779,0,0,0-1.86-6.93l30.454-17.583a52.727,52.727,0,0,1,6.568,24.513Zm-3.754,61.253a61.725,61.725,0,0,1-13.054,1.622v-6.595a55.133,55.133,0,0,0,11.3-1.387l1.7,6.133h0Zm-9.631-34.829h0l1.276,4.613h0l2.126,7.689h0l.85,3.076h0l3.045,11.012a52.977,52.977,0,0,1-10.72,1.31V731.505c.446-.027.888-.072,1.325-.131l.185.669h0C572.815,733.433,573.895,737.336,574.345,738.965Zm-14.972,22.3.626-2.307h0l1.252-4.613h0l.834-3.076h0l5.4-19.888c.422.056.849.1,1.28.126v35.161a52.945,52.945,0,0,1-10.517-1.263l1.123-4.139Zm3.005-31.36-.581,2.14h0c-3.357,12.366-2.874,10.587-3.966,14.611h0l-1.252,4.613h0c-.63,2.321-.158.582-2.088,7.689h0l-.626,2.307h0l-.738,2.717a52.778,52.778,0,0,1-8.874-3.883l17.583-30.455Q562.1,729.779,562.378,729.9Zm-6.345,43.663,1.651-6.084a55.032,55.032,0,0,0,11.082,1.338v6.595a61.676,61.676,0,0,1-12.81-1.566l.077-.283Zm30.734-9.656-.732-2.647h0c-.242-.874-1.674-6.051-1.914-6.92h0l-6.168-22.3h0l-.6-2.16c.167-.078.332-.157.5-.24L595.435,760.1A52.881,52.881,0,0,1,586.767,763.911Zm-1.978-60.166a18.06,18.06,0,0,0-5.072-5.072L597.3,668.215a53.477,53.477,0,0,1,17.946,17.946Zm-6.938-6.152a17.775,17.775,0,0,0-6.93-1.86V660.572a52.72,52.72,0,0,1,24.513,6.568Zm-9.086-1.86a17.775,17.775,0,0,0-6.93,1.86l-17.583-30.454a52.728,52.728,0,0,1,24.513-6.568Zm-8.8,2.94a18.061,18.061,0,0,0-5.072,5.072L524.44,686.16a53.478,53.478,0,0,1,17.946-17.946Zm-6.152,6.938a17.8,17.8,0,0,0-1.86,6.93H516.8a52.722,52.722,0,0,1,6.568-24.513Zm-1.86,9.085a17.792,17.792,0,0,0,1.86,6.93L523.364,739.21A52.716,52.716,0,0,1,516.8,714.7Zm2.94,8.8a18.074,18.074,0,0,0,5.072,5.073l-17.585,30.458a53.478,53.478,0,0,1-17.946-17.946Zm-2.337,42.573-1.481,5.458-5.219-8.16A54.8,54.8,0,0,0,552.561,766.065Zm2.636,10.578h0l.188-.692a63.877,63.877,0,0,0,13.38,1.634v17.379h-2.692l-11.128-17.4Zm15.724,18.321V777.585a63.867,63.867,0,0,0,13.633-1.7l.208.754h0l.244.88-11.323,17.441Zm17.24-26.01h0l-.819-2.962a54.866,54.866,0,0,0,7.042-2.913l-5.5,8.476Zm-8.444-40.388a18.064,18.064,0,0,0,5.072-5.073l30.459,17.585A53.477,53.477,0,0,1,597.3,759.023Zm6.152-6.938a17.776,17.776,0,0,0,1.86-6.93h35.162a52.722,52.722,0,0,1-6.568,24.513Zm32.32-34.676,5.708-3.3a61.418,61.418,0,0,1,6.15,15.95l-5.141,9.917A54.835,54.835,0,0,0,618.189,686.951Zm7.58-4.376,14.73-8.5a2.022,2.022,0,0,0,2.135,1.253L631.55,696.706A63.6,63.6,0,0,0,625.769,682.575Zm14.581-12.567h0l0,1.657L624.69,680.71a64.436,64.436,0,0,0-9.4-12.081l25.063,1.142Zm-17.528,11.78-5.708,3.3A55.647,55.647,0,0,0,600.9,667.974l11.128.506A62.266,62.266,0,0,1,622.822,681.788Zm-24.079-16.069,2.932-5.078a62.138,62.138,0,0,1,7.792,5.566Zm-1.866-1.077-5.818-9.1a61.512,61.512,0,0,1,8.749,4.021Zm-3.049-.767a54.872,54.872,0,0,0-22.906-5.459v-6.594a61.563,61.563,0,0,1,16.887,2.643Zm-22.906-14.222V629.282h.779l14.354,22.441A63.827,63.827,0,0,0,570.922,649.653Zm-2.155-20.371v20.371a63.839,63.839,0,0,0-15.133,2.069l14.354-22.441Zm0,22.541v6.594a54.878,54.878,0,0,0-22.907,5.459l6.019-9.409A61.537,61.537,0,0,1,568.766,651.822Zm-25.955,12.819-2.93-5.075a61.52,61.52,0,0,1,8.748-4.021Zm-1.866,1.078-10.724.488a62.126,62.126,0,0,1,7.792-5.566Zm-2.155,2.255a55.66,55.66,0,0,0-16.216,17.109l-5.708-3.3a62.268,62.268,0,0,1,10.795-13.307ZM515,680.71,500.6,672.4l-.009-2.686,23.806-1.084A64.434,64.434,0,0,0,515,680.71Zm-15.455-6.435,14.376,8.3a63.6,63.6,0,0,0-5.781,14.131l-11.5-22.192C498.4,674.509,498.886,674.62,499.543,674.274Zm16.249,9.381,5.708,3.3a54.823,54.823,0,0,0-6.717,22.572l-5.141-9.917A61.389,61.389,0,0,1,515.791,683.656Zm-1.873,28.886h-5.871a61.811,61.811,0,0,1,.909-9.572Zm0,2.155-4.962,9.572a61.8,61.8,0,0,1-.909-9.572Zm.863,3.019a54.824,54.824,0,0,0,6.717,22.572l-5.708,3.3a61.373,61.373,0,0,1-6.15-15.951Zm-.863,26.948-13.768,7.949c0-1.357.287-3.242-1.586-3.612l9.573-18.469A63.6,63.6,0,0,0,513.918,744.664ZM500.143,755.1,515,746.529a64.38,64.38,0,0,0,9.4,12.079l-24.264-1.1Zm16.723-9.655,5.708-3.3a55.663,55.663,0,0,0,16.215,17.109l-11.128-.506A62.217,62.217,0,0,1,516.866,745.45Zm24.079,16.069-2.932,5.078a62.2,62.2,0,0,1-7.793-5.566Zm1.866,1.077,5.819,9.1a61.569,61.569,0,0,1-8.749-4.021Zm54.249.318,2.748,4.758a61.476,61.476,0,0,1-8.344,3.861Zm1.866-1.078,10.229-.535a62.055,62.055,0,0,1-7.479,5.3Zm1.469-2.234a55.654,55.654,0,0,0,16.719-17.447l5.708,3.3a62.255,62.255,0,0,1-11.057,13.556Zm24.3-13.072,15.207,8.779v2.229l-24.83,1.3A64.4,64.4,0,0,0,624.69,746.529ZM639.9,752.82l-14.127-8.156a63.606,63.606,0,0,0,5.78-14.132l9.962,19.217C639.684,750.087,639.9,751.924,639.9,752.82Zm-16-9.238-5.708-3.3a54.822,54.822,0,0,0,6.717-22.572l5.141,9.916A61.4,61.4,0,0,1,623.9,743.582Zm1.872-28.886h5.872a61.922,61.922,0,0,1-.909,9.572Zm0-2.155,4.963-9.572a61.931,61.931,0,0,1,.909,9.572Zm14.559-51.82.005,1.886h0l.012,5.005-27.413-1.248a64.375,64.375,0,0,0-10.177-7.591l9.826-17.02,8.215-.044A88.918,88.918,0,0,1,640.327,660.721Zm-33.212-24.259h0l.017,3.345a1.976,1.976,0,0,0,1.986,1.964l.965-.005-9.2,15.927a63.651,63.651,0,0,0-11.692-5.06l-14.937-23.352h3.617a1.976,1.976,0,0,0,1.975-1.975V626.03a87.447,87.447,0,0,1,27.248,7.7Zm-45.594-10.609v1.453a1.976,1.976,0,0,0,1.975,1.975h1.932l-14.938,23.352a63.679,63.679,0,0,0-11.692,5.06l-9.487-16.433,2.919-.017a1.975,1.975,0,0,0,1.964-1.988l-.021-3.426h0l-.017-2.817A87.471,87.471,0,0,1,561.521,625.854Zm-42.067,15.467,7.378-.045,10.1,17.5a64.438,64.438,0,0,0-10.177,7.592l-26.169,1.191-.019-5.776h0c0-.349.016-2.258-.05-2.568A88.926,88.926,0,0,1,519.454,641.321Zm-28.617,33.213,3.373-.012,13.145,25.357a63.863,63.863,0,0,0-1.477,12.662H488.131c0-10.307.93-9.3-5.835-9.3A87.441,87.441,0,0,1,490.837,674.534Zm-8.915,45.575c6.686,0,6.209.505,6.209-5.412h17.746a63.871,63.871,0,0,0,1.477,12.663l-11.2,21.6-7.086-.021A87.476,87.476,0,0,1,481.922,720.108Zm16.846,45.606c1.693-.569,1.35-2.025,1.36-5.5h0l0-.552,26.626,1.211a64.382,64.382,0,0,0,10.178,7.593l-8.1,14.036c-13.108.031-12.43-.161-13.2.592A88.919,88.919,0,0,1,498.768,765.714Zm34.62,28.169v-.145h0l-.017-7.637h0c0-1.056.346-3.608-2.047-3.605l7.476-12.951a63.678,63.678,0,0,0,11.464,4.986l-.573,2.113h0l-1.252,4.614h0l-.626,2.306h0l-2.088,7.689h0l-1.8,6.636A87.682,87.682,0,0,1,533.388,793.883Zm-.506,65.084,4.17-15.426h0l.832-3.076h0l1.247-4.613h0l.831-3.076h0l.286-1.057h.019l.615-1.891h26.561v29.139Zm70.362-15.426h0c1.01,3.668,2,7.244,3.176,11.534h0c.715,2.6.516,1.871,1.071,3.892H571.7V829.828h27.771l.521,1.891h0l1.138,4.133h0l1.27,4.613h0ZM592.2,803.556h0c.088.321,1.818,6.576,1.914,6.92h0l.85,3.076h0l1.276,4.614h0l1.418,5.127H542.533l.557-2.051h0l.835-3.076h0l1.252-4.614h0c.368-1.355,2.868-10.564,3.305-12.175a89.836,89.836,0,0,0,12.145,2.092v6.384a1.976,1.976,0,0,0,1.975,1.976c19.135,0,16.355,1.871,16.355-8.351a89.732,89.732,0,0,0,12.619-2.192Zm3.4-7.689h0c-2.094-7.571-1.7-6.15-2.126-7.689h0c-.675-2.439-1.247-4.507-1.914-6.92h0l-1.276-4.614h0l-.607-2.2a63.571,63.571,0,0,0,11.207-4.9l7.746,13.416c-2.711,0-2.311,2.173-2.311,3.809h0v7.1a87.406,87.406,0,0,1-10.191,3.905Zm18.314-8.063h0Zm9.869-4.5c-.776-.529-.559-.343-12.666-.34l-8.368-14.494a64.379,64.379,0,0,0,9.9-7.347l27.236-1.423v1.56h0c0,3.526-.19,4.112.727,4.866A88.9,88.9,0,0,1,623.788,783.3Zm26.484-33.585-6.351,0-11.588-22.354a63.852,63.852,0,0,0,1.476-12.663h18.539c0,6.863-.492,6.306,5.345,6.306A87.479,87.479,0,0,1,650.272,749.714Z" transform="translate(-469.801 -612.417)" fill="#1258d6"/>
          </g>
          <path id="Path_12633" data-name="Path 12633" d="M345.641,910.671a13.63,13.63,0,0,1,22.3-7.5,12.159,12.159,0,0,1,18.032,8.005c4.886-5.961,15.9-2.738,15.9,6.132H327.906C327.906,905.694,340.74,904.694,345.641,910.671Z" transform="translate(578.902 -662.391)" fill="#80c16b"/>
          <path id="Path_12634" data-name="Path 12634" d="M130.51,910.5a13.63,13.63,0,0,0-22.3-7.5A12.158,12.158,0,0,0,90.176,911c-4.887-5.961-15.9-2.738-15.9,6.132h73.965C148.244,905.52,135.41,904.52,130.51,910.5Z" transform="translate(-43.994 -662.361)" fill="#80c16b"/>
          <path id="Path_12635" data-name="Path 12635" d="M798.551,910.546a13.629,13.629,0,0,1,22.3-7.5,12.158,12.158,0,0,1,18.032,8.005c4.886-5.961,15.9-2.738,15.9,6.132H780.816C780.816,905.569,793.65,904.569,798.551,910.546Z" transform="translate(-166.855 -662.369)" fill="#80c16b"/>
          <path id="Path_12636" data-name="Path 12636" d="M589.944,917.321a5.64,5.64,0,0,0-8.455-3.57,7.021,7.021,0,0,0-13.524-.424,5.614,5.614,0,0,0-3.731-.178,6.609,6.609,0,0,0-10.847-3.476,6.606,6.606,0,0,0-10.172-2.715,8.182,8.182,0,0,0-15.221-2.934,10.537,10.537,0,0,0-9.387,2.326,9.432,9.432,0,0,0-13.992,6.212c-3.793-4.625-12.336-2.124-12.336,4.758Z" transform="translate(550.319 -662.404)" fill="#80c16b"/>
          <g id="Group_5419" data-name="Group 5419" transform="translate(1016.521 -632.84)">
            <path id="Path_12724" data-name="Path 12724" d="M1017.439,721.524l-1.1,5.579-.309-.019,1.1-5.593Z" transform="translate(-993.278 -658.544)" fill="#c6c6c6" fill-rule="evenodd"/>
            <path id="Path_12725" data-name="Path 12725" d="M997.657,695.027l13.892,34.446.195-.078-13.892-34.446Z" transform="translate(-990.083 -653.929)" fill="#7ac6e5" fill-rule="evenodd"/>
            <path id="Path_12726" data-name="Path 12726" d="M1008.954,711.247l6.933,9.761.172-.121-6.933-9.761Z" transform="translate(-992.047 -656.742)" fill="#7ac6e5" fill-rule="evenodd"/>
            <rect id="Rectangle_4953" data-name="Rectangle 4953" width="3.105" height="1.26" rx="0.191" transform="translate(24.713 61.594)" fill="#86cfef"/>
            <path id="Path_12727" data-name="Path 12727" d="M1030.144,711.247l-6.933,9.761-.172-.121,6.933-9.761Z" transform="translate(-994.497 -656.742)" fill="#a2daf9" fill-rule="evenodd"/>
            <path id="Path_12728" data-name="Path 12728" d="M1039.971,695.027l-13.892,34.446-.195-.078,13.892-34.446Z" transform="translate(-994.991 -653.929)" fill="#a2daf9" fill-rule="evenodd"/>
            <path id="Path_12729" data-name="Path 12729" d="M994.283,652.228a20.469,20.469,0,0,0-5.51,17.9c1.717,10.826,13.608,25.1,19.922,34.318h12.141c6.315-9.215,18.2-23.491,19.922-34.318a20.472,20.472,0,0,0-5.509-17.9C1026.014,643.006,1003.518,643.005,994.283,652.228Z" transform="translate(-988.488 -645.297)" fill="#86cfef" fill-rule="evenodd"/>
            <path id="Path_12730" data-name="Path 12730" d="M1002.864,652.225c-2.895,4.314-4.45,10.773-3.693,17.9,1.151,10.826,9.12,25.1,13.351,34.318h8.136c4.232-9.215,12.2-23.491,13.351-34.318C1036.89,643.021,1011.17,639.847,1002.864,652.225Z" transform="translate(-990.313 -645.294)" fill="#ededed" fill-rule="evenodd"/>
            <path id="Path_12731" data-name="Path 12731" d="M1013.475,652.228a64.63,64.63,0,0,0-1.445,17.9c.45,10.826,3.568,25.1,5.224,34.318h3.184c1.656-9.215,4.773-23.491,5.223-34.318a64.6,64.6,0,0,0-1.445-17.9C1021.8,643.006,1015.9,643.005,1013.475,652.228Z" transform="translate(-992.569 -645.297)" fill="#86cfef" fill-rule="evenodd"/>
            <path id="Path_12732" data-name="Path 12732" d="M1021.889,704.45h2.476c4.232-9.215,12.2-23.491,13.351-34.318,1.358-12.774-4.292-24.821-17.418-24.821,2.08,0,4.16,2.306,5.37,6.917a64.592,64.592,0,0,1,1.445,17.9C1026.662,680.958,1023.544,695.234,1021.889,704.45Z" transform="translate(-994.02 -645.297)" fill="#f9f9f9" fill-rule="evenodd"/>
            <path id="Path_12733" data-name="Path 12733" d="M1020.32,704.28V645.311c2.074,0,4.149,2.3,5.356,6.9a59.2,59.2,0,0,1,1.515,14.254c0,1.175-.024,2.378-.074,3.6-.449,10.8-3.558,25.03-5.209,34.219Z" transform="translate(-994.024 -645.297)" fill="#a2daf9" fill-rule="evenodd"/>
            <path id="Path_12734" data-name="Path 12734" d="M1024.365,704.45h2c6.315-9.215,18.205-23.491,19.922-34.318a20.471,20.471,0,0,0-5.51-17.9c-4.617-4.611-12.55-6.917-20.482-6.917,13.127,0,18.775,12.058,17.418,24.821C1036.565,680.958,1028.6,695.234,1024.365,704.45Z" transform="translate(-994.02 -645.297)" fill="#a2daf9" fill-rule="evenodd"/>
            <path id="Path_12735" data-name="Path 12735" d="M1008.954,711.273h18.741l-3.3,4.647h-12.14Z" transform="translate(-992.047 -656.767)" fill="#7ac6e5" fill-rule="evenodd"/>
            <path id="Path_12736" data-name="Path 12736" d="M1020.321,711.273h9.351l-3.3,4.647h-6.051Z" transform="translate(-994.024 -656.767)" fill="#86cfef" fill-rule="evenodd"/>
            <path id="Path_12737" data-name="Path 12737" d="M1022.857,721.524l1.1,5.579.309-.019-1.1-5.593Z" transform="translate(-994.465 -658.544)" fill="#dddcdb" fill-rule="evenodd"/>
            <path id="Path_12738" data-name="Path 12738" d="M1015.759,728.245h7.042a.071.071,0,0,1,.07.065l1.234,6.9a.07.07,0,0,1-.057.081l-.012,0h-9.513a.07.07,0,0,1-.07-.07.063.063,0,0,1,0-.018l1.234-6.9a.069.069,0,0,1,.069-.058Z" transform="translate(-993.004 -659.718)" fill="#86cfef" fill-rule="evenodd"/>
            <path id="Path_12739" data-name="Path 12739" d="M1020.32,721.113v-1.26h1.365a.158.158,0,0,1,.157.157v.946a.157.157,0,0,1-.157.157Z" transform="translate(-994.024 -658.259)" fill="#a2daf9" fill-rule="evenodd"/>
            <path id="Path_12740" data-name="Path 12740" d="M1017.554,721.205h4.331a.285.285,0,0,1,.262.262l.309,1.572c.027.141-.118.263-.262.263h-4.949c-.144,0-.289-.121-.261-.263l.308-1.572A.285.285,0,0,1,1017.554,721.205Z" transform="translate(-993.443 -658.494)" fill="#c6c6c6" fill-rule="evenodd"/>
            <path id="Path_12741" data-name="Path 12741" d="M1020.32,723.3v-2.1h2.146a.285.285,0,0,1,.262.262l.309,1.572c.027.141-.118.263-.262.263Z" transform="translate(-994.024 -658.494)" fill="#dddcdb" fill-rule="evenodd"/>
            <path id="Path_12742" data-name="Path 12742" d="M1020.32,735.293v-7.048h3.5a.071.071,0,0,1,.07.065l1.234,6.9a.07.07,0,0,1-.057.081l-.012,0h-4.737Z" transform="translate(-994.024 -659.718)" fill="#a2daf9" fill-rule="evenodd"/>
            <path id="Path_12743" data-name="Path 12743" d="M1021.439,728.245l.493,7.047h-4.143l.493-7.047Z" transform="translate(-993.584 -659.718)" fill="#7ac6e5" fill-rule="evenodd"/>
            <path id="Path_12744" data-name="Path 12744" d="M1020.321,735.293v-7.047h1.558l.493,7.047Z" transform="translate(-994.024 -659.718)" fill="#86cfef" fill-rule="evenodd"/>
          </g>
          <path id="Path_12745" data-name="Path 12745" d="M747.1,708.751l1.855-.012a9.9,9.9,0,0,1,9.638-13.3,14.361,14.361,0,1,1,27.273,8.5,5.777,5.777,0,0,1,8,4.513l1.958-.012a7.366,7.366,0,1,1,14.639-.093l1.846-.011a3.245,3.245,0,1,1,.041,6.49c-.4,0-9.6.1-10,.063-37.965.24-44.872.331-44.046.326,0,0,.579-.051-11.164.023a3.245,3.245,0,0,1-.041-6.49Z" transform="translate(437.568 -1322.849)" fill="#ebfaff" opacity="0.6"/>
          <g id="Group_5513" data-name="Group 5513" transform="translate(111.251 104.239)">
            <g id="Group_5510" data-name="Group 5510" transform="translate(851 1)">
              <path id="Path_12746" data-name="Path 12746" d="M299.44,908.576H190.92l7.751-24.687h93.017Z" transform="translate(-175.528 -763.862)" fill="#ed4f4f"/>
              <rect id="Rectangle_4954" data-name="Rectangle 4954" width="7.728" height="54.404" transform="translate(65.23 65.623)" fill="#dbdbdb"/>
              <rect id="Rectangle_4955" data-name="Rectangle 4955" width="0.914" height="36.36" transform="translate(30.152 65.623)" fill="#ff6161"/>
              <rect id="Rectangle_4956" data-name="Rectangle 4956" width="0.914" height="36.36" transform="translate(29.369 65.623)" fill="#ed4f4f"/>
              <rect id="Rectangle_4957" data-name="Rectangle 4957" width="0.922" height="36.36" transform="translate(103.705 65.623)" fill="#ff6161"/>
              <rect id="Rectangle_4958" data-name="Rectangle 4958" width="0.922" height="36.36" transform="translate(102.764 65.623)" fill="#ed4f4f"/>
              <rect id="Rectangle_4959" data-name="Rectangle 4959" width="3.864" height="54.404" transform="translate(69.094 65.622)" fill="#edebeb"/>
              <path id="Path_12747" data-name="Path 12747" d="M247.4,908.576h61.86l-7.751-24.687H254.6Z" transform="translate(-185.35 -763.862)" fill="#ff6161"/>
              <g id="Group_5451" data-name="Group 5451" transform="translate(22.767 88.817)">
                <g id="Group_5450" data-name="Group 5450">
                  <g id="Group_5421" data-name="Group 5421" transform="translate(1.899)">
                    <g id="Group_5420" data-name="Group 5420">
                      <path id="Path_12748" data-name="Path 12748" d="M202.146,848.084h3.425a7.805,7.805,0,0,1,7.805,7.806v1.882l1.974.008v-1.89a9.791,9.791,0,0,0-9.779-9.78h-3.425Z" transform="translate(-202.146 -846.11)" fill="#efb848"/>
                    </g>
                  </g>
                  <g id="Group_5423" data-name="Group 5423" transform="translate(24.231 9.468)">
                    <g id="Group_5422" data-name="Group 5422">
                      <path id="Path_12749" data-name="Path 12749" d="M229.178,857.571h2.532a2.357,2.357,0,0,1,2.357,2.357v3.759h-3.86Z" transform="translate(-229.178 -857.571)" fill="#efb848"/>
                    </g>
                  </g>
                  <g id="Group_5425" data-name="Group 5425" transform="translate(2.185 1.974)">
                    <g id="Group_5424" data-name="Group 5424">
                      <path id="Path_12750" data-name="Path 12750" d="M214.376,855.994h-.662a7.805,7.805,0,0,0-7.8-7.494h-3.424v6.695a2,2,0,1,0,4.01,0v-1.388a1.6,1.6,0,0,1,1.6,1.6v.582h-.027v10.585c0,3.5,5.3,3.507,5.3,0V864.7h8.177v1.879a2.779,2.779,0,0,0,5.551,0V855.994Z" transform="translate(-202.492 -848.5)" fill="#efb848"/>
                    </g>
                  </g>
                  <g id="Group_5427" data-name="Group 5427" transform="translate(1.766 8.102)">
                    <g id="Group_5426" data-name="Group 5426">
                      <rect id="Rectangle_4960" data-name="Rectangle 4960" width="2.189" height="2.573" fill="#efb848"/>
                    </g>
                  </g>
                  <g id="Group_5429" data-name="Group 5429" transform="translate(8 17.096)">
                    <g id="Group_5428" data-name="Group 5428">
                      <rect id="Rectangle_4961" data-name="Rectangle 4961" width="2.231" height="5.608" fill="#efb848"/>
                    </g>
                  </g>
                  <g id="Group_5431" data-name="Group 5431" transform="translate(21.705 17.096)">
                    <g id="Group_5430" data-name="Group 5430">
                      <rect id="Rectangle_4962" data-name="Rectangle 4962" width="2.231" height="5.608" fill="#efb848"/>
                    </g>
                  </g>
                  <g id="Group_5433" data-name="Group 5433">
                    <g id="Group_5432" data-name="Group 5432">
                      <path id="Path_12751" data-name="Path 12751" d="M199.847,848.084h3.425a7.805,7.805,0,0,1,7.805,7.806v1.882l1.974.008v-1.89a9.791,9.791,0,0,0-9.779-9.78h-3.425Z" transform="translate(-199.847 -846.11)" fill="#f9bd5f"/>
                    </g>
                  </g>
                  <g id="Group_5435" data-name="Group 5435" transform="translate(22.56 9.468)">
                    <g id="Group_5434" data-name="Group 5434">
                      <path id="Path_12752" data-name="Path 12752" d="M227.156,857.571h2.533a2.357,2.357,0,0,1,2.357,2.357v3.759h-3.86Z" transform="translate(-227.156 -857.571)" fill="#f9bd5f"/>
                    </g>
                  </g>
                  <g id="Group_5437" data-name="Group 5437" transform="translate(0 1.974)">
                    <g id="Group_5436" data-name="Group 5436">
                      <path id="Path_12753" data-name="Path 12753" d="M218.169,855.994h-7.1a7.805,7.805,0,0,0-7.8-7.494h-3.425v6.695a2.005,2.005,0,1,0,4.011,0v-1.388a1.6,1.6,0,0,1,1.6,1.6v.582h-.027v10.585c0,3.5,5.3,3.507,5.3,0V864.7h8.177v1.879a2.779,2.779,0,0,0,5.551,0V855.994Z" transform="translate(-199.847 -848.5)" fill="#ffce61"/>
                    </g>
                  </g>
                  <g id="Group_5439" data-name="Group 5439" transform="translate(11.577 9.468)">
                    <g id="Group_5438" data-name="Group 5438">
                      <rect id="Rectangle_4963" data-name="Rectangle 4963" width="7.512" height="4.812" fill="#fc7575"/>
                    </g>
                  </g>
                  <g id="Group_5441" data-name="Group 5441" transform="translate(11.216 9.468)">
                    <g id="Group_5440" data-name="Group 5440">
                      <rect id="Rectangle_4964" data-name="Rectangle 4964" width="0.573" height="4.812" fill="#ed4f4f"/>
                    </g>
                  </g>
                  <g id="Group_5443" data-name="Group 5443" transform="translate(12.096 14.033)">
                    <g id="Group_5442" data-name="Group 5442">
                      <rect id="Rectangle_4965" data-name="Rectangle 4965" width="0.577" height="1.12" fill="#fc7575"/>
                    </g>
                  </g>
                  <g id="Group_5445" data-name="Group 5445" transform="translate(14.068 14.033)">
                    <g id="Group_5444" data-name="Group 5444">
                      <rect id="Rectangle_4966" data-name="Rectangle 4966" width="0.577" height="1.12" fill="#fc7575"/>
                    </g>
                  </g>
                  <g id="Group_5447" data-name="Group 5447" transform="translate(16.04 14.033)">
                    <g id="Group_5446" data-name="Group 5446">
                      <rect id="Rectangle_4967" data-name="Rectangle 4967" width="0.577" height="1.12" fill="#fc7575"/>
                    </g>
                  </g>
                  <g id="Group_5449" data-name="Group 5449" transform="translate(18.011 14.033)">
                    <g id="Group_5448" data-name="Group 5448">
                      <rect id="Rectangle_4968" data-name="Rectangle 4968" width="0.577" height="1.12" fill="#fc7575"/>
                    </g>
                  </g>
                </g>
              </g>
              <g id="Group_5481" data-name="Group 5481" transform="translate(94.75 88.817)">
                <g id="Group_5453" data-name="Group 5453" transform="translate(0 0)">
                  <g id="Group_5452" data-name="Group 5452">
                    <rect id="Rectangle_4969" data-name="Rectangle 4969" width="2.283" height="2.283" fill="#efb848"/>
                  </g>
                </g>
                <g id="Group_5480" data-name="Group 5480">
                  <g id="Group_5455" data-name="Group 5455" transform="translate(0 1.974)">
                    <g id="Group_5454" data-name="Group 5454">
                      <path id="Path_12754" data-name="Path 12754" d="M298.206,855.994a7.805,7.805,0,0,0-7.8-7.494h-3.425v6.695a2.005,2.005,0,1,0,4.011,0v-1.388a1.6,1.6,0,0,1,1.6,1.6v.582h-.027v10.585c0,3.5,5.3,3.507,5.3,0V864.7h8.177v1.879a2.778,2.778,0,0,0,5.551,0V855.994Z" transform="translate(-286.983 -848.5)" fill="#efb848"/>
                    </g>
                  </g>
                  <g id="Group_5457" data-name="Group 5457" transform="translate(2.006 8.102)">
                    <g id="Group_5456" data-name="Group 5456">
                      <rect id="Rectangle_4970" data-name="Rectangle 4970" width="2.189" height="2.573" fill="#efb848"/>
                    </g>
                  </g>
                  <g id="Group_5459" data-name="Group 5459" transform="translate(8.239 17.096)">
                    <g id="Group_5458" data-name="Group 5458">
                      <rect id="Rectangle_4971" data-name="Rectangle 4971" width="2.231" height="5.608" fill="#efb848"/>
                    </g>
                  </g>
                  <g id="Group_5461" data-name="Group 5461" transform="translate(21.945 17.096)">
                    <g id="Group_5460" data-name="Group 5460">
                      <rect id="Rectangle_4972" data-name="Rectangle 4972" width="2.231" height="5.608" fill="#efb848"/>
                    </g>
                  </g>
                  <g id="Group_5463" data-name="Group 5463" transform="translate(2.059)">
                    <g id="Group_5462" data-name="Group 5462">
                      <path id="Path_12755" data-name="Path 12755" d="M289.475,848.084H292.9a7.805,7.805,0,0,1,7.805,7.806v1.882l1.975.008v-1.89a9.791,9.791,0,0,0-9.78-9.78h-3.424Z" transform="translate(-289.475 -846.11)" fill="#f9bd5f"/>
                    </g>
                  </g>
                  <g id="Group_5465" data-name="Group 5465" transform="translate(24.619 9.468)">
                    <g id="Group_5464" data-name="Group 5464">
                      <path id="Path_12756" data-name="Path 12756" d="M316.784,857.571h2.532a2.357,2.357,0,0,1,2.357,2.357v3.759h-3.86Z" transform="translate(-316.784 -857.571)" fill="#f9bd5f"/>
                    </g>
                  </g>
                  <g id="Group_5467" data-name="Group 5467" transform="translate(2.059 1.974)">
                    <g id="Group_5466" data-name="Group 5466">
                      <path id="Path_12757" data-name="Path 12757" d="M300.7,855.994a7.8,7.8,0,0,0-7.8-7.494h-3.424v6.695a2,2,0,1,0,4.01,0v-1.388a1.6,1.6,0,0,1,1.605,1.6v.582h-.028v10.585c0,3.5,5.3,3.507,5.3,0V864.7h8.177v1.879a2.779,2.779,0,0,0,5.551,0V855.994Z" transform="translate(-289.475 -848.5)" fill="#ffce61"/>
                    </g>
                  </g>
                  <g id="Group_5469" data-name="Group 5469" transform="translate(13.635 9.468)">
                    <g id="Group_5468" data-name="Group 5468">
                      <rect id="Rectangle_4973" data-name="Rectangle 4973" width="7.512" height="4.812" fill="#fc7575"/>
                    </g>
                  </g>
                  <g id="Group_5471" data-name="Group 5471" transform="translate(13.274 9.468)">
                    <g id="Group_5470" data-name="Group 5470">
                      <rect id="Rectangle_4974" data-name="Rectangle 4974" width="0.573" height="4.812" fill="#ed4f4f"/>
                    </g>
                  </g>
                  <g id="Group_5473" data-name="Group 5473" transform="translate(14.154 14.033)">
                    <g id="Group_5472" data-name="Group 5472">
                      <rect id="Rectangle_4975" data-name="Rectangle 4975" width="0.577" height="1.12" fill="#fc7575"/>
                    </g>
                  </g>
                  <g id="Group_5475" data-name="Group 5475" transform="translate(16.126 14.033)">
                    <g id="Group_5474" data-name="Group 5474">
                      <rect id="Rectangle_4976" data-name="Rectangle 4976" width="0.577" height="1.12" fill="#fc7575"/>
                    </g>
                  </g>
                  <g id="Group_5477" data-name="Group 5477" transform="translate(18.098 14.033)">
                    <g id="Group_5476" data-name="Group 5476">
                      <rect id="Rectangle_4977" data-name="Rectangle 4977" width="0.577" height="1.12" fill="#fc7575"/>
                    </g>
                  </g>
                  <g id="Group_5479" data-name="Group 5479" transform="translate(20.069 14.033)">
                    <g id="Group_5478" data-name="Group 5478">
                      <rect id="Rectangle_4978" data-name="Rectangle 4978" width="0.577" height="1.12" fill="#fc7575"/>
                    </g>
                  </g>
                </g>
              </g>
              <rect id="Rectangle_4979" data-name="Rectangle 4979" width="0.942" height="36.36" transform="translate(68.309 65.623)" fill="#7cb4d6"/>
              <rect id="Rectangle_4980" data-name="Rectangle 4980" width="0.942" height="36.36" transform="translate(67.348 65.623)" fill="#679ac1"/>
              <g id="Group_5501" data-name="Group 5501" transform="translate(60.745 88.817)">
                <g id="Group_5500" data-name="Group 5500">
                  <g id="Group_5483" data-name="Group 5483">
                    <g id="Group_5482" data-name="Group 5482">
                      <path id="Path_12758" data-name="Path 12758" d="M245.82,848.084h3.424a7.805,7.805,0,0,1,7.806,7.806v1.882l1.974.008v-1.89a9.791,9.791,0,0,0-9.78-9.78H245.82Z" transform="translate(-245.82 -846.11)" fill="#49abe8"/>
                    </g>
                  </g>
                  <g id="Group_5485" data-name="Group 5485" transform="translate(22.56 9.468)">
                    <g id="Group_5484" data-name="Group 5484">
                      <path id="Path_12759" data-name="Path 12759" d="M273.129,857.571h2.533a2.357,2.357,0,0,1,2.357,2.357v3.759h-3.86Z" transform="translate(-273.129 -857.571)" fill="#49abe8"/>
                    </g>
                  </g>
                  <g id="Group_5487" data-name="Group 5487" transform="translate(0 1.974)">
                    <g id="Group_5486" data-name="Group 5486">
                      <path id="Path_12760" data-name="Path 12760" d="M257.042,855.994a7.8,7.8,0,0,0-7.8-7.494H245.82v6.695a2.005,2.005,0,0,0,4.011,0v-1.388a1.6,1.6,0,0,1,1.6,1.6v.582h-.027v10.585a2.651,2.651,0,0,0,5.3,0V864.7h8.177v1.879a2.651,2.651,0,0,0,2.651,2.651h.249a2.651,2.651,0,0,0,2.651-2.651V855.994Z" transform="translate(-245.82 -848.5)" fill="#5eb8e5"/>
                    </g>
                  </g>
                  <g id="Group_5489" data-name="Group 5489" transform="translate(11.576 9.468)">
                    <g id="Group_5488" data-name="Group 5488">
                      <rect id="Rectangle_4981" data-name="Rectangle 4981" width="7.512" height="4.812" fill="#fc7575"/>
                    </g>
                  </g>
                  <g id="Group_5491" data-name="Group 5491" transform="translate(11.216 9.468)">
                    <g id="Group_5490" data-name="Group 5490">
                      <rect id="Rectangle_4982" data-name="Rectangle 4982" width="0.573" height="4.812" fill="#ed4f4f"/>
                    </g>
                  </g>
                  <g id="Group_5493" data-name="Group 5493" transform="translate(12.096 14.033)">
                    <g id="Group_5492" data-name="Group 5492">
                      <rect id="Rectangle_4983" data-name="Rectangle 4983" width="0.577" height="1.12" fill="#fc7575"/>
                    </g>
                  </g>
                  <g id="Group_5495" data-name="Group 5495" transform="translate(14.068 14.033)">
                    <g id="Group_5494" data-name="Group 5494">
                      <rect id="Rectangle_4984" data-name="Rectangle 4984" width="0.577" height="1.12" fill="#fc7575"/>
                    </g>
                  </g>
                  <g id="Group_5497" data-name="Group 5497" transform="translate(16.04 14.033)">
                    <g id="Group_5496" data-name="Group 5496">
                      <rect id="Rectangle_4985" data-name="Rectangle 4985" width="0.577" height="1.12" fill="#fc7575"/>
                    </g>
                  </g>
                  <g id="Group_5499" data-name="Group 5499" transform="translate(18.011 14.033)">
                    <g id="Group_5498" data-name="Group 5498">
                      <rect id="Rectangle_4986" data-name="Rectangle 4986" width="0.577" height="1.12" fill="#fc7575"/>
                    </g>
                  </g>
                </g>
              </g>
              <rect id="Rectangle_4987" data-name="Rectangle 4987" width="60.863" height="4.767" transform="translate(15.205 120.027)" fill="#ed4f4f"/>
              <rect id="Rectangle_4988" data-name="Rectangle 4988" width="62.883" height="4.767" transform="translate(60.435 120.027)" fill="#ff6161"/>
              <path id="Path_12761" data-name="Path 12761" d="M295.327,892.606H197.1l1.01-2.946h96.2Z" transform="translate(-176.603 -764.866)" opacity="0.12"/>
              <g id="Group_5502" data-name="Group 5502" transform="translate(8.448 138.144)">
                <path id="Path_12762" data-name="Path 12762" d="M223.255,905.82a6.974,6.974,0,0,0-6.974,6.974h13.947A6.974,6.974,0,0,0,223.255,905.82Z" transform="translate(-188.386 -905.82)" fill="#dba545"/>
                <path id="Path_12763" data-name="Path 12763" d="M189.488,905.82a6.974,6.974,0,0,0-6.974,6.974h13.948A6.974,6.974,0,0,0,189.488,905.82Z" transform="translate(-182.514 -905.82)" fill="#dba545"/>
                <path id="Path_12764" data-name="Path 12764" d="M206.371,905.82a6.974,6.974,0,0,0-6.973,6.974h13.947A6.974,6.974,0,0,0,206.371,905.82Z" transform="translate(-185.45 -905.82)" fill="#dba545"/>
              </g>
              <g id="Group_5503" data-name="Group 5503" transform="translate(6.485 138.144)">
                <path id="Path_12765" data-name="Path 12765" d="M220.878,905.82a6.974,6.974,0,0,0-6.974,6.974h13.948A6.974,6.974,0,0,0,220.878,905.82Z" transform="translate(-186.01 -905.82)" fill="#efb848"/>
                <path id="Path_12766" data-name="Path 12766" d="M187.111,905.82a6.974,6.974,0,0,0-6.973,6.974h13.947A6.974,6.974,0,0,0,187.111,905.82Z" transform="translate(-180.138 -905.82)" fill="#efb848"/>
                <path id="Path_12767" data-name="Path 12767" d="M204,905.82a6.974,6.974,0,0,0-6.974,6.974h13.947A6.974,6.974,0,0,0,204,905.82Z" transform="translate(-183.074 -905.82)" fill="#efb848"/>
              </g>
              <g id="Group_5504" data-name="Group 5504" transform="translate(45.828 138.144)">
                <path id="Path_12768" data-name="Path 12768" d="M251.686,905.82a6.974,6.974,0,0,0-6.974,6.974h13.947A6.974,6.974,0,0,0,251.686,905.82Z" transform="translate(-230.709 -905.82)" fill="#efb848"/>
                <path id="Path_12769" data-name="Path 12769" d="M302.336,905.82a6.974,6.974,0,0,0-6.974,6.974h13.947A6.974,6.974,0,0,0,302.336,905.82Z" transform="translate(-239.517 -905.82)" fill="#efb848"/>
                <path id="Path_12770" data-name="Path 12770" d="M268.569,905.82a6.974,6.974,0,0,0-6.974,6.974h13.948A6.974,6.974,0,0,0,268.569,905.82Z" transform="translate(-233.645 -905.82)" fill="#efb848"/>
                <path id="Path_12771" data-name="Path 12771" d="M319.219,905.82a6.974,6.974,0,0,0-6.974,6.974h13.948A6.974,6.974,0,0,0,319.219,905.82Z" transform="translate(-242.453 -905.82)" fill="#efb848"/>
                <path id="Path_12772" data-name="Path 12772" d="M285.452,905.82a6.974,6.974,0,0,0-6.973,6.974h13.947A6.974,6.974,0,0,0,285.452,905.82Z" transform="translate(-236.581 -905.82)" fill="#efb848"/>
                <path id="Path_12773" data-name="Path 12773" d="M234.735,905.82a6.974,6.974,0,0,0-6.973,6.974h13.947A6.974,6.974,0,0,0,234.735,905.82Z" transform="translate(-227.762 -905.82)" fill="#efb848"/>
              </g>
              <g id="Group_5505" data-name="Group 5505" transform="translate(48.327 138.144)">
                <path id="Path_12774" data-name="Path 12774" d="M254.712,905.82a6.974,6.974,0,0,0-6.974,6.974h13.947A6.974,6.974,0,0,0,254.712,905.82Z" transform="translate(-233.735 -905.82)" fill="#ffce61"/>
                <path id="Path_12775" data-name="Path 12775" d="M305.361,905.82a6.974,6.974,0,0,0-6.973,6.974h13.947A6.974,6.974,0,0,0,305.361,905.82Z" transform="translate(-242.543 -905.82)" fill="#ffce61"/>
                <path id="Path_12776" data-name="Path 12776" d="M271.6,905.82a6.974,6.974,0,0,0-6.974,6.974h13.948A6.974,6.974,0,0,0,271.6,905.82Z" transform="translate(-236.671 -905.82)" fill="#ffce61"/>
                <path id="Path_12777" data-name="Path 12777" d="M322.245,905.82a6.974,6.974,0,0,0-6.974,6.974h13.948A6.974,6.974,0,0,0,322.245,905.82Z" transform="translate(-245.479 -905.82)" fill="#ffce61"/>
                <path id="Path_12778" data-name="Path 12778" d="M288.478,905.82a6.974,6.974,0,0,0-6.973,6.974h13.947A6.974,6.974,0,0,0,288.478,905.82Z" transform="translate(-239.607 -905.82)" fill="#ffce61"/>
                <path id="Path_12779" data-name="Path 12779" d="M237.761,905.82a6.974,6.974,0,0,0-6.973,6.974h13.947A6.974,6.974,0,0,0,237.761,905.82Z" transform="translate(-230.788 -905.82)" fill="#ffce61"/>
              </g>
              <g id="Group_5506" data-name="Group 5506" transform="translate(26.181 61.674)">
                <path id="Path_12780" data-name="Path 12780" d="M211.863,817.194a3.941,3.941,0,1,1-3.941-3.941A3.942,3.942,0,0,1,211.863,817.194Z" transform="translate(-203.98 -813.253)" fill="#ffce61"/>
                <path id="Path_12781" data-name="Path 12781" d="M208.434,819.222a1.518,1.518,0,0,1,0-3.035A1.518,1.518,0,0,1,208.434,819.222Z" transform="translate(-204.493 -813.763)" fill="#efb848"/>
              </g>
              <g id="Group_5507" data-name="Group 5507" transform="translate(64.019 61.674)">
                <path id="Path_12782" data-name="Path 12782" d="M257.666,817.194a3.941,3.941,0,1,1-3.941-3.941A3.942,3.942,0,0,1,257.666,817.194Z" transform="translate(-249.783 -813.253)" fill="#fc7575"/>
                <path id="Path_12783" data-name="Path 12783" d="M254.237,819.222a1.518,1.518,0,0,1,0-3.035A1.518,1.518,0,0,1,254.237,819.222Z" transform="translate(-250.296 -813.763)" fill="#ed4f4f"/>
              </g>
              <g id="Group_5508" data-name="Group 5508" transform="translate(99.965 61.674)">
                <path id="Path_12784" data-name="Path 12784" d="M301.179,817.194a3.942,3.942,0,1,1-3.941-3.941A3.943,3.943,0,0,1,301.179,817.194Z" transform="translate(-293.295 -813.253)" fill="#ffce61"/>
                <path id="Path_12785" data-name="Path 12785" d="M297.75,819.222a1.518,1.518,0,0,1,0-3.035A1.518,1.518,0,0,1,297.75,819.222Z" transform="translate(-293.808 -813.763)" fill="#efb848"/>
              </g>
              <rect id="Rectangle_4989" data-name="Rectangle 4989" width="1.539" height="25.905" transform="translate(69.539)" fill="#edebeb"/>
              <rect id="Rectangle_4990" data-name="Rectangle 4990" width="1.539" height="25.905" transform="translate(68.097)" fill="#dbdbdb"/>
              <path id="Path_12786" data-name="Path 12786" d="M274.782,753.058h-17.4V742.764h17.4l-5.631,5.147Z" transform="translate(-187.084 -739.322)" fill="#ffce61"/>
              <rect id="Rectangle_4991" data-name="Rectangle 4991" width="17.427" height="1.408" transform="translate(70.27 13.736)" fill="#f9bd5f"/>
              <path id="Path_12787" data-name="Path 12787" d="M201.82,803.846l45.255-35.93,45.255,35.93Z" transform="translate(-177.423 -743.696)" fill="#63c6f7"/>
              <path id="Path_12788" data-name="Path 12788" d="M301.857,803.846,256.6,767.917v35.93Z" transform="translate(-186.949 -743.696)" fill="#8ddcff"/>
              <g id="Group_5509" data-name="Group 5509" transform="translate(24.397 52.772)">
                <path id="Path_12789" data-name="Path 12789" d="M283.279,802.478l-9.051,7.476-9.051-7.476-9.051,7.476-9.052-7.476-9.051,7.476-9.051-7.476-9.051,7.476-9.052-7.476-9.051,7.476v5.374h90.511v-5.374Z" transform="translate(-201.82 -802.478)" fill="#4193e5"/>
                <path id="Path_12790" data-name="Path 12790" d="M283.754,809.954l-9.051-7.476-9.051,7.476-9.052-7.476h0v12.85h45.256v-5.374l-9.052-7.476Z" transform="translate(-211.346 -802.478)" fill="#49abe8"/>
              </g>
              <rect id="Rectangle_4992" data-name="Rectangle 4992" width="56.397" height="5.472" transform="translate(15.147 60.151)" fill="#63c6f7"/>
              <rect id="Rectangle_4993" data-name="Rectangle 4993" width="59.285" height="5.472" transform="translate(62.013 60.151)" fill="#8ddcff"/>
              <rect id="Rectangle_4994" data-name="Rectangle 4994" width="62.013" height="5.895" transform="translate(0 144.881)" fill="#d37566"/>
              <rect id="Rectangle_4995" data-name="Rectangle 4995" width="81.152" height="5.895" transform="translate(56.442 144.881)" fill="#e2816d"/>
            </g>
          </g>
          <path id="Path_12814" data-name="Path 12814" d="M254.53,697.89h-6.985a12.068,12.068,0,1,0-21.339-9,6.97,6.97,0,0,0-9.447,9h-2.3c-.259-5.01-7.711-5.021-7.971,0h-2.9a2.967,2.967,0,0,0-2.992,2.772,2.914,2.914,0,0,0,2.91,3.054H254.53a2.914,2.914,0,0,0,2.914-2.914h0A2.913,2.913,0,0,0,254.53,697.89Z" transform="translate(-226.96 -1396.854)" fill="#ebfaff" opacity="0.6"/>
          <path id="Path_12815" data-name="Path 12815" d="M458.945,623.073a6.8,6.8,0,0,0-9.472-3.916c-4.172-9.31-18.174-6.491-18.35,3.751a6.548,6.548,0,0,0-12.1,1.9,5.4,5.4,0,0,0-10.322,2.223,5.3,5.3,0,0,0,5.406,5.28s4.953.113,26.608.113h20.615c2.6,0,4.7-2.7,4.7-5.3A4.7,4.7,0,0,0,458.945,623.073Z" transform="translate(-702.147 -1255.605)" fill="#ebfaff" opacity="0.6"/>
          <g id="Group_5631" data-name="Group 5631" transform="translate(709.809 175.92)">
            <g id="Group_5630" data-name="Group 5630" transform="translate(17.73 23.886)">
              <path id="Path_13048" data-name="Path 13048" d="M115.071,908.883H110.9l1.162-52.347,2.079-2.254Z" transform="translate(-110.902 -854.282)" fill="#b2877f"/>
              <path id="Path_13049" data-name="Path 13049" d="M113.458,854.282l-1.357,1.893-.986,43.808a2.58,2.58,0,0,1,2.695,2.695v6.205h1.414c0-11.52.14-1.975-.929-54.6Z" transform="translate(-110.938 -854.282)" fill="#997068"/>
            </g>
            <path id="Path_13050" data-name="Path 13050" d="M107.155,852.433,99.5,859.162l2.779,1.024-8.3,3.067-2.633,4.354,7.567-.079-9.472,5.563v5.1l13.166-4.078,5.772-7.08,20.962,4.388v-5.448l-8.046-3.45,4.35-.378-2.119-2.988-12.085-3.339H115.3l-6.919-10.816Z" transform="translate(-89.439 -828.783)" fill="#80c16b"/>
            <path id="Path_13051" data-name="Path 13051" d="M108.377,867.19l20.962,4.388v-5.448l-8.046-3.45,4.35-.378-2.119-2.988-12.085-3.339H115.3l-6.457-10.094,2.068,8.055-2.487,1.317,9.728,7.826L107.688,864.1,99.5,871.124l-9.738,1.932-.319.187v5.1L102.6,874.27Z" transform="translate(-89.439 -828.935)" fill="#6ca555"/>
            <path id="Path_13052" data-name="Path 13052" d="M107.155,832.794,99.5,839.523l2.779,1.024-8.3,3.067-2.633,4.354,7.567-.079-9.472,5.563v5.1l13.166-4.078,5.772-7.08,20.962,4.388v-5.448l-8.046-3.45,4.35-.378-2.119-2.988-12.085-3.339H115.3l-6.919-10.816Z" transform="translate(-89.439 -825.368)" fill="#80c16b"/>
            <path id="Path_13053" data-name="Path 13053" d="M108.377,847.551l20.962,4.388v-5.448l-8.046-3.45,4.35-.378-2.119-2.988-12.085-3.339H115.3l-6.457-10.094,2.068,8.055-2.487,1.317,9.728,7.826-10.459,1.024L99.5,851.485l-9.738,1.932-.319.187v5.1l13.166-4.078Z" transform="translate(-89.439 -825.52)" fill="#6ca555"/>
          </g>
          <g id="Group_5633" data-name="Group 5633" transform="translate(1274.5 169.134)">
            <g id="Group_5632" data-name="Group 5632" transform="translate(19.305 26.008)">
              <path id="Path_13054" data-name="Path 13054" d="M800.9,908.087h-4.54l1.265-57,2.263-2.455Z" transform="translate(-796.364 -848.636)" fill="#b2877f"/>
              <path id="Path_13055" data-name="Path 13055" d="M799.147,848.636l-1.478,2.06L796.6,898.4a2.809,2.809,0,0,1,2.934,2.934v6.756h1.54c0-12.545.153-2.148-1.011-59.451Z" transform="translate(-796.404 -848.636)" fill="#997068"/>
            </g>
            <path id="Path_13056" data-name="Path 13056" d="M792.284,846.622l-8.339,7.327,3.026,1.115-9.036,3.339-2.867,4.741,8.239-.086-10.313,6.057v5.558l14.335-4.44,6.284-7.709,22.824,4.777V861.37l-8.76-3.756,4.737-.411-2.307-3.254-13.158-3.636h4.2l-7.533-11.777Z" transform="translate(-772.995 -820.872)" fill="#80c16b"/>
            <path id="Path_13057" data-name="Path 13057" d="M793.615,862.691l22.824,4.777v-5.932l-8.76-3.756,4.737-.411-2.307-3.254-13.158-3.636h4.2l-7.03-10.991,2.252,8.771-2.708,1.433,10.592,8.522-11.388,1.115-8.92,7.645-10.6,2.1-.347.2v5.558l14.335-4.44Z" transform="translate(-772.995 -821.037)" fill="#6ca555"/>
            <path id="Path_13058" data-name="Path 13058" d="M792.284,825.239l-8.339,7.327,3.026,1.115-9.036,3.339-2.867,4.741,8.239-.086-10.313,6.058v5.558l14.335-4.44,6.284-7.709,22.824,4.777v-5.932l-8.76-3.756,4.737-.411-2.307-3.254L796.95,828.93h4.2l-7.533-11.777Z" transform="translate(-772.995 -817.153)" fill="#80c16b"/>
            <path id="Path_13059" data-name="Path 13059" d="M793.615,841.307l22.824,4.777v-5.932l-8.76-3.756,4.737-.411-2.307-3.254L796.95,829.1h4.2l-7.03-10.991,2.252,8.771-2.708,1.433,10.592,8.521-11.388,1.115-8.92,7.645-10.6,2.1-.347.2v5.558l14.335-4.44Z" transform="translate(-772.995 -817.319)" fill="#6ca555"/>
          </g>
          <g id="Group_5635" data-name="Group 5635" transform="translate(964.709 210.777)">
            <path id="Path_13072" data-name="Path 13072" d="M409.3,915.761c-1.305-24.617-1.194-22.252-1.194-23.078l-.017.283-.017-.283c0,.826.112-1.535-1.194,23.078Z" transform="translate(-399.539 -871.929)" fill="#9e7a7a"/>
            <path id="Path_13073" data-name="Path 13073" d="M412.251,878.916l-4.567.368,3.925-2.247c-.537-1.523-3.376-9.476-5.008-9.476-1.871.079-5.918,11.243-7.717,18.61l4.64,1.74-5-.173a19.943,19.943,0,0,0-.53,3.712,8.626,8.626,0,0,0,8.606,8.626h.02a8.627,8.627,0,0,0,8.627-8.626C415.248,889.243,413.919,883.957,412.251,878.916Z" transform="translate(-397.995 -867.561)" fill="#74b25d"/>
          </g>
          <path id="Path_13074" data-name="Path 13074" d="M1955.1,939.509H59.648c-12.167,0-22.029-4.2-22.029-9.382s9.857-9.382,22.029-9.382H1955.1c12.165,0,22.028,4.2,22.028,9.382S1967.273,939.509,1955.1,939.509Z" transform="translate(-648.287 -666.033)" fill="#a7cc4c"/>
          <path id="Path_13075" data-name="Path 13075" d="M290.531,931.025c3.394-8.288,15.8-5.858,15.8,3.107H279.287A6.661,6.661,0,0,1,290.531,931.025Z" transform="translate(-79.643 -666.937)" fill="#9cba3e"/>
          <path id="Path_13076" data-name="Path 13076" d="M626.892,930.945a5.48,5.48,0,0,0-10.544,2.073H634.4A4.444,4.444,0,0,0,626.892,930.945Z" transform="translate(-138.255 -667.217)" fill="#9cba3e"/>
          <path id="Path_13077" data-name="Path 13077" d="M2044.569,949.577H152.3c-13.046,0-23.622-3.469-23.622-7.75s10.555-7.749,23.622-7.749H2044.569c13.045,0,23.622,3.469,23.622,7.749S2057.635,949.577,2044.569,949.577Z" transform="translate(-739.349 -668.351)" fill="#9cba3e"/>
          <path id="Path_13078" data-name="Path 13078" d="M436.4,941.612a68.841,68.841,0,0,0-90.722,0Z" transform="translate(-91.187 -666.695)" fill="#9cba3e"/>
          <g id="Group_11084" data-name="Group 11084" transform="translate(-9.213 104.238)" opacity="0.07">
            <path id="Path_12626-2" data-name="Path 12626" d="M666.377,786.525v16.609H655.139v-17.32H628.575v24.6H610.131V761.735H599.913v-7.152h-24.52v6.64h-8.685v33.4l-23.675-.238V777.722H499.615v41.321l-30.261-.149v-54H448.272l-18.253,10.33v52.38L403.2,813.836V789.2h-8.174V775.408H372.186V789.2H328.43V774.386h-28.1v13.532l-11.447.021V753.713h.1v-1.33l-.1-.1v-.135L275.593,738.6l-.014.015-.012-.012L262.8,752.383v1.33h.03v24.009H247V766.994H222.181v24.321H192.344V767.5H172.15l-.053.069h-.147c-1.709,2.48.187-.051-11.278,14.914v31.513H143.3V777.573H120.839V767.356H100.915v10.728H85.781v110.77H678.99V786.43Z" transform="translate(-85.781 -738.597)" fill="#1258d6"/>
            <path id="Path_12627-2" data-name="Path 12627" d="M121.136,758.292a10,10,0,0,0-17.035,7.06V769.7h19.923C124.024,765.324,124.533,761.7,121.136,758.292Z" transform="translate(-88.967 -741.513)" fill="#1258d6"/>
          </g>
          <g id="Group_11465" data-name="Group 11465" transform="translate(588.787 190.096)" opacity="0.07">
            <path id="Path_12626-3" data-name="Path 12626" d="M433.236,759.139v7.119h-6.726v-7.423h-15.9v10.545H399.576V748.514h-6.115v-3.065H378.788v2.846h-5.2v14.317l-14.168-.1v-7.144H333.438v17.71l-18.11-.064V749.87H302.712L291.789,754.3v22.45l-16.052-5.9V760.285h-4.891v-5.911H257.179v5.911H230.993v-6.349H214.179v5.8l-6.851.009V745.076h.057v-.57l-.057-.042v-.058l-7.956-5.808-.008.006-.007-.005-7.637,5.908v.57h.018v10.29H182.26v-4.6H167.409v10.424H149.553V750.983H137.468l-.032.03h-.088c-1.023,1.063.112-.022-6.749,6.392v13.506H120.205V755.3H106.761v-4.379H94.838v4.6H85.781V803h355V759.1Z" transform="translate(-85.781 -738.597)" fill="#1258d6"/>
            <path id="Path_12627-3" data-name="Path 12627" d="M114.3,757.117a5.982,5.982,0,0,0-10.195,4.225v2.6h11.923C116.024,761.326,116.329,759.156,114.3,757.117Z" transform="translate(-95.044 -747.076)" fill="#1258d6"/>
          </g>
        </g>
      </g>
    </g>
    <g id="Group_11466" data-name="Group 11466" transform="translate(1167.458 1907.948)">
      <g id="Group_5350" data-name="Group 5350" transform="translate(17.13 11.561)">
        <g id="Group_5264" data-name="Group 5264" transform="translate(1.468)">
          <path id="Path_12637" data-name="Path 12637" d="M158.654,659.3V875.185H146.8c0-.08.067-215.8.073-215.881Z" transform="translate(-146.798 -659.304)" fill="#cecece"/>
        </g>
        <g id="Group_5265" data-name="Group 5265" transform="translate(13.324)">
          <path id="Path_12638" data-name="Path 12638" d="M173.078,875.213H161.15V659.3h11.855C173.014,659.443,173.078,875.074,173.078,875.213Z" transform="translate(-161.15 -659.304)" fill="#e0e0e0"/>
        </g>
        <g id="Group_5271" data-name="Group 5271" transform="translate(0 80.951)">
          <g id="Group_5266" data-name="Group 5266" transform="translate(1.537 2.483)" opacity="0.12">
            <rect id="Rectangle_4896" data-name="Rectangle 4896" width="23.644" height="1.266"/>
          </g>
          <g id="Group_5267" data-name="Group 5267" transform="translate(1.576 2.06)">
            <rect id="Rectangle_4897" data-name="Rectangle 4897" width="1.254" height="16.727" transform="translate(0 0.846) rotate(-42.417)" fill="#49abe8"/>
          </g>
          <g id="Group_5268" data-name="Group 5268" transform="translate(12.862 2.057)">
            <rect id="Rectangle_4898" data-name="Rectangle 4898" width="16.777" height="1.254" transform="matrix(0.677, -0.736, 0.736, 0.677, 0, 12.352)" fill="#82d6f4"/>
          </g>
          <g id="Group_5269" data-name="Group 5269">
            <path id="Path_12639" data-name="Path 12639" d="M158.343,759.778H146.13c-1.5,0-1.454-2.483,0-2.483h12.213Z" transform="translate(-145.022 -757.295)" fill="#49abe8"/>
          </g>
          <g id="Group_5270" data-name="Group 5270" transform="translate(13.321)">
            <path id="Path_12640" data-name="Path 12640" d="M173.213,759.778H161.147v-2.483h12.066a1.1,1.1,0,0,1,1.1,1.1C174.315,759.353,173.847,759.778,173.213,759.778Z" transform="translate(-161.147 -757.295)" fill="#82d6f4"/>
          </g>
        </g>
        <g id="Group_5277" data-name="Group 5277" transform="translate(0 94.9)">
          <g id="Group_5272" data-name="Group 5272" transform="translate(1.537 2.484)" opacity="0.12">
            <rect id="Rectangle_4899" data-name="Rectangle 4899" width="23.644" height="1.266"/>
          </g>
          <g id="Group_5273" data-name="Group 5273" transform="translate(1.575 1.309)">
            <rect id="Rectangle_4900" data-name="Rectangle 4900" width="16.726" height="1.254" transform="translate(0 12.346) rotate(-47.573)" fill="#49abe8"/>
          </g>
          <g id="Group_5274" data-name="Group 5274" transform="translate(12.86 1.307)">
            <rect id="Rectangle_4901" data-name="Rectangle 4901" width="1.254" height="16.777" transform="matrix(0.736, -0.677, 0.677, 0.736, 0, 0.849)" fill="#82d6f4"/>
          </g>
          <g id="Group_5275" data-name="Group 5275">
            <path id="Path_12641" data-name="Path 12641" d="M158.343,776.663H146.13c-1.5,0-1.454-2.483,0-2.483h12.213Z" transform="translate(-145.022 -774.18)" fill="#49abe8"/>
          </g>
          <g id="Group_5276" data-name="Group 5276" transform="translate(13.321)">
            <path id="Path_12642" data-name="Path 12642" d="M173.213,776.663H161.147V774.18h12.066a1.1,1.1,0,0,1,1.1,1.1C174.315,776.239,173.847,776.663,173.213,776.663Z" transform="translate(-161.147 -774.18)" fill="#82d6f4"/>
          </g>
        </g>
        <g id="Group_5283" data-name="Group 5283" transform="translate(0 108.729)">
          <g id="Group_5278" data-name="Group 5278" transform="translate(1.537 2.483)" opacity="0.12">
            <rect id="Rectangle_4902" data-name="Rectangle 4902" width="23.644" height="1.266"/>
          </g>
          <g id="Group_5279" data-name="Group 5279" transform="translate(1.576 2.06)">
            <rect id="Rectangle_4903" data-name="Rectangle 4903" width="1.254" height="16.727" transform="matrix(0.738, -0.675, 0.675, 0.738, 0, 0.846)" fill="#49abe8"/>
          </g>
          <g id="Group_5280" data-name="Group 5280" transform="translate(12.862 2.057)">
            <rect id="Rectangle_4904" data-name="Rectangle 4904" width="16.777" height="1.254" transform="matrix(0.677, -0.736, 0.736, 0.677, 0, 12.352)" fill="#82d6f4"/>
          </g>
          <g id="Group_5281" data-name="Group 5281">
            <path id="Path_12643" data-name="Path 12643" d="M158.343,793.4H146.13c-1.5,0-1.454-2.483,0-2.483h12.213Z" transform="translate(-145.022 -790.92)" fill="#49abe8"/>
          </g>
          <g id="Group_5282" data-name="Group 5282" transform="translate(13.321)">
            <path id="Path_12644" data-name="Path 12644" d="M173.213,793.4H161.147V790.92h12.066a1.1,1.1,0,0,1,1.1,1.1C174.315,792.978,173.847,793.4,173.213,793.4Z" transform="translate(-161.147 -790.92)" fill="#82d6f4"/>
          </g>
        </g>
        <g id="Group_5284" data-name="Group 5284" transform="translate(1.537 8.459)" opacity="0.06">
          <rect id="Rectangle_4905" data-name="Rectangle 4905" width="23.714" height="2.815"/>
        </g>
        <g id="Group_5290" data-name="Group 5290" transform="translate(0 122.808)">
          <g id="Group_5285" data-name="Group 5285" transform="translate(1.537 2.484)" opacity="0.12">
            <rect id="Rectangle_4906" data-name="Rectangle 4906" width="23.644" height="1.266"/>
          </g>
          <g id="Group_5286" data-name="Group 5286" transform="translate(1.575 1.309)">
            <rect id="Rectangle_4907" data-name="Rectangle 4907" width="16.727" height="1.254" transform="translate(0 12.347) rotate(-47.573)" fill="#49abe8"/>
          </g>
          <g id="Group_5287" data-name="Group 5287" transform="translate(12.86 1.307)">
            <rect id="Rectangle_4908" data-name="Rectangle 4908" width="1.254" height="16.777" transform="matrix(0.736, -0.677, 0.677, 0.736, 0, 0.849)" fill="#82d6f4"/>
          </g>
          <g id="Group_5288" data-name="Group 5288">
            <path id="Path_12645" data-name="Path 12645" d="M158.343,810.445H146.13c-1.5,0-1.454-2.483,0-2.483h12.213Z" transform="translate(-145.022 -807.962)" fill="#49abe8"/>
          </g>
          <g id="Group_5289" data-name="Group 5289" transform="translate(13.322 0)">
            <path id="Rectangle_4909" data-name="Rectangle 4909" d="M0,0H11.926a1.242,1.242,0,0,1,1.242,1.242v0a1.242,1.242,0,0,1-1.242,1.242H0a0,0,0,0,1,0,0V0A0,0,0,0,1,0,0Z" fill="#82d6f4"/>
          </g>
        </g>
        <g id="Group_5296" data-name="Group 5296" transform="translate(0 25.832)">
          <g id="Group_5291" data-name="Group 5291" transform="translate(1.537 2.484)" opacity="0.12">
            <rect id="Rectangle_4910" data-name="Rectangle 4910" width="23.644" height="1.266"/>
          </g>
          <g id="Group_5292" data-name="Group 5292" transform="translate(1.576 2.06)">
            <rect id="Rectangle_4911" data-name="Rectangle 4911" width="1.254" height="16.727" transform="translate(0 0.846) rotate(-42.417)" fill="#49abe8"/>
          </g>
          <g id="Group_5293" data-name="Group 5293" transform="translate(12.862 2.057)">
            <rect id="Rectangle_4912" data-name="Rectangle 4912" width="16.777" height="1.254" transform="matrix(0.677, -0.736, 0.736, 0.677, 0, 12.353)" fill="#82d6f4"/>
          </g>
          <g id="Group_5294" data-name="Group 5294">
            <path id="Path_12646" data-name="Path 12646" d="M158.343,693.056H146.13c-1.5,0-1.454-2.483,0-2.483h12.213Z" transform="translate(-145.022 -690.573)" fill="#49abe8"/>
          </g>
          <g id="Group_5295" data-name="Group 5295" transform="translate(13.321)">
            <path id="Path_12647" data-name="Path 12647" d="M173.213,693.056H161.147v-2.483h12.066a1.1,1.1,0,0,1,1.1,1.1C174.315,692.632,173.847,693.056,173.213,693.056Z" transform="translate(-161.147 -690.573)" fill="#82d6f4"/>
          </g>
        </g>
        <g id="Group_5302" data-name="Group 5302" transform="translate(0 39.781)">
          <g id="Group_5297" data-name="Group 5297" transform="translate(1.537 2.483)" opacity="0.12">
            <rect id="Rectangle_4913" data-name="Rectangle 4913" width="23.644" height="1.266"/>
          </g>
          <g id="Group_5298" data-name="Group 5298" transform="translate(1.575 1.309)">
            <rect id="Rectangle_4914" data-name="Rectangle 4914" width="16.727" height="1.254" transform="translate(0 12.347) rotate(-47.573)" fill="#49abe8"/>
          </g>
          <g id="Group_5299" data-name="Group 5299" transform="translate(12.86 1.307)">
            <rect id="Rectangle_4915" data-name="Rectangle 4915" width="1.254" height="16.777" transform="matrix(0.736, -0.677, 0.677, 0.736, 0, 0.849)" fill="#82d6f4"/>
          </g>
          <g id="Group_5300" data-name="Group 5300">
            <path id="Path_12648" data-name="Path 12648" d="M158.343,709.942H146.13c-1.5,0-1.454-2.483,0-2.483h12.213Z" transform="translate(-145.022 -707.459)" fill="#49abe8"/>
          </g>
          <g id="Group_5301" data-name="Group 5301" transform="translate(13.321)">
            <path id="Path_12649" data-name="Path 12649" d="M173.213,709.942H161.147v-2.483h12.066a1.1,1.1,0,0,1,1.1,1.1C174.315,709.518,173.847,709.942,173.213,709.942Z" transform="translate(-161.147 -707.459)" fill="#82d6f4"/>
          </g>
        </g>
        <g id="Group_5308" data-name="Group 5308" transform="translate(0 53.609)">
          <g id="Group_5303" data-name="Group 5303" transform="translate(1.537 2.484)" opacity="0.12">
            <rect id="Rectangle_4916" data-name="Rectangle 4916" width="23.644" height="1.266"/>
          </g>
          <g id="Group_5304" data-name="Group 5304" transform="translate(1.576 2.06)">
            <rect id="Rectangle_4917" data-name="Rectangle 4917" width="1.254" height="16.727" transform="translate(0 0.846) rotate(-42.417)" fill="#49abe8"/>
          </g>
          <g id="Group_5305" data-name="Group 5305" transform="translate(12.862 2.057)">
            <rect id="Rectangle_4918" data-name="Rectangle 4918" width="16.777" height="1.254" transform="matrix(0.677, -0.736, 0.736, 0.677, 0, 12.352)" fill="#82d6f4"/>
          </g>
          <g id="Group_5306" data-name="Group 5306">
            <path id="Path_12650" data-name="Path 12650" d="M158.343,726.681H146.13c-1.5,0-1.454-2.483,0-2.483h12.213Z" transform="translate(-145.022 -724.198)" fill="#49abe8"/>
          </g>
          <g id="Group_5307" data-name="Group 5307" transform="translate(13.321)">
            <path id="Path_12651" data-name="Path 12651" d="M173.213,726.681H161.147V724.2h12.066a1.1,1.1,0,0,1,1.1,1.1C174.315,726.257,173.847,726.681,173.213,726.681Z" transform="translate(-161.147 -724.198)" fill="#82d6f4"/>
          </g>
        </g>
        <g id="Group_5314" data-name="Group 5314" transform="translate(0 67.689)">
          <g id="Group_5309" data-name="Group 5309" transform="translate(1.537 2.483)" opacity="0.12">
            <rect id="Rectangle_4919" data-name="Rectangle 4919" width="23.644" height="1.266"/>
          </g>
          <g id="Group_5310" data-name="Group 5310" transform="translate(1.575 1.309)">
            <rect id="Rectangle_4920" data-name="Rectangle 4920" width="16.726" height="1.254" transform="translate(0 12.346) rotate(-47.573)" fill="#49abe8"/>
          </g>
          <g id="Group_5311" data-name="Group 5311" transform="translate(12.86 1.307)">
            <rect id="Rectangle_4921" data-name="Rectangle 4921" width="1.254" height="16.777" transform="matrix(0.736, -0.677, 0.677, 0.736, 0, 0.849)" fill="#82d6f4"/>
          </g>
          <g id="Group_5312" data-name="Group 5312">
            <path id="Path_12652" data-name="Path 12652" d="M158.343,743.724H146.13c-1.5,0-1.454-2.483,0-2.483h12.213Z" transform="translate(-145.022 -741.241)" fill="#49abe8"/>
          </g>
          <g id="Group_5313" data-name="Group 5313" transform="translate(13.321)">
            <path id="Path_12653" data-name="Path 12653" d="M173.213,743.724H161.147v-2.483h12.066a1.1,1.1,0,0,1,1.1,1.1C174.315,743.3,173.847,743.724,173.213,743.724Z" transform="translate(-161.147 -741.241)" fill="#82d6f4"/>
          </g>
        </g>
        <g id="Group_5320" data-name="Group 5320" transform="translate(0 136.637)">
          <g id="Group_5315" data-name="Group 5315" transform="translate(1.537 2.483)" opacity="0.12">
            <rect id="Rectangle_4922" data-name="Rectangle 4922" width="23.644" height="1.266"/>
          </g>
          <g id="Group_5316" data-name="Group 5316" transform="translate(1.576 2.06)">
            <rect id="Rectangle_4923" data-name="Rectangle 4923" width="1.254" height="16.726" transform="matrix(0.738, -0.675, 0.675, 0.738, 0, 0.846)" fill="#49abe8"/>
          </g>
          <g id="Group_5317" data-name="Group 5317" transform="translate(12.862 2.057)">
            <rect id="Rectangle_4924" data-name="Rectangle 4924" width="16.777" height="1.254" transform="matrix(0.677, -0.736, 0.736, 0.677, 0, 12.352)" fill="#82d6f4"/>
          </g>
          <g id="Group_5318" data-name="Group 5318">
            <path id="Path_12654" data-name="Path 12654" d="M158.343,827.185H146.13c-1.5,0-1.454-2.483,0-2.483h12.213Z" transform="translate(-145.022 -824.702)" fill="#49abe8"/>
          </g>
          <g id="Group_5319" data-name="Group 5319" transform="translate(13.321)">
            <path id="Path_12655" data-name="Path 12655" d="M173.213,827.185H161.147V824.7h12.066a1.1,1.1,0,0,1,1.1,1.1C174.315,826.76,173.847,827.185,173.213,827.185Z" transform="translate(-161.147 -824.702)" fill="#82d6f4"/>
          </g>
        </g>
        <g id="Group_5326" data-name="Group 5326" transform="translate(0 150.226)">
          <g id="Group_5321" data-name="Group 5321" transform="translate(1.537 2.483)" opacity="0.12">
            <rect id="Rectangle_4925" data-name="Rectangle 4925" width="23.644" height="1.266"/>
          </g>
          <g id="Group_5322" data-name="Group 5322" transform="translate(1.575 1.309)">
            <rect id="Rectangle_4926" data-name="Rectangle 4926" width="16.727" height="1.254" transform="translate(0 12.347) rotate(-47.573)" fill="#49abe8"/>
          </g>
          <g id="Group_5323" data-name="Group 5323" transform="translate(12.86 1.306)">
            <rect id="Rectangle_4927" data-name="Rectangle 4927" width="1.254" height="16.777" transform="translate(0 0.849) rotate(-42.605)" fill="#82d6f4"/>
          </g>
          <g id="Group_5324" data-name="Group 5324">
            <path id="Path_12656" data-name="Path 12656" d="M158.343,843.635H146.13c-1.5,0-1.454-2.483,0-2.483h12.213Z" transform="translate(-145.022 -841.152)" fill="#49abe8"/>
          </g>
          <g id="Group_5325" data-name="Group 5325" transform="translate(13.321)">
            <path id="Path_12657" data-name="Path 12657" d="M173.213,843.635H161.147v-2.483h12.066a1.1,1.1,0,0,1,1.1,1.1C174.315,843.211,173.847,843.635,173.213,843.635Z" transform="translate(-161.147 -841.152)" fill="#82d6f4"/>
          </g>
        </g>
        <g id="Group_5332" data-name="Group 5332" transform="translate(0 164.054)">
          <g id="Group_5327" data-name="Group 5327" transform="translate(1.537 2.484)" opacity="0.12">
            <rect id="Rectangle_4928" data-name="Rectangle 4928" width="23.644" height="1.266"/>
          </g>
          <g id="Group_5328" data-name="Group 5328" transform="translate(1.576 2.061)">
            <rect id="Rectangle_4929" data-name="Rectangle 4929" width="1.254" height="16.727" transform="matrix(0.738, -0.675, 0.675, 0.738, 0, 0.846)" fill="#49abe8"/>
          </g>
          <g id="Group_5329" data-name="Group 5329" transform="translate(12.862 2.057)">
            <rect id="Rectangle_4930" data-name="Rectangle 4930" width="16.777" height="1.254" transform="matrix(0.677, -0.736, 0.736, 0.677, 0, 12.352)" fill="#82d6f4"/>
          </g>
          <g id="Group_5330" data-name="Group 5330">
            <path id="Path_12658" data-name="Path 12658" d="M158.343,860.374H146.13c-1.5,0-1.454-2.483,0-2.483h12.213Z" transform="translate(-145.022 -857.891)" fill="#49abe8"/>
          </g>
          <g id="Group_5331" data-name="Group 5331" transform="translate(13.321)">
            <path id="Path_12659" data-name="Path 12659" d="M173.213,860.374H161.147v-2.483h12.066a1.1,1.1,0,0,1,1.1,1.1C174.315,859.95,173.847,860.374,173.213,860.374Z" transform="translate(-161.147 -857.891)" fill="#82d6f4"/>
          </g>
        </g>
        <g id="Group_5338" data-name="Group 5338" transform="translate(0 178.044)">
          <g id="Group_5333" data-name="Group 5333" transform="translate(1.412 2.484)" opacity="0.12">
            <rect id="Rectangle_4931" data-name="Rectangle 4931" width="23.965" height="1.266"/>
          </g>
          <g id="Group_5334" data-name="Group 5334" transform="translate(1.575 1.309)">
            <rect id="Rectangle_4932" data-name="Rectangle 4932" width="16.727" height="1.254" transform="translate(0 12.347) rotate(-47.573)" fill="#49abe8"/>
          </g>
          <g id="Group_5335" data-name="Group 5335" transform="translate(12.86 1.306)">
            <rect id="Rectangle_4933" data-name="Rectangle 4933" width="1.254" height="16.777" transform="translate(0 0.849) rotate(-42.605)" fill="#82d6f4"/>
          </g>
          <g id="Group_5336" data-name="Group 5336">
            <path id="Path_12660" data-name="Path 12660" d="M158.343,877.308H146.13c-1.5,0-1.454-2.483,0-2.483h12.213Z" transform="translate(-145.022 -874.825)" fill="#49abe8"/>
          </g>
          <g id="Group_5337" data-name="Group 5337" transform="translate(13.321)">
            <path id="Path_12661" data-name="Path 12661" d="M173.213,877.308H161.147v-2.483h12.066a1.1,1.1,0,0,1,1.1,1.1C174.315,876.884,173.847,877.308,173.213,877.308Z" transform="translate(-161.147 -874.825)" fill="#82d6f4"/>
          </g>
        </g>
        <g id="Group_5347" data-name="Group 5347" transform="translate(0 191.634)">
          <g id="Group_5339" data-name="Group 5339" transform="translate(1.412 2.483)" opacity="0.12">
            <rect id="Rectangle_4934" data-name="Rectangle 4934" width="23.965" height="1.266"/>
          </g>
          <g id="Group_5340" data-name="Group 5340" transform="translate(1.537 2.06)">
            <path id="Path_12662" data-name="Path 12662" d="M158.2,906.964l-11.321-12.772.964-.423,11.283,12.349Z" transform="translate(-146.882 -893.769)" fill="#49abe8"/>
          </g>
          <g id="Group_5341" data-name="Group 5341" transform="translate(12.86 2.059)">
            <path id="Path_12663" data-name="Path 12663" d="M161.512,906.965l-.923-.849,11.357-12.349,1.159.375Z" transform="translate(-160.588 -893.768)" fill="#82d6f4"/>
          </g>
          <g id="Group_5342" data-name="Group 5342">
            <path id="Path_12664" data-name="Path 12664" d="M158.343,893.759H146.13c-1.5,0-1.454-2.483,0-2.483h12.213Z" transform="translate(-145.022 -891.276)" fill="#49abe8"/>
          </g>
          <g id="Group_5343" data-name="Group 5343" transform="translate(13.321)">
            <path id="Path_12665" data-name="Path 12665" d="M173.213,893.759H161.147v-2.483h12.066a1.1,1.1,0,0,1,1.1,1.1C174.315,893.334,173.847,893.759,173.213,893.759Z" transform="translate(-161.147 -891.276)" fill="#82d6f4"/>
          </g>
          <g id="Group_5344" data-name="Group 5344" transform="translate(1.412 16.486)" opacity="0.12">
            <rect id="Rectangle_4935" data-name="Rectangle 4935" width="23.965" height="1.266"/>
          </g>
          <g id="Group_5345" data-name="Group 5345" transform="translate(0 14.003)">
            <path id="Path_12666" data-name="Path 12666" d="M158.343,910.709H146.13c-1.5,0-1.454-2.483,0-2.483h12.213Z" transform="translate(-145.022 -908.226)" fill="#49abe8"/>
          </g>
          <g id="Group_5346" data-name="Group 5346" transform="translate(13.321 14.003)">
            <path id="Path_12667" data-name="Path 12667" d="M173.213,910.709H161.147v-2.483h12.066a1.1,1.1,0,0,1,1.1,1.1C174.315,910.285,173.847,910.709,173.213,910.709Z" transform="translate(-161.147 -908.226)" fill="#82d6f4"/>
          </g>
        </g>
        <g id="Group_5348" data-name="Group 5348" transform="translate(1.412 8.25)">
          <rect id="Rectangle_4936" data-name="Rectangle 4936" width="1.254" height="207.71" fill="#49abe8"/>
        </g>
        <g id="Group_5349" data-name="Group 5349" transform="translate(24.122 8.521)">
          <rect id="Rectangle_4937" data-name="Rectangle 4937" width="1.254" height="207.439" fill="#82d6f4"/>
        </g>
      </g>
      <rect id="Rectangle_4938" data-name="Rectangle 4938" width="19.824" height="2.193" transform="translate(12.649 18.509)" fill="#49abe8"/>
      <rect id="Rectangle_4939" data-name="Rectangle 4939" width="20.586" height="2.193" transform="translate(26.024 18.509)" fill="#82d6f4"/>
      <g id="Group_5351" data-name="Group 5351" transform="translate(0 24.912)">
        <rect id="Rectangle_4940" data-name="Rectangle 4940" width="5.09" height="8.522" fill="#dd9d50"/>
        <rect id="Rectangle_4941" data-name="Rectangle 4941" width="53.113" height="8.522" transform="translate(5.09)" fill="#ffd488"/>
        <rect id="Rectangle_4942" data-name="Rectangle 4942" width="5.982" height="5.464" transform="translate(9.516 3.058)" fill="#fff"/>
        <rect id="Rectangle_4943" data-name="Rectangle 4943" width="5.982" height="5.464" transform="translate(18.969 3.058)" fill="#fff"/>
        <rect id="Rectangle_4944" data-name="Rectangle 4944" width="5.982" height="5.464" transform="translate(28.423 3.058)" fill="#fff"/>
        <rect id="Rectangle_4945" data-name="Rectangle 4945" width="5.982" height="5.464" transform="translate(37.877 3.058)" fill="#fff"/>
        <rect id="Rectangle_4946" data-name="Rectangle 4946" width="5.982" height="5.464" transform="translate(47.278 3.058)" fill="#fff"/>
        <rect id="Rectangle_4947" data-name="Rectangle 4947" width="52.522" height="4.046" transform="translate(11.089 8.522)" fill="#f9c364"/>
        <rect id="Rectangle_4948" data-name="Rectangle 4948" width="14.08" height="4.046" transform="translate(0 8.522)" fill="#dd9d50"/>
      </g>
      <path id="Path_12668" data-name="Path 12668" d="M173.005,656.885H161.15V645.391A11.777,11.777,0,0,1,173.005,656.885Z" transform="translate(-130.696 -645.324)" fill="#82d6f4"/>
      <path id="Path_12669" data-name="Path 12669" d="M158.67,645.31v11.561H146.886A11.778,11.778,0,0,1,158.67,645.31Z" transform="translate(-128.216 -645.31)" fill="#49abe8"/>
    </g>
  </g>
</svg>
