<svg xmlns="http://www.w3.org/2000/svg" width="138.152" height="114.998" viewBox="0 0 138.152 114.998">
  <g id="Group_11593" data-name="Group 11593" transform="translate(-241 -294.633)">
    <path id="Path_22165" data-name="Path 22165" d="M354.077,322.247c-.581,0-1.156.022-1.727.06a23.808,23.808,0,0,0-37.784-14.947,25.077,25.077,0,0,0-46.9,12.347,25.34,25.34,0,0,0,.134,2.6c-.569-.039-1.142-.06-1.72-.06a25.075,25.075,0,1,0,0,50.151h88a25.075,25.075,0,1,0,0-50.151Z" transform="translate(0)" fill="#aad0e2"/>
    <path id="Path_22166" data-name="Path 22166" d="M354.077,322.247c-.581,0-1.156.022-1.727.06a23.808,23.808,0,0,0-37.784-14.947,25.077,25.077,0,0,0-46.9,12.347,25.34,25.34,0,0,0,.134,2.6c-.569-.039-1.142-.06-1.72-.06a25.075,25.075,0,1,0,0,50.151h88a25.075,25.075,0,1,0,0-50.151Z" transform="translate(0)" fill="#b3d5e3"/>
    <path id="Path_22167" data-name="Path 22167" d="M319.7,316.23a24.211,24.211,0,0,0-31.563,23.054,24.432,24.432,0,0,0,.129,2.508c-.549-.037-1.1-.058-1.66-.058a24.2,24.2,0,0,0-20.983,36.249c-.923-10.917.729-31.761,26.9-31.251C292.255,339.6,293.519,317.258,319.7,316.23Z" transform="translate(-16.79 -16.039)" fill="#c3dee8"/>
    <path id="Path_22168" data-name="Path 22168" d="M413.333,533.181H489.21a25.082,25.082,0,0,0,23.619-33.5C496.341,532.151,440.578,529.276,413.333,533.181Z" transform="translate(-135.133 -160.783)" fill="#a5c7dd"/>
    <path id="Path_22169" data-name="Path 22169" d="M479.154,589.915V558.279H450.685v31.636H438.47l26.45,26.45,26.45-26.45Z" transform="translate(-154.844 -206.734)" fill="#0b6c75"/>
    <path id="Path_22170" data-name="Path 22170" d="M495.059,636.041v1.74h28.468v-4.708C513.746,634.56,503.907,635.333,495.059,636.041Z" transform="translate(-199.217 -265.382)" fill="#085960"/>
    <path id="Path_22171" data-name="Path 22171" d="M479.154,654.884H450.686v10.783H438.47l26.45,26.45,26.45-26.45H479.154Z" transform="translate(-154.844 -282.486)" fill="#0b6c75"/>
    <path id="Path_22172" data-name="Path 22172" d="M546.077,731.287l-4.108-4.108,30.558-22.342Z" transform="translate(-236.001 -321.656)" fill="#075f67"/>
  </g>
</svg>
