<svg xmlns="http://www.w3.org/2000/svg" width="828.729" height="320.326" viewBox="0 0 828.729 320.326">
  <g id="Group_11761" data-name="Group 11761" transform="translate(0 -53.992)">
    <path id="Path_22659" data-name="Path 22659" d="M215.78,239.794l39.456-185.8L394.588,83.583l-39.456,185.8L215.78,239.794" transform="translate(231.278 0)" fill="#fff"/>
    <path id="Path_22660" data-name="Path 22660" d="M212.248,220.716,286.914,62.346l118.778,56L331.026,276.716l-118.778-56" transform="translate(227.492 8.954)" fill="#2f2260"/>
    <path id="Path_22661" data-name="Path 22661" d="M214.345,220.182,289.011,61.811l118.778,56L333.123,276.181l-118.778-56" transform="translate(229.74 8.381)" fill="#fff"/>
    <path id="Path_22662" data-name="Path 22662" d="M213.783,217.468,288.449,59.1l118.778,56L332.561,273.467l-118.778-56" transform="translate(229.137 5.473)" fill="#5d35b0"/>
    <path id="Path_22663" data-name="Path 22663" d="M329.974,114.6a5.212,5.212,0,0,0-7.007,2.291L306.575,149.21l-.744,1.471a1.449,1.449,0,1,1-2.584-1.311l.746-1.469,14.959-29.5a5.213,5.213,0,1,0-9.3-4.715l-14.961,29.5-.744,1.469a1.448,1.448,0,0,1-2.584-1.309l.746-1.471L302.3,121.786a5.213,5.213,0,1,0-9.3-4.715L275.842,150.9c-6.468,12.756-7.307,37.8-7.307,37.8l-7.084,13.966,25.073,12.717,46.061-97.7A5.2,5.2,0,0,0,329.974,114.6Z" transform="translate(280.229 55.783)" fill="#c1c1c1"/>
    <path id="Path_22664" data-name="Path 22664" d="M299.025,114.779a5.215,5.215,0,0,1,2.291,7.007l-10.189,20.088-.746,1.471a1.448,1.448,0,0,0,2.584,1.309l.746-1.469,14.959-29.5a5.213,5.213,0,1,1,9.3,4.715l-14.959,29.5-.746,1.469a1.449,1.449,0,0,0,2.584,1.311l.746-1.471,16.39-32.318a5.213,5.213,0,1,1,9.3,4.715l-16.39,32.32-.746,1.469a1.448,1.448,0,0,0,2.584,1.309l.746-1.469,13.27-26.167a5.213,5.213,0,0,1,7.009-2.291h0a5.214,5.214,0,0,1,2.291,7.007L319.8,173.7a5.169,5.169,0,0,1-.334.52l2.432-.133a4.543,4.543,0,0,0,4.146-3.363l1.162-4.33a4.546,4.546,0,0,1,8.867,1.974l-2.016,11.32a4.548,4.548,0,0,1-1.376,2.528L317.891,196a4.569,4.569,0,0,1-1.5.93l-18.734,7.04-7.084,13.968-30.1-15.269,7.084-13.966s.837-25.048,7.307-37.8l17.157-33.831A5.215,5.215,0,0,1,299.025,114.779Z" transform="translate(279.175 55.725)" fill="#ffe5c2"/>
    <rect id="Rectangle_10137" data-name="Rectangle 10137" width="40.568" height="18.906" transform="translate(568.101 282.902) rotate(-153.108)" fill="#fff"/>
    <path id="Path_22665" data-name="Path 22665" d="M282.572,273.048l45.951-90.6-48.866-24.783L223.951,273.048" transform="translate(247.404 101.269)" fill="#38464c"/>
    <circle id="Ellipse_364" data-name="Ellipse 364" cx="3.971" cy="3.971" r="3.971" transform="translate(558.129 287.744)" fill="#ffc928"/>
    <circle id="Ellipse_365" data-name="Ellipse 365" cx="3.971" cy="3.971" r="3.971" transform="translate(552.039 299.385)" fill="#ffc928"/>
    <path id="Path_22666" data-name="Path 22666" d="M27.51,88.389h401.1v53.525H27.51" transform="translate(29.486 34.332)" fill="none"/>
    <line id="Line_27" data-name="Line 27" x1="828.729" transform="translate(0 302.806)" fill="none"/>
    <line id="Line_28" data-name="Line 28" x2="828.729" transform="translate(0 302.806)" fill="none"/>
  </g>
</svg>
