<?xml version="1.0" encoding="utf-8"?>
<!-- Generator: Adobe Illustrator 23.0.1, SVG Export Plug-In . SVG Version: 6.00 Build 0)  -->
<svg version="1.1" id="_50_Real_Estate_Icons-19" xmlns="http://www.w3.org/2000/svg" xmlns:xlink="http://www.w3.org/1999/xlink"
	 x="0px" y="0px" viewBox="0 0 75 75" style="enable-background:new 0 0 75 75;" xml:space="preserve">
<style type="text/css">
	.st0{fill:#75A897;}
	.st1{fill:#C93A3A;}
	.st2{fill:#B9BDC2;}
	.st3{fill:#C9402E;}
	.st4{fill:#FFFFFF;}
	.st5{fill:#1F3049;}
	.st6{fill:#A32929;}
	.st7{fill:#5082A9;}
</style>
<g id="ICON" transform="translate(0 0)">
	<ellipse id="Ellipse_37" class="st0" cx="37.5" cy="37.5" rx="37.5" ry="37.5"/>
</g>
<g id="Layer_8" transform="translate(22.427 14.458)">
	<g id="Group_212">
		<g id="Group_206">
			<path id="Path_823" class="st1" d="M15.2,0C6.8,0,0,6.8,0,15.2c0,8.4,15.2,29.5,15.2,29.5s15.2-21.1,15.2-29.5
				C30.4,6.8,23.6,0,15.2,0C15.2,0,15.2,0,15.2,0z M15.2,27.3c-6.7,0-12.1-5.4-12.1-12.1S8.5,3.1,15.2,3.1c6.7,0,12.1,5.4,12.1,12.1
				c0,0,0,0,0,0C27.3,21.9,21.9,27.3,15.2,27.3z"/>
		</g>
		<g id="Group_211" transform="translate(6.121 7.05)">
			<g id="Group_210">
				<rect id="Rectangle_166" x="9.7" y="6" class="st2" width="7.6" height="8"/>
				<path id="Path_824" class="st3" d="M18.3,6.3L13.2,0H5.3l5.1,6.3H18.3z"/>
				<rect id="Rectangle_167" x="10.3" y="7" class="st4" width="7" height="7"/>
				<path id="Path_825" class="st2" d="M5.3,0.5L0.7,6v8H10V6L5.3,0.5z"/>
				<rect id="Rectangle_168" x="3.9" y="10" class="st5" width="2.8" height="4"/>
				<g id="Group_207">
					<path id="Path_826" class="st6" d="M0.1,6.3H1l4.4-5.1l4.4,5.1h1L5.3,0L0.1,6.3C0,6.3,0.1,6.2,0.1,6.3z"/>
				</g>
				<g id="Group_209" transform="translate(3.152 4.525)">
					<g id="Group_208">
						<rect id="Rectangle_169" x="0.4" y="0.4" class="st7" width="3.6" height="3.6"/>
						<rect id="Rectangle_170" x="2" y="0" class="st2" width="0.4" height="4.4"/>
						<rect id="Rectangle_171" x="0" y="2" class="st2" width="4.4" height="0.4"/>
					</g>
					<rect id="Rectangle_172" x="0.1" y="4.1" class="st6" width="4.2" height="0.6"/>
				</g>
			</g>
		</g>
	</g>
</g>
</svg>
