<?xml version="1.0" encoding="utf-8"?>
<!-- Generator: Adobe Illustrator 23.0.1, SVG Export Plug-In . SVG Version: 6.00 Build 0)  -->
<svg version="1.1" id="_50_Real_Estate_Icons-16" xmlns="http://www.w3.org/2000/svg" xmlns:xlink="http://www.w3.org/1999/xlink"
	 x="0px" y="0px" viewBox="0 0 74.9 75" style="enable-background:new 0 0 74.9 75;" xml:space="preserve">
<style type="text/css">
	.st0{fill:#CA6A46;}
	.st1{fill:#298063;}
	.st2{fill:#75A897;}
	.st3{fill:#C9402E;}
	.st4{fill:#A32929;}
	.st5{fill:#1F3049;}
	.st6{fill:#FFFFFF;}
	.st7{fill:#B8B8B8;}
	.st8{fill:#8998A0;}
</style>
<g id="ICON" transform="translate(0 0)">
	<ellipse id="Ellipse_32" class="st0" cx="37.5" cy="37.5" rx="37.5" ry="37.5"/>
</g>
<g id="Layer_8" transform="translate(13.986 19.388)">
	<g id="Group_173" transform="translate(19.458 12.421)">
		<rect id="Rectangle_142" x="16.2" y="9.9" class="st1" width="11.4" height="13.4"/>
		<rect id="Rectangle_143" x="17.2" y="11.6" class="st2" width="10.4" height="11.7"/>
		<path id="Path_793" class="st1" d="M8.9,0.9l-7.7,9v13.4h15.4V9.9L8.9,0.9z"/>
		<g id="Group_169">
			<path id="Path_794" class="st3" d="M29.3,10.4L20.9,0h-12l8.4,10.4L29.3,10.4z"/>
			<g id="Group_168">
				<path id="Path_795" class="st4" d="M0.2,10.4h1.5l7.3-8.6l7.3,8.6h1.6L8.9,0L0,10.4C0.1,10.4,0.1,10.4,0.2,10.4z"/>
			</g>
		</g>
		<g id="Group_172" transform="translate(20.716 12.362)">
			<rect id="Rectangle_144" x="0.8" y="6.7" class="st5" width="3" height="4.3"/>
			<g id="Group_171">
				<g id="Group_170">
					<rect id="Rectangle_145" x="0.4" y="0.4" class="st6" width="3.8" height="3.8"/>
					<rect id="Rectangle_146" x="2.1" y="0" class="st2" width="0.5" height="4.7"/>
					<rect id="Rectangle_147" x="0" y="2.1" class="st2" width="4.7" height="0.5"/>
				</g>
				<rect id="Rectangle_148" x="0.1" y="4.4" class="st4" width="4.6" height="0.6"/>
			</g>
		</g>
	</g>
	<g id="Group_184">
		<path id="Path_796" class="st0" d="M23.7,29.8H0V0h19l4.7,5.1L23.7,29.8z"/>
		<g id="Group_183" transform="translate(1.814 2.268)">
			<g id="Group_174">
				<path id="Path_797" class="st6" d="M20,25.2H0V0h16.1l4,4.3L20,25.2z"/>
				<path id="Path_798" class="st7" d="M20,4.3h-4V0L20,4.3z"/>
			</g>
			<g id="Group_182" transform="translate(2.341 2.926)">
				<g id="Group_175" transform="translate(0 3.233)">
					<rect id="Rectangle_149" x="0" y="0" class="st8" width="11.9" height="1.1"/>
				</g>
				<g id="Group_176" transform="translate(0 6.466)">
					<rect id="Rectangle_150" x="0" y="0" class="st8" width="11.9" height="1.1"/>
				</g>
				<g id="Group_177">
					<rect id="Rectangle_151" x="0" y="0" class="st8" width="11.9" height="1.1"/>
				</g>
				<g id="Group_178" transform="translate(0 12.918)">
					<rect id="Rectangle_152" x="0" y="0" class="st8" width="11.9" height="1.1"/>
				</g>
				<g id="Group_179" transform="translate(0 9.685)">
					<rect id="Rectangle_153" x="0" y="0" class="st8" width="11.9" height="1.1"/>
				</g>
				<g id="Group_180" transform="translate(0 19.37)">
					<rect id="Rectangle_154" x="0" y="0" class="st8" width="11.9" height="1.1"/>
				</g>
				<g id="Group_181" transform="translate(0 16.137)">
					<rect id="Rectangle_155" x="0" y="0" class="st8" width="11.9" height="1.1"/>
				</g>
			</g>
		</g>
	</g>
</g>
</svg>
