<?xml version="1.0" encoding="utf-8"?>
<!-- Generator: Adobe Illustrator 23.0.1, SVG Export Plug-In . SVG Version: 6.00 Build 0)  -->
<svg version="1.1" id="_50_Real_Estate_Icons-26" xmlns="http://www.w3.org/2000/svg" xmlns:xlink="http://www.w3.org/1999/xlink"
	 x="0px" y="0px" viewBox="0 0 75.2 75" style="enable-background:new 0 0 75.2 75;" xml:space="preserve">
<style type="text/css">
	.st0{fill:#1F3049;}
	.st1{fill:#5082A9;}
	.st2{fill:#CA6A46;}
	.st3{fill:#87B7DD;}
	.st4{fill:#A32929;}
	.st5{fill:#2B5F87;}
	.st6{fill:#E09C6F;}
	.st7{fill:#FFFFFF;}
	.st8{fill:#298063;}
</style>
<g id="ICON" transform="translate(0 0)">
	<ellipse id="Ellipse_51" class="st0" cx="37.6" cy="37.5" rx="37.6" ry="37.5"/>
</g>
<g id="Layer_8" transform="translate(15.263 16.44)">
	<g id="Group_280">
		<g id="Group_277" transform="translate(19.612 20.787)">
			<g id="Group_276">
				<rect id="Rectangle_201" x="13.5" y="8.3" class="st1" width="11.2" height="11.2"/>
				<path id="Path_867" class="st2" d="M26.2,8.7L19.1,0H7.4l7.1,8.7H26.2z"/>
				<rect id="Rectangle_202" x="14.4" y="9.7" class="st3" width="10.4" height="9.8"/>
				<path id="Path_868" class="st1" d="M7.4,0.7L1,8.3v11.2h12.9V8.3L7.4,0.7z"/>
				<g id="Group_273" transform="translate(0 0.015)">
					<path id="Path_869" class="st4" d="M0.1,8.7h1.2l6.1-7.1l6.1,7.1h1.3L7.4,0L0,8.7C0,8.7,0.1,8.7,0.1,8.7z"/>
				</g>
				<g id="Group_275" transform="translate(17.746 10.166)">
					<rect id="Rectangle_203" x="0.9" y="5.8" class="st5" width="3.1" height="3.6"/>
					<g id="Group_274">
						<ellipse id="Ellipse_52" class="st0" cx="2.4" cy="2.4" rx="2.1" ry="2.1"/>
						<rect id="Rectangle_204" x="2.1" y="0" class="st3" width="0.5" height="4.7"/>
						<rect id="Rectangle_205" x="0" y="2.1" class="st3" width="4.7" height="0.5"/>
					</g>
				</g>
			</g>
		</g>
		<g id="Group_279">
			<path id="Path_870" class="st6" d="M11.3,0l-2,2.7v37.2h4V2.7L11.3,0z"/>
			<ellipse id="Ellipse_53" class="st7" cx="11.3" cy="15.6" rx="11.3" ry="11.3"/>
			<g id="Group_278" transform="translate(5.509 10.239)">
				<path id="Path_871" class="st8" d="M2.5,5.4c-0.7,0-1.3-0.2-1.8-0.7C0.2,4.2,0,3.5,0,2.8c0-0.8,0.2-1.5,0.7-2.1
					C1.2,0.2,1.9,0,2.6,0C3.3,0,4,0.2,4.5,0.7c0.5,0.5,0.7,1.2,0.6,1.9c0,0.7-0.2,1.5-0.7,2C3.9,5.2,3.2,5.5,2.5,5.4z M10.1,0.2
					L3.3,10.6H1.5L8.3,0.2H10.1z M2.6,1.3c-0.7,0-1.1,0.5-1.1,1.5c0,0.9,0.3,1.4,1,1.4s1-0.5,1-1.5C3.6,1.8,3.3,1.3,2.6,1.3L2.6,1.3
					z M9,10.7c-0.7,0-1.3-0.2-1.8-0.7C6.7,9.5,6.5,8.8,6.5,8.1c0-0.8,0.2-1.5,0.7-2.1c0.5-0.5,1.2-0.8,1.9-0.8
					c0.7,0,1.3,0.2,1.8,0.7c0.5,0.5,0.7,1.2,0.6,1.9c0,0.8-0.2,1.5-0.7,2.1C10.4,10.5,9.7,10.8,9,10.7L9,10.7z M9.1,6.6
					C8.4,6.6,8,7.1,8,8C8,9,8.4,9.4,9,9.4s1-0.5,1-1.5c0-0.4-0.1-0.7-0.3-1C9.6,6.7,9.4,6.6,9.1,6.6L9.1,6.6z"/>
			</g>
		</g>
	</g>
</g>
</svg>
