<svg id="_50_Real_Estate_Icons-23" data-name="50 Real Estate Icons-23" xmlns="http://www.w3.org/2000/svg" width="46.108" height="46" viewBox="0 0 46.108 46">
  <g id="ICON" transform="translate(0 0)">
    <ellipse id="Ellipse_45" data-name="Ellipse 45" cx="23.054" cy="23" rx="23.054" ry="23" fill="#5082a9"/>
  </g>
  <g id="Layer_8" transform="translate(10.861 11.03)">
    <g id="Group_249" data-name="Group 249">
      <g id="Group_240" data-name="Group 240">
        <path id="Path_843" data-name="Path 843" d="M121,122h16.417v21.325H124.692L121,138.75Z" transform="translate(-121 -122)" fill="#da8b80"/>
        <path id="Path_844" data-name="Path 844" d="M121,308h3.692v4.575Z" transform="translate(-121 -291.25)" fill="#ca6a46"/>
      </g>
      <g id="Group_248" data-name="Group 248" transform="translate(4.377 1.693)">
        <g id="Group_241" data-name="Group 241" transform="translate(0 13.517)">
          <rect id="Rectangle_191" data-name="Rectangle 191" width="10.753" height="0.946" fill="#fff"/>
        </g>
        <g id="Group_242" data-name="Group 242" transform="translate(0 10.816)">
          <rect id="Rectangle_192" data-name="Rectangle 192" width="10.753" height="0.946" fill="#fff"/>
        </g>
        <g id="Group_243" data-name="Group 243" transform="translate(0 16.219)">
          <rect id="Rectangle_193" data-name="Rectangle 193" width="10.753" height="0.946" fill="#fff"/>
        </g>
        <g id="Group_244" data-name="Group 244" transform="translate(0 5.403)">
          <rect id="Rectangle_194" data-name="Rectangle 194" width="10.753" height="0.937" fill="#fff"/>
        </g>
        <g id="Group_245" data-name="Group 245" transform="translate(0 8.105)">
          <rect id="Rectangle_195" data-name="Rectangle 195" width="10.753" height="0.937" fill="#fff"/>
        </g>
        <g id="Group_246" data-name="Group 246" transform="translate(0 2.702)">
          <rect id="Rectangle_196" data-name="Rectangle 196" width="10.753" height="0.946" fill="#fff"/>
        </g>
        <g id="Group_247" data-name="Group 247">
          <rect id="Rectangle_197" data-name="Rectangle 197" width="10.753" height="0.946" fill="#fff"/>
        </g>
      </g>
    </g>
    <g id="Group_261" data-name="Group 261" transform="translate(8.123 4.809)">
      <path id="Path_845" data-name="Path 845" d="M228.058,195.311a1.388,1.388,0,0,1-.991-.432l-.225-.225h-.153L221.9,189.89v-.153l-6.9-7.1-3.8-7.24,7.249,3.773,6.9,7.1h.153l4.782,4.764v.153l.225.225a1.426,1.426,0,0,1,.432.991,1.167,1.167,0,0,1-.324.811l-1.756,1.765A1.1,1.1,0,0,1,228.058,195.311Z" transform="translate(-211.2 -175.4)" fill="#5082a9"/>
      <g id="Group_260" data-name="Group 260" transform="translate(1.252 1.252)">
        <g id="Group_250" data-name="Group 250">
          <path id="Path_846" data-name="Path 846" d="M230.17,191.939,225.1,189.3l2.657,5.061Z" transform="translate(-225.1 -189.3)" fill="#f2d1b4"/>
        </g>
        <g id="Group_251" data-name="Group 251" transform="translate(0.018 0.018)">
          <path id="Path_847" data-name="Path 847" d="M227.281,190.527,225.3,189.5l1.036,1.981Z" transform="translate(-225.3 -189.5)" fill="#1f3049"/>
        </g>
        <g id="Group_252" data-name="Group 252" transform="translate(2.521 2.491)">
          <path id="Path_848" data-name="Path 848" d="M254.825,217.093a.629.629,0,0,0,.072.829l-.045.045a.545.545,0,1,0-.756.765l-.045.045a.627.627,0,0,0-.829-.063.637.637,0,0,0,.063.829l-.018.018,11.941,12.112a.552.552,0,0,0,.756.1l1.756-1.765a.546.546,0,0,0-.108-.756l-11.941-12.112-.018.018A.627.627,0,0,0,254.825,217.093Z" transform="translate(-253.096 -216.963)" fill="#1f3049"/>
        </g>
        <g id="Group_253" data-name="Group 253" transform="translate(13.238 13.391)">
          <path id="Path_849" data-name="Path 849" d="M372.1,340.422l1.387,1.387a.552.552,0,0,0,.756.1L376,340.143a.546.546,0,0,0-.108-.756L374.5,338Z" transform="translate(-372.1 -338)" fill="#fff"/>
        </g>
        <g id="Group_259" data-name="Group 259" transform="translate(10.212 10.383)">
          <g id="Group_254" data-name="Group 254">
            <path id="Path_850" data-name="Path 850" d="M338.5,307.167l2.558-2.567,3.287,3.278-2.558,2.567Z" transform="translate(-338.5 -304.6)" fill="#75a897"/>
          </g>
          <g id="Group_258" data-name="Group 258" transform="translate(0.639 0.639)">
            <g id="Group_255" data-name="Group 255" transform="translate(1.783 1.774)">
              <path id="Path_851" data-name="Path 851" d="M365.4,333.967l2.549-2.567.234.225-2.558,2.567Z" transform="translate(-365.4 -331.4)" fill="#298063"/>
            </g>
            <g id="Group_256" data-name="Group 256" transform="translate(0.892 0.892)">
              <path id="Path_852" data-name="Path 852" d="M355.5,324.158l2.549-2.558.234.225-2.558,2.558Z" transform="translate(-355.5 -321.6)" fill="#298063"/>
            </g>
            <g id="Group_257" data-name="Group 257">
              <path id="Path_853" data-name="Path 853" d="M345.6,314.258l2.549-2.558.234.225-2.558,2.567Z" transform="translate(-345.6 -311.7)" fill="#298063"/>
            </g>
          </g>
        </g>
      </g>
    </g>
  </g>
</svg>
