<?xml version="1.0" encoding="utf-8"?>
<!-- Generator: Adobe Illustrator 23.0.1, SVG Export Plug-In . SVG Version: 6.00 Build 0)  -->
<svg version="1.1" id="Слой_1" xmlns="http://www.w3.org/2000/svg" xmlns:xlink="http://www.w3.org/1999/xlink" x="0px" y="0px"
	 viewBox="0 0 800 450" style="enable-background:new 0 0 800 450;" xml:space="preserve">
<style type="text/css">
	.st0{fill:#D7ECF4;}
	.st1{fill:#D0D654;}
	.st2{fill:#9E7A7A;}
	.st3{fill:#88CC75;}
	.st4{fill:#7C7C7C;}
	.st5{fill:#FFF4E6;}
	.st6{fill:#FCDFCD;}
	.st7{fill:#8E7272;}
	.st8{opacity:0.15;enable-background:new    ;}
	.st9{fill:#4E9FA8;}
	.st10{fill:#FFFCF8;}
	.st11{fill:#448D99;}
	.st12{fill:#B7A5A5;}
	.st13{fill:#7C5D5D;}
	.st14{fill:#B2AEAB;}
	.st15{fill:#CECECE;}
	.st16{fill:#DDDBDB;}
	.st17{fill:#F5F5F5;}
	.st18{fill-rule:evenodd;clip-rule:evenodd;fill:#FFB448;}
	.st19{fill-rule:evenodd;clip-rule:evenodd;fill:#BBDCF9;}
	.st20{fill-rule:evenodd;clip-rule:evenodd;fill:#F29E38;}
	.st21{fill-rule:evenodd;clip-rule:evenodd;fill:#DD8D36;}
	.st22{fill:#565555;}
	.st23{fill:#DAE9EF;}
	.st24{fill-rule:evenodd;clip-rule:evenodd;fill:#686868;}
	.st25{fill-rule:evenodd;clip-rule:evenodd;fill:#565555;}
	.st26{fill-rule:evenodd;clip-rule:evenodd;fill:#DAE9EF;}
	.st27{fill-rule:evenodd;clip-rule:evenodd;fill:#FFF5E1;}
	.st28{fill:#7B8B9B;}
	.st29{fill:#91C6E2;}
	.st30{fill:#A1E0FF;}
	.st31{fill:#FFC9A4;}
	.st32{fill:#6091D8;}
	.st33{fill:#AA8B83;}
	.st34{fill:#76A8E5;}
	.st35{fill:#8BC34A;}
	.st36{opacity:0.432;fill:#EFF6F8;enable-background:new    ;}
	.st37{opacity:0.278;fill:#F8FFFF;enable-background:new    ;}
	.st38{fill:#B2877F;}
	.st39{fill:#A3786D;}
	.st40{fill:#80C16B;}
	.st41{fill:#79B264;}
</style>
<rect class="st0" width="800" height="450"/>
<path id="Path_5620" class="st1" d="M184,418.7c-27.5-17.4-59.4-26.6-92-26.6l0,0c-32.6,0-64.5,9.2-92,26.6H184z"/>
<g id="Group_2782" transform="translate(614.612 364.393)">
	<path id="Path_3161" class="st2" d="M-512.6,31.7c-2.2-41.6-2-37.7-2-39l0,0.5l0-0.5c0,1.4,0.2-2.6-2,39H-512.6z"/>
	<path id="Path_3162" class="st3" d="M-505-23.2l-7.7,0.6l6.6-3.8c-0.9-2.6-5.7-16-8.5-16c-3.2,0.1-10,19-13.1,31.5l7.8,2.9
		l-8.5-0.3c-0.5,2.1-0.8,4.2-0.9,6.3c0,8,6.5,14.6,14.6,14.6h0C-506.5,12.6-500,6-500-2C-500-5.8-502.2-14.7-505-23.2z"/>
</g>
<g id="Group_2783" transform="translate(597.436 364.863)">
	<path id="Path_3163" class="st2" d="M-533.6,31.2c-2.2-41-2-37.1-2-38.5l0,0.5l0-0.5c0,1.3,0.2-2.6-2,38.5H-533.6z"/>
	<path id="Path_3164" class="st3" d="M-526.1-22.9l-7.6,0.6l6.5-3.8c-0.9-2.6-5.6-15.8-8.4-15.8c-3.1,0.1-9.9,18.8-12.9,31l7.7,2.9
		l-8.3-0.3c-0.5,2-0.8,4.1-0.9,6.2c0,7.9,6.4,14.4,14.3,14.4h0c7.9,0,14.4-6.4,14.4-14.4l0,0C-521.1-5.7-523.3-14.5-526.1-22.9z"/>
</g>
<path id="Path_5619" class="st4" d="M799.9,432.9L6.8,433.6c0,0-4.4-14.5,1.7-14.5l70.3-2l710.3,2
	C795,419.1,799.9,425.3,799.9,432.9z"/>
<g id="Group_2784" transform="translate(660.109 338.708)">
	<rect id="Rectangle_1445" x="-362.4" y="-61.3" class="st5" width="81.4" height="135.5"/>
	<rect id="Rectangle_1446" x="-468.5" y="-61.3" class="st6" width="106.5" height="135.5"/>
	<rect id="Rectangle_1447" x="-281.4" y="-8.2" class="st6" width="87.5" height="82.4"/>
	<rect id="Rectangle_1448" x="-281.4" y="-61.3" class="st6" width="87.5" height="53.1"/>
	<g id="Group_1423" transform="translate(12.299 48.117)">
		<rect id="Rectangle_1449" x="-459.4" y="-15.3" class="st7" width="57.9" height="41.3"/>
		<rect id="Rectangle_1450" x="-430.5" y="-15.3" class="st8" width="28.9" height="41.3"/>
		<path id="Path_3206" class="st8" d="M-401.4-15.3l-58,0.1v41.4h3.6v-37.7h54.3L-401.4-15.3z"/>
	</g>
	<g id="Group_1425" transform="translate(64.412 37.949)">
		<rect id="Rectangle_1451" x="-396.5" y="-24.7" class="st9" width="123.1" height="60.9"/>
		<g id="Group_1424" transform="translate(0.021)">
			<path id="Path_3207" class="st6" d="M-270.4-27.6l-3.3,3.3h-122.8v-3.3v-0.1L-270.4-27.6z"/>
			<path id="Path_3208" class="st10" d="M-273.7-24.3v60.6l3.3,0v-63.8L-273.7-24.3z"/>
		</g>
		<rect id="Rectangle_1452" x="-298.7" y="-24.1" class="st11" width="1.8" height="60.3"/>
		<rect id="Rectangle_1453" x="-324.8" y="-24.1" class="st11" width="1.8" height="60.3"/>
		<rect id="Rectangle_1454" x="-277.3" y="-24.1" class="st11" width="3.6" height="60.3"/>
		<rect id="Rectangle_1455" x="-396.1" y="-2.6" class="st11" width="122.3" height="1.8"/>
		<rect id="Rectangle_1456" x="-396.5" y="-24.4" class="st11" width="122.6" height="3.6"/>
		<rect id="Rectangle_1457" x="-394.9" y="-21.3" class="st9" width="49.6" height="57.5"/>
		<rect id="Rectangle_1458" x="-396.1" y="-2.6" class="st11" width="50.7" height="1.8"/>
		<rect id="Rectangle_1459" x="-396.5" y="-27.5" class="st6" width="51" height="3.1"/>
		<rect id="Rectangle_1460" x="-393.2" y="-24.4" class="st11" width="47.8" height="3.5"/>
		<rect id="Rectangle_1461" x="-369.4" y="-24.1" class="st11" width="1.8" height="60.3"/>
		<rect id="Rectangle_1462" x="-393.3" y="-24.1" class="st11" width="3.6" height="60.3"/>
		<path id="Path_3209" class="st10" d="M-393.2-24.3v60.6l-3.3,0v-63.8L-393.2-24.3z"/>
	</g>
	<rect id="Rectangle_1463" x="-261.5" y="-37.6" class="st9" width="42.3" height="29.4"/>
	<g id="Group_1426" transform="translate(96.387 12.797)">
		<path id="Path_3210" class="st6" d="M-308.2-58l-7.8,7.8h-41.9v-3.3V-58L-308.2-58z"/>
		<path id="Path_3211" class="st10" d="M-315.8-50.4V-21l7.7,0V-58L-315.8-50.4z"/>
	</g>
	<rect id="Rectangle_1464" x="-223.2" y="-37" class="st11" width="3.6" height="28.8"/>
	<rect id="Rectangle_1465" x="-261.5" y="-37.3" class="st11" width="41.9" height="3.6"/>
	<rect id="Rectangle_1466" x="-281.3" y="10.6" class="st6" width="2" height="63.6"/>
	<rect id="Rectangle_1467" x="-283.1" y="10.6" class="st6" width="2" height="63.6"/>
	<rect id="Rectangle_1468" x="-281.4" y="-8.9" class="st7" width="98" height="1.8"/>
	<rect id="Rectangle_1469" x="-468.5" y="-61.5" class="st8" width="274.4" height="3.6"/>
	<rect id="Rectangle_1470" x="-281.4" y="-7.1" class="st7" width="98" height="14.2"/>
	<rect id="Rectangle_1471" x="-281.5" y="-8.9" class="st12" width="13" height="1.8"/>
	<rect id="Rectangle_1472" x="-281.5" y="-7.1" class="st12" width="13" height="14.3"/>
	<g id="Group_1428" transform="translate(12.36 15.214)">
		<rect id="Rectangle_1473" x="-456.4" y="-52.1" class="st9" width="53.7" height="50.4"/>
		<g id="Group_1427">
			<path id="Path_3212" class="st6" d="M-459.3-55.1l3.3,3.3h53.4V-55v-0.1L-459.3-55.1z"/>
			<path id="Path_3213" class="st10" d="M-456.1-51.8v50l-3.3,0V-55L-456.1-51.8z"/>
		</g>
		<rect id="Rectangle_1474" x="-421" y="-51.7" class="st11" width="1.8" height="49.8"/>
		<rect id="Rectangle_1475" x="-439.8" y="-51.7" class="st11" width="1.8" height="49.8"/>
		<rect id="Rectangle_1476" x="-456.1" y="-51.7" class="st11" width="3.6" height="49.8"/>
		<rect id="Rectangle_1477" x="-455.9" y="-28.9" class="st11" width="52.9" height="1.8"/>
		<rect id="Rectangle_1478" x="-455.9" y="-51.8" class="st11" width="53.2" height="3.6"/>
	</g>
	<rect id="Rectangle_1479" x="-474.2" y="-73.4" class="st13" width="102.5" height="12.1"/>
	<rect id="Rectangle_1480" x="-289.8" y="-73.4" class="st13" width="102.5" height="12.1"/>
	<rect id="Rectangle_1481" x="-372.1" y="-73.4" class="st7" width="101.4" height="12.1"/>
	<rect id="Rectangle_1482" x="-474.2" y="72.9" class="st14" width="102.5" height="6.1"/>
	<rect id="Rectangle_1483" x="-289.8" y="72.9" class="st14" width="102.5" height="6.1"/>
	<rect id="Rectangle_1484" x="-372.1" y="72.9" class="st15" width="101.4" height="6.1"/>
</g>
<g id="Group_2786" transform="translate(728.483 394.161)">
	<g id="Group_1482" transform="translate(19.857)">
		<g id="Group_1474" transform="translate(0 5.178)">
			<g id="Group_1473">
				<rect id="Rectangle_1578" x="-367.8" y="-0.2" class="st16" width="44.7" height="2.3"/>
			</g>
		</g>
		<g id="Group_1476" transform="translate(0 9.614)">
			<g id="Group_1475">
				<rect id="Rectangle_1579" x="-367.8" y="5.1" class="st16" width="44.7" height="2.3"/>
			</g>
		</g>
		<g id="Group_1477" transform="translate(1.383 2.324)">
			<path id="Path_3294" class="st17" d="M-362.8,20.5h-3.3V-1l1.6-2.7l1.6,2.7L-362.8,20.5z"/>
		</g>
		<g id="Group_1478" transform="translate(5.359 1.217)">
			<path id="Path_3295" class="st17" d="M-358,21.6h-3.3V-2.3l1.6-2.7l1.6,2.7L-358,21.6z"/>
		</g>
		<g id="Group_1479" transform="translate(9.335)">
			<path id="Path_3296" class="st17" d="M-353.2,22.8h-3.3V-3.8l1.6-2.7l1.6,2.7L-353.2,22.8z"/>
		</g>
		<g id="Group_1480" transform="translate(13.311 1.217)">
			<path id="Path_3297" class="st17" d="M-348.4,21.6h-3.3V-2.3l1.6-2.7l1.6,2.7L-348.4,21.6z"/>
		</g>
		<g id="Group_1481" transform="translate(17.288 2.324)">
			<path id="Path_3298" class="st17" d="M-343.6,20.5h-3.3V-1l1.6-2.7l1.6,2.7L-343.6,20.5z"/>
		</g>
	</g>
	<g id="Group_1492" transform="translate(39.802)">
		<g id="Group_1484" transform="translate(0 5.178)">
			<g id="Group_1483">
				<rect id="Rectangle_1580" x="-343.7" y="-0.2" class="st16" width="44.7" height="2.3"/>
			</g>
		</g>
		<g id="Group_1486" transform="translate(0 9.614)">
			<g id="Group_1485">
				<rect id="Rectangle_1581" x="-343.7" y="5.1" class="st16" width="44.7" height="2.3"/>
			</g>
		</g>
		<g id="Group_1487" transform="translate(1.383 2.324)">
			<path id="Path_3299" class="st17" d="M-338.7,20.5h-3.3V-1l1.6-2.7l1.6,2.7L-338.7,20.5z"/>
		</g>
		<g id="Group_1488" transform="translate(5.359 1.217)">
			<path id="Path_3300" class="st17" d="M-333.9,21.6h-3.3V-2.3l1.6-2.7l1.6,2.7V21.6z"/>
		</g>
		<g id="Group_1489" transform="translate(9.335)">
			<path id="Path_3301" class="st17" d="M-329.1,22.8h-3.3V-3.8l1.6-2.7l1.6,2.7V22.8z"/>
		</g>
		<g id="Group_1490" transform="translate(13.311 1.217)">
			<path id="Path_3302" class="st17" d="M-324.3,21.6h-3.3V-2.3L-326-5l1.6,2.7V21.6z"/>
		</g>
		<g id="Group_1491" transform="translate(17.287 2.324)">
			<path id="Path_3303" class="st17" d="M-319.5,20.5h-3.3V-1l1.6-2.7l1.6,2.7V20.5z"/>
		</g>
	</g>
	<g id="Group_1502">
		<g id="Group_1494" transform="translate(0 5.178)">
			<g id="Group_1493">
				<rect id="Rectangle_1582" x="-391.7" y="-0.2" class="st16" width="44.7" height="2.3"/>
			</g>
		</g>
		<g id="Group_1496" transform="translate(0 9.614)">
			<g id="Group_1495">
				<rect id="Rectangle_1583" x="-391.7" y="5.1" class="st16" width="44.7" height="2.3"/>
			</g>
		</g>
		<g id="Group_1497" transform="translate(1.383 2.324)">
			<path id="Path_3304" class="st17" d="M-386.8,20.5h-3.3V-1l1.6-2.7l1.6,2.7L-386.8,20.5z"/>
		</g>
		<g id="Group_1498" transform="translate(5.359 1.217)">
			<path id="Path_3305" class="st17" d="M-382,21.6h-3.3V-2.3l1.6-2.7l1.6,2.7L-382,21.6z"/>
		</g>
		<g id="Group_1499" transform="translate(9.335)">
			<path id="Path_3306" class="st17" d="M-377.2,22.8h-3.3V-3.8l1.6-2.7l1.6,2.7L-377.2,22.8z"/>
		</g>
		<g id="Group_1500" transform="translate(13.311 1.217)">
			<path id="Path_3307" class="st17" d="M-372.4,21.6h-3.3V-2.3L-374-5l1.6,2.7L-372.4,21.6z"/>
		</g>
		<g id="Group_1501" transform="translate(17.287 2.324)">
			<path id="Path_3308" class="st17" d="M-367.6,20.5h-3.3V-1l1.6-2.7l1.6,2.7L-367.6,20.5z"/>
		</g>
	</g>
</g>
<g id="Group_2787" transform="translate(793.942 386.192)">
	<path id="Path_3309" class="st18" d="M-312.7,19.2c-0.1,3.6,2.8,6.6,6.4,6.6c0.1,0,0.2,0,0.3,0h107.2l6.6-1.3
		c3.6-0.7,6.6-3,6.6-6.6c0-6.7,1.2-18.6-3.4-26c-5.3-8.6-40-9.2-58.8-6.6C-262-12.8-268.4-7.5-279.7-3
		C-301.9,6-310.9-6.1-312.7,19.2z"/>
	<path id="Path_3310" class="st19" d="M-196.4-7.7c-6.2-4.9-22.1-5.7-28.6-5.7c-8.8-0.2-17.6,0.6-26.3,2.4
		c-8.2,1.9-15.8,5.6-22.3,10.8l80.5-1.7C-193.6-4.1-194.8-6.2-196.4-7.7z"/>
	<path id="Path_3311" class="st20" d="M-196.4-7.7c-6.2-4.9-22.1-5.7-28.6-5.7c-8.8-0.2-17.6,0.6-26.3,2.4
		c-8.2,1.9-15.8,5.6-22.3,10.8l80.5-1.7C-193.6-4.1-194.8-6.2-196.4-7.7L-196.4-7.7z M-270.8-1.2c5.9-4.2,12.6-7.3,19.7-8.9
		c8.6-1.8,17.3-2.6,26.1-2.4c7.2,0,22.3,1,28.1,5.5c1.2,1.1,2.1,2.6,2.6,4.2L-270.8-1.2z"/>
	<path id="Path_3312" class="st20" d="M-295.7,6.6h7.8c5.5,0,9,3.9,10.7,8.6h52.8c1.7-4.7,5.2-8.6,10.7-8.6h7.8
		c4.9,0.2,9.1,3.4,10.5,8l3.8-0.8c2.3-0.5,4.4-1.7,6.1-3.4c0,2.7-0.1,5.3-0.1,7.3c0,3.7-3.1,5.9-6.6,6.6l-6.6,1.3h-107.2
		c-3.6,0.1-6.6-2.8-6.6-6.4c0-0.1,0-0.2,0-0.3c0.1-2.1,0.4-4.3,0.8-6.4c1.4,1.4,3.2,2.2,5.2,2.4h0.3
		C-304.8,10.5-301.2,6.6-295.7,6.6z"/>
	<path id="Path_3313" class="st21" d="M-213.7,8.6h7.8c5.2,0,8.3,4.3,9.4,9.4c0.2,0.9,0.5,2,0.7,3.2l3.4-0.7
		c2.5-0.4,4.8-1.6,6.6-3.3c0,0.2,0,0.4,0,0.6c0,3.7-3.1,5.9-6.6,6.6L-195,25l0,0l-3.7,0.8h0l-0.1,0h-107.2c-3.6,0.1-6.6-2.8-6.6-6.4
		c0-0.1,0-0.2,0-0.3c0-0.2,0-0.3,0-0.4c1.8,1.8,4.1,2.9,6.6,3.1h0.1l0.8-3.8c1.1-5.1,4.2-9.4,9.4-9.4h7.8c5.2,0,8.3,4.3,9.4,9.4
		l0.8,3.8h53.8l0.8-3.8C-222,12.9-218.9,8.6-213.7,8.6z"/>
	<ellipse id="Ellipse_147" class="st22" cx="-291.8" cy="23.2" rx="10.7" ry="10.7"/>
	<ellipse id="Ellipse_148" class="st23" cx="-291.8" cy="23.2" rx="6.8" ry="6.8"/>
	<path id="Path_3314" class="st24" d="M-291.8,22.6c0.4,0,0.7,0.3,0.7,0.7c0,0.4-0.3,0.7-0.7,0.7c-0.4,0-0.7-0.3-0.7-0.7l0,0
		C-292.5,22.9-292.2,22.6-291.8,22.6z M-290.1,18.1c1.2,0.4,2.2,1.2,2.8,2.3c-0.1,0.3-0.3,0.5-0.6,0.7c-0.6,0.2-1.2,0.3-1.8,0.1
		c-0.7-0.1-0.8-0.1-0.9-0.9c-0.1-0.6-0.1-1.2,0.1-1.8C-290.3,18.4-290.2,18.3-290.1,18.1L-290.1,18.1z M-286.4,23.6
		c-0.1,1.2-0.6,2.4-1.4,3.3c-0.3,0-0.6-0.2-0.8-0.4c-0.3-0.5-0.6-1.1-0.6-1.7c-0.1-0.8,0-0.9,0.6-1.1c0.6-0.3,1.2-0.4,1.8-0.3
		C-286.7,23.4-286.6,23.5-286.4,23.6L-286.4,23.6z M-290,28.3c-1.2,0.4-2.5,0.4-3.7,0c0-0.2,0-0.4,0-0.7c0.3-0.6,0.7-1,1.2-1.4
		c0.6-0.4,0.7-0.5,1.3,0c0.5,0.3,0.9,0.8,1.2,1.4C-290,27.9-290,28.1-290,28.3L-290,28.3z M-295.8,26.9c-0.8-0.9-1.4-2.1-1.4-3.3
		c0.1-0.1,0.3-0.2,0.4-0.2c0.6-0.1,1.2,0.1,1.8,0.3c0.7,0.3,0.8,0.4,0.6,1.1c-0.1,0.6-0.3,1.2-0.6,1.7
		C-295.2,26.7-295.5,26.9-295.8,26.9L-295.8,26.9z M-296.4,20.4c0.7-1.1,1.6-1.9,2.8-2.3c0.1,0.1,0.3,0.3,0.3,0.4
		c0.2,0.6,0.3,1.2,0.1,1.8c-0.1,0.8-0.2,0.8-0.9,0.9c-0.6,0.1-1.2,0.1-1.8-0.1C-296.1,20.9-296.3,20.7-296.4,20.4L-296.4,20.4z
		 M-291.8,24.7c0.2,0,0.4,0.2,0.4,0.4s-0.2,0.4-0.4,0.4s-0.4-0.2-0.4-0.4v0C-292.2,24.9-292.1,24.7-291.8,24.7z M-290.2,23.5
		c0.2,0,0.4,0.2,0.4,0.4c0,0.2-0.2,0.4-0.4,0.4c-0.2,0-0.4-0.2-0.4-0.4C-290.6,23.7-290.4,23.5-290.2,23.5
		C-290.2,23.5-290.2,23.5-290.2,23.5z M-293.5,23.5c0.2,0,0.4,0.2,0.4,0.4c0,0.2-0.2,0.4-0.4,0.4c-0.2,0-0.4-0.2-0.4-0.4
		C-293.9,23.7-293.7,23.5-293.5,23.5C-293.5,23.5-293.5,23.5-293.5,23.5z M-290.7,21.4c0.2,0,0.4,0.2,0.4,0.4s-0.2,0.4-0.4,0.4
		c-0.2,0-0.4-0.2-0.4-0.4c0,0,0,0,0,0C-291.1,21.6-291,21.4-290.7,21.4C-290.7,21.4-290.7,21.4-290.7,21.4z M-292.9,21.4
		c0.2,0,0.4,0.2,0.4,0.4s-0.2,0.4-0.4,0.4s-0.4-0.2-0.4-0.4v0C-293.3,21.6-293.1,21.4-292.9,21.4C-292.9,21.4-292.9,21.4-292.9,21.4
		L-292.9,21.4z"/>
	<path id="Path_3315" class="st25" d="M-209.8,33.9c5.9,0,10.7-4.8,10.7-10.7c0-5.9-4.8-10.7-10.7-10.7c-5.9,0-10.7,4.8-10.7,10.7
		C-220.5,29.1-215.7,33.9-209.8,33.9z"/>
	<path id="Path_3316" class="st26" d="M-209.8,30c3.8,0,6.8-3.1,6.8-6.8s-3.1-6.8-6.8-6.8c-3.8,0-6.8,3.1-6.8,6.8c0,0,0,0,0,0
		C-216.6,26.9-213.6,30-209.8,30z"/>
	<path id="Path_3317" class="st24" d="M-209.8,22.6c0.4,0,0.7,0.3,0.7,0.7c0,0.4-0.3,0.7-0.7,0.7s-0.7-0.3-0.7-0.7l0,0
		C-210.5,22.9-210.2,22.6-209.8,22.6z M-208,18.1c1.2,0.4,2.2,1.2,2.8,2.3c-0.1,0.3-0.3,0.5-0.6,0.7c-0.6,0.2-1.2,0.3-1.8,0.1
		c-0.7-0.1-0.8-0.1-0.9-0.9c-0.1-0.6-0.1-1.2,0.1-1.8C-208.3,18.4-208.2,18.3-208,18.1L-208,18.1z M-204.4,23.6
		c-0.1,1.2-0.6,2.4-1.4,3.3c-0.3,0-0.6-0.2-0.8-0.4c-0.3-0.5-0.6-1.1-0.6-1.7c-0.1-0.8,0-0.9,0.6-1.1c0.6-0.3,1.2-0.4,1.8-0.3
		C-204.7,23.4-204.6,23.5-204.4,23.6L-204.4,23.6z M-208,28.3c-1.2,0.4-2.5,0.4-3.7,0c0-0.2,0-0.4,0-0.7c0.3-0.6,0.7-1,1.2-1.4
		c0.6-0.4,0.7-0.5,1.3,0c0.5,0.3,0.9,0.8,1.2,1.4C-207.9,27.9-207.9,28.1-208,28.3L-208,28.3z M-213.8,26.9
		c-0.9-0.9-1.4-2.1-1.4-3.3c0.1-0.1,0.3-0.2,0.4-0.2c0.6-0.1,1.2,0.1,1.8,0.3c0.7,0.3,0.8,0.4,0.6,1.1c-0.1,0.6-0.3,1.2-0.6,1.7
		C-213.2,26.7-213.5,26.9-213.8,26.9L-213.8,26.9z M-214.4,20.4c0.7-1.1,1.6-1.9,2.8-2.3c0.1,0.1,0.3,0.3,0.3,0.4
		c0.2,0.6,0.3,1.2,0.1,1.8c-0.1,0.8-0.2,0.8-0.9,0.9c-0.6,0.1-1.2,0.1-1.8-0.1C-214.1,20.9-214.3,20.7-214.4,20.4L-214.4,20.4z
		 M-209.8,24.7c0.2,0,0.4,0.2,0.4,0.4s-0.2,0.4-0.4,0.4c-0.2,0-0.4-0.2-0.4-0.4v0C-210.2,24.9-210,24.7-209.8,24.7z M-208.2,23.5
		c0.2,0,0.4,0.2,0.4,0.4c0,0.2-0.2,0.4-0.4,0.4c-0.2,0-0.4-0.2-0.4-0.4C-208.6,23.7-208.4,23.5-208.2,23.5
		C-208.2,23.5-208.2,23.5-208.2,23.5z M-211.4,23.5c0.2,0,0.4,0.2,0.4,0.4c0,0.2-0.2,0.4-0.4,0.4c-0.2,0-0.4-0.2-0.4-0.4
		C-211.8,23.7-211.6,23.5-211.4,23.5C-211.4,23.5-211.4,23.5-211.4,23.5z M-208.7,21.4c0.2,0,0.4,0.2,0.4,0.4s-0.2,0.4-0.4,0.4
		c-0.2,0-0.4-0.2-0.4-0.4v0C-209.1,21.6-208.9,21.4-208.7,21.4C-208.7,21.4-208.7,21.4-208.7,21.4z M-210.9,21.4
		c0.2,0,0.4,0.2,0.4,0.4c0,0.2-0.2,0.4-0.4,0.4c-0.2,0-0.4-0.2-0.4-0.4c0,0,0,0,0,0C-211.3,21.6-211.1,21.4-210.9,21.4
		C-210.9,21.4-210.9,21.4-210.9,21.4L-210.9,21.4z"/>
	<path id="Path_3318" class="st27" d="M-309.1,5.2l3.5,0c2.5,0,0.8,3.1-0.3,4.6c-0.9,1.2-3.7,0.6-5.4,0.2
		C-310.9,8.2-310.2,6.6-309.1,5.2z"/>
	<path id="Path_3319" class="st20" d="M-186,1.2h-5.5c-2.7,0-0.3,6,3.2,6h2.8C-185.6,5.1-185.8,3.1-186,1.2z"/>
	<path id="Path_3320" class="st20" d="M-239.4-12.9L-238-1l-4.1,0.1l-1.3-11.6C-242.1-12.6-240.7-12.8-239.4-12.9z"/>
	<path id="Path_3321" class="st20" d="M-217.6-13.2l1.4,11.8l-1.9,0l-1.3-11.9C-218.9-13.3-218.2-13.2-217.6-13.2z"/>
	<path id="Path_3322" class="st20" d="M-266-5.4l1.3,5l-9,0.2C-271.3-2.1-268.7-3.9-266-5.4z"/>
	<path id="Path_3323" class="st21" d="M-241.1-12.1l1.3,11.1l-0.7,24.8h-0.7l0.7-24.8l-1.3-11.1c-3.2,0.4-6.4,0.9-9.6,1.6
		c-9.8,2.4-18.9,6.9-26.7,13.2l2.7,21.1l-0.7,0l-2.7-21.4c8-6.5,17.3-11.1,27.3-13.5c8.6-1.8,17.5-2.6,26.3-2.4c1.7,0,5.4,0.1,8,0.2
		l1.8,14.9l-1.8,12.5l-0.7-0.1l1.8-12.4l-1.7-14.3c-2.3-0.1-5.7-0.2-7.4-0.2C-230.5-12.8-235.8-12.6-241.1-12.1z"/>
	<path id="Path_3324" class="st18" d="M-263.9-5.7c1.3-0.1,1.6-0.4,1.6,0.8s0.2,3.6-0.7,3.9c-0.9,0.4-3,0.3-3.4-0.4
		c-0.5-0.8-0.5-1.8-0.1-2.6C-266-5-265-5.7-263.9-5.7z"/>
	<path id="Path_3325" class="st20" d="M-266.6-1.8c0.8-0.3,1.6-0.4,2.4-0.5c0.6-0.1,1.2-0.1,1.8,0c-0.1,0.6-0.3,1.2-0.6,1.3
		c-0.9,0.4-3,0.3-3.4-0.4C-266.4-1.5-266.5-1.7-266.6-1.8z"/>
	<path id="Path_3326" class="st20" d="M-248.1,0.6l5.3-0.1c0.5,0,1,0.4,1,1l0,0c0,0.5-0.4,1-1,1l-5.3,0.1c-0.5,0-1-0.4-1-1l0,0
		C-249,1-248.6,0.6-248.1,0.6z"/>
	<path id="Path_3327" class="st20" d="M-248.6,1.1l6.4-0.1c0.2,0,0.4,0.2,0.5,0.4c0,0,0,0,0,0l0,0c0,0.2-0.2,0.4-0.4,0.5
		c0,0,0,0,0,0l-6.4,0.1c-0.2,0-0.4-0.2-0.5-0.4c0,0,0,0,0,0l0,0C-249,1.3-248.9,1.1-248.6,1.1C-248.6,1.1-248.6,1.1-248.6,1.1z"/>
	<path id="Path_3328" class="st20" d="M-225.2,0.1l5.3-0.1c0.5,0,1,0.4,1,1l0,0c0,0.5-0.4,1-1,1l-5.3,0.1c-0.5,0-1-0.4-1-1l0,0
		C-226.2,0.5-225.8,0.1-225.2,0.1z"/>
	<path id="Path_3329" class="st20" d="M-225.7,0.6l6.4-0.1c0.2,0,0.4,0.2,0.5,0.4c0,0,0,0,0,0l0,0c0,0.2-0.2,0.4-0.4,0.5
		c0,0,0,0,0,0l-6.4,0.1c-0.2,0-0.4-0.2-0.5-0.4c0,0,0,0,0,0l0,0C-226.2,0.8-226,0.6-225.7,0.6C-225.8,0.6-225.7,0.6-225.7,0.6z"/>
</g>
<g id="Group_2788" transform="translate(855.898 374.847)">
	<g id="Group_1592" transform="translate(17.15 27.56)">
		<path id="Path_3385" class="st28" d="M-217.3,6.1l0.7-2.4c0.8-0.3,1.8-0.3,2.6,0.1l-1.9,6.9C-216.9,9.3-217.4,7.7-217.3,6.1z"/>
	</g>
	<g id="Group_1593" transform="translate(0.712 32.935)">
		<path id="Path_3386" class="st28" d="M-232,9.9l2.2,0.6c0.4,0.8,0.4,1.8,0.1,2.6l-7.4-1.6C-235.6,10.5-233.8,9.9-232,9.9z"/>
	</g>
	<g id="Group_1594" transform="translate(6.123 18.439)">
		<path id="Path_3387" class="st29" d="M-230.6-7.6c0,0,4.7,16.5,7.4,18.7s16.9,4,16.9,4l0.7-2.4c0,0-9.2-6-14.1-5.4
			c3.4-6.3,1.7-14.9,1.7-14.9H-230.6z"/>
	</g>
	<g id="Group_1595" transform="translate(3.031 18.439)">
		<path id="Path_3388" class="st30" d="M-227.7-7.6l-6.6,13.5l0,18.5l2.2,0.6c0,0,5.1-11,2.4-16.7c0,0,13.8-8.9,14.6-15.9
			L-227.7-7.6z"/>
	</g>
	<g id="Group_1596" transform="translate(0.844 9.11)">
		<path id="Path_3389" class="st31" d="M-223.6-18.8c-2.4,1.7-4.5,3.8-6.3,6.2c-2.2-1.9-5.7-4.4-5.7-4.4l-1.2,0.8
			c0,0,4.5,6.9,6.8,7.6c2.3,0.7,9.5-5.3,9.5-5.3L-223.6-18.8z"/>
	</g>
	<g id="Group_1597" transform="translate(5.074 5.143)">
		<path id="Path_3390" class="st31" d="M-231.8-22.8l0.5,3.8l5.2-1.4l-3.8-3.3L-231.8-22.8z"/>
	</g>
	<g id="Group_1598" transform="translate(5.286 6.625)">
		<path id="Path_3391" class="st32" d="M-226.4-21.8c7.3,7.2,11.3,17,11.1,27.3h-15.3l-1-25.9L-226.4-21.8z"/>
	</g>
	<g id="Group_1599" transform="translate(5.854 9.437)">
		<path id="Path_3392" class="st31" d="M-217.9-12.4c0.4,2.7-12.6,7.2-12.6,7.2l-0.4-1.3c0,0,5.1-5.6,7.9-6.1
			c-1.3-0.4-2.6-1-3.6-1.8l3.3-4C-221-16.5-218.1-13.8-217.9-12.4z"/>
	</g>
	<g id="Group_1600" transform="translate(2.798 0.332)">
		<path id="Path_3393" class="st31" d="M-225.4-21.1c0.1-0.3,0.2-0.6,0.3-1c0-0.1,0.1-0.4,0.1-0.6c0-0.2,0.1-0.5,0.1-0.7
			c0-0.6,0-1.2-0.2-1.7c-0.2-1.1-0.8-2-1.5-2.8c-0.7-0.9-1.8-1.4-2.9-1.5c-0.2,0-0.5,0-0.7,0c-0.2,0-0.4,0.1-0.6,0.1
			c-0.2,0.1-0.3,0.1-0.5,0.2c-0.2,0.1-0.4,0.2-0.6,0.3c-0.2,0.1-0.4,0.2-0.5,0.4c-0.5,0.4-0.9,0.9-1.2,1.4c-0.2,0.3-0.1,0.3-0.3,0.5
			c-0.2,0.3-0.3,0.7-0.4,1.1l0,0c-0.2,0.5-0.2,1.1-0.3,1.6c-0.1,3.2,2.1,7.1,4.5,7.2c1.7,0.1,3.4-1.7,4.4-3.8l0-0.1
			C-225.5-20.7-225.5-20.9-225.4-21.1z"/>
	</g>
	<g id="Group_1601" transform="translate(4.23 14.741)">
		<path id="Path_3394" class="st31" d="M-232.7-9.6c0.4,0.6,1.3,0.8,1.9,0.4c0,0,0,0,0,0l1.8-1.1c0.4-0.3,0.5-0.8,0.3-1.2l0,0
			c-0.2-0.3-0.6-0.5-0.9-0.4l-2.1,0.4c-0.7,0.1-1.2,0.8-1.1,1.5c0,0,0,0.1,0,0.1C-232.8-9.8-232.7-9.7-232.7-9.6z"/>
	</g>
	<g id="Group_1602" transform="translate(0 8.732)">
		<path id="Path_3395" class="st31" d="M-237.7-18.7c-0.5,0.6-0.3,1.5,0.3,1.9l1.7,1.3c0.4,0.3,1,0.2,1.3-0.2l0,0
			c0.2-0.3,0.3-0.7,0.1-1l-1.1-1.8c-0.4-0.6-1.2-0.9-1.8-0.5c0,0-0.1,0-0.1,0.1C-237.5-18.9-237.6-18.8-237.7-18.7z"/>
	</g>
	<g id="Group_1603" transform="translate(2.493 0)">
		<path id="Path_3396" class="st33" d="M-235-24.4l3.2-0.8l1.9,1.4l1.5-0.6l2.5,5.3l2.3-3.4C-223.4-32.5-234.1-31.3-235-24.4z"/>
	</g>
	<g id="Group_1604" transform="translate(6.288 8.366)">
		<path id="Path_3397" class="st34" d="M-223.5-17.5l-3.7,4.5c-0.7-0.5-1.4-1-2-1.4c-1.3-0.9-1.7-2.7-0.8-4.1
			c0.9-1.3,2.7-1.7,4.1-0.8l0,0C-225.2-18.8-224.3-18.2-223.5-17.5z"/>
	</g>
</g>
<path id="Rectangle_3386" class="st35" d="M11.7,427.1h776.8c6.3,0,11.4,5.1,11.4,11.4l0,0c0,6.3-5.1,11.4-11.4,11.4H11.7
	c-6.3,0-11.4-5.1-11.4-11.4l0,0C0.3,432.3,5.4,427.1,11.7,427.1z"/>
<path id="Path_5621" class="st36" d="M765.6,104.7h-47.8c13.4-16.4,10.9-40.5-5.5-53.9s-40.5-10.9-53.9,5.5
	c-4.6,5.7-7.5,12.6-8.4,19.9c-11-5.4-24.2-0.8-29.5,10.2c-2.8,5.8-3,12.5-0.4,18.4h-7.3c-0.4-7-6.3-12.4-13.3-12
	c-6.5,0.3-11.7,5.5-12,12H578c-5.1-0.1-9.3,4-9.4,9.1c-0.1,5.1,4,9.3,9.1,9.4c0.1,0,0.2,0,0.3,0h187.6c5.1,0.1,9.3-4,9.4-9.1
	c0.1-5.1-4-9.3-9.1-9.4C765.8,104.7,765.7,104.7,765.6,104.7L765.6,104.7z"/>
<path id="Path_5622" class="st37" d="M702.3,169c-3.1,0-6,1.8-7.3,4.7c-1.1-5.2-6.2-8.6-11.4-7.5c-2.7,0.6-5.1,2.3-6.5,4.7
	c-0.1-7.9-6.6-14.1-14.5-14c-7.9,0.1-14.1,6.6-14,14.5c0.1,7.8,6.5,14,14.2,14h22.6c4.2,0,13.1-0.4,16.8-0.4c4.4,0,8-3.6,8-8
	C710.3,172.6,706.7,169,702.3,169L702.3,169z"/>
<path id="Path_5623" class="st37" d="M155.1,50.7l-3.2,0c3.3-8.9-1.3-18.7-10.2-22c-1.9-0.7-3.8-1-5.8-1c-0.2,0-0.5,0-0.7,0
	c-2.7-13.5-15.8-22.2-29.3-19.4S83.8,24,86.5,37.5c0.3,1.7,0.8,3.3,1.5,4.9c-5.1-2.2-10.9,0.2-13.1,5.2c-0.4,0.8-0.6,1.7-0.7,2.6
	l-3.4,0c0.1-0.5,0.1-1,0.1-1.4c0-7-5.6-12.8-12.7-12.8c-7,0-12.8,5.6-12.8,12.7l0,0c0,0.5,0,1,0.1,1.4l-3.2,0
	c-3.1,0-5.6,2.5-5.6,5.6c0,3.1,2.5,5.6,5.6,5.6l14.4,0.1c1,0.1,1.9,0.1,2.9,0l23.3,0.1c0.4,0.1,0.8,0.1,1.2,0.1c0.4,0,0.8,0,1.2-0.1
	l48.8,0.3c0.6,0.1,1.1,0.1,1.7,0.1s1.1,0,1.7-0.1l17.6,0.1c3.1,0,5.6-2.5,5.6-5.6C160.7,53.2,158.2,50.7,155.1,50.7L155.1,50.7z"/>
<path id="Path_5624" class="st37" d="M252,219.2h-5.5c-0.9-7-7.3-11.9-14.2-10.9c-5.7,0.7-10.2,5.2-10.9,10.9h-0.9
	c0.1-0.6,0.1-1.2,0.1-1.8c0-8.9-7.2-16.2-16.2-16.2c-2.2,0-4.4,0.5-6.5,1.4c2.2-14.8-8-28.6-22.8-30.8c-14.8-2.2-28.6,8-30.8,22.8
	c-0.2,1.3-0.3,2.6-0.3,4c0,0.1,0,0.2,0,0.2c-9-4.7-20.1-1.1-24.8,7.9c-0.8,1.6-1.4,3.4-1.8,5.2c-5-5-13-4.9-18,0
	c-2,2-3.2,4.6-3.6,7.3H83.8c-4.1,0-7.5,3.4-7.5,7.5c0,4.1,3.4,7.5,7.5,7.5l0,0H252c4.1,0,7.5-3.4,7.5-7.5
	C259.5,222.6,256.2,219.2,252,219.2L252,219.2z M153.6,219.2L153.6,219.2L153.6,219.2L153.6,219.2z"/>
<g id="Group_2785" transform="translate(621.225 295.471)">
	<rect id="Rectangle_1539" x="-475.2" y="77.6" class="st38" width="15.4" height="45.8"/>
	<path id="Path_3257" class="st39" d="M-475.2,77.6v12.9c5.6-0.3,10.3,4,10.6,9.5c0,0.1,0,0.3,0,0.4v22.9h5.2V77.6H-475.2z"/>
	<path id="Path_3258" class="st3" d="M-466.9-125.6l-31,96.5l31-15.3l31,15.3L-466.9-125.6z"/>
	<path id="Path_3259" class="st3" d="M-466.9-95.3l-39.9,124l39.9-19.7l39.9,19.7L-466.9-95.3z"/>
	<path id="Path_3260" class="st3" d="M-466.9-63l-54.2,168.6l54.2-26.7l54.2,26.7L-466.9-63z"/>
	<path id="Path_3261" class="st40" d="M-466.9-125.6l31,96.5l-23.9-11.8L-466.9-125.6z"/>
	<path id="Path_3262" class="st40" d="M-458.1-68.1l31,96.5L-451,16.6L-458.1-68.1z"/>
	<path id="Path_3263" class="st40" d="M-443.7,9.1l31,96.5l-23.9-11.8L-443.7,9.1z"/>
	<path id="Path_3264" class="st41" d="M-447.5-34.8l-19.5-9.6l-19.5,9.6l-7.6,23.6l26.1-21.6l27.9,21L-447.5-34.8z"/>
	<path id="Path_3265" class="st41" d="M-439.4,22.3l-27.5-13.6l-27.5,13.6l-10.7,33.3l36.9-30.6l39.4,29.7L-439.4,22.3z"/>
</g>
</svg>
