<?xml version="1.0" encoding="utf-8"?>
<!-- Generator: Adobe Illustrator 23.0.1, SVG Export Plug-In . SVG Version: 6.00 Build 0)  -->
<svg version="1.1" id="Слой_1" xmlns="http://www.w3.org/2000/svg" xmlns:xlink="http://www.w3.org/1999/xlink" x="0px" y="0px"
	 viewBox="0 0 176 400" style="enable-background:new 0 0 176 400;" xml:space="preserve">
<style type="text/css">
	.st0{fill:#F6C254;}
	.st1{fill:#D57872;}
	.st2{fill:#4D3A4E;}
	.st3{fill:#0B6C75;}
	.st4{fill:#F5948D;}
	.st5{fill:#FFA998;}
	.st6{fill:#472E4F;}
	.st7{fill:#9499A5;}
	.st8{fill:#D8D8D8;}
	.st9{fill:#EE8B8E;}
	.st10{fill:#A8A8A8;}
	.st11{fill:#8783A6;}
	.st12{fill:#C46B4D;}
	.st13{fill:#1F1524;}
	.st14{fill:#053539;}
	.st15{fill:#063539;}
	.st16{fill:#4D3C60;}
	.st17{fill:#E3ACA5;}
	.st18{fill:#CD896D;}
	.st19{fill:#5A3D5B;}
	.st20{fill:#754962;}
	.st21{fill:#D6FEE8;}
	.st22{fill:#F98786;}
	.st23{fill:#4D3857;}
	.st24{fill-rule:evenodd;clip-rule:evenodd;fill:#C6C6C6;}
	.st25{fill-rule:evenodd;clip-rule:evenodd;fill:#7AC6E5;}
	.st26{fill:#86CFEF;}
	.st27{fill-rule:evenodd;clip-rule:evenodd;fill:#A2DAF9;}
	.st28{fill-rule:evenodd;clip-rule:evenodd;fill:#86CFEF;}
	.st29{fill-rule:evenodd;clip-rule:evenodd;fill:#EDEDED;}
	.st30{fill-rule:evenodd;clip-rule:evenodd;fill:#F9F9F9;}
	.st31{fill-rule:evenodd;clip-rule:evenodd;fill:#DDDCDB;}
</style>
<g id="Group_1347" transform="translate(197.987 508)">
	<path id="Path_2935" class="st0" d="M-88.9-120.9c-2.9,0-5.2-2.3-5.2-5.2c0-1.6,0.7-3.1,1.9-4l25.6-20.9c2.9-2.4,4.3-6,3.8-9.7
		l-6.3-42.6c-0.4-2.9,1.6-5.5,4.4-5.9c2.8-0.4,5.4,1.6,5.9,4.4l6.3,42.6c1.1,7.3-1.8,14.6-7.5,19.3L-85.6-122
		C-86.5-121.3-87.7-120.9-88.9-120.9z"/>
	<path id="Path_2936" class="st1" d="M-89.2-108.7c-3.9-4.7-7.8-9.5-11.8-14.3c0.5-3.2,3.9-4.7,6.7-5.7c2.3,2.8,4.6,5.6,6.9,8.4
		c-0.4,0.3-0.6,0.8-0.4,1.2c0.4,1.6,1.6,5.9,1.7,9.1c0,1-0.7,1.8-1.7,1.9C-88.2-108-88.8-108.2-89.2-108.7z"/>
	<path id="Path_2937" class="st2" d="M-94.6-128.5c2.4,2.9,4.8,5.8,7.1,8.8c0.1,0.1,0.2,0.1,0.3,0c0,0,0,0,0,0
		c0.4-0.4,0.9-0.7,1.3-1c0.1-0.1,0.1-0.2,0-0.3c0,0,0,0,0,0c-2.4-2.9-4.8-5.8-7.2-8.8c-0.1-0.1-0.2-0.1-0.3,0
		c-0.4,0.3-0.8,0.7-1.3,1C-94.7-128.7-94.7-128.6-94.6-128.5C-94.6-128.5-94.6-128.5-94.6-128.5z"/>
	<path id="Path_2938" class="st0" d="M-90.6-148.8c-2.6,0-5.1-1-7-2.8l-24.2-22.8c-2.1-2-2.2-5.3-0.2-7.4c2-2.1,5.3-2.2,7.4-0.2
		l23.9,22.6l9.4-40.3c0.7-2.8,3.5-4.6,6.3-3.9c2.8,0.7,4.6,3.5,3.9,6.3l-9.4,40.7c-0.8,3.6-3.5,6.4-7,7.5
		C-88.5-149-89.5-148.8-90.6-148.8z"/>
	<path id="Path_2939" class="st1" d="M-135.5-176.2c4.2-4.5,8.4-9,12.6-13.5c3.3,0.1,5.1,3.3,6.5,5.9c-2.5,2.7-5,5.3-7.4,8
		c-0.3-0.4-0.9-0.4-1.3-0.2c-1.6,0.6-5.6,2.4-8.8,2.9c-1,0.2-1.9-0.5-2.1-1.5C-136-175.3-135.9-175.8-135.5-176.2z"/>
	<path id="Path_2940" class="st2" d="M-116.5-184.3c-2.6,2.7-5.2,5.5-7.8,8.2c-0.1,0.1-0.1,0.2,0,0.3c0,0,0,0,0,0
		c0.4,0.4,0.8,0.8,1.2,1.1c0.1,0.1,0.2,0.1,0.3,0c0,0,0,0,0,0c2.6-2.7,5.2-5.5,7.8-8.2c0.1-0.1,0.1-0.2,0-0.3
		c-0.4-0.4-0.8-0.8-1.2-1.1C-116.3-184.4-116.4-184.3-116.5-184.3z"/>
	<path id="Path_2941" class="st3" d="M-65.6-257.7c-2.4,0-4.4-2-4.4-4.4c0-0.7,0.2-1.5,0.5-2.1l14.8-26.9c2.5-4.5,3.8-9.6,3.8-14.8
		v-19.2c0-2.4,2-4.4,4.4-4.4c2.4,0,4.4,2,4.4,4.4l0,0v19.2c0,6.7-1.7,13.2-4.9,19l-14.8,26.9C-62.5-258.5-63.9-257.7-65.6-257.7z"/>
	<path id="Path_2942" class="st4" d="M-48.5-331.4l-2.6-2.5l-1.6,1.7c-0.5,0.5-0.5,1.3,0.1,1.8l1.7,1.6L-48.5-331.4z"/>
	<path id="Rectangle_1334" class="st5" d="M-49.2-336.6h5.7c1.1,0,1.9,0.9,1.9,1.9v5c0,1.1-0.9,1.9-1.9,1.9h-5.7
		c-1.1,0-1.9-0.9-1.9-1.9v-5C-51.1-335.8-50.3-336.6-49.2-336.6z"/>
	<path id="Rectangle_1335" class="st6" d="M-50.8-327.9h8.7c0.1,0,0.1,0,0.1,0.1v4.8c0,0.1,0,0.1-0.1,0.1h-8.7c-0.1,0-0.1,0-0.1-0.1
		v-4.8C-50.9-327.8-50.9-327.9-50.8-327.9z"/>
	<path id="Rectangle_1336" class="st7" d="M-46.5-300.8h-3c-3,0-5.5-2.5-5.5-5.5c0,0,0,0,0,0v-5.6c0-0.3,0.3-0.6,0.6-0.6h7.3
		c0.3,0,0.6,0.3,0.6,0.6V-300.8L-46.5-300.8z"/>
	<path id="Path_2943" class="st8" d="M-46.7-334.3H-23c0.6,0,1,0.5,1,1l0,0v28.6c0,2.1-1.7,3.8-3.8,3.8h-22v-32.4
		C-47.7-333.8-47.3-334.3-46.7-334.3C-46.7-334.3-46.7-334.3-46.7-334.3z"/>
	<path id="Path_2944" class="st8" d="M-51.5-300.8h3.8v-3.8C-47.7-302.5-49.4-300.8-51.5-300.8z"/>
	<rect id="Rectangle_1337" x="-45.1" y="-307.8" class="st7" width="20.4" height="1.2"/>
	<rect id="Rectangle_1338" x="-45.1" y="-311.4" class="st7" width="20.4" height="1.2"/>
	<rect id="Rectangle_1339" x="-45.1" y="-314.9" class="st7" width="20.4" height="1.2"/>
	<rect id="Rectangle_1340" x="-45.1" y="-318.4" class="st7" width="20.4" height="1.2"/>
	<rect id="Rectangle_1341" x="-45.1" y="-322" class="st7" width="20.4" height="1.2"/>
	<rect id="Rectangle_1342" x="-45.1" y="-325.5" class="st7" width="20.4" height="1.2"/>
	<path id="Path_2945" class="st3" d="M-97.5-252.7c-0.4,0-0.8-0.1-1.2-0.2l-26.5-7.4c-5.9-1.7-9.9-7-9.9-13.1v-27.7
		c0-2.4,2-4.4,4.4-4.4c2.4,0,4.4,2,4.4,4.4v27.7c0,2.2,1.4,4,3.5,4.6l26.5,7.4c2.3,0.7,3.7,3.1,3,5.4
		C-93.8-254-95.5-252.7-97.5-252.7L-97.5-252.7z"/>
	<path id="Path_2946" class="st9" d="M-129.2-307.5l2.6-2.5l1.6,1.7c0.5,0.5,0.5,1.3-0.1,1.8l-1.7,1.6L-129.2-307.5z"/>
	<path id="Rectangle_1343" class="st5" d="M-133.9-312.6h5.7c1.1,0,1.9,0.9,1.9,1.9v5c0,1.1-0.9,1.9-1.9,1.9h-5.7
		c-1.1,0-1.9-0.9-1.9-1.9v-5C-135.8-311.8-135-312.6-133.9-312.6z"/>
	<path id="Rectangle_1344" class="st6" d="M-135-303.9h8.7c0.1,0,0.1,0,0.1,0.1v4.8c0,0.1,0,0.1-0.1,0.1h-8.7c-0.1,0-0.1,0-0.1-0.1
		v-4.8C-135.1-303.8-135.1-303.9-135-303.9z"/>
	<path id="Rectangle_1345" class="st4" d="M-48.8-336.6h4.8c1.3,0,2.4,1.1,2.4,2.4v1.9c0,1.3-1.1,2.4-2.4,2.4h-4.8
		c-1.3,0-2.4-1.1-2.4-2.4v-1.9C-51.1-335.5-50.1-336.6-48.8-336.6z"/>
	<path id="Rectangle_1346" class="st4" d="M-133.5-312.6h4.8c1.3,0,2.4,1.1,2.4,2.4v1.9c0,1.3-1.1,2.4-2.4,2.4h-4.8
		c-1.3,0-2.4-1.1-2.4-2.4v-1.9C-135.8-311.6-134.8-312.6-133.5-312.6z"/>
	<path id="Path_2947" class="st0" d="M-55.1-195c-3.8,5.6-18.8,7.3-23.7,3.8c-5.7-4.1-4.4-27.7-4.4-27.7l23.7-3.8
		C-59.5-222.7-51.1-200.8-55.1-195z"/>
	<path id="Path_2948" class="st10" d="M-82.4-213.4l24.3-3.9l-8.2-51.4l-16.7-1l-8.2,3.8L-82.4-213.4z"/>
	<path id="Path_2949" class="st11" d="M-76-214.7c5.5,0.6,11,0.4,16.4-0.6c0.8-0.2,2.1-0.4,2.1-0.4l0,0l0-1.5l-0.1-0.1
		c0,0-1.3,0.2-2.1,0.4c-5.4,1-10.9,1.2-16.4,0.6c0,0-5.3,2.8-3.5,4.5C-78.8-213.2-76-214.7-76-214.7z"/>
	<path id="Path_2950" class="st12" d="M-75.2-210.5c10.3,0.9,17.7-1.4,17.7-1.4l-0.1-3.8l0,0c0,0-1.3,0.2-2.1,0.4
		c-5.4,1-10.9,1.2-16.4,0.6c0,0-2.8,1.4-3.6,2.9C-79.1-211.2-77.8-210.7-75.2-210.5z"/>
	<path id="Path_2951" class="st3" d="M-78.1-246.9c-3-9-11.3-19-11.3-19l2.2-1l-0.2-1.5c0,0-15.2,3.6-15.5,8.7
		c-0.5,9.9,6.9,18.8,12.6,26.2c5.7,7.5,5.9,10.9,5.7,15.9c-0.2,4.9-3.7,6.6-1.5,17.9c0,0.2,0.3,1.4,0.3,1.4l12.2-1.9
		c2.3-0.4,3.9-2.5,3.5-4.8C-71.6-215.2-74-234.6-78.1-246.9z"/>
	<path id="Path_2952" class="st13" d="M-95.2-263.4L-95.2-263.4"/>
	<path id="Path_2953" class="st14" d="M-88.7-266.2l1.5-0.7l-0.1-0.6l0-0.3c-2.2,0.7-4.4,1.5-6.5,2.6c-0.1,0-0.1,0.1-0.2,0.1
		c-0.5,0.4-0.8,1-1.1,1.6l0,0c-0.1,0.5,0.1,1,1,1.2l0,0c0.3,0.1,0.5,0.1,0.8,0.1c3.7,0.3,4.7,1.3,4.7,1.3l-1.4,1.2
		c-0.6,0.5-0.7,1.4-0.2,2c0.3,0.4,0.6,0.7,0.8,1c13.6,17.4,16.9,34.3,17,35.1c-1.4-8.8-3.2-18.3-5.6-25.5
		c-2.6-7.8-9.1-16.2-10.8-18.4c-0.2-0.2-0.2-0.6,0.1-0.8C-88.8-266.2-88.8-266.2-88.7-266.2z"/>
	<path id="Path_2954" class="st3" d="M-75.3-270.1c3.5-0.1,9.3,0.4,11.6,2.5c3.4,3,5,23.6,4.8,27.9c-0.2,4.3-0.5,11.3,0.8,17.1
		s5.3,11.8,5.4,18c0,0.1,0,0.2,0,0.2l-2,0.3c-2.3,0.4-4.5-1.2-4.9-3.5c0,0,0,0,0,0c-0.7-4.4-1.7-11.4-2.1-16.9
		c-1-14.7-4-33.4-8.7-40.3c-1.1-1.6-3.2-3.2-3.9-3.7c-0.2-0.1-0.4-0.2-0.6-0.1l-0.9,0.2l-0.3-1.6C-76.3-270.1-75.5-270.1-75.3-270.1
		z"/>
	<path id="Path_2955" class="st15" d="M-63.7-261.4c0-0.2-0.1-0.4-0.2-0.6c-0.2-0.6-0.6-1.1-1.1-1.3l-3-1.3c0,0,1.3-1.1,1.3-1.8
		c0-0.6-3.7-2.5-8.2-3.1c-0.2,0-0.5,0-0.7,0c-0.2,0-0.4,0-0.6,0.1l0.2,0.9l0.9-0.2c0.2,0,0.4,0,0.6,0.1c0.8,0.6,2.9,2.2,3.9,3.7
		c4.6,6.8,7.6,24.8,8.7,39.3C-61.2-231.6-60-247.3-63.7-261.4z"/>
	<path id="Path_2956" class="st16" d="M-63.7-210.3C-63.8-210.3-63.8-210.3-63.7-210.3l-3.5,0.3c-0.6,0-1.1-0.4-1.2-1l-0.2-2.6
		c0-0.6,0.4-1.1,1-1.2l3.5-0.3c0.3,0,0.6,0.1,0.8,0.3c0.2,0.2,0.4,0.5,0.4,0.7l0.2,2.6c0,0.3-0.1,0.6-0.3,0.8
		C-63.3-210.4-63.5-210.3-63.7-210.3z M-67.7-214.1c-0.2,0-0.4,0.3-0.4,0.5l0.2,2.6c0,0.3,0.2,0.5,0.5,0.4l3.5-0.3
		c0.3,0,0.5-0.3,0.4-0.5c0,0,0,0,0,0l-0.2-2.6c0-0.1-0.1-0.2-0.2-0.3c-0.1-0.1-0.2-0.1-0.3-0.1L-67.7-214.1
		C-67.6-214.1-67.6-214.1-67.7-214.1L-67.7-214.1z"/>
	<path id="Path_2957" class="st17" d="M-81.1-241l-8.2,1.5c-0.3,0-0.5-0.1-0.6-0.4l-0.2-0.7c-0.1-0.2,0.1-0.5,0.3-0.5c0,0,0,0,0.1,0
		l8.2-1.5c0.3,0,0.5,0.1,0.6,0.4l0.2,0.7C-80.7-241.3-80.9-241.1-81.1-241C-81.1-241-81.1-241-81.1-241z"/>
	<path id="Path_2958" class="st5" d="M-73.5-259.2l-13.6-6.8l-4.8-30.2l11.1-1.8l4.6,29L-73.5-259.2z"/>
	<path id="Path_2959" class="st5" d="M-78.7-274l8.2-1.3c3.5-0.6,5.8-3.8,5.3-7.3l-3.1-19.1c-0.7-4.1-4.5-6.9-8.7-6.3l-5.8,0.9
		c-4.1,0.7-6.9,4.5-6.3,8.7l3.1,19.1C-85.5-275.8-82.2-273.4-78.7-274C-78.7-274-78.7-274-78.7-274z"/>
	
		<rect id="Rectangle_1347" x="-91.9" y="-300.7" transform="matrix(0.9875 -0.1579 0.1579 0.9875 45.7043 -17.8037)" class="st18" width="5.4" height="8.4"/>
	
		<rect id="Rectangle_1348" x="-91.6" y="-300.7" transform="matrix(0.9875 -0.1579 0.1579 0.9875 45.3895 -17.7337)" class="st19" width="5.4" height="12.3"/>
	<path id="Path_2960" class="st4" d="M-77.9-280.2l-1.9,0.3c-2.1,0.3-4.2-1.1-4.5-3.3l-0.2-1.4l-2.3,0.4l1.1,6.8l0,0l0.2,1.1
		c0.8,4.7,4.8,8.2,9.6,8.2l-0.2-0.7L-77.9-280.2z"/>
	<path id="Path_2961" class="st5" d="M-91.1-287l3.7-0.6l-0.3-1.9c-0.3-2.1-2.3-3.5-4.3-3.1l0,0l0,0c-1.6,0.2-2.6,1.7-2.4,3.3
		c0,0,0,0,0,0l0,0C-94.1-287.8-92.6-286.7-91.1-287C-91.1-287-91.1-287-91.1-287z"/>
	<path id="Path_2962" class="st4" d="M-91.3-288.3L-91.3-288.3c0.9-0.1,1.5-0.9,1.3-1.8l0,0c-0.1-0.9-0.9-1.5-1.8-1.3l0,0
		c-0.9,0.1-1.5,1-1.3,1.8l0,0C-93-288.7-92.1-288.1-91.3-288.3z"/>
	<path id="Path_2963" class="st20" d="M-71.4-300.7l-20.7,3.3l0,0c-1-6.2,3.3-12.1,9.5-13.1l17.1-2.7l0.6,3.6
		C-64.3-305.4-67.2-301.3-71.4-300.7C-71.4-300.7-71.4-300.7-71.4-300.7z"/>
	<path id="Path_2964" class="st19" d="M-78.3-299.6l-4.3,0.7l0,0c-1.1-7.1,3.7-13.7,10.7-14.8l3.7-0.6l0.1,0.6
		C-67-307-71.6-300.6-78.3-299.6L-78.3-299.6z"/>
	<path id="Path_2965" class="st20" d="M-84.6-298.6L-84.6-298.6l-0.5-3.2c-1.1-6.8,3.5-13.1,10.3-14.2l0,0l0.5,3.2
		C-73.2-306-77.8-299.6-84.6-298.6z"/>
	<path id="Path_2966" class="st20" d="M-85.8-278.3c0.6,3.5,3.8,5.8,7.3,5.3c0,0,0,0,0,0l8.2-1.3c3.5-0.6,5.8-3.8,5.3-7.3
		c0,0,0,0,0,0l-0.4-2.6c-0.3-1.8-2-3-3.8-2.8l-13,2.1c-2.5,0.4-4.1,2.7-3.7,5.1L-85.8-278.3z"/>
	<path id="Path_2967" class="st5" d="M-70.1-279.3l-6.5,1c-1.4,0.2-2.7-0.7-2.9-2.1c0,0,0,0,0,0l0,0c-0.3-2.1,1.1-4,3.1-4.3l5.3-0.8
		c1.6-0.3,3.1,0.8,3.4,2.4c0,0,0,0,0,0l0.1,0.4C-67.4-281-68.5-279.5-70.1-279.3z"/>
	<path id="Path_2968" class="st20" d="M-83.9-280.6l-2.3,0.4l-1.6-10l0,0c1.2-0.2,2.4,0.7,2.6,1.9L-83.9-280.6z"/>
	<path id="Path_2969" class="st20" d="M-75.2-268.8l-0.5,0c-0.2,0-0.3,0.1-0.3,0.3c0,0,0,0.1,0,0.1l2,8.5c0,0-0.1-0.1-0.2-0.2
		c-0.1-0.1-0.2-0.2-0.3-0.3c-4.3-4.1-10.9-6.2-12.9-6.8l0,0.2l-0.7,0.3c-0.2,0.1-0.3,0.4-0.2,0.6c0.1,0.1,0.2,0.2,0.3,0.2
		c6,2,11.8,6.2,13.8,7.7c0.5,0.4,1.1,0.4,1.7,0.2l0,0c0.1-0.1,0.2-0.2,0.2-0.3l-2-9.8C-74.4-268.4-74.7-268.7-75.2-268.8z"/>
	<path id="Path_2970" class="st19" d="M-92-296.6L-92-296.6l-0.5-3.2c-1.1-6.8,3.5-13.1,10.3-14.2l0,0l0.5,3.2
		C-80.6-304.1-85.2-297.7-92-296.6L-92-296.6z"/>
	<path id="Rectangle_1349" class="st19" d="M-83.3-293.8l5.5-0.9c0.3,0,0.5,0.1,0.5,0.4l0.1,0.6c0,0.3-0.1,0.5-0.4,0.5l-5.5,0.9
		c-0.3,0-0.5-0.1-0.5-0.4l-0.1-0.6C-83.7-293.5-83.5-293.7-83.3-293.8z"/>
	<path id="Rectangle_1350" class="st19" d="M-66.4-294.9l-5.5,0.9c-0.3,0-0.5-0.1-0.5-0.4l-0.1-0.6c0-0.3,0.1-0.5,0.4-0.5l5.5-0.9
		c0.3,0,0.5,0.1,0.5,0.4l0.1,0.6C-66-295.2-66.2-294.9-66.4-294.9z"/>
	<path id="Path_2971" class="st21" d="M-70-282.1c0.2-0.5,0.4-1.1,0.4-1.7c0-0.4-0.3-0.7-0.7-0.7c0,0-0.1,0-0.1,0l-4.8,0.8
		c-0.4,0.1-0.7,0.4-0.6,0.8c0,0,0,0.1,0,0.1c0.2,0.6,0.6,1.1,1,1.6c0.4-0.9,1.1-1.5,2-1.8C-71.8-283.2-70.7-282.9-70-282.1z"/>
	<path id="Path_2972" class="st22" d="M-70-282.1c-0.7-0.8-1.8-1.1-2.8-0.9c-0.9,0.2-1.7,0.9-2,1.8c1.1,1.2,2.9,1.3,4.1,0.2
		C-70.4-281.3-70.2-281.7-70-282.1L-70-282.1z"/>
	<path id="Rectangle_1351" class="st4" d="M-68.9-288.9l2.3-0.4c0.4-0.1,0.8,0.2,0.9,0.6l0,0c0.1,0.4-0.2,0.8-0.6,0.9l-2.3,0.4
		c-0.4,0.1-0.8-0.2-0.9-0.6l0,0C-69.6-288.5-69.3-288.9-68.9-288.9z"/>
	<path id="Rectangle_1352" class="st4" d="M-80.6-287.1l2.3-0.4c0.4-0.1,0.8,0.2,0.9,0.6l0,0c0.1,0.4-0.2,0.8-0.6,0.9l-2.3,0.4
		c-0.4,0.1-0.8-0.2-0.9-0.6l0,0C-81.3-286.6-81-287-80.6-287.1z"/>
	<path id="Path_2973" class="st23" d="M-70.4-290.1c-0.2,0-0.3-0.1-0.3-0.3l-0.2-1c-0.1-1,0.5-1.9,1.5-2l0.8-0.1
		c1-0.1,1.9,0.5,2,1.5l0.2,1c0,0.2-0.1,0.3-0.3,0.4c-0.2,0-0.3-0.1-0.4-0.3l-0.2-1c-0.1-0.6-0.7-1-1.3-0.9l-0.8,0.1
		c-0.6,0.1-1,0.7-0.9,1.3l0.2,1C-70.1-290.3-70.2-290.2-70.4-290.1C-70.4-290.1-70.4-290.1-70.4-290.1
		C-70.4-290.1-70.4-290.1-70.4-290.1z"/>
	<path id="Path_2974" class="st23" d="M-81.1-288.4c-0.2,0-0.3-0.1-0.3-0.3l-0.2-1c-0.1-1,0.5-1.9,1.5-2l0.8-0.1
		c1-0.1,1.9,0.5,2,1.5l0.2,1c0,0.2-0.1,0.3-0.3,0.4c-0.2,0-0.3-0.1-0.4-0.3l-0.2-1c-0.1-0.6-0.7-1-1.3-0.9l-0.8,0.1
		c-0.6,0.1-1,0.7-0.9,1.3l0.2,1C-80.8-288.6-80.9-288.4-81.1-288.4C-81.1-288.4-81.1-288.4-81.1-288.4
		C-81.1-288.4-81.1-288.4-81.1-288.4z"/>
</g>
<g id="Group_944" transform="translate(74 168.821)">
	<path id="Path_1445" class="st24" d="M-11.3-5.5L-14.2,9L-15,8.9l2.9-14.5L-11.3-5.5z"/>
	<path id="Path_1446" class="st25" d="M-54.4-62.2l36,89.3l0.5-0.2l-36-89.3L-54.4-62.2z"/>
	<path id="Path_1447" class="st25" d="M-30.2-27.5l18,25.3l0.4-0.3l-18-25.3L-30.2-27.5z"/>
	<path id="Rectangle_796" class="st26" d="M-9.8-9.1H-2c0,0,0.1,0,0.1,0.1v3.1c0,0,0,0.1-0.1,0.1h-7.9c0,0-0.1,0-0.1-0.1L-9.8-9.1
		C-9.9-9.1-9.9-9.1-9.8-9.1z"/>
	<path id="Path_1448" class="st27" d="M18.4-27.5L0.5-2.2L0-2.5l18-25.3L18.4-27.5z"/>
	<path id="Path_1449" class="st27" d="M42.6-62.2l-36,89.3l-0.5-0.2l36-89.3L42.6-62.2z"/>
	<path id="Path_1450" class="st28" d="M-59-150.8c-11.2,11.2-17.2,27.9-14.3,46.4c4.5,28.1,35.3,65.1,51.7,89H9.9
		c16.4-23.9,47.2-60.9,51.7-89c2.9-18.5-3.1-35.2-14.3-46.4C23.3-174.8-35-174.8-59-150.8z"/>
	<path id="Path_1451" class="st29" d="M-41.5-150.8C-49-139.7-53-122.9-51-104.4c3,28.1,23.6,65.1,34.6,89H4.7
		c11-23.9,31.6-60.9,34.6-89c2-18.5-2.1-35.2-9.6-46.4C13.7-174.8-25.4-174.8-41.5-150.8z"/>
	<path id="Path_1452" class="st28" d="M-23.5-104.4c1.2,28.1,9.3,65.1,13.5,89h8.3c7.2-40.2,20.5-94.7,9.8-135.4
		C-0.4-182.9-26.5-174.8-23.5-104.4z"/>
	<path id="Path_1453" class="st30" d="M-1.7-15.4h6.4c11-23.9,31.6-60.9,34.6-89c3.5-33.1-11.1-64.4-45.2-64.4
		c5.4,0,10.8,6,13.9,17.9C18.8-110.1,5.5-55.5-1.7-15.4z"/>
	<path id="Path_1454" class="st27" d="M-5.8-15.9v-152.9c17.2,0,18.3,46.9,17.6,64.2c-1.2,28-9.2,64.9-13.5,88.7L-5.8-15.9z"/>
	<path id="Path_1455" class="st27" d="M4.7-15.4h5.2c16.4-23.9,47.2-60.9,51.7-89c5.6-35.1-18.8-64.4-67.4-64.4
		c34,0,48.7,31.3,45.2,64.4C36.3-76.3,15.7-39.3,4.7-15.4z"/>
	<path id="Path_1456" class="st25" d="M-30.2-27.5h48.6l-8.6,12h-31.5L-30.2-27.5z"/>
	<path id="Path_1457" class="st28" d="M-5.8-27.5h24.2l-8.6,12H-5.8V-27.5z"/>
	<path id="Path_1458" class="st31" d="M-0.4-5.5L2.5,9l0.8-0.1L0.4-5.6L-0.4-5.5z"/>
	<path id="Path_1459" class="st28" d="M-15,8.9c0.3,0,18.4-0.1,18.4,0.2l3.2,17.9c0,0.1,0,0.2-0.1,0.2c0,0,0,0,0,0l0,0
		c-0.3,0-24.8,0.1-24.8-0.2c0,0,3.2-17.9,3.2-17.9C-15.2,8.9-15.1,8.9-15,8.9L-15,8.9z"/>
	<path id="Path_1460" class="st27" d="M-5.8-5.8v-3.3c3,0,3.9-0.3,3.9,0.4v2.5C-1.9-5.6-2.9-5.8-5.8-5.8z"/>
	<path id="Path_1461" class="st24" d="M-11.5-6.2C0.1-6.2,0.2-6.6,0.4-5.5l0.8,4.1c0.1,0.4-0.3,0.7-0.7,0.7
		c-12.1,0-13.7,0.4-13.5-0.7l0.8-4.1C-12.1-5.9-11.8-6.2-11.5-6.2z"/>
	<path id="Path_1462" class="st31" d="M-5.8-0.8v-5.4h5.6c0.4,0,0.7,0.3,0.7,0.7l0.8,4.1c0.1,0.4-0.3,0.7-0.7,0.7L-5.8-0.8z"/>
	<path id="Path_1463" class="st27" d="M-5.8,27.1V8.9h9.1c0.2,0,3.6,18.2,3.2,18.3h0L-5.8,27.1L-5.8,27.1z"/>
	<path id="Path_1464" class="st25" d="M-1.8,8.9l1.3,18.3h-10.7L-10,8.9H-1.8z"/>
	<path id="Path_1465" class="st28" d="M-5.8,27.1V8.9h4l1.3,18.3H-5.8z"/>
</g>
</svg>
