<?xml version="1.0" encoding="utf-8"?>
<!-- Generator: Adobe Illustrator 23.0.1, SVG Export Plug-In . SVG Version: 6.00 Build 0)  -->
<svg version="1.1" id="Слой_1" xmlns="http://www.w3.org/2000/svg" xmlns:xlink="http://www.w3.org/1999/xlink" x="0px" y="0px"
	 viewBox="0 0 240 240" style="enable-background:new 0 0 240 240;" xml:space="preserve">
<style type="text/css">
	.st0{fill:#F6C254;}
	.st1{fill:#D57872;}
	.st2{fill:#4D3A4E;}
	.st3{fill:#0B6C75;}
	.st4{fill:#F5948D;}
	.st5{fill:#FFA998;}
	.st6{fill:#472E4F;}
	.st7{fill:#9499A5;}
	.st8{fill:#D8D8D8;}
	.st9{fill:#EE8B8E;}
	.st10{fill:#A8A8A8;}
	.st11{fill:#8783A6;}
	.st12{fill:#C46B4D;}
	.st13{fill:#1F1524;}
	.st14{fill:#053539;}
	.st15{fill:#063539;}
	.st16{fill:#4D3C60;}
	.st17{fill:#E3ACA5;}
	.st18{fill:#CD896D;}
	.st19{fill:#5A3D5B;}
	.st20{fill:#754962;}
	.st21{fill:#D6FEE8;}
	.st22{fill:#F98786;}
	.st23{fill:#4D3857;}
</style>
<g id="Group_1347" transform="translate(197.987 508)">
	<path id="Path_2935" class="st0" d="M-88.4-281.5c-3,0-5.5-2.4-5.5-5.5c0-1.6,0.7-3.2,2-4.2l26.8-21.9c3-2.5,4.5-6.3,3.9-10.2
		l-6.6-44.7c-0.4-3,1.7-5.8,4.7-6.2c3-0.4,5.7,1.6,6.2,4.6l6.6,44.7c1.1,7.7-1.9,15.3-7.9,20.3l-26.8,21.9
		C-85.9-281.9-87.1-281.5-88.4-281.5z"/>
	<path id="Path_2936" class="st1" d="M-88.7-268.7c-4.1-5-8.2-10-12.3-15c0.5-3.4,4.1-4.9,7-6c2.4,2.9,4.9,5.9,7.3,8.8
		c-0.4,0.3-0.6,0.8-0.4,1.3c0.4,1.7,1.7,6.2,1.8,9.6c0,1.1-0.8,1.9-1.8,2C-87.7-268-88.3-268.2-88.7-268.7z"/>
	<path id="Path_2937" class="st2" d="M-94.4-289.5c2.5,3.1,5,6.1,7.5,9.2c0.1,0.1,0.2,0.1,0.3,0c0,0,0,0,0,0
		c0.4-0.4,0.9-0.7,1.3-1.1c0.1-0.1,0.1-0.2,0-0.3c0,0,0,0,0,0c-2.5-3.1-5-6.1-7.5-9.2c-0.1-0.1-0.2-0.1-0.3,0
		c-0.4,0.4-0.9,0.7-1.3,1.1C-94.5-289.7-94.5-289.6-94.4-289.5C-94.4-289.5-94.4-289.5-94.4-289.5z"/>
	<path id="Path_2938" class="st0" d="M-90.1-310.9c-2.7,0-5.3-1.1-7.3-2.9l-25.4-24c-2.2-2.1-2.3-5.5-0.2-7.7s5.5-2.3,7.7-0.2
		l25.1,23.7l9.8-42.3c0.7-2.9,3.6-4.8,6.6-4.1c2.9,0.7,4.8,3.6,4.1,6.6l-9.9,42.7c-0.8,3.7-3.7,6.7-7.3,7.8
		C-88-311-89.1-310.9-90.1-310.9z"/>
	<path id="Path_2939" class="st1" d="M-137.3-339.6c4.4-4.7,8.8-9.5,13.2-14.2c3.4,0.1,5.4,3.4,6.8,6.2c-2.6,2.8-5.2,5.6-7.8,8.4
		c-0.3-0.4-0.9-0.5-1.3-0.2c-1.7,0.6-5.9,2.5-9.2,3.1c-1,0.2-2-0.5-2.2-1.6C-137.9-338.6-137.7-339.2-137.3-339.6z"/>
	<path id="Path_2940" class="st2" d="M-117.4-348.1c-2.7,2.9-5.4,5.8-8.2,8.6c-0.1,0.1-0.1,0.2,0,0.3c0,0,0,0,0,0
		c0.4,0.4,0.8,0.8,1.3,1.2c0.1,0.1,0.2,0.1,0.3,0c0,0,0,0,0,0c2.7-2.9,5.4-5.8,8.1-8.6c0.1-0.1,0.1-0.2,0-0.3
		c-0.4-0.4-0.8-0.8-1.2-1.2C-117.2-348.2-117.3-348.2-117.4-348.1z"/>
	<path id="Path_2941" class="st3" d="M-63.9-425.1c-2.6,0-4.6-2.1-4.6-4.6c0-0.8,0.2-1.5,0.6-2.2l15.5-28.2c2.6-4.8,4-10.1,4-15.5
		v-20.1c0-2.6,2.1-4.6,4.6-4.6c2.6,0,4.6,2.1,4.6,4.6l0,0v20.1c0,7-1.8,13.9-5.1,20l-15.5,28.2C-60.7-426-62.2-425.1-63.9-425.1z"/>
	<path id="Path_2942" class="st4" d="M-46-502.6l-2.8-2.6l-1.7,1.8c-0.5,0.5-0.5,1.4,0.1,1.9l1.8,1.7L-46-502.6z"/>
	<path id="Rectangle_1334" class="st5" d="M-46.8-508h6c1.1,0,2,0.9,2,2v5.2c0,1.1-0.9,2-2,2h-6c-1.1,0-2-0.9-2-2v-5.2
		C-48.8-507.1-47.9-508-46.8-508z"/>
	<path id="Rectangle_1335" class="st6" d="M-48.4-498.8h9.2c0.1,0,0.1,0.1,0.1,0.1v5c0,0.1-0.1,0.1-0.1,0.1h-9.2
		c-0.1,0-0.1-0.1-0.1-0.1v-5C-48.5-498.8-48.5-498.8-48.4-498.8z"/>
	<path id="Rectangle_1336" class="st7" d="M-43.8-470.4H-47c-3.2,0-5.8-2.6-5.8-5.8c0,0,0,0,0,0v-5.9c0-0.3,0.3-0.6,0.6-0.6h7.7
		c0.3,0,0.6,0.3,0.6,0.6V-470.4L-43.8-470.4z"/>
	<path id="Path_2943" class="st8" d="M-44.1-505.5h24.9c0.6,0,1.1,0.5,1.1,1.1l0,0v30.1c0,2.2-1.8,3.9-3.9,3.9h-23.1v-34
		C-45.2-505.1-44.7-505.5-44.1-505.5C-44.1-505.5-44.1-505.5-44.1-505.5z"/>
	<path id="Path_2944" class="st8" d="M-49.1-470.4h3.9v-3.9C-45.2-472.2-47-470.4-49.1-470.4z"/>
	<rect id="Rectangle_1337" x="-42.4" y="-477.8" class="st7" width="21.5" height="1.3"/>
	<rect id="Rectangle_1338" x="-42.4" y="-481.5" class="st7" width="21.5" height="1.3"/>
	<rect id="Rectangle_1339" x="-42.4" y="-485.2" class="st7" width="21.5" height="1.3"/>
	<rect id="Rectangle_1340" x="-42.4" y="-488.9" class="st7" width="21.5" height="1.3"/>
	<rect id="Rectangle_1341" x="-42.4" y="-492.6" class="st7" width="21.5" height="1.3"/>
	<rect id="Rectangle_1342" x="-42.4" y="-496.4" class="st7" width="21.5" height="1.3"/>
	<path id="Path_2945" class="st3" d="M-97.4-419.9c-0.4,0-0.8-0.1-1.2-0.2l-27.8-7.8c-6.2-1.7-10.4-7.4-10.4-13.8v-29.1
		c0-2.6,2.1-4.6,4.6-4.6c2.6,0,4.6,2.1,4.6,4.6v29.1c0,2.3,1.5,4.2,3.7,4.9l27.8,7.8c2.5,0.7,3.9,3.2,3.2,5.7
		C-93.5-421.3-95.3-419.9-97.4-419.9L-97.4-419.9z"/>
	<path id="Path_2946" class="st9" d="M-130.7-477.4l2.8-2.6l1.7,1.8c0.5,0.5,0.5,1.4-0.1,1.9l-1.8,1.7L-130.7-477.4z"/>
	<path id="Rectangle_1343" class="st5" d="M-135.7-482.8h6c1.1,0,2,0.9,2,2v5.2c0,1.1-0.9,2-2,2h-6c-1.1,0-2-0.9-2-2v-5.2
		C-137.7-481.9-136.8-482.8-135.7-482.8z"/>
	<path id="Rectangle_1344" class="st6" d="M-136.8-473.7h9.2c0.1,0,0.1,0.1,0.1,0.1v5c0,0.1-0.1,0.1-0.1,0.1h-9.2
		c-0.1,0-0.1-0.1-0.1-0.1v-5C-137-473.6-136.9-473.7-136.8-473.7z"/>
	<path id="Rectangle_1345" class="st4" d="M-46.3-508h5.1c1.4,0,2.5,1.1,2.5,2.5v2c0,1.4-1.1,2.5-2.5,2.5h-5.1
		c-1.4,0-2.5-1.1-2.5-2.5v-2C-48.8-506.9-47.7-508-46.3-508z"/>
	<path id="Rectangle_1346" class="st4" d="M-135.2-482.8h5.1c1.4,0,2.5,1.1,2.5,2.5v2c0,1.4-1.1,2.5-2.5,2.5h-5.1
		c-1.4,0-2.5-1.1-2.5-2.5v-2C-137.7-481.7-136.6-482.8-135.2-482.8z"/>
	<path id="Path_2947" class="st0" d="M-52.9-359.4c-4,5.8-19.8,7.7-24.8,4c-6-4.3-4.6-29.1-4.6-29.1l24.8-4
		C-57.5-388.4-48.7-365.4-52.9-359.4z"/>
	<path id="Path_2948" class="st10" d="M-81.6-378.6l25.5-4.1l-8.6-53.9l-17.6-1l-8.6,4L-81.6-378.6z"/>
	<path id="Path_2949" class="st11" d="M-74.9-380c5.7,0.6,11.5,0.4,17.2-0.7c0.9-0.2,2.2-0.4,2.2-0.4l0,0l0-1.6l-0.1-0.1
		c0,0-1.3,0.3-2.2,0.4c-5.7,1.1-11.4,1.3-17.2,0.7c0,0-5.5,2.9-3.7,4.7C-77.8-378.5-74.9-380-74.9-380z"/>
	<path id="Path_2950" class="st12" d="M-74-375.6c10.8,0.9,18.6-1.5,18.6-1.5l-0.1-4l0,0c0,0-1.3,0.3-2.2,0.4
		c-5.7,1.1-11.4,1.3-17.2,0.7c0,0-2.9,1.5-3.8,3.1C-78.1-376.3-76.7-375.8-74-375.6z"/>
	<path id="Path_2951" class="st3" d="M-77.1-413.8c-3.2-9.5-11.9-19.9-11.9-19.9l2.3-1.1l-0.3-1.6c0,0-16,3.8-16.3,9.1
		c-0.5,10.4,7.2,19.7,13.2,27.5c6,7.8,6.2,11.5,6,16.7c-0.2,5.1-3.9,6.9-1.5,18.8c0,0.2,0.3,1.5,0.3,1.5l12.8-2c2.4-0.4,4-2.6,3.7-5
		C-70.2-380.5-72.8-400.9-77.1-413.8z"/>
	<path id="Path_2952" class="st13" d="M-95-431.2L-95-431.2"/>
	<path id="Path_2953" class="st14" d="M-88.2-434.1l1.6-0.7l-0.1-0.6l0-0.3c-2.4,0.7-4.6,1.6-6.9,2.7c-0.1,0-0.1,0.1-0.2,0.1
		c-0.5,0.5-0.9,1-1.1,1.7l0,0c-0.1,0.5,0.1,1.1,1.1,1.3l0,0c0.3,0.1,0.5,0.1,0.8,0.1c3.9,0.3,4.9,1.4,4.9,1.4l-1.5,1.2
		c-0.7,0.5-0.7,1.5-0.2,2.2c0.3,0.4,0.6,0.8,0.8,1c14.2,18.2,17.7,36.1,17.9,36.9c-1.5-9.2-3.4-19.2-5.9-26.7
		c-2.7-8.1-9.5-17-11.4-19.3c-0.2-0.3-0.2-0.6,0.1-0.9C-88.3-434-88.3-434.1-88.2-434.1z"/>
	<path id="Path_2954" class="st3" d="M-74.1-438.2c3.6-0.2,9.7,0.5,12.1,2.6c3.5,3.2,5.2,24.7,5,29.3c-0.2,4.5-0.5,11.9,0.8,18
		s5.5,12.4,5.6,18.9c0,0.1,0,0.2,0,0.2l-2.1,0.3c-2.4,0.4-4.7-1.3-5.1-3.7c0,0,0,0,0,0c-0.7-4.6-1.8-11.9-2.2-17.7
		c-1.1-15.4-4.2-35-9.2-42.3c-1.1-1.6-3.3-3.3-4.1-3.9c-0.2-0.1-0.4-0.2-0.7-0.2l-1,0.2l-0.3-1.7C-75.2-438.1-74.4-438.2-74.1-438.2
		z"/>
	<path id="Path_2955" class="st15" d="M-61.9-429c0-0.2-0.1-0.4-0.2-0.7c-0.2-0.6-0.6-1.1-1.2-1.4l-3.2-1.4c0,0,1.4-1.2,1.4-1.8
		c0-0.6-3.9-2.7-8.6-3.3c-0.3,0-0.5,0-0.8,0c-0.2,0-0.4,0-0.7,0.1l0.2,1l1-0.2c0.2,0,0.5,0,0.7,0.2c0.8,0.6,3,2.3,4.1,3.9
		c4.9,7.1,8,26,9.1,41.3C-59.3-397.8-58.1-414.2-61.9-429z"/>
	<path id="Path_2956" class="st16" d="M-62-375.4C-62-375.4-62.1-375.4-62-375.4l-3.7,0.3c-0.6,0-1.2-0.4-1.2-1l-0.2-2.7
		c-0.1-0.6,0.4-1.2,1-1.2l3.6-0.3c0.3,0,0.6,0.1,0.8,0.3c0.2,0.2,0.4,0.5,0.4,0.8l0.2,2.7c0,0.3-0.1,0.6-0.3,0.8
		C-61.5-375.5-61.7-375.4-62-375.4z M-66.1-379.4c-0.3,0-0.4,0.3-0.4,0.5l0.2,2.7c0,0.3,0.3,0.5,0.5,0.5l3.6-0.3
		c0.3,0,0.5-0.3,0.5-0.5c0,0,0,0,0,0l-0.2-2.7c0-0.1-0.1-0.3-0.2-0.3c-0.1-0.1-0.2-0.1-0.4-0.1L-66.1-379.4
		C-66.1-379.4-66.1-379.4-66.1-379.4L-66.1-379.4z"/>
	<path id="Path_2957" class="st17" d="M-80.3-407.6l-8.6,1.5c-0.3,0-0.6-0.1-0.6-0.4l-0.2-0.7c-0.1-0.2,0.1-0.5,0.3-0.6
		c0,0,0,0,0.1,0l8.6-1.5c0.3,0,0.6,0.1,0.6,0.4l0.2,0.7C-79.8-408-80-407.7-80.3-407.6C-80.2-407.6-80.2-407.6-80.3-407.6z"/>
	<path id="Path_2958" class="st5" d="M-72.2-426.7l-14.2-7.1l-5.1-31.7l11.7-1.9l4.9,30.4L-72.2-426.7z"/>
	<path id="Path_2959" class="st5" d="M-77.7-442.3l8.6-1.4c3.6-0.6,6.1-4,5.5-7.6l-3.2-20.1c-0.7-4.3-4.8-7.3-9.1-6.6l-6.1,1
		c-4.3,0.7-7.3,4.8-6.6,9.1l3.2,20.1C-84.8-444.2-81.4-441.7-77.7-442.3C-77.7-442.3-77.7-442.3-77.7-442.3z"/>
	
		<rect id="Rectangle_1347" x="-91.6" y="-470.3" transform="matrix(0.9875 -0.1579 0.1579 0.9875 72.4598 -19.8536)" class="st18" width="5.7" height="8.8"/>
	
		<rect id="Rectangle_1348" x="-91.3" y="-470.3" transform="matrix(0.9875 -0.1579 0.1579 0.9875 72.1292 -19.7801)" class="st19" width="5.7" height="13"/>
	<path id="Path_2960" class="st4" d="M-76.9-448.7l-2,0.3c-2.3,0.4-4.4-1.2-4.7-3.4l-0.2-1.5l-2.4,0.4l1.1,7.1l0,0l0.2,1.1
		c0.8,5,5.1,8.6,10.1,8.6l-0.2-0.8L-76.9-448.7z"/>
	<path id="Path_2961" class="st5" d="M-90.7-455.9l3.9-0.6l-0.3-2c-0.3-2.2-2.4-3.6-4.5-3.3l0,0l0,0c-1.6,0.3-2.7,1.8-2.5,3.4
		c0,0,0,0,0,0l0,0C-93.9-456.8-92.3-455.6-90.7-455.9C-90.7-455.9-90.7-455.9-90.7-455.9z"/>
	<path id="Path_2962" class="st4" d="M-90.9-457.3L-90.9-457.3c0.9-0.1,1.5-1,1.4-1.9l0,0c-0.1-0.9-1-1.5-1.9-1.4l0,0
		c-0.9,0.1-1.5,1-1.4,1.9l0,0C-92.7-457.7-91.8-457.1-90.9-457.3z"/>
	<path id="Path_2963" class="st20" d="M-70.1-470.3l-21.7,3.5l0,0c-1-6.5,3.4-12.7,9.9-13.7l18-2.9l0.6,3.7
		C-62.5-475.2-65.6-471-70.1-470.3C-70.1-470.3-70.1-470.3-70.1-470.3z"/>
	<path id="Path_2964" class="st19" d="M-77.3-469.1l-4.5,0.7l0,0c-1.2-7.4,3.9-14.4,11.3-15.6l3.9-0.6l0.1,0.6
		C-65.4-476.9-70.2-470.2-77.3-469.1L-77.3-469.1z"/>
	<path id="Path_2965" class="st20" d="M-83.9-468.1L-83.9-468.1l-0.5-3.4c-1.1-7.1,3.7-13.8,10.8-14.9l0,0l0.5,3.4
		C-72-475.9-76.8-469.2-83.9-468.1z"/>
	<path id="Path_2966" class="st20" d="M-85.2-446.8c0.6,3.6,4,6.1,7.6,5.5c0,0,0,0,0,0l8.6-1.4c3.6-0.6,6.1-4,5.5-7.6c0,0,0,0,0,0
		l-0.4-2.7c-0.3-1.9-2.1-3.2-4-2.9l-13.7,2.2c-2.6,0.4-4.3,2.8-3.9,5.4L-85.2-446.8z"/>
	<path id="Path_2967" class="st5" d="M-68.6-447.8l-6.8,1.1c-1.5,0.2-2.8-0.8-3.1-2.2c0,0,0,0,0,0l0,0c-0.3-2.2,1.1-4.2,3.3-4.5
		l5.5-0.9c1.7-0.3,3.3,0.9,3.5,2.6c0,0,0,0,0,0l0.1,0.5C-65.8-449.7-67-448.1-68.6-447.8z"/>
	<path id="Path_2968" class="st20" d="M-83.2-449.2l-2.4,0.4l-1.7-10.5l0,0c1.3-0.2,2.5,0.7,2.7,2L-83.2-449.2z"/>
	<path id="Path_2969" class="st20" d="M-74-436.8l-0.5,0c-0.2,0-0.3,0.1-0.3,0.3c0,0,0,0.1,0,0.1l2.1,8.9c0,0-0.1-0.1-0.2-0.2
		c-0.1-0.1-0.2-0.2-0.3-0.3c-4.5-4.3-11.5-6.5-13.5-7.1l0,0.2l-0.7,0.3c-0.2,0.1-0.3,0.4-0.2,0.7c0.1,0.1,0.2,0.2,0.3,0.3
		c6.3,2.2,12.4,6.5,14.5,8.1c0.5,0.4,1.2,0.5,1.7,0.2l0,0c0.1-0.1,0.2-0.2,0.2-0.4l-2.1-10.3C-73.1-436.4-73.6-436.7-74-436.8z"/>
	<path id="Path_2970" class="st19" d="M-91.7-466L-91.7-466l-0.5-3.4c-1.1-7.1,3.7-13.8,10.8-14.9l0,0l0.5,3.4
		C-79.7-473.8-84.6-467.2-91.7-466L-91.7-466z"/>
	<path id="Rectangle_1349" class="st19" d="M-82.5-463l5.8-0.9c0.3,0,0.5,0.1,0.6,0.4l0.1,0.6c0,0.3-0.1,0.5-0.4,0.6l-5.8,0.9
		c-0.3,0-0.5-0.1-0.6-0.4l-0.1-0.6C-83-462.7-82.8-463-82.5-463z"/>
	<path id="Rectangle_1350" class="st19" d="M-64.8-464.2l-5.8,0.9c-0.3,0-0.5-0.1-0.6-0.4l-0.1-0.6c0-0.3,0.1-0.5,0.4-0.6l5.8-0.9
		c0.3,0,0.5,0.1,0.6,0.4l0.1,0.6C-64.4-464.5-64.5-464.2-64.8-464.2z"/>
	<path id="Path_2971" class="st21" d="M-68.6-450.8c0.3-0.6,0.4-1.2,0.4-1.8c0-0.4-0.3-0.8-0.8-0.8c0,0-0.1,0-0.1,0l-5,0.8
		c-0.4,0.1-0.7,0.4-0.6,0.9c0,0,0,0.1,0,0.1c0.2,0.6,0.6,1.2,1.1,1.7c0.4-0.9,1.2-1.6,2.1-1.8C-70.4-451.9-69.3-451.6-68.6-450.8z"
		/>
	<path id="Path_2972" class="st22" d="M-68.6-450.8c-0.7-0.8-1.9-1.2-2.9-0.9c-1,0.3-1.7,0.9-2.1,1.8c1.1,1.2,3,1.3,4.3,0.2
		C-69-449.9-68.7-450.3-68.6-450.8L-68.6-450.8z"/>
	<path id="Rectangle_1351" class="st4" d="M-67.4-457.9l2.4-0.4c0.4-0.1,0.8,0.2,0.9,0.7l0,0c0.1,0.4-0.2,0.8-0.7,0.9l-2.4,0.4
		c-0.4,0.1-0.8-0.2-0.9-0.7l0,0C-68.1-457.5-67.8-457.9-67.4-457.9z"/>
	<path id="Rectangle_1352" class="st4" d="M-79.6-456l2.4-0.4c0.4-0.1,0.8,0.2,0.9,0.7l0,0c0.1,0.4-0.2,0.8-0.7,0.9l-2.4,0.4
		c-0.4,0.1-0.8-0.2-0.9-0.7l0,0C-80.4-455.5-80.1-455.9-79.6-456z"/>
	<path id="Path_2973" class="st23" d="M-69-459.2c-0.2,0-0.3-0.1-0.3-0.3l-0.2-1.1c-0.2-1,0.5-2,1.5-2.1l0.8-0.1
		c1-0.2,2,0.5,2.1,1.5l0.2,1.1c0,0.2-0.1,0.4-0.3,0.4c-0.2,0-0.4-0.1-0.4-0.3l-0.2-1.1c-0.1-0.6-0.7-1.1-1.3-1l-0.8,0.1
		c-0.6,0.1-1.1,0.7-1,1.3l0.2,1.1C-68.7-459.4-68.8-459.2-69-459.2C-69-459.2-69-459.2-69-459.2C-69-459.2-69-459.2-69-459.2z"/>
	<path id="Path_2974" class="st23" d="M-80.3-457.4c-0.2,0-0.3-0.1-0.3-0.3l-0.2-1.1c-0.2-1,0.5-2,1.5-2.1l0.8-0.1
		c1-0.2,2,0.5,2.1,1.5l0.2,1.1c0,0.2-0.1,0.4-0.3,0.4c-0.2,0-0.4-0.1-0.4-0.3l-0.2-1.1c-0.1-0.6-0.7-1.1-1.3-1l-0.8,0.1
		c-0.6,0.1-1.1,0.7-1,1.3l0.2,1.1C-79.9-457.6-80-457.4-80.3-457.4C-80.2-457.4-80.2-457.4-80.3-457.4
		C-80.2-457.4-80.2-457.4-80.3-457.4z"/>
</g>
</svg>
