<?xml version="1.0" encoding="utf-8"?>
<!-- Generator: Adobe Illustrator 23.0.1, SVG Export Plug-In . SVG Version: 6.00 Build 0)  -->
<svg version="1.1" id="Слой_1" xmlns="http://www.w3.org/2000/svg" xmlns:xlink="http://www.w3.org/1999/xlink" x="0px" y="0px"
	 viewBox="0 0 800 450" style="enable-background:new 0 0 800 450;" xml:space="preserve">
<style type="text/css">
	.st0{fill:#FDF0DB;}
	.st1{fill:#A6C658;}
	.st2{fill:#F0FCFF;}
	.st3{fill:#9E7A7A;}
	.st4{fill:#88CC75;}
	.st5{fill:#E1F7FF;}
	.st6{fill:#7C7C7C;}
	.st7{fill:#AED366;}
	.st8{fill:#B2877F;}
	.st9{fill:#A8837E;}
	.st10{fill:#79B264;}
	.st11{fill:#FFF4E6;}
	.st12{fill:#FCDFCD;}
	.st13{fill:#8E7272;}
	.st14{opacity:0.15;enable-background:new    ;}
	.st15{fill:#4E9FA8;}
	.st16{fill:#FFFCF8;}
	.st17{fill:#448D99;}
	.st18{fill:#B7A5A5;}
	.st19{fill:#7C5D5D;}
	.st20{fill:#B2AEAB;}
	.st21{fill:#CECECE;}
	.st22{fill:#EA8368;}
	.st23{fill:#FCA69A;}
	.st24{fill:#F4927F;}
	.st25{fill:#6D5252;}
	.st26{fill:#BAA2A2;}
	.st27{fill:#A38989;}
	.st28{fill:#FFA188;}
	.st29{fill:#FFD8D2;}
	.st30{fill:#78716C;}
	.st31{fill:#665F5A;}
	.st32{fill:#FFBDB6;}
	.st33{fill:#5EB3B7;}
	.st34{opacity:0.12;enable-background:new    ;}
	.st35{fill:#A3786D;}
	.st36{fill:#80C16B;}
	.st37{fill:#DDDBDB;}
	.st38{fill:#F5F5F5;}
	.st39{fill-rule:evenodd;clip-rule:evenodd;fill:#FFB448;}
	.st40{fill-rule:evenodd;clip-rule:evenodd;fill:#BBDCF9;}
	.st41{fill-rule:evenodd;clip-rule:evenodd;fill:#F29E38;}
	.st42{fill-rule:evenodd;clip-rule:evenodd;fill:#DD8D36;}
	.st43{fill:#565555;}
	.st44{fill:#DAE9EF;}
	.st45{fill-rule:evenodd;clip-rule:evenodd;fill:#686868;}
	.st46{fill-rule:evenodd;clip-rule:evenodd;fill:#565555;}
	.st47{fill-rule:evenodd;clip-rule:evenodd;fill:#DAE9EF;}
	.st48{fill-rule:evenodd;clip-rule:evenodd;fill:#FFF5E1;}
	.st49{fill:#8C716C;}
	.st50{fill:#7AA8EA;}
	.st51{fill:#626977;}
	.st52{fill:#FFD2B3;}
	.st53{fill:#F76841;}
	.st54{fill:#95BEF9;}
	.st55{fill:#846863;}
	.st56{fill:#9FC445;}
	.st57{fill:#7B8B9B;}
	.st58{fill:#91C6E2;}
	.st59{fill:#A1E0FF;}
	.st60{fill:#FFC9A4;}
	.st61{fill:#6091D8;}
	.st62{fill:#AA8B83;}
	.st63{fill:#76A8E5;}
	.st64{fill:#E5CEC3;}
	.st65{fill:#A59C9A;}
	.st66{fill:#B7B7B7;}
	.st67{fill:#C4C2C2;}
	.st68{fill:#727272;}
	.st69{fill:#686868;}
	.st70{fill:#FFF6F3;}
	.st71{fill:#EFDED8;}
	.st72{fill:#B7958D;}
	.st73{fill:#93D0F5;}
	.st74{fill:#A1EBFF;}
	.st75{fill:#FFD0B0;}
	.st76{fill:#4FB254;}
	.st77{fill:#565656;}
	.st78{fill:#6ACC6A;}
</style>
<rect class="st0" width="800" height="440.9"/>
<g id="Group_4968" transform="translate(-1055.193 -488.479)">
	<g id="Group_4933" transform="translate(993.408 501.938)">
		<path id="Path_3136" class="st1" d="M846.2,398.1H77.3c-8.6,0-15.5,15.2-15.5,33.9h800C861.8,413.3,854.8,398.1,846.2,398.1z"/>
		<path id="Path_3139" class="st2" d="M712.8,227.2c1.3-7.1-3.4-13.9-10.5-15.2c-5.6-1-11.1,1.7-13.8,6.6c-3.5-3.7-9-4.6-13.5-2.2
			c-3.2-5.8-9.8-8.7-16.2-7.2c-2.6-8.9-11.9-13.9-20.8-11.3c-6.4,1.9-11,7.4-11.8,13.9c-7.1-1-13.8,4-14.7,11.1
			c-0.2,1.4-0.2,2.8,0.1,4.2H712.8z"/>
		<g id="Group_1414" transform="translate(179.858 78.049)">
			<path id="Path_3165" class="st3" d="M150.7,320c-1.8-33.4-1.6-30.2-1.6-31.3l0,0.4l0-0.4c0,1.1,0.2-2.1-1.6,31.3H150.7z"/>
			<path id="Path_3166" class="st4" d="M156.8,275.9l-6.2,0.5l5.3-3c-0.7-2.1-4.6-12.9-6.8-12.9c-2.5,0.1-8,15.2-10.5,25.2l6.3,2.4
				l-6.8-0.2c-0.4,1.7-0.6,3.3-0.7,5c0,6.5,5.2,11.7,11.7,11.7h0c6.5,0,11.7-5.2,11.7-11.7l0,0C160.1,287.1,158.8,281.4,156.8,275.9
				z"/>
		</g>
		<path id="Path_3167" class="st2" d="M140.7,225.1c-6.6,0-11.9,5.3-11.9,11.9h23.8C152.6,230.4,147.2,225.1,140.7,225.1z"/>
		<path id="Path_3168" class="st2" d="M846.9,279c-6.6,0-11.9,5.3-11.9,11.9l0,0h23.8C858.8,284.3,853.4,279,846.9,279L846.9,279z"
			/>
		<path id="Path_3169" class="st2" d="M270.8,200.3c-2.8,0-5.6,1.1-7.6,3c-4.6-7.5-14.5-9.9-22.1-5.3c-4.8,2.9-7.6,8.1-7.6,13.7
			h48.7C282.2,205.4,277.1,200.3,270.8,200.3z"/>
		<path id="Path_3170" class="st2" d="M772.4,249.4c-2.8,0-5.6,1.1-7.6,3c-4.6-7.5-14.5-9.9-22.1-5.3c-4.8,2.9-7.6,8.1-7.6,13.7
			h48.7C783.7,254.5,778.6,249.4,772.4,249.4z"/>
		<g id="Group_1417" transform="translate(170.949 37.176)">
			<g id="Group_1415" transform="translate(7.299)">
				<path id="Path_3171" class="st5" d="M142.9,221.2c-1.4-3.1-4.1-5.4-7.3-6.4l0.6-1.8c2.6,0.8,5,2.4,6.7,4.5
					c1.8-2.1,4.1-3.7,6.7-4.5l0.6,1.8c-2.7,0.8-5,2.5-6.5,4.8L142.9,221.2z"/>
			</g>
			<g id="Group_1416" transform="translate(0 6.201)">
				<path id="Path_3172" class="st5" d="M132.5,226.2c-1.1-2.1-3.1-3.7-5.4-4.2l0.5-1.9c1.8,0.5,3.5,1.4,4.9,2.8
					c1.4-1.3,3.1-2.3,4.9-2.8l0.5,1.9C135.6,222.6,133.6,224.1,132.5,226.2z"/>
			</g>
		</g>
		<path id="Path_3195" class="st2" d="M204.2,164.3L204.2,164.3c0-10.1-8.1-18.2-18.2-18.2c-5.6,0-10.9,2.6-14.4,7
			c-4.6-10.6-17-15.5-27.6-10.8c-3.8,1.7-7,4.4-9.3,7.9c-7.8-6.4-19.3-5.2-25.6,2.6c-2.7,3.3-4.1,7.3-4.1,11.5v0H204.2z"/>
		<path id="Path_3196" class="st6" d="M861.8,427.4h-800c0-6.9,4.8-12.5,10.8-12.5H851C856.9,415,861.8,420.5,861.8,427.4z"/>
		<path id="Path_3197" class="st7" d="M861.8,427.4c0,5-4.8,9.1-10.8,9.1H72.6c-6,0-10.8-4.1-10.8-9.1H861.8z"/>
		<g id="Group_1420" transform="translate(288.265 115.77)">
			<path id="Path_3199" class="st7" d="M281.5,312.5c5.4-13.2,25.1-9.3,25.1,4.9h-43c1.4-5.7,7.1-9.2,12.8-7.8
				C278.4,310.1,280.1,311.1,281.5,312.5z"/>
		</g>
		<g id="Group_1422" transform="translate(297.281 41.574)">
			<g id="Group_1421" transform="translate(16.204 21.83)">
				<path id="Path_3200" class="st8" d="M301.2,351.5H293l2.3-103.5l4.1-4.5L301.2,351.5z"/>
				<path id="Path_3201" class="st9" d="M298,243.5l-2.7,3.7l-1.9,86.6l0,0c2.8-0.1,5.2,2,5.3,4.9c0,0.2,0,0.3,0,0.5v12.3h2.8v-17.6
					l-1.8-90.4L298,243.5z"/>
			</g>
			<path id="Path_3202" class="st4" d="M309.2,264.8L294,278.1l5.5,2l-16.4,6.1l-5.2,8.6l15-0.2l-18.7,11v10.1l26-8.1l11.4-14
				l41.5,8.7v-10.8l-15.9-6.8l8.6-0.7l-4.2-5.9l-23.9-6.6h7.6l-13.7-21.4L309.2,264.8z"/>
			<path id="Path_3203" class="st10" d="M311.6,293.7l41.5,8.7v-10.8l-15.9-6.8l8.6-0.7l-4.2-5.9l-23.9-6.6h7.6l-12.8-20l4.1,15.9
				l-4.9,2.6l19.2,15.5l-20.7,2L294,301.5l-19.3,3.8l-0.6,0.4v10.1l26-8.1L311.6,293.7z"/>
			<path id="Path_3204" class="st4" d="M309.2,232.7L294,246.1l5.5,2l-16.4,6.1l-5.2,8.6l15-0.2l-18.7,11v10.1l26-8.1l11.4-14
				l41.5,8.7v-10.8l-15.9-6.8l8.6-0.7l-4.2-5.9l-23.9-6.6h7.6l-13.7-21.4L309.2,232.7z"/>
			<path id="Path_3205" class="st10" d="M311.6,261.6l41.5,8.7v-10.8l-15.9-6.8l8.6-0.7l-4.2-5.9l-23.9-6.6h7.6l-12.8-20l4.1,15.9
				l-4.9,2.6l19.2,15.5l-20.7,2L294,269.4l-19.3,3.8l-0.6,0.4v10.1l26-8.1L311.6,261.6z"/>
		</g>
		<g id="Group_1429" transform="translate(88.706 69.696)">
			<rect id="Rectangle_1445" x="100.5" y="258.3" class="st11" width="50.3" height="83.7"/>
			<rect id="Rectangle_1446" x="34.9" y="258.3" class="st12" width="65.8" height="83.7"/>
			<rect id="Rectangle_1447" x="150.5" y="291.1" class="st12" width="54.1" height="50.9"/>
			<rect id="Rectangle_1448" x="150.5" y="258.3" class="st12" width="54.1" height="32.8"/>
			<g id="Group_1423" transform="translate(7.752 30.328)">
				<rect id="Rectangle_1449" x="40.4" y="286.2" class="st13" width="35.8" height="25.5"/>
				<rect id="Rectangle_1450" x="58.2" y="286.2" class="st14" width="17.9" height="25.5"/>
				<path id="Path_3206" class="st14" d="M76.2,286.1l-35.8,0v25.6h2.2v-23.3h33.6V286.1z"/>
			</g>
			<g id="Group_1425" transform="translate(40.598 23.919)">
				<rect id="Rectangle_1451" x="78.6" y="280.4" class="st15" width="76.1" height="37.7"/>
				<g id="Group_1424" transform="translate(0.013)">
					<path id="Path_3207" class="st12" d="M156.5,278.6l-2,2.1H78.6v-2.1H156.5z"/>
					<path id="Path_3208" class="st16" d="M154.5,280.7v37.4l2,0v-39.4L154.5,280.7z"/>
				</g>
				<rect id="Rectangle_1452" x="139.1" y="280.8" class="st17" width="1.1" height="37.3"/>
				<rect id="Rectangle_1453" x="122.9" y="280.8" class="st17" width="1.1" height="37.3"/>
				<rect id="Rectangle_1454" x="152.3" y="280.8" class="st17" width="2.2" height="37.3"/>
				<rect id="Rectangle_1455" x="78.9" y="294.1" class="st17" width="75.6" height="1.1"/>
				<rect id="Rectangle_1456" x="78.6" y="280.6" class="st17" width="75.8" height="2.2"/>
				<rect id="Rectangle_1457" x="79.6" y="282.5" class="st15" width="30.6" height="35.6"/>
				<rect id="Rectangle_1458" x="78.9" y="294.1" class="st17" width="31.4" height="1.1"/>
				<rect id="Rectangle_1459" x="78.6" y="278.7" class="st12" width="31.5" height="1.9"/>
				<rect id="Rectangle_1460" x="80.6" y="280.6" class="st17" width="29.5" height="2.1"/>
				<rect id="Rectangle_1461" x="95.4" y="280.8" class="st17" width="1.1" height="37.3"/>
				<rect id="Rectangle_1462" x="80.6" y="280.8" class="st17" width="2.2" height="37.3"/>
				<path id="Path_3209" class="st16" d="M80.6,280.7v37.4l-2,0v-39.4L80.6,280.7z"/>
			</g>
			<rect id="Rectangle_1463" x="162.8" y="272.9" class="st15" width="26.1" height="18.2"/>
			<g id="Group_1426" transform="translate(60.752 8.066)">
				<path id="Path_3210" class="st12" d="M132.8,260.2L128,265h-25.9v-4.8H132.8z"/>
				<path id="Path_3211" class="st16" d="M128.1,264.9V283l4.7,0v-22.8L128.1,264.9z"/>
			</g>
			<rect id="Rectangle_1464" x="186.5" y="273.3" class="st17" width="2.2" height="17.8"/>
			<rect id="Rectangle_1465" x="162.8" y="273.1" class="st17" width="25.9" height="2.2"/>
			<rect id="Rectangle_1466" x="150.6" y="302.7" class="st12" width="1.2" height="39.3"/>
			<rect id="Rectangle_1467" x="149.5" y="302.7" class="st12" width="1.2" height="39.3"/>
			<rect id="Rectangle_1468" x="150.5" y="290.7" class="st13" width="60.6" height="1.1"/>
			<rect id="Rectangle_1469" x="34.9" y="258.1" class="st14" width="169.6" height="2.2"/>
			<rect id="Rectangle_1470" x="150.5" y="291.8" class="st13" width="60.6" height="8.8"/>
			<rect id="Rectangle_1471" x="150.5" y="290.7" class="st18" width="8" height="1.1"/>
			<rect id="Rectangle_1472" x="150.5" y="291.8" class="st18" width="8" height="8.8"/>
			<g id="Group_1428" transform="translate(7.79 9.589)">
				<rect id="Rectangle_1473" x="42.2" y="263.8" class="st15" width="33.2" height="31.1"/>
				<g id="Group_1427">
					<path id="Path_3212" class="st12" d="M40.4,262l2,2.1h33V262H40.4z"/>
					<path id="Path_3213" class="st16" d="M42.4,264v30.9l-2,0V262L42.4,264z"/>
				</g>
				<rect id="Rectangle_1474" x="64.1" y="264.1" class="st17" width="1.1" height="30.8"/>
				<rect id="Rectangle_1475" x="52.5" y="264.1" class="st17" width="1.1" height="30.8"/>
				<rect id="Rectangle_1476" x="42.4" y="264.1" class="st17" width="2.2" height="30.8"/>
				<rect id="Rectangle_1477" x="42.5" y="278.1" class="st17" width="32.7" height="1.1"/>
				<rect id="Rectangle_1478" x="42.5" y="263.9" class="st17" width="32.9" height="2.2"/>
			</g>
			<rect id="Rectangle_1479" x="31.3" y="250.8" class="st19" width="63.3" height="7.5"/>
			<rect id="Rectangle_1480" x="145.4" y="250.8" class="st19" width="63.3" height="7.5"/>
			<rect id="Rectangle_1481" x="94.5" y="250.8" class="st13" width="62.7" height="7.5"/>
			<rect id="Rectangle_1482" x="31.3" y="341.3" class="st20" width="63.3" height="3.7"/>
			<rect id="Rectangle_1483" x="145.4" y="341.3" class="st20" width="63.3" height="3.7"/>
			<rect id="Rectangle_1484" x="94.5" y="341.3" class="st21" width="62.7" height="3.7"/>
		</g>
		<g id="Group_1451" transform="translate(191.166 49.187)">
			<g id="Group_1449">
				<rect id="Rectangle_1485" x="224.8" y="358.3" class="st13" width="165.3" height="7.5"/>
				<g id="Group_1432" transform="translate(0 33.302)">
					<rect id="Rectangle_1486" x="156.5" y="284.1" class="st22" width="69.4" height="41.2"/>
					<g id="Group_1431" transform="translate(11.516 13.878)">
						<rect id="Rectangle_1487" x="166.2" y="284" class="st17" width="28.2" height="16.4"/>
						<rect id="Rectangle_1488" x="168.1" y="285.9" class="st15" width="24.4" height="12.6"/>
						<g id="Group_1430">
							<path id="Path_3214" class="st23" d="M166.4,284.3v16l-2.4,2.4v-20.8L166.4,284.3z"/>
							<path id="Path_3215" class="st23" d="M196.6,281.8l-2.4,2.4h-27.7l-2.4-2.4H196.6z"/>
							<path id="Path_3216" class="st24" d="M194.1,284.3v15.9l2.4,2.4v-20.8L194.1,284.3z"/>
							<path id="Path_3217" class="st24" d="M196.6,302.6l-2.4-2.4h-27.7l-2.5,2.4L196.6,302.6z"/>
						</g>
						<rect id="Rectangle_1489" x="174.7" y="285.7" class="st17" width="1.4" height="13.3"/>
						<rect id="Rectangle_1490" x="184" y="285.7" class="st17" width="1.4" height="13.3"/>
						<rect id="Rectangle_1491" x="167.4" y="291.6" class="st17" width="26.1" height="1.4"/>
					</g>
					<rect id="Rectangle_1492" x="156.3" y="287.3" class="st14" width="69.9" height="3.4"/>
					<path id="Path_3218" class="st19" d="M161.3,265.7l-10.7,18.4h75.7v-18.4H161.3z"/>
					<rect id="Rectangle_1493" x="150.6" y="284.1" class="st25" width="75.8" height="3.5"/>
				</g>
				<rect id="Rectangle_1494" x="156.5" y="358.3" class="st19" width="69.3" height="7.6"/>
				<rect id="Rectangle_1495" x="309.2" y="362.1" class="st26" width="34.5" height="3.8"/>
				<rect id="Rectangle_1496" x="313.2" y="358.3" class="st27" width="27.1" height="3.9"/>
				<rect id="Rectangle_1497" x="225.8" y="276.8" class="st28" width="164.2" height="81.6"/>
				<path id="Path_3219" class="st13" d="M307.6,226.9l-91.2,51.6h182.4L307.6,226.9z"/>
				<rect id="Rectangle_1498" x="313.9" y="323.2" class="st29" width="25.4" height="35.1"/>
				<rect id="Rectangle_1499" x="316.6" y="325.3" class="st30" width="20" height="33"/>
				<g id="Group_1433" transform="translate(78.255 46.783)">
					<path id="Path_3220" class="st31" d="M255.1,307.4h-13.4v-26h13.4L255.1,307.4z M242.7,306.3h11.4v-23.9h-11.4V306.3z"/>
				</g>
				<path id="Path_3221" class="st13" d="M307.6,226.9v51.5h91L307.6,226.9z"/>
				<g id="Group_1435" transform="translate(41.029 30.698)">
					<rect id="Rectangle_1500" x="200.3" y="264.5" class="st15" width="21.5" height="19.8"/>
					<g id="Group_1434">
						<rect id="Rectangle_1501" x="200.9" y="265.2" class="st17" width="1.6" height="18.4"/>
						<rect id="Rectangle_1502" x="219.6" y="265.2" class="st17" width="1.7" height="18.4"/>
						<rect id="Rectangle_1503" x="200.9" y="265.2" class="st17" width="20.6" height="1.6"/>
						<rect id="Rectangle_1504" x="200.9" y="282" class="st17" width="20.6" height="1.5"/>
						<path id="Path_3222" class="st32" d="M201,265.3h20.3l2.6-2.5l-25.4,0L201,265.3z"/>
						<path id="Path_3223" class="st32" d="M198.4,286l2.6-2.5v-18.2l-2.6-2.6h-0.1L198.4,286z"/>
						<path id="Path_3224" class="st29" d="M201,283.5h20.2l2.6,2.6l-25.4-0.1L201,283.5z"/>
						<path id="Path_3225" class="st29" d="M223.8,286l-2.6-2.5v-18.2l2.6-2.6h0.1L223.8,286z"/>
					</g>
				</g>
				<g id="Group_1437" transform="translate(58.254 30.698)">
					<rect id="Rectangle_1505" x="220.4" y="264.5" class="st15" width="21.5" height="19.8"/>
					<g id="Group_1436">
						<path id="Path_3226" class="st33" d="M241,270.6l-15,15h4.4L241,275L241,270.6z"/>
						<path id="Path_3227" class="st33" d="M240.3,266.1l-17,17l-0.1,2.8l17.1-17.1L240.3,266.1z"/>
						<rect id="Rectangle_1506" x="220.9" y="265.2" class="st17" width="1.6" height="18.4"/>
						<rect id="Rectangle_1507" x="239.7" y="265.2" class="st17" width="1.7" height="18.4"/>
						<rect id="Rectangle_1508" x="221" y="265.2" class="st17" width="20.6" height="1.6"/>
						<rect id="Rectangle_1509" x="221" y="282" class="st17" width="20.6" height="1.5"/>
						<path id="Path_3228" class="st32" d="M221,265.3h20.3l2.6-2.5l-25.4,0L221,265.3z"/>
						<path id="Path_3229" class="st32" d="M218.5,286l2.6-2.5v-18.2l-2.6-2.6h-0.1L218.5,286z"/>
						<path id="Path_3230" class="st29" d="M221,283.5h20.2l2.6,2.6l-25.4,0L221,283.5z"/>
						<path id="Path_3231" class="st29" d="M243.9,286l-2.6-2.5v-18.2l2.6-2.6h0.1L243.9,286z"/>
					</g>
				</g>
				<g id="Group_1439" transform="translate(75.479 30.698)">
					<rect id="Rectangle_1510" x="240.4" y="264.5" class="st15" width="21.5" height="19.8"/>
					<g id="Group_1438">
						<path id="Path_3232" class="st33" d="M261.1,270.6l-15,15h4.4l10.6-10.6L261.1,270.6z"/>
						<path id="Path_3233" class="st33" d="M260.3,266.1l-17,17l-0.1,2.8l17.1-17.1L260.3,266.1z"/>
						<rect id="Rectangle_1511" x="241" y="265.2" class="st17" width="1.6" height="18.4"/>
						<rect id="Rectangle_1512" x="259.7" y="265.2" class="st17" width="1.7" height="18.4"/>
						<rect id="Rectangle_1513" x="241" y="265.2" class="st17" width="20.6" height="1.6"/>
						<rect id="Rectangle_1514" x="241" y="282" class="st17" width="20.6" height="1.5"/>
						<path id="Path_3234" class="st32" d="M241.1,265.3h20.3l2.6-2.5l-25.4,0L241.1,265.3z"/>
						<path id="Path_3235" class="st32" d="M238.5,286l2.6-2.5v-18.2l-2.6-2.6h-0.1L238.5,286z"/>
						<path id="Path_3236" class="st29" d="M241.1,283.5h20.2l2.6,2.6l-25.4-0.1L241.1,283.5z"/>
						<path id="Path_3237" class="st29" d="M263.9,286l-2.6-2.5v-18.2l2.6-2.6h0.1L263.9,286z"/>
					</g>
				</g>
				<g id="Group_1441" transform="translate(92.704 30.698)">
					<rect id="Rectangle_1515" x="260.5" y="264.5" class="st15" width="21.5" height="19.8"/>
					<g id="Group_1440">
						<rect id="Rectangle_1516" x="261" y="265.2" class="st17" width="1.6" height="18.4"/>
						<rect id="Rectangle_1517" x="279.8" y="265.2" class="st17" width="1.7" height="18.4"/>
						<rect id="Rectangle_1518" x="261.1" y="265.2" class="st17" width="20.6" height="1.6"/>
						<rect id="Rectangle_1519" x="261.1" y="282" class="st17" width="20.6" height="1.5"/>
						<path id="Path_3238" class="st32" d="M261.1,265.3h20.3l2.6-2.5l-25.4,0L261.1,265.3z"/>
						<path id="Path_3239" class="st32" d="M258.6,286l2.6-2.5v-18.2l-2.6-2.6h-0.1L258.6,286z"/>
						<path id="Path_3240" class="st29" d="M261.1,283.5h20.2l2.6,2.6l-25.4-0.1L261.1,283.5z"/>
						<path id="Path_3241" class="st29" d="M284,286l-2.6-2.5v-18.2l2.6-2.6h0.1L284,286z"/>
					</g>
				</g>
				<g id="Group_1443" transform="translate(41.029 44.707)">
					<rect id="Rectangle_1520" x="200.3" y="280.8" class="st15" width="21.5" height="19.8"/>
					<g id="Group_1442">
						<rect id="Rectangle_1521" x="200.9" y="281.5" class="st17" width="1.6" height="18.4"/>
						<rect id="Rectangle_1522" x="219.6" y="281.5" class="st17" width="1.7" height="18.4"/>
						<rect id="Rectangle_1523" x="200.9" y="281.5" class="st17" width="20.6" height="1.6"/>
						<rect id="Rectangle_1524" x="200.9" y="298.4" class="st17" width="20.6" height="1.5"/>
						<path id="Path_3242" class="st32" d="M201,281.6h20.3l2.5-2.6h-25.4L201,281.6z"/>
						<path id="Path_3243" class="st32" d="M198.4,302.3l2.6-2.5v-18.2l-2.6-2.6h-0.1L198.4,302.3z"/>
						<path id="Path_3244" class="st29" d="M201,299.8h20.2l2.6,2.6h-25.4L201,299.8z"/>
						<path id="Path_3245" class="st29" d="M223.8,302.3l-2.6-2.5v-18.2l2.6-2.6h0.1L223.8,302.3z"/>
					</g>
				</g>
				<g id="Group_1445" transform="translate(58.254 44.707)">
					<rect id="Rectangle_1525" x="220.4" y="280.8" class="st15" width="21.5" height="19.8"/>
					<g id="Group_1444">
						<path id="Path_3246" class="st33" d="M241,286.9l-15,15h4.4l10.6-10.6L241,286.9z"/>
						<path id="Path_3247" class="st33" d="M240.3,282.4l-17,17l-0.1,2.8l17.1-17.1L240.3,282.4z"/>
						<rect id="Rectangle_1526" x="220.9" y="281.5" class="st17" width="1.6" height="18.4"/>
						<rect id="Rectangle_1527" x="239.7" y="281.5" class="st17" width="1.7" height="18.4"/>
						<rect id="Rectangle_1528" x="221" y="281.5" class="st17" width="20.6" height="1.6"/>
						<rect id="Rectangle_1529" x="221" y="298.4" class="st17" width="20.6" height="1.5"/>
						<path id="Path_3248" class="st32" d="M221,281.6h20.3l2.5-2.6h-25.4L221,281.6z"/>
						<path id="Path_3249" class="st32" d="M218.5,302.3l2.6-2.5v-18.2l-2.6-2.6h-0.1L218.5,302.3z"/>
						<path id="Path_3250" class="st29" d="M221,299.8h20.2l2.6,2.6h-25.4L221,299.8z"/>
						<path id="Path_3251" class="st29" d="M243.9,302.3l-2.6-2.5v-18.2l2.6-2.6h0.1L243.9,302.3z"/>
					</g>
				</g>
				<g id="Group_1447" transform="translate(92.704 44.707)">
					<rect id="Rectangle_1530" x="260.5" y="280.8" class="st15" width="21.5" height="19.8"/>
					<g id="Group_1446">
						<rect id="Rectangle_1531" x="261" y="281.5" class="st17" width="1.6" height="18.4"/>
						<rect id="Rectangle_1532" x="279.8" y="281.5" class="st17" width="1.7" height="18.4"/>
						<rect id="Rectangle_1533" x="261.1" y="281.5" class="st17" width="20.6" height="1.6"/>
						<rect id="Rectangle_1534" x="261.1" y="298.4" class="st17" width="20.6" height="1.5"/>
						<path id="Path_3252" class="st32" d="M261.1,281.6h20.3l2.6-2.5l-25.4,0L261.1,281.6z"/>
						<path id="Path_3253" class="st32" d="M258.6,302.3l2.6-2.5v-18.2l-2.6-2.6h-0.1L258.6,302.3z"/>
						<path id="Path_3254" class="st29" d="M261.1,299.8h20.2l2.6,2.6l-25.4,0L261.1,299.8z"/>
						<path id="Path_3255" class="st29" d="M284,302.3l-2.6-2.5v-18.2l2.6-2.6h0.1L284,302.3z"/>
					</g>
				</g>
				<rect id="Rectangle_1535" x="216.5" y="278.4" class="st19" width="182.1" height="3.6"/>
				<rect id="Rectangle_1536" x="225.8" y="281.9" class="st14" width="164.2" height="3.6"/>
				<g id="Group_1448" transform="translate(78.288 52.978)">
					<rect id="Rectangle_1537" x="241.7" y="288.6" class="st31" width="12.9" height="1"/>
				</g>
				<path id="Path_3256" class="st34" d="M339.4,323.2l-25.4,25.3v-25.3H339.4z"/>
			</g>
			<g id="Group_1450" transform="translate(77.226 52.711)">
				<rect id="Rectangle_1538" x="240.5" y="288.3" class="st31" width="1" height="2.9"/>
			</g>
		</g>
		<g id="Group_1452" transform="translate(68.034 48.095)">
			<rect id="Rectangle_1539" x="33.3" y="340.7" class="st8" width="8.7" height="25.9"/>
			<path id="Path_3257" class="st35" d="M33.3,340.7v7.3c3.1-0.2,5.8,2.2,6,5.4c0,0.1,0,0.2,0,0.2v13h3v-25.9H33.3z"/>
			<path id="Path_3258" class="st4" d="M38,225.7l-17.6,54.6l17.6-8.7l17.6,8.7L38,225.7z"/>
			<path id="Path_3259" class="st4" d="M38,242.8l-22.6,70.2L38,301.9l22.6,11.1L38,242.8z"/>
			<path id="Path_3260" class="st4" d="M38,261.1L7.3,356.6L38,341.4l30.7,15.1L38,261.1z"/>
			<path id="Path_3261" class="st36" d="M38,225.7l17.6,54.6L42,273.6L38,225.7z"/>
			<path id="Path_3262" class="st36" d="M43,258.2l17.6,54.6L47,306.2L43,258.2z"/>
			<path id="Path_3263" class="st36" d="M51.1,302l17.6,54.6l-13.5-6.7L51.1,302z"/>
			<path id="Path_3264" class="st10" d="M49,277.1l-11-5.4l-11,5.4l-4.3,13.4l14.8-12.2l15.8,11.9L49,277.1z"/>
			<path id="Path_3265" class="st10" d="M53.6,309.4L38,301.7l-15.6,7.7l-6.1,18.9L37.3,311l22.3,16.8L53.6,309.4z"/>
		</g>
		<g id="Group_1503" transform="translate(136.509 103.358)">
			<g id="Group_1482" transform="translate(14.92)">
				<g id="Group_1474" transform="translate(0 3.891)">
					<g id="Group_1473">
						<rect id="Rectangle_1578" x="104.4" y="294.5" class="st37" width="33" height="1.7"/>
					</g>
				</g>
				<g id="Group_1476" transform="translate(0 7.224)">
					<g id="Group_1475">
						<rect id="Rectangle_1579" x="104.4" y="298.4" class="st37" width="33" height="1.7"/>
					</g>
				</g>
				<g id="Group_1477" transform="translate(1.039 1.746)">
					<path id="Path_3294" class="st38" d="M108,309.8h-2.4V294l1.2-2l1.2,2V309.8z"/>
				</g>
				<g id="Group_1478" transform="translate(4.027 0.915)">
					<path id="Path_3295" class="st38" d="M111.5,310.7H109V293l1.2-2l1.2,2L111.5,310.7z"/>
				</g>
				<g id="Group_1479" transform="translate(7.014)">
					<path id="Path_3296" class="st38" d="M114.9,311.6h-2.4V292l1.2-2l1.2,2V311.6z"/>
				</g>
				<g id="Group_1480" transform="translate(10.002 0.915)">
					<path id="Path_3297" class="st38" d="M118.4,310.7H116V293l1.2-2l1.2,2L118.4,310.7z"/>
				</g>
				<g id="Group_1481" transform="translate(12.99 1.746)">
					<path id="Path_3298" class="st38" d="M121.9,309.8h-2.4V294l1.2-2l1.2,2V309.8z"/>
				</g>
			</g>
			<g id="Group_1492" transform="translate(29.907)">
				<g id="Group_1484" transform="translate(0 3.891)">
					<g id="Group_1483">
						<rect id="Rectangle_1580" x="121.8" y="294.5" class="st37" width="33" height="1.7"/>
					</g>
				</g>
				<g id="Group_1486" transform="translate(0 7.224)">
					<g id="Group_1485">
						<rect id="Rectangle_1581" x="121.8" y="298.4" class="st37" width="33" height="1.7"/>
					</g>
				</g>
				<g id="Group_1487" transform="translate(1.039 1.746)">
					<path id="Path_3299" class="st38" d="M125.4,309.8H123V294l1.2-2l1.2,2L125.4,309.8z"/>
				</g>
				<g id="Group_1488" transform="translate(4.027 0.915)">
					<path id="Path_3300" class="st38" d="M128.9,310.7h-2.4V293l1.2-2l1.2,2L128.9,310.7z"/>
				</g>
				<g id="Group_1489" transform="translate(7.014)">
					<path id="Path_3301" class="st38" d="M132.4,311.6H130V292l1.2-2l1.2,2L132.4,311.6z"/>
				</g>
				<g id="Group_1490" transform="translate(10.002 0.915)">
					<path id="Path_3302" class="st38" d="M135.9,310.7h-2.4V293l1.2-2l1.2,2L135.9,310.7z"/>
				</g>
				<g id="Group_1491" transform="translate(12.99 1.746)">
					<path id="Path_3303" class="st38" d="M139.3,309.8h-2.4V294l1.2-2l1.2,2L139.3,309.8z"/>
				</g>
			</g>
			<g id="Group_1502">
				<g id="Group_1494" transform="translate(0 3.891)">
					<g id="Group_1493">
						<rect id="Rectangle_1582" x="87" y="294.5" class="st37" width="33" height="1.7"/>
					</g>
				</g>
				<g id="Group_1496" transform="translate(0 7.224)">
					<g id="Group_1495">
						<rect id="Rectangle_1583" x="87" y="298.4" class="st37" width="33" height="1.7"/>
					</g>
				</g>
				<g id="Group_1497" transform="translate(1.039 1.746)">
					<path id="Path_3304" class="st38" d="M90.6,309.8h-2.4V294l1.2-2l1.2,2V309.8z"/>
				</g>
				<g id="Group_1498" transform="translate(4.027 0.915)">
					<path id="Path_3305" class="st38" d="M94.1,310.7h-2.4V293l1.2-2l1.2,2V310.7z"/>
				</g>
				<g id="Group_1499" transform="translate(7.014)">
					<path id="Path_3306" class="st38" d="M97.6,311.6h-2.4V292l1.2-2l1.2,2V311.6z"/>
				</g>
				<g id="Group_1500" transform="translate(10.002 0.915)">
					<path id="Path_3307" class="st38" d="M101.1,310.7h-2.4V293l1.2-2l1.2,2V310.7z"/>
				</g>
				<g id="Group_1501" transform="translate(12.99 1.746)">
					<path id="Path_3308" class="st38" d="M104.5,309.8h-2.4V294l1.2-2l1.2,2L104.5,309.8z"/>
				</g>
			</g>
		</g>
		<g id="Group_1504" transform="translate(101.85 103.267)">
			<path id="Path_3309" class="st39" d="M46.6,313.5c-0.1,2.4,1.9,4.4,4.3,4.4c0.1,0,0.1,0,0.2,0h71.8l4.4-0.9
				c2.4-0.2,4.3-2.1,4.4-4.4c0-4.5,0.8-12.5-2.3-17.4c-3.6-5.7-26.8-6.1-39.4-4.4c-9.5,1.3-13.8,4.8-21.3,7.9
				C53.9,304.7,47.9,296.6,46.6,313.5z"/>
			<path id="Path_3310" class="st40" d="M124.5,295.5c-4.1-3.3-14.8-3.8-19.2-3.8c-5.9-0.1-11.8,0.4-17.6,1.6
				c-5.5,1.3-10.6,3.7-14.9,7.2l53.9-1.1C126.4,297.9,125.6,296.5,124.5,295.5z"/>
			<path id="Path_3311" class="st41" d="M124.5,295.5c-4.1-3.3-14.8-3.8-19.2-3.8c-5.9-0.1-11.8,0.4-17.6,1.6
				c-5.5,1.3-10.6,3.7-14.9,7.2l53.9-1.1C126.4,297.9,125.6,296.5,124.5,295.5L124.5,295.5z M74.7,299.9c3.9-2.8,8.4-4.9,13.2-6
				c5.7-1.2,11.6-1.7,17.5-1.6c4.8,0,14.9,0.6,18.8,3.7c0.8,0.8,1.4,1.7,1.8,2.8L74.7,299.9z"/>
			<path id="Path_3312" class="st41" d="M58,305.1h5.2c3.4,0.1,6.3,2.5,7.2,5.8h35.4c0.9-3.3,3.8-5.6,7.2-5.8h5.2
				c3.3,0.1,6.1,2.3,7,5.4l2.5-0.5c1.6-0.3,3-1.1,4.1-2.3c0,1.8-0.1,3.5-0.1,4.9c-0.2,2.4-2.1,4.3-4.4,4.4l-4.4,0.9H51.1
				c-2.4,0.1-4.4-1.9-4.4-4.3c0-0.1,0-0.1,0-0.2c0.1-1.4,0.3-2.9,0.5-4.3c0.9,0.9,2.2,1.5,3.5,1.6h0.2
				C51.7,307.6,54.6,305.2,58,305.1z"/>
			<path id="Path_3313" class="st42" d="M112.9,306.4h5.2c3.5,0,5.6,2.9,6.3,6.3c0.1,0.6,0.3,1.4,0.5,2.1l2.3-0.5
				c1.7-0.3,3.2-1,4.4-2.2c0,0.1,0,0.3,0,0.4c-0.2,2.4-2.1,4.3-4.4,4.4l-1.8,0.4l0,0l-2.5,0.5h0l-0.1,0H51.1
				c-2.4,0.1-4.4-1.9-4.4-4.3c0-0.1,0-0.1,0-0.2c0-0.1,0-0.2,0-0.3c1.2,1.2,2.8,1.9,4.4,2.1h0.1l0.5-2.6c0.7-3.4,2.8-6.3,6.3-6.3
				h5.2c3.5,0,5.6,2.9,6.3,6.3l0.5,2.6h36l0.5-2.6C107.4,309.3,109.5,306.4,112.9,306.4z"/>
			<ellipse id="Ellipse_147" class="st43" cx="60.6" cy="316.2" rx="7.2" ry="7.2"/>
			<ellipse id="Ellipse_148" class="st44" cx="60.6" cy="316.2" rx="4.6" ry="4.6"/>
			<path id="Path_3314" class="st45" d="M60.6,315.8c0.3,0,0.5,0.2,0.5,0.5s-0.2,0.5-0.5,0.5c-0.3,0-0.5-0.2-0.5-0.5
				C60.2,316,60.4,315.8,60.6,315.8L60.6,315.8z M61.8,312.8c0.8,0.3,1.4,0.8,1.9,1.5c-0.1,0.2-0.2,0.4-0.4,0.5
				c-0.4,0.1-0.8,0.2-1.2,0.1c-0.5,0-0.5-0.1-0.6-0.6c-0.1-0.4,0-0.8,0.1-1.2C61.7,313,61.7,312.9,61.8,312.8L61.8,312.8z
				 M64.2,316.5c-0.1,0.8-0.4,1.6-1,2.2c-0.2,0-0.4-0.1-0.5-0.3c-0.2-0.3-0.4-0.7-0.4-1.1c-0.1-0.5,0-0.6,0.4-0.7
				c0.4-0.2,0.8-0.3,1.2-0.2C64.1,316.4,64.2,316.4,64.2,316.5L64.2,316.5z M61.9,319.6c-0.8,0.3-1.7,0.3-2.5,0c0-0.1,0-0.3,0-0.4
				c0.2-0.4,0.4-0.7,0.8-0.9c0.4-0.3,0.5-0.3,0.9,0c0.3,0.2,0.6,0.5,0.8,0.9C61.9,319.3,61.9,319.5,61.9,319.6L61.9,319.6z
				 M58,318.7c-0.6-0.6-0.9-1.4-1-2.2c0.1-0.1,0.2-0.1,0.3-0.1c0.4,0,0.8,0,1.2,0.2c0.4,0.2,0.5,0.2,0.4,0.7c0,0.4-0.2,0.8-0.4,1.1
				C58.4,318.6,58.2,318.7,58,318.7L58,318.7z M57.6,314.3c0.4-0.7,1.1-1.2,1.9-1.5c0.1,0.1,0.2,0.2,0.2,0.3
				c0.1,0.4,0.2,0.8,0.1,1.2c0,0.5-0.1,0.6-0.6,0.6c-0.4,0.1-0.8,0-1.2-0.1C57.8,314.7,57.6,314.5,57.6,314.3L57.6,314.3z
				 M60.6,317.2c0.1,0,0.3,0.1,0.3,0.3c0,0.1-0.1,0.3-0.3,0.3c-0.1,0-0.3-0.1-0.3-0.3C60.4,317.3,60.5,317.2,60.6,317.2
				C60.6,317.2,60.6,317.2,60.6,317.2z M61.7,316.4c0.1,0,0.3,0.1,0.3,0.3c0,0.1-0.1,0.3-0.3,0.3c-0.1,0-0.3-0.1-0.3-0.3
				C61.5,316.5,61.6,316.4,61.7,316.4C61.7,316.4,61.7,316.4,61.7,316.4z M59.6,316.4c0.1,0,0.3,0.1,0.3,0.3c0,0.1-0.1,0.3-0.3,0.3
				c-0.1,0-0.3-0.1-0.3-0.3C59.3,316.5,59.4,316.4,59.6,316.4C59.6,316.4,59.6,316.4,59.6,316.4z M61.4,315c0.1,0,0.3,0.1,0.3,0.3
				c0,0.1-0.1,0.3-0.3,0.3c-0.1,0-0.3-0.1-0.3-0.3C61.1,315.1,61.2,315,61.4,315C61.4,315,61.4,315,61.4,315z M59.9,315
				c0.1,0,0.3,0.1,0.3,0.3c0,0.1-0.1,0.3-0.3,0.3c-0.1,0-0.3-0.1-0.3-0.3C59.6,315.1,59.8,315,59.9,315L59.9,315z"/>
			<path id="Path_3315" class="st46" d="M115.6,323.4c4,0,7.2-3.2,7.2-7.2c0-4-3.2-7.2-7.2-7.2s-7.2,3.2-7.2,7.2
				C108.4,320.1,111.6,323.4,115.6,323.4z"/>
			<path id="Path_3316" class="st47" d="M115.6,320.8c2.5,0,4.6-2,4.6-4.6c0-2.5-2-4.6-4.6-4.6c-2.5,0-4.6,2-4.6,4.6
				C111,318.7,113,320.7,115.6,320.8z"/>
			<path id="Path_3317" class="st45" d="M115.6,315.8c0.3,0,0.5,0.2,0.5,0.5s-0.2,0.5-0.5,0.5c-0.3,0-0.5-0.2-0.5-0.5
				C115.1,316,115.3,315.8,115.6,315.8L115.6,315.8z M116.7,312.8c0.8,0.3,1.4,0.8,1.9,1.5c-0.1,0.2-0.2,0.4-0.4,0.5
				c-0.4,0.1-0.8,0.2-1.2,0.1c-0.5,0-0.5-0.1-0.6-0.6c-0.1-0.4,0-0.8,0.1-1.2C116.6,313,116.7,312.9,116.7,312.8L116.7,312.8z
				 M119.2,316.5c-0.1,0.8-0.4,1.6-1,2.2c-0.2,0-0.4-0.1-0.5-0.3c-0.2-0.3-0.4-0.7-0.4-1.1c-0.1-0.5,0-0.6,0.4-0.7
				c0.4-0.2,0.8-0.3,1.2-0.2C119,316.4,119.1,316.4,119.2,316.5L119.2,316.5z M116.8,319.6c-0.8,0.3-1.7,0.3-2.5,0
				c0-0.1,0-0.3,0-0.4c0.2-0.4,0.4-0.7,0.8-0.9c0.4-0.3,0.5-0.3,0.9,0c0.3,0.2,0.6,0.5,0.8,0.9C116.8,319.3,116.8,319.5,116.8,319.6
				L116.8,319.6z M112.9,318.7c-0.6-0.6-0.9-1.4-1-2.2c0.1-0.1,0.2-0.1,0.3-0.1c0.4,0,0.8,0,1.2,0.2c0.4,0.2,0.5,0.2,0.4,0.7
				c0,0.4-0.2,0.8-0.4,1.1C113.3,318.6,113.1,318.7,112.9,318.7L112.9,318.7z M112.5,314.3c0.4-0.7,1.1-1.2,1.9-1.5
				c0.1,0.1,0.2,0.2,0.2,0.3c0.1,0.4,0.2,0.8,0.1,1.2c0,0.5-0.1,0.6-0.6,0.6c-0.4,0.1-0.8,0-1.2-0.1
				C112.7,314.7,112.5,314.5,112.5,314.3L112.5,314.3z M115.5,317.2c0.1,0,0.3,0.1,0.3,0.3c0,0.1-0.1,0.3-0.3,0.3
				c-0.1,0-0.3-0.1-0.3-0.3C115.3,317.3,115.4,317.2,115.5,317.2C115.5,317.2,115.5,317.2,115.5,317.2z M116.6,316.4
				c0.1,0,0.3,0.1,0.3,0.3c0,0.1-0.1,0.3-0.3,0.3c-0.1,0-0.3-0.1-0.3-0.3C116.4,316.5,116.5,316.4,116.6,316.4
				C116.6,316.4,116.6,316.4,116.6,316.4z M114.5,316.4c0.1,0,0.3,0.1,0.3,0.3c0,0.1-0.1,0.3-0.3,0.3c-0.1,0-0.3-0.1-0.3-0.3
				C114.2,316.5,114.3,316.4,114.5,316.4C114.5,316.4,114.5,316.4,114.5,316.4z M116.3,315c0.1,0,0.3,0.1,0.3,0.3
				c0,0.1-0.1,0.3-0.3,0.3c-0.1,0-0.3-0.1-0.3-0.3C116,315.1,116.1,315,116.3,315C116.3,315,116.3,315,116.3,315z M114.8,315
				c0.1,0,0.3,0.1,0.3,0.3c0,0.1-0.1,0.3-0.3,0.3c-0.1,0-0.3-0.1-0.3-0.3C114.6,315.1,114.7,315,114.8,315
				C114.8,315,114.8,315,114.8,315L114.8,315z"/>
			<path id="Path_3318" class="st48" d="M49.1,304.1h2.4c1.7,0,0.6,2.1-0.2,3.1c-0.6,0.8-2.5,0.4-3.6,0.1
				C47.9,306.2,48.4,305.1,49.1,304.1z"/>
			<path id="Path_3319" class="st41" d="M131.5,301.4h-3.7c-1.8,0-0.2,4,2.1,4h1.9C131.8,304.1,131.6,302.8,131.5,301.4z"/>
			<path id="Path_3320" class="st41" d="M95.8,292l0.9,8l-2.8,0.1l-0.9-7.7C93.9,292.2,94.8,292.1,95.8,292z"/>
			<path id="Path_3321" class="st41" d="M110.3,291.8l0.9,7.9l-1.3,0l-0.9-8C109.5,291.8,110,291.8,110.3,291.8z"/>
			<path id="Path_3322" class="st41" d="M77.9,297.1l0.9,3.3l-6,0.1C74.4,299.2,76.1,298.1,77.9,297.1z"/>
			<path id="Path_3323" class="st42" d="M94.6,292.6l0.9,7.5L95,316.7h-0.4l0.4-16.6l-0.9-7.4c-2.2,0.2-4.3,0.6-6.4,1.1
				c-6.5,1.6-12.7,4.6-17.9,8.8l1.8,14.1l-0.5,0l-1.8-14.3c5.3-4.3,11.6-7.4,18.3-9c5.8-1.2,11.7-1.7,17.6-1.6c1.1,0,3.6,0,5.3,0.2
				l1.2,10l-1.2,8.4l-0.4,0l1.2-8.3l-1.1-9.6c-1.5-0.1-3.8-0.1-4.9-0.1C101.7,292.1,98.1,292.2,94.6,292.6z"/>
			<path id="Path_3324" class="st39" d="M79.4,296.8c0.9-0.1,1.1-0.3,1.1,0.5s0.1,2.4-0.5,2.6c-0.6,0.2-2,0.2-2.3-0.2
				c-0.3-0.5-0.3-1.2-0.1-1.8C77.9,297.3,78.6,296.8,79.4,296.8z"/>
			<path id="Path_3325" class="st41" d="M77.6,299.5c0.5-0.2,1.1-0.3,1.6-0.3c0.4,0,0.8,0,1.2,0c-0.1,0.4-0.2,0.8-0.4,0.9
				c-0.6,0.2-2,0.2-2.3-0.2C77.6,299.7,77.6,299.6,77.6,299.5z"/>
			<path id="Path_3326" class="st41" d="M89.9,301l3.6-0.1c0.4,0,0.7,0.3,0.7,0.6l0,0c0,0.4-0.3,0.7-0.6,0.7l-3.6,0.1
				c-0.4,0-0.7-0.3-0.7-0.6l0,0C89.3,301.3,89.6,301,89.9,301z"/>
			<path id="Path_3327" class="st41" d="M89.6,301.4l4.3-0.1c0.2,0,0.3,0.1,0.3,0.3l0,0c0,0.2-0.1,0.3-0.3,0.3c0,0,0,0,0,0l-4.3,0.1
				c-0.2,0-0.3-0.1-0.3-0.3l0,0C89.3,301.5,89.4,301.4,89.6,301.4L89.6,301.4z"/>
			<path id="Path_3328" class="st41" d="M105.2,300.7l3.6-0.1c0.4,0,0.7,0.3,0.7,0.6l0,0c0,0.4-0.3,0.7-0.6,0.7l-3.6,0.1
				c-0.4,0-0.7-0.3-0.7-0.6l0,0C104.6,301,104.9,300.7,105.2,300.7z"/>
			<path id="Path_3329" class="st41" d="M104.9,301.1l4.3-0.1c0.2,0,0.3,0.1,0.3,0.3l0,0c0,0.2-0.1,0.3-0.3,0.3l-4.3,0.1
				c-0.2,0-0.3-0.1-0.3-0.3l0,0l0,0C104.6,301.2,104.7,301.1,104.9,301.1z"/>
		</g>
		<g id="Group_1543" transform="translate(216.438 91.379)">
			<g id="Group_1509" transform="translate(7.667 13.321)">
				<g id="Group_1506" transform="translate(5.838 11.08)">
					<g id="Group_1505">
						<path id="Path_3331" class="st49" d="M198.7,304.6l-2.2-0.2c-0.6,0.6-0.8,1.4-0.8,2.2l6.4,0.6
							C201.3,306,200.1,305.1,198.7,304.6z"/>
					</g>
				</g>
				<g id="Group_1508">
					<g id="Group_1507">
						<path id="Path_3332" class="st50" d="M190,291.5c0,0,15,6,16.8,8.6s-2.3,15.5-2.3,15.5l-2.2-0.2c-0.2-4.2,0.1-8.4,0.7-12.6
							c-5.9,2.4-14.1-1.6-14.1-1.6L190,291.5z"/>
					</g>
				</g>
			</g>
			<g id="Group_1511" transform="translate(11.8 25.001)">
				<g id="Group_1510">
					<path id="Path_3333" class="st51" d="M196.8,311.4c1.7,0,3.1-1.4,3.1-3.1c0-1.7-1.4-3.1-3.1-3.1c-1.7,0-3.1,1.4-3.1,3.1
						C193.7,310,195.1,311.4,196.8,311.4z"/>
				</g>
			</g>
			<g id="Group_1513" transform="translate(7.284 18.616)">
				<g id="Group_1512">
					<rect id="Rectangle_1584" x="188.5" y="297.7" class="st51" width="27" height="1.7"/>
				</g>
			</g>
			<g id="Group_1515" transform="translate(17.241 21.649)">
				<g id="Group_1514">
					<path id="Path_3334" class="st51" d="M200.1,311.6c0-5.7,4.6-10.4,10.4-10.4c5.7,0,10.4,4.6,10.4,10.4
						c0,5.7-4.6,10.4-10.4,10.4C204.7,322,200.1,317.3,200.1,311.6z M201.8,311.6c0,4.8,3.9,8.7,8.7,8.7s8.7-3.9,8.7-8.7
						c0-4.8-3.9-8.7-8.7-8.7C205.7,302.9,201.8,306.8,201.8,311.6z"/>
				</g>
			</g>
			<g id="Group_1517" transform="translate(0 21.649)">
				<g id="Group_1516">
					<path id="Path_3335" class="st51" d="M180,311.6c0-5.7,4.6-10.4,10.4-10.4c5.7,0,10.4,4.6,10.4,10.4c0,5.7-4.6,10.4-10.4,10.4
						C184.7,322,180,317.3,180,311.6z M181.7,311.6c0,4.8,3.9,8.7,8.7,8.7c4.8,0,8.7-3.9,8.7-8.7c0-4.8-3.9-8.7-8.7-8.7
						C185.6,302.9,181.7,306.8,181.7,311.6z"/>
				</g>
			</g>
			<g id="Group_1519" transform="translate(17.772 13.952)">
				<g id="Group_1518" transform="translate(0 0)">
					
						<rect id="Rectangle_1585" x="204.9" y="291.9" transform="matrix(0.954 -0.2998 0.2998 0.954 -82.2546 75.7489)" class="st51" width="1.7" height="28.1"/>
				</g>
			</g>
			<g id="Group_1521" transform="translate(4.978 16.454)">
				<g id="Group_1520">
					<path id="Path_3336" class="st51" d="M201.9,317.4l1.4-0.9l-13.4-20.3l-3.6-1l-0.4,1.6l3,0.8L201.9,317.4z"/>
				</g>
			</g>
			<g id="Group_1523" transform="translate(4.236 18.824)">
				<g id="Group_1522">
					<path id="Path_3337" class="st51" d="M185,315.4h20.6l9.1-16.7l-1.5-0.8l-8.6,15.8h-17.1l5.5-15.1l-1.6-0.6L185,315.4z"/>
				</g>
			</g>
			<g id="Group_1525" transform="translate(15.324 13.68)">
				<g id="Group_1524">
					<path id="Path_3338" class="st51" d="M197.9,295.8h1.7c0-2.7,1-2.1,8.1-2.1V292h-6.5C199.5,292,197.9,293,197.9,295.8z"/>
				</g>
			</g>
			<g id="Group_1542" transform="translate(5.102)">
				<g id="Group_1527" transform="translate(6.73 27.814)">
					<g id="Group_1526">
						<path id="Path_3339" class="st49" d="M196.9,308.8l-2-0.4c-0.6,0.5-1,1.2-1.1,2.1l6.6,1.7
							C199.9,310.3,196.9,308.8,196.9,308.8z"/>
					</g>
				</g>
				<g id="Group_1529" transform="translate(6.761 4.399)">
					<g id="Group_1528">
						<path id="Path_3340" class="st52" d="M198.6,281.9l-1.1,4.9l-3.7-3.8l3.1-1.9L198.6,281.9z"/>
					</g>
				</g>
				<g id="Group_1531" transform="translate(0 5.284)">
					<g id="Group_1530">
						<path id="Path_3341" class="st53" d="M200.6,282.2c-7.6,5.4-12.8,13.5-14.6,22.6h13.1l5.2-18.9L200.6,282.2z"/>
					</g>
				</g>
				<g id="Group_1533" transform="translate(3.491 6.969)">
					<g id="Group_1532">
						<path id="Path_3342" class="st52" d="M197.9,287.9c-1,1.6-2.2,3-3.6,4.2c2.4-0.4,9.9,5.8,9.9,5.8l-0.5,1.3
							c0,0-13.1-3-13.6-5.4c-0.4-1.7,2.6-6.6,4.1-8.7c0.6-0.9,1.7-1.2,2.7-0.8l0,0c1.2,0.4,1.9,1.8,1.4,3
							C198.2,287.5,198.1,287.7,197.9,287.9z"/>
					</g>
				</g>
				<g id="Group_1535" transform="translate(7.576 0.31)">
					<g id="Group_1534">
						<path id="Path_3343" class="st52" d="M194.8,281.8c-0.1-1.5,0.5-3,1.5-4.1c0.7-0.8,1.6-1.2,2.6-1.3c2.1,0.1,3.8,1.6,4.3,3.6
							l0,0c1,3.4-1.4,7.7-3.8,7.8c-1.7,0.1-3.3-1.9-3.9-3.5C195,283.6,194.8,282.7,194.8,281.8z"/>
					</g>
				</g>
				<g id="Group_1537" transform="translate(9.723 13.328)">
					<g id="Group_1536">
						<path id="Path_3344" class="st52" d="M199.4,294c-1.4-0.8-2.5-1.1-2-2c0.2-0.3,0.5-0.5,0.8-0.4l1.9,0.2
							c0.7,0.1,1.1,0.6,1.1,1.3c0,0,0,0.1,0,0.1c-0.2,0.7-0.8,1.1-1.5,0.9C199.6,294.1,199.5,294.1,199.4,294z"/>
					</g>
				</g>
				<g id="Group_1539" transform="translate(0.837 15.747)">
					<g id="Group_1538">
						<path id="Path_3345" class="st54" d="M198.2,294.4l7.3,8.7l-2.7,17.9l-2-0.4c0,0-3.9-11.7,0.5-15.3c0,0-13.7-4.6-14.4-10.9
							L198.2,294.4z"/>
					</g>
				</g>
				<g id="Group_1541" transform="translate(7.139)">
					<g id="Group_1540">
						<path id="Path_3346" class="st55" d="M204.5,280.9l-3.8-1l-0.2,1.3l-1.9-0.3l-2.2,4.7l-2.1-3
							C194.2,273.6,203.7,274.7,204.5,280.9z"/>
					</g>
				</g>
			</g>
		</g>
		<path id="Path_3347" class="st56" d="M288.2,424.4c3.5,0,6.9,1.5,9.2,4.2c1.8-8.8,10.4-14.4,19.1-12.6c2.7,0.6,5.3,1.8,7.3,3.6
			c6.9-4,15.7-1.7,19.8,5.2c0.8,1.3,1.3,2.8,1.7,4.3c2.1-2.4,5.1-3.7,8.2-3.6c5.9,0.1,10.7,5,10.6,10.9h-87.9
			C276.4,428.1,281.7,424.4,288.2,424.4z"/>
		<g id="Group_1590" transform="translate(278.599 103.306)">
			<g id="Group_1569" transform="translate(14.92)">
				<g id="Group_1561" transform="translate(0 3.891)">
					<g id="Group_1560">
						<rect id="Rectangle_1588" x="269.7" y="294.5" class="st37" width="33" height="1.7"/>
					</g>
				</g>
				<g id="Group_1563" transform="translate(0 7.224)">
					<g id="Group_1562">
						<rect id="Rectangle_1589" x="269.7" y="298.3" class="st37" width="33" height="1.7"/>
					</g>
				</g>
				<g id="Group_1564" transform="translate(1.039 1.746)">
					<path id="Path_3361" class="st38" d="M273.4,309.8H271v-15.8l1.2-2l1.2,2L273.4,309.8z"/>
				</g>
				<g id="Group_1565" transform="translate(4.027 0.915)">
					<path id="Path_3362" class="st38" d="M276.9,310.6h-2.4V293l1.2-2l1.2,2L276.9,310.6z"/>
				</g>
				<g id="Group_1566" transform="translate(7.014)">
					<path id="Path_3363" class="st38" d="M280.3,311.5h-2.4v-19.6l1.2-2l1.2,2L280.3,311.5z"/>
				</g>
				<g id="Group_1567" transform="translate(10.002 0.915)">
					<path id="Path_3364" class="st38" d="M283.8,310.6h-2.4V293l1.2-2l1.2,2L283.8,310.6z"/>
				</g>
				<g id="Group_1568" transform="translate(12.99 1.746)">
					<path id="Path_3365" class="st38" d="M287.3,309.8h-2.4v-15.8l1.2-2l1.2,2L287.3,309.8z"/>
				</g>
			</g>
			<g id="Group_1579" transform="translate(29.907)">
				<g id="Group_1571" transform="translate(0 3.891)">
					<g id="Group_1570">
						<rect id="Rectangle_1590" x="287.2" y="294.5" class="st37" width="33" height="1.7"/>
					</g>
				</g>
				<g id="Group_1573" transform="translate(0 7.224)">
					<g id="Group_1572">
						<rect id="Rectangle_1591" x="287.2" y="298.3" class="st37" width="33" height="1.7"/>
					</g>
				</g>
				<g id="Group_1574" transform="translate(1.039 1.746)">
					<path id="Path_3366" class="st38" d="M290.8,309.8h-2.4v-15.8l1.2-2l1.2,2L290.8,309.8z"/>
				</g>
				<g id="Group_1575" transform="translate(4.027 0.915)">
					<path id="Path_3367" class="st38" d="M294.3,310.6h-2.4V293l1.2-2l1.2,2L294.3,310.6z"/>
				</g>
				<g id="Group_1576" transform="translate(7.014)">
					<path id="Path_3368" class="st38" d="M297.8,311.5h-2.4v-19.6l1.2-2l1.2,2L297.8,311.5z"/>
				</g>
				<g id="Group_1577" transform="translate(10.002 0.915)">
					<path id="Path_3369" class="st38" d="M301.3,310.6h-2.4V293l1.2-2l1.2,2L301.3,310.6z"/>
				</g>
				<g id="Group_1578" transform="translate(12.99 1.746)">
					<path id="Path_3370" class="st38" d="M304.7,309.8h-2.4v-15.8l1.2-2l1.2,2L304.7,309.8z"/>
				</g>
			</g>
			<g id="Group_1589">
				<g id="Group_1581" transform="translate(0 3.891)">
					<g id="Group_1580">
						<rect id="Rectangle_1592" x="252.4" y="294.5" class="st37" width="33" height="1.7"/>
					</g>
				</g>
				<g id="Group_1583" transform="translate(0 7.224)">
					<g id="Group_1582">
						<rect id="Rectangle_1593" x="252.4" y="298.3" class="st37" width="33" height="1.7"/>
					</g>
				</g>
				<g id="Group_1584" transform="translate(1.039 1.746)">
					<path id="Path_3371" class="st38" d="M256,309.8h-2.4v-15.8l1.2-2l1.2,2L256,309.8z"/>
				</g>
				<g id="Group_1585" transform="translate(4.027 0.915)">
					<path id="Path_3372" class="st38" d="M259.5,310.6h-2.4V293l1.2-2l1.2,2L259.5,310.6z"/>
				</g>
				<g id="Group_1586" transform="translate(7.014)">
					<path id="Path_3373" class="st38" d="M263,311.5h-2.4v-19.6l1.2-2l1.2,2L263,311.5z"/>
				</g>
				<g id="Group_1587" transform="translate(10.002 0.915)">
					<path id="Path_3374" class="st38" d="M266.5,310.6H264V293l1.2-2l1.2,2L266.5,310.6z"/>
				</g>
				<g id="Group_1588" transform="translate(12.99 1.746)">
					<path id="Path_3375" class="st38" d="M269.9,309.8h-2.4v-15.8l1.2-2l1.2,2L269.9,309.8z"/>
				</g>
			</g>
		</g>
		<g id="Group_1591" transform="translate(394.43 48.095)">
			<rect id="Rectangle_1594" x="413.3" y="340.7" class="st8" width="8.7" height="25.9"/>
			<path id="Path_3376" class="st35" d="M413.3,340.7v7.3c3.1-0.2,5.8,2.2,6,5.4c0,0.1,0,0.2,0,0.2v13h3v-25.9H413.3z"/>
			<path id="Path_3377" class="st4" d="M417.9,225.7l-17.6,54.6l17.6-8.7l17.6,8.7L417.9,225.7z"/>
			<path id="Path_3378" class="st4" d="M417.9,242.8l-22.6,70.2l22.6-11.1l22.6,11.1L417.9,242.8z"/>
			<path id="Path_3379" class="st4" d="M417.9,261.1l-30.7,95.5l30.7-15.1l30.7,15.1L417.9,261.1z"/>
			<path id="Path_3380" class="st36" d="M417.9,225.7l17.6,54.6l-13.5-6.7L417.9,225.7z"/>
			<path id="Path_3381" class="st36" d="M423,258.2l17.6,54.6l-13.5-6.7L423,258.2z"/>
			<path id="Path_3382" class="st36" d="M431.1,302l17.6,54.6l-13.5-6.7L431.1,302z"/>
			<path id="Path_3383" class="st10" d="M428.9,277.1l-11-5.4l-11,5.4l-4.3,13.4l14.8-12.2l15.8,11.9L428.9,277.1z"/>
			<path id="Path_3384" class="st10" d="M433.5,309.4l-15.6-7.7l-15.6,7.7l-6.1,18.9l20.9-17.3l22.3,16.8L433.5,309.4z"/>
		</g>
		<g id="Group_1605" transform="translate(68.775 84.636)">
			<g id="Group_1592" transform="translate(0 28.122)">
				<path id="Path_3385" class="st57" d="M11.4,303.5l-0.6-2.4c-0.8-0.3-1.8-0.3-2.6,0l1.9,6.9C11,306.8,11.5,305.2,11.4,303.5z"/>
			</g>
			<g id="Group_1593" transform="translate(14.72 33.606)">
				<path id="Path_3386" class="st57" d="M27.8,307.3l-2.2,0.6c-0.4,0.8-0.4,1.8-0.1,2.6l7.5-1.6C31.5,307.8,29.7,307.3,27.8,307.3z
					"/>
			</g>
			<g id="Group_1594" transform="translate(1.198 18.815)">
				<path id="Path_3387" class="st58" d="M34.5,290.1c0,0-4.7,16.5-7.5,18.8s-16.9,4-16.9,4l-0.6-2.4c0,0,9.2-6,14.1-5.4
					c-3.4-6.3-1.7-14.9-1.7-14.9L34.5,290.1z"/>
			</g>
			<g id="Group_1595" transform="translate(7.007 18.815)">
				<path id="Path_3388" class="st59" d="M28.9,290.1l6.6,13.5l0,18.5l-2.2,0.6c0,0-5.1-11-2.4-16.7c0,0-13.8-8.9-14.6-15.9
					L28.9,290.1z"/>
			</g>
			<g id="Group_1596" transform="translate(10.632 9.296)">
				<path id="Path_3389" class="st60" d="M23.4,279c2.4,1.7,4.5,3.8,6.3,6.2c2.2-1.9,5.7-4.4,5.7-4.4l1.2,0.8c0,0-4.5,6.9-6.8,7.6
					c-2.3,0.7-9.5-5.3-9.5-5.3L23.4,279z"/>
			</g>
			<g id="Group_1597" transform="translate(11.198 5.248)">
				<path id="Path_3390" class="st60" d="M26.9,275.1l-0.5,3.8l-5.2-1.4l3.8-3.3L26.9,275.1z"/>
			</g>
			<g id="Group_1598" transform="translate(6.066 6.76)">
				<path id="Path_3391" class="st61" d="M26.3,276.1c-7.3,7.2-11.3,17.1-11.1,27.3h15.3l1-25.9L26.3,276.1z"/>
			</g>
			<g id="Group_1599" transform="translate(7.002 9.63)">
				<path id="Path_3392" class="st60" d="M16.3,285.4c-0.4,2.7,12.6,7.2,12.6,7.2l0.4-1.3c0,0-5.1-5.6-7.9-6.1
					c1.3-0.4,2.6-1,3.6-1.8l-3.3-4C19.4,281.3,16.5,284,16.3,285.4z"/>
			</g>
			<g id="Group_1600" transform="translate(11.679 0.339)">
				<path id="Path_3393" class="st60" d="M22.2,276.9c-0.1-0.3-0.2-0.6-0.3-1c0-0.1-0.1-0.4-0.1-0.6c0-0.2-0.1-0.5-0.1-0.7
					c0-0.6,0-1.2,0.2-1.7c0.2-1.1,0.8-2,1.5-2.8c0.7-0.9,1.8-1.4,2.9-1.5c0.2,0,0.5,0,0.7,0c0.2,0,0.4,0.1,0.6,0.1
					c0.2,0.1,0.4,0.1,0.5,0.2c0.2,0.1,0.4,0.2,0.6,0.3c0.2,0.1,0.4,0.2,0.5,0.4c0.5,0.4,0.9,0.9,1.2,1.4c0.2,0.3,0.1,0.3,0.3,0.5
					c0.2,0.3,0.3,0.7,0.4,1.1l0,0c0.2,0.5,0.2,1.1,0.3,1.6c0.1,3.2-2.1,7.1-4.5,7.2c-1.7,0.1-3.4-1.7-4.4-3.8l0-0.1
					C22.3,277.3,22.3,277.1,22.2,276.9z"/>
			</g>
			<g id="Group_1601" transform="translate(12.686 15.041)">
				<path id="Path_3394" class="st60" d="M27,288.1c-0.4,0.6-1.3,0.8-1.9,0.4c0,0,0,0,0,0l-1.8-1.1c-0.4-0.3-0.5-0.8-0.3-1.2l0,0
					c0.2-0.3,0.6-0.5,0.9-0.4l2.1,0.4c0.7,0.1,1.2,0.8,1.1,1.5c0,0,0,0.1,0,0.1C27.1,287.9,27.1,288,27,288.1z"/>
			</g>
			<g id="Group_1602" transform="translate(17.281 8.91)">
				<path id="Path_3395" class="st60" d="M31.7,279.1c0.5,0.6,0.3,1.5-0.3,1.9c0,0,0,0,0,0l-1.7,1.3c-0.4,0.3-1,0.2-1.3-0.2l0,0
					c-0.2-0.3-0.3-0.7-0.1-1l1.1-1.8c0.4-0.6,1.2-0.9,1.8-0.5c0,0,0.1,0,0.1,0.1C31.6,278.9,31.6,279,31.7,279.1z"/>
			</g>
			<g id="Group_1603" transform="translate(11.19)">
				<path id="Path_3396" class="st62" d="M32.6,273.6l-3.2-0.8l-1.9,1.4l-1.5-0.6l-2.5,5.3l-2.3-3.4C21,265.5,31.7,266.6,32.6,273.6
					z"/>
			</g>
			<g id="Group_1604" transform="translate(9.392 8.537)">
				<path id="Path_3397" class="st63" d="M19.1,280.4l3.7,4.5c0.7-0.5,1.4-1,2-1.4c1.4-0.9,1.7-2.7,0.9-4.1
					c-0.9-1.4-2.7-1.7-4.1-0.9c0,0-0.1,0.1-0.1,0.1C20.7,279.1,19.9,279.7,19.1,280.4z"/>
			</g>
		</g>
	</g>
	<g id="Group_4934" transform="translate(1324.961 531.701)">
		<path id="Path_4358" class="st11" d="M368.4,215.4l-51.7,61v99.7h103.9v-99.7L368.4,215.4z"/>
		<rect id="Rectangle_2183" x="316.6" y="374.1" class="st64" width="104" height="9.1"/>
		<g id="Group_2008" transform="translate(0 0)">
			<path id="Path_4359" class="st65" d="M368.6,204.3L368.6,204.3L368.6,204.3z"/>
			<path id="Path_4360" class="st13" d="M417,270.5l-48.5-66.2l-48.5,66.2H314v5.8h8.9l45.2-61.9l45.2,61.9h9.4l0-5.8H417z"/>
		</g>
		<path id="Path_4361" class="st34" d="M316.6,275.9v3.3h9.8l41.5-57.5l43.2,57.5h9.4v-2.9h-7.2l-45.2-61.9l-45.2,61.9L316.6,275.9z
			"/>
		<g id="Group_2010" transform="translate(7.763 39.522)">
			<rect id="Rectangle_2184" x="325.2" y="252.4" class="st17" width="23.5" height="33.7"/>
			<rect id="Rectangle_2185" x="327.3" y="254.6" class="st15" width="19.2" height="31.4"/>
			<g id="Group_2009">
				<path id="Path_4362" class="st21" d="M348.5,252.7v33.4h2.3v-35.8L348.5,252.7z"/>
				<path id="Path_4363" class="st66" d="M323.1,250.4l2.3,2.3h23.1l2.3-2.3v0L323.1,250.4z"/>
				<path id="Path_4364" class="st21" d="M325.4,252.7v33.4h-2.3v-35.8L325.4,252.7z"/>
			</g>
			<rect id="Rectangle_2186" x="336.6" y="253" class="st17" width="1.3" height="33"/>
			<rect id="Rectangle_2187" x="326.4" y="263.9" class="st17" width="21.4" height="1.3"/>
			<rect id="Rectangle_2188" x="326.4" y="275.3" class="st17" width="21.4" height="1.3"/>
		</g>
		<g id="Group_2012" transform="translate(29.482 39.522)">
			<rect id="Rectangle_2189" x="350.5" y="252.4" class="st17" width="23.5" height="33.7"/>
			<rect id="Rectangle_2190" x="352.6" y="254.6" class="st15" width="19.2" height="31.4"/>
			<g id="Group_2011">
				<path id="Path_4365" class="st21" d="M373.7,252.7v33.4h2.3v-35.8L373.7,252.7z"/>
				<path id="Path_4366" class="st66" d="M348.4,250.4l2.3,2.3h23.1l2.3-2.3v0L348.4,250.4z"/>
				<path id="Path_4367" class="st21" d="M350.7,252.7v33.4h-2.3v-35.8L350.7,252.7z"/>
			</g>
			<rect id="Rectangle_2191" x="361.9" y="253" class="st17" width="1.3" height="33"/>
			<rect id="Rectangle_2192" x="351.6" y="263.9" class="st17" width="21.4" height="1.3"/>
			<rect id="Rectangle_2193" x="351.6" y="275.3" class="st17" width="21.4" height="1.3"/>
		</g>
		<g id="Group_2014" transform="translate(18.716 61.173)">
			<rect id="Rectangle_2194" x="336" y="275.5" class="st67" width="28.4" height="37.6"/>
			<rect id="Rectangle_2195" x="338.9" y="278.4" class="st68" width="22.7" height="34.6"/>
			<g id="Group_2013" transform="translate(3.592 3.415)">
				<path id="Path_4368" class="st69" d="M341.1,309.6H340v-30.1h13.1v29.8H352v-28.7h-10.9L341.1,309.6z"/>
			</g>
			<rect id="Rectangle_2196" x="335.8" y="317.1" class="st70" width="28.7" height="4.9"/>
			<path id="Path_4369" class="st69" d="M361.6,278.4h-22.9v34.3h0v0.1h2.8v-31.8h17.2v31.8h2.8v-31.8h0L361.6,278.4z"/>
			<rect id="Rectangle_2197" x="335.8" y="313" class="st71" width="28.7" height="4.6"/>
		</g>
		<g id="Group_2015" transform="translate(16.687 22.451)">
			<path id="Path_4370" class="st21" d="M333.5,249.7V248c0-9.7,7.9-17.5,17.5-17.5c9.7,0,17.5,7.8,17.5,17.5v1.7H333.5z"/>
			<path id="Path_4371" class="st17" d="M336,249.7V248c0-8.2,6.7-14.9,14.9-14.9s14.9,6.7,14.9,14.9v1.7H336z"/>
			<path id="Path_4372" class="st15" d="M351,235L351,235c-7.2,0-13,5.8-13,13v1.7h26V248C364,240.8,358.1,235,351,235z"/>
			<path id="Path_4373" class="st17" d="M363.4,240l-0.9-0.9l-10.8,9.8V235h-1.3v13.9l-10.8-9.8l-0.9,0.9l10.8,9.7l3.2,0L363.4,240z
				"/>
		</g>
		<g id="Group_2016" transform="translate(8.224 62.295)">
			<path id="Path_4374" class="st21" d="M323.6,300.7v-16.5c-0.1-4,3.2-7.4,7.2-7.4c4-0.1,7.4,3.2,7.4,7.2c0,0.1,0,0.2,0,0.3v16.5
				H323.6z"/>
			<path id="Path_4375" class="st17" d="M325.9,300.7v-16.5c0-2.8,2.2-5,5-5c2.8,0,5,2.2,5,5c0,0,0,0,0,0v16.5H325.9z"/>
			<path id="Path_4376" class="st15" d="M327.6,300.6v-16.5c0-1.8,1.5-3.3,3.3-3.3c1.8,0,3.3,1.5,3.3,3.3v16.5H327.6z"/>
			<rect id="Rectangle_2198" x="326.7" y="289.6" class="st17" width="8.4" height="1.2"/>
		</g>
		<g id="Group_2017" transform="translate(35.503 62.295)">
			<path id="Path_4377" class="st21" d="M355.3,300.7v-16.5c-0.1-4,3.2-7.4,7.2-7.4c4-0.1,7.4,3.2,7.4,7.2c0,0.1,0,0.2,0,0.3v16.5
				H355.3z"/>
			<path id="Path_4378" class="st17" d="M357.6,300.7v-16.5c-0.1-2.8,2.1-5.1,4.9-5.1c2.8-0.1,5.1,2.1,5.1,4.9c0,0.1,0,0.1,0,0.2
				v16.5H357.6z"/>
			<path id="Path_4379" class="st15" d="M359.3,300.6v-16.5c0-1.8,1.5-3.3,3.3-3.3c1.8,0,3.3,1.5,3.3,3.3v16.5H359.3z"/>
			<rect id="Rectangle_2199" x="358.5" y="289.6" class="st17" width="8.4" height="1.2"/>
		</g>
	</g>
	<g id="Group_4935" transform="translate(1353.313 590.574)">
		<g id="Group_1544" transform="translate(0 31.613)">
			<path id="Path_3348" class="st72" d="M351.6,309.7c1,0.2,2.1,0.2,3.1,0.1c0.7,0.8,1,1.9,0.9,3l-8.6,0
				C348.2,311.3,349.8,310.2,351.6,309.7z"/>
		</g>
		<g id="Group_1545" transform="translate(8.942 29.444)">
			<path id="Path_3349" class="st72" d="M359.1,309.1c0.9-0.5,1.8-1.2,2.5-2c1.1,0.2,2,0.9,2.5,1.9l-6.6,5.4
				C357.5,312.6,358.1,310.7,359.1,309.1z"/>
		</g>
		<g id="Group_1546" transform="translate(2.128 17.116)">
			<path id="Path_3350" class="st73" d="M355.9,305.8l-1.1,1.1c0.4,2.1,0.5,4.4,0.3,6.5c-0.5,3.4-2.6,6.4-2.4,10.8
				c-1,0.7-2.2,0.6-3.2-0.1c0,0,0.2-15.8,0.2-16.7c0.1-0.7,0.8-13.9,0.9-14.6l1.5-0.1L355.9,305.8z"/>
		</g>
		<g id="Group_1547" transform="translate(2.818 16.933)">
			<path id="Path_3351" class="st74" d="M362.4,292.6c0.1,6.5-2.6,10-3.8,13.2c1.8,1.1,3.2,2.6,4.3,4.3c1.8,3,1.7,6.4,4.9,9.6
				c0,0-0.4,2.2-2.5,2l-11.3-14l-3.6-14.7L362.4,292.6z"/>
		</g>
		<g id="Group_1548" transform="translate(4.795 17.573)">
			
				<rect id="Rectangle_1586" x="354" y="293" transform="matrix(0.7094 -0.7048 0.7048 0.7094 -105.0054 335.5195)" class="st73" width="0.8" height="4.3"/>
		</g>
		<g id="Group_1549" transform="translate(4.042 4.795)">
			<path id="Path_3352" class="st75" d="M353.5,280.1l-1.7,4.4c2.1,0.5,4.3-0.6,5.1-2.6v-3.4L353.5,280.1z"/>
		</g>
		<g id="Group_1550" transform="translate(2.307 6.373)">
			<path id="Path_3353" class="st76" d="M350.9,288.6l2.5-5.8l5.1-2.6c0.3,0.4,0.6,0.8,0.9,1.3c0.8,1.2,1.4,2.6,1.8,4
				c2,7.8,3.9,17.8,3.9,17.8l-15.4,1.2L350.9,288.6z"/>
		</g>
		<g id="Group_1551" transform="translate(3.539 2.024)">
			<path id="Path_3354" class="st75" d="M356.9,275.6l0.4,6c-1.1,1-2.6,1.4-4,1c-2-0.9-2.7-4.8-1.6-7.5L356.9,275.6z"/>
		</g>
		<g id="Group_1552" transform="translate(3.538 0)">
			<path id="Path_3355" class="st62" d="M351.1,277.2l2,0.2l1.5-1.3l0.2,1.4l2.1,0.2l0.4,6c2.3-0.6,4.1-2.3,4.8-4.6
				c-0.4-1.7-1.2-3.3-2.4-4.6c-1.6-1.8-4.1-2.2-6.2-1C352.4,274.4,351.5,275.7,351.1,277.2z"/>
		</g>
		<g id="Group_1553" transform="translate(3.627 2.872)">
			
				<rect id="Rectangle_1587" x="351.7" y="277.8" transform="matrix(0.7071 -0.7071 0.7071 0.7071 -93.8521 332.7043)" class="st77" width="6" height="3.7"/>
		</g>
		<g id="Group_1554" transform="translate(3.998 4.179)">
			<path id="Path_3356" class="st75" d="M355.1,278.2L355.1,278.2c-0.5-0.6-1.3-0.6-1.8-0.2c0,0,0,0,0,0l-1.3,1.4
				c-0.4,0.4-0.4,1,0,1.4l0,0c0.4,0.4,1,0.5,1.5,0.2l1.6-1.1C355.5,279.6,355.6,278.7,355.1,278.2
				C355.1,278.2,355.1,278.2,355.1,278.2z"/>
		</g>
		<g id="Group_1555" transform="translate(0.956 8.072)">
			<path id="Path_3357" class="st78" d="M360.1,285.8c0,0.6-0.3,1.2-0.7,1.6c-4.1,3.4-11,3.1-11,3.1c-0.4-2.9,0.4-5.9,2.2-8.3
				l2.5,1.5c-0.5,1-1,2-1.6,2.9c1.7-1.4,3.8-2.3,5.9-2.8c1.1-0.4,2.3,0.2,2.7,1.3C360.1,285.3,360.1,285.5,360.1,285.8L360.1,285.8z
				"/>
		</g>
		<g id="Group_1556" transform="translate(4.481 1.491)">
			<path id="Path_3358" class="st75" d="M352.2,275.9l1.7,0.1l-0.2-1.4L352.2,275.9z"/>
		</g>
		<g id="Group_1557" transform="translate(2.055 5.502)">
			<path id="Path_3359" class="st75" d="M354.9,279.9c0,0-1.5,3.6-3,6.4l-2.5-1.5c1.2-2,2.7-3.9,4.3-5.6L354.9,279.9z"/>
		</g>
		<g id="Group_1558" transform="translate(4.26 13.32)">
			<path id="Path_3360" class="st78" d="M352.7,288.3l4.5,2.4l-0.7,1.6c-0.4,0.8-1.2,1.3-2.1,1.3l0,0c-1.3,0-2.3-1-2.3-2.3
				c0-0.2,0-0.4,0.1-0.6L352.7,288.3z"/>
		</g>
	</g>
</g>
</svg>
