<?xml version="1.0" encoding="utf-8"?>
<!-- Generator: Adobe Illustrator 23.0.1, SVG Export Plug-In . SVG Version: 6.00 Build 0)  -->
<svg version="1.1" id="Слой_1" xmlns="http://www.w3.org/2000/svg" xmlns:xlink="http://www.w3.org/1999/xlink" x="0px" y="0px"
	 viewBox="0 0 800 450" style="enable-background:new 0 0 800 450;" xml:space="preserve">
<style type="text/css">
	.st0{fill:#FAF0DA;}
	.st1{fill:#A6C658;}
	.st2{fill:#F0FCFF;}
	.st3{fill:#9E7A7A;}
	.st4{fill:#88CC75;}
	.st5{fill:#E1F7FF;}
	.st6{fill:#7C7C7C;}
	.st7{fill:#AED366;}
	.st8{fill:#665F5A;}
	.st9{fill:#B2877F;}
	.st10{fill:#A3786D;}
	.st11{fill:#80C16B;}
	.st12{fill:#79B264;}
	.st13{fill:#9FC445;}
	.st14{fill:#7B8B9B;}
	.st15{fill:#91C6E2;}
	.st16{fill:#A1E0FF;}
	.st17{fill:#FFC9A4;}
	.st18{fill:#6091D8;}
	.st19{fill:#AA8B83;}
	.st20{fill:#76A8E5;}
	.st21{fill:#685C58;}
	.st22{opacity:0.2;fill:#313133;enable-background:new    ;}
	.st23{fill:#EBB478;}
	.st24{fill:#FFD086;}
	.st25{fill-rule:evenodd;clip-rule:evenodd;fill:#74281A;}
	.st26{opacity:0.2;fill-rule:evenodd;clip-rule:evenodd;fill:#313133;enable-background:new    ;}
	.st27{fill:#BAB9B9;}
	.st28{fill:#63BACC;}
	.st29{opacity:0.4;fill:#FFFFFF;enable-background:new    ;}
	.st30{fill:#2E3F4B;}
	.st31{fill:#5A1E11;}
	.st32{fill:#74281A;}
	.st33{opacity:0.4;}
	.st34{fill:#FFFFFF;}
	.st35{fill:#B7958D;}
	.st36{fill:#93D0F5;}
	.st37{fill:#A1EBFF;}
	.st38{fill:#FFD0B0;}
	.st39{fill:#4FB254;}
	.st40{fill:#565656;}
	.st41{fill:#6ACC6A;}
	.st42{fill:#DDDBDB;}
	.st43{fill:#F5F5F5;}
	.st44{fill:#A1A1A9;}
	.st45{fill:#5E5349;}
	.st46{fill:#756A60;}
	.st47{fill:#DCD9E3;}
	.st48{fill:#632E28;}
	.st49{fill:#BCBBC5;}
	.st50{fill:#00222F;}
	.st51{fill:#001621;}
	.st52{fill:#4E231E;}
	.st53{fill:#D2AD8C;}
	.st54{fill:#324651;}
	.st55{fill:#DDE7EE;}
	.st56{fill:#C19B80;}
	.st57{fill:#B8D3E1;}
	.st58{fill:#D0E0E8;}
	.st59{fill:#3E5562;}
	.st60{fill:#492C2E;}
	.st61{fill-rule:evenodd;clip-rule:evenodd;fill:#3E5562;}
	.st62{fill-rule:evenodd;clip-rule:evenodd;fill:#3B515E;}
	.st63{opacity:0.3;fill:#FFFFFF;enable-background:new    ;}
	.st64{opacity:0.2;fill:#FFFFFF;enable-background:new    ;}
	.st65{fill:#A8837E;}
</style>
<rect class="st0" width="800" height="450"/>
<g id="Group_4962" transform="translate(-1348.514 -339.479)">
	<g id="Group_2789" transform="translate(1345.408 382.938)">
		<path id="Path_3136" class="st1" d="M787.6,368.1H18.6c-8.6,0-15.5,15.2-15.5,33.9h800C803.1,383.3,796.1,368.1,787.6,368.1z"/>
		<path id="Path_3139" class="st2" d="M654.2,197.2c1.3-7.1-3.4-13.9-10.5-15.2c-5.6-1-11.1,1.7-13.8,6.6c-3.5-3.7-9-4.6-13.5-2.2
			c-3.2-5.8-9.8-8.7-16.2-7.2c-2.6-8.9-11.9-13.9-20.8-11.3c-6.4,1.9-11,7.4-11.8,13.9c-7.1-1-13.8,4-14.8,11.1
			c-0.2,1.4-0.2,2.8,0.1,4.2H654.2z"/>
		<g id="Group_1414" transform="translate(179.858 78.049)">
			<path id="Path_3165" class="st3" d="M92,290c-1.8-33.4-1.6-30.2-1.6-31.3l0,0.4l0-0.4c0,1.1,0.2-2.1-1.6,31.3H92z"/>
			<path id="Path_3166" class="st4" d="M98.1,245.9l-6.2,0.5l5.3-3c-0.7-2.1-4.6-12.8-6.8-12.8c-2.5,0.1-8,15.2-10.5,25.2l6.3,2.4
				l-6.8-0.2c-0.4,1.7-0.6,3.3-0.7,5c0,6.5,5.2,11.7,11.7,11.7h0c6.5,0,11.7-5.2,11.7-11.7l0,0C101.5,257.1,100.1,251.4,98.1,245.9z
				"/>
		</g>
		<path id="Path_3167" class="st2" d="M82,195.1c-6.6,0-11.9,5.3-11.9,11.9h23.8C93.9,200.5,88.5,195.1,82,195.1z"/>
		<path id="Path_3168" class="st2" d="M788.2,249c-6.6,0-11.9,5.3-11.9,11.9l0,0h23.8C800.1,254.3,794.7,249,788.2,249L788.2,249z"
			/>
		<path id="Path_3170" class="st2" d="M713.7,219.4c-2.8,0-5.6,1.1-7.6,3c-4.6-7.5-14.5-9.9-22.1-5.3c-4.8,2.9-7.6,8.1-7.6,13.7
			h48.7C725.1,224.5,720,219.4,713.7,219.4z"/>
		<g id="Group_1417" transform="translate(170.949 37.176)">
			<g id="Group_1415" transform="translate(7.299)">
				<path id="Path_3171" class="st5" d="M84.2,191.2c-1.4-3.1-4.1-5.4-7.3-6.4l0.6-1.8c2.6,0.8,5,2.4,6.7,4.5
					c1.8-2.1,4.1-3.7,6.7-4.5l0.6,1.8c-2.7,0.8-5,2.5-6.5,4.8L84.2,191.2z"/>
			</g>
			<g id="Group_1416" transform="translate(0 6.201)">
				<path id="Path_3172" class="st5" d="M73.8,196.2c-1.1-2.1-3.1-3.7-5.4-4.2l0.5-1.9c1.8,0.5,3.5,1.4,4.9,2.8
					c1.4-1.3,3.1-2.3,4.9-2.8l0.5,1.9C76.9,192.6,74.9,194.1,73.8,196.2z"/>
			</g>
		</g>
		<path id="Path_3195" class="st2" d="M128.2,69.4L128.2,69.4c0-10.1-8.1-18.2-18.2-18.2c-5.6,0-10.9,2.6-14.4,7
			C91,47.6,78.6,42.8,68,47.4c-3.8,1.7-7,4.4-9.3,7.9c-7.8-6.4-19.3-5.2-25.6,2.6c-2.7,3.3-4.1,7.3-4.1,11.5v0H128.2z"/>
		<path id="Path_3196" class="st6" d="M803.1,397.4H3.1c0-6.9,4.8-12.5,10.8-12.5h778.3C798.3,385,803.1,390.5,803.1,397.4z"/>
		<path id="Path_3197" class="st7" d="M803.1,397.4c0,5-4.8,9.1-10.8,9.1H13.9c-6,0-10.8-4.1-10.8-9.1H803.1z"/>
		<g id="Group_1420" transform="translate(288.265 115.77)">
			<path id="Path_3199" class="st7" d="M222.8,282.5c5.4-13.2,25.1-9.3,25.1,4.9h-43c1.4-5.7,7.1-9.2,12.8-7.8
				C219.7,280.1,221.4,281.1,222.8,282.5z"/>
		</g>
		<g id="Group_1451" transform="translate(191.166 49.187)">
			<g id="Group_1450" transform="translate(77.226 52.711)">
				<rect id="Rectangle_1538" x="181.8" y="258.3" class="st8" width="1" height="2.9"/>
			</g>
		</g>
		<g id="Group_1452" transform="translate(68.034 44.095)">
			<rect id="Rectangle_1539" x="-25.4" y="306.1" class="st9" width="8.7" height="25.9"/>
			<path id="Path_3257" class="st10" d="M-25.4,306.1v7.3c3.1-0.2,5.8,2.2,6,5.4c0,0.1,0,0.2,0,0.2v13h3v-25.9H-25.4z"/>
			<path id="Path_3258" class="st4" d="M-20.7,191l-17.6,54.6l17.6-8.7l17.6,8.7L-20.7,191z"/>
			<path id="Path_3259" class="st4" d="M-20.7,208.2l-22.6,70.2l22.6-11.1l22.6,11.1L-20.7,208.2z"/>
			<path id="Path_3260" class="st4" d="M-20.7,226.4l-30.7,95.5l30.7-15.1L10,321.9L-20.7,226.4z"/>
			<path id="Path_3261" class="st11" d="M-20.7,191l17.6,54.6l-13.5-6.7L-20.7,191z"/>
			<path id="Path_3262" class="st11" d="M-15.7,223.6l17.6,54.6l-13.5-6.7L-15.7,223.6z"/>
			<path id="Path_3263" class="st11" d="M-7.5,267.3L10,321.9l-13.5-6.7L-7.5,267.3z"/>
			<path id="Path_3264" class="st12" d="M-9.7,242.4l-11-5.4l-11,5.4l-4.3,13.4l14.8-12.2l15.8,11.9L-9.7,242.4z"/>
			<path id="Path_3265" class="st12" d="M-5.1,274.8l-15.6-7.7l-15.6,7.7l-6.1,18.9l20.9-17.3l22.3,16.8L-5.1,274.8z"/>
		</g>
		<path id="Path_3347" class="st13" d="M229.5,394.4c3.5,0,6.9,1.5,9.2,4.2c1.8-8.8,10.4-14.4,19.1-12.6c2.7,0.6,5.3,1.8,7.3,3.6
			c6.9-4,15.7-1.7,19.8,5.2c0.8,1.3,1.3,2.8,1.7,4.3c2.1-2.4,5.1-3.7,8.2-3.6c5.9,0.1,10.7,5,10.6,10.9h-87.9
			C217.7,398.1,223,394.4,229.5,394.4z"/>
		<g id="Group_1605" transform="translate(201.775 81.636)">
			<g id="Group_1592" transform="translate(0 28.122)">
				<path id="Path_3385" class="st14" d="M107.5,270l-0.6-2.4c-0.8-0.3-1.8-0.3-2.6,0l1.9,6.9C107.1,273.3,107.6,271.7,107.5,270z"
					/>
			</g>
			<g id="Group_1593" transform="translate(14.72 33.606)">
				<path id="Path_3386" class="st14" d="M123.9,273.8l-2.2,0.6c-0.4,0.8-0.4,1.8-0.1,2.6l7.5-1.6
					C127.6,274.3,125.8,273.8,123.9,273.8z"/>
			</g>
			<g id="Group_1594" transform="translate(1.198 18.815)">
				<path id="Path_3387" class="st15" d="M130.7,256.6c0,0-4.7,16.5-7.5,18.7c-2.7,2.2-16.9,4-16.9,4l-0.6-2.4c0,0,9.2-6,14.1-5.4
					c-3.4-6.3-1.7-14.9-1.7-14.9L130.7,256.6z"/>
			</g>
			<g id="Group_1595" transform="translate(7.007 18.815)">
				<path id="Path_3388" class="st16" d="M125.1,256.6l6.6,13.5l0,18.5l-2.2,0.6c0,0-5.1-11-2.4-16.7c0,0-13.8-8.9-14.6-15.9
					L125.1,256.6z"/>
			</g>
			<g id="Group_1596" transform="translate(10.632 9.296)">
				<path id="Path_3389" class="st17" d="M119.6,245.5c2.4,1.7,4.5,3.8,6.3,6.2c2.2-1.9,5.7-4.4,5.7-4.4l1.2,0.8
					c0,0-4.5,6.9-6.8,7.6s-9.5-5.3-9.5-5.3L119.6,245.5z"/>
			</g>
			<g id="Group_1597" transform="translate(11.198 5.248)">
				<path id="Path_3390" class="st17" d="M123,241.7l-0.5,3.8l-5.2-1.4l3.8-3.3L123,241.7z"/>
			</g>
			<g id="Group_1598" transform="translate(6.066 6.76)">
				<path id="Path_3391" class="st18" d="M122.4,242.6c-7.3,7.2-11.3,17.1-11.1,27.3h15.3l1-25.9L122.4,242.6z"/>
			</g>
			<g id="Group_1599" transform="translate(7.002 9.63)">
				<path id="Path_3392" class="st17" d="M112.4,252c-0.4,2.7,12.6,7.2,12.6,7.2l0.4-1.3c0,0-5.1-5.6-7.9-6.1c1.3-0.4,2.6-1,3.6-1.8
					l-3.3-4C115.5,247.8,112.6,250.5,112.4,252z"/>
			</g>
			<g id="Group_1600" transform="translate(11.679 0.339)">
				<path id="Path_3393" class="st17" d="M118.3,243.4c-0.1-0.3-0.2-0.6-0.3-1c0-0.1-0.1-0.4-0.1-0.6c0-0.2-0.1-0.5-0.1-0.7
					c0-0.6,0-1.2,0.2-1.7c0.2-1.1,0.8-2,1.5-2.8c0.7-0.9,1.8-1.4,2.9-1.5c0.2,0,0.5,0,0.7,0c0.2,0,0.4,0.1,0.6,0.1
					c0.2,0.1,0.4,0.1,0.5,0.2c0.2,0.1,0.4,0.2,0.6,0.3c0.2,0.1,0.4,0.2,0.5,0.4c0.5,0.4,0.9,0.9,1.2,1.4c0.2,0.3,0.1,0.3,0.3,0.5
					c0.2,0.3,0.3,0.7,0.4,1.1l0,0c0.2,0.5,0.2,1.1,0.3,1.6c0.1,3.2-2.1,7.1-4.5,7.2c-1.7,0.1-3.4-1.7-4.4-3.8l0-0.1
					C118.5,243.8,118.4,243.6,118.3,243.4z"/>
			</g>
			<g id="Group_1601" transform="translate(12.686 15.041)">
				<path id="Path_3394" class="st17" d="M123.2,254.6c-0.4,0.6-1.3,0.8-1.9,0.4c0,0,0,0,0,0l-1.8-1.1c-0.4-0.3-0.5-0.8-0.3-1.2l0,0
					c0.2-0.3,0.6-0.5,0.9-0.4l2.1,0.4c0.7,0.1,1.2,0.8,1.1,1.5c0,0,0,0.1,0,0.1C123.3,254.4,123.2,254.5,123.2,254.6z"/>
			</g>
			<g id="Group_1602" transform="translate(17.281 8.91)">
				<path id="Path_3395" class="st17" d="M127.8,245.6c0.5,0.6,0.3,1.5-0.3,1.9c0,0,0,0,0,0l-1.7,1.3c-0.4,0.3-1,0.2-1.3-0.2l0,0
					c-0.2-0.3-0.3-0.7-0.1-1l1.1-1.8c0.4-0.6,1.2-0.9,1.8-0.5c0,0,0.1,0,0.1,0.1C127.7,245.4,127.8,245.5,127.8,245.6z"/>
			</g>
			<g id="Group_1603" transform="translate(11.19)">
				<path id="Path_3396" class="st19" d="M128.7,240.1l-3.2-0.8l-1.9,1.4l-1.5-0.6l-2.5,5.3l-2.3-3.4
					C117.2,232,127.8,233.2,128.7,240.1z"/>
			</g>
			<g id="Group_1604" transform="translate(9.392 8.537)">
				<path id="Path_3397" class="st20" d="M115.2,246.9l3.7,4.5c0.7-0.5,1.4-1,2-1.4c1.4-0.9,1.7-2.7,0.9-4.1
					c-0.9-1.4-2.7-1.7-4.1-0.9c0,0-0.1,0.1-0.1,0.1C116.9,245.6,116.1,246.2,115.2,246.9z"/>
			</g>
		</g>
	</g>
	<g id="Group_4432" transform="translate(1310.095 262.677)">
		<rect id="Rectangle_3416" x="225.9" y="315.4" class="st21" width="19.6" height="52.4"/>
		<path id="Path_10012" class="st22" d="M228.7,373.4h16.9l-8.9-21.4h-8V373.4z"/>
		<path id="Path_10013" class="st23" d="M223.7,501.8H94.4V351.1l65.2-38.6l64.1,38.6V501.8z"/>
		<rect id="Rectangle_3417" x="94.4" y="415.4" class="st24" width="129.3" height="2.7"/>
		<rect id="Rectangle_3418" x="94.4" y="418.3" class="st22" width="129.3" height="1.3"/>
		<path id="Path_10014" class="st24" d="M232.5,501.8h-70v-63.3l35.3-18.2l34.6,18.2V501.8z"/>
		<rect id="Rectangle_3419" x="245.8" y="483.9" class="st21" width="96" height="17.9"/>
		<rect id="Rectangle_3420" x="94.4" y="501.8" class="st21" width="247.4" height="3.3"/>
		<rect id="Rectangle_3421" x="245.8" y="409.4" class="st23" width="93.4" height="74.5"/>
		<path id="Path_10015" class="st25" d="M197.8,409.2l-39.7,22.4v4.3h0.4l39.3-22.2l39.2,22.1v-4.4L197.8,409.2z"/>
		<path id="Path_10016" class="st26" d="M197.9,414l-35.3,19.9v3.2h0.4l35-19.7l34.6,19.5v-3.4L197.9,414z"/>
		<path id="Path_10017" class="st25" d="M159.7,307.3l-70.2,39.5v4.8h0.7l69.5-39.2l69.3,39.1v-5.1L159.7,307.3z"/>
		<path id="Path_10018" class="st26" d="M159.7,312.4l-65.2,36.8v4.2H95l64.4-36.3l64.3,36.2v-4.7L159.7,312.4z"/>
		<path id="Path_10019" class="st25" d="M245.8,395.9h97.3l-30.8-19.5h-66.5V395.9z"/>
		<rect id="Rectangle_3422" x="245.8" y="397.5" class="st27" width="94.9" height="1.8"/>
		<rect id="Rectangle_3423" x="245.8" y="399.6" class="st22" width="93.4" height="1.8"/>
		<rect id="Rectangle_3424" x="312.7" y="412.4" class="st28" width="14.8" height="54.6"/>
		<rect id="Rectangle_3425" x="289.8" y="412.4" class="st28" width="14.8" height="54.6"/>
		<rect id="Rectangle_3426" x="268.5" y="412.4" class="st28" width="14.8" height="54.6"/>
		<rect id="Rectangle_3427" x="247.2" y="412.4" class="st28" width="14.8" height="54.6"/>
		<path id="Path_10020" class="st29" d="M247.2,412.4v5.8h10.3V467h4.5v-54.6H247.2z"/>
		<path id="Path_10021" class="st29" d="M268.5,412.4v5.8h10.3V467h4.5v-54.6H268.5z"/>
		<path id="Path_10022" class="st29" d="M289.8,412.4v5.8h10.3V467h4.5v-54.6H289.8z"/>
		<path id="Path_10023" class="st29" d="M312.7,412.4v5.8h10.3V467h4.5v-54.6H312.7z"/>
		<g id="Group_4427" transform="translate(196.665 190.364)">
			<path id="Path_10024" class="st30" d="M130.8,221.3h-15.6v56.3h16.4v-56.3H130.8z M130.8,276.7H116v-54.6h14.8V276.7z"/>
			<path id="Path_10025" class="st30" d="M96.7,221.3h-0.8v56.3h16.4v-56.3H96.7z M111.5,276.7H96.7v-54.6h14.8V276.7z"/>
			<path id="Path_10026" class="st30" d="M77.4,221.3h-0.8v56.3H93v-56.3H77.4z M92.1,276.7H77.4v-54.6h14.8V276.7z"/>
			<path id="Path_10027" class="st30" d="M58,221.3h-0.8v56.3h16.4v-56.3H58z M72.8,276.7H58v-54.6h14.8V276.7z"/>
		</g>
		<rect id="Rectangle_3428" x="133.1" y="352.9" class="st28" width="14.8" height="41"/>
		<path id="Path_10028" class="st29" d="M133.1,352.9v4.3h10.7v36.7h4.1v-41H133.1z"/>
		<path id="Path_10029" class="st30" d="M133.1,352h-0.8v42.6h16.4V352H133.1z M147.9,393.8h-14.8v-41h14.8V393.8z"/>
		<g id="Group_4428" transform="translate(152.218 162.793)">
			<rect id="Rectangle_3429" x="6.3" y="190" class="st28" width="14.8" height="41"/>
			<path id="Path_10030" class="st30" d="M6.3,189.2H5.5v42.6h16.4v-42.6H6.3z M21.1,231H6.3v-41h14.8V231z"/>
		</g>
		<g id="Group_4429" transform="translate(163.969 162.793)">
			<rect id="Rectangle_3430" x="20" y="190" class="st28" width="14.8" height="41"/>
			<path id="Path_10031" class="st30" d="M20,189.2h-0.8v42.6h16.4v-42.6H20z M34.8,231H20v-41h14.8V231z"/>
		</g>
		<rect id="Rectangle_3431" x="246.7" y="425" class="st30" width="15.9" height="0.8"/>
		<rect id="Rectangle_3432" x="105.3" y="443.3" class="st28" width="14.8" height="8.3"/>
		<rect id="Rectangle_3433" x="106" y="459.3" class="st28" width="13.3" height="25.8"/>
		<path id="Path_10032" class="st30" d="M120.1,448.7h-15.6v38h16.4v-38H120.1z M105.3,449.5h14.8v8.3h-14.8V449.5z M106,459.3h13.3
			v25.8H106V459.3z"/>
		<rect id="Rectangle_3434" x="132.3" y="443.3" class="st28" width="14.8" height="8.3"/>
		<rect id="Rectangle_3435" x="133.1" y="459.3" class="st28" width="13.3" height="25.8"/>
		<path id="Path_10033" class="st30" d="M147,448.7h-15.6v38h16.4v-38H147z M132.2,449.5H147v8.3h-14.8V449.5z M133,459.3h13.3v25.8
			H133V459.3z"/>
		<rect id="Rectangle_3436" x="268" y="425" class="st30" width="15.9" height="0.8"/>
		<rect id="Rectangle_3437" x="292.8" y="425" class="st30" width="15.9" height="0.8"/>
		<rect id="Rectangle_3438" x="312.1" y="425" class="st30" width="15.9" height="0.8"/>
		<rect id="Rectangle_3439" x="176.1" y="446.7" class="st23" width="42.6" height="55.1"/>
		<rect id="Rectangle_3440" x="181" y="453.7" class="st30" width="33.1" height="48"/>
		<rect id="Rectangle_3441" x="182.7" y="455.3" class="st31" width="29.6" height="46.4"/>
		<rect id="Rectangle_3442" x="184.1" y="456.8" class="st32" width="27" height="44.9"/>
		<rect id="Rectangle_3443" x="184.1" y="457.5" class="st28" width="27" height="3.5"/>
		<rect id="Rectangle_3444" x="184.1" y="471.9" class="st28" width="27" height="3.5"/>
		<rect id="Rectangle_3445" x="184.1" y="481.2" class="st28" width="27" height="3.5"/>
		<rect id="Rectangle_3446" x="184.1" y="490.6" class="st28" width="27" height="3.5"/>
		<path id="Path_10034" class="st29" d="M158.6,352.9v4.3h10.7v36.7h4.1v-41H158.6z"/>
		<path id="Path_10035" class="st29" d="M184,352.9v4.3h10.7v36.7h4.1v-41H184z"/>
		<g id="Group_4430" transform="translate(127.993 207.86)" class="st33">
			<path id="Path_10036" class="st34" d="M-22.7,241.6v3.2h10.4v5.1h4.4v-8.3H-22.7z"/>
			<rect id="Rectangle_3447" x="-12.3" y="251.5" class="st34" width="3.6" height="25.8"/>
		</g>
		<g id="Group_4431" transform="translate(140.461 207.86)" class="st33">
			<path id="Path_10037" class="st34" d="M-8.2,241.6v3.2H2.2v5.1h4.4v-8.3H-8.2z"/>
			<rect id="Rectangle_3448" x="2.2" y="251.5" class="st34" width="3.6" height="25.8"/>
		</g>
		<rect id="Rectangle_3449" x="245.8" y="497.6" class="st22" width="96" height="4.2"/>
		<rect id="Rectangle_3450" x="94.4" y="497.6" class="st22" width="59.4" height="4.2"/>
		<rect id="Rectangle_3451" x="245.8" y="479.7" class="st22" width="93.4" height="4.2"/>
		<path id="Path_10038" class="st22" d="M176.1,446.7v26.3l42.6,15.5v-41.8H176.1z"/>
		<rect id="Rectangle_3452" x="329" y="491.2" class="st22" width="6" height="2.2"/>
		<rect id="Rectangle_3453" x="326.1" y="488.4" class="st22" width="6" height="2.2"/>
		<rect id="Rectangle_3454" x="297.8" y="492.9" class="st22" width="6" height="2.2"/>
		<rect id="Rectangle_3455" x="274.4" y="486.1" class="st22" width="6" height="2.2"/>
		<rect id="Rectangle_3456" x="236.9" y="320.2" class="st22" width="6" height="2.2"/>
		<rect id="Rectangle_3457" x="228.1" y="331.8" class="st22" width="6" height="2.2"/>
		<rect id="Rectangle_3458" x="249.9" y="491.7" class="st22" width="6" height="2.2"/>
	</g>
	<g id="Group_2791" transform="translate(1465.313 463.574)">
		<g id="Group_1544" transform="translate(0 31.613)">
			<path id="Path_3348" class="st35" d="M13.6,270.3c1,0.2,2.1,0.2,3.1,0.1c0.7,0.8,1,1.9,0.9,3l-8.6,0
				C10.2,272,11.8,270.9,13.6,270.3z"/>
		</g>
		<g id="Group_1545" transform="translate(8.942 29.444)">
			<path id="Path_3349" class="st35" d="M21.1,269.8c0.9-0.5,1.8-1.2,2.5-2c1.1,0.2,2,0.9,2.5,1.9l-6.6,5.4
				C19.5,273.2,20,271.4,21.1,269.8z"/>
		</g>
		<g id="Group_1546" transform="translate(2.128 17.116)">
			<path id="Path_3350" class="st36" d="M17.8,266.5l-1.1,1.1c0.4,2.1,0.5,4.4,0.3,6.5c-0.5,3.4-2.6,6.4-2.4,10.8
				c-1,0.7-2.2,0.6-3.2-0.1c0,0,0.2-15.8,0.2-16.7c0.1-0.7,0.8-13.9,0.9-14.6l1.5-0.1L17.8,266.5z"/>
		</g>
		<g id="Group_1547" transform="translate(2.818 16.933)">
			<path id="Path_3351" class="st37" d="M24.3,253.3c0.1,6.5-2.6,10-3.8,13.2c1.8,1.1,3.2,2.6,4.3,4.3c1.8,3,1.7,6.4,4.9,9.6
				c0,0-0.4,2.2-2.5,2l-11.3-14l-3.6-14.7L24.3,253.3z"/>
		</g>
		<g id="Group_1548" transform="translate(4.795 17.573)">
			
				<rect id="Rectangle_1586" x="15.9" y="253.7" transform="matrix(0.7094 -0.7048 0.7048 0.7094 -175.5234 85.8414)" class="st36" width="0.8" height="4.3"/>
		</g>
		<g id="Group_1549" transform="translate(4.042 4.795)">
			<path id="Path_3352" class="st38" d="M15.4,240.8l-1.7,4.4c2.1,0.5,4.3-0.6,5.1-2.6v-3.4L15.4,240.8z"/>
		</g>
		<g id="Group_1550" transform="translate(2.307 6.373)">
			<path id="Path_3353" class="st39" d="M12.9,249.3l2.5-5.8l5.1-2.6c0.3,0.4,0.6,0.8,0.9,1.3c0.8,1.2,1.4,2.6,1.8,4
				c2,7.8,3.9,17.8,3.9,17.8l-15.4,1.2L12.9,249.3z"/>
		</g>
		<g id="Group_1551" transform="translate(3.539 2.024)">
			<path id="Path_3354" class="st38" d="M18.9,236.3l0.4,6c-1.1,1-2.6,1.4-4,1c-2-0.9-2.7-4.8-1.6-7.5L18.9,236.3z"/>
		</g>
		<g id="Group_1552" transform="translate(3.538 0)">
			<path id="Path_3355" class="st19" d="M13.1,237.9l2,0.2l1.5-1.3l0.2,1.4l2.1,0.2l0.4,6c2.3-0.6,4.1-2.3,4.8-4.6
				c-0.4-1.7-1.2-3.3-2.4-4.6c-1.6-1.8-4.1-2.2-6.2-1C14.3,235.1,13.5,236.4,13.1,237.9z"/>
		</g>
		<g id="Group_1553" transform="translate(3.627 2.872)">
			
				<rect id="Rectangle_1587" x="13.6" y="238.5" transform="matrix(0.7071 -0.7071 0.7071 0.7071 -165.0675 82.1681)" class="st40" width="6" height="3.7"/>
		</g>
		<g id="Group_1554" transform="translate(3.998 4.179)">
			<path id="Path_3356" class="st38" d="M17.1,238.9L17.1,238.9c-0.5-0.6-1.3-0.6-1.8-0.2c0,0,0,0,0,0l-1.3,1.4
				c-0.4,0.4-0.4,1,0,1.4l0,0c0.4,0.4,1,0.5,1.5,0.2l1.6-1.1C17.5,240.3,17.6,239.4,17.1,238.9C17.1,238.9,17.1,238.9,17.1,238.9z"
				/>
		</g>
		<g id="Group_1555" transform="translate(0.956 8.072)">
			<path id="Path_3357" class="st41" d="M22.1,246.5c0,0.6-0.3,1.2-0.7,1.6c-4.1,3.4-11,3.1-11,3.1c-0.4-2.9,0.4-5.9,2.2-8.3
				l2.5,1.5c-0.5,1-1,2-1.6,2.9c1.7-1.4,3.8-2.3,5.9-2.8c1.1-0.4,2.3,0.2,2.7,1.3C22,246,22.1,246.2,22.1,246.5L22.1,246.5z"/>
		</g>
		<g id="Group_1556" transform="translate(4.481 1.491)">
			<path id="Path_3358" class="st38" d="M14.2,236.6l1.7,0.1l-0.2-1.4L14.2,236.6z"/>
		</g>
		<g id="Group_1557" transform="translate(2.055 5.502)">
			<path id="Path_3359" class="st38" d="M16.8,240.6c0,0-1.5,3.6-3,6.4l-2.5-1.5c1.2-2,2.7-3.9,4.3-5.6L16.8,240.6z"/>
		</g>
		<g id="Group_1558" transform="translate(4.26 13.32)">
			<path id="Path_3360" class="st41" d="M14.6,249l4.5,2.4l-0.7,1.6c-0.4,0.8-1.2,1.3-2.1,1.3l0,0c-1.3,0-2.3-1-2.3-2.3
				c0-0.2,0-0.4,0.1-0.6L14.6,249z"/>
		</g>
	</g>
	<g id="Group_4433" transform="translate(1481.917 486.296)">
		<g id="Group_1482" transform="translate(14.92)">
			<g id="Group_1474" transform="translate(0 3.891)">
				<g id="Group_1473">
					<rect id="Rectangle_1578" x="45.7" y="264.5" class="st42" width="33" height="1.7"/>
				</g>
			</g>
			<g id="Group_1476" transform="translate(0 7.224)">
				<g id="Group_1475">
					<rect id="Rectangle_1579" x="45.7" y="268.4" class="st42" width="33" height="1.7"/>
				</g>
			</g>
			<g id="Group_1477" transform="translate(1.039 1.746)">
				<path id="Path_3294" class="st43" d="M49.3,279.8h-2.4V264l1.2-2l1.2,2V279.8z"/>
			</g>
			<g id="Group_1478" transform="translate(4.027 0.915)">
				<path id="Path_3295" class="st43" d="M52.8,280.7h-2.4V263l1.2-2l1.2,2L52.8,280.7z"/>
			</g>
			<g id="Group_1479" transform="translate(7.014)">
				<path id="Path_3296" class="st43" d="M56.3,281.6h-2.4V262l1.2-2l1.2,2V281.6z"/>
			</g>
			<g id="Group_1480" transform="translate(10.002 0.915)">
				<path id="Path_3297" class="st43" d="M59.7,280.7h-2.4V263l1.2-2l1.2,2L59.7,280.7z"/>
			</g>
			<g id="Group_1481" transform="translate(12.99 1.746)">
				<path id="Path_3298" class="st43" d="M63.2,279.8h-2.4V264l1.2-2l1.2,2V279.8z"/>
			</g>
		</g>
		<g id="Group_1492" transform="translate(29.907)">
			<g id="Group_1484" transform="translate(0 3.891)">
				<g id="Group_1483">
					<rect id="Rectangle_1580" x="63.1" y="264.5" class="st42" width="33" height="1.7"/>
				</g>
			</g>
			<g id="Group_1486" transform="translate(0 7.224)">
				<g id="Group_1485">
					<rect id="Rectangle_1581" x="63.1" y="268.4" class="st42" width="33" height="1.7"/>
				</g>
			</g>
			<g id="Group_1487" transform="translate(1.039 1.746)">
				<path id="Path_3299" class="st43" d="M66.8,279.8h-2.4V264l1.2-2l1.2,2L66.8,279.8z"/>
			</g>
			<g id="Group_1488" transform="translate(4.027 0.915)">
				<path id="Path_3300" class="st43" d="M70.2,280.7h-2.4V263l1.2-2l1.2,2L70.2,280.7z"/>
			</g>
			<g id="Group_1489" transform="translate(7.014)">
				<path id="Path_3301" class="st43" d="M73.7,281.6h-2.4V262l1.2-2l1.2,2L73.7,281.6z"/>
			</g>
			<g id="Group_1490" transform="translate(10.002 0.915)">
				<path id="Path_3302" class="st43" d="M77.2,280.7h-2.4V263l1.2-2l1.2,2L77.2,280.7z"/>
			</g>
			<g id="Group_1491" transform="translate(12.99 1.746)">
				<path id="Path_3303" class="st43" d="M80.7,279.8h-2.4V264l1.2-2l1.2,2L80.7,279.8z"/>
			</g>
		</g>
		<g id="Group_1502">
			<g id="Group_1494" transform="translate(0 3.891)">
				<g id="Group_1493">
					<rect id="Rectangle_1582" x="28.3" y="264.5" class="st42" width="33" height="1.7"/>
				</g>
			</g>
			<g id="Group_1496" transform="translate(0 7.224)">
				<g id="Group_1495">
					<rect id="Rectangle_1583" x="28.3" y="268.4" class="st42" width="33" height="1.7"/>
				</g>
			</g>
			<g id="Group_1497" transform="translate(1.039 1.746)">
				<path id="Path_3304" class="st43" d="M31.9,279.8h-2.4V264l1.2-2l1.2,2V279.8z"/>
			</g>
			<g id="Group_1498" transform="translate(4.027 0.915)">
				<path id="Path_3305" class="st43" d="M35.4,280.7H33V263l1.2-2l1.2,2V280.7z"/>
			</g>
			<g id="Group_1499" transform="translate(7.014)">
				<path id="Path_3306" class="st43" d="M38.9,281.6h-2.4V262l1.2-2l1.2,2V281.6z"/>
			</g>
			<g id="Group_1500" transform="translate(10.002 0.915)">
				<path id="Path_3307" class="st43" d="M42.4,280.7h-2.4V263l1.2-2l1.2,2V280.7z"/>
			</g>
			<g id="Group_1501" transform="translate(12.99 1.746)">
				<path id="Path_3308" class="st43" d="M45.9,279.8h-2.4V264l1.2-2l1.2,2L45.9,279.8z"/>
			</g>
		</g>
	</g>
	<g id="Group_4434" transform="translate(1174.151 250.867)">
		<rect id="Rectangle_3459" x="535" y="384.7" class="st44" width="25.8" height="104.9"/>
		<rect id="Rectangle_3460" x="535" y="489.6" class="st45" width="25.8" height="3.2"/>
		<rect id="Rectangle_3461" x="535" y="492.8" class="st46" width="25.8" height="3.2"/>
		<rect id="Rectangle_3462" x="535" y="496" class="st45" width="25.8" height="3.2"/>
		<rect id="Rectangle_3463" x="535" y="499.2" class="st46" width="25.8" height="3.2"/>
		<rect id="Rectangle_3464" x="535" y="502.4" class="st45" width="25.8" height="3.2"/>
		<rect id="Rectangle_3465" x="535" y="505.6" class="st46" width="25.8" height="3.2"/>
		<rect id="Rectangle_3466" x="560.9" y="488.4" class="st47" width="105.3" height="20.4"/>
		<rect id="Rectangle_3467" x="560.9" y="439.9" class="st48" width="81.5" height="48.5"/>
		<path id="Path_10039" class="st47" d="M560.9,377.5v62.4H649v-62.4H560.9z M643.7,429.1h-77.4v-40.9h77.4V429.1z"/>
		<rect id="Rectangle_3468" x="530" y="369" class="st49" width="5" height="119.4"/>
		<rect id="Rectangle_3469" x="528.8" y="488.4" class="st47" width="6.2" height="20.4"/>
		<rect id="Rectangle_3470" x="566.3" y="388.3" class="st48" width="13.3" height="40.9"/>
		<rect id="Rectangle_3471" x="579.6" y="388.3" class="st50" width="64.1" height="1.5"/>
		<rect id="Rectangle_3472" x="560.3" y="375.4" class="st49" width="89.3" height="2.1"/>
		<rect id="Rectangle_3473" x="579.6" y="427.7" class="st50" width="64.1" height="1.5"/>
		<rect id="Rectangle_3474" x="578.3" y="439.9" class="st50" width="56.4" height="1.5"/>
		<rect id="Rectangle_3475" x="535" y="442.7" class="st50" width="22.9" height="1.5"/>
		<rect id="Rectangle_3476" x="578.3" y="486.9" class="st50" width="56.4" height="1.5"/>
		<rect id="Rectangle_3477" x="579.6" y="388.3" class="st50" width="1.5" height="40.9"/>
		<rect id="Rectangle_3478" x="642.2" y="388.3" class="st50" width="1.5" height="40.9"/>
		<rect id="Rectangle_3479" x="634.7" y="439.9" class="st50" width="1.5" height="48.5"/>
		<rect id="Rectangle_3480" x="619" y="439.9" class="st50" width="1.5" height="48.5"/>
		<rect id="Rectangle_3481" x="578.3" y="449" class="st50" width="40.7" height="1.5"/>
		<rect id="Rectangle_3482" x="536.5" y="451.2" class="st50" width="19.9" height="1.5"/>
		<rect id="Rectangle_3483" x="536.5" y="452.7" class="st51" width="19.9" height="1.5"/>
		<rect id="Rectangle_3484" x="536.5" y="488.1" class="st51" width="19.9" height="1.5"/>
		<rect id="Rectangle_3485" x="536.5" y="454.2" class="st51" width="1.5" height="35.4"/>
		<rect id="Rectangle_3486" x="555" y="454.2" class="st51" width="1.5" height="35.4"/>
		<rect id="Rectangle_3487" x="620.5" y="470.9" class="st50" width="14.2" height="1.5"/>
		<rect id="Rectangle_3488" x="576.8" y="439.9" class="st50" width="1.5" height="48.5"/>
		<rect id="Rectangle_3489" x="556.5" y="444.2" class="st50" width="1.5" height="45.4"/>
		<rect id="Rectangle_3490" x="535" y="444.2" class="st50" width="1.5" height="45.4"/>
		<rect id="Rectangle_3491" x="628.7" y="388.3" class="st50" width="1.5" height="40.9"/>
		<rect id="Rectangle_3492" x="619" y="397.2" class="st50" width="1.5" height="32"/>
		<rect id="Rectangle_3493" x="581.1" y="389.8" class="st28" width="47.6" height="7.4"/>
		<rect id="Rectangle_3494" x="620.5" y="398.7" class="st28" width="8.2" height="29"/>
		<rect id="Rectangle_3495" x="630.2" y="389.8" class="st28" width="12" height="37.9"/>
		<rect id="Rectangle_3496" x="581.1" y="398.7" class="st28" width="37.9" height="29"/>
		<rect id="Rectangle_3497" x="560.9" y="439.9" class="st52" width="15.9" height="3.5"/>
		<rect id="Rectangle_3498" x="560.9" y="448" class="st52" width="15.9" height="3.5"/>
		<rect id="Rectangle_3499" x="560.9" y="456" class="st52" width="15.9" height="3.5"/>
		<rect id="Rectangle_3500" x="560.9" y="464.1" class="st52" width="15.9" height="3.5"/>
		<rect id="Rectangle_3501" x="560.9" y="472.2" class="st52" width="15.9" height="3.5"/>
		<rect id="Rectangle_3502" x="560.9" y="480.3" class="st52" width="15.9" height="3.5"/>
		<rect id="Rectangle_3503" x="636.2" y="439.9" class="st52" width="6.2" height="3.5"/>
		<rect id="Rectangle_3504" x="636.2" y="448" class="st52" width="6.2" height="3.5"/>
		<rect id="Rectangle_3505" x="636.2" y="456" class="st52" width="6.2" height="3.5"/>
		<rect id="Rectangle_3506" x="636.2" y="464.1" class="st52" width="6.2" height="3.5"/>
		<rect id="Rectangle_3507" x="636.2" y="472.2" class="st52" width="6.2" height="3.5"/>
		<rect id="Rectangle_3508" x="636.2" y="480.3" class="st52" width="6.2" height="3.5"/>
		<rect id="Rectangle_3509" x="566.3" y="388.3" class="st52" width="13.3" height="3.3"/>
		<rect id="Rectangle_3510" x="566.3" y="395.8" class="st52" width="13.3" height="3.3"/>
		<rect id="Rectangle_3511" x="566.3" y="403.3" class="st52" width="13.3" height="3.3"/>
		<rect id="Rectangle_3512" x="566.3" y="410.8" class="st52" width="13.3" height="3.3"/>
		<rect id="Rectangle_3513" x="566.3" y="418.3" class="st52" width="13.3" height="3.3"/>
		<rect id="Rectangle_3514" x="566.3" y="425.8" class="st52" width="13.3" height="3.3"/>
		<rect id="Rectangle_3515" x="536.5" y="444.2" class="st28" width="19.9" height="7.1"/>
		<path id="Path_10040" class="st29" d="M536.5,444.2v2.1h17.9v5h2v-7.1L536.5,444.2z"/>
		<rect id="Rectangle_3516" x="578.3" y="441.4" class="st28" width="40.7" height="7.6"/>
		<path id="Path_10041" class="st29" d="M578.3,441.4v2.6h38.3v5h2.4v-7.6L578.3,441.4z"/>
		<rect id="Rectangle_3517" x="620.5" y="441.4" class="st28" width="14.2" height="29.5"/>
		<rect id="Rectangle_3518" x="620.5" y="472.4" class="st28" width="14.2" height="14.5"/>
		<rect id="Rectangle_3519" x="578.3" y="450.5" class="st28" width="40.7" height="36.4"/>
		<rect id="Rectangle_3520" x="538" y="454.2" class="st28" width="17" height="33.9"/>
		<path id="Path_10042" class="st29" d="M538,454.2v2.5h14.1v31.3h2.9v-33.9H538z"/>
		<path id="Path_10043" class="st29" d="M578.3,450.5v2.6h38.3v33.9h2.4v-36.5H578.3z"/>
		<path id="Path_10044" class="st29" d="M620.5,441.4v2.6h11.7v27h2.4v-29.6H620.5z"/>
		<path id="Path_10045" class="st29" d="M620.5,472.4v2.6h11.7v11.9h2.4v-14.5H620.5z"/>
		<path id="Path_10046" class="st29" d="M630.2,389.8v2.6h9.6v35.3h2.4v-37.9H630.2z"/>
		<path id="Path_10047" class="st29" d="M581.1,389.8v2.6h45.2v4.8h2.4v-7.4L581.1,389.8z"/>
		<path id="Path_10048" class="st29" d="M620.5,398.7v2.6h5.7v26.4h2.4v-29L620.5,398.7z"/>
		<path id="Path_10049" class="st29" d="M581.1,398.7v2.6h35.5v26.4h2.4v-29L581.1,398.7z"/>
		<rect id="Rectangle_3521" x="581.1" y="397.2" class="st50" width="47.6" height="1.5"/>
		<rect id="Rectangle_3522" x="560.9" y="439.9" class="st22" width="81.5" height="14.8"/>
		<rect id="Rectangle_3523" x="566.3" y="388.3" class="st22" width="77.4" height="11.6"/>
		<rect id="Rectangle_3524" x="535" y="386.8" class="st22" width="25.8" height="62.2"/>
		<rect id="Rectangle_3525" x="535" y="380.5" class="st48" width="25.8" height="2.1"/>
		<rect id="Rectangle_3526" x="535" y="384.7" class="st48" width="25.8" height="2.1"/>
		<rect id="Rectangle_3527" x="535" y="388.9" class="st48" width="25.8" height="2.1"/>
		<rect id="Rectangle_3528" x="535" y="393.1" class="st48" width="25.8" height="2.1"/>
		<rect id="Rectangle_3529" x="535" y="397.3" class="st48" width="25.8" height="2.1"/>
		<rect id="Rectangle_3530" x="535" y="401.6" class="st48" width="25.8" height="2.1"/>
		<rect id="Rectangle_3531" x="535" y="405.8" class="st48" width="25.8" height="2.1"/>
		<rect id="Rectangle_3532" x="535" y="410" class="st48" width="25.8" height="2.1"/>
		<rect id="Rectangle_3533" x="535" y="414.2" class="st48" width="25.8" height="2.1"/>
		<rect id="Rectangle_3534" x="535" y="418.5" class="st48" width="25.8" height="2.1"/>
		<rect id="Rectangle_3535" x="535" y="422.7" class="st48" width="25.8" height="2.1"/>
		<rect id="Rectangle_3536" x="535" y="426.9" class="st48" width="25.8" height="2.1"/>
		<rect id="Rectangle_3537" x="535" y="431.1" class="st48" width="25.8" height="2.1"/>
		<rect id="Rectangle_3538" x="535" y="435.4" class="st48" width="25.8" height="2.1"/>
		<rect id="Rectangle_3539" x="535" y="439.6" class="st48" width="25.8" height="2.1"/>
		<rect id="Rectangle_3540" x="528.8" y="507.2" class="st22" width="137.3" height="1.6"/>
	</g>
	<g id="Group_4447" transform="translate(1476.423 292.841)">
		<rect id="Rectangle_3541" x="418.3" y="418.4" class="st53" width="69.1" height="53.5"/>
		<path id="Path_10050" class="st54" d="M487.4,384.4L417,416.3h70.4V384.4z"/>
		<path id="Path_10051" class="st55" d="M524.5,325.6l38.6-22.3l44.5,26.2v1.8h-74L524.5,325.6z"/>
		<rect id="Rectangle_3542" x="522.5" y="334.3" class="st56" width="84.3" height="59.9"/>
		<rect id="Rectangle_3543" x="487.4" y="414.2" class="st56" width="119.4" height="57.6"/>
		<rect id="Rectangle_3544" x="486.3" y="411.1" class="st57" width="121.4" height="3.1"/>
		<rect id="Rectangle_3545" x="484.5" y="408" class="st58" width="125.1" height="3.1"/>
		<rect id="Rectangle_3546" x="486.9" y="344.6" class="st57" width="60.2" height="3.1"/>
		<rect id="Rectangle_3547" x="485" y="341.5" class="st58" width="64" height="3.1"/>
		<rect id="Rectangle_3548" x="525.2" y="332" class="st57" width="81.6" height="2.3"/>
		<rect id="Rectangle_3549" x="523.3" y="329.7" class="st58" width="84.7" height="2.3"/>
		<path id="Path_10052" class="st59" d="M609.6,408H484.5l2.9-13.8h119.4L609.6,408z"/>
		<rect id="Rectangle_3550" x="485.6" y="460.4" class="st60" width="17.4" height="11.5"/>
		<rect id="Rectangle_3551" x="485.6" y="469.2" class="st60" width="122.8" height="2.7"/>
		<rect id="Rectangle_3552" x="591.1" y="460.4" class="st60" width="17.4" height="11.5"/>
		<rect id="Rectangle_3553" x="538.3" y="460.4" class="st60" width="17.4" height="11.5"/>
		<rect id="Rectangle_3554" x="486.9" y="347.7" class="st53" width="60.2" height="48.7"/>
		<path id="Path_10053" class="st61" d="M517.2,320.4l-35.8,20.2v3.3h0.3l35.5-20l35.4,20v-3.4L517.2,320.4z"/>
		<path id="Path_10054" class="st55" d="M517.2,323.8l-31.5,17.7h62.9L517.2,323.8z"/>
		<path id="Path_10055" class="st22" d="M517.2,325.2l28.9,16.3h2.5l-31.5-17.7l-31.5,17.7h2.5L517.2,325.2z"/>
		<path id="Path_10056" class="st62" d="M563.2,301.3l-39.9,22.5l4,2.3l35.9-20.2l46.4,26.2v-4.5L563.2,301.3z"/>
		<g id="Group_4436" transform="translate(221.561 179.953)">
			<rect id="Rectangle_3555" x="280" y="244.6" class="st28" width="31.1" height="31.6"/>
			<path id="Path_10057" class="st63" d="M280.3,244.6h30.8v4.4h-0.2V276h-5.1v-27.1h-25.6V244.6z"/>
			<path id="Path_10058" class="st34" d="M279.8,244.3v32h31.3v-32H279.8z M309.5,257.8v5.3h-5.9v-5.3H309.5z M303.6,255.7v-4.2h5.9
				v4.2H303.6z M288.5,255.7v-4.2h5.8v4.2H288.5z M294.3,257.8v5.3h-5.8v-5.3H294.3z M297,255.7v-4.2h5.8v4.2H297z M302.8,257.8v5.3
				H297v-5.3H302.8z M297,250.8v-5.1h5.8v5.1H297z M302.8,263.8v10.9H297v-10.9H302.8z M294.3,274.7h-5.8v-10.9h5.8V274.7z
				 M288.5,250.8v-5.1h5.8v5.1H288.5z M309.5,245.7v5.1h-5.9v-5.1H309.5z M309.5,274.7h-5.9v-10.9h5.9V274.7z M281.4,274.7v-10.9
				h6.4v10.9H281.4z M281.4,257.8h6.4v5.3h-6.4V257.8z M281.4,255.7v-4.2h6.4v4.2H281.4z M281.4,245.7h6.4v5.1h-6.4V245.7z"/>
		</g>
		<rect id="Rectangle_3556" x="417" y="416.3" class="st58" width="70.4" height="2"/>
		<g id="Group_4439" transform="translate(186.077 181.275)">
			<rect id="Rectangle_3557" x="238.5" y="245.8" class="st58" width="56.4" height="44.8"/>
			<path id="Path_10059" class="st57" d="M240.9,257v33.6h51.5V257H240.9z M291.5,267.1l-49.8-0.1v-4.5l49.8,0.1V267.1z
				 M291.5,267.8v4.5l-49.8-0.1v-4.5L291.5,267.8z M291.5,273.1v4.5l-49.8-0.1v-4.5L291.5,273.1z M291.5,278.3v4.5l-49.8-0.1v-4.5
				L291.5,278.3z M241.7,283.4l49.8,0.1v4.5l-49.8-0.1V283.4z M291.5,257.7v4.2l-49.8-0.1v-4H291.5z M241.7,289.8v-1.3l49.8,0.1v1.1
				L241.7,289.8z"/>
			<g id="Group_4437" transform="translate(1.101 1.164)">
				<rect id="Rectangle_3558" x="240.2" y="247.4" class="st28" width="22.9" height="6.1"/>
				<path id="Path_10060" class="st57" d="M239.8,247.2v6.5h23.6v-6.5H239.8z M245,252.8h-4.2V248h4.2V252.8z M251.2,252.8h-5V248h5
					V252.8z M257,252.8h-4.6V248h4.6L257,252.8z M262.5,252.8h-4.2V248h4.2L262.5,252.8z"/>
			</g>
			<g id="Group_4438" transform="translate(13.959 1.164)">
				<rect id="Rectangle_3559" x="255.1" y="247.4" class="st28" width="22.9" height="6.1"/>
				<path id="Path_10061" class="st57" d="M254.8,247.2v6.5h23.6v-6.5H254.8z M259.9,252.8h-4.2V248h4.2L259.9,252.8z M266.1,252.8
					h-5V248h5V252.8z M272,252.8h-4.6V248h4.6L272,252.8z M277.4,252.8h-4.2V248h4.2V252.8z"/>
			</g>
		</g>
		<g id="Group_4440" transform="translate(226.803 136.028)">
			<path id="Path_10062" class="st28" d="M291,193.1c2,0.3,3.7,1.9,3.9,3.9H292c-0.2-0.5-0.5-0.8-1-1L291,193.1z"/>
			<path id="Path_10063" class="st28" d="M288.8,197.1c0.2-0.5,0.5-0.8,1-1v-2.9c-2,0.3-3.7,1.9-3.9,3.9H288.8z"/>
			<path id="Path_10064" class="st28" d="M289.8,199.2c-0.5-0.2-0.8-0.5-1-1h-2.9c0.3,2,1.9,3.7,3.9,3.9V199.2z"/>
			<path id="Path_10065" class="st28" d="M292,198.2c-0.2,0.5-0.5,0.8-1,1v2.9c2-0.3,3.7-1.9,3.9-3.9L292,198.2z"/>
		</g>
		<g id="Group_4441" transform="translate(248.042 129.184)">
			<path id="Path_10066" class="st28" d="M315.7,185.2c2,0.3,3.7,1.9,3.9,3.9h-2.9c-0.2-0.5-0.5-0.8-1-1L315.7,185.2z"/>
			<path id="Path_10067" class="st28" d="M313.6,189.1c0.2-0.5,0.5-0.8,1-1v-2.9c-2,0.3-3.7,1.9-3.9,3.9L313.6,189.1z"/>
			<path id="Path_10068" class="st28" d="M314.6,191.3c-0.5-0.2-0.8-0.5-1-1h-2.9c0.3,2,1.9,3.7,3.9,3.9L314.6,191.3z"/>
			<path id="Path_10069" class="st28" d="M316.7,190.3c-0.2,0.5-0.5,0.8-1,1v2.9c2-0.3,3.7-1.9,3.9-3.9H316.7z"/>
		</g>
		<g id="Group_4442" transform="translate(250.615 182.536)">
			<rect id="Rectangle_3560" x="313.6" y="247.3" class="st58" width="18.9" height="39.4"/>
			<rect id="Rectangle_3561" x="315.6" y="249.9" class="st57" width="6.6" height="15.6"/>
			<rect id="Rectangle_3562" x="323.9" y="249.9" class="st57" width="6.6" height="15.6"/>
			<rect id="Rectangle_3563" x="315.6" y="273.1" class="st57" width="6.6" height="12.3"/>
			<rect id="Rectangle_3564" x="323.9" y="273.1" class="st57" width="6.6" height="12.3"/>
			<rect id="Rectangle_3565" x="315.7" y="267.9" class="st57" width="14.7" height="3"/>
		</g>
		<rect id="Rectangle_3566" x="554.5" y="424.2" class="st34" width="37.4" height="1.5"/>
		<rect id="Rectangle_3567" x="554.5" y="428.3" class="st34" width="37.4" height="1.5"/>
		<rect id="Rectangle_3568" x="554.5" y="424.2" class="st34" width="1.5" height="45"/>
		<rect id="Rectangle_3569" x="590.8" y="424.2" class="st34" width="1.5" height="45"/>
		<rect id="Rectangle_3570" x="583.1" y="424.2" class="st34" width="1.5" height="45"/>
		<rect id="Rectangle_3571" x="562.8" y="424.2" class="st34" width="1.5" height="45"/>
		<rect id="Rectangle_3572" x="556" y="425.7" class="st28" width="6.8" height="2.6"/>
		<rect id="Rectangle_3573" x="556" y="429.8" class="st28" width="6.8" height="39.4"/>
		<rect id="Rectangle_3574" x="560.3" y="429.8" class="st63" width="2.5" height="39.4"/>
		<rect id="Rectangle_3575" x="584.6" y="425.7" class="st28" width="6.2" height="2.6"/>
		<rect id="Rectangle_3576" x="584.6" y="429.8" class="st28" width="6.2" height="39.4"/>
		<rect id="Rectangle_3577" x="564.2" y="425.7" class="st28" width="18.9" height="2.6"/>
		<rect id="Rectangle_3578" x="588.3" y="429.8" class="st63" width="2.5" height="39.4"/>
		<rect id="Rectangle_3579" x="555.3" y="349.6" class="st28" width="43.3" height="24.9"/>
		<path id="Path_10070" class="st64" d="M555.3,349.6v5.3h37.6v19.6h5.7v-24.9L555.3,349.6z"/>
		<path id="Path_10071" class="st34" d="M598.6,347.9h-45v28.3h46.7v-28.3H598.6z M598.6,374.5h-43.3v-24.9h43.3V374.5z"/>
		<rect id="Rectangle_3580" x="568.1" y="349.2" class="st34" width="1.7" height="25.8"/>
		<rect id="Rectangle_3581" x="583.5" y="349.2" class="st34" width="1.7" height="25.8"/>
		<rect id="Rectangle_3582" x="487.4" y="414.2" class="st22" width="119.4" height="14.1"/>
		<g id="Group_4445" transform="translate(215.612 175.337)">
			<rect id="Rectangle_3583" x="275.2" y="238.9" class="st58" width="7" height="46.1"/>
			<rect id="Rectangle_3584" x="272.9" y="284" class="st58" width="11.7" height="1"/>
			<rect id="Rectangle_3585" x="274" y="282.9" class="st57" width="9.5" height="1"/>
			<rect id="Rectangle_3586" x="272.9" y="238.9" class="st58" width="11.7" height="1"/>
			<rect id="Rectangle_3587" x="274" y="239.9" class="st57" width="9.5" height="1"/>
			<g id="Group_4443" transform="translate(24.342)">
				<rect id="Rectangle_3588" x="303.6" y="238.9" class="st58" width="7" height="46.1"/>
				<rect id="Rectangle_3589" x="301.2" y="284" class="st58" width="11.7" height="1"/>
				<rect id="Rectangle_3590" x="302.3" y="282.9" class="st57" width="9.5" height="1"/>
				<rect id="Rectangle_3591" x="301.2" y="238.9" class="st58" width="11.7" height="1"/>
				<rect id="Rectangle_3592" x="302.3" y="239.9" class="st57" width="9.5" height="1"/>
			</g>
			<g id="Group_4444" transform="translate(48.717)">
				<rect id="Rectangle_3593" x="331.9" y="238.9" class="st58" width="7" height="46.1"/>
				<rect id="Rectangle_3594" x="329.6" y="284" class="st58" width="11.7" height="1"/>
				<rect id="Rectangle_3595" x="330.7" y="282.9" class="st57" width="9.5" height="1"/>
				<rect id="Rectangle_3596" x="329.6" y="238.9" class="st58" width="11.7" height="1"/>
				<rect id="Rectangle_3597" x="330.7" y="239.9" class="st57" width="9.5" height="1"/>
			</g>
		</g>
		<path id="Path_10072" class="st22" d="M527.3,326.1l35.9-20.2l44.8,25.3v0.9h-1.3l-43.5-24.2l-34.5,19L527.3,326.1z"/>
		<g id="Group_4446" transform="translate(221.561 148.232)">
			<rect id="Rectangle_3598" x="280" y="207.6" class="st28" width="31.1" height="31.6"/>
			<path id="Path_10073" class="st64" d="M280.3,207.6h30.8v4.4h-0.2v27.1h-5.1V212h-25.6V207.6z"/>
			<path id="Path_10074" class="st34" d="M279.8,207.3v32h31.3v-32H279.8z M309.5,220.9v5.3h-5.9v-5.3L309.5,220.9z M303.6,218.8
				v-4.2h5.9v4.2L303.6,218.8z M288.5,218.8v-4.2h5.8v4.2L288.5,218.8z M294.3,220.9v5.3h-5.8v-5.3L294.3,220.9z M297,218.8v-4.2
				h5.8v4.2L297,218.8z M302.8,220.9v5.3H297v-5.3L302.8,220.9z M297,213.9v-5.1h5.8v5.1H297z M302.8,226.9v10.9H297v-10.9H302.8z
				 M294.3,237.8h-5.8v-10.9h5.8V237.8z M288.5,213.9v-5.1h5.8v5.1H288.5z M309.5,208.8v5.1h-5.9v-5.1H309.5z M309.5,237.8h-5.9
				v-10.9h5.9V237.8z M281.4,237.8v-10.9h6.4v10.9H281.4z M281.4,220.9h6.4v5.3h-6.4V220.9z M281.4,218.8v-4.2h6.4v4.2L281.4,218.8z
				 M281.4,208.8h6.4v5.1h-6.4V208.8z"/>
		</g>
		<rect id="Rectangle_3599" x="486.9" y="393.3" class="st55" width="60.2" height="3.2"/>
		<rect id="Rectangle_3600" x="547.1" y="391" class="st57" width="59.6" height="3.2"/>
	</g>
	<g id="Group_4451" transform="translate(1622.689 424.512)">
		<g id="Group_1421" transform="translate(16.204 21.83)">
			<path id="Path_3200" class="st9" d="M219.3,321.5H211l2.3-103.5l4.1-4.5L219.3,321.5z"/>
			<path id="Path_3201" class="st65" d="M216,213.5l-2.7,3.7l-1.9,86.6l0,0c2.8-0.1,5.2,2,5.3,4.9c0,0.2,0,0.3,0,0.5v12.3h2.8v-17.6
				l-1.8-90.4L216,213.5z"/>
		</g>
		<path id="Path_3202" class="st4" d="M227.2,234.8l-15.1,13.3l5.5,2l-16.4,6.1l-5.2,8.6l15-0.2l-18.7,11v10.1l26-8.1l11.4-14
			l41.5,8.7v-10.8l-15.9-6.8l8.6-0.7l-4.2-5.9l-23.9-6.6h7.6l-13.7-21.4L227.2,234.8z"/>
		<path id="Path_3203" class="st12" d="M229.6,263.7l41.5,8.7v-10.8l-15.9-6.8l8.6-0.7l-4.2-5.9l-23.9-6.6h7.6l-12.8-20l4.1,15.9
			l-4.9,2.6l19.2,15.5l-20.7,2l-16.2,13.9l-19.3,3.8l-0.6,0.4v10.1l26-8.1L229.6,263.7z"/>
		<path id="Path_3204" class="st4" d="M227.2,202.8l-15.1,13.3l5.5,2l-16.4,6.1l-5.2,8.6l15-0.2l-18.7,11v10.1l26-8.1l11.4-14
			l41.5,8.7v-10.8l-15.9-6.8l8.6-0.7l-4.2-5.9l-23.9-6.6h7.6l-13.7-21.4L227.2,202.8z"/>
		<path id="Path_3205" class="st12" d="M229.6,231.6l41.5,8.7v-10.8l-15.9-6.8l8.6-0.7l-4.2-5.9l-23.9-6.6h7.6l-12.8-20l4.1,15.9
			l-4.9,2.6l19.2,15.5l-20.7,2l-16.2,13.9l-19.3,3.8l-0.6,0.4v10.1l26-8.1L229.6,231.6z"/>
	</g>
	<g id="Group_4452" transform="translate(1746.838 431.032)">
		<rect id="Rectangle_1594" x="362.7" y="310.7" class="st9" width="8.7" height="25.9"/>
		<path id="Path_3376" class="st10" d="M362.7,310.7v7.3c3.1-0.2,5.8,2.2,6,5.4c0,0.1,0,0.2,0,0.2v13h3v-25.9H362.7z"/>
		<path id="Path_3377" class="st4" d="M367.4,195.7l-17.6,54.6l17.6-8.7l17.6,8.7L367.4,195.7z"/>
		<path id="Path_3378" class="st4" d="M367.4,212.8l-22.6,70.2l22.6-11.1l22.6,11.1L367.4,212.8z"/>
		<path id="Path_3379" class="st4" d="M367.4,231.1l-30.7,95.5l30.7-15.1l30.7,15.1L367.4,231.1z"/>
		<path id="Path_3380" class="st11" d="M367.4,195.7l17.6,54.6l-13.5-6.7L367.4,195.7z"/>
		<path id="Path_3381" class="st11" d="M372.4,228.2l17.6,54.6l-13.5-6.7L372.4,228.2z"/>
		<path id="Path_3382" class="st11" d="M380.5,272l17.6,54.6l-13.5-6.7L380.5,272z"/>
		<path id="Path_3383" class="st12" d="M378.4,247.1l-11-5.4l-11,5.4l-4.3,13.4l14.8-12.2l15.8,11.9L378.4,247.1z"/>
		<path id="Path_3384" class="st12" d="M383,279.4l-15.6-7.7l-15.6,7.7l-6.1,18.9l20.9-17.3l22.3,16.8L383,279.4z"/>
	</g>
</g>
</svg>
