<?xml version="1.0" encoding="utf-8"?>
<!-- Generator: Adobe Illustrator 23.0.1, SVG Export Plug-In . SVG Version: 6.00 Build 0)  -->
<svg version="1.1" id="Слой_1" xmlns="http://www.w3.org/2000/svg" xmlns:xlink="http://www.w3.org/1999/xlink" x="0px" y="0px"
	 viewBox="0 0 800 450" style="enable-background:new 0 0 800 450;" xml:space="preserve">
<style type="text/css">
	.st0{fill:#D7ECF4;}
	.st1{fill:#80C16B;}
	.st2{fill:#A7CC4C;}
	.st3{fill:#8C8C8C;}
	.st4{fill:#B2877F;}
	.st5{fill:#A8837E;}
	.st6{fill:#88CC75;}
	.st7{fill:#79B264;}
	.st8{opacity:0.6;fill:#EBFAFF;enable-background:new    ;}
	.st9{opacity:0.1;fill:#1258D6;enable-background:new    ;}
	.st10{fill:#DDDBDB;}
	.st11{fill:#F5F5F5;}
	.st12{fill:#A3786D;}
	.st13{fill:#8C6E69;}
	.st14{fill:#66A6F2;}
	.st15{fill:#FCC29A;}
	.st16{fill:#639AEA;}
	.st17{fill:#FFC9A4;}
	.st18{fill:#FF8E55;}
	.st19{fill-rule:evenodd;clip-rule:evenodd;fill:#FF6A4D;}
	.st20{fill-rule:evenodd;clip-rule:evenodd;fill:#ED5F4C;}
	.st21{fill-rule:evenodd;clip-rule:evenodd;fill:#686868;}
	.st22{fill:#565555;}
	.st23{fill:#A7B7D9;}
	.st24{fill-rule:evenodd;clip-rule:evenodd;fill:#DAE9EF;}
	.st25{fill-rule:evenodd;clip-rule:evenodd;fill:#CE3E30;}
	.st26{fill-rule:evenodd;clip-rule:evenodd;fill:#FFF5E1;}
	.st27{fill-rule:evenodd;clip-rule:evenodd;fill:#A2D9F7;}
	.st28{fill:#B9BDC2;}
	.st29{fill:#E4C856;}
	.st30{fill:#FFFFFF;}
	.st31{fill:#D5872A;}
	.st32{fill:#2B5F87;}
	.st33{fill:#87B7DD;}
	.st34{fill:#6A94B9;stroke:#FFFFFF;stroke-width:2;}
	.st35{fill:#6A94B9;}
	.st36{fill:#F6C254;}
	.st37{fill:#448D99;}
</style>
<rect class="st0" width="800" height="450"/>
<g id="Group_4957" transform="translate(-176.874 -226.262)">
	<g id="Group_2776" transform="translate(138 -278.314)">
		<g id="Group_2285" transform="translate(38.874 592.576)">
			<path id="Path_4552" class="st1" d="M644.5,338.7c-74.6-45-167.9-45-242.5,0H644.5z"/>
			<path id="Path_4583" class="st2" d="M339.9,338.7c-74.6-45-167.9-45-242.5,0H339.9z"/>
			<path id="Path_4584" class="st1" d="M177.4,312.9c37.3-0.1,74.1,8.8,107.3,25.9h55.3c-55.8-33.6-123-42.6-185.7-24.8
				C161.9,313.2,169.6,312.9,177.4,312.9z"/>
			<path id="Path_4615" class="st3" d="M800,350H0c0-6.6,5.4-12,12-12H788C794.6,338.1,800,343.4,800,350z"/>
			<path id="Path_4616" class="st2" d="M800,350c0,6.6-5.4,12-12,12H12c-6.6,0-12-5.4-12-12H800z"/>
			<g id="Group_2198" transform="translate(188.499 34.823)">
				<g id="Group_2197" transform="translate(14.688 19.788)">
					<path id="Path_4617" class="st4" d="M248.4,283.8h-7.5L243,189l3.8-4.1L248.4,283.8z"/>
					<path id="Path_4618" class="st5" d="M245.4,184.9l-2.5,3.4l-1.8,79.3l0,0c2.6-0.1,4.8,1.9,4.9,4.5c0,0.1,0,0.3,0,0.4v11.2h2.6
						v-16.1l-1.7-82.7L245.4,184.9z"/>
				</g>
				<path id="Path_4619" class="st6" d="M255.5,204.3l-13.9,12.2l5,1.9l-15,5.6l-4.8,7.9l13.7-0.1l-17.1,10.1v9.2l23.8-7.4
					l10.4-12.8l38,7.9v-9.9l-14.6-6.2l7.9-0.7l-3.8-5.4l-21.9-6h7l-12.5-19.6L255.5,204.3z"/>
				<path id="Path_4620" class="st7" d="M257.7,230.7l38,7.9v-9.9l-14.6-6.2l7.9-0.7l-3.8-5.4l-21.9-6h7l-11.7-18.3l3.7,14.6
					l-4.5,2.4l17.6,14.2l-18.9,1.9l-14.8,12.7l-17.6,3.5l-0.6,0.3v9.2l23.8-7.4L257.7,230.7z"/>
				<path id="Path_4621" class="st6" d="M255.5,174.9l-13.9,12.2l5,1.9l-15,5.6l-4.8,7.9l13.7-0.1l-17.1,10.1v9.2l23.9-7.4
					l10.4-12.8l38,7.9v-9.9l-14.6-6.2l7.9-0.7l-3.8-5.4l-21.9-6h7l-12.5-19.6L255.5,174.9z"/>
				<path id="Path_4622" class="st7" d="M257.7,201.4l38,7.9v-9.9l-14.6-6.2l7.9-0.7l-3.8-5.4l-21.9-6h7l-11.7-18.3l3.7,14.6
					l-4.5,2.4l17.6,14.2l-18.9,1.9l-14.8,12.7L224,212l-0.6,0.3v9.2l23.8-7.4L257.7,201.4z"/>
			</g>
			<path id="Path_4623" class="st8" d="M236.2,122c-6,0-10.9,4.9-10.9,10.9c0,0,0,0,0,0h21.8C247.1,126.9,242.3,122,236.2,122
				C236.2,122,236.2,122,236.2,122z"/>
			<path id="Path_4624" class="st8" d="M48,127.8c-6,0-10.9,4.9-10.9,10.9c0,0,0,0,0,0h21.8C58.9,132.7,54.1,127.8,48,127.8z"/>
			<path id="Path_4625" class="st8" d="M713.5,225.2c-5,0-9.1,4.1-9.1,9.1h18.2C722.6,229.3,718.5,225.2,713.5,225.2
				C713.5,225.2,713.5,225.2,713.5,225.2z"/>
			<path id="Path_4626" class="st8" d="M659.9-66c-3.7,0-7.2,1.4-9.9,3.9c-6-9.8-18.9-12.9-28.7-6.8c-6.2,3.8-9.9,10.5-9.9,17.8
				h63.3C674.7-59.4,668.1-66,659.9-66z"/>
			<path id="Path_4627" class="st8" d="M115.8,177.5c-2.6,0-5.1,1-7,2.7c-4.2-6.9-13.3-9.1-20.2-4.8c-4.4,2.7-7,7.4-7,12.5h44.6
				C126.2,182.2,121.6,177.5,115.8,177.5C115.8,177.5,115.8,177.5,115.8,177.5z"/>
			<g id="Group_2201" transform="translate(228.023 15.244)">
				<g id="Group_2199" transform="translate(6.616)">
					<path id="Path_4628" class="st9" d="M284.9,145.8c-1.3-2.8-3.7-5-6.7-5.9l0.5-1.7c2.4,0.7,4.6,2.2,6.2,4.1
						c1.6-1.9,3.7-3.4,6.2-4.1l0.5,1.7c-2.4,0.7-4.5,2.3-5.9,4.4L284.9,145.8z"/>
				</g>
				<g id="Group_2200" transform="translate(0 5.621)">
					<path id="Path_4629" class="st9" d="M275.3,150.5c-1-2-2.8-3.4-4.9-3.8l0.5-1.7c1.7,0.4,3.2,1.3,4.5,2.5
						c1.2-1.2,2.8-2.1,4.5-2.5l0.5,1.7C278.1,147.1,276.3,148.5,275.3,150.5z"/>
				</g>
			</g>
			<g id="Group_2232" transform="translate(196.048 90.649)">
				<g id="Group_2211" transform="translate(13.525)">
					<g id="Group_2203" transform="translate(0 3.527)">
						<g id="Group_2202">
							<rect id="Rectangle_2352" x="248.4" y="231.8" class="st10" width="30.2" height="1.5"/>
						</g>
					</g>
					<g id="Group_2205" transform="translate(0 6.548)">
						<g id="Group_2204">
							<rect id="Rectangle_2353" x="248.4" y="235.4" class="st10" width="30.2" height="1.5"/>
						</g>
					</g>
					<g id="Group_2206" transform="translate(0.942 1.583)">
						<path id="Path_4630" class="st11" d="M251.8,245.9h-2.2v-14.5l1.1-1.8l1.1,1.8L251.8,245.9z"/>
					</g>
					<g id="Group_2207" transform="translate(3.65 0.829)">
						<path id="Path_4631" class="st11" d="M255,246.6h-2.2v-16.1l1.1-1.8l1.1,1.8L255,246.6z"/>
					</g>
					<g id="Group_2208" transform="translate(6.358)">
						<path id="Path_4632" class="st11" d="M258.2,247.4H256v-18l1.1-1.8l1.1,1.8L258.2,247.4z"/>
					</g>
					<g id="Group_2209" transform="translate(9.066 0.829)">
						<path id="Path_4633" class="st11" d="M261.4,246.6h-2.2v-16.1l1.1-1.8l1.1,1.8L261.4,246.6z"/>
					</g>
					<g id="Group_2210" transform="translate(11.774 1.583)">
						<path id="Path_4634" class="st11" d="M264.6,245.9h-2.2v-14.5l1.1-1.8l1.1,1.8L264.6,245.9z"/>
					</g>
				</g>
				<g id="Group_2221" transform="translate(27.109)">
					<g id="Group_2213" transform="translate(0 3.527)">
						<g id="Group_2212">
							<rect id="Rectangle_2354" x="264.5" y="231.8" class="st10" width="30.2" height="1.5"/>
						</g>
					</g>
					<g id="Group_2215" transform="translate(0 6.548)">
						<g id="Group_2214">
							<rect id="Rectangle_2355" x="264.5" y="235.4" class="st10" width="30.2" height="1.5"/>
						</g>
					</g>
					<g id="Group_2216" transform="translate(0.942 1.583)">
						<path id="Path_4635" class="st11" d="M267.9,245.9h-2.2v-14.5l1.1-1.8l1.1,1.8L267.9,245.9z"/>
					</g>
					<g id="Group_2217" transform="translate(3.65 0.829)">
						<path id="Path_4636" class="st11" d="M271.1,246.6h-2.2v-16.1l1.1-1.8l1.1,1.8L271.1,246.6z"/>
					</g>
					<g id="Group_2218" transform="translate(6.358)">
						<path id="Path_4637" class="st11" d="M274.3,247.4h-2.2v-18l1.1-1.8l1.1,1.8L274.3,247.4z"/>
					</g>
					<g id="Group_2219" transform="translate(9.066 0.829)">
						<path id="Path_4638" class="st11" d="M277.5,246.6h-2.2v-16.1l1.1-1.8l1.1,1.8L277.5,246.6z"/>
					</g>
					<g id="Group_2220" transform="translate(11.774 1.583)">
						<path id="Path_4639" class="st11" d="M280.7,245.9h-2.2v-14.5l1.1-1.8l1.1,1.8L280.7,245.9z"/>
					</g>
				</g>
				<g id="Group_2231">
					<g id="Group_2223" transform="translate(0 3.527)">
						<g id="Group_2222">
							<rect id="Rectangle_2356" x="232.4" y="231.8" class="st10" width="30.2" height="1.5"/>
						</g>
					</g>
					<g id="Group_2225" transform="translate(0 6.548)">
						<g id="Group_2224">
							<rect id="Rectangle_2357" x="232.4" y="235.4" class="st10" width="30.2" height="1.5"/>
						</g>
					</g>
					<g id="Group_2226" transform="translate(0.942 1.583)">
						<path id="Path_4640" class="st11" d="M235.8,245.9h-2.2v-14.5l1.1-1.8l1.1,1.8L235.8,245.9z"/>
					</g>
					<g id="Group_2227" transform="translate(3.65 0.829)">
						<path id="Path_4641" class="st11" d="M239,246.6h-2.2v-16.1l1.1-1.8l1.1,1.8L239,246.6z"/>
					</g>
					<g id="Group_2228" transform="translate(6.358)">
						<path id="Path_4642" class="st11" d="M242.2,247.4H240v-18l1.1-1.8l1.1,1.8L242.2,247.4z"/>
					</g>
					<g id="Group_2229" transform="translate(9.066 0.829)">
						<path id="Path_4643" class="st11" d="M245.4,246.6h-2.2v-16.1l1.1-1.8l1.1,1.8L245.4,246.6z"/>
					</g>
					<g id="Group_2230" transform="translate(11.775 1.583)">
						<path id="Path_4644" class="st11" d="M248.6,245.9h-2.2v-14.5l1.1-1.8l1.1,1.8L248.6,245.9z"/>
					</g>
				</g>
			</g>
			<g id="Group_2244" transform="translate(120.125 34.766)">
				<g id="Group_2243" transform="translate(14.688 19.788)">
					<path id="Path_4668" class="st4" d="M167.4,283.7h-7.5l2.1-94.8l3.8-4.1L167.4,283.7z"/>
					<path id="Path_4669" class="st5" d="M164.4,184.9l-2.5,3.4l-1.8,79.3l0,0c2.6-0.1,4.8,1.9,4.9,4.5c0,0.1,0,0.3,0,0.4v11.2h2.6
						v-16.1l-1.7-82.7L164.4,184.9z"/>
				</g>
				<path id="Path_4670" class="st6" d="M174.5,204.2l-13.9,12.2l5,1.9l-15,5.6l-4.8,7.9l13.7-0.1l-17.1,10.1v9.2l23.8-7.4
					l10.4-12.8l38,7.9v-9.9l-14.6-6.2l7.9-0.7l-3.8-5.4l-21.9-6h7l-12.5-19.6L174.5,204.2z"/>
				<path id="Path_4671" class="st7" d="M176.7,230.7l38,7.9v-9.9l-14.6-6.2l7.9-0.7l-3.8-5.4l-21.9-6h7l-11.7-18.3l3.7,14.6
					l-4.5,2.4l17.6,14.2l-18.9,1.9l-14.8,12.7l-17.6,3.5l-0.6,0.3v9.2l23.8-7.4L176.7,230.7z"/>
				<path id="Path_4672" class="st6" d="M174.5,174.9L160.6,187l5,1.9l-15,5.6l-4.8,7.9l13.7-0.1l-17.1,10.1v9.2l23.8-7.4l10.4-12.8
					l38,7.9v-9.9l-14.6-6.2l7.9-0.7l-3.8-5.4l-21.9-6h7l-12.5-19.6L174.5,174.9z"/>
				<path id="Path_4673" class="st7" d="M176.7,201.3l38,7.9v-9.9l-14.6-6.2l7.9-0.7l-3.8-5.4l-21.9-6h7l-11.7-18.3l3.7,14.6
					l-4.5,2.4l17.6,14.2l-18.9,1.9l-14.8,12.7l-17.6,3.5l-0.6,0.3v9.2l23.8-7.4L176.7,201.3z"/>
			</g>
			<g id="Group_2265" transform="translate(100.354 47.707)">
				<path id="Path_4729" class="st6" d="M148,176.8l-13.1,32.1h26.2L148,176.8z"/>
				<path id="Path_4730" class="st6" d="M148,186.6l-18.2,44.5h36.4L148,186.6z"/>
				<path id="Path_4731" class="st6" d="M148,195.3l-23.6,57.8h47.3L148,195.3z"/>
				<path id="Path_4732" class="st6" d="M148,203.8l-29,70.9h58L148,203.8z"/>
				<path id="Path_4733" class="st1" d="M148,176.8l5.6,32.4h7.6L148,176.8z"/>
				<path id="Path_4734" class="st1" d="M153,198.7l5.6,32.4h7.6L153,198.7z"/>
				<path id="Path_4735" class="st1" d="M158.4,221l5.6,32.4h7.6L158.4,221z"/>
				<path id="Path_4736" class="st1" d="M163.8,242.2l5.6,32.4h7.6L163.8,242.2z"/>
				<path id="Path_4737" class="st7" d="M138.9,208.9l18.5,0.4l3.5,8.7l-23.1-6.4L138.9,208.9z"/>
				<path id="Path_4738" class="st7" d="M133.4,231.1h29.2l3.5,8.7l-33.8-6.1L133.4,231.1z"/>
				<path id="Path_4739" class="st7" d="M127.9,253.4H168l3.5,8.7l-44.8-6.1L127.9,253.4z"/>
				<rect id="Rectangle_2447" x="143.9" y="274.7" class="st4" width="7.8" height="15.6"/>
				<path id="Path_4740" class="st12" d="M143.9,274.7v4.2c2.8-0.2,5.2,2,5.4,4.8c0,0.1,0,0.1,0,0.2v6.3h2.7v-15.6L143.9,274.7z"/>
			</g>
			<g id="Group_2281" transform="translate(185.694 79.545)">
				<g id="Group_2266" transform="translate(3.262 0.199)">
					<path id="Path_4741" class="st13" d="M232.8,214.7L232.8,214.7c-1.7,0.1-3.3,0.9-4.3,2.3l-1.5,1.7l-3,2.8l3.3-0.3l0.3,1
						l2.2-2.2l0.5,0.8c1.1-1.4,1.9-3,2.2-4.8C232.6,216,232.6,214.9,232.8,214.7z"/>
				</g>
				<g id="Group_2267" transform="translate(7.154 0.019)">
					<path id="Path_4742" class="st14" d="M229,216.6l0.8,0.7c0.1,0.1,0.2,0.1,0.3,0l1.4-1.5c0.1-0.1,0.1-0.2,0-0.3c0,0,0,0,0,0
						l-0.8-0.7c-0.5-0.4-1.3-0.4-1.7,0.1l0,0C228.5,215.4,228.5,216.2,229,216.6z"/>
				</g>
				<g id="Group_2268" transform="translate(5.216 13.475)">
					<path id="Path_4743" class="st15" d="M236,230.5l4.6,10.3L241,255h-1.7c0,0-2.9-8.7-2.2-12.5c0,0-10.2-7-10.8-12.1L236,230.5z"
						/>
				</g>
				<g id="Group_2269" transform="translate(5.216 13.475)">
					<path id="Path_4744" class="st16" d="M236,230.5l2.7,6l-5.3,3.2c0,0-6.7-3.5-7-9.2H236z"/>
				</g>
				<g id="Group_2270" transform="translate(11.71 11.858)">
					<path id="Path_4745" class="st17" d="M236.7,230.9L236.7,230.9c-0.4,0.4-1,0.4-1.4-0.1l-1.1-1.1c-0.2-0.3-0.2-0.7,0-0.9l0,0
						c0.2-0.2,0.5-0.2,0.8-0.1l1.4,0.7c0.5,0.2,0.7,0.8,0.5,1.3c0,0,0,0.1,0,0.1C236.8,230.7,236.7,230.8,236.7,230.9z"/>
				</g>
				<g id="Group_2271" transform="translate(0 20.016)">
					<path id="Path_4746" class="st14" d="M222.5,240.1l-0.5-1.7c-0.6-0.3-1.3-0.2-1.9,0l1.4,5.1
						C222.2,242.5,222.6,241.3,222.5,240.1z"/>
				</g>
				<g id="Group_2272" transform="translate(10.909 24.687)">
					<path id="Path_4747" class="st14" d="M235.3,243.8l-1.7,0.1c-0.4,0.5-0.6,1.2-0.5,1.9l5.6,0
						C237.9,244.4,235.3,243.8,235.3,243.8z"/>
				</g>
				<g id="Group_2273" transform="translate(7.419)">
					<path id="Path_4748" class="st17" d="M229.2,219.8c0.7,2.2,3.2,4.3,4.9,3.8c1.7-0.6,2.5-3.7,1.8-5.9c-0.2-2-2-3.4-4-3.1
						s-3.4,2-3.1,4C228.8,218.9,228.9,219.4,229.2,219.8z"/>
				</g>
				<g id="Group_2274" transform="translate(7.584 3.652)">
					<path id="Path_4749" class="st17" d="M233.3,219.4l-0.3,2.8l-3.8-1l2.8-2.4L233.3,219.4z"/>
				</g>
				<g id="Group_2275" transform="translate(4.008 4.747)">
					<path id="Path_4750" class="st18" d="M232.7,220.1c0,0-7,4.3-7.8,19.1h12.3l-0.3-9.5l1.2-2.6l-1.6-5.9L232.7,220.1z"/>
				</g>
				<g id="Group_2276" transform="translate(6.616 7.164)">
					<path id="Path_4751" class="st17" d="M231.1,223c0.7,1.5,1.1,3.1,1.1,4.8c2.7,1.6,5.3,3.4,7.6,5.5l-0.5,0.8
						c0,0-8.7-3.1-9.5-4.2c-0.7-1.5-1.3-3.1-1.8-4.7L231.1,223z"/>
				</g>
				<g id="Group_2277" transform="translate(0.805 13.475)">
					<path id="Path_4752" class="st17" d="M240.4,230.5c0,0-4.3,12.1-6.3,13.7c-2,1.6-12.4,2.5-12.4,2.5l-0.6-1.9
						c0,0,7.2-3.6,10.6-3.5c-0.8-3.6-1.3-7.2-1.6-10.8L240.4,230.5z"/>
				</g>
				<g id="Group_2278" transform="translate(7.419 0)">
					<path id="Path_4753" class="st13" d="M231.2,214.6c1.2-0.3,2.6,0.1,3.4,1l-3,1.8l-1.9,3.5c-0.2-0.4-0.4-0.8-0.6-1.2
						C228.4,217.8,229.3,215.5,231.2,214.6z"/>
				</g>
				<g id="Group_2279" transform="translate(7.64 0.368)">
					<path id="Path_4754" class="st13" d="M234,214.9c0.4,0.3,0.8,0.8,1.1,1.2c-2.7,0.5-4.7,2.8-4.8,5.6c-0.5-0.5-0.9-1.1-1.2-1.7
						C229.5,217.4,231.5,215.4,234,214.9z"/>
				</g>
				<g id="Group_2280" transform="translate(4.763 13.475)">
					<path id="Path_4755" class="st14" d="M236.4,230.5c-1.1,3.3-2.4,6.5-3.9,9.7l-5.5-2c-0.9-2.5-1.3-5.1-1.1-7.7L236.4,230.5z"/>
				</g>
			</g>
			<g id="Group_2282" transform="translate(287.665 47.807)">
				<path id="Path_4756" class="st6" d="M370,176.9L356.9,209h26.2L370,176.9z"/>
				<path id="Path_4757" class="st6" d="M370,186.7l-18.2,44.5h36.4L370,186.7z"/>
				<path id="Path_4758" class="st6" d="M370,195.4l-23.6,57.8h47.3L370,195.4z"/>
				<path id="Path_4759" class="st6" d="M370,203.9l-29,70.9h58L370,203.9z"/>
				<path id="Path_4760" class="st1" d="M370,176.9l5.6,32.4h7.6L370,176.9z"/>
				<path id="Path_4761" class="st1" d="M375.1,198.8l5.6,32.4h7.6L375.1,198.8z"/>
				<path id="Path_4762" class="st1" d="M380.5,221.1l5.6,32.4h7.6L380.5,221.1z"/>
				<path id="Path_4763" class="st1" d="M385.9,242.3l5.6,32.4h7.6L385.9,242.3z"/>
				<path id="Path_4764" class="st7" d="M360.9,209l18.5,0.4l3.5,8.7l-23.1-6.4L360.9,209z"/>
				<path id="Path_4765" class="st7" d="M355.4,231.2h29.2l3.5,8.7l-33.8-6.1L355.4,231.2z"/>
				<path id="Path_4766" class="st7" d="M350,253.5h40.1l3.5,8.7l-44.8-6.1L350,253.5z"/>
				<rect id="Rectangle_2448" x="365.9" y="274.8" class="st4" width="7.8" height="15.6"/>
				<path id="Path_4767" class="st12" d="M365.9,274.8v4.2c2.8-0.1,5.2,2,5.4,4.8c0,0.1,0,0.1,0,0.2v6.3h2.7v-15.6L365.9,274.8z"/>
			</g>
			<g id="Group_2283" transform="translate(274.257 87.357)">
				<path id="Path_4768" class="st19" d="M353.2,229.9c13.4-6.9,21.4-6.7,36.9-5.4c7.6,0.9,13,1.1,17.9,7.8c3.7,5.1,2.8,13,2.2,15.9
					l-4.7,1.4l-15.5,1.2l-57,0.4c-5.5,0-8-0.9-8-6.9c-0.3-2.5,1-4.9,3.3-5.9C336.2,236,346.5,233.4,353.2,229.9z"/>
				<path id="Path_4769" class="st20" d="M344.2,243.2c3.7-2,7.6-3.6,11.6-4.8c4-0.8,20.6-2.2,26.4-2.6c9-0.7,17.9-1.2,26.9-1.9
					c2.6,5,1.8,11.7,1.2,14.3l-4.7,1.4l-15.5,1.2l-49.2,0.4L344.2,243.2z"/>
				<path id="Path_4770" class="st21" d="M341,241.5c4.4,0,8,3.6,8,8c0,0.5-0.1,1.1-0.2,1.6l-15.6,0.1c-0.9-4.3,1.8-8.6,6.1-9.5
					C339.8,241.6,340.4,241.5,341,241.5L341,241.5z"/>
				<circle id="Ellipse_183" class="st22" cx="341" cy="249.5" r="6.7"/>
				<circle id="Ellipse_184" class="st23" cx="341" cy="249.5" r="5"/>
				<path id="Path_4771" class="st24" d="M336.7,247c1.4-2.4,4.4-3.2,6.8-1.8c2.4,1.4,3.2,4.4,1.8,6.8c-1.4,2.4-4.4,3.2-6.8,1.8
					c0,0,0,0,0,0C336.1,252.4,335.3,249.4,336.7,247z"/>
				<path id="Path_4772" class="st21" d="M397.9,241.5c4.4,0,8,3.6,8,8v0v0.1l-0.3,0.1l-15.5,1.2H390c-0.1-0.4-0.1-0.8-0.1-1.3
					C389.9,245.1,393.5,241.5,397.9,241.5z"/>
				<circle id="Ellipse_185" class="st22" cx="397.9" cy="249.5" r="6.7"/>
				<path id="Path_4773" class="st24" d="M397.9,254.4c2.7,0,5-2.2,5-5c0-2.7-2.2-5-5-5c-2.7,0-5,2.2-5,5l0,0
					C393,252.2,395.2,254.4,397.9,254.4z"/>
				<path id="Path_4774" class="st19" d="M371.5,236.5c0,0.3-0.1,0.7-0.3,0.9c-0.9,0.7-2.1,0.9-3.1,0.5c-0.4-0.2-0.9-0.4-1-0.9
					s0.3-0.9,0.7-1.2c0.3-0.2,0.6-0.4,1-0.6c0.7-0.3,1.4-0.3,2.1,0c0.3,0.2,0.5,0.4,0.6,0.7C371.5,236.1,371.5,236.3,371.5,236.5z"
					/>
				<path id="Path_4775" class="st20" d="M371.1,236.5c0,1.3-1.7,1.5-2.8,1.1c-1-0.3-1.1-0.9-0.3-1.6c0.9-0.7,2.6-1.2,3.1,0
					C371.1,236.2,371.1,236.3,371.1,236.5z"/>
				<path id="Path_4776" class="st25" d="M366.6,236.4l5.2-0.5c0.2,0,0.4,0.1,0.4,0.3l0,0c0,0.2-0.1,0.4-0.3,0.4l-5.2,0.5
					c-0.2,0-0.4-0.1-0.4-0.3l0,0C366.3,236.6,366.4,236.5,366.6,236.4C366.6,236.4,366.6,236.4,366.6,236.4z"/>
				<path id="Path_4777" class="st19" d="M393.9,234.8c0,0.3-0.1,0.7-0.3,0.9c-0.9,0.7-2.1,0.9-3.1,0.5c-0.4-0.2-0.9-0.4-1-0.9
					s0.3-0.9,0.7-1.2c0.3-0.2,0.6-0.4,1-0.6c0.7-0.3,1.4-0.3,2.1,0c0.3,0.2,0.5,0.4,0.6,0.7C393.9,234.4,393.9,234.6,393.9,234.8z"
					/>
				<path id="Path_4778" class="st20" d="M393.5,234.8c0,1.3-1.8,1.4-2.9,1c-1-0.4-1.1-0.9-0.3-1.6c0.9-0.7,2.6-1.1,3,0.1
					C393.5,234.5,393.5,234.6,393.5,234.8z"/>
				<path id="Path_4779" class="st25" d="M389.1,234.7l5.2-0.4c0.2,0,0.4,0.1,0.4,0.3l0,0c0,0.2-0.1,0.4-0.3,0.4l-5.2,0.4
					c-0.2,0-0.4-0.1-0.4-0.3l0,0C388.7,234.9,388.8,234.7,389.1,234.7z"/>
				<path id="Path_4780" class="st25" d="M407.1,234c-0.7,0.1-1.2,0.6-1.2,1.3l0.1,1.7c0,0.7,0.6,1.2,1.3,1.1c0,0,0,0,0.1,0l3.1-0.2
					c-0.3-1.4-0.7-2.8-1.4-4L407.1,234z"/>
				<path id="Path_4781" class="st26" d="M326.8,239.4l0.9-0.1c0.7-0.1,1.6,0.2,1.6,0.9v1.6c0,0.7-0.2,1.3-0.9,1.5l-3.2,0.7
					C325.1,242.3,325.7,240.6,326.8,239.4z"/>
				<path id="Path_4782" class="st25" d="M410.7,245.5l-1.3,0.1c-0.5,0-0.8,0.4-0.8,0.9l0,1.1c0,0.4,0.4,0.8,0.8,0.7c0,0,0,0,0,0
					l0.8-0.1C410.4,247.5,410.6,246.6,410.7,245.5z"/>
				<path id="Path_4783" class="st21" d="M394.3,247.4c0.3-0.5,0.7-0.9,1.1-1.3c0,0,0,0,0,0.1c0.3,0.6,0.6,1.2,0.7,1.9
					c0.1,0.4,0,0.6-0.4,0.7c-0.6,0.2-1.3,0.3-2,0.3h-0.1C393.8,248.4,394,247.9,394.3,247.4L394.3,247.4z M396.2,245.6
					C396.3,245.7,396.3,245.7,396.2,245.6c0.4,0.6,0.8,1.2,1.3,1.6c0.3,0.3,0.5,0.3,0.8,0c0.5-0.5,0.9-1,1.2-1.6c0,0,0,0,0-0.1
					C398.5,245.2,397.3,245.2,396.2,245.6L396.2,245.6z M400.4,246.1c0.9,0.7,1.5,1.7,1.7,2.9H402c-0.7,0-1.3-0.1-2-0.3
					c-0.4-0.1-0.5-0.3-0.4-0.7C399.8,247.4,400.1,246.7,400.4,246.1C400.4,246.1,400.4,246.1,400.4,246.1L400.4,246.1z M402.1,249.9
					c-0.1,1.2-0.7,2.2-1.7,2.9c0,0,0,0,0-0.1c-0.3-0.6-0.6-1.2-0.7-1.9c-0.1-0.4,0-0.6,0.4-0.7C400.7,250.1,401.3,250,402.1,249.9
					C402,249.9,402,249.9,402.1,249.9L402.1,249.9z M399.6,253.3c-1.1,0.5-2.3,0.5-3.3,0c0,0,0,0,0-0.1c0.4-0.6,0.8-1.1,1.2-1.6
					c0.3-0.3,0.5-0.3,0.8,0C398.8,252.2,399.2,252.7,399.6,253.3C399.6,253.3,399.6,253.3,399.6,253.3L399.6,253.3z M395.4,252.8
					c-0.9-0.7-1.5-1.7-1.7-2.9h0.1c0.7,0,1.3,0.1,2,0.3c0.4,0.1,0.5,0.3,0.4,0.7C396,251.6,395.8,252.2,395.4,252.8
					C395.5,252.8,395.4,252.8,395.4,252.8L395.4,252.8z M397.9,250.2c-0.4,0-0.7-0.3-0.7-0.7c0-0.4,0.3-0.7,0.7-0.7
					c0.4,0,0.7,0.3,0.7,0.7l0,0C398.6,249.9,398.3,250.2,397.9,250.2z"/>
				<path id="Path_4784" class="st21" d="M337.3,247.4c0.3-0.5,0.7-0.9,1.1-1.3c0,0,0,0,0,0.1c0.3,0.6,0.6,1.2,0.7,1.9
					c0.1,0.4,0,0.6-0.4,0.7c-0.6,0.2-1.3,0.3-2,0.3h-0.1C336.9,248.4,337,247.9,337.3,247.4L337.3,247.4z M339.3,245.6
					C339.3,245.7,339.3,245.7,339.3,245.6c0.4,0.6,0.8,1.2,1.3,1.6c0.3,0.3,0.5,0.3,0.8,0c0.5-0.5,0.9-1,1.2-1.6c0,0,0,0,0-0.1
					C341.5,245.2,340.3,245.2,339.3,245.6L339.3,245.6z M343.4,246.1c0.9,0.7,1.5,1.7,1.7,2.9H345c-0.7,0-1.3-0.1-2-0.3
					c-0.4-0.1-0.5-0.3-0.4-0.7C342.8,247.4,343.1,246.7,343.4,246.1C343.4,246.1,343.4,246.1,343.4,246.1L343.4,246.1z M345.1,249.9
					c-0.1,1.2-0.7,2.2-1.7,2.9c0,0,0,0,0-0.1c-0.3-0.6-0.6-1.2-0.7-1.9c-0.1-0.4,0-0.6,0.4-0.7C343.7,250.1,344.4,250,345.1,249.9
					L345.1,249.9L345.1,249.9z M342.6,253.3c-1.1,0.5-2.3,0.5-3.3,0c0,0,0,0,0-0.1c0.4-0.6,0.8-1.1,1.2-1.6c0.3-0.3,0.5-0.3,0.8,0
					C341.8,252.2,342.2,252.7,342.6,253.3C342.6,253.3,342.6,253.3,342.6,253.3L342.6,253.3z M338.5,252.8c-0.9-0.7-1.5-1.7-1.7-2.9
					c0,0,0,0,0.1,0c0.7,0,1.3,0.1,2,0.3c0.4,0.1,0.5,0.3,0.4,0.7C339.1,251.6,338.8,252.2,338.5,252.8
					C338.5,252.8,338.5,252.8,338.5,252.8L338.5,252.8z M340.9,250.2c-0.4,0-0.7-0.3-0.7-0.7c0-0.4,0.3-0.7,0.7-0.7
					c0.4,0,0.7,0.3,0.7,0.7l0,0C341.6,249.9,341.3,250.2,340.9,250.2z"/>
				<path id="Path_4785" class="st27" d="M346.6,235.9l53-3.7c-3.8-6.7-19.9-7.8-30.3-6C361.2,228,353.5,231.3,346.6,235.9z"/>
				<path id="Path_4786" class="st25" d="M408.3,232.6c-3.3-0.3-7.6-4.2-9.4-6.7c3.8,0.9,7,3.2,9.2,6.4
					C408.1,232.4,408.2,232.5,408.3,232.6z"/>
				<path id="Path_4787" class="st27" d="M399.7,226.1l0.9,0.9c1.7,2,3.9,3.6,6.3,4.7l1.1,0.4C405.9,229.2,403,227.1,399.7,226.1z"
					/>
				<path id="Path_4788" class="st25" d="M374.9,225.6l-1.2,8.5l3.4-0.2l0.4-8.4C376.6,225.5,375.7,225.5,374.9,225.6z"/>
				<path id="Path_4789" class="st25" d="M391.3,226.9l3.4,5.6l1.4-0.1l-3-4.9C392.6,227.3,392,227.1,391.3,226.9z"/>
				<path id="Path_4790" class="st25" d="M355,231.7l-1.2,3.8l-6.4,0.5c0-0.2,0-0.4,0.2-0.5c2.2-1.4,4.5-2.7,6.9-3.9L355,231.7z"/>
				<path id="Path_4791" class="st25" d="M350.3,234.1l1.5,15.1l34.2-0.4l10.7-14.1l-4.4-7.2l0.3-0.2l4.5,7.5
					c-3.6,4.8-7.3,9.6-10.9,14.4c-11.6,0.1-23.1,0.2-34.7,0.4l-1.5-15.5L350.3,234.1z"/>
				<path id="Path_4792" class="st25" d="M376.3,225.8l-0.9,7.9l0.4,15.4h-0.4l-0.4-15.4l0.8-7.8L376.3,225.8z"/>
				<path id="Path_4793" class="st25" d="M346.6,235.9l53-3.7c-3.8-6.7-19.9-7.8-30.3-6C361.2,228,353.5,231.3,346.6,235.9
					L346.6,235.9z M348.8,235.2c6.3-4.1,13.3-6.9,20.7-8.5c3.7-0.6,7.5-0.9,11.2-0.8c3.9,0.1,7.7,0.6,11.4,1.7
					c2.5,0.7,4.8,2.1,6.6,4L348.8,235.2z"/>
				<path id="Path_4794" class="st19" d="M354.9,231.7c0.8,0,0.9,1,0.9,1.7c0.1,1.3-0.4,1.9-1.8,1.8c-0.5,0-1-0.3-1.3-0.7
					C351.8,233.1,353.8,231.7,354.9,231.7z"/>
				<path id="Path_4795" class="st20" d="M355.8,233.8c-0.6-0.1-1.3-0.1-1.9,0c-0.4,0.1-0.8,0.3-1.3,0.5c-0.2,0.1-0.4,0.2-0.6,0.2
					l0,0.7c0.3,0,0.6-0.1,0.9-0.2c0.4-0.3,1-0.5,1.5-0.5c0.4,0,0.7,0,1.1,0.1C355.7,234.4,355.8,234.1,355.8,233.8z"/>
				<path id="Path_4796" class="st25" d="M355.6,234.6c-0.4,0.5-1,0.7-1.6,0.6c-0.3,0-0.6-0.1-0.8-0.2c0.4-0.3,0.8-0.5,1.3-0.4
					C354.9,234.5,355.2,234.5,355.6,234.6L355.6,234.6z"/>
			</g>
			<path id="Path_4818" class="st8" d="M617.4,184.9c-2.6,0-5.1,1-7,2.7c-4.2-6.9-13.3-9.1-20.2-4.8c-4.4,2.7-7,7.4-7,12.5h44.6
				C627.8,189.5,623.1,184.9,617.4,184.9C617.4,184.9,617.4,184.9,617.4,184.9z"/>
		</g>
	</g>
	<g id="Layer_8" transform="translate(188.67 352.849)">
		<g id="Group_239">
			<g id="Group_234">
				<g id="Group_233">
					<rect id="Rectangle_185" x="106.5" y="222.7" class="st28" width="76.8" height="76.6"/>
					<path id="Path_838" class="st29" d="M193.1,225.5l-48.5-59.6H64.6l48.5,59.6H193.1z"/>
					<rect id="Rectangle_186" x="112.2" y="232.4" class="st30" width="71.1" height="67"/>
					<path id="Path_839" class="st28" d="M64.8,171.1l-44,51.6v76.7h88.1v-76.6L64.8,171.1z"/>
					<g id="Group_230">
						<path id="Path_840" class="st31" d="M14.9,225.5h8.3l41.6-48.8l41.6,48.8h9.2l-50.8-59.6L14,225.6
							C14.3,225.5,14.6,225.5,14.9,225.5z"/>
					</g>
					<g id="Group_232" transform="translate(55.596 31.832)">
						<rect id="Rectangle_187" x="85.7" y="243.3" class="st32" width="20.9" height="24.5"/>
						<g id="Group_231">
							<ellipse id="Ellipse_43" class="st33" cx="96.1" cy="219.9" rx="14.2" ry="14.2"/>
							<rect id="Rectangle_188" x="94.5" y="203.7" class="st30" width="3.3" height="32.5"/>
							<rect id="Rectangle_189" x="79.9" y="218.3" class="st30" width="32.5" height="3.4"/>
						</g>
					</g>
					<g id="Group_2777" transform="translate(15.848 16.816)">
						<path id="Path_5616" class="st34" d="M49,187.9c7.8,0,14.2,6.4,14.2,14.2s-6.4,14.2-14.2,14.2s-14.2-6.4-14.2-14.2
							S41.2,187.9,49,187.9z"/>
						<rect id="Rectangle_188-2" x="47.4" y="185.9" class="st30" width="3.3" height="32.5"/>
						<rect id="Rectangle_189-2" x="32.8" y="200.5" class="st30" width="32.5" height="3.4"/>
					</g>
				</g>
			</g>
		</g>
	</g>
	<g id="Group_700" transform="translate(194.308 390.411)">
		<rect id="Rectangle_577" x="22.8" y="212.6" class="st35" width="75.1" height="32.6"/>
		<g id="Group_699">
			<path id="Path_1233" class="st36" d="M20.7,210.5l2.3,2.4h74.9v-2.4H20.7z"/>
			<path id="Path_1234" class="st36" d="M23,212.8v32.3l-2.3,0v-34.6L23,212.8z"/>
		</g>
		<rect id="Rectangle_578" x="23" y="212.9" class="st37" width="2.6" height="32.2"/>
		<path id="Path_5617" class="st37" d="M23.1,215.4v-2.6h74.8v2.6H23.1z"/>
		<rect id="Rectangle_580" x="23.1" y="228.9" class="st37" width="74.7" height="1.3"/>
		<rect id="Rectangle_581" x="47.5" y="214.4" class="st37" width="1.3" height="30.7"/>
		<rect id="Rectangle_582" x="73" y="214.4" class="st37" width="1.3" height="30.7"/>
	</g>
</g>
</svg>
