<?xml version="1.0" encoding="utf-8"?>
<!-- Generator: Adobe Illustrator 23.0.1, SVG Export Plug-In . SVG Version: 6.00 Build 0)  -->
<svg version="1.1" id="Слой_1" xmlns="http://www.w3.org/2000/svg" xmlns:xlink="http://www.w3.org/1999/xlink" x="0px" y="0px"
	 viewBox="0 0 800 450" style="enable-background:new 0 0 800 450;" xml:space="preserve">
<style type="text/css">
	.st0{fill:#FDF0DB;}
	.st1{fill:#A6C658;}
	.st2{fill:#F0FCFF;}
	.st3{fill:#9E7A7A;}
	.st4{fill:#88CC75;}
	.st5{fill:#E1F7FF;}
	.st6{fill:#7C7C7C;}
	.st7{fill:#AED366;}
	.st8{fill:#665F5A;}
	.st9{fill:#B2877F;}
	.st10{fill:#A3786D;}
	.st11{fill:#80C16B;}
	.st12{fill:#79B264;}
	.st13{fill:#9FC445;}
	.st14{fill:#7B8B9B;}
	.st15{fill:#91C6E2;}
	.st16{fill:#A1E0FF;}
	.st17{fill:#FFC9A4;}
	.st18{fill:#6091D8;}
	.st19{fill:#AA8B83;}
	.st20{fill:#76A8E5;}
	.st21{fill:#685C58;}
	.st22{opacity:0.2;fill:#313133;enable-background:new    ;}
	.st23{fill:#EBB478;}
	.st24{fill:#FFD086;}
	.st25{fill-rule:evenodd;clip-rule:evenodd;fill:#74281A;}
	.st26{opacity:0.2;fill-rule:evenodd;clip-rule:evenodd;fill:#313133;enable-background:new    ;}
	.st27{fill:#BAB9B9;}
	.st28{fill:#63BACC;}
	.st29{opacity:0.4;fill:#FFFFFF;enable-background:new    ;}
	.st30{fill:#2E3F4B;}
	.st31{fill:#5A1E11;}
	.st32{fill:#74281A;}
	.st33{opacity:0.4;}
	.st34{fill:#FFFFFF;}
	.st35{fill:#B7958D;}
	.st36{fill:#93D0F5;}
	.st37{fill:#A1EBFF;}
	.st38{fill:#FFD0B0;}
	.st39{fill:#4FB254;}
	.st40{fill:#565656;}
	.st41{fill:#6ACC6A;}
	.st42{fill:#DDDBDB;}
	.st43{fill:#F5F5F5;}
	.st44{fill:#A1A1A9;}
	.st45{fill:#5E5349;}
	.st46{fill:#756A60;}
	.st47{fill:#DCD9E3;}
	.st48{fill:#632E28;}
	.st49{fill:#BCBBC5;}
	.st50{fill:#00222F;}
	.st51{fill:#001621;}
	.st52{fill:#4E231E;}
	.st53{fill:#D2AD8C;}
	.st54{fill:#324651;}
	.st55{fill:#DDE7EE;}
	.st56{fill:#C19B80;}
	.st57{fill:#B8D3E1;}
	.st58{fill:#D0E0E8;}
	.st59{fill:#3E5562;}
	.st60{fill:#492C2E;}
	.st61{fill-rule:evenodd;clip-rule:evenodd;fill:#3E5562;}
	.st62{fill-rule:evenodd;clip-rule:evenodd;fill:#3B515E;}
	.st63{opacity:0.3;fill:#FFFFFF;enable-background:new    ;}
	.st64{opacity:0.2;fill:#FFFFFF;enable-background:new    ;}
	.st65{fill:#A8837E;}
</style>
<rect class="st0" width="800" height="440.9"/>
<g id="Group_4962" transform="translate(-1348.514 -339.479)">
	<g id="Group_2789" transform="translate(1345.408 382.938)">
		<path id="Path_3136_1_" class="st1" d="M787.6,369.8H18.3c-8.6,0-15.5,15.2-15.5,33.9h800.4C803.1,385,796.2,369.8,787.6,369.8z"
			/>
		<path id="Path_3139_1_" class="st2" d="M654.1,198.8c1.3-7.1-3.4-13.9-10.5-15.2c-5.6-1-11.2,1.7-13.9,6.6
			c-3.5-3.7-9-4.6-13.5-2.2c-3.2-5.8-9.8-8.7-16.2-7.2c-2.6-8.9-11.9-13.9-20.8-11.3c-6.4,1.9-11,7.4-11.8,13.9
			c-7.2-1-13.8,4-14.8,11.1c-0.2,1.4-0.2,2.8,0.1,4.2H654.1z"/>
		<g id="Group_1414_1_" transform="translate(179.858 78.049)">
			<path id="Path_3165_1_" class="st3" d="M91.8,291.6c-1.8-33.4-1.6-30.2-1.6-31.3l0,0.4l0-0.4c0,1.1,0.2-2.1-1.6,31.3H91.8z"/>
			<path id="Path_3166_1_" class="st4" d="M97.9,247.6l-6.2,0.5l5.3-3c-0.7-2.1-4.6-12.9-6.8-12.9c-2.5,0.1-8,15.3-10.5,25.2
				l6.3,2.4l-6.8-0.2c-0.4,1.7-0.6,3.3-0.7,5c0,6.5,5.2,11.7,11.7,11.7h0c6.5,0,11.7-5.2,11.7-11.7l0,0
				C101.2,258.8,99.9,253.1,97.9,247.6z"/>
		</g>
		<path id="Path_3167_1_" class="st2" d="M81.7,196.7c-6.6,0-11.9,5.3-11.9,11.9h23.8C93.6,202,88.2,196.7,81.7,196.7z"/>
		<path id="Path_3168_1_" class="st2" d="M788.2,250.6c-6.6,0-11.9,5.3-11.9,11.9l0,0h23.8C800.1,255.9,794.8,250.6,788.2,250.6
			L788.2,250.6z"/>
		<path id="Path_3170_1_" class="st2" d="M713.7,221c-2.8,0-5.6,1.1-7.7,3c-4.6-7.6-14.5-9.9-22.1-5.3c-4.8,2.9-7.6,8.1-7.6,13.7
			H725C725,226.1,719.9,221,713.7,221z"/>
		<g id="Group_1417_1_" transform="translate(170.949 37.176)">
			<g id="Group_1415_1_" transform="translate(7.299)">
				<path id="Path_3171_1_" class="st5" d="M84,192.8c-1.4-3.1-4.1-5.4-7.3-6.4l0.6-1.8c2.6,0.8,5,2.4,6.7,4.5
					c1.8-2.1,4.1-3.7,6.7-4.5l0.6,1.8c-2.7,0.8-5,2.5-6.5,4.8L84,192.8z"/>
			</g>
			<g id="Group_1416_1_" transform="translate(0 6.201)">
				<path id="Path_3172_1_" class="st5" d="M73.6,197.8c-1.1-2.1-3.1-3.7-5.4-4.2l0.5-1.9c1.8,0.5,3.5,1.4,4.9,2.8
					c1.4-1.3,3.1-2.3,4.9-2.8l0.5,1.9C76.6,194.2,74.7,195.7,73.6,197.8z"/>
			</g>
		</g>
		<path id="Path_3195_1_" class="st2" d="M127.9,71L127.9,71c0-10.1-8.2-18.2-18.2-18.2c-5.6,0-10.9,2.6-14.4,7
			c-4.6-10.6-17-15.5-27.6-10.9c-3.8,1.7-7,4.4-9.3,7.9c-7.8-6.4-19.3-5.2-25.6,2.6c-2.7,3.3-4.1,7.3-4.1,11.5v0H127.9z"/>
		<path id="Path_3196_1_" class="st6" d="M803.1,399.1H2.8c0-6.9,4.8-12.5,10.8-12.5h778.7C798.3,386.6,803.1,392.2,803.1,399.1z"/>
		<path id="Path_3197_1_" class="st7" d="M803.1,399.1c0,5-4.8,9.1-10.8,9.1H13.6c-6,0-10.8-4.1-10.8-9.1H803.1z"/>
		<g id="Group_1420_1_" transform="translate(288.265 115.77)">
			<path id="Path_3199_1_" class="st7" d="M222.7,284.2c5.4-13.2,25.2-9.3,25.2,4.9h-43.1c1.4-5.7,7.1-9.2,12.8-7.8
				C219.6,281.8,221.3,282.8,222.7,284.2z"/>
		</g>
		<g id="Group_1451_1_" transform="translate(191.166 49.187)">
			<g id="Group_1450_1_" transform="translate(77.226 52.711)">
				<rect id="Rectangle_1538_1_" x="181.7" y="259.9" class="st8" width="1" height="2.9"/>
			</g>
		</g>
		<g id="Group_1452_1_" transform="translate(68.034 44.095)">
			<rect id="Rectangle_1539_1_" x="-25.7" y="307.7" class="st9" width="8.7" height="25.9"/>
			<path id="Path_3257_1_" class="st10" d="M-25.7,307.7v7.3c3.1-0.2,5.8,2.2,6,5.4c0,0.1,0,0.2,0,0.2v13h3v-25.9H-25.7z"/>
			<path id="Path_3258_1_" class="st4" d="M-21,192.6l-17.6,54.7l17.6-8.7l17.6,8.7L-21,192.6z"/>
			<path id="Path_3259_1_" class="st4" d="M-21,209.8L-43.6,280l22.6-11.1L1.6,280L-21,209.8z"/>
			<path id="Path_3260_1_" class="st4" d="M-21,228.1l-30.7,95.5l30.7-15.2l30.7,15.2L-21,228.1z"/>
			<path id="Path_3261_1_" class="st11" d="M-21,192.6l17.6,54.7l-13.6-6.7L-21,192.6z"/>
			<path id="Path_3262_1_" class="st11" d="M-16,225.2l17.6,54.7l-13.6-6.7L-16,225.2z"/>
			<path id="Path_3263_1_" class="st11" d="M-7.9,269l17.6,54.7l-13.6-6.7L-7.9,269z"/>
			<path id="Path_3264_1_" class="st12" d="M-10,244l-11-5.4l-11,5.4l-4.3,13.4l14.8-12.3L-5.8,257L-10,244z"/>
			<path id="Path_3265_1_" class="st12" d="M-5.4,276.4l-15.6-7.7l-15.6,7.7l-6.1,18.9l20.9-17.3l22.3,16.8L-5.4,276.4z"/>
		</g>
		<path id="Path_3347_1_" class="st13" d="M229.3,396.1c3.5,0,6.9,1.5,9.2,4.2c1.8-8.8,10.4-14.4,19.2-12.6c2.7,0.6,5.3,1.8,7.3,3.7
			c6.9-4,15.7-1.7,19.8,5.2c0.8,1.3,1.3,2.8,1.7,4.3c2.1-2.4,5.1-3.7,8.2-3.6c5.9,0.1,10.7,5,10.7,10.9h-87.9
			C217.4,399.8,222.7,396.1,229.3,396.1z"/>
		<g id="Group_1605_1_" transform="translate(201.775 81.636)">
			<g id="Group_1592_1_" transform="translate(0 28.122)">
				<path id="Path_3385_1_" class="st14" d="M107.3,271.7l-0.6-2.4c-0.8-0.3-1.8-0.3-2.6,0l1.9,6.9
					C106.9,275,107.4,273.4,107.3,271.7z"/>
			</g>
			<g id="Group_1593_1_" transform="translate(14.72 33.606)">
				<path id="Path_3386_1_" class="st14" d="M123.8,275.5l-2.2,0.6c-0.4,0.8-0.4,1.8-0.1,2.6l7.5-1.6
					C127.4,276,125.6,275.5,123.8,275.5z"/>
			</g>
			<g id="Group_1594_1_" transform="translate(1.198 18.815)">
				<path id="Path_3387_1_" class="st15" d="M130.5,258.3c0,0-4.7,16.5-7.5,18.8c-2.7,2.2-16.9,4-16.9,4l-0.6-2.4
					c0,0,9.2-6,14.1-5.4c-3.4-6.3-1.7-15-1.7-15L130.5,258.3z"/>
			</g>
			<g id="Group_1595_1_" transform="translate(7.007 18.815)">
				<path id="Path_3388_1_" class="st16" d="M124.9,258.3l6.6,13.5l0,18.6l-2.2,0.6c0,0-5.1-11-2.4-16.7c0,0-13.8-8.9-14.6-15.9
					L124.9,258.3z"/>
			</g>
			<g id="Group_1596_1_" transform="translate(10.632 9.296)">
				<path id="Path_3389_1_" class="st17" d="M119.4,247.2c2.4,1.7,4.5,3.8,6.3,6.2c2.2-1.9,5.7-4.4,5.7-4.4l1.2,0.8
					c0,0-4.5,6.9-6.8,7.6s-9.5-5.3-9.5-5.3L119.4,247.2z"/>
			</g>
			<g id="Group_1597_1_" transform="translate(11.198 5.248)">
				<path id="Path_3390_1_" class="st17" d="M122.8,243.3l-0.5,3.8l-5.2-1.4l3.8-3.3L122.8,243.3z"/>
			</g>
			<g id="Group_1598_1_" transform="translate(6.066 6.76)">
				<path id="Path_3391_1_" class="st18" d="M122.2,244.2c-7.3,7.2-11.3,17.1-11.1,27.3h15.4l1-25.9L122.2,244.2z"/>
			</g>
			<g id="Group_1599_1_" transform="translate(7.002 9.63)">
				<path id="Path_3392_1_" class="st17" d="M112.2,253.6c-0.4,2.7,12.6,7.2,12.6,7.2l0.4-1.3c0,0-5.1-5.6-7.9-6.1
					c1.3-0.4,2.6-1,3.6-1.8l-3.3-4C115.3,249.5,112.4,252.2,112.2,253.6z"/>
			</g>
			<g id="Group_1600_1_" transform="translate(11.679 0.339)">
				<path id="Path_3393_1_" class="st17" d="M118.1,245c-0.1-0.3-0.2-0.6-0.3-1c0-0.1-0.1-0.4-0.1-0.6c0-0.2-0.1-0.5-0.1-0.7
					c0-0.6,0-1.2,0.2-1.7c0.2-1.1,0.8-2,1.5-2.8c0.7-0.9,1.8-1.4,2.9-1.5c0.2,0,0.5,0,0.7,0c0.2,0,0.4,0.1,0.6,0.1
					c0.2,0.1,0.4,0.1,0.5,0.2c0.2,0.1,0.4,0.2,0.6,0.3c0.2,0.1,0.4,0.2,0.5,0.4c0.5,0.4,0.9,0.9,1.2,1.4c0.2,0.3,0.1,0.3,0.3,0.5
					c0.2,0.3,0.3,0.7,0.4,1.1l0,0c0.2,0.5,0.2,1.1,0.3,1.6c0.1,3.2-2.1,7.1-4.5,7.2c-1.7,0.1-3.4-1.7-4.4-3.8l0-0.1
					C118.3,245.5,118.2,245.3,118.1,245z"/>
			</g>
			<g id="Group_1601_1_" transform="translate(12.686 15.041)">
				<path id="Path_3394_1_" class="st17" d="M123,256.3c-0.4,0.6-1.3,0.8-1.9,0.4c0,0,0,0,0,0l-1.8-1.1c-0.4-0.3-0.5-0.8-0.3-1.2
					l0,0c0.2-0.3,0.6-0.5,1-0.4l2.1,0.4c0.7,0.1,1.2,0.8,1.1,1.5c0,0,0,0.1,0,0.1C123.1,256.1,123,256.2,123,256.3z"/>
			</g>
			<g id="Group_1602_1_" transform="translate(17.281 8.91)">
				<path id="Path_3395_1_" class="st17" d="M127.7,247.2c0.5,0.6,0.3,1.5-0.3,1.9c0,0,0,0,0,0l-1.7,1.3c-0.4,0.3-1,0.2-1.3-0.2l0,0
					c-0.2-0.3-0.3-0.7-0.1-1l1.1-1.8c0.4-0.6,1.2-0.9,1.8-0.5c0,0,0.1,0,0.1,0.1C127.5,247.1,127.6,247.1,127.7,247.2z"/>
			</g>
			<g id="Group_1603_1_" transform="translate(11.19)">
				<path id="Path_3396_1_" class="st19" d="M128.5,241.8l-3.2-0.8l-1.9,1.4l-1.5-0.6l-2.5,5.3l-2.3-3.4
					C117,233.6,127.6,234.8,128.5,241.8z"/>
			</g>
			<g id="Group_1604_1_" transform="translate(9.392 8.537)">
				<path id="Path_3397_1_" class="st20" d="M115,248.5l3.7,4.5c0.7-0.5,1.4-1,2-1.4c1.4-0.9,1.7-2.7,0.9-4.1
					c-0.9-1.4-2.7-1.7-4.1-0.9c0,0-0.1,0.1-0.1,0.1C116.7,247.2,115.9,247.8,115,248.5z"/>
			</g>
		</g>
	</g>
	<g id="Group_4432" transform="translate(1310.095 262.677)">
		<rect id="Rectangle_3416" x="225.7" y="317" class="st21" width="19.6" height="52.5"/>
		<path id="Path_10012" class="st22" d="M228.5,375h16.9l-8.9-21.4h-8V375z"/>
		<path id="Path_10013" class="st23" d="M223.5,503.5H94.1V352.7l65.3-38.7l64.1,38.7V503.5z"/>
		<rect id="Rectangle_3417" x="94.1" y="417" class="st24" width="129.4" height="2.7"/>
		<rect id="Rectangle_3418" x="94.1" y="420" class="st22" width="129.4" height="1.3"/>
		<path id="Path_10014" class="st24" d="M232.3,503.5h-70v-63.3l35.4-18.2l34.6,18.2V503.5z"/>
		<rect id="Rectangle_3419" x="245.6" y="485.6" class="st21" width="96" height="17.9"/>
		<rect id="Rectangle_3420" x="94.1" y="503.5" class="st21" width="247.5" height="3.3"/>
		<rect id="Rectangle_3421" x="245.6" y="411" class="st23" width="93.5" height="74.5"/>
		<path id="Path_10015" class="st25" d="M197.5,410.8l-39.7,22.4v4.3h0.4l39.4-22.2l39.3,22.1V433L197.5,410.8z"/>
		<path id="Path_10016" class="st26" d="M197.6,415.6l-35.4,19.9v3.2h0.4l35-19.7l34.6,19.5v-3.4L197.6,415.6z"/>
		<path id="Path_10017" class="st25" d="M159.4,308.9l-70.2,39.5v4.8h0.7l69.5-39.2l69.3,39.1V348L159.4,308.9z"/>
		<path id="Path_10018" class="st26" d="M159.4,314l-65.3,36.8v4.2h0.6l64.5-36.3l64.3,36.3v-4.7L159.4,314z"/>
		<path id="Path_10019" class="st25" d="M245.6,397.6h97.3L312.1,378h-66.5V397.6z"/>
		<rect id="Rectangle_3422" x="245.6" y="399.2" class="st27" width="95" height="1.8"/>
		<rect id="Rectangle_3423" x="245.6" y="401.2" class="st22" width="93.5" height="1.8"/>
		<rect id="Rectangle_3424" x="312.5" y="414" class="st28" width="14.8" height="54.7"/>
		<rect id="Rectangle_3425" x="289.6" y="414" class="st28" width="14.8" height="54.7"/>
		<rect id="Rectangle_3426" x="268.3" y="414" class="st28" width="14.8" height="54.7"/>
		<rect id="Rectangle_3427" x="247" y="414" class="st28" width="14.8" height="54.7"/>
		<path id="Path_10020" class="st29" d="M247,414v5.8h10.3v48.9h4.5V414H247z"/>
		<path id="Path_10021" class="st29" d="M268.3,414v5.8h10.3v48.9h4.5V414H268.3z"/>
		<path id="Path_10022" class="st29" d="M289.6,414v5.8h10.3v48.9h4.5V414H289.6z"/>
		<path id="Path_10023" class="st29" d="M312.5,414v5.8h10.3v48.9h4.5V414H312.5z"/>
		<g id="Group_4427" transform="translate(196.665 190.364)">
			<path id="Path_10024" class="st30" d="M130.6,222.9H115v56.3h16.4v-56.3H130.6z M130.6,278.4h-14.8v-54.7h14.8V278.4z"/>
			<path id="Path_10025" class="st30" d="M96.5,222.9h-0.8v56.3h16.4v-56.3H96.5z M111.3,278.4H96.5v-54.7h14.8V278.4z"/>
			<path id="Path_10026" class="st30" d="M77.1,222.9h-0.8v56.3h16.4v-56.3H77.1z M91.9,278.4H77.1v-54.7h14.8V278.4z"/>
			<path id="Path_10027" class="st30" d="M57.8,222.9H57v56.3h16.4v-56.3H57.8z M72.6,278.4H57.8v-54.7h14.8V278.4z"/>
		</g>
		<rect id="Rectangle_3428" x="132.8" y="354.5" class="st28" width="14.8" height="41"/>
		<path id="Path_10028" class="st29" d="M132.8,354.5v4.3h10.7v36.7h4.1v-41H132.8z"/>
		<path id="Path_10029" class="st30" d="M132.8,353.6H132v42.7h16.4v-42.7H132.8z M147.6,395.4h-14.8v-41h14.8V395.4z"/>
		<g id="Group_4428" transform="translate(152.218 162.793)">
			<rect id="Rectangle_3429" x="6" y="191.6" class="st28" width="14.8" height="41"/>
			<path id="Path_10030" class="st30" d="M6,190.8H5.2v42.7h16.4v-42.7H6z M20.8,232.6H6v-41h14.8V232.6z"/>
		</g>
		<g id="Group_4429" transform="translate(163.969 162.793)">
			<rect id="Rectangle_3430" x="19.7" y="191.6" class="st28" width="14.8" height="41"/>
			<path id="Path_10031" class="st30" d="M19.7,190.8h-0.8v42.7h16.4v-42.7H19.7z M34.5,232.6H19.7v-41h14.8V232.6z"/>
		</g>
		<rect id="Rectangle_3431" x="246.4" y="426.6" class="st30" width="15.9" height="0.8"/>
		<rect id="Rectangle_3432" x="105" y="444.9" class="st28" width="14.8" height="8.3"/>
		<rect id="Rectangle_3433" x="105.7" y="461" class="st28" width="13.3" height="25.8"/>
		<path id="Path_10032" class="st30" d="M119.7,450.3h-15.6v38h16.4v-38H119.7z M105,451.1h14.8v8.3H105V451.1z M105.7,461H119v25.8
			h-13.3V461z"/>
		<rect id="Rectangle_3434" x="132" y="444.9" class="st28" width="14.8" height="8.3"/>
		<rect id="Rectangle_3435" x="132.8" y="461" class="st28" width="13.3" height="25.8"/>
		<path id="Path_10033" class="st30" d="M146.7,450.3h-15.6v38h16.4v-38H146.7z M131.9,451.1h14.8v8.3h-14.8V451.1z M132.7,461h13.3
			v25.8h-13.3V461z"/>
		<rect id="Rectangle_3436" x="267.7" y="426.6" class="st30" width="15.9" height="0.8"/>
		<rect id="Rectangle_3437" x="292.6" y="426.6" class="st30" width="15.9" height="0.8"/>
		<rect id="Rectangle_3438" x="311.9" y="426.6" class="st30" width="15.9" height="0.8"/>
		<rect id="Rectangle_3439" x="175.8" y="448.3" class="st23" width="42.6" height="55.2"/>
		<rect id="Rectangle_3440" x="180.7" y="455.3" class="st30" width="33.1" height="48"/>
		<rect id="Rectangle_3441" x="182.5" y="457" class="st31" width="29.7" height="46.4"/>
		<rect id="Rectangle_3442" x="183.8" y="458.5" class="st32" width="27" height="44.9"/>
		<rect id="Rectangle_3443" x="183.8" y="459.2" class="st28" width="27" height="3.5"/>
		<rect id="Rectangle_3444" x="183.8" y="473.5" class="st28" width="27" height="3.5"/>
		<rect id="Rectangle_3445" x="183.8" y="482.9" class="st28" width="27" height="3.5"/>
		<rect id="Rectangle_3446" x="183.8" y="492.3" class="st28" width="27" height="3.5"/>
		<path id="Path_10034" class="st29" d="M158.3,354.5v4.3h10.7v36.7h4.1v-41H158.3z"/>
		<path id="Path_10035" class="st29" d="M183.7,354.5v4.3h10.7v36.7h4.1v-41H183.7z"/>
		<g id="Group_4430" transform="translate(127.993 207.86)" class="st33">
			<path id="Path_10036" class="st34" d="M-23,243.3v3.2h10.4v5.2h4.4v-8.3H-23z"/>
			<rect id="Rectangle_3447" x="-12.6" y="253.1" class="st34" width="3.6" height="25.8"/>
		</g>
		<g id="Group_4431" transform="translate(140.461 207.86)" class="st33">
			<path id="Path_10037" class="st34" d="M-8.5,243.3v3.2H1.9v5.2h4.4v-8.3H-8.5z"/>
			<rect id="Rectangle_3448" x="1.9" y="253.1" class="st34" width="3.6" height="25.8"/>
		</g>
		<rect id="Rectangle_3449" x="245.6" y="499.3" class="st22" width="96" height="4.2"/>
		<rect id="Rectangle_3450" x="94.1" y="499.3" class="st22" width="59.4" height="4.2"/>
		<rect id="Rectangle_3451" x="245.6" y="481.4" class="st22" width="93.5" height="4.2"/>
		<path id="Path_10038" class="st22" d="M175.8,448.3v26.3l42.6,15.5v-41.8H175.8z"/>
		<rect id="Rectangle_3452" x="328.8" y="492.9" class="st22" width="6" height="2.2"/>
		<rect id="Rectangle_3453" x="325.8" y="490" class="st22" width="6" height="2.2"/>
		<rect id="Rectangle_3454" x="297.5" y="494.5" class="st22" width="6" height="2.2"/>
		<rect id="Rectangle_3455" x="274.1" y="487.8" class="st22" width="6" height="2.2"/>
		<rect id="Rectangle_3456" x="236.6" y="321.8" class="st22" width="6" height="2.2"/>
		<rect id="Rectangle_3457" x="227.8" y="333.4" class="st22" width="6" height="2.2"/>
		<rect id="Rectangle_3458" x="249.6" y="493.4" class="st22" width="6" height="2.2"/>
	</g>
	<g id="Group_2791" transform="translate(1465.313 463.574)">
		<g id="Group_1544_1_" transform="translate(0 31.613)">
			<path id="Path_3348_1_" class="st35" d="M13.3,272c1,0.2,2.1,0.2,3.1,0.1c0.7,0.8,1,1.9,0.9,3l-8.6,0
				C9.9,273.6,11.5,272.6,13.3,272z"/>
		</g>
		<g id="Group_1545_1_" transform="translate(8.942 29.444)">
			<path id="Path_3349_1_" class="st35" d="M20.8,271.5c0.9-0.5,1.8-1.2,2.5-2c1.1,0.2,2,0.9,2.5,1.9l-6.7,5.4
				C19.2,274.9,19.7,273.1,20.8,271.5z"/>
		</g>
		<g id="Group_1546_1_" transform="translate(2.128 17.116)">
			<path id="Path_3350_1_" class="st36" d="M17.5,268.2l-1.1,1.1c0.4,2.1,0.5,4.4,0.3,6.5c-0.5,3.4-2.6,6.4-2.4,10.8
				c-1,0.7-2.2,0.6-3.2-0.1c0,0,0.2-15.8,0.2-16.7c0.1-0.7,0.8-13.9,0.9-14.6l1.5-0.1L17.5,268.2z"/>
		</g>
		<g id="Group_1547_1_" transform="translate(2.818 16.933)">
			<path id="Path_3351_1_" class="st37" d="M24,254.9c0.1,6.5-2.6,10-3.8,13.2c1.8,1.1,3.2,2.6,4.3,4.3c1.8,3,1.7,6.4,4.9,9.6
				c0,0-0.4,2.2-2.5,2l-11.3-14L12,255.3L24,254.9z"/>
		</g>
		<g id="Group_1548_1_" transform="translate(4.795 17.573)">
			
				<rect id="Rectangle_1586_1_" x="15.7" y="255.3" transform="matrix(0.7094 -0.7048 0.7048 0.7094 -176.7735 86.1215)" class="st36" width="0.8" height="4.3"/>
		</g>
		<g id="Group_1549_1_" transform="translate(4.042 4.795)">
			<path id="Path_3352_1_" class="st38" d="M15.1,242.4l-1.7,4.4c2.1,0.5,4.3-0.6,5.1-2.6v-3.4L15.1,242.4z"/>
		</g>
		<g id="Group_1550_1_" transform="translate(2.307 6.373)">
			<path id="Path_3353_1_" class="st39" d="M12.6,251l2.5-5.8l5.1-2.6c0.3,0.4,0.6,0.8,0.9,1.3c0.8,1.2,1.4,2.6,1.8,4
				c2,7.8,4,17.8,4,17.8L11.4,267L12.6,251z"/>
		</g>
		<g id="Group_1551_1_" transform="translate(3.539 2.024)">
			<path id="Path_3354_1_" class="st38" d="M18.6,238l0.4,6c-1.1,1-2.6,1.4-4,1c-2-0.9-2.7-4.8-1.6-7.5L18.6,238z"/>
		</g>
		<g id="Group_1552_1_" transform="translate(3.538 0)">
			<path id="Path_3355_1_" class="st19" d="M12.8,239.5l2,0.2l1.5-1.3l0.2,1.4l2.1,0.2l0.4,6c2.3-0.6,4.1-2.3,4.8-4.6
				c-0.4-1.7-1.2-3.3-2.4-4.6c-1.6-1.8-4.1-2.2-6.2-1C14,236.8,13.2,238.1,12.8,239.5z"/>
		</g>
		<g id="Group_1553_1_" transform="translate(3.627 2.872)">
			
				<rect id="Rectangle_1587_1_" x="13.3" y="240.1" transform="matrix(0.7071 -0.7071 0.7071 0.7071 -166.3126 82.4471)" class="st40" width="6" height="3.7"/>
		</g>
		<g id="Group_1554_1_" transform="translate(3.998 4.179)">
			<path id="Path_3356_1_" class="st38" d="M16.8,240.5L16.8,240.5c-0.5-0.6-1.3-0.6-1.8-0.2c0,0,0,0,0,0l-1.3,1.4
				c-0.4,0.4-0.4,1,0,1.4l0,0c0.4,0.4,1,0.5,1.5,0.2l1.6-1.1C17.2,241.9,17.3,241.1,16.8,240.5C16.8,240.5,16.8,240.5,16.8,240.5z"
				/>
		</g>
		<g id="Group_1555_1_" transform="translate(0.956 8.072)">
			<path id="Path_3357_1_" class="st41" d="M21.8,248.1c0,0.6-0.3,1.2-0.7,1.6c-4.1,3.4-11,3.2-11,3.2c-0.4-2.9,0.4-5.9,2.2-8.3
				l2.5,1.5c-0.5,1-1,2-1.6,2.9c1.7-1.4,3.8-2.3,5.9-2.8c1.1-0.4,2.3,0.2,2.7,1.3C21.7,247.6,21.8,247.9,21.8,248.1L21.8,248.1z"/>
		</g>
		<g id="Group_1556_1_" transform="translate(4.481 1.491)">
			<path id="Path_3358_1_" class="st38" d="M13.9,238.2l1.7,0.1l-0.2-1.4L13.9,238.2z"/>
		</g>
		<g id="Group_1557_1_" transform="translate(2.055 5.502)">
			<path id="Path_3359_1_" class="st38" d="M16.5,242.2c0,0-1.5,3.6-3,6.4l-2.5-1.5c1.2-2,2.7-3.9,4.3-5.6L16.5,242.2z"/>
		</g>
		<g id="Group_1558_1_" transform="translate(4.26 13.32)">
			<path id="Path_3360_1_" class="st41" d="M14.3,250.7l4.5,2.4l-0.7,1.6c-0.4,0.8-1.2,1.3-2.1,1.3l0,0c-1.3,0-2.3-1-2.3-2.3
				c0-0.2,0-0.4,0.1-0.6L14.3,250.7z"/>
		</g>
	</g>
	<g id="Group_4433" transform="translate(1481.917 486.296)">
		<g id="Group_1482_1_" transform="translate(14.92)">
			<g id="Group_1474_1_" transform="translate(0 3.891)">
				<g id="Group_1473_1_">
					<rect id="Rectangle_1578_1_" x="45.4" y="266.2" class="st42" width="33" height="1.7"/>
				</g>
			</g>
			<g id="Group_1476_1_" transform="translate(0 7.224)">
				<g id="Group_1475_1_">
					<rect id="Rectangle_1579_1_" x="45.4" y="270.1" class="st42" width="33" height="1.7"/>
				</g>
			</g>
			<g id="Group_1477_1_" transform="translate(1.039 1.746)">
				<path id="Path_3294_1_" class="st43" d="M49.1,281.5h-2.4v-15.9l1.2-2l1.2,2V281.5z"/>
			</g>
			<g id="Group_1478_1_" transform="translate(4.027 0.915)">
				<path id="Path_3295_1_" class="st43" d="M52.5,282.3h-2.4v-17.6l1.2-2l1.2,2L52.5,282.3z"/>
			</g>
			<g id="Group_1479_1_" transform="translate(7.014)">
				<path id="Path_3296_1_" class="st43" d="M56,283.3h-2.4v-19.6l1.2-2l1.2,2V283.3z"/>
			</g>
			<g id="Group_1480_1_" transform="translate(10.002 0.915)">
				<path id="Path_3297_1_" class="st43" d="M59.5,282.3h-2.4v-17.6l1.2-2l1.2,2L59.5,282.3z"/>
			</g>
			<g id="Group_1481_1_" transform="translate(12.99 1.746)">
				<path id="Path_3298_1_" class="st43" d="M63,281.5h-2.4v-15.9l1.2-2l1.2,2V281.5z"/>
			</g>
		</g>
		<g id="Group_1492_1_" transform="translate(29.907)">
			<g id="Group_1484_1_" transform="translate(0 3.891)">
				<g id="Group_1483_1_">
					<rect id="Rectangle_1580_1_" x="62.9" y="266.2" class="st42" width="33" height="1.7"/>
				</g>
			</g>
			<g id="Group_1486_1_" transform="translate(0 7.224)">
				<g id="Group_1485_1_">
					<rect id="Rectangle_1581_1_" x="62.9" y="270.1" class="st42" width="33" height="1.7"/>
				</g>
			</g>
			<g id="Group_1487_1_" transform="translate(1.039 1.746)">
				<path id="Path_3299_1_" class="st43" d="M66.5,281.5h-2.4v-15.9l1.2-2l1.2,2L66.5,281.5z"/>
			</g>
			<g id="Group_1488_1_" transform="translate(4.027 0.915)">
				<path id="Path_3300_1_" class="st43" d="M70,282.3h-2.4v-17.6l1.2-2l1.2,2L70,282.3z"/>
			</g>
			<g id="Group_1489_1_" transform="translate(7.014)">
				<path id="Path_3301_1_" class="st43" d="M73.5,283.3H71v-19.6l1.2-2l1.2,2L73.5,283.3z"/>
			</g>
			<g id="Group_1490_1_" transform="translate(10.002 0.915)">
				<path id="Path_3302_1_" class="st43" d="M77,282.3h-2.4v-17.6l1.2-2l1.2,2L77,282.3z"/>
			</g>
			<g id="Group_1491_1_" transform="translate(12.99 1.746)">
				<path id="Path_3303_1_" class="st43" d="M80.4,281.5H78v-15.9l1.2-2l1.2,2L80.4,281.5z"/>
			</g>
		</g>
		<g id="Group_1502_1_">
			<g id="Group_1494_1_" transform="translate(0 3.891)">
				<g id="Group_1493_1_">
					<rect id="Rectangle_1582_1_" x="28" y="266.2" class="st42" width="33" height="1.7"/>
				</g>
			</g>
			<g id="Group_1496_1_" transform="translate(0 7.224)">
				<g id="Group_1495_1_">
					<rect id="Rectangle_1583_1_" x="28" y="270.1" class="st42" width="33" height="1.7"/>
				</g>
			</g>
			<g id="Group_1497_1_" transform="translate(1.039 1.746)">
				<path id="Path_3304_1_" class="st43" d="M31.7,281.5h-2.4v-15.9l1.2-2l1.2,2V281.5z"/>
			</g>
			<g id="Group_1498_1_" transform="translate(4.027 0.915)">
				<path id="Path_3305_1_" class="st43" d="M35.1,282.3h-2.4v-17.6l1.2-2l1.2,2V282.3z"/>
			</g>
			<g id="Group_1499_1_" transform="translate(7.014)">
				<path id="Path_3306_1_" class="st43" d="M38.6,283.3h-2.4v-19.6l1.2-2l1.2,2V283.3z"/>
			</g>
			<g id="Group_1500_1_" transform="translate(10.002 0.915)">
				<path id="Path_3307_1_" class="st43" d="M42.1,282.3h-2.4v-17.6l1.2-2l1.2,2V282.3z"/>
			</g>
			<g id="Group_1501_1_" transform="translate(12.99 1.746)">
				<path id="Path_3308_1_" class="st43" d="M45.6,281.5h-2.4v-15.9l1.2-2l1.2,2L45.6,281.5z"/>
			</g>
		</g>
	</g>
	<g id="Group_4434" transform="translate(1174.151 250.867)">
		<rect id="Rectangle_3459" x="534.8" y="386.3" class="st44" width="25.9" height="104.9"/>
		<rect id="Rectangle_3460" x="534.8" y="491.2" class="st45" width="25.9" height="3.2"/>
		<rect id="Rectangle_3461" x="534.8" y="494.4" class="st46" width="25.9" height="3.2"/>
		<rect id="Rectangle_3462" x="534.8" y="497.6" class="st45" width="25.9" height="3.2"/>
		<rect id="Rectangle_3463" x="534.8" y="500.9" class="st46" width="25.9" height="3.2"/>
		<rect id="Rectangle_3464" x="534.8" y="504.1" class="st45" width="25.9" height="3.2"/>
		<rect id="Rectangle_3465" x="534.8" y="507.3" class="st46" width="25.9" height="3.2"/>
		<rect id="Rectangle_3466" x="560.7" y="490.1" class="st47" width="105.3" height="20.4"/>
		<rect id="Rectangle_3467" x="560.7" y="441.5" class="st48" width="81.6" height="48.5"/>
		<path id="Path_10039" class="st47" d="M560.7,379.1v62.4h88.2v-62.4H560.7z M643.5,430.8h-77.4v-40.9h77.4V430.8z"/>
		<rect id="Rectangle_3468" x="529.8" y="370.6" class="st49" width="5" height="119.5"/>
		<rect id="Rectangle_3469" x="528.7" y="490.1" class="st47" width="6.2" height="20.4"/>
		<rect id="Rectangle_3470" x="566.1" y="389.9" class="st48" width="13.3" height="40.9"/>
		<rect id="Rectangle_3471" x="579.4" y="389.9" class="st50" width="64.1" height="1.5"/>
		<rect id="Rectangle_3472" x="560.1" y="377" class="st49" width="89.4" height="2.1"/>
		<rect id="Rectangle_3473" x="579.4" y="429.3" class="st50" width="64.1" height="1.5"/>
		<rect id="Rectangle_3474" x="578.1" y="441.5" class="st50" width="56.4" height="1.5"/>
		<rect id="Rectangle_3475" x="534.8" y="444.3" class="st50" width="22.9" height="1.5"/>
		<rect id="Rectangle_3476" x="578.1" y="488.6" class="st50" width="56.4" height="1.5"/>
		<rect id="Rectangle_3477" x="579.4" y="389.9" class="st50" width="1.5" height="40.9"/>
		<rect id="Rectangle_3478" x="642" y="389.9" class="st50" width="1.5" height="40.9"/>
		<rect id="Rectangle_3479" x="634.5" y="441.5" class="st50" width="1.5" height="48.5"/>
		<rect id="Rectangle_3480" x="618.9" y="441.5" class="st50" width="1.5" height="48.5"/>
		<rect id="Rectangle_3481" x="578.1" y="450.6" class="st50" width="40.7" height="1.5"/>
		<rect id="Rectangle_3482" x="536.3" y="452.9" class="st50" width="20" height="1.5"/>
		<rect id="Rectangle_3483" x="536.3" y="454.4" class="st51" width="20" height="1.5"/>
		<rect id="Rectangle_3484" x="536.3" y="489.7" class="st51" width="20" height="1.5"/>
		<rect id="Rectangle_3485" x="536.3" y="455.8" class="st51" width="1.5" height="35.4"/>
		<rect id="Rectangle_3486" x="554.8" y="455.8" class="st51" width="1.5" height="35.4"/>
		<rect id="Rectangle_3487" x="620.3" y="472.6" class="st50" width="14.2" height="1.5"/>
		<rect id="Rectangle_3488" x="576.7" y="441.5" class="st50" width="1.5" height="48.5"/>
		<rect id="Rectangle_3489" x="556.3" y="445.8" class="st50" width="1.5" height="45.4"/>
		<rect id="Rectangle_3490" x="534.8" y="445.8" class="st50" width="1.5" height="45.4"/>
		<rect id="Rectangle_3491" x="628.5" y="389.9" class="st50" width="1.5" height="40.9"/>
		<rect id="Rectangle_3492" x="618.9" y="398.8" class="st50" width="1.5" height="32"/>
		<rect id="Rectangle_3493" x="580.9" y="391.4" class="st28" width="47.6" height="7.4"/>
		<rect id="Rectangle_3494" x="620.3" y="400.3" class="st28" width="8.2" height="29"/>
		<rect id="Rectangle_3495" x="630" y="391.4" class="st28" width="12" height="37.9"/>
		<rect id="Rectangle_3496" x="580.9" y="400.3" class="st28" width="38" height="29"/>
		<rect id="Rectangle_3497" x="560.7" y="441.5" class="st52" width="15.9" height="3.5"/>
		<rect id="Rectangle_3498" x="560.7" y="449.6" class="st52" width="15.9" height="3.5"/>
		<rect id="Rectangle_3499" x="560.7" y="457.7" class="st52" width="15.9" height="3.5"/>
		<rect id="Rectangle_3500" x="560.7" y="465.8" class="st52" width="15.9" height="3.5"/>
		<rect id="Rectangle_3501" x="560.7" y="473.8" class="st52" width="15.9" height="3.5"/>
		<rect id="Rectangle_3502" x="560.7" y="481.9" class="st52" width="15.9" height="3.5"/>
		<rect id="Rectangle_3503" x="636" y="441.5" class="st52" width="6.2" height="3.5"/>
		<rect id="Rectangle_3504" x="636" y="449.6" class="st52" width="6.2" height="3.5"/>
		<rect id="Rectangle_3505" x="636" y="457.7" class="st52" width="6.2" height="3.5"/>
		<rect id="Rectangle_3506" x="636" y="465.8" class="st52" width="6.2" height="3.5"/>
		<rect id="Rectangle_3507" x="636" y="473.8" class="st52" width="6.2" height="3.5"/>
		<rect id="Rectangle_3508" x="636" y="481.9" class="st52" width="6.2" height="3.5"/>
		<rect id="Rectangle_3509" x="566.1" y="389.9" class="st52" width="13.3" height="3.3"/>
		<rect id="Rectangle_3510" x="566.1" y="397.4" class="st52" width="13.3" height="3.3"/>
		<rect id="Rectangle_3511" x="566.1" y="404.9" class="st52" width="13.3" height="3.3"/>
		<rect id="Rectangle_3512" x="566.1" y="412.4" class="st52" width="13.3" height="3.3"/>
		<rect id="Rectangle_3513" x="566.1" y="419.9" class="st52" width="13.3" height="3.3"/>
		<rect id="Rectangle_3514" x="566.1" y="427.4" class="st52" width="13.3" height="3.3"/>
		<rect id="Rectangle_3515" x="536.3" y="445.8" class="st28" width="20" height="7.1"/>
		<path id="Path_10040" class="st29" d="M536.3,445.8v2.1h17.9v5h2v-7.1L536.3,445.8z"/>
		<rect id="Rectangle_3516" x="578.1" y="443" class="st28" width="40.7" height="7.6"/>
		<path id="Path_10041" class="st29" d="M578.1,443v2.6h38.3v5h2.4V443L578.1,443z"/>
		<rect id="Rectangle_3517" x="620.3" y="443" class="st28" width="14.2" height="29.6"/>
		<rect id="Rectangle_3518" x="620.3" y="474.1" class="st28" width="14.2" height="14.5"/>
		<rect id="Rectangle_3519" x="578.1" y="452.1" class="st28" width="40.7" height="36.5"/>
		<rect id="Rectangle_3520" x="537.8" y="455.8" class="st28" width="17" height="33.9"/>
		<path id="Path_10042" class="st29" d="M537.8,455.8v2.6h14.1v31.3h2.9v-33.9H537.8z"/>
		<path id="Path_10043" class="st29" d="M578.1,452.1v2.6h38.3v33.9h2.4v-36.5H578.1z"/>
		<path id="Path_10044" class="st29" d="M620.3,443v2.6h11.7v27h2.4V443H620.3z"/>
		<path id="Path_10045" class="st29" d="M620.3,474.1v2.6h11.7v11.9h2.4v-14.5H620.3z"/>
		<path id="Path_10046" class="st29" d="M630,391.4v2.6h9.6v35.3h2.4v-37.9H630z"/>
		<path id="Path_10047" class="st29" d="M580.9,391.4v2.6h45.2v4.8h2.4v-7.4L580.9,391.4z"/>
		<path id="Path_10048" class="st29" d="M620.3,400.3v2.6h5.7v26.4h2.4v-29L620.3,400.3z"/>
		<path id="Path_10049" class="st29" d="M580.9,400.3v2.6h35.5v26.4h2.4v-29L580.9,400.3z"/>
		<rect id="Rectangle_3521" x="580.9" y="398.8" class="st50" width="47.6" height="1.5"/>
		<rect id="Rectangle_3522" x="560.7" y="441.5" class="st22" width="81.6" height="14.8"/>
		<rect id="Rectangle_3523" x="566.1" y="389.9" class="st22" width="77.4" height="11.6"/>
		<rect id="Rectangle_3524" x="534.8" y="388.4" class="st22" width="25.9" height="62.2"/>
		<rect id="Rectangle_3525" x="534.8" y="382.1" class="st48" width="25.9" height="2.1"/>
		<rect id="Rectangle_3526" x="534.8" y="386.3" class="st48" width="25.9" height="2.1"/>
		<rect id="Rectangle_3527" x="534.8" y="390.5" class="st48" width="25.9" height="2.1"/>
		<rect id="Rectangle_3528" x="534.8" y="394.7" class="st48" width="25.9" height="2.1"/>
		<rect id="Rectangle_3529" x="534.8" y="399" class="st48" width="25.9" height="2.1"/>
		<rect id="Rectangle_3530" x="534.8" y="403.2" class="st48" width="25.9" height="2.1"/>
		<rect id="Rectangle_3531" x="534.8" y="407.4" class="st48" width="25.9" height="2.1"/>
		<rect id="Rectangle_3532" x="534.8" y="411.6" class="st48" width="25.9" height="2.1"/>
		<rect id="Rectangle_3533" x="534.8" y="415.9" class="st48" width="25.9" height="2.1"/>
		<rect id="Rectangle_3534" x="534.8" y="420.1" class="st48" width="25.9" height="2.1"/>
		<rect id="Rectangle_3535" x="534.8" y="424.3" class="st48" width="25.9" height="2.1"/>
		<rect id="Rectangle_3536" x="534.8" y="428.5" class="st48" width="25.9" height="2.1"/>
		<rect id="Rectangle_3537" x="534.8" y="432.8" class="st48" width="25.9" height="2.1"/>
		<rect id="Rectangle_3538" x="534.8" y="437" class="st48" width="25.9" height="2.1"/>
		<rect id="Rectangle_3539" x="534.8" y="441.2" class="st48" width="25.9" height="2.1"/>
		<rect id="Rectangle_3540" x="528.7" y="508.9" class="st22" width="137.4" height="1.6"/>
	</g>
	<g id="Group_4447" transform="translate(1476.423 292.841)">
		<rect id="Rectangle_3541" x="418.2" y="420" class="st53" width="69.1" height="53.5"/>
		<path id="Path_10050" class="st54" d="M487.3,386l-70.4,32h70.4V386z"/>
		<path id="Path_10051" class="st55" d="M524.4,327.2l38.6-22.3l44.6,26.2v1.8h-74L524.4,327.2z"/>
		<rect id="Rectangle_3542" x="522.4" y="335.9" class="st56" width="84.3" height="59.9"/>
		<rect id="Rectangle_3543" x="487.3" y="415.9" class="st56" width="119.5" height="57.7"/>
		<rect id="Rectangle_3544" x="486.3" y="412.8" class="st57" width="121.4" height="3.1"/>
		<rect id="Rectangle_3545" x="484.4" y="409.7" class="st58" width="125.2" height="3.1"/>
		<rect id="Rectangle_3546" x="486.8" y="346.3" class="st57" width="60.2" height="3.1"/>
		<rect id="Rectangle_3547" x="485" y="343.2" class="st58" width="64" height="3.1"/>
		<rect id="Rectangle_3548" x="525.1" y="333.6" class="st57" width="81.6" height="2.3"/>
		<rect id="Rectangle_3549" x="523.2" y="331.3" class="st58" width="84.7" height="2.3"/>
		<path id="Path_10052" class="st59" d="M609.6,409.7H484.4l2.9-13.8h119.5L609.6,409.7z"/>
		<rect id="Rectangle_3550" x="485.6" y="462" class="st60" width="17.5" height="11.5"/>
		<rect id="Rectangle_3551" x="485.6" y="470.9" class="st60" width="122.9" height="2.7"/>
		<rect id="Rectangle_3552" x="591" y="462" class="st60" width="17.5" height="11.5"/>
		<rect id="Rectangle_3553" x="538.3" y="462" class="st60" width="17.5" height="11.5"/>
		<rect id="Rectangle_3554" x="486.8" y="349.4" class="st53" width="60.2" height="48.8"/>
		<path id="Path_10053" class="st61" d="M517.2,322l-35.8,20.2v3.3h0.3l35.5-20l35.4,20v-3.4L517.2,322z"/>
		<path id="Path_10054" class="st55" d="M517.2,325.4l-31.5,17.8h62.9L517.2,325.4z"/>
		<path id="Path_10055" class="st22" d="M517.2,326.8l28.9,16.3h2.5l-31.5-17.8l-31.5,17.8h2.5L517.2,326.8z"/>
		<path id="Path_10056" class="st62" d="M563.2,302.9l-39.9,22.5l4,2.3l35.9-20.2l46.4,26.2v-4.5L563.2,302.9z"/>
		<g id="Group_4436" transform="translate(221.561 179.953)">
			<rect id="Rectangle_3555" x="279.9" y="246.2" class="st28" width="31.1" height="31.6"/>
			<path id="Path_10057" class="st63" d="M280.2,246.2H311v4.4h-0.2v27.1h-5.1v-27.1h-25.6V246.2z"/>
			<path id="Path_10058" class="st34" d="M279.7,245.9V278H311v-32.1H279.7z M309.5,259.5v5.3h-5.9v-5.3H309.5z M303.5,257.4v-4.2
				h5.9v4.2H303.5z M288.5,257.4v-4.2h5.8v4.2H288.5z M294.3,259.5v5.3h-5.8v-5.3H294.3z M297,257.4v-4.2h5.8v4.2H297z M302.8,259.5
				v5.3H297v-5.3H302.8z M297,252.5v-5.1h5.8v5.1H297z M302.8,265.5v10.9H297v-10.9H302.8z M294.3,276.4h-5.8v-10.9h5.8V276.4z
				 M288.5,252.5v-5.1h5.8v5.1H288.5z M309.5,247.4v5.1h-5.9v-5.1H309.5z M309.5,276.4h-5.9v-10.9h5.9V276.4z M281.3,276.4v-10.9
				h6.4v10.9H281.3z M281.3,259.5h6.4v5.3h-6.4V259.5z M281.3,257.4v-4.2h6.4v4.2H281.3z M281.3,247.4h6.4v5.1h-6.4V247.4z"/>
		</g>
		<rect id="Rectangle_3556" x="416.9" y="418" class="st58" width="70.4" height="2"/>
		<g id="Group_4439" transform="translate(186.077 181.275)">
			<rect id="Rectangle_3557" x="238.4" y="247.5" class="st58" width="56.4" height="44.8"/>
			<path id="Path_10059" class="st57" d="M240.8,258.6v33.6h51.5v-33.6H240.8z M291.5,268.8l-49.8-0.1v-4.5l49.8,0.1V268.8z
				 M291.5,269.5v4.5l-49.8-0.1v-4.5L291.5,269.5z M291.5,274.7v4.5l-49.8-0.1v-4.5L291.5,274.7z M291.5,279.9v4.5l-49.8-0.1v-4.5
				L291.5,279.9z M241.6,285l49.8,0.1v4.5l-49.8-0.1V285z M291.5,259.4v4.2l-49.8-0.1v-4H291.5z M241.6,291.5v-1.3l49.8,0.1v1.1
				L241.6,291.5z"/>
			<g id="Group_4437" transform="translate(1.101 1.164)">
				<rect id="Rectangle_3558" x="240.1" y="249" class="st28" width="23" height="6.1"/>
				<path id="Path_10060" class="st57" d="M239.7,248.8v6.5h23.6v-6.5H239.7z M244.9,254.5h-4.2v-4.8h4.2V254.5z M251.1,254.5h-5
					v-4.8h5V254.5z M256.9,254.5h-4.6v-4.8h4.6L256.9,254.5z M262.4,254.5h-4.2v-4.8h4.2L262.4,254.5z"/>
			</g>
			<g id="Group_4438" transform="translate(13.959 1.164)">
				<rect id="Rectangle_3559" x="255.1" y="249" class="st28" width="23" height="6.1"/>
				<path id="Path_10061" class="st57" d="M254.7,248.8v6.5h23.6v-6.5H254.7z M259.9,254.5h-4.2v-4.8h4.2L259.9,254.5z M266.1,254.5
					h-5v-4.8h5V254.5z M271.9,254.5h-4.6v-4.8h4.6L271.9,254.5z M277.4,254.5h-4.2v-4.8h4.2V254.5z"/>
			</g>
		</g>
		<g id="Group_4440" transform="translate(226.803 136.028)">
			<path id="Path_10062" class="st28" d="M290.9,194.7c2,0.3,3.7,1.9,3.9,3.9h-2.9c-0.2-0.5-0.5-0.8-1-1L290.9,194.7z"/>
			<path id="Path_10063" class="st28" d="M288.8,198.7c0.2-0.5,0.5-0.8,1-1v-2.9c-2,0.3-3.7,1.9-3.9,3.9H288.8z"/>
			<path id="Path_10064" class="st28" d="M289.8,200.8c-0.5-0.2-0.8-0.5-1-1h-2.9c0.3,2,1.9,3.7,3.9,3.9V200.8z"/>
			<path id="Path_10065" class="st28" d="M291.9,199.8c-0.2,0.5-0.5,0.8-1,1v2.9c2-0.3,3.7-1.9,3.9-3.9L291.9,199.8z"/>
		</g>
		<g id="Group_4441" transform="translate(248.042 129.184)">
			<path id="Path_10066" class="st28" d="M315.7,186.8c2,0.3,3.7,1.9,3.9,3.9h-2.9c-0.2-0.5-0.5-0.8-1-1L315.7,186.8z"/>
			<path id="Path_10067" class="st28" d="M313.5,190.7c0.2-0.5,0.5-0.8,1-1v-2.9c-2,0.3-3.7,1.9-3.9,3.9L313.5,190.7z"/>
			<path id="Path_10068" class="st28" d="M314.5,192.9c-0.5-0.2-0.8-0.5-1-1h-2.9c0.3,2,1.9,3.7,3.9,3.9L314.5,192.9z"/>
			<path id="Path_10069" class="st28" d="M316.7,191.9c-0.2,0.5-0.5,0.8-1,1v2.9c2-0.3,3.7-1.9,3.9-3.9H316.7z"/>
		</g>
		<g id="Group_4442" transform="translate(250.615 182.536)">
			<rect id="Rectangle_3560" x="313.6" y="248.9" class="st58" width="18.9" height="39.4"/>
			<rect id="Rectangle_3561" x="315.5" y="251.5" class="st57" width="6.6" height="15.6"/>
			<rect id="Rectangle_3562" x="323.8" y="251.5" class="st57" width="6.6" height="15.6"/>
			<rect id="Rectangle_3563" x="315.5" y="274.7" class="st57" width="6.6" height="12.3"/>
			<rect id="Rectangle_3564" x="323.8" y="274.7" class="st57" width="6.6" height="12.3"/>
			<rect id="Rectangle_3565" x="315.7" y="269.6" class="st57" width="14.7" height="3"/>
		</g>
		<rect id="Rectangle_3566" x="554.5" y="425.9" class="st34" width="37.4" height="1.5"/>
		<rect id="Rectangle_3567" x="554.5" y="430" class="st34" width="37.4" height="1.5"/>
		<rect id="Rectangle_3568" x="554.5" y="425.9" class="st34" width="1.5" height="45"/>
		<rect id="Rectangle_3569" x="590.8" y="425.9" class="st34" width="1.5" height="45"/>
		<rect id="Rectangle_3570" x="583.1" y="425.9" class="st34" width="1.5" height="45"/>
		<rect id="Rectangle_3571" x="562.7" y="425.9" class="st34" width="1.5" height="45"/>
		<rect id="Rectangle_3572" x="555.9" y="427.3" class="st28" width="6.8" height="2.6"/>
		<rect id="Rectangle_3573" x="555.9" y="431.5" class="st28" width="6.8" height="39.4"/>
		<rect id="Rectangle_3574" x="560.2" y="431.5" class="st63" width="2.5" height="39.4"/>
		<rect id="Rectangle_3575" x="584.5" y="427.3" class="st28" width="6.2" height="2.6"/>
		<rect id="Rectangle_3576" x="584.5" y="431.5" class="st28" width="6.2" height="39.4"/>
		<rect id="Rectangle_3577" x="564.2" y="427.3" class="st28" width="18.9" height="2.6"/>
		<rect id="Rectangle_3578" x="588.3" y="431.5" class="st63" width="2.5" height="39.4"/>
		<rect id="Rectangle_3579" x="555.3" y="351.2" class="st28" width="43.3" height="24.9"/>
		<path id="Path_10070" class="st64" d="M555.3,351.2v5.4h37.6v19.6h5.7v-24.9L555.3,351.2z"/>
		<path id="Path_10071" class="st34" d="M598.6,349.5h-45v28.3h46.7v-28.3H598.6z M598.6,376.1h-43.3v-24.9h43.3V376.1z"/>
		<rect id="Rectangle_3580" x="568.1" y="350.8" class="st34" width="1.7" height="25.8"/>
		<rect id="Rectangle_3581" x="583.4" y="350.8" class="st34" width="1.7" height="25.8"/>
		<rect id="Rectangle_3582" x="487.3" y="415.9" class="st22" width="119.5" height="14.1"/>
		<g id="Group_4445" transform="translate(215.612 175.337)">
			<rect id="Rectangle_3583" x="275.2" y="240.5" class="st58" width="7" height="46.2"/>
			<rect id="Rectangle_3584" x="272.8" y="285.7" class="st58" width="11.7" height="1.1"/>
			<rect id="Rectangle_3585" x="273.9" y="284.6" class="st57" width="9.5" height="1"/>
			<rect id="Rectangle_3586" x="272.8" y="240.5" class="st58" width="11.7" height="1"/>
			<rect id="Rectangle_3587" x="273.9" y="241.6" class="st57" width="9.5" height="1.1"/>
			<g id="Group_4443" transform="translate(24.342)">
				<rect id="Rectangle_3588" x="303.5" y="240.5" class="st58" width="7" height="46.2"/>
				<rect id="Rectangle_3589" x="301.2" y="285.7" class="st58" width="11.7" height="1.1"/>
				<rect id="Rectangle_3590" x="302.3" y="284.6" class="st57" width="9.5" height="1"/>
				<rect id="Rectangle_3591" x="301.2" y="240.5" class="st58" width="11.7" height="1"/>
				<rect id="Rectangle_3592" x="302.3" y="241.6" class="st57" width="9.5" height="1.1"/>
			</g>
			<g id="Group_4444" transform="translate(48.717)">
				<rect id="Rectangle_3593" x="331.9" y="240.5" class="st58" width="7" height="46.2"/>
				<rect id="Rectangle_3594" x="329.6" y="285.7" class="st58" width="11.7" height="1.1"/>
				<rect id="Rectangle_3595" x="330.7" y="284.6" class="st57" width="9.5" height="1"/>
				<rect id="Rectangle_3596" x="329.6" y="240.5" class="st58" width="11.7" height="1"/>
				<rect id="Rectangle_3597" x="330.7" y="241.6" class="st57" width="9.5" height="1.1"/>
			</g>
		</g>
		<path id="Path_10072" class="st22" d="M527.3,327.7l35.9-20.2l44.8,25.3v0.9h-1.3l-43.5-24.2l-34.5,19L527.3,327.7z"/>
		<g id="Group_4446" transform="translate(221.561 148.232)">
			<rect id="Rectangle_3598" x="279.9" y="209.3" class="st28" width="31.1" height="31.6"/>
			<path id="Path_10073" class="st64" d="M280.2,209.3H311v4.4h-0.2v27.1h-5.1v-27.1h-25.6V209.3z"/>
			<path id="Path_10074" class="st34" d="M279.7,209V241H311V209H279.7z M309.5,222.5v5.3h-5.9v-5.3L309.5,222.5z M303.5,220.4v-4.2
				h5.9v4.2L303.5,220.4z M288.5,220.4v-4.2h5.8v4.2L288.5,220.4z M294.3,222.5v5.3h-5.8v-5.3L294.3,222.5z M297,220.4v-4.2h5.8v4.2
				L297,220.4z M302.8,222.5v5.3H297v-5.3L302.8,222.5z M297,215.5v-5.1h5.8v5.1H297z M302.8,228.5v10.9H297v-10.9H302.8z
				 M294.3,239.4h-5.8v-10.9h5.8V239.4z M288.5,215.5v-5.1h5.8v5.1H288.5z M309.5,210.4v5.1h-5.9v-5.1H309.5z M309.5,239.4h-5.9
				v-10.9h5.9V239.4z M281.3,239.4v-10.9h6.4v10.9H281.3z M281.3,222.5h6.4v5.3h-6.4V222.5z M281.3,220.4v-4.2h6.4v4.2L281.3,220.4z
				 M281.3,210.4h6.4v5.1h-6.4V210.4z"/>
		</g>
		<rect id="Rectangle_3599" x="486.8" y="394.9" class="st55" width="60.2" height="3.2"/>
		<rect id="Rectangle_3600" x="547.1" y="392.6" class="st57" width="59.7" height="3.2"/>
	</g>
	<g id="Group_4451" transform="translate(1622.689 424.512)">
		<g id="Group_1421_1_" transform="translate(16.204 21.83)">
			<path id="Path_3200_1_" class="st9" d="M219.2,323.1h-8.2l2.3-103.6l4.1-4.5L219.2,323.1z"/>
			<path id="Path_3201_1_" class="st65" d="M215.9,215.1l-2.7,3.7l-1.9,86.7l0,0c2.8-0.1,5.2,2.1,5.3,4.9c0,0.2,0,0.3,0,0.5v12.3
				h2.8v-17.6l-1.8-90.4L215.9,215.1z"/>
		</g>
		<path id="Path_3202_1_" class="st4" d="M227.1,236.5l-15.2,13.3l5.5,2l-16.4,6.1l-5.2,8.6l15-0.2l-18.7,11v10.1l26-8.1l11.4-14
			L271,274v-10.8l-15.9-6.8l8.6-0.7l-4.2-5.9l-23.9-6.6h7.6l-13.7-21.4L227.1,236.5z"/>
		<path id="Path_3203_1_" class="st12" d="M229.5,265.4L271,274v-10.8l-15.9-6.8l8.6-0.7l-4.2-5.9l-23.9-6.6h7.6l-12.8-20l4.1,15.9
			l-4.9,2.6l19.2,15.5l-20.7,2l-16.2,13.9l-19.3,3.8l-0.6,0.4v10.1l26-8.1L229.5,265.4z"/>
		<path id="Path_3204_1_" class="st4" d="M227.1,204.4l-15.2,13.3l5.5,2l-16.4,6.1l-5.2,8.6l15-0.2l-18.7,11v10.1l26-8.1l11.4-14
			l41.5,8.7v-10.8l-15.9-6.8l8.6-0.7l-4.2-5.9l-23.9-6.6h7.6l-13.7-21.4L227.1,204.4z"/>
		<path id="Path_3205_1_" class="st12" d="M229.5,233.3l41.5,8.7v-10.8l-15.9-6.8l8.6-0.7l-4.2-5.9l-23.9-6.6h7.6l-12.8-20l4.1,15.9
			l-4.9,2.6l19.2,15.5l-20.7,2L211.9,241l-19.3,3.8l-0.6,0.4v10.1l26-8.1L229.5,233.3z"/>
	</g>
	<g id="Group_4452" transform="translate(1746.838 431.032)">
		<rect id="Rectangle_1594_1_" x="362.7" y="312.4" class="st9" width="8.7" height="25.9"/>
		<path id="Path_3376_1_" class="st10" d="M362.7,312.4v7.3c3.1-0.2,5.8,2.2,6,5.4c0,0.1,0,0.2,0,0.2v13h3v-25.9H362.7z"/>
		<path id="Path_3377_1_" class="st4" d="M367.4,197.3l-17.6,54.7l17.6-8.7l17.6,8.7L367.4,197.3z"/>
		<path id="Path_3378_1_" class="st4" d="M367.4,214.4l-22.6,70.3l22.6-11.1l22.6,11.1L367.4,214.4z"/>
		<path id="Path_3379_1_" class="st4" d="M367.4,232.7l-30.7,95.5l30.7-15.2l30.7,15.2L367.4,232.7z"/>
		<path id="Path_3380_1_" class="st11" d="M367.4,197.3l17.6,54.7l-13.6-6.7L367.4,197.3z"/>
		<path id="Path_3381_1_" class="st11" d="M372.4,229.8l17.6,54.7l-13.6-6.7L372.4,229.8z"/>
		<path id="Path_3382_1_" class="st11" d="M380.6,273.6l17.6,54.7l-13.6-6.7L380.6,273.6z"/>
		<path id="Path_3383_1_" class="st12" d="M378.4,248.7l-11-5.4l-11,5.4l-4.3,13.4l14.8-12.3l15.8,11.9L378.4,248.7z"/>
		<path id="Path_3384_1_" class="st12" d="M383,281.1l-15.6-7.7l-15.6,7.7l-6.1,18.9l20.9-17.3l22.3,16.8L383,281.1z"/>
	</g>
</g>
</svg>
