<?xml version="1.0" encoding="utf-8"?>
<!-- Generator: Adobe Illustrator 23.0.1, SVG Export Plug-In . SVG Version: 6.00 Build 0)  -->
<svg version="1.1" id="Слой_1" xmlns="http://www.w3.org/2000/svg" xmlns:xlink="http://www.w3.org/1999/xlink" x="0px" y="0px"
	 viewBox="0 0 800 450" style="enable-background:new 0 0 800 450;" xml:space="preserve">
<style type="text/css">
	.st0{fill:#D0EDF5;}
	.st1{fill:#776A68;}
	.st2{fill:#7F7675;}
	.st3{fill:#59C65F;}
	.st4{fill:#3AAD47;}
	.st5{fill:#A0CA4F;}
	.st6{fill:#4DB6AC;}
	.st7{fill:#DCE775;}
	.st8{fill:#B9DC39;}
	.st9{fill:#D4E157;}
	.st10{fill:#A7CC42;}
	.st11{fill:#8BAF3C;}
	.st12{fill:#776F6E;}
	.st13{fill:#D6CFC5;}
	.st14{opacity:0.12;enable-background:new    ;}
	.st15{fill:#FFF8E1;}
	.st16{fill:#5E5A58;}
	.st17{fill:#847E7B;}
	.st18{fill:#AFAFAF;}
	.st19{fill:#8E8886;}
	.st20{fill:#B2B2B2;}
	.st21{fill:#514D4C;}
	.st22{fill:#35ACB8;}
	.st23{fill:#C4C2C2;}
	.st24{fill:#338189;}
	.st25{fill:#448D99;}
	.st26{fill:#9FD609;}
	.st27{fill:#636363;}
	.st28{fill:#84807E;}
	.st29{fill:#878787;}
	.st30{fill:#727171;}
	.st31{fill:#A5A5A5;}
	.st32{fill:#CCCACA;}
	.st33{fill:#D8D8D8;}
	.st34{fill:#C1C1C1;}
	.st35{fill:#706461;}
	.st36{fill:#87807E;}
	.st37{fill:#7AB200;}
	.st38{fill:#A8D617;}
	.st39{fill:#97BA04;}
	.st40{fill:#D3D6B6;}
	.st41{fill:#CCCCCC;}
	.st42{fill:#BFBFBF;}
	.st43{fill:#A5A4A4;}
	.st44{fill:#F5F5F5;}
	.st45{fill:#58C1C6;}
	.st46{fill-rule:evenodd;clip-rule:evenodd;fill:#C6C6C6;}
	.st47{fill-rule:evenodd;clip-rule:evenodd;fill:#7AC6E5;}
	.st48{fill:#86CFEF;}
	.st49{fill-rule:evenodd;clip-rule:evenodd;fill:#A2DAF9;}
	.st50{fill-rule:evenodd;clip-rule:evenodd;fill:#86CFEF;}
	.st51{fill-rule:evenodd;clip-rule:evenodd;fill:#EDEDED;}
	.st52{fill-rule:evenodd;clip-rule:evenodd;fill:#F9F9F9;}
	.st53{fill-rule:evenodd;clip-rule:evenodd;fill:#DDDCDB;}
</style>
<rect class="st0" width="800" height="450"/>
<g id="Group_4969" transform="translate(-1463 -416.725)">
	<g id="Group_2778" transform="translate(1463 190.402)">
		<g id="Group_1699" transform="translate(25.815 313.261)">
			<path id="Path_3623" class="st1" d="M47.4,174.2h-3.4v21.4l3.4,1.3V174.2z"/>
			<path id="Path_3624" class="st2" d="M50.7,174.2h-3.4v22.7l3.4-1.3V174.2z"/>
			<path id="Path_3625" class="st3" d="M46.7,102.9L30,179.7l17.4,5.6l15.9-5.6L46.7,102.9z"/>
			<path id="Path_3626" class="st4" d="M46.7,102.9L30,179.7l17.4,5.6L46.7,102.9z"/>
		</g>
		<path id="Path_3647" class="st5" d="M648.5,414.3c-100.7-37.7-211.6-37.7-312.2,0H648.5z"/>
		<rect id="Rectangle_1801" y="411.9" class="st6" width="800" height="42.8"/>
		<rect id="Rectangle_1802" y="458.5" class="st7" width="800" height="152.8"/>
		<path id="Path_3648" class="st5" d="M0,422.8h182.2c-19.6-22.7-94.7-38.4-133.9-38.4c-13.9,0-36.1,2.6-48.3,6L0,422.8z"/>
		<path id="Path_3649" class="st8" d="M485.4,411.3c-47.9,0.1-95.6-6.4-141.8-19.2c-29.9-8.7-60.9-13.3-92.1-13.6
			c-32.4,0.3-64.7,5.3-95.7,14.6c-41.2,12-83.8,18.3-126.6,18.8l-28.3,0.2L0,440.5h602.2v-29.2H485.4z"/>
		<path id="Path_3650" class="st9" d="M800,408c-29.4-6.1-59.4-9.2-89.4-9.1c-42.1-0.1-84,6-124.4,18.1
			c-67.8,20.8-138.3,31.4-209.1,31.6h-31v23.3H800V408z"/>
		<path id="Path_3651" class="st7" d="M559.9,456.3c-70.9-0.1-141.6-7.8-210.8-23.2c-41.2-9-83.2-13.4-125.4-13.3
			c-42.1-0.1-84.2,4.3-125.4,13.3C65.9,440.2,33,445.8,0,449.7v23.8h799.8v-17.2L559.9,456.3z"/>
		<g id="Group_1706" transform="translate(298.729 296.13)">
			<path id="Path_3652" class="st10" d="M358.6,83l-11.4,52.5l11.9,3.9l10.9-3.9L358.6,83z"/>
			<path id="Path_3653" class="st11" d="M358.6,83l-11.4,52.5l11.9,3.9L358.6,83z"/>
		</g>
		<g id="Group_1707" transform="translate(21.141 294.01)">
			<path id="Path_3654" class="st10" d="M33.7,80.5l-9.1,42.2l9.6,3.1l8.7-3.1L33.7,80.5z"/>
			<path id="Path_3655" class="st11" d="M33.7,80.5l-9.1,42.2l9.6,3.1L33.7,80.5z"/>
		</g>
		<g id="Group_1708" transform="translate(315.174 301.263)">
			<path id="Path_3656" class="st10" d="M373.2,88.9l-6.9,23.3l7.2,1.7l6.6-1.7L373.2,88.9z"/>
			<path id="Path_3657" class="st11" d="M373.2,88.9l-6.9,23.3l7.2,1.7L373.2,88.9z"/>
		</g>
		<g id="Group_1709" transform="translate(45.494 294.016)">
			<path id="Path_3658" class="st10" d="M59.8,80.5l-6.9,23.3l7.2,1.7l6.6-1.7L59.8,80.5z"/>
			<path id="Path_3659" class="st11" d="M59.8,80.5l-6.9,23.3l7.2,1.7L59.8,80.5z"/>
		</g>
		<g id="Group_1710" transform="translate(271.115 296.638)">
			<path id="Path_3660" class="st10" d="M322,83.6l-6.9,23.3l7.2,1.7l6.6-1.7L322,83.6z"/>
			<path id="Path_3661" class="st11" d="M322,83.6l-6.9,23.3l7.2,1.7L322,83.6z"/>
		</g>
		<g id="Group_1711" transform="translate(231.159 295.61)">
			<path id="Path_3662" class="st10" d="M275.6,82.4l-6.9,23.3l7.2,1.7l6.6-1.7L275.6,82.4z"/>
			<path id="Path_3663" class="st11" d="M275.6,82.4l-6.9,23.3l7.2,1.7L275.6,82.4z"/>
		</g>
		<g id="Group_1712" transform="translate(240.484 292.527)">
			<path id="Path_3664" class="st10" d="M286.4,78.8l-6.9,23.3l7.2,1.7l6.6-1.7L286.4,78.8z"/>
			<path id="Path_3665" class="st11" d="M286.4,78.8l-6.9,23.3l7.2,1.7L286.4,78.8z"/>
		</g>
		<g id="Group_1720" transform="translate(61.284 339.482)">
			<g id="Group_1714" transform="translate(0.249 1.425)">
				<path id="Path_3666" class="st12" d="M153.3,135H95.5l-24,28.1h57.8L153.3,135z"/>
				<path id="Path_3667" class="st13" d="M152.3,163.1v6.6h-16.4v37.4h-60v-44H152.3z"/>
				<rect id="Rectangle_1803" x="75.8" y="164.8" class="st14" width="55.7" height="1.6"/>
				<path id="Path_3668" class="st15" d="M153.3,135l-23.9,28.1l0.3,1.4v42.6H174v-42.4L153.3,135z"/>
				<path id="Path_3669" class="st16" d="M130.9,164.8H73.1l-1.6-1.6h57.8L130.9,164.8z"/>
				<path id="Path_3670" class="st17" d="M153.2,138.3l-22.3,26.5l-1.6-1.6l24-28.1l24.1,28.3l-1.5,1.4L153.2,138.3z"/>
				<path id="Path_3671" class="st16" d="M153.2,138.3l-1.1,1.4l21.9,25.1h1.9L153.2,138.3z"/>
				<path id="Path_3672" class="st14" d="M129.7,166.4h2.7l19.8-23.5l19.2,21.9h2.6l-21.9-25.1l-21.2,25.1h-1.2L129.7,166.4z"/>
				<g id="Group_1713" transform="translate(9.653 17.629)">
					<rect id="Rectangle_1804" x="83.3" y="157.5" class="st15" width="6.8" height="32.1"/>
					<path id="Path_3673" class="st17" d="M88.8,158.2h14.3l0.1,31.3H88.9L88.8,158.2z"/>
					<path id="Path_3674" class="st13" d="M88.1,157.9h15.3v31.7h-1.6v-30.1H90.1v30.1h-2L88.1,157.9z"/>
					<rect id="Rectangle_1805" x="90" y="159.5" class="st12" width="2.1" height="30.1"/>
					<path id="Path_3675" class="st18" d="M103.4,155.5H82.8l0,34.1h2.4v-31.7h18.2V155.5z"/>
					<rect id="Rectangle_1806" x="100.4" y="155.5" class="st15" width="3" height="2.5"/>
				</g>
				<path id="Path_3676" class="st14" d="M94.8,175.6l4.9,4.9h1.9l9.7,9.7v-13l1.6-1.6L94.8,175.6z"/>
			</g>
			<rect id="Rectangle_1807" x="114" y="208.5" class="st19" width="65.2" height="2.6"/>
			<rect id="Rectangle_1808" x="71.2" y="208.5" class="st12" width="65.8" height="2.6"/>
			<g id="Group_1716" transform="translate(11.152 0)">
				<path id="Path_3677" class="st20" d="M102.5,155.8l8.4-9.9h-8.4V155.8z"/>
				<g id="Group_1715">
					<path id="Path_3678" class="st21" d="M94.1,136.6l3.3,1.4l-7.2,8.2h-4.6L94.1,136.6z"/>
					<path id="Path_3679" class="st16" d="M94.1,133.4h12.8l9.6,11.2h-12.3L94.1,133.4z"/>
					<path id="Path_3680" class="st21" d="M102.5,146.2h12.3l1.6-1.6h-12.3L102.5,146.2z"/>
					<path id="Path_3681" class="st17" d="M94.1,136.6l8.4,9.5l1.6-1.6l-10.1-11.2l-9.9,11.4l1.5,1.4L94.1,136.6z"/>
				</g>
				<path id="Path_3682" class="st13" d="M88.6,155.8h13.9v-9.7l-7.3-8.3l-6.6,7.4V155.8z"/>
			</g>
			<g id="Group_1718" transform="translate(33.308 15.825)">
				<rect id="Rectangle_1809" x="109.9" y="153" class="st22" width="18.8" height="29.4"/>
				<g id="Group_1717">
					<path id="Path_3683" class="st23" d="M130.1,151.7l-1.5,1.5h-18.7v-1.5H130.1z"/>
					<path id="Path_3684" class="st13" d="M128.6,153.2v29.3l1.5,0v-30.7L128.6,153.2z"/>
				</g>
				<rect id="Rectangle_1810" x="114.7" y="153.3" class="st24" width="0.8" height="29.2"/>
				<rect id="Rectangle_1811" x="121.9" y="153.3" class="st24" width="0.8" height="29.2"/>
				<rect id="Rectangle_1812" x="127" y="153.3" class="st24" width="1.6" height="29.2"/>
				<rect id="Rectangle_1813" x="110.1" y="162.9" class="st24" width="18.5" height="0.8"/>
				<rect id="Rectangle_1814" x="109.9" y="153.2" class="st24" width="18.6" height="1.6"/>
				<rect id="Rectangle_1815" x="110.1" y="172.3" class="st24" width="18.5" height="0.8"/>
			</g>
			<g id="Group_1719" transform="translate(14.256 5.267)">
				<rect id="Rectangle_1816" x="87.8" y="139.5" class="st22" width="8.3" height="8.5"/>
				<rect id="Rectangle_1817" x="87.8" y="139.5" class="st20" width="1.7" height="8.6"/>
				<rect id="Rectangle_1818" x="89.6" y="139.5" class="st25" width="1.6" height="8.5"/>
				<rect id="Rectangle_1819" x="89.5" y="139.5" class="st25" width="6.6" height="1.6"/>
			</g>
		</g>
		<path id="Path_3685" class="st26" d="M148.6,547.7c-1.9-9-10.7-14.7-19.7-12.8c-6.4,1.4-11.4,6.4-12.8,12.8H148.6z"/>
		<path id="Path_3686" class="st26" d="M709.1,551.6c-1.9-9-10.7-14.7-19.7-12.8c-6.4,1.4-11.4,6.4-12.8,12.8H709.1z"/>
		<g id="Group_1724" transform="translate(269.267 338.347)">
			<path id="Path_3688" class="st12" d="M382.3,138.3h-45.7L313,166.1h45.6L382.3,138.3z"/>
			<path id="Path_3689" class="st13" d="M381.3,166.1v6.5h-16.2V207h-47.9v-40.9H381.3z"/>
			<rect id="Rectangle_1820" x="317.2" y="167.7" class="st14" width="43.7" height="1.6"/>
			<g id="Group_1721" transform="translate(5.128 21.424)">
				<rect id="Rectangle_1821" x="318.9" y="157" class="st22" width="9.4" height="14.5"/>
				<rect id="Rectangle_1822" x="318.9" y="156.9" class="st20" width="1.7" height="14.5"/>
				<rect id="Rectangle_1823" x="320.6" y="157" class="st25" width="1.6" height="14.5"/>
				<rect id="Rectangle_1824" x="320.6" y="157" class="st25" width="7.8" height="1.6"/>
			</g>
			<g id="Group_1722" transform="translate(13.081 21.424)">
				<rect id="Rectangle_1825" x="328.1" y="157" class="st22" width="9.4" height="14.5"/>
				<rect id="Rectangle_1826" x="328.1" y="156.9" class="st20" width="1.7" height="14.5"/>
				<rect id="Rectangle_1827" x="329.9" y="157" class="st25" width="1.6" height="14.5"/>
				<rect id="Rectangle_1828" x="329.8" y="157" class="st25" width="7.8" height="1.6"/>
			</g>
			<path id="Path_3690" class="st15" d="M382.3,138.3l-23.6,27.7l0.3,1.4V207h43.7v-39.3L382.3,138.3z"/>
			<rect id="Rectangle_1829" x="345.3" y="132" class="st27" width="6.1" height="20.5"/>
			<path id="Path_3691" class="st28" d="M356.6,145.9v-13.9l-5.4-0.1v20.5h0.1L356.6,145.9z"/>
			<path id="Path_3692" class="st27" d="M360.2,167.7h-45.7l-1.6-1.6h45.7L360.2,167.7z"/>
			<path id="Path_3693" class="st28" d="M382.2,141.6l-22,26.1l-1.6-1.6l23.7-27.8l23.8,27.9l-1.4,1.4L382.2,141.6z"/>
			<path id="Path_3694" class="st29" d="M382.2,141.6l-1.1,1.3l21.6,24.8h1.9L382.2,141.6z"/>
			<path id="Path_3695" class="st14" d="M359,169.3h2.7l19.5-23.2l19,21.6h2.5l-21.6-24.8l-20.9,24.8H359L359,169.3z"/>
			<path id="Path_3696" class="st30" d="M388.1,178.6H374l-0.1,28.4H388L388.1,178.6z"/>
			<path id="Path_3697" class="st31" d="M386.8,179.9l-1.9,1.9H375v-1.9H386.8z"/>
			<path id="Path_3698" class="st32" d="M384.9,181.8V207h1.9v-27.1L384.9,181.8z"/>
			<path id="Path_3699" class="st33" d="M388.4,178.3L388.4,178.3l-14.7,0V207h1.6v-27.2h11.5V207h1.6L388.4,178.3L388.4,178.3z"/>
			<rect id="Rectangle_1830" x="383.3" y="181.8" class="st14" width="1.6" height="25.2"/>
			<g id="Group_1723" transform="translate(29.288 12.982)">
				<rect id="Rectangle_1831" x="347" y="147.2" class="st22" width="9.1" height="9.4"/>
				<rect id="Rectangle_1832" x="354.4" y="147.1" class="st34" width="1.7" height="9.4"/>
				<rect id="Rectangle_1833" x="352.8" y="147.2" class="st25" width="1.6" height="9.4"/>
				<rect id="Rectangle_1834" x="347" y="147.2" class="st25" width="7.5" height="1.6"/>
			</g>
		</g>
		<g id="Group_1725" transform="translate(331.334 326.192)">
			<rect id="Rectangle_1835" x="396.1" y="173.7" class="st35" width="2.6" height="16.7"/>
			<rect id="Rectangle_1836" x="398.6" y="173.7" class="st36" width="2.6" height="16.7"/>
			<path id="Path_3700" class="st26" d="M398.1,117.9l-13,60.1l13.6,4.4l12.5-4.4L398.1,117.9z"/>
			<path id="Path_3701" class="st37" d="M398.1,117.9l-13,60.1l13.6,4.4L398.1,117.9z"/>
		</g>
		<g id="Group_1726" transform="translate(346.752 333.387)">
			<rect id="Rectangle_1837" x="411.5" y="169.3" class="st35" width="2" height="12.9"/>
			<rect id="Rectangle_1838" x="413.4" y="169.3" class="st36" width="2" height="12.9"/>
			<path id="Path_3702" class="st26" d="M413,126.3l-10,46.3l10.5,3.4l9.6-3.4L413,126.3z"/>
			<path id="Path_3703" class="st37" d="M413,126.3l-10,46.3l10.5,3.4L413,126.3z"/>
		</g>
		<g id="Group_1727" transform="translate(356.048 351.935)">
			<path id="Path_3704" class="st26" d="M438.5,182c0,6.8-5.5,12.3-12.3,12.3h0v-46.5h0c1.7,0,4.6,6.3,7.1,13.6l-5.6,3.2l6.5-0.5
				C436.3,169.9,437.8,175.9,438.5,182z"/>
			<path id="Path_3705" class="st37" d="M426.1,147.8v46.5c-6.8,0-12.3-5.5-12.3-12.3c0.1-1.8,0.3-3.6,0.8-5.3l7.2,0.2l-6.6-2.5
				C417.6,163.9,423.4,147.9,426.1,147.8z"/>
			<path id="Path_3706" class="st35" d="M426,177.5l-0.5,0.2l-1.3,29.2l1.8,0.9V177.5z"/>
			<path id="Path_3707" class="st36" d="M426,177.5v30.3l1.8-0.9l-1.1-29.2L426,177.5z"/>
		</g>
		<g id="Group_1728" transform="translate(25.502 339.511)">
			<path id="Path_3708" class="st26" d="M62,178.2c0,8.9-7.2,16.2-16.2,16.2h0v-61h0c2.2,0,6,8.2,9.4,17.8l-7.4,4.2l8.6-0.7
				C59.5,164.1,62,174,62,178.2z"/>
			<path id="Path_3709" class="st37" d="M45.8,133.4v61c-8.9,0-16.1-7.3-16.1-16.2c0.1-2.3,0.4-4.7,1-7l9.4,0.3l-8.7-3.3
				C34.7,154.5,42.3,133.5,45.8,133.4z"/>
			<path id="Path_3710" class="st35" d="M45.7,172.3l-0.6,0.3l-1.6,38.2l2.3,1.2L45.7,172.3z"/>
			<path id="Path_3711" class="st36" d="M45.6,172.3V212l2.3-1.2l-1.4-38.3L45.6,172.3z"/>
		</g>
		<g id="Group_1729" transform="translate(39.842 347.769)">
			<rect id="Rectangle_1839" x="55.6" y="190" class="st35" width="2.2" height="14.1"/>
			<rect id="Rectangle_1840" x="57.7" y="190" class="st36" width="2.2" height="14.1"/>
			<path id="Path_3712" class="st26" d="M57.3,143l-11,50.6l11.5,3.7l10.5-3.7L57.3,143z"/>
			<path id="Path_3713" class="st37" d="M57.3,143l-11,50.6l11.5,3.7L57.3,143z"/>
		</g>
		<path id="Path_3715" class="st38" d="M800,554c0,0-120.9-13.1-357.3-13.1S0,554,0,554v122.3h800V554z"/>
		<path id="Path_3716" class="st39" d="M394.6,635.8h17.2c1.5,0,2.8,1.2,2.8,2.8l0,0c0,1.5-1.2,2.8-2.8,2.8h-17.2
			c-1.5,0-2.8-1.2-2.8-2.8l0,0C391.8,637,393.1,635.8,394.6,635.8z"/>
		<path id="Path_3717" class="st39" d="M418,540.9c-1.5-6.9-8.2-11.2-15.1-9.8c-4.9,1-8.7,4.9-9.8,9.8H418z"/>
		<path id="Path_3718" class="st39" d="M238.5,573.5c-1.9-9-10.7-14.7-19.7-12.8c-6.4,1.4-11.4,6.4-12.8,12.8H238.5z"/>
		<path id="Path_3719" class="st39" d="M597.6,568.2h99.5c1.5,0,2.8,1.2,2.8,2.8l0,0l0,0c0,1.5-1.2,2.8-2.8,2.8c0,0,0,0,0,0h-99.5
			c-1.5,0-2.8-1.2-2.8-2.8l0,0C594.8,569.4,596.1,568.2,597.6,568.2z"/>
		<path id="Path_3720" class="st39" d="M100.4,568.2h79.3c1.5,0,2.8,1.2,2.8,2.8l0,0c0,1.5-1.2,2.8-2.8,2.8c0,0,0,0,0,0h-79.3
			c-1.5,0-2.8-1.2-2.8-2.8l0,0C97.6,569.4,98.9,568.2,100.4,568.2z"/>
		<g id="Group_1730" transform="translate(311.343 240.11)">
			<path id="Path_3721" class="st40" d="M369.3,22.9L369.3,22.9c-0.6,0-1-0.3-1.2-0.9c-0.4-1.2-1.7-1.9-3-1.5
				c-0.4,0.1-0.7,0.4-1,0.6c-0.4,0.6-1.2,0.7-1.8,0.3c-0.6-0.4-0.7-1.2-0.3-1.8c0-0.1,0.1-0.1,0.2-0.2c3.6,0.7,7.3,0.2,10.5-1.6
				c1.4,0,2.7,0.6,3.6,1.6c0.5,0.5,0.6,1.3,0.1,1.8c-0.5,0.5-1.3,0.6-1.8,0.1c-0.1,0-0.1-0.1-0.1-0.1c-0.9-0.9-2.4-1-3.3-0.1
				c-0.3,0.3-0.5,0.6-0.6,0.9C370.3,22.6,369.8,22.9,369.3,22.9z"/>
		</g>
		<g id="Group_1731" transform="translate(264.576 236.93)">
			<path id="Path_3722" class="st40" d="M317.6,20.3L317.6,20.3c-0.6,0-1-0.3-1.2-0.9c-0.7-2.1-3-3.2-5-2.5
				c-0.6,0.2-1.2,0.6-1.6,1.1c-0.5,0.5-1.3,0.5-1.8-0.1c-0.4-0.5-0.5-1.2-0.1-1.7c5,1.5,10.4,0.7,14.8-2.2c1.8,0,3.5,0.7,4.8,2.1
				c0.5,0.5,0.6,1.3,0.1,1.8c-0.5,0.5-1.3,0.6-1.8,0.1c0,0-0.1-0.1-0.1-0.1c-1.5-1.6-4-1.7-5.6-0.2c-0.5,0.4-0.8,1-1,1.6
				C318.7,20,318.2,20.3,317.6,20.3z"/>
		</g>
		<g id="Group_1732" transform="translate(351.686 259.11)">
			<path id="Path_3723" class="st40" d="M420,46.5c-0.6,0-1-0.3-1.2-0.9c-0.8-2.4-3.5-3.7-5.9-2.9c-0.7,0.3-1.4,0.7-1.9,1.3
				c-0.5,0.5-1.3,0.5-1.8-0.1c-0.4-0.5-0.5-1.2-0.1-1.7c5.6,1.9,11.7,1,16.6-2.4c2,0,3.9,0.8,5.3,2.3c0.5,0.5,0.6,1.3,0.1,1.8
				c-0.5,0.5-1.3,0.6-1.8,0.1c0,0-0.1-0.1-0.1-0.1c-1.7-1.9-4.7-2-6.5-0.2c-0.5,0.5-1,1.2-1.2,1.9C421,46.2,420.6,46.5,420,46.5z"/>
		</g>
		<g id="Group_1742" transform="translate(115.658 312.83)">
			<rect id="Rectangle_1841" x="273" y="168.5" class="st41" width="58.8" height="60.4"/>
			<rect id="Rectangle_1842" x="273" y="159.8" class="st30" width="58.8" height="8.7"/>
			<rect id="Rectangle_1843" x="286.8" y="186.4" class="st42" width="31.1" height="42.4"/>
			<rect id="Rectangle_1844" x="293.5" y="193" class="st30" width="17.9" height="35.9"/>
			<path id="Path_3724" class="st43" d="M293.5,193l-6.7-6.7h31.5l-6.9,6.7C311.3,193,293.6,192.9,293.5,193z"/>
			<rect id="Rectangle_1845" x="273" y="168.5" class="st43" width="58.7" height="3.3"/>
			<path id="Path_3725" class="st14" d="M318.3,186.4l-24.8,24.9l0,0l0.1-18.2l-6.7-6.7C286.8,186.4,318.3,186.1,318.3,186.4z"/>
			<path id="Path_3726" class="st44" d="M273.1,228.9H146.3v-83.5l63.4-39.1l63.4,39.8L273.1,228.9z"/>
			<path id="Path_3727" class="st17" d="M284.9,148.2l-75.1-45.9l-75.4,45.8l2.9,4l72.5-43.6l72.2,43.6L284.9,148.2z"/>
			<path id="Path_3728" class="st14" d="M146.3,152.2l63.6-37.6l63.2,37.6v-5.6l-63.3-38.1l-63.5,38L146.3,152.2z"/>
			<g id="Group_1734" transform="translate(12.491 31.055)">
				<rect id="Rectangle_1846" x="151.7" y="141.1" class="st24" width="34.9" height="27.8"/>
				<rect id="Rectangle_1847" x="154" y="143.5" class="st22" width="30.2" height="23.1"/>
				<g id="Group_1733">
					<path id="Path_3729" class="st43" d="M151.9,141.5v27.2l-3,3v-33.2L151.9,141.5z"/>
					<path id="Path_3730" class="st43" d="M189.2,138.5l-2.9,3h-34.3l-3-3v-0.1L189.2,138.5z"/>
					<path id="Path_3731" class="st42" d="M186.2,141.5v27.1l3,3v-33.2L186.2,141.5z"/>
					<path id="Path_3732" class="st42" d="M189.2,171.7l-2.9-3H152l-3,3v0.1L189.2,171.7z"/>
				</g>
				<rect id="Rectangle_1848" x="162.1" y="143.2" class="st24" width="1.7" height="23.9"/>
				<rect id="Rectangle_1849" x="173.7" y="143.2" class="st24" width="1.7" height="23.9"/>
				<rect id="Rectangle_1850" x="153.1" y="150.6" class="st24" width="32.3" height="1.7"/>
			</g>
			<g id="Group_1736" transform="translate(39.361 31.055)">
				<rect id="Rectangle_1851" x="182.9" y="141.1" class="st24" width="34.9" height="27.8"/>
				<rect id="Rectangle_1852" x="185.3" y="143.5" class="st22" width="30.2" height="23.1"/>
				<g id="Group_1735">
					<path id="Path_3733" class="st43" d="M183.2,141.5v27.2l-3,3v-33.2L183.2,141.5z"/>
					<path id="Path_3734" class="st43" d="M220.4,138.5l-2.9,3h-34.3l-3-3v-0.1L220.4,138.5z"/>
					<path id="Path_3735" class="st42" d="M217.5,141.5v27.1l3,3v-33.2L217.5,141.5z"/>
					<path id="Path_3736" class="st42" d="M220.4,171.7l-2.9-3h-34.3l-3,3v0.1L220.4,171.7z"/>
				</g>
				<rect id="Rectangle_1853" x="193.4" y="143.2" class="st24" width="1.7" height="23.9"/>
				<rect id="Rectangle_1854" x="204.9" y="143.2" class="st24" width="1.7" height="23.9"/>
				<rect id="Rectangle_1855" x="184.3" y="150.6" class="st24" width="32.3" height="1.7"/>
			</g>
			<g id="Group_1737" transform="translate(28.558 11.771)">
				<circle id="Ellipse_149" class="st43" cx="181.6" cy="130" r="14"/>
				<circle id="Ellipse_150" class="st24" cx="181.6" cy="130" r="10.6"/>
				<circle id="Ellipse_151" class="st22" cx="181.6" cy="130" r="9"/>
				<path id="Path_3737" class="st45" d="M177.9,138.2l11.8-11.8c-0.5-1-1.1-2-1.9-2.8l-12.7,12.7
					C175.9,137.1,176.9,137.7,177.9,138.2z"/>
				<path id="Path_3738" class="st45" d="M190.2,129.1c0-0.2,0-0.3-0.1-0.5L180,138.7c0.6,0.1,1.3,0.1,2,0.1c0.1,0,0.3,0,0.4-0.1
					l7.8-7.8C190.2,130.3,190.2,129.7,190.2,129.1z"/>
			</g>
			<path id="Path_3739" class="st44" d="M458.4,228.9H331.6v-83.5l63.4-39.1l63.4,39.8L458.4,228.9z"/>
			<path id="Path_3740" class="st17" d="M470.2,148.2l-75.1-45.9l-75.4,45.8l2.9,4l72.5-43.6l72.2,43.6L470.2,148.2z"/>
			<path id="Path_3741" class="st14" d="M331.6,152.2l63.6-37.6l63.2,37.6v-5.6l-63.3-38.1l-63.5,38L331.6,152.2z"/>
			<g id="Group_1739" transform="translate(98.192 31.055)">
				<rect id="Rectangle_1856" x="251.3" y="141.1" class="st24" width="34.9" height="27.8"/>
				<rect id="Rectangle_1857" x="253.6" y="143.5" class="st22" width="30.2" height="23.1"/>
				<g id="Group_1738">
					<path id="Path_3742" class="st43" d="M251.5,141.5v27.2l-3,3v-33.2L251.5,141.5z"/>
					<path id="Path_3743" class="st43" d="M288.8,138.5l-2.9,3h-34.3l-3-3v-0.1L288.8,138.5z"/>
					<path id="Path_3744" class="st42" d="M285.8,141.5v27.1l3,3v-33.2L285.8,141.5z"/>
					<path id="Path_3745" class="st42" d="M288.8,171.7l-2.9-3h-34.3l-3,3v0.1L288.8,171.7z"/>
				</g>
				<rect id="Rectangle_1858" x="261.7" y="143.2" class="st24" width="1.7" height="23.9"/>
				<rect id="Rectangle_1859" x="273.3" y="143.2" class="st24" width="1.7" height="23.9"/>
				<rect id="Rectangle_1860" x="252.7" y="150.6" class="st24" width="32.3" height="1.7"/>
			</g>
			<g id="Group_1741" transform="translate(125.062 31.055)">
				<rect id="Rectangle_1861" x="282.5" y="141.1" class="st24" width="34.9" height="27.8"/>
				<rect id="Rectangle_1862" x="284.9" y="143.5" class="st22" width="30.2" height="23.1"/>
				<g id="Group_1740">
					<path id="Path_3746" class="st43" d="M282.8,141.5v27.2l-3,3v-33.2L282.8,141.5z"/>
					<path id="Path_3747" class="st43" d="M320,138.5l-2.9,3h-34.3l-3-3v-0.1L320,138.5z"/>
					<path id="Path_3748" class="st42" d="M317.1,141.5v27.1l3,3v-33.2L317.1,141.5z"/>
					<path id="Path_3749" class="st42" d="M320,171.7l-2.9-3h-34.3l-3,3v0.1L320,171.7z"/>
				</g>
				<rect id="Rectangle_1863" x="293" y="143.2" class="st24" width="1.7" height="23.9"/>
				<rect id="Rectangle_1864" x="304.5" y="143.2" class="st24" width="1.7" height="23.9"/>
				<rect id="Rectangle_1865" x="283.9" y="150.6" class="st24" width="32.3" height="1.7"/>
			</g>
			<circle id="Ellipse_152" class="st43" cx="395.4" cy="141.8" r="14"/>
			<circle id="Ellipse_153" class="st24" cx="395.4" cy="141.8" r="10.6"/>
			<circle id="Ellipse_154" class="st22" cx="395.4" cy="141.8" r="9"/>
			<path id="Path_3750" class="st45" d="M391.7,150l11.8-11.8c-0.5-1-1.1-2-1.9-2.8L389,148C389.8,148.8,390.7,149.5,391.7,150z"/>
			<path id="Path_3751" class="st45" d="M404.4,141.1c0-0.2,0-0.3-0.1-0.5l-10.1,10.1c0.6,0.1,1.3,0.1,2,0.1c0.1,0,0.3,0,0.4-0.1
				l7.8-7.8C404.4,142.3,404.4,141.7,404.4,141.1z"/>
		</g>
		<g id="Group_1743" transform="translate(318.329 344.236)">
			<path id="Path_3752" class="st26" d="M398.8,178.8c0,8-6.5,14.4-14.4,14.4l0,0h0v-54.3h0c1.9,0,5.3,7.3,8.3,15.8l-6.6,3.8
				l7.6-0.6C396.5,166.3,398.8,175.1,398.8,178.8z"/>
			<path id="Path_3753" class="st37" d="M384.3,138.9v54.3c-7.9,0-14.4-6.5-14.4-14.4c0.1-2.1,0.4-4.2,0.9-6.2l8.4,0.3l-7.7-2.9
				C374.4,157.7,381.2,139,384.3,138.9z"/>
			<path id="Path_3754" class="st35" d="M384.3,173.5l-0.6,0.2l-1.5,34l2,1.1V173.5z"/>
			<path id="Path_3755" class="st36" d="M384.2,173.5v35.3l2-1.1l-1.3-34.1L384.2,173.5z"/>
		</g>
		<path id="Path_3756" class="st39" d="M442.7,540.8C206.3,540.8,0,557.5,0,557.5v6.7c0,0,206.3-16.8,442.7-16.8
			S800,564.2,800,564.2v-6.7C800,557.5,679.1,540.8,442.7,540.8z"/>
		<path id="Path_3687" class="st37" d="M265.6,533.6c-4,0-7.8,1.7-10.4,4.8c-4.7-4-11.7-3.5-15.8,1.2c-1.2,1.4-2.1,3.1-2.5,5h42.2
			C277.7,538.2,272.1,533.6,265.6,533.6z"/>
		<path id="Path_3714" class="st37" d="M564.6,528.7c5.2,0,10.2,2.3,13.6,6.2c6.1-5.3,15.3-4.6,20.6,1.5c1.6,1.9,2.7,4.1,3.2,6.5
			H547C548.7,534.7,556.1,528.8,564.6,528.7z"/>
	</g>
	<g id="Group_2779" transform="translate(1491.397 416.725)">
		<path id="Path_1445" class="st46" d="M53.2,89.5l-0.9,4.7l-0.3,0l0.9-4.7L53.2,89.5z"/>
		<path id="Path_1446" class="st47" d="M39.3,71.2L51,100l0.2-0.1L39.5,71.1L39.3,71.2z"/>
		<path id="Path_1447" class="st47" d="M47.1,82.4l5.8,8.2l0.1-0.1l-5.8-8.2L47.1,82.4z"/>
		<path id="Rectangle_796" class="st48" d="M54,88.3h1.9c0.2,0,0.4,0.2,0.4,0.4V89c0,0.2-0.2,0.4-0.4,0.4H54c-0.2,0-0.4-0.2-0.4-0.4
			v-0.3C53.7,88.5,53.8,88.3,54,88.3z"/>
		<path id="Path_1448" class="st49" d="M62.8,82.4L57,90.6l-0.1-0.1l5.8-8.2L62.8,82.4z"/>
		<path id="Path_1449" class="st49" d="M70.6,71.2L59,100l-0.2-0.1l11.6-28.8L70.6,71.2z"/>
		<path id="Path_1450" class="st50" d="M37.8,42.6c-3.9,4-5.6,9.5-4.6,15c1.4,9.1,11.4,21,16.6,28.7h10.2
			c5.3-7.7,15.2-19.6,16.6-28.7c1-5.4-0.7-11-4.6-15C64.4,34.9,45.6,34.9,37.8,42.6z"/>
		<path id="Path_1451" class="st51" d="M43.5,42.6c-2.7,4.5-3.8,9.8-3.1,15c1,9.1,7.6,21,11.2,28.7h6.8c3.5-7.7,10.2-19.6,11.2-28.7
			c0.7-5.2-0.4-10.5-3.1-15c-4.7-6.3-13.6-7.7-20-3C45.3,40.5,44.3,41.5,43.5,42.6z"/>
		<path id="Path_1452" class="st50" d="M49.3,57.6c0.4,9.1,3,21,4.4,28.7h2.7c2.3-13,6.6-30.5,3.2-43.7
			C56.7,32.3,48.3,34.9,49.3,57.6z"/>
		<path id="Path_1453" class="st52" d="M56.3,86.3h2.1c3.5-7.7,10.2-19.6,11.2-28.7C70.7,46.9,66,36.8,55,36.8
			c1.7,0,3.5,1.9,4.5,5.8C62.9,55.8,58.6,73.4,56.3,86.3z"/>
		<path id="Path_1454" class="st49" d="M55,86.2V36.9c5.5,0,5.9,15.1,5.7,20.7c-0.4,9-3,20.9-4.4,28.6L55,86.2z"/>
		<path id="Path_1455" class="st49" d="M58.4,86.3H60c5.3-7.7,15.2-19.6,16.6-28.7c1.8-11.3-6.1-20.8-21.7-20.8
			c11,0,15.7,10.1,14.6,20.8C68.6,66.7,61.9,78.6,58.4,86.3z"/>
		<path id="Path_1456" class="st47" d="M47.1,82.4h15.7l-2.8,3.9H49.9L47.1,82.4z"/>
		<path id="Path_1457" class="st50" d="M55,82.4h7.8l-2.8,3.9H55V82.4z"/>
		<path id="Path_1458" class="st53" d="M56.7,89.5l0.9,4.7l0.3,0L57,89.5L56.7,89.5z"/>
		<path id="Path_1459" class="st50" d="M52,94.1c0.1,0,5.9,0,5.9,0.1l1,5.8c0,0,0,0.1,0,0.1c0,0,0,0,0,0l0,0c-0.1,0-8,0-8-0.1
			C50.9,100,52,94.2,52,94.1C52,94.2,52,94.1,52,94.1L52,94.1z"/>
		<path id="Path_1460" class="st49" d="M55,89.4v-1.1c1,0,1.3-0.1,1.3,0.1v0.8C56.3,89.5,55.9,89.4,55,89.4z"/>
		<path id="Path_1461" class="st46" d="M53.2,89.3c3.7,0,3.8-0.1,3.8,0.2l0.3,1.3c0,0.1-0.1,0.2-0.2,0.2c-3.9,0-4.4,0.1-4.4-0.2
			l0.3-1.3C53,89.4,53,89.3,53.2,89.3z"/>
		<path id="Path_1462" class="st53" d="M55,91v-1.8h1.8c0.1,0,0.2,0.1,0.2,0.2l0.3,1.3c0,0.1-0.1,0.2-0.2,0.2L55,91z"/>
		<path id="Path_1463" class="st49" d="M55,100v-5.9h2.9c0.1,0,1.2,5.9,1,5.9H55L55,100z"/>
		<path id="Path_1464" class="st47" d="M56.3,94.1l0.4,5.9h-3.5l0.4-5.9H56.3z"/>
		<path id="Path_1465" class="st50" d="M55,100v-5.9h1.3l0.4,5.9H55z"/>
	</g>
</g>
</svg>
