<?xml version="1.0" encoding="utf-8"?>
<!-- Generator: Adobe Illustrator 23.0.1, SVG Export Plug-In . SVG Version: 6.00 Build 0)  -->
<svg version="1.1" id="Слой_1" xmlns="http://www.w3.org/2000/svg" xmlns:xlink="http://www.w3.org/1999/xlink" x="0px" y="0px"
	 viewBox="0 0 240 240" style="enable-background:new 0 0 240 240;" xml:space="preserve">
<style type="text/css">
	.st0{fill:#0B6C75;}
	.st1{fill:#F5948D;}
	.st2{fill:#08484E;}
	.st3{fill:#F6C254;}
	.st4{fill:#D57872;}
	.st5{fill:#4D3A4E;}
	.st6{fill:#472E4F;}
	.st7{fill:#C46B4D;}
	.st8{fill:#1F1524;}
	.st9{fill:#4D3C60;}
	.st10{fill:#E3ACA5;}
	.st11{fill:#FFA998;}
	.st12{fill:#CD896D;}
	.st13{fill:#5A3D5B;}
	.st14{fill:#754962;}
	.st15{fill:#EBE8EF;}
	.st16{fill:#402848;}
	.st17{fill:#D6FEE8;}
	.st18{fill:#F98786;}
	.st19{fill:#F5BD42;}
	.st20{fill:#F9D562;}
	.st21{fill:#F1F2F3;}
	.st22{opacity:0.1;fill:#404041;enable-background:new    ;}
	.st23{fill:#6ABFC5;}
	.st24{clip-path:url(#SVGID_2_);}
	.st25{opacity:0.29;fill:#FFFFFF;enable-background:new    ;}
	.st26{fill:#BADBCD;}
	.st27{fill:#CDE8D6;}
	.st28{opacity:0.57;fill:#FFFFFF;enable-background:new    ;}
	.st29{fill:#FFFFFF;}
	.st30{fill:#9ED8A0;}
	.st31{fill:#D3D3D3;}
	.st32{fill:#E0E4E4;}
	.st33{fill:url(#Path_9358-2_1_);}
	.st34{opacity:0.2;fill:#59595C;enable-background:new    ;}
	.st35{fill:url(#Path_9360-2_1_);}
	.st36{fill:url(#Path_9361-2_1_);}
	.st37{fill:url(#Path_9363-2_1_);}
	.st38{fill:#536276;}
	.st39{fill:#515677;}
	.st40{fill:#516876;}
	.st41{fill:#3A4C56;}
	.st42{fill:#647C87;}
	.st43{fill:url(#Path_9376-2_1_);}
	.st44{fill:#474849;}
	.st45{fill:#5D5F5E;}
	.st46{opacity:0.1;fill:#FFFFFF;enable-background:new    ;}
	.st47{fill:#635F71;}
	.st48{fill:#E6E6E6;}
	.st49{fill:#F1F1F1;}
	.st50{fill:#D0D1D2;}
	.st51{opacity:0.1;fill:#414141;enable-background:new    ;}
	.st52{fill:#DFDFDE;}
	.st53{fill:#F2F2F2;}
	.st54{fill:#38505B;}
	.st55{fill:#83D2F4;}
	.st56{fill:#7194A4;}
	.st57{fill:#4F6C79;}
</style>
<g>
	<g>
		<g id="Group_1346" transform="translate(1093.906 587.662)">
			<path id="Path_2887" class="st0" d="M-965.3-486.9c-3.5,0.2-6.8-1.7-8.4-4.9l-17.6-35.5c-1.2-2.4-0.2-5.3,2.2-6.5
				s5.3-0.2,6.5,2.2c0,0,0,0,0,0l17.2,34.7l23.4-11.6c2.4-1.2,5.3-0.2,6.5,2.2c1.2,2.4,0.2,5.2-2.2,6.4l-24.2,12
				C-962.9-487.3-964.1-487-965.3-486.9z"/>
			<path id="Rectangle_1298" class="st1" d="M-938-512.8l4-2c1.3-0.6,2.8-0.1,3.4,1.2l2.4,4.8c0.6,1.3,0.1,2.8-1.2,3.4l-4,2
				c-1.3,0.6-2.8,0.1-3.4-1.2l-2.4-4.8C-939.8-510.6-939.2-512.1-938-512.8z"/>
			<path id="Path_10011" class="st2" d="M-944.1-507.6l4.7-2.3c0.1,0,0.1,0,0.2,0.1l4.3,8.6c0,0.1,0,0.1-0.1,0.2l0,0l-4.7,2.3
				c-0.1,0-0.1,0-0.2-0.1c0,0,0,0,0,0l-4.3-8.6C-944.2-507.5-944.1-507.6-944.1-507.6L-944.1-507.6z"/>
			<path id="Path_2888" class="st1" d="M-919.5-510.8l-14,0.2c-0.3,0-0.5,0.2-0.5,0.5c0,0,0,0,0,0l0.1,5.4c0,0.3,0.3,0.5,0.5,0.5
				l9.1-0.1c2.9,0,5.3-2.5,5.2-5.4c0,0,0,0,0-0.1l0-0.6C-918.9-510.5-919.2-510.8-919.5-510.8z"/>
			<path id="Path_2889" class="st3" d="M-977.1-354.4c-3.2,0-5.7-2.6-5.7-5.7c0,0,0,0,0,0v-22.6c0-15.2-2-30.3-5.8-45l-8.7-33
				c-0.8-3.1,1.1-6.2,4.2-7c3-0.8,6.1,1,6.9,4l8.7,33c4.1,15.6,6.2,31.7,6.2,47.9v22.6C-971.3-356.9-973.9-354.4-977.1-354.4
				L-977.1-354.4z"/>
			<path id="Path_2890" class="st4" d="M-962.7-347.8l-20.3,0.1c-2.4-2.6-1.3-6.6-0.2-9.7c4,0,8,0,12-0.1c0,0.5,0.3,1,0.8,1.2
				c1.6,0.8,6.1,2.7,9,4.9c0.9,0.7,1.1,1.9,0.4,2.8C-961.5-348-962-347.8-962.7-347.8z"/>
			<path id="Path_2891" class="st5" d="M-983.4-356.9c4.1,0,8.3,0,12.4,0c0.1,0,0.2-0.1,0.2-0.2c0,0,0,0,0,0c0-0.6,0-1.2,0-1.8
				c0-0.1-0.1-0.2-0.2-0.2c0,0,0,0,0,0c-4.2,0-8.3,0-12.4,0c-0.1,0-0.2,0.1-0.2,0.2c0,0.6,0,1.2,0,1.8
				C-983.6-357-983.5-356.9-983.4-356.9z"/>
			<path id="Path_2892" class="st3" d="M-1011.2-354.4h-0.1c-3.2-0.1-5.7-2.7-5.6-5.9c0,0,0,0,0,0c0-0.4,0.9-42.4,0.9-56.1
				c0-11.7-0.9-46.6-0.9-47c-0.1-3.2,2.4-5.8,5.6-5.9s5.8,2.4,5.9,5.6c0,0,0,0,0,0c0,1.4,0.9,35.4,0.9,47.3c0,13.8-0.9,56-0.9,56.4
				C-1005.6-356.8-1008.1-354.4-1011.2-354.4z"/>
			<path id="Path_2893" class="st4" d="M-996.9-347.8l-20.3,0.1c-2.4-2.6-1.3-6.6-0.2-9.7c4,0,8,0,12-0.1c0,0.5,0.3,1,0.8,1.2
				c1.6,0.8,6.1,2.7,9,4.9c0.9,0.7,1.1,1.9,0.4,2.8C-995.7-348-996.3-347.8-996.9-347.8z"/>
			<path id="Path_2894" class="st5" d="M-1017.6-356.9c4.1,0,8.3,0,12.4,0c0.1,0,0.2-0.1,0.2-0.2c0,0,0,0,0,0c0-0.6,0-1.2,0-1.8
				c0-0.1-0.1-0.2-0.2-0.2c0,0,0,0,0,0c-4.2,0-8.3,0-12.4,0c-0.1,0-0.2,0.1-0.2,0.2c0,0.6,0,1.2,0,1.8
				C-1017.9-357-1017.8-356.9-1017.6-356.9z"/>
			<path id="Path_2895" class="st3" d="M-987.1-452.7c-5.1,5.4-21.7,4.7-26.4,0c-5.5-5.5,0-30.9,0-30.9h26.4
				C-987.1-483.6-981.8-458.3-987.1-452.7z"/>
			<path id="Path_2896" class="st6" d="M-1013.7-477.4h27.1v-57.3l-18-3.9l-9.6,2.7L-1013.7-477.4z"/>
			<path id="Path_2897" class="st3" d="M-1006.5-477.7c5.8,1.6,11.9,2.3,17.9,2.2c0.9,0,2.3-0.1,2.3-0.1l0,0l0.2-1.7l-0.1-0.1
				c0,0-1.4,0-2.3,0.1c-6,0.2-12.1-0.6-17.9-2.2c0,0-6.2,2.1-4.6,4.3C-1009.8-476.6-1006.5-477.7-1006.5-477.7z"/>
			<path id="Path_2898" class="st7" d="M-1006.3-473c11,2.8,19.5,1.5,19.5,1.5l0.6-4.1l0,0c0,0-1.4,0-2.3,0.1
				c-6,0.2-12.1-0.6-17.9-2.2c0,0-3.3,1.1-4.5,2.5C-1010.5-474.5-1009.1-473.7-1006.3-473z"/>
			<path id="Path_2899" class="st0" d="M-1003.2-513.1c-1.7-10.3-9-22.6-9-22.6l2.5-0.7v-1.7c0,0-17.2,1.2-18.3,6.8
				c-2.2,10.6,4.2,21.6,9.1,30.7s4.5,12.9,3.5,18.3c-1.1,5.3-5.2,6.5-4.7,19.2c0,0.3,0,1.6,0,1.6h13.6c2.5,0,4.6-2,4.7-4.6
				C-1001.6-477.5-1000.8-499.1-1003.2-513.1z"/>
			<path id="Path_2900" class="st8" d="M-1018.9-534L-1018.9-534"/>
			<path id="Path_2901" class="st2" d="M-1011.4-536l1.7-0.5v-0.9c-2.6,0.4-5.1,0.9-7.5,1.7c-0.1,0-0.2,0.1-0.2,0.1
				c-0.6,0.4-1.1,0.9-1.4,1.6l0,0c-0.2,0.5-0.1,1.1,0.9,1.5l0,0c0.3,0.1,0.5,0.2,0.8,0.3c4,1,4.8,2.2,4.8,2.2l-1.8,1
				c-0.8,0.4-1,1.4-0.6,2.2c0.3,0.4,0.5,0.9,0.7,1.2c11.7,21.2,12.4,40.3,12.4,41.1c0-9.8-0.3-20.5-1.7-28.7
				c-1.5-8.9-7-19.2-8.6-21.9c-0.2-0.3-0.1-0.7,0.2-0.9C-1011.5-535.9-1011.4-535.9-1011.4-536z"/>
			<path id="Path_2902" class="st0" d="M-996.1-537.9c3.8,0.4,10,2.1,12.1,4.7c3.1,3.9,1.3,26.5,0.4,31.1s-2.5,12.2-2.2,18.8
				c0.4,6.6,3.7,13.7,2.7,20.5c0,0.1,0,0.2,0,0.2h-2.3c-2.6,0-4.7-2.1-4.7-4.7c0,0,0,0,0,0c0-4.9,0.1-12.7,0.6-18.7
				c1.4-16.1,1.4-37-2.5-45.3c-1-1.7-2.2-3.3-3.6-4.7c-0.2-0.2-0.4-0.3-0.7-0.3l-1,0.1v-1.8C-997.2-538-996.4-537.9-996.1-537.9z"/>
			<path id="Path_2903" class="st2" d="M-985-526.4c0-0.2,0-0.4-0.1-0.7c-0.1-0.7-0.4-1.2-1-1.6l-3.1-2c0,0,1.6-1,1.7-1.7
				c0.1-0.7-3.6-3.4-8.4-4.8c-0.3-0.1-0.5-0.1-0.8-0.2c-0.2,0-0.5,0-0.7,0v1.1l1,0c0.2,0,0.5,0.1,0.7,0.3c1.4,1.4,2.7,3,3.6,4.7
				c3.9,8.2,3.9,28.3,2.6,44.2C-987.4-493.6-983.5-510.4-985-526.4z"/>
			<path id="Path_2904" class="st9" d="M-993.9-470.8C-993.9-470.8-994-470.8-993.9-470.8l-3.9-0.3c-0.7-0.1-1.1-0.6-1.1-1.3
				l0.2-2.9c0-0.7,0.6-1.1,1.3-1.1l3.8,0.3c0.3,0,0.6,0.2,0.8,0.4c0.2,0.2,0.3,0.6,0.3,0.9l-0.2,2.9c0,0.3-0.2,0.6-0.4,0.8
				C-993.4-470.9-993.6-470.8-993.9-470.8z M-997.5-475.7c-0.3,0-0.5,0.2-0.5,0.5l-0.2,2.9c0,0.3,0.2,0.5,0.5,0.6l3.8,0.3
				c0.3,0,0.5-0.2,0.6-0.5c0,0,0,0,0,0l0.2-2.9c0-0.1,0-0.3-0.1-0.4c-0.1-0.1-0.2-0.2-0.4-0.2L-997.5-475.7L-997.5-475.7z"/>
			<path id="Path_2905" class="st10" d="M-1007.5-507.2l-9.2,0.2c-0.3,0-0.6-0.2-0.6-0.5l-0.1-0.8c0-0.3,0.1-0.5,0.4-0.5
				c0,0,0,0,0.1,0l9.2-0.2c0.3,0,0.6,0.2,0.6,0.5l0.1,0.8C-1007-507.5-1007.2-507.3-1007.5-507.2
				C-1007.4-507.2-1007.5-507.2-1007.5-507.2z"/>
			<path id="Path_2906" class="st11" d="M-996-525.7l-13.6-9.7V-569h12.4v32.3L-996-525.7z"/>
			<path id="Path_2907" class="st11" d="M-999.1-542.7h9.1c3.9,0,7-3.1,7-7V-571c0-4.6-3.7-8.3-8.3-8.3c0,0,0,0,0,0h-6.5
				c-4.6,0-8.3,3.7-8.3,8.3c0,0,0,0,0,0v21.3C-1006.1-545.8-1003-542.7-999.1-542.7C-999.1-542.7-999.1-542.7-999.1-542.7z"/>
			<rect id="Rectangle_1300" x="-1009.6" y="-573.6" class="st12" width="6" height="9.2"/>
			<rect id="Rectangle_1301" x="-1009.6" y="-573.5" class="st13" width="6" height="13.6"/>
			<path id="Path_2908" class="st1" d="M-997.2-549.2h-2.1c-2.4,0-4.3-1.9-4.3-4.3l0,0v-1.5h-2.5v7.5l0,0v1.2c0,5.3,3.8,9.7,9,10.5
				l-0.1-0.8L-997.2-549.2z"/>
			<path id="Path_2909" class="st11" d="M-1010.3-559h4.2v-2.1c0-2.3-1.9-4.2-4.2-4.2l0,0c-1.7,0-3.1,1.4-3.1,3.1l0,0l0,0
				C-1013.4-560.4-1012-559-1010.3-559z"/>
			<path id="Path_2910" class="st1" d="M-1010.3-560.4L-1010.3-560.4c1,0,1.7-0.8,1.7-1.7l0,0l0,0c0-1-0.8-1.7-1.7-1.7c0,0,0,0,0,0
				l0,0c-1,0-1.7,0.8-1.7,1.7c0,0,0,0,0,0l0,0C-1012.1-561.2-1011.3-560.4-1010.3-560.4C-1010.3-560.4-1010.3-560.4-1010.3-560.4z"
				/>
			<path id="Path_2911" class="st14" d="M-986.6-570.4h-23c0-6.9,5.6-12.6,12.6-12.6c0,0,0,0,0,0h19.1v4
				C-978-574.3-981.8-570.4-986.6-570.4L-986.6-570.4z"/>
			<path id="Path_2912" class="st13" d="M-994.2-570.4h-4.8c0-7.9,6.4-14.3,14.3-14.3c0,0,0,0,0,0h4.1v0.7
				C-980.7-576.5-986.7-570.4-994.2-570.4C-994.2-570.4-994.2-570.4-994.2-570.4z"/>
			<path id="Path_2913" class="st14" d="M-1001.3-570.4L-1001.3-570.4v-3.6c0-7.5,6.1-13.6,13.6-13.6l0,0l0,0v3.6
				C-987.6-576.5-993.7-570.4-1001.3-570.4L-1001.3-570.4z"/>
			<path id="Path_2914" class="st14" d="M-1006.1-548.6c0,3.9,3.1,7,7,7c0,0,0,0,0,0h9.1c3.9,0,7-3.1,7-7l0,0v-2.9
				c0-2-1.6-3.6-3.6-3.6h-14.5c-2.7,0-4.9,2.2-4.9,4.9V-548.6z"/>
			<path id="Path_2915" class="st11" d="M-988.8-546.9h-7.2c-1.6,0-2.8-1.3-2.8-2.8l0,0c0-2.3,1.9-4.2,4.2-4.2c0,0,0,0,0,0h5.9
				c1.8,0,3.2,1.4,3.2,3.2v0.5C-985.6-548.4-987-546.9-988.8-546.9z"/>
			<path id="Path_2916" class="st14" d="M-1003.6-550.8h-2.5v-11.1l0,0c1.4,0,2.5,1.1,2.5,2.5V-550.8z"/>
			<path id="Path_2917" class="st14" d="M-996.2-536.4l-0.5-0.1c-0.2,0-0.4,0.1-0.4,0.3c0,0,0,0.1,0,0.1l0.7,9.6
				c0,0-0.1-0.1-0.1-0.2c-0.1-0.1-0.2-0.2-0.3-0.4c-3.9-5.2-10.8-8.6-12.8-9.6l0,0.2l-0.8,0.2c-0.3,0.1-0.4,0.4-0.3,0.6
				c0,0.1,0.1,0.2,0.3,0.3c6.1,3.3,11.7,8.8,13.7,10.8c0.5,0.5,1.1,0.7,1.8,0.5l0,0c0.2,0,0.3-0.2,0.2-0.3l-0.5-11
				C-995.4-535.8-995.7-536.3-996.2-536.4z"/>
			<path id="Path_2918" class="st13" d="M-1009.6-569.6L-1009.6-569.6v-3.6c0-7.5,6.1-13.6,13.6-13.6l0,0v3.6
				C-996-575.7-1002.1-569.6-1009.6-569.6L-1009.6-569.6z"/>
			<path id="Rectangle_1302" class="st15" d="M-997.4-562.6L-997.4-562.6c1.1,0,2,0.9,2,2v0.6c0,1.1-0.9,2-2,2h0c-1.1,0-2-0.9-2-2
				v-0.6C-999.4-561.7-998.5-562.6-997.4-562.6z"/>
			<path id="Rectangle_1303" class="st16" d="M-997.5-561.8L-997.5-561.8c0.9,0,1.6,0.7,1.6,1.6v0.4c0,0.9-0.7,1.6-1.6,1.6h0
				c-0.9,0-1.6-0.7-1.6-1.6v-0.4C-999.1-561.1-998.4-561.8-997.5-561.8z"/>
			<path id="Rectangle_1304" class="st13" d="M-1000.5-565h5.9c0.3,0,0.6,0.3,0.6,0.6v0.5c0,0.3-0.3,0.6-0.6,0.6h-5.9
				c-0.3,0-0.6-0.3-0.6-0.6v-0.5C-1001.2-564.7-1000.9-565-1000.5-565z"/>
			<path id="Rectangle_1305" class="st13" d="M-982.3-563.3h-5.9c-0.3,0-0.6-0.3-0.6-0.6v-0.5c0-0.3,0.3-0.6,0.6-0.6h5.9
				c0.3,0,0.6,0.3,0.6,0.6v0.5C-981.6-563.5-981.9-563.3-982.3-563.3z"/>
			<path id="Path_2919" class="st17" d="M-988.2-550c0.4-0.5,0.6-1.1,0.7-1.8c0.1-0.4-0.2-0.8-0.7-0.9c0,0-0.1,0-0.1,0h-5.3
				c-0.4,0-0.8,0.3-0.8,0.8c0,0,0,0.1,0,0.1c0.1,0.7,0.4,1.3,0.8,1.9c0.5-0.9,1.5-1.5,2.5-1.6C-990-551.5-988.9-551-988.2-550z"/>
			<path id="Path_2920" class="st18" d="M-988.2-550c-0.6-1-1.7-1.5-2.9-1.4c-1,0.1-2,0.7-2.5,1.6c0.9,1.5,2.9,1.9,4.4,0.9
				C-988.8-549.2-988.5-549.6-988.2-550L-988.2-550z"/>
			<path id="Rectangle_1306" class="st1" d="M-985.9-557.2h2.5c0.5,0,0.8,0.4,0.8,0.8l0,0c0,0.5-0.4,0.8-0.8,0.8h-2.5
				c-0.5,0-0.8-0.4-0.8-0.8l0,0C-986.7-556.8-986.3-557.2-985.9-557.2z"/>
			<path id="Rectangle_1307" class="st1" d="M-998.9-557.2h2.5c0.5,0,0.8,0.4,0.8,0.8l0,0c0,0.5-0.4,0.8-0.8,0.8h-2.5
				c-0.5,0-0.8-0.4-0.8-0.8l0,0C-999.7-556.8-999.3-557.2-998.9-557.2z"/>
			<path id="Path_2921" class="st14" d="M-1055.5-565.5l0.6,0.9c-0.6,0.5-0.9,1.3-0.9,2v2.8c0,2.2,1.5,4.1,3.6,4.6
				c0.3,0.1,0.5,0.4,0.4,0.6c-0.1,0.2-0.3,0.4-0.5,0.4c0,0-0.1,0-0.1,0c-2.6-0.6-4.5-3-4.5-5.7v-2.8
				C-1056.9-563.7-1056.4-564.8-1055.5-565.5z"/>
			<path id="Path_2922" class="st0" d="M-1067.1-523.6c1.9,2.2,4.8,3.3,7.7,3l36.1-4.6c2.7-0.3,4.6-2.7,4.3-5.4s-2.7-4.6-5.4-4.3
				c0,0-0.1,0-0.1,0l-34.9,4.4l0.1-23.2c0-2.7-2.1-4.9-4.8-4.9c-2.7,0-4.9,2.1-4.9,4.8c0,0,0,0.1,0,0.1l-0.1,24.3
				C-1069.2-527.2-1068.5-525.1-1067.1-523.6z"/>
			<rect id="Rectangle_1308" x="-1069.2" y="-561.4" class="st11" width="9" height="5.5"/>
			<path id="Path_2923" class="st11" d="M-1069.2-565.4V-577c0-1.5,1.9-1.8,2.6-0.9v-1c0-1.9,2.9-1.9,2.9,0v0.6
				c0.5-1.3,2.8-1.1,2.8,0.5v6.9l0,0c0.4-0.2,0.8-0.4,1.2-0.6c0.2-0.1,0.5-0.2,0.8-0.3c3.4-0.9,6.5,1.4,7.6,4.4
				c0.3,0.6,0,1.3-0.6,1.6c0,0,0,0,0,0c-0.2-0.1-0.5-0.2-0.8-0.2c0.2,0,0.5,0.1,0.7,0.2c-0.2,0.1-0.4,0.2-0.7,0.2
				c0.3,0,0.5,0,0.7-0.2c0.6,0.3,1,1,0.8,1.6c-0.7,3.2-3.6,5.4-6.8,5.2c-0.1,0-0.1,0-0.2,0l0,0l-4.4-0.2h-6.6L-1069.2-565.4
				L-1069.2-565.4z M-1061.8-560.4l0.3,0.1c-0.1-0.1-0.2-0.1-0.3-0.2L-1061.8-560.4z M-1054.1-564.9c0.1-0.3,0.3-0.6,0.6-0.8
				c0,0,0,0-0.1,0c0,0,0,0,0.1,0c-0.3-0.2-0.6-0.5-0.7-0.8c-0.6-1.8-2.6-2.8-4.4-2.2c-0.4,0.1-0.8,0.4-1.2,0.7
				c-0.8,0.7-1.3,1.7-1.3,2.7c0,1.1,0.5,2.1,1.3,2.8c0.5,0.4,1,0.6,1.5,0.8C-1056.2-561.2-1054.5-563-1054.1-564.9L-1054.1-564.9z"
				/>
			<path id="Path_10010" class="st2" d="M-1069.3-558.4l9.8-0.1l0.1,5.5l-9.8,0.1L-1069.3-558.4z"/>
			<path id="Path_2924" class="st19" d="M-1049.1-555.5c1.9,0.6,3.2,2.4,3.1,4.4l0,0c0,1.6-0.9,3.1-2.3,4c-0.7,0.4-1.1,1.2-1.1,2
				v8.5c0,0.3-0.2,0.5-0.5,0.5h-1c-0.2,0-0.4-0.2-0.5-0.4l-0.3-1.1c0-0.1-0.1-0.2-0.2-0.2h-0.7c-0.1,0-0.2-0.1-0.2-0.2c0,0,0,0,0,0
				v-0.9c0-0.1,0.1-0.2,0.2-0.2c0,0,0,0,0,0h0.6c0.1,0,0.2-0.1,0.2-0.2l0,0v-0.2c0-0.1-0.1-0.2-0.2-0.2c0,0,0,0,0,0h-1
				c-0.1,0-0.2-0.1-0.2-0.2l0,0v-0.5c0-0.1,0.1-0.2,0.2-0.2h1c0.1,0,0.2-0.1,0.2-0.2l0,0v-4c0-0.8-0.4-1.6-1.1-2
				c-1.4-0.8-2.3-2.3-2.3-4l0,0c0-2.5,2.1-4.6,4.6-4.6C-1050-555.7-1049.5-555.6-1049.1-555.5z M-1050.5-552.1
				c0.7,0,1.3-0.6,1.3-1.3c0-0.7-0.6-1.3-1.3-1.3s-1.3,0.6-1.3,1.3C-1051.9-552.7-1051.3-552.1-1050.5-552.1L-1050.5-552.1z"/>
			<path id="Path_2925" class="st14" d="M-1053.1-566.3c1.4,0,2.6,1.2,2.6,2.6v9.5c0,0.3-0.2,0.5-0.5,0.5c-0.3,0-0.5-0.2-0.5-0.5
				v-9.5c0-0.8-0.7-1.5-1.5-1.5c-0.7,0-1.3,0.2-1.8,0.7l-0.6-0.9C-1054.8-566-1054-566.3-1053.1-566.3z"/>
			<path id="Path_2932" class="st20" d="M-959.4-565.9l2.6,1l-2.6,1l-1,2.6l-1-2.6l-2.6-1l2.6-1l1-2.6L-959.4-565.9z"/>
			<path id="Path_2933" class="st20" d="M-969.5-563.2l4.9,1.9l-4.9,1.9l-1.9,4.9l-1.9-4.9l-4.9-1.9l4.9-1.9l1.9-4.9L-969.5-563.2z"
				/>
		</g>
		<path id="Rectangle_3414" class="st15" d="M107.8,24.5L107.8,24.5c1.1,0,2,0.9,2,2v0.6c0,1.1-0.9,2-2,2h0c-1.1,0-2-0.9-2-2v-0.6
			C105.8,25.4,106.7,24.5,107.8,24.5z"/>
		<path id="Rectangle_3415" class="st16" d="M107.4,25.5L107.4,25.5c0.9,0,1.6,0.7,1.6,1.6v0.4c0,0.9-0.7,1.6-1.6,1.6h0
			c-0.9,0-1.6-0.7-1.6-1.6v-0.4C105.8,26.2,106.5,25.5,107.4,25.5z"/>
	</g>
	<g id="Group_4419" transform="translate(1210.883 681.738)">
		<g id="Group_4200-2" transform="translate(0 24.845)">
			<path id="Path_9345-2" class="st21" d="M-1023.8-612.8l-44-25.4l44.3-25.6l44,25.4L-1023.8-612.8z"/>
		</g>
		<path id="Path_9346-2" class="st22" d="M-1036-602.5l-11.9-6.9l20.9-12.1l11.9,6.9L-1036-602.5z"/>
		<path id="Path_9347-2" class="st22" d="M-1002.9-607.3l-11.9-6.9l16.1-9.3l11.9,6.9L-1002.9-607.3z"/>
		<path id="Path_9348-2" class="st23" d="M-1003-602.8l-13.7-7.9l-21.1,12.2l13.7,7.9L-1003-602.8z"/>
		<g id="Group_4202-2" transform="translate(44.042 66.265)">
			<g>
				<defs>
					<polygon id="SVGID_1_" points="-1047.1,-669.1 -1060.8,-677 -1081.8,-664.8 -1068.1,-656.9 					"/>
				</defs>
				<clipPath id="SVGID_2_">
					<use xlink:href="#SVGID_1_"  style="overflow:visible;"/>
				</clipPath>
				<g id="Group_4201-2" transform="translate(0)" class="st24">
					<path id="Path_9349-2" class="st25" d="M-1084.3-665.4c0.1,0,0.3,0.1,0.4,0.1c0,0,0.1,0,0.1,0c0.5,0,1,0,1.4-0.2
						c0.2-0.1,0.4-0.1,0.5-0.2c0.1,0,0.2-0.1,0.3-0.1c0.1-0.1,0.1-0.2,0.1-0.3c0-0.1,0-0.2-0.1-0.3c-0.1,0-0.1-0.1-0.2-0.1
						c-0.1,0-0.1,0-0.2-0.1c0,0,0,0-0.1-0.1c0,0,0-0.1-0.1-0.1l0.2-0.2c0,0.1,0.1,0.1,0.1,0.1c0.2,0.1,0.3,0.3,0.5,0.5
						c0.1,0,0.2,0.1,0.3,0.1c0.2,0,0.4,0,0.6,0c0.2,0,0.4,0,0.6-0.1c0.1,0,0.1,0,0.2,0c0.2,0,0.4-0.2,0.6-0.4c0.1-0.2,0-0.5-0.1-0.6
						c-0.1-0.1-0.2-0.2-0.3-0.3c0,0-0.1-0.1-0.1-0.1c-0.1,0-0.1-0.1-0.2-0.1c-0.1,0-0.2-0.1-0.4-0.1l0.4-0.2
						c0.3,0.2,0.8,0.3,1.2,0.2c0.3-0.1,0.6-0.2,0.9-0.4c0.4-0.2,0.8-0.4,1.2-0.6c0.1-0.1,0.2-0.1,0.3-0.2c0.1-0.1,0.2-0.2,0.3-0.4
						c0.2-0.3,0.2-0.6,0.1-0.9l0.3-0.2c0.2,0,0.3,0.1,0.5,0.1c0.1,0,0.2,0,0.3,0c0.1,0,0.3-0.1,0.4-0.1c0.1-0.1,0.2-0.1,0.3-0.2
						c0.1-0.1,0.3-0.1,0.4-0.2c0.4-0.2,0.9-0.4,1.4-0.6c0.3-0.1,0.6-0.2,0.9-0.4c0,0,0.1-0.1,0.1-0.1c0,0,0,0,0-0.1
						c0.1-0.1,0.1-0.2,0-0.3c-0.1-0.2-0.2-0.3-0.4-0.5l0.1-0.1c0.1,0.1,0.1,0.1,0.2,0.2c0.1,0.1,0.2,0.1,0.3,0.1
						c0.1,0,0.2,0.1,0.3,0.1c0.3,0,0.5,0,0.8,0c0.4-0.1,0.7-0.1,1.1-0.1c0.3,0,0.5,0,0.8,0c0.1,0,0.1,0,0.2,0c0.1,0,0.2-0.1,0.2-0.2
						c0,0,0-0.1,0-0.1c0-0.1-0.1-0.3-0.1-0.4c-0.1-0.2-0.2-0.3-0.3-0.5c0-0.1-0.1-0.1-0.1-0.1c-0.1-0.1-0.2-0.2-0.4-0.3
						c-0.1-0.1-0.2-0.1-0.4-0.1l0.7-0.4c0.1,0.3,0.3,0.6,0.5,0.8c0.1,0.2,0.3,0.3,0.5,0.5c0,0,0.1,0.1,0.1,0.1
						c0.1,0.1,0.2,0.1,0.3,0.2c0.4,0.3,0.9,0.4,1.4,0.4c1.3,0.1,1.9-0.9,1.1-1.4c-0.2-0.1-0.3-0.1-0.5-0.2c-0.2,0-0.5-0.1-0.7-0.2
						c0,0-0.1,0-0.1-0.1c0,0,0-0.1,0-0.1c0-0.3,0.7-0.5,0.7-0.7c0-0.1,0-0.1-0.1-0.2c-0.1-0.1-0.2-0.1-0.4-0.1
						c-0.1,0-0.2-0.1-0.3-0.1l-0.3-0.1l0.4-0.2c0.1,0.1,0.1,0.1,0.2,0.1c0.2,0.1,0.4,0.2,0.7,0.2c0.6,0.1,1.2,0,1.7-0.3
						c0,0,0.1-0.1,0.1-0.1c0.2-0.2,0.3-0.4,0.3-0.7c0-0.1-0.1-0.2-0.1-0.3c0-0.3,0.3-0.5,0.6-0.7c0.3-0.2,0.6-0.3,0.9-0.5
						c0,0,0,0,0.1,0c0.1,0,0.1-0.1,0.2-0.2c0,0,0.1-0.1,0.1-0.1l0.2,0.1c-0.1,0-0.1,0.1-0.2,0.1l-0.2,0.2c-0.2,0.1-0.4,0.3-0.5,0.5
						c0,0.1,0,0.3,0.1,0.4c0,0,0.1,0.1,0.1,0.1c0,0,0.1,0,0.2,0.1c0.1,0,0.3,0,0.4,0.1c0.1,0,0.3,0.1,0.4,0.2
						c0.2,0.1,0.4,0.3,0.5,0.4c0.1,0.1,0.1,0.1,0.2,0.1c0.1,0.1,0.3,0.1,0.4,0.2c0.4,0.1,0.8,0,1.1-0.2c0.2-0.1,0.4-0.2,0.5-0.3
						l0.2,0.1c-0.2,0.1-0.3,0.2-0.5,0.3c-0.1,0.1-0.1,0.1-0.2,0.2c-0.1,0.2,0,0.4,0.1,0.6c0.1,0.2,0.2,0.3,0.3,0.4
						c0,0,0.1,0.1,0.1,0.1c0.1,0,0.1,0.1,0.2,0.1c0.1,0,0.1,0,0.2,0c0.1,0,0.2,0,0.4,0l1.6,0.1c0.1,0,0.2,0,0.3,0
						c0.1,0,0.2-0.1,0.2-0.1c0,0,0.1-0.1,0.1-0.1l0.6,0.4c-0.1,0-0.2,0.1-0.3,0.2c-0.1,0.1-0.1,0.2-0.1,0.2c0,0.3-0.1,0.7-0.1,1
						c0,0.1,0,0.1,0,0.2c0,0,0.1,0.1,0.1,0.1c0.1,0,0.2,0.1,0.2,0.1c0.1,0,0.2,0.1,0.4,0.1c0.2,0.1,0.3,0.1,0.5,0.1
						c0.2,0,0.4,0,0.6-0.1c0.4-0.1,0.8-0.2,1.1-0.3c0.1,0,0.2,0,0.2-0.1l0.2,0.1c-0.6,0.1-1.1,0.3-1.7,0.5l-0.2,0.1
						c-0.1,0-0.3,0.1-0.4,0.2c-0.1,0.1-0.1,0.2-0.1,0.3c0,0.2-0.1,0.3-0.1,0.5c0,0,0,0.1,0,0.1c0.1,0.1,0.2,0.1,0.3,0.1l1.7,0.1
						c0,0,0.1,0,0.1,0c0.1,0,0.1,0,0.2,0c0.1,0,0.2-0.1,0.2-0.2c0-0.1,0-0.2,0-0.3c0-0.3,0.4-0.4,0.8-0.6l0.3,0.2
						c-0.2,0.1-0.4,0.3-0.6,0.4c-0.1,0-0.2,0.1-0.2,0.2c0,0.1,0,0.1,0,0.2c0,0.1,0.1,0.3,0.1,0.5c0,0.2,0.1,0.3,0.2,0.5
						c0,0,0.1,0,0.1,0.1c0.2,0.1,0.3,0.1,0.5,0.2c0.1,0,0.2,0,0.3,0c0.2,0,0.4,0,0.6,0.1c0.2,0,0.4,0,0.6,0.1c0.1,0,0.2,0,0.3,0
						c0.1,0,0.2-0.1,0.3-0.1c0.2-0.1,0.4-0.2,0.7-0.3l0.2,0.1c-0.2,0.1-0.4,0.3-0.5,0.5c0,0.1,0,0.1,0,0.2c0,0.1,0.1,0.1,0.2,0.1
						c0.4,0.2,0.8,0.3,1.2,0.3c0.2,0,0.5,0,0.7,0c0.1,0,0.2,0,0.3,0.1c0,0,0.1,0,0.1,0l0.3,0.2l-0.3,0.2c0,0,0,0-0.1,0
						c-0.1,0-0.1-0.1-0.2-0.1c-0.1,0-0.2-0.1-0.3-0.1c0,0-0.1,0-0.1,0c-0.6,0-1.1,0.1-1.7,0.3c-0.1,0-0.2,0.1-0.3,0.1
						c-0.1,0-0.2,0.1-0.3,0.1c-0.1,0.1-0.1,0.2-0.1,0.3c0,0,0,0.1,0,0.1c0,0.1,0,0.1,0.1,0.2c0.1,0,0.1,0.1,0.2,0.1
						c0.1,0,0.1,0,0.2,0.1c0,0,0,0,0.1,0.1c0,0,0.1,0.1,0.1,0.1c0.1,0.1,0.3,0.1,0.4,0l-1,0.6c0.1-0.1,0.2-0.2,0.3-0.3
						c0,0,0-0.1,0-0.1c0-0.1-0.1-0.1-0.1-0.1c-0.2-0.1-0.3-0.3-0.5-0.5c-0.1,0-0.2-0.1-0.3-0.1c-0.1,0-0.3,0-0.4,0
						c-0.3,0-0.6,0-0.8,0.1c-0.1,0-0.2,0-0.3,0.1c-0.2,0.1-0.4,0.2-0.5,0.4c-0.2,0.3,0.1,0.7,0.4,0.9c0,0,0.1,0.1,0.1,0.1
						c0.2,0.1,0.4,0.2,0.6,0.2c0.2,0,0.3-0.1,0.5-0.1c0.2-0.1,0.3-0.1,0.4-0.2l-1.1,0.7c-0.1-0.1-0.2-0.1-0.2-0.2
						c-0.3-0.2-0.6-0.3-0.9-0.2c-0.1,0-0.2,0-0.2,0c-0.3,0.1-0.6,0.2-0.9,0.4c-0.1,0.1-0.3,0.1-0.4,0.2c-0.1,0.1-0.3,0.1-0.4,0.2
						c-0.3,0.2-0.7,0.4-0.9,0.7c0,0.1-0.1,0.1-0.1,0.2c-0.1,0.1-0.1,0.2-0.1,0.3c0,0.1,0,0.2,0,0.4c0,0.2,0.1,0.3,0.2,0.5l-0.2,0.1
						c-0.2-0.1-0.5-0.2-0.7-0.2c-0.1,0-0.2,0-0.3,0c-0.1,0-0.3,0.1-0.4,0.1l-0.1,0c-0.3,0.1-0.5,0.3-0.8,0.4
						c-0.4,0.2-0.8,0.4-1.2,0.5l-0.2,0.1c-0.3,0.1-0.7,0.2-0.9,0.5c-0.1,0.1-0.1,0.2,0,0.3c0.1,0.2,0.2,0.4,0.4,0.5l0.2,0.2
						l-0.5,0.3c-0.2-0.2-0.4-0.3-0.6-0.4l-0.1-0.1c-0.1,0-0.1-0.1-0.2-0.1c-0.3-0.1-0.7-0.3-1-0.3c-0.1,0-0.2,0-0.3,0
						c-0.1,0-0.2,0.1-0.3,0.2c0,0.1,0,0.2,0,0.3c0,0.2,0.1,0.3,0.1,0.5c0,0.1,0,0.2,0.1,0.3c0.1,0.2,0.3,0.3,0.4,0.4
						c0.1,0.1,0.2,0.1,0.3,0.1l-1,0.6c-0.3-0.1-0.6-0.2-0.9-0.2c-0.4,0-0.7,0-1.1,0c-0.2,0-0.5,0.1-0.7,0.2
						c-0.2,0.1-0.4,0.2-0.4,0.4c0,0.1,0,0.2,0.1,0.3c0.2,0.3,0.4,0.5,0.7,0.7l-0.4,0.3c0-0.1-0.1-0.1-0.1-0.1
						c-0.1-0.1-0.1-0.1-0.2-0.2c-0.2-0.1-0.4-0.2-0.7-0.2c-0.6-0.1-1.2,0-1.7,0.3c-0.1,0.1-0.2,0.2-0.3,0.3
						c-0.1,0.1-0.1,0.3-0.1,0.5c0,0,0,0.1,0,0.1c0,0.1,0.1,0.2,0.1,0.2c0,0.3-0.3,0.5-0.6,0.7c-0.3,0.2-0.6,0.3-0.9,0.5
						c0,0-0.1,0-0.1,0.1c-0.1,0.1-0.2,0.2-0.2,0.3l-0.2-0.1l0.1-0.1l0.3-0.2l0.1-0.1c0.2-0.1,0.4-0.3,0.5-0.5c0.1-0.1,0-0.3-0.1-0.4
						c0,0,0,0-0.1,0c0,0-0.1,0-0.2-0.1c-0.1,0-0.3,0-0.4-0.1c-0.1,0-0.3-0.1-0.4-0.2c-0.1-0.1-0.3-0.2-0.4-0.3
						c-0.1-0.1-0.2-0.2-0.4-0.3c-0.1,0-0.1-0.1-0.2-0.1c-0.1,0-0.2-0.1-0.2-0.1c-0.1,0-0.1,0-0.2,0c-0.3,0-0.6,0.1-0.9,0.2
						c-0.2,0.1-0.4,0.2-0.6,0.4l-0.2-0.1c0.2-0.1,0.4-0.3,0.5-0.4c0.1-0.1,0.1-0.1,0.2-0.2c0.1-0.2,0-0.4-0.1-0.6
						c-0.1-0.1-0.1-0.2-0.2-0.3c-0.1-0.1-0.1-0.2-0.2-0.2c-0.1,0-0.1-0.1-0.2-0.1c0,0-0.1,0-0.1,0c-0.1,0-0.3,0-0.4,0l-1.6-0.1
						c-0.1,0-0.2,0-0.3,0c-0.1,0-0.2,0.1-0.2,0.1c-0.1,0-0.1,0.1-0.2,0.1l-0.6-0.4l0.1-0.1c0.1,0,0.1-0.1,0.2-0.1
						c0.1-0.1,0.1-0.2,0.1-0.2c0-0.3,0.1-0.7,0.1-1c0-0.1,0-0.1,0-0.2c0,0-0.1-0.1-0.1-0.1c-0.2-0.1-0.4-0.2-0.6-0.2l-0.1,0
						c-0.1,0-0.2-0.1-0.4-0.1c-0.1,0-0.2,0-0.4,0c-0.1,0-0.2,0-0.3,0.1c-0.4,0.1-0.8,0.2-1.1,0.3c-0.1,0-0.2,0.1-0.3,0.1l-0.2-0.1
						c0.5-0.1,1-0.2,1.5-0.4c0.1,0,0.3-0.1,0.4-0.1c0.1,0,0.3-0.1,0.4-0.2c0.1-0.1,0.1-0.2,0.1-0.3c0-0.2,0.1-0.3,0.1-0.5
						c0,0,0-0.1,0-0.1c-0.1-0.1-0.2-0.1-0.3-0.1l-1.7-0.1c-0.1,0-0.1,0-0.2,0c0,0-0.1,0-0.1,0c-0.1,0-0.1,0.1-0.1,0.1
						c0,0,0,0.1,0,0.1c0,0.1,0,0.2,0,0.3c0,0.3-0.5,0.4-0.8,0.6l-0.3-0.2c0.2-0.1,0.5-0.3,0.7-0.5c0.1,0,0.2-0.1,0.2-0.2
						c0-0.1,0-0.1,0-0.2c0-0.1-0.1-0.2-0.1-0.4c0-0.2-0.1-0.4-0.2-0.6c0,0-0.1-0.1-0.1-0.1c-0.3-0.1-0.5-0.2-0.8-0.2
						c-0.3,0-0.6,0-0.8-0.1c-0.1,0-0.3,0-0.4-0.1c-0.1,0-0.2,0-0.3,0c-0.1,0-0.2,0.1-0.3,0.1c-0.2,0.1-0.5,0.2-0.7,0.4l-0.2-0.1
						c0.3-0.1,0.5-0.3,0.6-0.6c0-0.1,0-0.1,0-0.2c0-0.1-0.1-0.1-0.2-0.1c-0.4-0.2-0.8-0.3-1.2-0.3c-0.2,0-0.5,0-0.7,0
						c-0.1,0-0.1,0-0.2,0c-0.1,0-0.2,0-0.3,0L-1084.3-665.4z M-1075.7-668.6c-0.3,0-0.6,0.1-0.8,0.2c-0.3,0.1-0.5,0.3-0.8,0.4
						c-0.2,0.1-0.4,0.2-0.6,0.3c-0.1,0.1-0.2,0.2-0.2,0.3c-0.1,0.1-0.1,0.2-0.2,0.4c-0.1,0.2-0.2,0.3-0.3,0.5
						c-0.1,0.1-0.3,0.2-0.2,0.3c0,0,0,0,0,0c0.1,0,0.1,0.1,0.2,0.1c0.5,0.2,1,0.2,1.5,0.2c0.2,0,0.5,0,0.7,0
						c0.4-0.1,0.9-0.2,1.3-0.3c0.2-0.1,0.5-0.2,0.7-0.2c0.2-0.1,0.4-0.1,0.6-0.2l0.1,0c0.1,0,0.2-0.1,0.3-0.2c0-0.1,0.1-0.2,0.1-0.3
						c0-0.3,0-0.6,0-0.9c0,0,0-0.1,0-0.1c0,0,0,0-0.1,0c0,0-0.1,0-0.1-0.1c-0.2-0.1-0.3-0.1-0.5-0.1
						C-1074.5-668.7-1075.1-668.7-1075.7-668.6L-1075.7-668.6z M-1077.8-665.1c0.2,0.1,0.4,0,0.5,0l0,0c0.1,0,0.2-0.1,0.3-0.1
						c0.1-0.1,0.2-0.1,0.4-0.1c0.3,0,0.7-0.1,1-0.2c0.1,0,0.1-0.1,0.1-0.2c0,0,0-0.1-0.1-0.1l0,0c-0.1,0-0.2-0.1-0.3-0.1
						c-0.1,0-0.3,0-0.4,0c-0.2,0-0.5,0.1-0.7,0.1c-0.2,0-0.3,0.1-0.4,0.2c-0.1,0.1-0.2,0.1-0.3,0.2
						C-1077.8-665.3-1077.9-665.1-1077.8-665.1L-1077.8-665.1z M-1072.8-667.7c-0.1,0.2,0,0.3,0.1,0.4c0.1,0.1,0.2,0.1,0.3,0.1
						c0.6,0,1.3,0,1.9-0.1c0.1,0,0.2,0,0.3,0c0.1,0,0.2-0.1,0.2-0.1c0.2-0.2,0.4-0.3,0.5-0.5c0,0,0.1-0.1,0.1-0.1
						c0.1-0.1,0.1-0.2,0.1-0.3c0-0.1-0.1-0.2-0.2-0.2l-0.6-0.5c0,0,0,0-0.1-0.1c0,0,0,0-0.1,0c-0.1,0-0.1,0-0.2,0
						c-0.6,0.1-1.2,0.2-1.8,0.4c-0.1,0-0.2,0.1-0.4,0.1c0,0-0.1,0-0.1,0C-1073-668.3-1072.7-668-1072.8-667.7L-1072.8-667.7z
						 M-1069.9-665.3C-1069.8-665.3-1069.8-665.3-1069.9-665.3c0.3,0.1,0.5,0.2,0.7,0.1c0.4,0,0.9-0.1,1.2-0.1c0.3,0,0.7,0.1,1,0.1
						c0.5,0,0.9-0.1,1.3-0.4c0.1-0.1,0.2-0.2,0.3-0.3c0-0.1-0.1-0.3-0.2-0.4c0,0,0,0-0.1,0c-0.2-0.1-0.5-0.1-0.8-0.1
						c-0.3,0-0.6,0.1-0.9,0.1c-0.4,0.1-0.9,0.1-1.3,0.2c-0.1,0-0.2,0-0.3,0.1C-1069.5-665.9-1070.2-665.6-1069.9-665.3
						L-1069.9-665.3z M-1070-669.4c0,0,0.1,0.1,0.1,0.1c0.2,0.1,0.3,0.2,0.5,0.3c0.2,0.1,0.4,0.3,0.5,0.5c0.1,0.1,0.1,0.3,0.1,0.4
						c0,0.2-0.1,0.5-0.3,0.6c-0.2,0.2-0.4,0.3-0.5,0.5c-0.1,0.2-0.1,0.4,0.1,0.5c0,0,0,0,0.1,0l0,0c0.2,0.1,0.4,0.1,0.6,0.1
						c0.1,0,0.2,0,0.3,0c0.7-0.1,1.3-0.3,1.9-0.6c0.1-0.1,0.2-0.1,0.3-0.2c0.3-0.2,0.6-0.4,0.9-0.6l0.1,0c0.2-0.2,0.5-0.4,0.7-0.5
						c0.1-0.1,0.2-0.2,0.2-0.2c0-0.1-0.1-0.2-0.2-0.2c-0.4-0.3-0.8-0.6-1.3-0.9c-0.1,0-0.1-0.1-0.2-0.1c0,0-0.1-0.1-0.1-0.1
						c-0.2-0.1-0.5-0.2-0.8-0.3c-0.2,0-0.4,0-0.6,0c-0.2,0-0.5,0.1-0.7,0.1c-0.3,0-0.7-0.1-1-0.1c0,0-0.1,0-0.1,0c0,0-0.1,0-0.1,0
						c-0.3,0-0.6,0.1-0.6,0.3c0,0,0,0,0,0C-1070.2-669.6-1070.1-669.5-1070-669.4L-1070-669.4z M-1064.7-669.7
						C-1064.7-669.7-1064.7-669.7-1064.7-669.7c0.1,0.1,0.1,0.1,0.2,0.1c0.1,0,0.2,0,0.2,0c0.3-0.1,0.6-0.1,0.8-0.2
						c0.2,0,0.3-0.1,0.2-0.1h0c-0.3-0.2-1,0.1-1.3,0.2C-1064.6-669.8-1064.7-669.8-1064.7-669.7L-1064.7-669.7z M-1064.1-669.4
						c-0.2,0.1-0.5,0.2-0.5,0.3c0,0.2,0.6,0.4,0.7,0.7c0.1,0.3,0,0.6-0.3,0.8c-0.2,0.1-0.3,0.2-0.5,0.4c0,0,0,0,0,0
						c0,0.1,0,0.2,0,0.2c0,0,0,0,0.1,0.1c0.2,0.1,0.4,0.1,0.6,0.1l0.1,0l1.3,0c0.4,0,0.9,0,1.3,0c0.2,0,0.5,0,0.7,0
						c0.1,0,0.2,0,0.3-0.1c0.1,0,0.2-0.1,0.3-0.1c0.3-0.2,0.5-0.5,0.5-0.8c0-0.1,0-0.1,0.1-0.2c0.1-0.2,0.1-0.5,0.2-0.7
						c0-0.1,0-0.2,0-0.3c-0.1-0.1-0.2-0.3-0.4-0.4c-0.1-0.1-0.2-0.1-0.3-0.2c-0.3-0.2-0.6-0.3-0.9-0.4c-0.1,0-0.1,0-0.2,0
						c-0.4,0-0.9,0-1.3,0.1c-0.1,0-0.2,0-0.2,0s-0.2,0-0.2,0C-1063.4-669.6-1063.8-669.5-1064.1-669.4L-1064.1-669.4z
						 M-1062.7-670.2C-1062.7-670.2-1062.7-670.2-1062.7-670.2L-1062.7-670.2c0.2,0.1,0.3,0.2,0.4,0.1c0,0,0.1,0,0.1,0
						c0.2,0,0.4-0.1,0.6-0.2c0.1,0,0.1,0,0.2-0.1c0,0,0.1,0,0.1,0c0.1-0.1,0.2-0.2,0.1-0.4c0,0-0.1-0.1-0.1-0.1l0,0
						c-0.3-0.1-0.7-0.1-1,0.1c-0.1,0.1-0.2,0.1-0.3,0.2C-1062.7-670.5-1062.7-670.4-1062.7-670.2L-1062.7-670.2z M-1061.6-672.4
						c0.1,0,0.2-0.1,0.2-0.1c0.1,0,0.2-0.1,0.3-0.1c0.4-0.1,0.8-0.3,1.1-0.5c0.1,0,0.1-0.1,0.2-0.1c0-0.1,0-0.1,0-0.2l-0.1-0.3
						c-0.1-0.2-0.2-0.3-0.4-0.4c-0.2-0.1-0.5-0.2-0.7-0.2c-0.1,0-0.1,0-0.2,0h-0.1l-0.4,0c-0.2,0-0.4,0-0.6,0c-0.1,0-0.2,0-0.3,0
						c-0.1,0-0.3,0.1-0.4,0.2c-0.2,0.1-0.3,0.3-0.2,0.5c0,0.2,0,0.3,0.1,0.5c0,0.1,0,0.3,0.1,0.4c0,0.1,0,0.2,0,0.3
						c0,0.1,0,0.1,0.1,0.1c0,0,0,0,0.1,0c0,0,0.1,0,0.2,0.1C-1062.4-672.3-1062-672.3-1061.6-672.4L-1061.6-672.4z M-1060.1-672.8
						c-0.1,0-0.2,0-0.3,0c-0.1,0-0.2,0.1-0.3,0.1c0,0-0.1,0.1-0.1,0.1c-0.1,0.1-0.2,0.1-0.3,0.2c-0.2,0.2-0.4,0.3-0.6,0.5
						c0,0-0.1,0.1-0.1,0.1c0,0,0,0.1,0.1,0.1l0,0c0.2,0.1,0.5,0.1,0.8,0.1c0.1,0,0.3,0,0.4,0.1c0.1,0,0.2,0,0.3,0c0,0,0.1,0,0.1,0
						c0.8,0,1.3-0.3,2.1-0.4c0.1,0,0.3,0,0.4,0c0.2,0,0.4-0.1,0.3-0.3c0-0.3-0.2-0.5-0.4-0.7l0,0l0,0c-0.1,0-0.1-0.1-0.2-0.1
						c-0.1,0-0.1,0-0.2,0L-1060.1-672.8z M-1057.7-671.4c-0.1,0-0.1,0-0.2,0c-0.1,0-0.2-0.1-0.3-0.1c-0.1,0-0.2,0-0.3,0l-1.5,0.4
						c-0.2,0-0.3,0.1-0.5,0.2c0,0.1-0.1,0.1,0,0.2c0,0.2,0,0.4,0,0.5c0,0.1,0,0.2,0.1,0.2c0,0,0,0,0.1,0.1c0.1,0.1,0.3,0.1,0.4,0.1
						c0.2,0,0.3,0.1,0.5,0.1c0.2,0,0.4,0.1,0.5,0.1c0.1,0,0.3,0,0.4,0c0.1,0,0.3,0,0.4-0.1l0.3-0.1l0.9-0.3c0.2,0,0.3-0.1,0.5-0.2
						c0.2-0.3,0.2-0.7,0-0.9c0,0,0,0,0,0c0,0-0.1,0-0.1-0.1c-0.2-0.1-0.3-0.1-0.5-0.2C-1057.1-671.3-1057.4-671.4-1057.7-671.4
						L-1057.7-671.4z M-1057-669.6c-0.1,0-0.2,0-0.3,0c-0.1,0-0.2,0-0.3,0l-0.1,0c-0.3,0.1-0.5,0.1-0.8,0.2l0,0
						c-0.1,0-0.2,0.1-0.3,0.2c-0.1,0.1-0.1,0.2-0.1,0.3c0,0.4,0.2,0.8,0.4,1.1c0,0,0.1,0.1,0.1,0.1c0,0,0.1,0,0.1,0
						c0.1,0,0.1,0,0.2,0l0.4,0l0.8-0.1l0.4,0c0.1,0,0.3,0,0.4,0c0,0,0.1,0,0.1,0c0.1,0,0.2-0.1,0.3-0.1c0.1,0,0.3-0.1,0.5-0.2
						c0.5-0.2,1.3-0.5,0.9-0.8c-0.4-0.1-0.8-0.3-1.2-0.3c0,0-0.1,0-0.1,0l-0.2,0C-1056.3-669.4-1056.7-669.5-1057-669.6L-1057-669.6
						z M-1056.4-666.9c0.1-0.2,0-0.3-0.1-0.4c-0.1-0.1-0.2-0.1-0.3-0.1c0,0-0.1,0-0.1,0c-0.2,0-0.5,0-0.7,0c-0.3,0-0.5,0.1-0.8,0.1
						c-0.1,0-0.2,0-0.2,0c-0.1,0-0.2,0-0.3,0c-0.1,0-0.2,0.1-0.2,0.1c-0.2,0.2-0.4,0.4-0.5,0.6l0,0.1c-0.1,0.1-0.1,0.2-0.1,0.3
						c0,0.1,0.1,0.2,0.2,0.2l0.6,0.5c0,0,0,0,0.1,0l0,0c0,0,0,0,0.1,0c0.1,0,0.1,0,0.2,0c0.3,0,0.6-0.1,0.9-0.1
						c0.2,0,0.3-0.1,0.5-0.1c0.3-0.1,0.6-0.2,0.9-0.2c0.1,0,0.2-0.1,0.2-0.1C-1056.2-666.3-1056.4-666.6-1056.4-666.9L-1056.4-666.9
						z M-1059.6-665.4c-0.2-0.3-0.5-0.5-0.8-0.7c0,0-0.1,0-0.1-0.1c-0.2-0.1-0.5-0.2-0.7-0.3c-0.6-0.1-1.2-0.1-1.7,0l-0.1,0l-0.1,0
						l-0.9,0.1l-0.7,0.1c-0.2,0-0.3,0.3-0.3,0.5c0,0,0,0,0,0c0.1,0.1,0.2,0.3,0.3,0.3c0.1,0.1,0.3,0.1,0.5,0.2c0.1,0,0.2,0,0.2,0.1
						c0.3,0.1,0.7,0.1,1,0.1c0.1,0,0.2,0,0.3,0c0.2,0,0.4,0,0.6,0.1c0.1,0,0.2,0.1,0.3,0.1l0.1,0l0.1,0c0,0,0.1,0,0.1,0
						c0.5,0.2,1.1,0.3,1.7,0.1c0,0,0.1,0,0.1,0c0,0,0.1,0,0.1-0.1C-1059.1-664.7-1059.4-665.1-1059.6-665.4L-1059.6-665.4z
						 M-1062.8-663.3c-0.3,0-0.7,0.1-1,0.2c-0.3,0.1-0.7,0.2-1.1,0.3c-0.1,0-0.1,0-0.2,0c-0.1,0-0.3,0-0.4,0c-0.2,0-0.4,0-0.4,0.2
						c-0.1,0.1,0,0.2,0.1,0.3c0,0,0.1,0,0.1,0.1c0.1,0,0.3,0.1,0.4,0.1c0.4,0.1,0.7,0.1,1.1,0.1c0.4,0,0.8-0.1,1.1-0.2
						c0.1,0,0.2-0.1,0.3-0.1c0.2-0.1,0.4-0.2,0.6-0.3c0.1-0.1,0.2-0.3,0.1-0.4c0,0-0.1-0.1-0.1-0.1c0,0,0,0-0.1,0
						C-1062.4-663.3-1062.6-663.3-1062.8-663.3L-1062.8-663.3z M-1065.3-663.2c0.2,0,0.3,0,0.5,0c0.2,0,0.5,0,0.7,0
						c0.1,0,0.2,0,0.3,0c0.1,0,0.2-0.1,0.3-0.2c0.2-0.2,0.4-0.4,0.5-0.7c0-0.1,0-0.1-0.1-0.2c0,0,0,0,0,0c-0.1,0-0.1-0.1-0.2-0.1
						l-0.2,0l-0.7-0.2l-0.5-0.2c-0.2-0.1-0.4-0.1-0.7-0.1c-0.3,0-0.5,0-0.8,0.1c-0.3,0-0.7,0-1,0.1c-0.3,0-0.6,0.1-0.9,0.3
						c0,0-0.1,0.1-0.1,0.1c-0.1,0.2-0.1,0.4,0,0.6c0,0.1,0,0.1,0,0.2c0,0.1,0.1,0.2,0.2,0.2c0.2,0.1,0.3,0.1,0.5,0.1
						C-1066.7-663.3-1066-663.2-1065.3-663.2L-1065.3-663.2z M-1066-660.8c0-0.2,0-0.4-0.1-0.5c0-0.1,0-0.3-0.1-0.4
						c0-0.1,0-0.1,0-0.2c0-0.1,0-0.1-0.1-0.1c0,0,0,0-0.1,0c0,0-0.1,0-0.2-0.1c-0.4-0.1-0.8,0-1.1,0.1c-0.1,0-0.3,0.1-0.4,0.1
						c-0.1,0-0.2,0.1-0.3,0.1c-0.3,0.1-0.7,0.3-1,0.4c-0.1,0-0.1,0.1-0.2,0.1c0,0.1,0,0.1,0,0.2c0,0.1,0.1,0.2,0.1,0.3
						c0.1,0.2,0.2,0.3,0.4,0.4c0.2,0.1,0.5,0.2,0.7,0.2c0.1,0,0.1,0,0.2,0h0.1l0.5,0c0.2,0,0.3,0,0.5,0c0.1,0,0.2,0,0.2,0
						c0.2,0,0.4-0.1,0.5-0.2C-1066.1-660.4-1066-660.6-1066-660.8L-1066-660.8z M-1069-661.8c0.1,0,0.2,0,0.3,0
						c0.1,0,0.2-0.1,0.3-0.1l0,0c0.1-0.1,0.2-0.1,0.3-0.2c0.3-0.2,0.6-0.4,0.8-0.6c0,0,0.1-0.1,0.1-0.1c0,0,0-0.1-0.1-0.1l0,0
						c-0.2-0.1-0.5-0.1-0.8-0.1c-0.2,0-0.3-0.1-0.5-0.1c-0.1,0-0.2,0-0.3,0l-0.1,0c-0.8,0-1.3,0.3-2.1,0.4c-0.2,0-0.4,0-0.6,0.1
						c-0.1,0-0.2,0.1-0.2,0.2c0,0.2,0.2,0.5,0.4,0.6c0,0,0.1,0,0.1,0.1l0,0c0.1,0,0.1,0.1,0.2,0.1c0.1,0,0.1,0,0.2,0L-1069-661.8z
						 M-1071.3-663.1c0.1,0,0.2,0.1,0.3,0.1c0.1,0,0.2,0,0.3,0l1.5-0.4c0.2,0,0.3-0.1,0.5-0.2c0-0.1,0.1-0.1,0-0.2
						c0-0.1,0-0.2,0-0.3v-0.2c0-0.1,0-0.2-0.1-0.2c0,0,0,0-0.1-0.1c-0.1-0.1-0.3-0.1-0.4-0.1c-0.4-0.1-0.7-0.1-1.1-0.2
						c-0.1,0-0.3,0-0.4,0c-0.1,0-0.3,0-0.4,0.1l-0.5,0.1l-0.7,0.2c-0.2,0-0.3,0.1-0.5,0.2c-0.2,0.3-0.2,0.7,0,0.9c0,0,0,0,0,0
						c0,0,0.1,0,0.1,0.1c0.1,0.1,0.2,0.1,0.4,0.1c0.2,0,0.4,0.1,0.6,0.1C-1071.6-663.2-1071.4-663.1-1071.3-663.1L-1071.3-663.1z
						 M-1072.1-665c0.1,0,0.2,0,0.3,0c0,0,0.1,0,0.1,0c0.1,0,0.2,0,0.2,0c0.3-0.1,0.5-0.1,0.8-0.2c0.1,0,0.3-0.1,0.4-0.2
						c0.1-0.1,0.1-0.2,0.1-0.3c0-0.2-0.1-0.4-0.1-0.6c-0.1-0.2-0.2-0.3-0.3-0.5c0,0-0.1-0.1-0.1-0.1c0,0-0.1,0-0.1,0
						c-0.1,0-0.1,0-0.2,0l-1.6,0.1c-0.1,0-0.3,0-0.4,0c-0.1,0-0.2,0.1-0.3,0.1c0,0-0.1,0-0.1,0c-0.1,0.1-0.4,0.2-0.7,0.3
						c-0.5,0.2-1,0.5-0.7,0.7c0.4,0.1,0.8,0.2,1.2,0.3c0.1,0,0.1,0,0.2,0l0.2,0C-1072.9-665.2-1072.5-665.1-1072.1-665L-1072.1-665z
						 M-1071.9-671.2c0,0-0.1,0-0.1-0.1c-0.1,0-0.1,0-0.2,0c-0.1,0-0.1,0-0.2,0l-0.3,0.1l-0.2,0.1c-0.2,0.1-0.4,0.2-0.6,0.2
						c-0.1,0-0.2,0.1-0.3,0.1c-0.2,0.1-0.4,0.2-0.6,0.3c-0.4,0.2-0.9,0.7-0.9,1.1c0,0.1,0.1,0.2,0.1,0.2c0.2,0.1,0.5,0.2,0.7,0.2
						c0.2,0,0.3,0,0.5,0c0.4,0,0.9,0,1.3,0c0,0,0.1,0,0.1,0c0.5-0.1,0.9-0.2,1.3-0.3c0.2,0,0.4-0.1,0.6-0.3c0.1-0.1,0.2-0.3,0.1-0.5
						c-0.1-0.2-0.2-0.3-0.4-0.5c-0.2-0.3-0.5-0.5-0.8-0.7C-1071.8-671.1-1071.8-671.2-1071.9-671.2L-1071.9-671.2z M-1067.4-672
						c-0.1,0-0.1-0.1-0.2-0.1l0,0c-0.3-0.2-0.7-0.3-1-0.3c-0.3,0-0.5,0.1-0.8,0.1c-0.6,0.1-1.7,0.3-2,0.7c0,0,0,0,0,0.1
						c0,0.1,0,0.2,0.1,0.3c0,0,0.1,0.1,0.1,0.1c0.1,0,0.1,0.1,0.2,0.1c0.5,0.1,0.9,0.2,1.4,0.3c0.2,0,0.4,0.1,0.5,0.1
						c0.1,0,0.1,0,0.2,0.1c0.2,0.1,0.4,0.2,0.6,0.2c0.1,0,0.1,0,0.2,0c0.2,0,0.4-0.1,0.5-0.1c0.1,0,0.1-0.1,0.2-0.1
						c0.2-0.1,0.3-0.2,0.5-0.3c0.1-0.1,0.3-0.2,0.3-0.3c0-0.2-0.1-0.3-0.2-0.4l-0.1-0.1C-1067.1-671.8-1067.3-671.9-1067.4-672
						L-1067.4-672z M-1063.9-672.5c-0.2-0.1-0.4-0.1-0.6-0.1c-0.3,0-0.5,0-0.8,0c-0.6-0.1-1.1-0.1-1.7-0.1c-0.1,0-0.2,0.1-0.2,0.2
						c0,0,0,0.1,0,0.1c0,0.2,0.2,0.3,0.5,0.5c0.2,0.2,0.4,0.3,0.5,0.5c0,0.2,0,0.4-0.1,0.5c-0.1,0.3,0,0.6,0.3,0.8
						c0.1,0.1,0.2,0.1,0.3,0.1c0,0,0.1,0,0.1,0c0.2,0,0.3,0,0.5,0c0.5-0.1,1-0.1,1.5-0.3c0.2-0.1,0.5-0.2,0.7-0.3l0,0
						c0.1-0.1,0.3-0.2,0.3-0.3c0-0.2-0.1-0.3-0.2-0.5c-0.2-0.3-0.4-0.5-0.6-0.8c-0.1-0.1-0.2-0.1-0.3-0.2l0,0
						C-1063.7-672.4-1063.8-672.5-1063.9-672.5L-1063.9-672.5z M-1062.7-676L-1062.7-676c-0.1-0.1-0.3,0-0.4,0c0,0,0,0-0.1,0
						c-0.2,0.1-0.4,0.2-0.6,0.3c-0.2,0.1-0.4,0.2-0.5,0.3c0,0-0.1,0.1-0.1,0.1c0,0.1-0.1,0.1,0,0.2c0,0,0,0,0,0c0.1,0,0.2,0.1,0.3,0
						c0.2,0,0.4-0.1,0.6-0.2c0.1-0.1,0.3-0.2,0.4-0.3c0.1-0.1,0.2-0.2,0.3-0.3C-1062.8-675.8-1062.7-675.9-1062.7-676
						C-1062.7-675.9-1062.6-675.9-1062.7-676L-1062.7-676z M-1058.9-675.8C-1058.9-675.8-1058.9-675.9-1058.9-675.8l-0.1-0.1
						l-0.3-0.2c-0.2-0.1-0.4-0.2-0.5-0.3l-0.1,0c-0.1,0-0.2-0.1-0.2-0.1c-0.2-0.1-0.3-0.2-0.5-0.3c-0.1-0.1-0.2-0.1-0.3-0.1
						c-0.3-0.1-0.4-0.1-0.6,0.1c-0.2,0.3-0.2,0.6-0.5,0.9c-0.2,0.2-0.4,0.3-0.5,0.5c-0.1,0.1-0.1,0.2-0.1,0.4
						c0.1,0.1,0.2,0.3,0.3,0.3c0.1,0,0.1,0.1,0.2,0.1c0.1,0,0.2,0.1,0.3,0.1c0.3,0.1,0.6,0.1,0.9,0.1c0.1,0,0.3,0,0.4,0
						c0.1,0,0.3,0,0.4-0.1c0.5-0.1,0.9-0.4,1.1-0.7c0,0,0-0.1,0.1-0.1c0,0,0-0.1,0.1-0.1C-1058.9-675.7-1058.9-675.8-1058.9-675.8
						L-1058.9-675.8z M-1055.2-674c0-0.1-0.1-0.2-0.1-0.2c0-0.1-0.1-0.1-0.1-0.2c-0.1-0.1-0.2-0.2-0.3-0.3l0,0
						c-0.2-0.1-0.4-0.1-0.6-0.1l-1.3-0.2l-0.4-0.1c-0.1,0-0.3,0-0.4,0c-0.1,0-0.2,0-0.3,0.1l-1,0.4c-0.1,0-0.2,0.1-0.2,0.2
						c0,0.1,0,0.1,0,0.2c0.2,0.3,0.3,0.6,0.5,0.8c0,0.1,0.1,0.2,0.2,0.2l0,0c0.1,0,0.2,0.1,0.3,0.1l1,0.2l0.1,0l0.1,0
						c0.1,0,0.2,0,0.4,0c0.2,0,0.3,0,0.5-0.1c0.5-0.1,1.1-0.2,1.6-0.4c0,0,0.1,0,0.1-0.1c0,0,0.1-0.1,0.1-0.2
						C-1055-673.7-1055.1-673.9-1055.2-674L-1055.2-674z M-1054-672.8L-1054-672.8c-0.1,0-0.1,0-0.1-0.1c-0.2-0.1-0.5-0.2-0.7-0.3
						l0,0c-0.1,0-0.1,0-0.2,0c0,0-0.1,0-0.1,0l-1,0.3c-0.3,0.1-0.6,0.2-0.8,0.4c-0.1,0.2-0.1,0.4,0,0.6c0,0,0,0.1,0.1,0.1
						c0.1,0,0.1,0.1,0.2,0.1l1.3,0.2c0.2,0,0.3,0,0.5,0h0c0.5,0.1,1-0.3,1.2-0.8c0-0.1,0.1-0.2,0.1-0.2
						C-1053.7-672.5-1053.9-672.7-1054-672.8L-1054-672.8z M-1050.5-670.5c0-0.1-0.3-0.3-0.5-0.5c-0.1,0-0.1-0.1-0.2-0.1
						c-0.1-0.1-0.3-0.1-0.4-0.2c-0.2,0-0.4-0.1-0.7,0l-2.1,0c-0.2,0-0.3,0-0.5,0c-0.2,0-0.4,0-0.5,0.1c-0.1,0-0.2,0.1-0.3,0.2
						c-0.1,0.1-0.1,0.2-0.1,0.3c0,0.2-0.1,0.5,0,0.7c0,0.2,0.1,0.4,0.3,0.5c0,0,0,0,0,0c0.1,0,0.1,0.1,0.2,0.1
						c0.3,0.1,0.5,0.1,0.8,0.1c0.4,0,0.8,0,1.1,0c0.2,0,0.5,0,0.7-0.1c0.1,0,0.2-0.1,0.3-0.1c0.1,0,0.2-0.1,0.3-0.1l0.1,0l0.8-0.4
						C-1051-670.1-1050.6-670.3-1050.5-670.5C-1050.5-670.5-1050.5-670.5-1050.5-670.5L-1050.5-670.5z M-1053.7-668.8
						C-1053.7-668.8-1053.7-668.7-1053.7-668.8l0.1,0.1c0.1,0,0.2,0.1,0.3,0.1c0.1,0,0.3,0,0.4,0c0.2,0,0.4,0,0.6-0.1
						c0.1,0,0.3-0.1,0.4-0.2c0.2-0.1,0.3-0.2,0.4-0.3c0.2-0.2,0.2-0.3,0.1-0.4c-0.2-0.1-0.4,0-0.5,0c-0.1,0-0.1,0-0.2,0.1
						c-0.1,0-0.2,0.1-0.3,0.1c-0.1,0-0.1,0-0.2,0.1c-0.3,0-0.7,0.1-1,0.2C-1053.7-668.9-1053.7-668.8-1053.7-668.8L-1053.7-668.8z
						 M-1050.2-668.5c0.5,0.1,0.9,0.1,1.4,0.1c0.3,0,0.6-0.1,0.9-0.3c0.2-0.1,0.4-0.2,0.6-0.3c0,0,0.1,0,0.1-0.1
						c0.2-0.1,0.3-0.2,0.3-0.4c-0.1-0.1-0.1-0.2-0.2-0.2c-0.4-0.2-0.7-0.3-1.1-0.4c-0.1,0-0.2-0.1-0.3-0.1c0,0-0.1,0-0.1,0
						c-0.1,0-0.2,0-0.3,0l-0.2,0l-1.3,0c-0.1,0-0.2,0-0.3,0c-0.1,0-0.2,0.2-0.1,0.3c0,0.2,0,0.3,0,0.5c-0.1,0.2-0.2,0.3-0.1,0.5
						c0,0,0,0,0.1,0.1c0.1,0.1,0.3,0.1,0.4,0.1C-1050.4-668.6-1050.3-668.5-1050.2-668.5L-1050.2-668.5z M-1052.7-666.2
						c0.1,0,0.2-0.1,0.3-0.1c0.2-0.1,0.3-0.2,0.5-0.2c0.2-0.1,0.4-0.2,0.6-0.3c0.1-0.1,0.2-0.2,0.2-0.3c0.1-0.1,0.1-0.2,0.1-0.3
						c0.1-0.2,0.2-0.4,0.3-0.5c0.1-0.1,0.2-0.2,0.2-0.2c0,0,0,0-0.1-0.1c-0.1,0-0.1-0.1-0.2-0.1c-0.1,0-0.1,0-0.2-0.1
						c-0.2-0.1-0.4-0.1-0.6-0.1c-0.3,0-0.6-0.1-0.9-0.1c-0.2,0-0.4,0-0.6,0c-0.5,0.1-1,0.2-1.5,0.4c-0.1,0-0.3,0.1-0.4,0.1
						c-0.2,0.1-0.5,0.2-0.7,0.3c0,0-0.1,0.1-0.1,0.1c-0.1,0-0.1,0.1-0.1,0.1c0,0.1-0.1,0.2-0.1,0.3c0,0.3,0,0.6,0,0.9
						c0,0,0,0.1,0,0.1c0,0,0,0,0.1,0c0,0,0.1,0,0.1,0.1l0,0C-1054.7-665.8-1053.7-665.8-1052.7-666.2L-1052.7-666.2z M-1057.6-663.6
						c0.1,0,0.1,0.1,0.2,0.1c0.1,0.1,0.2,0.1,0.3,0.1c0.1,0,0.1,0,0.2,0c0.1,0,0.1,0,0.2,0c0.4-0.1,0.7-0.3,1.1-0.4
						c0.2-0.1,0.4-0.1,0.5-0.2c0.4-0.2,0.7-0.4,1-0.8c0,0,0-0.1,0.1-0.1c0.1-0.1,0.1-0.2,0.2-0.3c0,0,0-0.1,0-0.1
						c0-0.1-0.1-0.2-0.1-0.2c-0.4-0.1-0.8-0.2-1.2-0.2c-0.2,0-0.4,0-0.6,0h-0.1c-0.6,0-1.2,0.1-1.8,0.3l-0.3,0.1
						c-0.2,0-0.4,0.1-0.6,0.3c-0.1,0.1-0.2,0.3-0.1,0.5c0.1,0.2,0.2,0.3,0.4,0.5C-1058-663.9-1057.8-663.8-1057.6-663.6
						L-1057.6-663.6z M-1060.5-662.6c0.2,0.1,0.3,0.2,0.5,0.2c0.2,0,0.4,0,0.6,0c0.3,0,0.7-0.2,1-0.4c0.1-0.1,0.2-0.2,0.2-0.4
						c0-0.1-0.1-0.2-0.1-0.3c0,0-0.1-0.1-0.1-0.1c-0.1,0-0.2-0.1-0.3-0.1c-0.8-0.3-1.7-0.5-2.6-0.4c-0.1,0-0.2,0-0.3,0
						c-0.3,0-0.6,0.1-0.7,0.2s0,0.2,0.2,0.3c0.1,0.1,0.3,0.1,0.4,0.2l0,0l0.4,0.2C-1061.2-663-1060.9-662.8-1060.5-662.6
						L-1060.5-662.6z M-1064.5-660c0.4,0,0.7-0.1,1.1-0.1c0.1,0,0.3,0,0.4,0c0.2,0,0.5,0,0.7,0c0,0,0.1,0,0.1,0
						c0.2,0,0.3-0.1,0.5-0.1c0.2-0.1,0.4-0.2,0.5-0.4c0.1-0.1,0.2-0.2,0.2-0.4c0-0.1,0-0.2,0-0.2c-0.1-0.3-0.3-0.6-0.6-0.7
						c-0.1-0.1-0.3-0.1-0.5-0.2c-0.1,0-0.2-0.1-0.3-0.1c-0.1,0-0.2,0-0.3,0.1l-0.1,0c-0.7,0.2-1.4,0.5-2,0.8
						c-0.3,0.1-0.6,0.3-0.8,0.5c-0.3,0.3-0.2,0.5,0.1,0.7C-1065.1-660.1-1064.8-660-1064.5-660L-1064.5-660z M-1066.4-658.6
						L-1066.4-658.6c0.1,0,0.2,0,0.3,0c0.1,0,0.1,0,0.2-0.1c0.1-0.1,0.3-0.2,0.4-0.2c0.3-0.1,0.5-0.3,0.7-0.4l0,0
						c0.1-0.1,0.2-0.2,0.1-0.2c0,0,0,0,0,0c-0.1,0-0.2-0.1-0.3,0c-0.2,0-0.4,0.1-0.6,0.2c-0.2,0.1-0.3,0.2-0.5,0.4
						c-0.1,0.1-0.1,0.2-0.2,0.2C-1066.4-658.7-1066.6-658.7-1066.4-658.6L-1066.4-658.6z M-1070.3-658.7
						C-1070.2-658.7-1070.2-658.7-1070.3-658.7l0.1,0.1l0.1,0.1c0.2,0.1,0.4,0.2,0.6,0.3c0.1,0,0.1,0.1,0.2,0.1
						c0.1,0,0.2,0.1,0.2,0.1c0.2,0.1,0.3,0.2,0.5,0.3c0.1,0.1,0.2,0.1,0.3,0.1c0.3,0.1,0.4,0.1,0.6-0.1c0.2-0.3,0.2-0.6,0.5-0.9
						c0.1-0.1,0.3-0.2,0.4-0.3c0.1-0.1,0.2-0.3,0.3-0.4c0,0,0-0.1,0-0.1c0-0.1-0.1-0.2-0.2-0.3c0,0-0.1,0-0.1-0.1
						c-0.1,0-0.1-0.1-0.2-0.1c-0.1,0-0.2-0.1-0.3-0.1c-0.3-0.1-0.6-0.1-0.9-0.1c-0.1,0-0.3,0-0.4,0c-0.1,0-0.3,0-0.4,0.1
						c-0.5,0.1-0.9,0.4-1.2,0.8c0,0,0,0.1-0.1,0.1c0,0,0,0,0,0C-1070.3-658.8-1070.3-658.8-1070.3-658.7L-1070.3-658.7z
						 M-1073.9-660.3c0,0.1,0.1,0.2,0.1,0.2c0.1,0.1,0.2,0.2,0.3,0.3l0,0c0.2,0.1,0.4,0.1,0.6,0.1l1.2,0.2l0.5,0.1l0,0
						c0.1,0,0.2,0,0.3,0c0.1,0,0.2,0,0.3-0.1l1-0.4c0.1,0,0.2-0.1,0.2-0.2c0-0.1,0-0.1,0-0.2l-0.5-0.8c0-0.1-0.1-0.2-0.2-0.2l0,0
						c-0.1,0-0.2-0.1-0.3-0.1l-1.1-0.2c-0.1,0-0.1,0-0.2,0c-0.1,0-0.1,0-0.2,0c-0.2,0-0.3,0-0.5,0.1c-0.6,0-1.1,0.2-1.7,0.5
						c0,0,0,0,0,0C-1074.2-660.9-1074-660.6-1073.9-660.3L-1073.9-660.3z M-1075.1-661.8L-1075.1-661.8l0.1,0.1
						c0.1,0.1,0.3,0.1,0.4,0.2c0.1,0,0.2,0.1,0.4,0.1c0.1,0,0.1,0,0.2,0c0,0,0.1,0,0.1,0l1-0.3c0.3-0.1,0.6-0.2,0.8-0.4
						c0.1-0.2,0.1-0.4,0-0.6c0,0,0,0,0,0c0,0,0-0.1-0.1-0.1c-0.1,0-0.1-0.1-0.2-0.1l-1.3-0.2c-0.2,0-0.3,0-0.5,0c-0.1,0-0.1,0-0.2,0
						c-0.5,0-0.9,0.3-1,0.8c0,0.1-0.1,0.2-0.1,0.2C-1075.4-662-1075.3-661.9-1075.1-661.8L-1075.1-661.8z M-1078.6-664
						c0.1,0.2,0.3,0.3,0.5,0.4l0,0c0.2,0.1,0.4,0.2,0.6,0.3c0.2,0,0.4,0.1,0.7,0c0.7,0,1.4,0,2.1,0c0.1,0,0.2,0,0.3,0
						c0.2,0,0.3,0,0.5-0.1c0.2,0,0.4-0.1,0.5-0.2c0.1-0.1,0.1-0.2,0.1-0.3c0-0.2,0.1-0.5,0-0.7c0-0.2-0.1-0.4-0.3-0.5c0,0,0,0,0,0
						c-0.1,0-0.1-0.1-0.2-0.1c-0.2-0.1-0.5-0.1-0.8-0.1c-0.4,0-0.8,0-1.1,0c-0.2,0-0.5,0-0.7,0.1c-0.2,0-0.3,0.1-0.4,0.2
						c0,0-0.1,0-0.1,0.1l-0.2,0.1l-0.6,0.3c-0.2,0.1-0.7,0.3-0.7,0.4C-1078.7-664.1-1078.6-664-1078.6-664L-1078.6-664z
						 M-1082.3-665.1c0.1,0.1,0.1,0.2,0.2,0.2c0.3,0.2,0.7,0.3,1,0.4l0.1,0c0.1,0,0.2,0.1,0.3,0.1c0.1,0,0.2,0,0.3,0h0.1l1.5,0
						c0.1,0,0.2,0,0.3,0c0.2-0.1,0.2-0.2,0.1-0.3c0-0.2,0-0.3,0-0.5c0.1-0.2,0.2-0.3,0.1-0.5c0,0,0,0-0.1-0.1
						c-0.1-0.1-0.3-0.1-0.4-0.1c-0.1,0-0.2,0-0.3-0.1c-0.2,0-0.3-0.1-0.5-0.1c-0.1,0-0.1,0-0.2,0c-0.3,0-0.5,0-0.8,0
						c-0.3,0-0.6,0.1-0.9,0.3c-0.2,0.1-0.4,0.2-0.6,0.3c-0.1,0-0.2,0.1-0.3,0.2C-1082.3-665.3-1082.4-665.2-1082.3-665.1
						L-1082.3-665.1z"/>
				</g>
			</g>
		</g>
		<path id="Path_9351-2" class="st26" d="M-1003-602.8l-0.9,0.5l-12.8-7.4v-1L-1003-602.8z"/>
		<path id="Path_9352-2" class="st27" d="M-1016.7-610.7v1l-20.2,11.7l-0.9-0.5L-1016.7-610.7z"/>
		<g id="Group_4203-2" transform="translate(69.576 64.764)">
			<path id="Path_9353-2" class="st28" d="M-1087.7-673.8v1.5c0,0,0,0.1-0.1,0.1s-0.1,0-0.1-0.1v-0.3l-1,0.6v0.5c0,0,0,0.1-0.1,0.1
				c0,0-0.1,0-0.1-0.1v-0.6v0l0,0v-0.6v0l0,0v-0.3c0,0,0-0.1,0.1-0.1c0,0,0.1,0,0.1,0.1v0.2l1-0.6v-0.3
				C-1087.9-673.8-1087.9-673.8-1087.7-673.8C-1087.8-673.8-1087.7-673.8-1087.7-673.8L-1087.7-673.8z M-1087.9-672.8v-0.5l-1,0.6
				v0.5L-1087.9-672.8z"/>
			<path id="Path_9354-2" class="st29" d="M-1087.8-674.9l-0.7-1.6c0-0.1-0.1-0.1-0.2-0.1c0,0-0.1,0.1-0.1,0.1v1.4
				c0,0,0,0.1,0.1,0.1s0.1,0,0.1-0.1l0,0v-1.2l0.7,1.4c0,0.1,0.1,0.2,0.1,0.3v0.4l-1,0.6v-0.3c0-0.1,0-0.3-0.1-0.4l-0.7-1.6
				c0-0.1-0.1-0.1-0.2-0.1c0,0-0.1,0.1-0.1,0.1v1.4c0,0,0,0.1,0.1,0.1c0,0,0.1,0,0.1-0.1v-1.2l0.7,1.4c0,0.1,0.1,0.2,0.1,0.3v0.4h0
				l0,0v0.5c0,0,0,0.1,0.1,0.1c0,0,0.1,0,0.1-0.1v-0.4l1-0.6v0.4c0,0,0,0.1,0.1,0.1s0.1,0,0.1-0.1v-0.9
				C-1087.7-674.6-1087.8-674.7-1087.8-674.9z"/>
		</g>
		<path id="Path_9355-2" class="st30" d="M-991.1-617.3l6.8,3.9l-14.7,8.5l-6.8-3.9L-991.1-617.3z"/>
		<path id="Path_9356-2" class="st31" d="M-991-617.4v0.5l-14.5,8.3l-0.4-0.2L-991-617.4z"/>
		<path id="Path_9357-2" class="st32" d="M-991-617.4v0.5l6.4,3.7l0.4-0.2L-991-617.4z"/>
		<g id="Group_4204-2" transform="translate(2.129 31.098)">
			
				<linearGradient id="Path_9358-2_1_" gradientUnits="userSpaceOnUse" x1="-1234.322" y1="-463.7961" x2="-1234.2771" y2="-463.952" gradientTransform="matrix(49.4 0 0 -31.349 60047.9688 -14923.9395)">
				<stop  offset="0" style="stop-color:#659C6B"/>
				<stop  offset="1" style="stop-color:#8FBA5F"/>
			</linearGradient>
			<path id="Path_9358-2" class="st33" d="M-1033.2-664.8v1.8l-33.6,19.5v-1.8L-1033.2-664.8z"/>
			<path id="Path_9359-2" class="st34" d="M-1033.2-663l-33.6,19.5v-0.5l33.6-19.5V-663z"/>
			
				<linearGradient id="Path_9360-2_1_" gradientUnits="userSpaceOnUse" x1="-1259.8616" y1="-425.9808" x2="-1260.2068" y2="-425.4859" gradientTransform="matrix(51.745 0 0 -46.849 62887.7539 -22238.8301)">
				<stop  offset="0" style="stop-color:#AEB666"/>
				<stop  offset="1" style="stop-color:#779F6D"/>
			</linearGradient>
			<path id="Path_9360-2" class="st35" d="M-1033.2-664.8l-1.7-1l-33.5,19.6l1.6,0.9l19.6,11.4l1.6-0.9l-19.5-11.5L-1033.2-664.8z"
				/>
			
				<linearGradient id="Path_9361-2_1_" gradientUnits="userSpaceOnUse" x1="-1261.9628" y1="-411.6479" x2="-1261.9097" y2="-411.8221" gradientTransform="matrix(31.181 0 0 -20.7631 37963.9062 -9901.7861)">
				<stop  offset="0" style="stop-color:#659C6B"/>
				<stop  offset="1" style="stop-color:#8FBA5F"/>
			</linearGradient>
			<path id="Path_9361-2" class="st36" d="M-1066.9-645.2L-1066.9-645.2l-1.6-0.9v1.8l1.4,0.8l0,0l19.8,11.5v-1.8L-1066.9-645.2z"/>
			<path id="Path_9362-2" class="st34" d="M-1068.5-644.3l21.2,12.3v-0.5l-21.2-12.3V-644.3z"/>
			
				<linearGradient id="Path_9363-2_1_" gradientUnits="userSpaceOnUse" x1="-1781.3088" y1="-577.0939" x2="-1781.4326" y2="-577.9184" gradientTransform="matrix(2.345 0 0 -3.992 3045.5107 -1971.8353)">
				<stop  offset="0" style="stop-color:#659C6B"/>
				<stop  offset="1" style="stop-color:#8FBA5F"/>
			</linearGradient>
			<path id="Path_9363-2" class="st37" d="M-1047.2-633.8v1.8l1.6-0.9v-1.8L-1047.2-633.8z"/>
			<path id="Path_9364-2" class="st34" d="M-1047.2-632l1.6-0.9v-0.5l-1.6,0.9V-632z"/>
		</g>
		<path id="Path_9365-2" class="st32" d="M-1010.8-631.6v19.7l-21.3-12.3v-19.7L-1010.8-631.6z"/>
		<path id="Path_9366-2" class="st31" d="M-1010.8-631.6v19.7l12.7-7.3V-639L-1010.8-631.6z"/>
		<path id="Path_9367-2" class="st38" d="M-1010.8-627.9v15.9l9.7-5.6v-16L-1010.8-627.9z"/>
		<path id="Path_9368-2" class="st38" d="M-1010.8-627.9v15.9l-7-4.1v-16L-1010.8-627.9z"/>
		<path id="Path_9369-2" class="st21" d="M-998.1-638.9l-21.3-12.3l-12.7,7.3l21.3,12.3L-998.1-638.9z"/>
		<path id="Path_9370-2" class="st32" d="M-1010.8-639v5.1l-17.4-10v-5.1L-1010.8-639z"/>
		<path id="Path_9371-2" class="st31" d="M-1010.8-639v5.1l9.7-5.6v-5.1L-1010.8-639z"/>
		<path id="Path_9372-2" class="st39" d="M-1000.3-644.6l-10.5,6.1l-18-10.4l10.6-6.1L-1000.3-644.6z"/>
		<g id="Group_4205-2" transform="translate(57.195)">
			<path id="Path_9373-2" class="st40" d="M-1057.5-645.4l-10.5,6.1l-18-10.4l10.6-6.1L-1057.5-645.4z"/>
			<path id="Path_9374-2" class="st41" d="M-1068-639.3v0.9l-18-10.4v-0.9L-1068-639.3z"/>
			<path id="Path_9375-2" class="st42" d="M-1057.5-645.4v0.9l-10.5,6.1v-0.9L-1057.5-645.4z"/>
		</g>
		
			<linearGradient id="Path_9376-2_1_" gradientUnits="userSpaceOnUse" x1="-1235.5226" y1="-422.2988" x2="-1235.302" y2="-421.6479" gradientTransform="matrix(48.218 0 0 -27.838 58532.0469 -12369.7402)">
			<stop  offset="0" style="stop-color:#59595C"/>
			<stop  offset="0.535" style="stop-color:#595459"/>
			<stop  offset="1" style="stop-color:#5C4B53"/>
		</linearGradient>
		<path id="Path_9376-2" class="st43" d="M-1041.1-614.2l-11.9-6.9l20.9-12.1l11.9,6.9L-1041.1-614.2z"/>
		<path id="Path_9377-2" class="st32" d="M-1041.1-614.2v8.9l-11.9-6.9v-8.9L-1041.1-614.2z"/>
		<path id="Path_9378-2" class="st31" d="M-1020.2-626.2v8.9l-20.9,12.1v-8.9L-1020.2-626.2z"/>
		<path id="Path_9379-2" class="st32" d="M-1041.1-616.1v1.4l-11.9-6.9v-1.4L-1041.1-616.1z"/>
		<path id="Path_9380-2" class="st40" d="M-1041.1-616.1l-11.9-6.9l20.9-12.1l11.9,6.9L-1041.1-616.1z"/>
		<path id="Path_9381-2" class="st31" d="M-1020.2-628.2v1.4l-20.9,12.1v-1.4L-1020.2-628.2z"/>
		<path id="Path_9382-2" class="st32" d="M-1001.6-633.3v15.5l0.5,0.3v-16L-1001.6-633.3z"/>
		<path id="Path_9383-2" class="st31" d="M-1017.4-631.7v15.5l-0.5,0.3v-16L-1017.4-631.7z"/>
		<path id="Path_9384-2" class="st21" d="M-1017.4-616.2l6.6,3.7v0.6l-7-4.1L-1017.4-616.2z"/>
		<path id="Path_9385-2" class="st21" d="M-1001.6-617.8l-9.3,5.3v0.6l9.7-5.6L-1001.6-617.8z"/>
		<g id="Group_4206-2" transform="translate(43.011 47.806)">
			<path id="Path_9386-2" class="st38" d="M-1081.5-654.9v-7.1l15.7-9v7L-1081.5-654.9z"/>
			<path id="Path_9387-2" class="st44" d="M-1081.5-655.1v0.2l15.8-9.1l-0.1-0.1L-1081.5-655.1z"/>
			<path id="Path_9388-2" class="st32" d="M-1065.6-663.8l-0.3-0.1v-7l0.3-0.1V-663.8z"/>
			<path id="Path_9389-2" class="st21" d="M-1081.5-654.9v0.3l15.9-9.2l-0.3-0.1L-1081.5-654.9z"/>
			<path id="Path_9390-2" class="st44" d="M-1065.9-663.7l-0.1-0.1v-7l0.1-0.1V-663.7z"/>
			<path id="Path_9391-2" class="st44" d="M-1081.5-660.8v0.2l15.8-9.1l-0.1-0.1L-1081.5-660.8z"/>
			<path id="Path_9392-2" class="st45" d="M-1065.9-663.7v-7.1l0.2-0.1v7.1L-1065.9-663.7z"/>
			<path id="Path_9393-2" class="st44" d="M-1068.7-662.1l-0.1-0.1v-7l0.1-0.1V-662.1z"/>
			<path id="Path_9394-2" class="st45" d="M-1068.7-662.1v-7.1l0.2-0.1v7.1L-1068.7-662.1z"/>
			<path id="Path_9395-2" class="st44" d="M-1071.5-660.5l-0.1-0.1v-7l0.1-0.1V-660.5z"/>
			<path id="Path_9396-2" class="st45" d="M-1071.5-660.5v-7.1l0.2-0.1v7.1L-1071.5-660.5z"/>
			<path id="Path_9397-2" class="st44" d="M-1074.2-658.9l-0.1-0.1v-7l0.1-0.1V-658.9z"/>
			<path id="Path_9398-2" class="st45" d="M-1074.2-658.9v-7.1l0.2-0.1v7.1L-1074.2-658.9z"/>
			<path id="Path_9399-2" class="st44" d="M-1077-657.3l-0.1-0.1v-7l0.1-0.1V-657.3z"/>
			<path id="Path_9400-2" class="st45" d="M-1077-657.3v-7.1l0.2-0.1v7.1L-1077-657.3z"/>
			<path id="Path_9401-2" class="st45" d="M-1081.5-660.4v-0.2l15.8-9.1v0.2L-1081.5-660.4z"/>
			<path id="Path_9402-2" class="st45" d="M-1081.5-654.7v-0.2l15.8-9.1v0.2L-1081.5-654.7z"/>
			<path id="Path_9403-2" class="st45" d="M-1081.5-661.8v-0.2l15.8-9.1v0.1L-1081.5-661.8z"/>
			<path id="Path_9404-2" class="st46" d="M-1066-669.4l-2.5,1.4l2.5,3.9V-669.4z"/>
			<path id="Path_9405-2" class="st46" d="M-1068.8-667.8l-2.5,1.4l2.5,3.9V-667.8z"/>
			<path id="Path_9406-2" class="st46" d="M-1071.6-666.2l-2.5,1.4l2.5,3.9V-666.2z"/>
			<path id="Path_9407-2" class="st46" d="M-1074.3-664.6l-2.5,1.4l2.5,3.9V-664.6z"/>
			<path id="Path_9408-2" class="st46" d="M-1077.1-662.9l-2.5,1.4l2.5,3.9V-662.9z"/>
		</g>
		<g id="Group_4207-2" transform="translate(66.071 28.34)">
			<path id="Path_9409-2" class="st38" d="M-1086.8-659.1v-4.6l-2.1-1.2v4.6L-1086.8-659.1z"/>
			<path id="Path_9410-2" class="st44" d="M-1088.7-660.1L-1088.7-660.1l0.1-4.6l-0.1,0V-660.1z"/>
			<path id="Path_9411-2" class="st45" d="M-1088.7-660.1v-4.6l-0.2-0.1v4.6L-1088.7-660.1z"/>
			<path id="Path_9412-2" class="st44" d="M-1088.7-660.4l1.9,1.1v-0.1L-1088.7-660.4L-1088.7-660.4z"/>
			<path id="Path_9413-2" class="st45" d="M-1088.9-660.5l2.1,1.2v0.2l-2.1-1.2V-660.5z"/>
			<path id="Path_9414-2" class="st45" d="M-1088.9-664.9l2.1,1.2v0.2l-2.1-1.2V-664.9z"/>
			<path id="Path_9415-2" class="st45" d="M-1086.8-659.1v-4.6l-0.2-0.1v4.6L-1086.8-659.1z"/>
			<path id="Path_9416-2" class="st46" d="M-1088.6-664.5l1.6,0.9l-1.6,3.2V-664.5z"/>
		</g>
		<g id="Group_4208-2" transform="translate(61.131 25.479)">
			<path id="Path_9417-2" class="st38" d="M-1085.2-658.2v-4.6l-2.1-1.2v4.6L-1085.2-658.2z"/>
			<path id="Path_9418-2" class="st44" d="M-1087.1-659.2L-1087.1-659.2l0.1-4.6l-0.1,0V-659.2z"/>
			<path id="Path_9419-2" class="st45" d="M-1087.1-659.2v-4.6l-0.2-0.1v4.6L-1087.1-659.2z"/>
			<path id="Path_9420-2" class="st44" d="M-1087.1-659.5l1.9,1.1v-0.1L-1087.1-659.5L-1087.1-659.5z"/>
			<path id="Path_9421-2" class="st45" d="M-1087.3-659.6l2.1,1.2v0.2l-2.1-1.2V-659.6z"/>
			<path id="Path_9422-2" class="st45" d="M-1087.3-663.9l2.1,1.2v0.2l-2.1-1.2V-663.9z"/>
			<path id="Path_9423-2" class="st45" d="M-1085.2-658.2v-4.6l-0.2-0.1v4.6L-1085.2-658.2z"/>
			<path id="Path_9424-2" class="st46" d="M-1087-663.6l1.6,0.9l-1.6,3.2V-663.6z"/>
		</g>
		<g id="Group_4215-2" transform="translate(25.156 54.538)">
			<g id="Group_4210-2" transform="translate(7.224 4.057)">
				<path id="Path_9425-2" class="st21" d="M-1077.8-667.7l1.5,0.8v0.4l-1.8-1.1L-1077.8-667.7z"/>
				<path id="Path_9426-2" class="st31" d="M-1077.8-674.3v6.7l-0.3,0.2v-7L-1077.8-674.3z"/>
				<g id="Group_4209-2" transform="translate(0.262 0.152)">
					<path id="Path_9427-2" class="st38" d="M-1076.5-666.8v-6.8l-1.7-1v6.8L-1076.5-666.8z"/>
					<path id="Path_9428-2" class="st44" d="M-1078-667.6L-1078-667.6l0.1-6.8l-0.1,0V-667.6z"/>
					<path id="Path_9429-2" class="st45" d="M-1078-667.6v-6.8l-0.2-0.1v6.8L-1078-667.6z"/>
					<path id="Path_9430-2" class="st44" d="M-1078-667.8l1.5,0.8v-0.1L-1078-667.8L-1078-667.8z"/>
					<path id="Path_9431-2" class="st45" d="M-1078.2-668l1.7,0.9v0.2l-1.7-1V-668z"/>
					<path id="Path_9432-2" class="st45" d="M-1078.2-674.6l1.7,1v0.2l-1.7-1V-674.6z"/>
					<path id="Path_9433-2" class="st45" d="M-1076.5-666.8v-6.8l-0.2-0.1v6.8L-1076.5-666.8z"/>
					<path id="Path_9434-2" class="st46" d="M-1077.9-674.2l1.2,0.7l-1.2,5.6V-674.2z"/>
				</g>
			</g>
			<g id="Group_4212-2" transform="translate(3.605 2.016)">
				<path id="Path_9435-2" class="st21" d="M-1076.6-667l1.5,0.8v0.4l-1.8-1.1L-1076.6-667z"/>
				<path id="Path_9436-2" class="st31" d="M-1076.6-673.7v6.7l-0.3,0.2v-7L-1076.6-673.7z"/>
				<g id="Group_4211-2" transform="translate(0.262 0.152)">
					<path id="Path_9437-2" class="st38" d="M-1075.4-666.1v-6.8l-1.7-1v6.8L-1075.4-666.1z"/>
					<path id="Path_9438-2" class="st44" d="M-1076.9-667L-1076.9-667l0.1-6.8l-0.1,0V-667z"/>
					<path id="Path_9439-2" class="st45" d="M-1076.9-667v-6.8l-0.2-0.1v6.8L-1076.9-667z"/>
					<path id="Path_9440-2" class="st44" d="M-1076.8-667.2l1.5,0.8v-0.1L-1076.8-667.2L-1076.8-667.2z"/>
					<path id="Path_9441-2" class="st45" d="M-1077.1-667.3l1.7,0.9v0.2l-1.7-1V-667.3z"/>
					<path id="Path_9442-2" class="st45" d="M-1077.1-673.9l1.7,1v0.2l-1.7-1V-673.9z"/>
					<path id="Path_9443-2" class="st45" d="M-1075.4-666.1v-6.8l-0.2-0.1v6.8L-1075.4-666.1z"/>
					<path id="Path_9444-2" class="st46" d="M-1076.8-673.5l1.2,0.7l-1.2,5.6V-673.5z"/>
				</g>
			</g>
			<g id="Group_4214-2" transform="translate(0)">
				<path id="Path_9445-2" class="st21" d="M-1075.5-666.4l1.5,0.8v0.4l-1.8-1.1L-1075.5-666.4z"/>
				<path id="Path_9446-2" class="st31" d="M-1075.5-673v6.7l-0.3,0.2v-7L-1075.5-673z"/>
				<g id="Group_4213-2" transform="translate(0.262 0.152)">
					<path id="Path_9447-2" class="st38" d="M-1074.2-665.5v-6.8l-1.7-1v6.8L-1074.2-665.5z"/>
					<path id="Path_9448-2" class="st44" d="M-1075.7-666.3L-1075.7-666.3l0.1-6.8l-0.1,0V-666.3z"/>
					<path id="Path_9449-2" class="st45" d="M-1075.7-666.3v-6.8l-0.2-0.1v6.8L-1075.7-666.3z"/>
					<path id="Path_9450-2" class="st44" d="M-1075.7-666.6l1.5,0.8v-0.1L-1075.7-666.6L-1075.7-666.6z"/>
					<path id="Path_9451-2" class="st45" d="M-1075.9-666.7l1.7,0.9v0.2l-1.7-1V-666.7z"/>
					<path id="Path_9452-2" class="st45" d="M-1075.9-673.3l1.7,1v0.2l-1.7-1V-673.3z"/>
					<path id="Path_9453-2" class="st45" d="M-1074.2-665.5v-6.8l-0.2-0.1v6.8L-1074.2-665.5z"/>
					<path id="Path_9454-2" class="st46" d="M-1075.6-672.9l1.2,0.7l-1.2,5.6V-672.9z"/>
				</g>
			</g>
		</g>
		<g id="Group_4217-2" transform="translate(76.032 10.452)">
			<g id="Group_4216-2" transform="translate(0)">
				<path id="Path_9455-2" class="st47" d="M-1081.1-657.1l-7.3,4.2l-3.6-2.1l7.3-4.2L-1081.1-657.1z"/>
				<path id="Path_9456-2" class="st48" d="M-1092.1-655v0.2l3.6,2.1v-0.2L-1092.1-655z"/>
				<path id="Path_9457-2" class="st49" d="M-1081.1-656.8v-0.2l-7.3,4.2v0.2L-1081.1-656.8z"/>
				<path id="Path_9458-2" class="st49" d="M-1084.8-659.2l3.6,2.1l-7.3,4.2l-3.6-2.1L-1084.8-659.2z M-1081.4-657.1l-3.4-2
					l-7.1,4.1l3.4,2L-1081.4-657.1z"/>
				<path id="Path_9459-2" class="st49" d="M-1084-658.6l-7.2,4.2l0.1,0.1L-1084-658.6L-1084-658.6z"/>
				<path id="Path_9460-2" class="st49" d="M-1083.1-658.2l-7.2,4.2l0.1,0.1L-1083.1-658.2L-1083.1-658.2z"/>
				<path id="Path_9461-2" class="st49" d="M-1085.8-658.5l3.6,2.1l-0.1,0L-1085.8-658.5L-1085.8-658.5z"/>
				<path id="Path_9462-2" class="st49" d="M-1086.8-658l3.6,2.1l-0.1,0L-1086.8-658L-1086.8-658z"/>
				<path id="Path_9463-2" class="st49" d="M-1087.8-657.4l3.6,2.1l-0.1,0L-1087.8-657.4L-1087.8-657.4z"/>
				<path id="Path_9464-2" class="st49" d="M-1088.8-656.8l3.6,2.1l-0.1,0L-1088.8-656.8L-1088.8-656.8z"/>
				<path id="Path_9465-2" class="st49" d="M-1089.8-656.3l3.6,2.1l-0.1,0L-1089.8-656.3L-1089.8-656.3z"/>
				<path id="Path_9466-2" class="st49" d="M-1090.8-655.7l3.6,2.1l-0.1,0L-1090.8-655.7L-1090.8-655.7z"/>
				<path id="Path_9467-2" class="st49" d="M-1082.2-657.6l-7.2,4.2l0.1,0.1L-1082.2-657.6L-1082.2-657.6z"/>
			</g>
			<path id="Path_9468-2" class="st46" d="M-1088.4-653l-3.4-2l7.1-4.1L-1088.4-653z"/>
		</g>
		<g id="Group_4219-2" transform="translate(64.307 3.71)">
			<g id="Group_4218-2" transform="translate(0)">
				<path id="Path_9469-2" class="st47" d="M-1077.4-654.9l-7.3,4.2l-3.6-2.1l7.3-4.2L-1077.4-654.9z"/>
				<path id="Path_9470-2" class="st48" d="M-1088.3-652.8v0.2l3.6,2.1v-0.2L-1088.3-652.8z"/>
				<path id="Path_9471-2" class="st49" d="M-1077.4-654.7v-0.2l-7.3,4.2v0.2L-1077.4-654.7z"/>
				<path id="Path_9472-2" class="st49" d="M-1081-657l3.6,2.1l-7.3,4.2l-3.6-2.1L-1081-657z M-1077.6-654.9l-3.4-2l-7.1,4.1l3.4,2
					L-1077.6-654.9z"/>
				<path id="Path_9473-2" class="st49" d="M-1080.2-656.5l-7.2,4.2l0.1,0.1L-1080.2-656.5L-1080.2-656.5z"/>
				<path id="Path_9474-2" class="st49" d="M-1079.4-656l-7.2,4.2l0.1,0.1L-1079.4-656L-1079.4-656z"/>
				<path id="Path_9475-2" class="st49" d="M-1082.1-656.4l3.6,2.1l-0.1,0L-1082.1-656.4L-1082.1-656.4z"/>
				<path id="Path_9476-2" class="st49" d="M-1083.1-655.8l3.6,2.1l-0.1,0L-1083.1-655.8L-1083.1-655.8z"/>
				<path id="Path_9477-2" class="st49" d="M-1084-655.3l3.6,2.1l-0.1,0L-1084-655.3L-1084-655.3z"/>
				<path id="Path_9478-2" class="st49" d="M-1085-654.7l3.6,2.1l-0.1,0L-1085-654.7L-1085-654.7z"/>
				<path id="Path_9479-2" class="st49" d="M-1086-654.1l3.6,2.1l-0.1,0L-1086-654.1L-1086-654.1z"/>
				<path id="Path_9480-2" class="st49" d="M-1087-653.5l3.6,2.1l-0.1,0L-1087-653.5L-1087-653.5z"/>
				<path id="Path_9481-2" class="st49" d="M-1078.4-655.5l-7.2,4.2l0.1,0.1L-1078.4-655.5L-1078.4-655.5z"/>
			</g>
			<path id="Path_9482-2" class="st46" d="M-1084.7-650.8l-3.4-2l7.1-4.1L-1084.7-650.8z"/>
		</g>
		<g id="Group_4221-2" transform="translate(35.654 33.731)">
			<g id="Group_4220-2" transform="translate(0)">
				<path id="Path_9483-2" class="st50" d="M-1065.2-661.6l-3.8-2.2l-9.9,5.7l3.8,2.2L-1065.2-661.6z"/>
				<path id="Path_9484-2" class="st48" d="M-1075.1-655.3v-0.6l-3.8-2.2v0.6L-1075.1-655.3z"/>
				<path id="Path_9485-2" class="st49" d="M-1075.1-655.9v0.6l9.9-5.7v-0.6L-1075.1-655.9z"/>
				<path id="Path_9486-2" class="st51" d="M-1065.4-662.3l-3.1-1.8l-10,5.8l3.1,1.8L-1065.4-662.3z"/>
				<path id="Path_9487-2" class="st47" d="M-1075.5-656.8l-3.5-3.7l10.1-5.8l3.4,3.7L-1075.5-656.8z"/>
				<path id="Path_9488-2" class="st52" d="M-1079.2-660.6c0-0.1,0-0.1,0.1-0.2l10.1-5.8c0.1,0,0.2,0,0.3,0l3.4,3.7
					c0.1,0.1,0.1,0.2,0,0.3c0,0,0,0,0,0l-10.1,5.8c-0.1,0-0.2,0-0.3,0l-3.5-3.7C-1079.2-660.5-1079.2-660.5-1079.2-660.6z
					 M-1079-660.6l3.5,3.7l10.1-5.8l-3.4-3.7L-1079-660.6z"/>
				<path id="Path_9489-2" class="st53" d="M-1070-665.8L-1070-665.8l3.6,3.8l-0.1,0.1L-1070-665.8z"/>
				<path id="Path_9490-2" class="st53" d="M-1071.2-665.1L-1071.2-665.1l3.6,3.8l-0.1,0.1L-1071.2-665.1z"/>
				<path id="Path_9491-2" class="st53" d="M-1072.4-664.4L-1072.4-664.4l3.6,3.8l-0.1,0.1L-1072.4-664.4z"/>
				<path id="Path_9492-2" class="st53" d="M-1073.5-663.8L-1073.5-663.8l3.6,3.8l-0.1,0.1L-1073.5-663.8z"/>
				<path id="Path_9493-2" class="st53" d="M-1074.7-663.1L-1074.7-663.1l3.6,3.8l-0.1,0.1L-1074.7-663.1z"/>
				<path id="Path_9494-2" class="st53" d="M-1075.8-662.4L-1075.8-662.4l3.6,3.8l-0.1,0.1L-1075.8-662.4z"/>
				<path id="Path_9495-2" class="st53" d="M-1076.9-661.8L-1076.9-661.8l3.6,3.8l-0.1,0.1L-1076.9-661.8z"/>
				<path id="Path_9496-2" class="st53" d="M-1078-661.2L-1078-661.2l3.6,3.8l-0.1,0.1L-1078-661.2z"/>
				<path id="Path_9497-2" class="st51" d="M-1077.6-658.8l-1,0.6l-0.4-0.2l1.1-0.6L-1077.6-658.8z"/>
				
					<rect id="Rectangle_3406-2" x="-1078.8" y="-662.5" transform="matrix(0.8661 -0.4999 0.4999 0.8661 187.4648 -625.0809)" class="st49" width="11.8" height="0.1"/>
				<path id="Path_9498-2" class="st49" d="M-1067.6-665.2L-1067.6-665.2l-10.2,6l0,0L-1067.6-665.2z"/>
				<path id="Path_9499-2" class="st49" d="M-1066.5-664L-1066.5-664l-10.2,6l0,0L-1066.5-664z"/>
				
					<rect id="Rectangle_3407-2" x="-1077.3" y="-660.8" transform="matrix(0.866 -0.5 0.5 0.866 186.8551 -624.2592)" class="st49" width="11.8" height="0.1"/>
			</g>
			<path id="Path_9500-2" class="st46" d="M-1068.8-666.4l-10.1,5.8l13.6-2.1L-1068.8-666.4z"/>
		</g>
		<path id="Path_9501-2" class="st44" d="M-1001.6-618.1l-9.3,5.3v0.1l9.4-5.4L-1001.6-618.1z"/>
		<path id="Path_9502-2" class="st44" d="M-1001.6-625.8l-9.3,5.3v0.1l9.4-5.4L-1001.6-625.8z"/>
		<path id="Path_9503-2" class="st45" d="M-1017.4-624.3l6.6,3.8v0.1L-1017.4-624.3L-1017.4-624.3z"/>
		<path id="Path_9504-2" class="st45" d="M-1017.4-616.6l6.1,3.5v0.1l-6.3-3.6L-1017.4-616.6z"/>
		<g id="Group_4222-2" transform="translate(96.941 33.052)">
			<path id="Path_9505-2" class="st44" d="M-1098.6-650.7l-0.1-0.1v-15.4l0.1-0.1V-650.7z"/>
			<path id="Path_9506-2" class="st45" d="M-1098.6-650.7v-15.6l0.2-0.1v15.6L-1098.6-650.7z"/>
		</g>
		<g id="Group_4223-2" transform="translate(73.908 35.356)">
			<path id="Path_9507-2" class="st45" d="M-1091.2-651.4l0.1-0.1v-15.4l-0.1-0.1V-651.4z"/>
			<path id="Path_9508-2" class="st44" d="M-1091.2-651.4V-667l-0.2-0.1v15.6L-1091.2-651.4z"/>
		</g>
		<path id="Path_9509-2" class="st45" d="M-1010.8-620.1v-0.2l9.4-5.4v0.2L-1010.8-620.1z"/>
		<g id="Group_4227-2" transform="translate(54.727 22.083)">
			<path id="Path_9510-2" class="st54" d="M-1082.8-654.8v-6.7l-2.4-1.4v6.7L-1082.8-654.8z"/>
			<g id="Group_4224-2" transform="translate(0.712 1.655)">
				<path id="Path_9511-2" class="st55" d="M-1084-662.2v-0.4l-1.5-0.9v0.4L-1084-662.2z"/>
				<path id="Path_9512-2" class="st56" d="M-1084-662.2L-1084-662.2l-1.5-0.8l0,0L-1084-662.2z"/>
				<path id="Path_9513-2" class="st57" d="M-1085.5-663L-1085.5-663l0-0.3l0,0V-663z"/>
			</g>
			<g id="Group_4225-2" transform="translate(0.712 2.422)">
				<path id="Path_9514-2" class="st55" d="M-1084-662.4v-0.4l-1.5-0.9v0.4L-1084-662.4z"/>
				<path id="Path_9515-2" class="st56" d="M-1084-662.4L-1084-662.4l-1.5-0.8l0,0L-1084-662.4z"/>
				<path id="Path_9516-2" class="st57" d="M-1085.5-663.3L-1085.5-663.3l0-0.3l0,0V-663.3z"/>
			</g>
			<g id="Group_4226-2" transform="translate(0.712 3.189)">
				<path id="Path_9517-2" class="st55" d="M-1084-662.6v-0.4l-1.5-0.9v0.4L-1084-662.6z"/>
				<path id="Path_9518-2" class="st56" d="M-1084-662.7L-1084-662.7l-1.5-0.8l0,0L-1084-662.7z"/>
				<path id="Path_9519-2" class="st57" d="M-1085.5-663.5L-1085.5-663.5l0-0.3l0,0V-663.5z"/>
			</g>
		</g>
		<g id="Group_4229-2" transform="translate(77.03 22.856)">
			<path id="Path_9520-2" class="st52" d="M-1092.2-660.5l1.8,1v0.2l-2-1.1L-1092.2-660.5z"/>
			<path id="Path_9521-2" class="st52" d="M-1092.2-663v2.5l-0.2,0.1v-2.7L-1092.2-663z"/>
			<g id="Group_4228-2" transform="translate(0.139 0.08)">
				<path id="Path_9522-2" class="st38" d="M-1090.5-659.5v-2.6l-1.9-1.1v2.6L-1090.5-659.5z"/>
				<path id="Path_9523-2" class="st44" d="M-1092.3-660.5L-1092.3-660.5l0-2.5l0,0V-660.5z"/>
				<path id="Path_9524-2" class="st45" d="M-1092.3-660.5v-2.6l-0.1-0.1v2.6L-1092.3-660.5z"/>
				<path id="Path_9525-2" class="st44" d="M-1092.3-660.6l1.8,1v0L-1092.3-660.6L-1092.3-660.6z"/>
				<path id="Path_9526-2" class="st45" d="M-1092.4-660.7l1.9,1.1v0.1l-1.9-1.1V-660.7z"/>
				<path id="Path_9527-2" class="st45" d="M-1092.4-663.1l1.9,1.1v0.1l-1.9-1.1V-663.1z"/>
				<path id="Path_9528-2" class="st45" d="M-1090.5-659.5v-2.6l-0.1-0.1v2.5L-1090.5-659.5z"/>
				<path id="Path_9529-2" class="st46" d="M-1092.3-662.9l1.6,0.9l-1.6,1.3V-662.9z"/>
			</g>
		</g>
		<g id="Group_4231-2" transform="translate(71.74 19.805)">
			<path id="Path_9530-2" class="st52" d="M-1090.5-659.6l1.8,1v0.2l-2-1.1L-1090.5-659.6z"/>
			<path id="Path_9531-2" class="st52" d="M-1090.5-662v2.5l-0.2,0.1v-2.7L-1090.5-662z"/>
			<g id="Group_4230-2" transform="translate(0.139 0.08)">
				<path id="Path_9532-2" class="st38" d="M-1088.8-658.5v-2.6l-1.9-1.1v2.6L-1088.8-658.5z"/>
				<path id="Path_9533-2" class="st44" d="M-1090.6-659.5L-1090.6-659.5l0-2.5l0,0V-659.5z"/>
				<path id="Path_9534-2" class="st45" d="M-1090.6-659.5v-2.6l-0.1-0.1v2.6L-1090.6-659.5z"/>
				<path id="Path_9535-2" class="st44" d="M-1090.6-659.7l1.8,1v0L-1090.6-659.7L-1090.6-659.7z"/>
				<path id="Path_9536-2" class="st45" d="M-1090.7-659.7l1.9,1.1v0.1l-1.9-1.1V-659.7z"/>
				<path id="Path_9537-2" class="st45" d="M-1090.7-662.2l1.9,1.1v0.1l-1.9-1.1V-662.2z"/>
				<path id="Path_9538-2" class="st45" d="M-1088.8-658.5v-2.6l-0.1-0.1v2.5L-1088.8-658.5z"/>
				<path id="Path_9539-2" class="st46" d="M-1090.6-662l1.6,0.9l-1.6,1.3V-662z"/>
			</g>
		</g>
		<g id="Group_4233-2" transform="translate(66.491 16.775)">
			<path id="Path_9540-2" class="st52" d="M-1088.8-658.6l1.8,1v0.2l-2-1.1L-1088.8-658.6z"/>
			<path id="Path_9541-2" class="st52" d="M-1088.8-661.1v2.5l-0.2,0.1v-2.7L-1088.8-661.1z"/>
			<g id="Group_4232-2" transform="translate(0.139 0.08)">
				<path id="Path_9542-2" class="st38" d="M-1087.2-657.6v-2.6l-1.9-1.1v2.6L-1087.2-657.6z"/>
				<path id="Path_9543-2" class="st44" d="M-1088.9-658.6L-1088.9-658.6l0-2.5l0,0V-658.6z"/>
				<path id="Path_9544-2" class="st45" d="M-1088.9-658.6v-2.6l-0.1-0.1v2.6L-1088.9-658.6z"/>
				<path id="Path_9545-2" class="st44" d="M-1088.9-658.7l1.8,1v0L-1088.9-658.7L-1088.9-658.7z"/>
				<path id="Path_9546-2" class="st45" d="M-1089.1-658.8l1.9,1.1v0.1l-1.9-1.1V-658.8z"/>
				<path id="Path_9547-2" class="st45" d="M-1089.1-661.2l1.9,1.1v0.1l-1.9-1.1V-661.2z"/>
				<path id="Path_9548-2" class="st45" d="M-1087.2-657.6v-2.6l-0.1-0.1v2.5L-1087.2-657.6z"/>
				<path id="Path_9549-2" class="st46" d="M-1088.9-661l1.6,0.9l-1.6,1.3V-661z"/>
			</g>
		</g>
		<g id="Group_4235-2" transform="translate(61.29 13.766)">
			<path id="Path_9550-2" class="st52" d="M-1087.2-657.6l1.8,1v0.2l-2-1.1L-1087.2-657.6z"/>
			<path id="Path_9551-2" class="st52" d="M-1087.2-660.1v2.5l-0.2,0.1v-2.7L-1087.2-660.1z"/>
			<g id="Group_4234-2" transform="translate(0.139 0.08)">
				<path id="Path_9552-2" class="st38" d="M-1085.5-656.6v-2.6l-1.9-1.1v2.6L-1085.5-656.6z"/>
				<path id="Path_9553-2" class="st44" d="M-1087.3-657.6L-1087.3-657.6l0-2.5l0,0V-657.6z"/>
				<path id="Path_9554-2" class="st45" d="M-1087.3-657.6v-2.6l-0.1-0.1v2.6L-1087.3-657.6z"/>
				<path id="Path_9555-2" class="st44" d="M-1087.3-657.7l1.8,1v0L-1087.3-657.7L-1087.3-657.7z"/>
				<path id="Path_9556-2" class="st45" d="M-1087.4-657.8l1.9,1.1v0.1l-1.9-1.1V-657.8z"/>
				<path id="Path_9557-2" class="st45" d="M-1087.4-660.2l1.9,1.1v0.1l-1.9-1.1V-660.2z"/>
				<path id="Path_9558-2" class="st45" d="M-1085.5-656.6v-2.6l-0.1-0.1v2.5L-1085.5-656.6z"/>
				<path id="Path_9559-2" class="st46" d="M-1087.2-660l1.6,0.9l-1.6,1.3V-660z"/>
			</g>
		</g>
		<path id="Path_9560-2" class="st46" d="M-1001.8-633.1v7.5l-6.1-3.9L-1001.8-633.1z"/>
		<path id="Path_9561-2" class="st46" d="M-1001.8-625.3v7.3l-6.1-3.7L-1001.8-625.3z"/>
		<path id="Path_9562-2" class="st46" d="M-1017.1-631.6v7.4l3.4-5.4L-1017.1-631.6z"/>
		<path id="Path_9563-2" class="st46" d="M-1017.1-623.9v7.4l3.4-5.4L-1017.1-623.9z"/>
		<path id="Path_9564-2" class="st44" d="M-1010.8-620.2v-0.2l-6.6-3.8v0.2L-1010.8-620.2z"/>
		<g id="Group_4236-2" transform="translate(83.09 40.742)">
			<path id="Path_9565-2" class="st45" d="M-1093.9-653.1v-15.5l0.4-0.2v15.5L-1093.9-653.1z"/>
			<path id="Path_9566-2" class="st44" d="M-1093.9-653.1v-15.5l-0.4-0.2v15.5L-1093.9-653.1z"/>
		</g>
		<path id="Path_9567-2" class="st44" d="M-1011.2-612.6v-0.4l-6.3-3.6v0.4L-1011.2-612.6z"/>
		<path id="Path_9568-2" class="st45" d="M-1010.8-612.3v-0.4l9.4-5.4v0.4L-1010.8-612.3z"/>
		<path id="Path_9569-2" class="st44" d="M-1011.2-627.7v-0.4l-6.3-3.7v0.4L-1011.2-627.7z"/>
		<path id="Path_9570-2" class="st45" d="M-1010.8-627.5v-0.4l9.4-5.5v0.4L-1010.8-627.5z"/>
	</g>
</g>
</svg>
