<?xml version="1.0" encoding="utf-8"?>
<!-- Generator: Adobe Illustrator 23.0.1, SVG Export Plug-In . SVG Version: 6.00 Build 0)  -->
<svg version="1.1" id="Слой_1" xmlns="http://www.w3.org/2000/svg" xmlns:xlink="http://www.w3.org/1999/xlink" x="0px" y="0px"
	 viewBox="0 0 800 280" style="enable-background:new 0 0 800 280;" xml:space="preserve">
<style type="text/css">
	.st0{fill:#A6C658;}
	.st1{fill:#F0FCFF;}
	.st2{fill:#9E7A7A;}
	.st3{fill:#88CC75;}
	.st4{fill:#E1F7FF;}
	.st5{fill-rule:evenodd;clip-rule:evenodd;fill:#C6C6C6;}
	.st6{fill-rule:evenodd;clip-rule:evenodd;fill:#EF7878;}
	.st7{fill:#F98585;}
	.st8{fill-rule:evenodd;clip-rule:evenodd;fill:#FF9292;}
	.st9{fill-rule:evenodd;clip-rule:evenodd;fill:#F98585;}
	.st10{fill-rule:evenodd;clip-rule:evenodd;fill:#FFE8C7;}
	.st11{fill-rule:evenodd;clip-rule:evenodd;fill:#FFF2DC;}
	.st12{fill-rule:evenodd;clip-rule:evenodd;fill:#DDDCDB;}
	.st13{fill:#7C7C7C;}
	.st14{fill:#AED366;}
	.st15{fill:#B2877F;}
	.st16{fill:#A8837E;}
	.st17{fill:#79B264;}
	.st18{fill:#FFF4E6;}
	.st19{fill:#FCDFCD;}
	.st20{fill:#8E7272;}
	.st21{opacity:0.15;enable-background:new    ;}
	.st22{fill:#4E9FA8;}
	.st23{fill:#FFFCF8;}
	.st24{fill:#448D99;}
	.st25{fill:#B7A5A5;}
	.st26{fill:#7C5D5D;}
	.st27{fill:#B2AEAB;}
	.st28{fill:#CECECE;}
	.st29{fill:#EA8368;}
	.st30{fill:#FCA69A;}
	.st31{fill:#F4927F;}
	.st32{fill:#6D5252;}
	.st33{fill:#BAA2A2;}
	.st34{fill:#A38989;}
	.st35{fill:#FFA188;}
	.st36{fill:#FFD8D2;}
	.st37{fill:#78716C;}
	.st38{fill:#665F5A;}
	.st39{fill:#FFBDB6;}
	.st40{fill:#5EB3B7;}
	.st41{opacity:0.12;enable-background:new    ;}
	.st42{fill:#A3786D;}
	.st43{fill:#80C16B;}
	.st44{fill:#DDDBDB;}
	.st45{fill:#F5F5F5;}
	.st46{fill-rule:evenodd;clip-rule:evenodd;fill:#FFB448;}
	.st47{fill-rule:evenodd;clip-rule:evenodd;fill:#BBDCF9;}
	.st48{fill-rule:evenodd;clip-rule:evenodd;fill:#F29E38;}
	.st49{fill-rule:evenodd;clip-rule:evenodd;fill:#DD8D36;}
	.st50{fill:#565555;}
	.st51{fill:#DAE9EF;}
	.st52{fill-rule:evenodd;clip-rule:evenodd;fill:#686868;}
	.st53{fill-rule:evenodd;clip-rule:evenodd;fill:#565555;}
	.st54{fill-rule:evenodd;clip-rule:evenodd;fill:#DAE9EF;}
	.st55{fill-rule:evenodd;clip-rule:evenodd;fill:#FFF5E1;}
	.st56{fill:#8C716C;}
	.st57{fill:#7AA8EA;}
	.st58{fill:#626977;}
	.st59{fill:#FFD2B3;}
	.st60{fill:#F76841;}
	.st61{fill:#95BEF9;}
	.st62{fill:#846863;}
	.st63{fill:#9FC445;}
	.st64{fill:#7B8B9B;}
	.st65{fill:#91C6E2;}
	.st66{fill:#A1E0FF;}
	.st67{fill:#FFC9A4;}
	.st68{fill:#6091D8;}
	.st69{fill:#AA8B83;}
	.st70{fill:#76A8E5;}
</style>
<g id="Group_4958" transform="translate(-575.887 -216.09)">
	<g id="Group_2789" transform="translate(913.408 301.938)">
		<path id="Path_3136" class="st0" d="M446.9,156.3H-322c-8.6,0-15.5,14.9-15.5,33.4h800C462.5,171.2,455.5,156.3,446.9,156.3z"/>
		<path id="Path_3139" class="st1" d="M313.5-12.1c1.3-7-3.4-13.7-10.5-15c-5.6-1-11.1,1.6-13.8,6.5c-3.5-3.6-9-4.5-13.5-2.2
			c-3.2-5.7-9.8-8.6-16.2-7.1c-2.6-8.7-11.9-13.7-20.8-11.1c-6.4,1.9-11,7.2-11.8,13.7c-7.1-1-13.8,3.9-14.7,11
			c-0.2,1.4-0.2,2.8,0.1,4.1H313.5z"/>
		<g id="Group_1414" transform="translate(179.858 78.049)">
			<path id="Path_3165" class="st2" d="M-248.6,78.1c-1.8-32.9-1.6-29.8-1.6-30.8l0,0.4l0-0.4c0,1.1,0.2-2.1-1.6,30.8H-248.6z"/>
			<path id="Path_3166" class="st3" d="M-242.5,34.8l-6.2,0.5l5.3-3c-0.7-2.1-4.6-12.7-6.8-12.7c-2.5,0.1-8,15-10.5,24.9l6.3,2.3
				l-6.8-0.2c-0.4,1.6-0.6,3.3-0.7,5c0,6.4,5.2,11.5,11.7,11.5h0c6.5,0,11.7-5.2,11.7-11.5l0,0C-239.2,45.8-240.5,40.2-242.5,34.8z"
				/>
		</g>
		<path id="Path_3167" class="st1" d="M-258.7-14.1c-6.6,0-11.9,5.3-11.9,11.7h23.8C-246.7-8.9-252.1-14.1-258.7-14.1z"/>
		<path id="Path_3168" class="st1" d="M447.5,38.9c-6.6,0-11.9,5.3-11.9,11.7l0,0h23.8C459.4,44.2,454.1,38.9,447.5,38.9L447.5,38.9
			z"/>
		<path id="Path_3170" class="st1" d="M373.1,9.7c-2.8,0-5.6,1-7.6,2.9c-4.6-7.4-14.5-9.8-22.1-5.2c-4.8,2.9-7.6,8-7.6,13.5h48.7
			C384.4,14.8,379.3,9.7,373.1,9.7z"/>
		<g id="Group_1417" transform="translate(170.949 37.176)">
			<g id="Group_1415" transform="translate(7.299)">
				<path id="Path_3171" class="st4" d="M-256.4-18.6c-1.4-3.1-4.1-5.4-7.3-6.3l0.6-1.8c2.6,0.8,5,2.3,6.7,4.4
					c1.8-2.1,4.1-3.6,6.7-4.4l0.6,1.8c-2.7,0.8-5,2.4-6.5,4.7L-256.4-18.6z"/>
			</g>
			<g id="Group_1416" transform="translate(0 6.201)">
				<path id="Path_3172" class="st4" d="M-266.8-13.7c-1.1-2.1-3.1-3.6-5.4-4.1l0.5-1.8c1.8,0.5,3.5,1.4,4.9,2.7
					c1.4-1.3,3.1-2.2,4.9-2.7l0.5,1.8C-263.7-17.3-265.7-15.8-266.8-13.7z"/>
			</g>
		</g>
		<g id="Group_1418" transform="translate(379.904 -8)">
			<path id="Path_3173" class="st5" d="M-5.2-16.8l-1.1,5.4l-0.3,0l1.1-5.4L-5.2-16.8z"/>
			<path id="Path_3174" class="st6" d="M-21.6-38L-7.9-4.6l0.2-0.1l-13.7-33.4L-21.6-38z"/>
			<path id="Path_3175" class="st6" d="M-12.4-25l6.8,9.5l0.2-0.1l-6.8-9.5L-12.4-25z"/>
			<path id="Rectangle_1444" class="st7" d="M-4.3-18.2h2.2c0.2,0,0.4,0.2,0.4,0.4v0.4c0,0.2-0.2,0.4-0.4,0.4h-2.2
				c-0.2,0-0.4-0.2-0.4-0.4v-0.4C-4.7-18-4.5-18.2-4.3-18.2z"/>
			<path id="Path_3176" class="st8" d="M6.1-25l-6.8,9.5l-0.2-0.1l6.8-9.5L6.1-25z"/>
			<path id="Path_3177" class="st8" d="M15.2-38L1.6-4.6L1.4-4.7L15-38.1L15.2-38z"/>
			<path id="Path_3178" class="st9" d="M-23.3-71.1c-4.5,4.6-6.6,11-5.4,17.4C-27-43.3-15.3-29.5-9.1-20.5H2.8
				C9-29.5,20.7-43.3,22.4-53.8c1.1-6.3-0.9-12.8-5.4-17.4C7.9-80.1-14.2-80.1-23.3-71.1z"/>
			<path id="Path_3179" class="st10" d="M-16.7-71.1C-27.1-55.9-14-35.3-7.2-20.5h8c7-15,19.9-35.4,9.5-50.6
				c-5.5-7.3-16-8.9-23.5-3.5C-14.5-73.6-15.7-72.5-16.7-71.1z"/>
			<path id="Path_3180" class="st9" d="M-8.4-71.1c-4.1,15.2,1,35.6,3.7,50.6h3.1c2.7-15,7.8-35.4,3.7-50.6
				C-0.3-80.1-6.1-80.1-8.4-71.1z"/>
			<path id="Path_3181" class="st11" d="M-1.6-20.5h2.4c7-15,19.9-35.4,9.5-50.6C7.3-75.4,2.2-78-3.2-77.8c2,0,4.1,2.2,5.3,6.7
				C6.2-55.9,1.1-35.5-1.6-20.5z"/>
			<path id="Path_3182" class="st8" d="M-3.1-20.7v-57.1c5.9,0,6.8,14.7,6.8,20.5c0,11.8-3.1,25.1-5.2,36.6L-3.1-20.7z"/>
			<path id="Path_3183" class="st8" d="M0.8-20.5h2C9-29.5,20.7-43.3,22.4-53.8c2.1-13.1-7.1-24.1-25.6-24.1
				c5.4-0.1,10.4,2.4,13.5,6.7C20.7-55.9,7.7-35.3,0.8-20.5z"/>
			<path id="Path_3184" class="st6" d="M-12.4-25H6.1l-3.2,4.5H-9.1L-12.4-25z"/>
			<path id="Path_3185" class="st9" d="M-3.1-25h9.2l-3.2,4.5h-6V-25z"/>
			<path id="Path_3186" class="st12" d="M-1.1-16.8L0-11.4l0.3,0l-1.1-5.4L-1.1-16.8z"/>
			<path id="Path_3187" class="st9" d="M-6.6-11.4c0.1,0,7,0,7,0.1l1.2,6.7c0,0,0,0.1-0.1,0.1c0,0,0,0,0,0l0,0c-0.1,0-9.4,0-9.4-0.1
				C-7.9-4.7-6.7-11.4-6.6-11.4C-6.7-11.4-6.7-11.4-6.6-11.4L-6.6-11.4z"/>
			<path id="Path_3188" class="st8" d="M-3.1-16.9v-1.2h1.3c0.1,0,0.2,0.1,0.2,0.2v0.9c0,0.1-0.1,0.2-0.2,0.2H-3.1z"/>
			<path id="Path_3189" class="st5" d="M-5.3-17.1c4.3,0,4.4-0.2,4.5,0.3l0.3,1.5c0,0.1-0.1,0.3-0.3,0.3c-4.5,0-5.2,0.2-5.1-0.3
				l0.3-1.5C-5.5-17-5.4-17.1-5.3-17.1z"/>
			<path id="Path_3190" class="st12" d="M-3.1-15v-2H-1c0.1,0,0.2,0.1,0.3,0.3l0.3,1.5c0,0.1-0.1,0.3-0.3,0.3L-3.1-15z"/>
			<path id="Path_3191" class="st8" d="M-3.1-4.6v-6.8h3.4c0.1,0,1.3,6.7,1.3,6.8c0,0,0,0.1-0.1,0.1c0,0,0,0,0,0L-3.1-4.6L-3.1-4.6z
				"/>
			<path id="Path_3192" class="st6" d="M-1.6-11.4l0.5,6.8h-4.1l0.5-6.8H-1.6z"/>
			<path id="Path_3193" class="st9" d="M-3.1-4.6v-6.8h1.5l0.5,6.8H-3.1z"/>
		</g>
		<path id="Path_3195" class="st1" d="M-118.5-45.5L-118.5-45.5c0-9.9-8.1-18-18.2-18c-5.6,0-10.9,2.6-14.4,6.9
			c-4.6-10.5-17-15.3-27.6-10.7c-3.8,1.6-7,4.3-9.3,7.8c-7.8-6.3-19.3-5.1-25.6,2.5c-2.7,3.2-4.1,7.2-4.1,11.3v0H-118.5z"/>
		<path id="Path_3196" class="st13" d="M462.5,185.2h-800c0-6.8,4.8-12.3,10.8-12.3h778.3C457.6,172.9,462.5,178.4,462.5,185.2z"/>
		<path id="Path_3197" class="st14" d="M462.5,185.2c0,4.9-4.8,9-10.8,9h-778.4c-6,0-10.8-4-10.8-9H462.5z"/>
		<g id="Group_1420" transform="translate(288.265 115.77)">
			<path id="Path_3199" class="st14" d="M-117.8,70.3c5.4-13,25.1-9.2,25.1,4.9h-43c1.4-5.6,7.1-9.1,12.8-7.7
				C-121,67.9-119.2,68.8-117.8,70.3z"/>
		</g>
		<g id="Group_1422" transform="translate(297.281 41.574)">
			<g id="Group_1421" transform="translate(16.204 21.83)">
				<path id="Path_3200" class="st15" d="M-98.1,109.4h-8.2l2.3-102l4.1-4.4L-98.1,109.4z"/>
				<path id="Path_3201" class="st16" d="M-101.3,3l-2.7,3.7l-1.9,85.4l0,0c2.8-0.1,5.2,2,5.3,4.8c0,0.2,0,0.3,0,0.5v12.1h2.8V92.1
					L-99.7,3L-101.3,3z"/>
			</g>
			<path id="Path_3202" class="st3" d="M-90.1,24.4l-15.1,13.1l5.5,2l-16.4,6l-5.2,8.5l15-0.2l-18.7,10.8v9.9l26-7.9l11.4-13.8
				l41.5,8.6V50.8L-62.2,44l8.6-0.7l-4.2-5.8L-81.7,31h7.6L-87.7,9.9L-90.1,24.4z"/>
			<path id="Path_3203" class="st17" d="M-87.7,52.8l41.5,8.6V50.8L-62.2,44l8.6-0.7l-4.2-5.8L-81.7,31h7.6l-12.8-19.7l4.1,15.7
				l-4.9,2.6l19.2,15.3l-20.7,2l-16.2,13.7l-19.3,3.8l-0.6,0.4v9.9l26-7.9L-87.7,52.8z"/>
			<path id="Path_3204" class="st3" d="M-90.1-7.2l-15.1,13.1l5.5,2l-16.4,6l-5.2,8.5l15-0.2L-125.2,33v10l26-7.9l11.4-13.8
				l41.5,8.6V19.2l-15.9-6.7l8.6-0.7l-4.2-5.8l-23.9-6.5h7.6l-13.7-21.1L-90.1-7.2z"/>
			<path id="Path_3205" class="st17" d="M-87.7,21.2l41.5,8.6V19.2l-15.9-6.7l8.6-0.7l-4.2-5.8l-23.9-6.5h7.6l-12.8-19.7l4.1,15.7
				l-4.9,2.6l19.2,15.3l-20.7,2l-16.2,13.7l-19.3,3.8l-0.6,0.4V43l26-7.9L-87.7,21.2z"/>
		</g>
		<g id="Group_1429" transform="translate(88.706 69.696)">
			<rect id="Rectangle_1445-2" x="-298.8" y="17.5" class="st18" width="50.3" height="82.5"/>
			<rect id="Rectangle_1446-2" x="-364.4" y="17.5" class="st19" width="65.8" height="82.5"/>
			<rect id="Rectangle_1447-2" x="-248.8" y="49.8" class="st19" width="54.1" height="50.2"/>
			<rect id="Rectangle_1448-2" x="-248.8" y="17.5" class="st19" width="54.1" height="32.3"/>
			<g id="Group_1423-2" transform="translate(7.752 30.328)">
				<rect id="Rectangle_1449-2" x="-358.9" y="44.5" class="st20" width="35.8" height="25.2"/>
				<rect id="Rectangle_1450-2" x="-341.1" y="44.5" class="st21" width="17.9" height="25.2"/>
				<path id="Path_3206-2" class="st21" d="M-323.1,44.5l-35.8,0v25.2h2.2v-23h33.6V44.5z"/>
			</g>
			<g id="Group_1425-2" transform="translate(40.598 23.919)">
				<rect id="Rectangle_1451-2" x="-320.7" y="39" class="st22" width="76.1" height="37.1"/>
				<g id="Group_1424-2" transform="translate(0.013)">
					<path id="Path_3207-2" class="st19" d="M-242.8,37.2l-2,2h-75.9v-2H-242.8z"/>
					<path id="Path_3208-2" class="st23" d="M-244.8,39.2v36.9l2,0V37.2L-244.8,39.2z"/>
				</g>
				<rect id="Rectangle_1452-2" x="-260.2" y="39.3" class="st24" width="1.1" height="36.7"/>
				<rect id="Rectangle_1453-2" x="-276.4" y="39.3" class="st24" width="1.1" height="36.7"/>
				<rect id="Rectangle_1454-2" x="-247" y="39.3" class="st24" width="2.2" height="36.7"/>
				<rect id="Rectangle_1455-2" x="-320.5" y="52.4" class="st24" width="75.6" height="1.1"/>
				<rect id="Rectangle_1456-2" x="-320.7" y="39.2" class="st24" width="75.8" height="2.2"/>
				<rect id="Rectangle_1457-2" x="-319.7" y="41" class="st22" width="30.6" height="35"/>
				<rect id="Rectangle_1458-2" x="-320.5" y="52.4" class="st24" width="31.4" height="1.1"/>
				<rect id="Rectangle_1459-2" x="-320.7" y="37.3" class="st19" width="31.5" height="1.9"/>
				<rect id="Rectangle_1460-2" x="-318.7" y="39.2" class="st24" width="29.5" height="2.1"/>
				<rect id="Rectangle_1461-2" x="-303.9" y="39.3" class="st24" width="1.1" height="36.7"/>
				<rect id="Rectangle_1462-2" x="-318.7" y="39.3" class="st24" width="2.2" height="36.7"/>
				<path id="Path_3209-2" class="st23" d="M-318.7,39.2v36.9l-2,0V37.2L-318.7,39.2z"/>
			</g>
			<rect id="Rectangle_1463-2" x="-236.5" y="31.9" class="st22" width="26.1" height="17.9"/>
			<g id="Group_1426-2" transform="translate(60.752 8.066)">
				<path id="Path_3210-2" class="st19" d="M-266.5,19.3l-4.8,4.7h-25.9v-4.7H-266.5z"/>
				<path id="Path_3211-2" class="st23" d="M-271.2,23.9v17.9l4.7,0V19.3L-271.2,23.9z"/>
			</g>
			<rect id="Rectangle_1464-2" x="-212.8" y="32.3" class="st24" width="2.2" height="17.6"/>
			<rect id="Rectangle_1465-2" x="-236.5" y="32.1" class="st24" width="25.9" height="2.2"/>
			<rect id="Rectangle_1466-2" x="-248.7" y="61.3" class="st19" width="1.2" height="38.7"/>
			<rect id="Rectangle_1467-2" x="-249.8" y="61.3" class="st19" width="1.2" height="38.7"/>
			<rect id="Rectangle_1468-2" x="-248.8" y="49.4" class="st20" width="60.6" height="1.1"/>
			<rect id="Rectangle_1469-2" x="-364.4" y="17.4" class="st21" width="169.6" height="2.2"/>
			<rect id="Rectangle_1470-2" x="-248.8" y="50.5" class="st20" width="60.6" height="8.7"/>
			<rect id="Rectangle_1471-2" x="-248.8" y="49.4" class="st25" width="8" height="1.1"/>
			<rect id="Rectangle_1472-2" x="-248.8" y="50.5" class="st25" width="8" height="8.7"/>
			<g id="Group_1428-2" transform="translate(7.79 9.589)">
				<rect id="Rectangle_1473-2" x="-357.1" y="22.8" class="st22" width="33.2" height="30.7"/>
				<g id="Group_1427-2">
					<path id="Path_3212-2" class="st19" d="M-358.9,21l2,2h33v-2H-358.9z"/>
					<path id="Path_3213-2" class="st23" d="M-356.9,23v30.4l-2,0V21L-356.9,23z"/>
				</g>
				<rect id="Rectangle_1474-2" x="-335.2" y="23" class="st24" width="1.1" height="30.3"/>
				<rect id="Rectangle_1475-2" x="-346.8" y="23" class="st24" width="1.1" height="30.3"/>
				<rect id="Rectangle_1476-2" x="-356.9" y="23" class="st24" width="2.2" height="30.3"/>
				<rect id="Rectangle_1477-2" x="-356.8" y="36.9" class="st24" width="32.7" height="1.1"/>
				<rect id="Rectangle_1478-2" x="-356.8" y="22.9" class="st24" width="32.9" height="2.2"/>
			</g>
			<rect id="Rectangle_1479-2" x="-368" y="10.1" class="st26" width="63.3" height="7.4"/>
			<rect id="Rectangle_1480-2" x="-253.9" y="10.1" class="st26" width="63.3" height="7.4"/>
			<rect id="Rectangle_1481-2" x="-304.8" y="10.1" class="st20" width="62.7" height="7.4"/>
			<rect id="Rectangle_1482-2" x="-368" y="99.3" class="st27" width="63.3" height="3.7"/>
			<rect id="Rectangle_1483-2" x="-253.9" y="99.3" class="st27" width="63.3" height="3.7"/>
			<rect id="Rectangle_1484-2" x="-304.8" y="99.3" class="st28" width="62.7" height="3.7"/>
		</g>
		<g id="Group_1451" transform="translate(191.166 49.187)">
			<g id="Group_1449">
				<rect id="Rectangle_1485" x="-174.5" y="116.4" class="st20" width="165.3" height="7.4"/>
				<g id="Group_1432" transform="translate(0 33.302)">
					<rect id="Rectangle_1486" x="-242.8" y="42.7" class="st29" width="69.4" height="40.6"/>
					<g id="Group_1431" transform="translate(11.516 13.878)">
						<rect id="Rectangle_1487" x="-233.1" y="42.4" class="st24" width="28.2" height="16.2"/>
						<rect id="Rectangle_1488" x="-231.2" y="44.3" class="st22" width="24.4" height="12.5"/>
						<g id="Group_1430">
							<path id="Path_3214" class="st30" d="M-232.9,42.7v15.7l-2.4,2.4V40.3L-232.9,42.7z"/>
							<path id="Path_3215" class="st30" d="M-202.7,40.3l-2.4,2.4h-27.7l-2.4-2.4H-202.7z"/>
							<path id="Path_3216" class="st31" d="M-205.2,42.7v15.7l2.4,2.4V40.3L-205.2,42.7z"/>
							<path id="Path_3217" class="st31" d="M-202.8,60.8l-2.4-2.4h-27.7l-2.5,2.4L-202.8,60.8z"/>
						</g>
						<rect id="Rectangle_1489" x="-224.6" y="44.1" class="st24" width="1.4" height="13.1"/>
						<rect id="Rectangle_1490" x="-215.3" y="44.1" class="st24" width="1.4" height="13.1"/>
						<rect id="Rectangle_1491" x="-231.9" y="49.9" class="st24" width="26.1" height="1.4"/>
					</g>
					<rect id="Rectangle_1492" x="-243" y="45.9" class="st21" width="69.9" height="3.3"/>
					<path id="Path_3218" class="st26" d="M-238,24.6l-10.7,18.1h75.7V24.6H-238z"/>
					<rect id="Rectangle_1493" x="-248.7" y="42.7" class="st32" width="75.8" height="3.4"/>
				</g>
				<rect id="Rectangle_1494" x="-242.8" y="116.3" class="st26" width="69.3" height="7.5"/>
				<rect id="Rectangle_1495" x="-90.1" y="120" class="st33" width="34.5" height="3.8"/>
				<rect id="Rectangle_1496" x="-86.1" y="116.3" class="st34" width="27.1" height="3.8"/>
				<rect id="Rectangle_1497" x="-173.5" y="36" class="st35" width="164.2" height="80.4"/>
				<path id="Path_3219" class="st20" d="M-91.8-13.1l-91.2,50.8H-0.6L-91.8-13.1z"/>
				<rect id="Rectangle_1498" x="-85.4" y="81.7" class="st36" width="25.4" height="34.6"/>
				<rect id="Rectangle_1499" x="-82.7" y="83.9" class="st37" width="20" height="32.5"/>
				<g id="Group_1433" transform="translate(78.255 46.783)">
					<path id="Path_3220" class="st38" d="M-144.2,65.5h-13.4V39.9h13.4L-144.2,65.5z M-156.6,64.4h11.4V40.9h-11.4V64.4z"/>
				</g>
				<path id="Path_3221" class="st20" d="M-91.8-13.1v50.7h91L-91.8-13.1z"/>
				<g id="Group_1435" transform="translate(41.029 30.698)">
					<rect id="Rectangle_1500" x="-199" y="23.4" class="st22" width="21.5" height="19.5"/>
					<g id="Group_1434">
						<rect id="Rectangle_1501" x="-198.4" y="24.1" class="st24" width="1.6" height="18.1"/>
						<rect id="Rectangle_1502" x="-179.7" y="24.1" class="st24" width="1.7" height="18.1"/>
						<rect id="Rectangle_1503" x="-198.4" y="24.1" class="st24" width="20.6" height="1.6"/>
						<rect id="Rectangle_1504" x="-198.4" y="40.8" class="st24" width="20.6" height="1.5"/>
						<path id="Path_3222" class="st39" d="M-198.3,24.2h20.3l2.6-2.5l-25.4,0L-198.3,24.2z"/>
						<path id="Path_3223" class="st39" d="M-200.9,44.7l2.6-2.5v-18l-2.6-2.6h-0.1L-200.9,44.7z"/>
						<path id="Path_3224" class="st36" d="M-198.3,42.2h20.2l2.6,2.6l-25.4-0.1L-198.3,42.2z"/>
						<path id="Path_3225" class="st36" d="M-175.5,44.7l-2.6-2.5v-18l2.6-2.6h0.1L-175.5,44.7z"/>
					</g>
				</g>
				<g id="Group_1437" transform="translate(58.254 30.698)">
					<rect id="Rectangle_1505" x="-178.9" y="23.4" class="st22" width="21.5" height="19.5"/>
					<g id="Group_1436">
						<path id="Path_3226" class="st40" d="M-158.3,29.5l-15,14.8h4.4l10.6-10.4L-158.3,29.5z"/>
						<path id="Path_3227" class="st40" d="M-159,25.1l-17,16.7l-0.1,2.7l17.1-16.8L-159,25.1z"/>
						<rect id="Rectangle_1506" x="-178.4" y="24.1" class="st24" width="1.6" height="18.1"/>
						<rect id="Rectangle_1507" x="-159.7" y="24.1" class="st24" width="1.7" height="18.1"/>
						<rect id="Rectangle_1508" x="-178.3" y="24.1" class="st24" width="20.6" height="1.6"/>
						<rect id="Rectangle_1509" x="-178.3" y="40.8" class="st24" width="20.6" height="1.5"/>
						<path id="Path_3228" class="st39" d="M-178.3,24.2h20.3l2.6-2.5l-25.4,0L-178.3,24.2z"/>
						<path id="Path_3229" class="st39" d="M-180.8,44.7l2.6-2.5v-18l-2.6-2.6h-0.1L-180.8,44.7z"/>
						<path id="Path_3230" class="st36" d="M-178.3,42.2h20.2l2.6,2.5l-25.4,0L-178.3,42.2z"/>
						<path id="Path_3231" class="st36" d="M-155.4,44.7l-2.6-2.5v-18l2.6-2.6h0.1L-155.4,44.7z"/>
					</g>
				</g>
				<g id="Group_1439" transform="translate(75.479 30.698)">
					<rect id="Rectangle_1510" x="-158.9" y="23.4" class="st22" width="21.5" height="19.5"/>
					<g id="Group_1438">
						<path id="Path_3232" class="st40" d="M-138.2,29.5l-15,14.8h4.4l10.6-10.4L-138.2,29.5z"/>
						<path id="Path_3233" class="st40" d="M-139,25.1l-17,16.7l-0.1,2.7l17.1-16.8L-139,25.1z"/>
						<rect id="Rectangle_1511" x="-158.3" y="24.1" class="st24" width="1.6" height="18.1"/>
						<rect id="Rectangle_1512" x="-139.6" y="24.1" class="st24" width="1.7" height="18.1"/>
						<rect id="Rectangle_1513" x="-158.3" y="24.1" class="st24" width="20.6" height="1.6"/>
						<rect id="Rectangle_1514" x="-158.3" y="40.8" class="st24" width="20.6" height="1.5"/>
						<path id="Path_3234" class="st39" d="M-158.2,24.2h20.3l2.6-2.5l-25.4,0L-158.2,24.2z"/>
						<path id="Path_3235" class="st39" d="M-160.8,44.7l2.6-2.5v-18l-2.6-2.6h-0.1L-160.8,44.7z"/>
						<path id="Path_3236" class="st36" d="M-158.2,42.2h20.2l2.6,2.6l-25.4-0.1L-158.2,42.2z"/>
						<path id="Path_3237" class="st36" d="M-135.4,44.7l-2.6-2.5v-18l2.6-2.6h0.1L-135.4,44.7z"/>
					</g>
				</g>
				<g id="Group_1441" transform="translate(92.704 30.698)">
					<rect id="Rectangle_1515" x="-138.8" y="23.4" class="st22" width="21.5" height="19.5"/>
					<g id="Group_1440">
						<rect id="Rectangle_1516" x="-138.3" y="24.1" class="st24" width="1.6" height="18.1"/>
						<rect id="Rectangle_1517" x="-119.6" y="24.1" class="st24" width="1.7" height="18.1"/>
						<rect id="Rectangle_1518" x="-138.2" y="24.1" class="st24" width="20.6" height="1.6"/>
						<rect id="Rectangle_1519" x="-138.2" y="40.8" class="st24" width="20.6" height="1.5"/>
						<path id="Path_3238" class="st39" d="M-138.2,24.2h20.3l2.6-2.5l-25.4,0L-138.2,24.2z"/>
						<path id="Path_3239" class="st39" d="M-140.7,44.7l2.6-2.5v-18l-2.6-2.6h-0.1L-140.7,44.7z"/>
						<path id="Path_3240" class="st36" d="M-138.2,42.2h20.2l2.6,2.6l-25.4-0.1L-138.2,42.2z"/>
						<path id="Path_3241" class="st36" d="M-115.3,44.7l-2.6-2.5v-18l2.6-2.6h0.1L-115.3,44.7z"/>
					</g>
				</g>
				<g id="Group_1443" transform="translate(41.029 44.707)">
					<rect id="Rectangle_1520" x="-199" y="39.3" class="st22" width="21.5" height="19.5"/>
					<g id="Group_1442">
						<rect id="Rectangle_1521" x="-198.4" y="40" class="st24" width="1.6" height="18.1"/>
						<rect id="Rectangle_1522" x="-179.7" y="40" class="st24" width="1.7" height="18.1"/>
						<rect id="Rectangle_1523" x="-198.4" y="40" class="st24" width="20.6" height="1.6"/>
						<rect id="Rectangle_1524" x="-198.4" y="56.6" class="st24" width="20.6" height="1.5"/>
						<path id="Path_3242" class="st39" d="M-198.3,40.1h20.3l2.5-2.6h-25.4L-198.3,40.1z"/>
						<path id="Path_3243" class="st39" d="M-200.9,60.5l2.6-2.5v-18l-2.6-2.6h-0.1L-200.9,60.5z"/>
						<path id="Path_3244" class="st36" d="M-198.3,58h20.2l2.6,2.6h-25.4L-198.3,58z"/>
						<path id="Path_3245" class="st36" d="M-175.5,60.6l-2.6-2.5v-18l2.6-2.6h0.1L-175.5,60.6z"/>
					</g>
				</g>
				<g id="Group_1445" transform="translate(58.254 44.707)">
					<rect id="Rectangle_1525" x="-178.9" y="39.3" class="st22" width="21.5" height="19.5"/>
					<g id="Group_1444">
						<path id="Path_3246" class="st40" d="M-158.3,45.3l-15,14.8h4.4l10.6-10.4L-158.3,45.3z"/>
						<path id="Path_3247" class="st40" d="M-159,40.9l-17,16.7l-0.1,2.7l17.1-16.8L-159,40.9z"/>
						<rect id="Rectangle_1526" x="-178.4" y="40" class="st24" width="1.6" height="18.1"/>
						<rect id="Rectangle_1527" x="-159.7" y="40" class="st24" width="1.7" height="18.1"/>
						<rect id="Rectangle_1528" x="-178.3" y="40" class="st24" width="20.6" height="1.6"/>
						<rect id="Rectangle_1529" x="-178.3" y="56.6" class="st24" width="20.6" height="1.5"/>
						<path id="Path_3248" class="st39" d="M-178.3,40.1h20.3l2.5-2.6h-25.4L-178.3,40.1z"/>
						<path id="Path_3249" class="st39" d="M-180.8,60.5l2.6-2.5v-18l-2.6-2.6h-0.1L-180.8,60.5z"/>
						<path id="Path_3250" class="st36" d="M-178.3,58h20.2l2.6,2.6h-25.4L-178.3,58z"/>
						<path id="Path_3251" class="st36" d="M-155.4,60.6l-2.6-2.5v-18l2.6-2.6h0.1L-155.4,60.6z"/>
					</g>
				</g>
				<g id="Group_1447" transform="translate(92.704 44.707)">
					<rect id="Rectangle_1530" x="-138.8" y="39.3" class="st22" width="21.5" height="19.5"/>
					<g id="Group_1446">
						<rect id="Rectangle_1531" x="-138.3" y="40" class="st24" width="1.6" height="18.1"/>
						<rect id="Rectangle_1532" x="-119.6" y="40" class="st24" width="1.7" height="18.1"/>
						<rect id="Rectangle_1533" x="-138.2" y="40" class="st24" width="20.6" height="1.6"/>
						<rect id="Rectangle_1534" x="-138.2" y="56.6" class="st24" width="20.6" height="1.5"/>
						<path id="Path_3252" class="st39" d="M-138.2,40.1h20.3l2.6-2.5l-25.4,0L-138.2,40.1z"/>
						<path id="Path_3253" class="st39" d="M-140.7,60.5l2.6-2.5v-18l-2.6-2.6h-0.1L-140.7,60.5z"/>
						<path id="Path_3254" class="st36" d="M-138.2,58h20.2l2.6,2.5l-25.4,0L-138.2,58z"/>
						<path id="Path_3255" class="st36" d="M-115.3,60.6l-2.6-2.5v-18l2.6-2.6h0.1L-115.3,60.6z"/>
					</g>
				</g>
				<rect id="Rectangle_1535" x="-182.8" y="37.6" class="st26" width="182.1" height="3.5"/>
				<rect id="Rectangle_1536" x="-173.5" y="41" class="st21" width="164.2" height="3.5"/>
				<g id="Group_1448" transform="translate(78.288 52.978)">
					<rect id="Rectangle_1537" x="-157.6" y="46.9" class="st38" width="12.9" height="1"/>
				</g>
				<path id="Path_3256" class="st41" d="M-60,81.8l-25.4,24.9V81.8H-60z"/>
			</g>
			<g id="Group_1450" transform="translate(77.226 52.711)">
				<rect id="Rectangle_1538" x="-158.8" y="46.6" class="st38" width="1" height="2.9"/>
			</g>
		</g>
		<g id="Group_1452" transform="translate(68.034 48.095)">
			<rect id="Rectangle_1539-2" x="-366" y="99" class="st15" width="8.7" height="25.5"/>
			<path id="Path_3257-2" class="st42" d="M-366,99v7.2c3.1-0.2,5.8,2.2,6,5.3c0,0.1,0,0.2,0,0.2v12.8h3V99H-366z"/>
			<path id="Path_3258-2" class="st3" d="M-361.3-14.3l-17.6,53.8l17.6-8.5l17.6,8.5L-361.3-14.3z"/>
			<path id="Path_3259-2" class="st3" d="M-361.3,2.6l-22.6,69.2l22.6-11l22.6,11L-361.3,2.6z"/>
			<path id="Path_3260-2" class="st3" d="M-361.3,20.6l-30.7,94.1l30.7-14.9l30.7,14.9L-361.3,20.6z"/>
			<path id="Path_3261-2" class="st43" d="M-361.3-14.3l17.6,53.8l-13.5-6.6L-361.3-14.3z"/>
			<path id="Path_3262-2" class="st43" d="M-356.3,17.8l17.6,53.8l-13.5-6.6L-356.3,17.8z"/>
			<path id="Path_3263-2" class="st43" d="M-348.2,60.9l17.6,53.8l-13.5-6.6L-348.2,60.9z"/>
			<path id="Path_3264-2" class="st17" d="M-350.3,36.3l-11-5.3l-11,5.3l-4.3,13.2l14.8-12.1l15.8,11.7L-350.3,36.3z"/>
			<path id="Path_3265-2" class="st17" d="M-345.7,68.2l-15.6-7.6l-15.6,7.6l-6.1,18.6l20.9-17.1l22.3,16.6L-345.7,68.2z"/>
		</g>
		<g id="Group_1503" transform="translate(136.509 103.358)">
			<g id="Group_1482-2" transform="translate(14.92)">
				<g id="Group_1474-2" transform="translate(0 3.891)">
					<g id="Group_1473-2">
						<rect id="Rectangle_1578-2" x="-295" y="52.6" class="st44" width="33" height="1.7"/>
					</g>
				</g>
				<g id="Group_1476-2" transform="translate(0 7.224)">
					<g id="Group_1475-2">
						<rect id="Rectangle_1579-2" x="-295" y="56.4" class="st44" width="33" height="1.7"/>
					</g>
				</g>
				<g id="Group_1477-2" transform="translate(1.039 1.746)">
					<path id="Path_3294-2" class="st45" d="M-291.3,67.8h-2.4V52.2l1.2-2l1.2,2V67.8z"/>
				</g>
				<g id="Group_1478-2" transform="translate(4.027 0.915)">
					<path id="Path_3295-2" class="st45" d="M-287.8,68.6h-2.4V51.2l1.2-2l1.2,2L-287.8,68.6z"/>
				</g>
				<g id="Group_1479-2" transform="translate(7.014)">
					<path id="Path_3296-2" class="st45" d="M-284.4,69.5h-2.4V50.2l1.2-2l1.2,2V69.5z"/>
				</g>
				<g id="Group_1480-2" transform="translate(10.002 0.915)">
					<path id="Path_3297-2" class="st45" d="M-280.9,68.6h-2.4V51.2l1.2-2l1.2,2L-280.9,68.6z"/>
				</g>
				<g id="Group_1481-2" transform="translate(12.99 1.746)">
					<path id="Path_3298-2" class="st45" d="M-277.4,67.8h-2.4V52.2l1.2-2l1.2,2V67.8z"/>
				</g>
			</g>
			<g id="Group_1492-2" transform="translate(29.907)">
				<g id="Group_1484-2" transform="translate(0 3.891)">
					<g id="Group_1483-2">
						<rect id="Rectangle_1580-2" x="-277.5" y="52.6" class="st44" width="33" height="1.7"/>
					</g>
				</g>
				<g id="Group_1486-2" transform="translate(0 7.224)">
					<g id="Group_1485-2">
						<rect id="Rectangle_1581-2" x="-277.5" y="56.4" class="st44" width="33" height="1.7"/>
					</g>
				</g>
				<g id="Group_1487-2" transform="translate(1.039 1.746)">
					<path id="Path_3299-2" class="st45" d="M-273.9,67.8h-2.4V52.2l1.2-2l1.2,2L-273.9,67.8z"/>
				</g>
				<g id="Group_1488-2" transform="translate(4.027 0.915)">
					<path id="Path_3300-2" class="st45" d="M-270.4,68.6h-2.4V51.2l1.2-2l1.2,2L-270.4,68.6z"/>
				</g>
				<g id="Group_1489-2" transform="translate(7.014)">
					<path id="Path_3301-2" class="st45" d="M-266.9,69.5h-2.4V50.2l1.2-2l1.2,2L-266.9,69.5z"/>
				</g>
				<g id="Group_1490-2" transform="translate(10.002 0.915)">
					<path id="Path_3302-2" class="st45" d="M-263.4,68.6h-2.4V51.2l1.2-2l1.2,2L-263.4,68.6z"/>
				</g>
				<g id="Group_1491-2" transform="translate(12.99 1.746)">
					<path id="Path_3303-2" class="st45" d="M-260,67.8h-2.4V52.2l1.2-2l1.2,2L-260,67.8z"/>
				</g>
			</g>
			<g id="Group_1502-2">
				<g id="Group_1494-2" transform="translate(0 3.891)">
					<g id="Group_1493-2">
						<rect id="Rectangle_1582-2" x="-312.3" y="52.6" class="st44" width="33" height="1.7"/>
					</g>
				</g>
				<g id="Group_1496-2" transform="translate(0 7.224)">
					<g id="Group_1495-2">
						<rect id="Rectangle_1583-2" x="-312.3" y="56.4" class="st44" width="33" height="1.7"/>
					</g>
				</g>
				<g id="Group_1497-2" transform="translate(1.039 1.746)">
					<path id="Path_3304-2" class="st45" d="M-308.7,67.8h-2.4V52.2l1.2-2l1.2,2V67.8z"/>
				</g>
				<g id="Group_1498-2" transform="translate(4.027 0.915)">
					<path id="Path_3305-2" class="st45" d="M-305.2,68.6h-2.4V51.2l1.2-2l1.2,2V68.6z"/>
				</g>
				<g id="Group_1499-2" transform="translate(7.014)">
					<path id="Path_3306-2" class="st45" d="M-301.7,69.5h-2.4V50.2l1.2-2l1.2,2V69.5z"/>
				</g>
				<g id="Group_1500-2" transform="translate(10.002 0.915)">
					<path id="Path_3307-2" class="st45" d="M-298.3,68.6h-2.4V51.2l1.2-2l1.2,2V68.6z"/>
				</g>
				<g id="Group_1501-2" transform="translate(12.99 1.746)">
					<path id="Path_3308-2" class="st45" d="M-294.8,67.8h-2.4V52.2l1.2-2l1.2,2L-294.8,67.8z"/>
				</g>
			</g>
		</g>
		<g id="Group_1504" transform="translate(101.85 103.267)">
			<path id="Path_3309-2" class="st46" d="M-352.7,71.4c-0.1,2.4,1.9,4.3,4.3,4.4c0.1,0,0.1,0,0.2,0h71.8l4.4-0.9
				c2.4-0.2,4.3-2,4.4-4.4c0-4.4,0.8-12.3-2.3-17.2c-3.6-5.7-26.8-6-39.4-4.4c-9.5,1.3-13.8,4.8-21.3,7.8
				C-345.4,62.7-351.4,54.8-352.7,71.4z"/>
			<path id="Path_3310-2" class="st47" d="M-274.8,53.7c-4.1-3.2-14.8-3.7-19.2-3.8c-5.9-0.1-11.8,0.4-17.6,1.6
				c-5.5,1.2-10.6,3.7-14.9,7.1l53.9-1.1C-272.9,56-273.7,54.7-274.8,53.7z"/>
			<path id="Path_3311-2" class="st48" d="M-274.8,53.7c-4.1-3.2-14.8-3.7-19.2-3.8c-5.9-0.1-11.8,0.4-17.6,1.6
				c-5.5,1.2-10.6,3.7-14.9,7.1l53.9-1.1C-272.9,56-273.7,54.7-274.8,53.7L-274.8,53.7z M-324.6,58c3.9-2.8,8.4-4.8,13.2-5.9
				c5.7-1.2,11.6-1.7,17.5-1.6c4.8,0,14.9,0.6,18.8,3.6c0.8,0.8,1.4,1.7,1.8,2.8L-324.6,58z"/>
			<path id="Path_3312-2" class="st48" d="M-341.3,63.1h5.2c3.4,0.1,6.3,2.4,7.2,5.7h35.4c0.9-3.2,3.8-5.5,7.2-5.7h5.2
				c3.3,0.1,6.1,2.2,7,5.3l2.5-0.5c1.6-0.3,3-1.1,4.1-2.2c0,1.8-0.1,3.5-0.1,4.8c-0.2,2.3-2.1,4.2-4.4,4.4l-4.4,0.9h-71.8
				c-2.4,0.1-4.4-1.8-4.4-4.2c0-0.1,0-0.1,0-0.2c0.1-1.4,0.3-2.8,0.5-4.2c0.9,0.9,2.2,1.5,3.5,1.6h0.2
				C-347.6,65.5-344.7,63.2-341.3,63.1z"/>
			<path id="Path_3313-2" class="st49" d="M-286.4,64.4h5.2c3.5,0,5.6,2.9,6.3,6.2c0.1,0.6,0.3,1.3,0.5,2.1l2.3-0.5
				c1.7-0.3,3.2-1,4.4-2.2c0,0.1,0,0.3,0,0.4c-0.2,2.3-2.1,4.2-4.4,4.4l-1.8,0.4l0,0l-2.5,0.5h0l-0.1,0h-71.8
				c-2.4,0.1-4.4-1.8-4.4-4.2c0-0.1,0-0.1,0-0.2c0-0.1,0-0.2,0-0.3c1.2,1.2,2.8,1.9,4.4,2h0.1l0.5-2.5c0.7-3.3,2.8-6.2,6.3-6.2h5.2
				c3.5,0,5.6,2.9,6.3,6.2l0.5,2.5h36l0.5-2.5C-291.9,67.3-289.8,64.4-286.4,64.4z"/>
			<ellipse id="Ellipse_147-2" class="st50" cx="-338.7" cy="74.1" rx="7.2" ry="7.1"/>
			<ellipse id="Ellipse_148-2" class="st51" cx="-338.7" cy="74.1" rx="4.6" ry="4.5"/>
			<path id="Path_3314-2" class="st52" d="M-338.7,73.6c0.3,0,0.5,0.2,0.5,0.5c0,0.2-0.2,0.5-0.5,0.5c-0.3,0-0.5-0.2-0.5-0.5
				C-339.1,73.8-338.9,73.6-338.7,73.6L-338.7,73.6z M-337.5,70.7c0.8,0.3,1.4,0.8,1.9,1.5c-0.1,0.2-0.2,0.4-0.4,0.5
				c-0.4,0.1-0.8,0.2-1.2,0.1c-0.5,0-0.5-0.1-0.6-0.6c-0.1-0.4,0-0.8,0.1-1.2C-337.7,70.9-337.6,70.8-337.5,70.7L-337.5,70.7z
				 M-335.1,74.3c-0.1,0.8-0.4,1.6-1,2.2c-0.2,0-0.4-0.1-0.5-0.3c-0.2-0.3-0.4-0.7-0.4-1.1c-0.1-0.5,0-0.6,0.4-0.7
				c0.4-0.2,0.8-0.2,1.2-0.2C-335.3,74.2-335.2,74.3-335.1,74.3L-335.1,74.3z M-337.4,77.4c-0.8,0.3-1.7,0.3-2.5,0
				c0-0.1,0-0.3,0-0.4c0.2-0.4,0.4-0.7,0.8-0.9c0.4-0.3,0.5-0.3,0.9,0c0.3,0.2,0.6,0.5,0.8,0.9C-337.4,77.1-337.4,77.3-337.4,77.4
				L-337.4,77.4z M-341.3,76.5c-0.6-0.6-0.9-1.4-1-2.2c0.1-0.1,0.2-0.1,0.3-0.1c0.4,0,0.8,0,1.2,0.2c0.4,0.2,0.5,0.2,0.4,0.7
				c0,0.4-0.2,0.8-0.4,1.1C-340.9,76.4-341.1,76.5-341.3,76.5L-341.3,76.5z M-341.8,72.2c0.4-0.7,1.1-1.2,1.9-1.5
				c0.1,0.1,0.2,0.2,0.2,0.3c0.1,0.4,0.2,0.8,0.1,1.2c0,0.5-0.1,0.6-0.6,0.6c-0.4,0.1-0.8,0-1.2-0.1
				C-341.5,72.6-341.7,72.4-341.8,72.2L-341.8,72.2z M-338.7,75.1c0.1,0,0.3,0.1,0.3,0.3c0,0.1-0.1,0.3-0.3,0.3
				c-0.1,0-0.3-0.1-0.3-0.3S-338.8,75.1-338.7,75.1C-338.7,75.1-338.7,75.1-338.7,75.1z M-337.6,74.3c0.1,0,0.3,0.1,0.3,0.3
				c0,0.1-0.1,0.3-0.3,0.3c-0.1,0-0.3-0.1-0.3-0.3S-337.7,74.3-337.6,74.3C-337.6,74.3-337.6,74.3-337.6,74.3z M-339.8,74.3
				c0.1,0,0.3,0.1,0.3,0.3c0,0.1-0.1,0.3-0.3,0.3c-0.1,0-0.3-0.1-0.3-0.3S-339.9,74.3-339.8,74.3C-339.8,74.3-339.8,74.3-339.8,74.3
				z M-337.9,72.9c0.1,0,0.3,0.1,0.3,0.3c0,0.1-0.1,0.3-0.3,0.3c-0.1,0-0.3-0.1-0.3-0.3C-338.2,73-338.1,72.9-337.9,72.9
				C-337.9,72.9-337.9,72.9-337.9,72.9z M-339.4,72.9c0.1,0,0.3,0.1,0.3,0.3c0,0.1-0.1,0.3-0.3,0.3c-0.1,0-0.3-0.1-0.3-0.3
				C-339.7,73-339.5,72.9-339.4,72.9L-339.4,72.9z"/>
			<path id="Path_3315-2" class="st53" d="M-283.8,81.1c4,0,7.2-3.2,7.2-7.1s-3.2-7.1-7.2-7.1c-4,0-7.2,3.2-7.2,7.1
				C-290.9,78-287.7,81.1-283.8,81.1z"/>
			<path id="Path_3316-2" class="st54" d="M-283.8,78.6c2.5,0,4.6-2,4.6-4.5c0-2.5-2-4.5-4.6-4.5c-2.5,0-4.6,2-4.6,4.5
				C-288.3,76.5-286.3,78.5-283.8,78.6z"/>
			<path id="Path_3317-2" class="st52" d="M-283.8,73.6c0.3,0,0.5,0.2,0.5,0.5c0,0.2-0.2,0.5-0.5,0.5c-0.3,0-0.5-0.2-0.5-0.5
				C-284.2,73.8-284,73.6-283.8,73.6L-283.8,73.6z M-282.6,70.7c0.8,0.3,1.4,0.8,1.9,1.5c-0.1,0.2-0.2,0.4-0.4,0.5
				c-0.4,0.1-0.8,0.2-1.2,0.1c-0.5,0-0.5-0.1-0.6-0.6c-0.1-0.4,0-0.8,0.1-1.2C-282.7,70.9-282.7,70.8-282.6,70.7L-282.6,70.7z
				 M-280.1,74.3c-0.1,0.8-0.4,1.6-1,2.2c-0.2,0-0.4-0.1-0.5-0.3c-0.2-0.3-0.4-0.7-0.4-1.1c-0.1-0.5,0-0.6,0.4-0.7
				c0.4-0.2,0.8-0.2,1.2-0.2C-280.3,74.2-280.2,74.3-280.1,74.3L-280.1,74.3z M-282.5,77.4c-0.8,0.3-1.7,0.3-2.5,0
				c0-0.1,0-0.3,0-0.4c0.2-0.4,0.4-0.7,0.8-0.9c0.4-0.3,0.5-0.3,0.9,0c0.3,0.2,0.6,0.5,0.8,0.9C-282.5,77.1-282.5,77.3-282.5,77.4
				L-282.5,77.4z M-286.4,76.5c-0.6-0.6-0.9-1.4-1-2.2c0.1-0.1,0.2-0.1,0.3-0.1c0.4,0,0.8,0,1.2,0.2c0.4,0.2,0.5,0.2,0.4,0.7
				c0,0.4-0.2,0.8-0.4,1.1C-286,76.4-286.2,76.5-286.4,76.5L-286.4,76.5z M-286.8,72.2c0.4-0.7,1.1-1.2,1.9-1.5
				c0.1,0.1,0.2,0.2,0.2,0.3c0.1,0.4,0.2,0.8,0.1,1.2c0,0.5-0.1,0.6-0.6,0.6c-0.4,0.1-0.8,0-1.2-0.1
				C-286.6,72.6-286.8,72.4-286.8,72.2L-286.8,72.2z M-283.8,75.1c0.1,0,0.3,0.1,0.3,0.3c0,0.1-0.1,0.3-0.3,0.3
				c-0.1,0-0.3-0.1-0.3-0.3C-284,75.2-283.9,75.1-283.8,75.1C-283.8,75.1-283.8,75.1-283.8,75.1z M-282.7,74.3
				c0.1,0,0.3,0.1,0.3,0.3c0,0.1-0.1,0.3-0.3,0.3c-0.1,0-0.3-0.1-0.3-0.3C-282.9,74.4-282.8,74.3-282.7,74.3
				C-282.7,74.3-282.7,74.3-282.7,74.3z M-284.8,74.3c0.1,0,0.3,0.1,0.3,0.3c0,0.1-0.1,0.3-0.3,0.3c-0.1,0-0.3-0.1-0.3-0.3
				C-285.1,74.4-285,74.3-284.8,74.3C-284.8,74.3-284.8,74.3-284.8,74.3z M-283,72.9c0.1,0,0.3,0.1,0.3,0.3c0,0.1-0.1,0.3-0.3,0.3
				c-0.1,0-0.3-0.1-0.3-0.3S-283.2,72.9-283,72.9C-283,72.9-283,72.9-283,72.9z M-284.5,72.9c0.1,0,0.3,0.1,0.3,0.3
				c0,0.1-0.1,0.3-0.3,0.3c-0.1,0-0.3-0.1-0.3-0.3C-284.8,73-284.6,72.9-284.5,72.9C-284.5,72.9-284.5,72.9-284.5,72.9L-284.5,72.9z
				"/>
			<path id="Path_3318-2" class="st55" d="M-350.2,62.2h2.4c1.7,0,0.6,2.1-0.2,3c-0.6,0.8-2.5,0.4-3.6,0.1
				C-351.4,64.2-350.9,63.1-350.2,62.2z"/>
			<path id="Path_3319-2" class="st48" d="M-267.8,59.5h-3.7c-1.8,0-0.2,3.9,2.1,3.9h1.9C-267.6,62.1-267.7,60.8-267.8,59.5z"/>
			<path id="Path_3320-2" class="st48" d="M-303.5,50.3l0.9,7.9l-2.8,0.1l-0.9-7.6C-305.4,50.4-304.5,50.3-303.5,50.3z"/>
			<path id="Path_3321-2" class="st48" d="M-289,50.1l0.9,7.8l-1.3,0l-0.9-7.8C-289.8,50-289.3,50-289,50.1z"/>
			<path id="Path_3322-2" class="st48" d="M-321.4,55.2l0.9,3.3l-6,0.1C-324.9,57.3-323.2,56.2-321.4,55.2z"/>
			<path id="Path_3323-2" class="st49" d="M-304.7,50.8l0.9,7.3l-0.4,16.4h-0.4l0.4-16.4l-0.9-7.3c-2.2,0.2-4.3,0.6-6.4,1.1
				c-6.5,1.6-12.7,4.5-17.9,8.7l1.8,13.9l-0.5,0l-1.8-14.1c5.3-4.3,11.6-7.3,18.3-8.9c5.8-1.2,11.7-1.7,17.6-1.6
				c1.1,0,3.6,0,5.3,0.2l1.2,9.8l-1.2,8.3l-0.4,0l1.2-8.2l-1.1-9.4c-1.5-0.1-3.8-0.1-4.9-0.1C-297.6,50.3-301.2,50.4-304.7,50.8z"/>
			<path id="Path_3324-2" class="st46" d="M-320,55c0.9-0.1,1.1-0.3,1.1,0.5c0,0.8,0.1,2.3-0.5,2.6s-2,0.2-2.3-0.2
				c-0.3-0.5-0.3-1.2-0.1-1.7C-321.4,55.4-320.7,55-320,55z"/>
			<path id="Path_3325-2" class="st48" d="M-321.8,57.6c0.5-0.2,1.1-0.3,1.6-0.3c0.4,0,0.8,0,1.2,0c-0.1,0.4-0.2,0.8-0.4,0.9
				c-0.6,0.2-2,0.2-2.3-0.2C-321.7,57.8-321.7,57.7-321.8,57.6z"/>
			<path id="Path_3326-2" class="st48" d="M-309.4,59.1l3.6-0.1c0.4,0,0.7,0.3,0.7,0.6l0,0c0,0.4-0.3,0.7-0.6,0.7l-3.6,0.1
				c-0.4,0-0.7-0.3-0.7-0.6l0,0C-310,59.4-309.7,59.1-309.4,59.1z"/>
			<path id="Path_3327-2" class="st48" d="M-309.7,59.5l4.3-0.1c0.2,0,0.3,0.1,0.3,0.3l0,0c0,0.2-0.1,0.3-0.3,0.3c0,0,0,0,0,0
				l-4.3,0.1c-0.2,0-0.3-0.1-0.3-0.3l0,0C-310,59.6-309.9,59.5-309.7,59.5L-309.7,59.5z"/>
			<path id="Path_3328-2" class="st48" d="M-294.1,58.8l3.6-0.1c0.4,0,0.7,0.3,0.7,0.6l0,0c0,0.4-0.3,0.7-0.6,0.7l-3.6,0.1
				c-0.4,0-0.7-0.3-0.7-0.6l0,0C-294.7,59.1-294.4,58.8-294.1,58.8z"/>
			<path id="Path_3329-2" class="st48" d="M-294.4,59.2l4.3-0.1c0.2,0,0.3,0.1,0.3,0.3l0,0c0,0.2-0.1,0.3-0.3,0.3l-4.3,0.1
				c-0.2,0-0.3-0.1-0.3-0.3l0,0l0,0C-294.7,59.3-294.6,59.2-294.4,59.2z"/>
		</g>
		<g id="Group_1543" transform="translate(216.438 91.379)">
			<g id="Group_1509" transform="translate(7.667 13.321)">
				<g id="Group_1506" transform="translate(5.838 11.08)">
					<g id="Group_1505">
						<path id="Path_3331" class="st56" d="M-200.6,60.4l-2.2-0.2c-0.6,0.6-0.8,1.4-0.8,2.2l6.4,0.6
							C-198,61.7-199.2,60.8-200.6,60.4z"/>
					</g>
				</g>
				<g id="Group_1508">
					<g id="Group_1507">
						<path id="Path_3332" class="st57" d="M-209.3,47.6c0,0,15,5.9,16.8,8.5s-2.3,15.3-2.3,15.3l-2.2-0.2
							c-0.2-4.2,0.1-8.3,0.7-12.4c-5.9,2.4-14.1-1.6-14.1-1.6L-209.3,47.6z"/>
					</g>
				</g>
			</g>
			<g id="Group_1511" transform="translate(11.8 25.001)">
				<g id="Group_1510">
					<path id="Path_3333" class="st58" d="M-202.5,67c1.7,0,3.1-1.4,3.1-3.1c0-1.7-1.4-3.1-3.1-3.1c-1.7,0-3.1,1.4-3.1,3.1
						C-205.6,65.6-204.2,67-202.5,67z"/>
				</g>
			</g>
			<g id="Group_1513" transform="translate(7.284 18.616)">
				<g id="Group_1512">
					<rect id="Rectangle_1584" x="-210.8" y="53.6" class="st58" width="27" height="1.7"/>
				</g>
			</g>
			<g id="Group_1515" transform="translate(17.241 21.649)">
				<g id="Group_1514">
					<path id="Path_3334" class="st58" d="M-199.2,67.3c0-5.6,4.6-10.2,10.4-10.2c5.7,0,10.4,4.6,10.4,10.2
						c0,5.6-4.6,10.2-10.4,10.2C-194.6,77.5-199.2,72.9-199.2,67.3z M-197.5,67.3c0,4.7,3.9,8.6,8.7,8.6c4.8,0,8.7-3.8,8.7-8.6
						s-3.9-8.6-8.7-8.6C-193.6,58.7-197.5,62.5-197.5,67.3z"/>
				</g>
			</g>
			<g id="Group_1517" transform="translate(0 21.649)">
				<g id="Group_1516">
					<path id="Path_3335" class="st58" d="M-219.3,67.3c0-5.6,4.6-10.2,10.4-10.2c5.7,0,10.4,4.6,10.4,10.2
						c0,5.6-4.6,10.2-10.4,10.2C-214.6,77.5-219.3,72.9-219.3,67.3z M-217.6,67.3c0,4.7,3.9,8.6,8.7,8.6c4.8,0,8.7-3.8,8.7-8.6
						s-3.9-8.6-8.7-8.6C-213.7,58.7-217.6,62.5-217.6,67.3z"/>
				</g>
			</g>
			<g id="Group_1519" transform="translate(17.772 13.952)">
				<g id="Group_1518" transform="translate(0 0)">
					<polygon id="Rectangle_1585" class="st58" points="-198.6,48.8 -197,48.3 -188.6,74.7 -190.2,75.2 					"/>
				</g>
			</g>
			<g id="Group_1521" transform="translate(4.978 16.454)">
				<g id="Group_1520">
					<path id="Path_3336" class="st58" d="M-197.4,73.1l1.4-0.9l-13.4-20l-3.6-1l-0.4,1.6l3,0.8L-197.4,73.1z"/>
				</g>
			</g>
			<g id="Group_1523" transform="translate(4.236 18.824)">
				<g id="Group_1522">
					<path id="Path_3337" class="st58" d="M-214.4,71.1h20.6l9.1-16.4l-1.5-0.8l-8.6,15.6h-17.1l5.5-14.9L-208,54L-214.4,71.1z"/>
				</g>
			</g>
			<g id="Group_1525" transform="translate(15.324 13.68)">
				<g id="Group_1524">
					<path id="Path_3338" class="st58" d="M-201.4,51.8h1.7c0-2.7,1-2.1,8.1-2.1V48h-6.5C-199.8,48-201.4,49.1-201.4,51.8z"/>
				</g>
			</g>
			<g id="Group_1542" transform="translate(5.102)">
				<g id="Group_1527" transform="translate(6.73 27.814)">
					<g id="Group_1526">
						<path id="Path_3339" class="st56" d="M-202.4,64.4l-2-0.4c-0.6,0.5-1,1.2-1.1,2l6.6,1.7C-199.4,65.9-202.4,64.4-202.4,64.4z"
							/>
					</g>
				</g>
				<g id="Group_1529" transform="translate(6.761 4.399)">
					<g id="Group_1528">
						<path id="Path_3340" class="st59" d="M-200.7,38.3l-1.1,4.9l-3.7-3.7l3.1-1.9L-200.7,38.3z"/>
					</g>
				</g>
				<g id="Group_1531" transform="translate(0 5.284)">
					<g id="Group_1530">
						<path id="Path_3341" class="st60" d="M-198.7,38.5c-7.6,5.3-12.8,13.3-14.6,22.3h13.1l5.2-18.6L-198.7,38.5z"/>
					</g>
				</g>
				<g id="Group_1533" transform="translate(3.491 6.969)">
					<g id="Group_1532">
						<path id="Path_3342" class="st59" d="M-201.4,44.1c-1,1.6-2.2,3-3.6,4.1c2.4-0.4,9.9,5.8,9.9,5.8l-0.5,1.3
							c0,0-13.1-2.9-13.6-5.3c-0.4-1.6,2.6-6.5,4.1-8.6c0.6-0.8,1.7-1.2,2.7-0.8l0,0c1.2,0.4,1.9,1.7,1.4,2.9
							C-201.1,43.7-201.2,43.9-201.4,44.1z"/>
					</g>
				</g>
				<g id="Group_1535" transform="translate(7.576 0.31)">
					<g id="Group_1534">
						<path id="Path_3343" class="st59" d="M-204.5,38.2c-0.1-1.5,0.5-2.9,1.5-4c0.7-0.8,1.6-1.2,2.6-1.3c2.1,0.1,3.8,1.6,4.3,3.6
							l0,0c1,3.3-1.4,7.6-3.8,7.7c-1.7,0.1-3.3-1.8-3.9-3.4C-204.3,39.9-204.5,39.1-204.5,38.2z"/>
					</g>
				</g>
				<g id="Group_1537" transform="translate(9.723 13.328)">
					<g id="Group_1536">
						<path id="Path_3344" class="st59" d="M-199.9,50c-1.4-0.8-2.5-1.1-2-2c0.2-0.3,0.5-0.5,0.8-0.4l1.9,0.2
							c0.7,0.1,1.1,0.6,1.1,1.3c0,0,0,0.1,0,0.1c-0.2,0.7-0.8,1.1-1.5,0.9C-199.7,50.1-199.8,50.1-199.9,50z"/>
					</g>
				</g>
				<g id="Group_1539" transform="translate(0.837 15.747)">
					<g id="Group_1538">
						<path id="Path_3345" class="st61" d="M-201.1,50.4l7.3,8.5l-2.7,17.6l-2-0.4c0,0-3.9-11.6,0.5-15c0,0-13.7-4.5-14.4-10.7
							L-201.1,50.4z"/>
					</g>
				</g>
				<g id="Group_1541" transform="translate(7.139)">
					<g id="Group_1540">
						<path id="Path_3346" class="st62" d="M-194.8,37.3l-3.8-1l-0.2,1.3l-1.9-0.3L-203,42l-2.1-3
							C-205.1,30.1-195.7,31.2-194.8,37.3z"/>
					</g>
				</g>
			</g>
		</g>
		<path id="Path_3347" class="st63" d="M-111.1,182.2c3.5,0,6.9,1.5,9.2,4.2c1.8-8.6,10.4-14.2,19.1-12.4c2.7,0.6,5.3,1.8,7.3,3.6
			c6.9-4,15.7-1.7,19.8,5.1c0.8,1.3,1.3,2.8,1.7,4.3c2.1-2.4,5.1-3.7,8.2-3.6c5.9,0.1,10.7,4.9,10.6,10.7H-123
			C-123,185.8-117.6,182.2-111.1,182.2z"/>
		<g id="Group_1590" transform="translate(278.599 103.306)">
			<g id="Group_1569" transform="translate(14.92)">
				<g id="Group_1561" transform="translate(0 3.891)">
					<g id="Group_1560">
						<rect id="Rectangle_1588" x="-129.6" y="52.6" class="st44" width="33" height="1.7"/>
					</g>
				</g>
				<g id="Group_1563" transform="translate(0 7.224)">
					<g id="Group_1562">
						<rect id="Rectangle_1589" x="-129.6" y="56.4" class="st44" width="33" height="1.7"/>
					</g>
				</g>
				<g id="Group_1564" transform="translate(1.039 1.746)">
					<path id="Path_3361" class="st45" d="M-125.9,67.7h-2.4V52.1l1.2-2l1.2,2L-125.9,67.7z"/>
				</g>
				<g id="Group_1565" transform="translate(4.027 0.915)">
					<path id="Path_3362" class="st45" d="M-122.4,68.5h-2.4V51.2l1.2-2l1.2,2L-122.4,68.5z"/>
				</g>
				<g id="Group_1566" transform="translate(7.014)">
					<path id="Path_3363" class="st45" d="M-119,69.5h-2.4V50.1l1.2-2l1.2,2L-119,69.5z"/>
				</g>
				<g id="Group_1567" transform="translate(10.002 0.915)">
					<path id="Path_3364" class="st45" d="M-115.5,68.5h-2.4V51.2l1.2-2l1.2,2L-115.5,68.5z"/>
				</g>
				<g id="Group_1568" transform="translate(12.99 1.746)">
					<path id="Path_3365" class="st45" d="M-112,67.7h-2.4V52.1l1.2-2l1.2,2L-112,67.7z"/>
				</g>
			</g>
			<g id="Group_1579" transform="translate(29.907)">
				<g id="Group_1571" transform="translate(0 3.891)">
					<g id="Group_1570">
						<rect id="Rectangle_1590" x="-112.1" y="52.6" class="st44" width="33" height="1.7"/>
					</g>
				</g>
				<g id="Group_1573" transform="translate(0 7.224)">
					<g id="Group_1572">
						<rect id="Rectangle_1591" x="-112.1" y="56.4" class="st44" width="33" height="1.7"/>
					</g>
				</g>
				<g id="Group_1574" transform="translate(1.039 1.746)">
					<path id="Path_3366" class="st45" d="M-108.5,67.7h-2.4V52.1l1.2-2l1.2,2L-108.5,67.7z"/>
				</g>
				<g id="Group_1575" transform="translate(4.027 0.915)">
					<path id="Path_3367" class="st45" d="M-105,68.5h-2.4V51.2l1.2-2l1.2,2L-105,68.5z"/>
				</g>
				<g id="Group_1576" transform="translate(7.014)">
					<path id="Path_3368" class="st45" d="M-101.5,69.5h-2.4V50.1l1.2-2l1.2,2L-101.5,69.5z"/>
				</g>
				<g id="Group_1577" transform="translate(10.002 0.915)">
					<path id="Path_3369" class="st45" d="M-98,68.5h-2.4V51.2l1.2-2l1.2,2L-98,68.5z"/>
				</g>
				<g id="Group_1578" transform="translate(12.99 1.746)">
					<path id="Path_3370" class="st45" d="M-94.6,67.7H-97V52.1l1.2-2l1.2,2L-94.6,67.7z"/>
				</g>
			</g>
			<g id="Group_1589">
				<g id="Group_1581" transform="translate(0 3.891)">
					<g id="Group_1580">
						<rect id="Rectangle_1592" x="-146.9" y="52.6" class="st44" width="33" height="1.7"/>
					</g>
				</g>
				<g id="Group_1583" transform="translate(0 7.224)">
					<g id="Group_1582">
						<rect id="Rectangle_1593" x="-146.9" y="56.4" class="st44" width="33" height="1.7"/>
					</g>
				</g>
				<g id="Group_1584" transform="translate(1.039 1.746)">
					<path id="Path_3371" class="st45" d="M-143.3,67.7h-2.4V52.1l1.2-2l1.2,2L-143.3,67.7z"/>
				</g>
				<g id="Group_1585" transform="translate(4.027 0.915)">
					<path id="Path_3372" class="st45" d="M-139.8,68.5h-2.4V51.2l1.2-2l1.2,2L-139.8,68.5z"/>
				</g>
				<g id="Group_1586" transform="translate(7.014)">
					<path id="Path_3373" class="st45" d="M-136.3,69.5h-2.4V50.1l1.2-2l1.2,2L-136.3,69.5z"/>
				</g>
				<g id="Group_1587" transform="translate(10.002 0.915)">
					<path id="Path_3374" class="st45" d="M-132.9,68.5h-2.4V51.2l1.2-2l1.2,2L-132.9,68.5z"/>
				</g>
				<g id="Group_1588" transform="translate(12.99 1.746)">
					<path id="Path_3375" class="st45" d="M-129.4,67.7h-2.4V52.1l1.2-2l1.2,2L-129.4,67.7z"/>
				</g>
			</g>
		</g>
		<g id="Group_1591" transform="translate(394.43 48.095)">
			<rect id="Rectangle_1594" x="14" y="99" class="st15" width="8.7" height="25.5"/>
			<path id="Path_3376" class="st42" d="M14,99v7.2c3.1-0.2,5.8,2.2,6,5.3c0,0.1,0,0.2,0,0.2v12.8h3V99H14z"/>
			<path id="Path_3377" class="st3" d="M18.6-14.3L1,39.5L18.6,31l17.6,8.5L18.6-14.3z"/>
			<path id="Path_3378" class="st3" d="M18.6,2.6L-4,71.8l22.6-11l22.6,11L18.6,2.6z"/>
			<path id="Path_3379" class="st3" d="M18.6,20.6l-30.7,94.1l30.7-14.9l30.7,14.9L18.6,20.6z"/>
			<path id="Path_3380" class="st43" d="M18.6-14.3l17.6,53.8l-13.5-6.6L18.6-14.3z"/>
			<path id="Path_3381" class="st43" d="M23.6,17.8l17.6,53.8L27.7,65L23.6,17.8z"/>
			<path id="Path_3382" class="st43" d="M31.8,60.9l17.6,53.8l-13.5-6.6L31.8,60.9z"/>
			<path id="Path_3383" class="st17" d="M29.6,36.3l-11-5.3l-11,5.3L3.3,49.5l14.8-12.1l15.8,11.7L29.6,36.3z"/>
			<path id="Path_3384" class="st17" d="M34.2,68.2l-15.6-7.6L3,68.2L-3,86.8l20.9-17.1l22.3,16.6L34.2,68.2z"/>
		</g>
		<g id="Group_1605" transform="translate(68.775 84.636)">
			<g id="Group_1592-2" transform="translate(0 28.122)">
				<path id="Path_3385-2" class="st64" d="M-387.9,61.4l-0.6-2.3c-0.8-0.3-1.8-0.3-2.6,0l1.9,6.8
					C-388.3,64.7-387.8,63.1-387.9,61.4z"/>
			</g>
			<g id="Group_1593-2" transform="translate(14.72 33.606)">
				<path id="Path_3386-2" class="st64" d="M-371.5,65.1l-2.2,0.6c-0.4,0.8-0.4,1.7-0.1,2.6l7.5-1.6
					C-367.8,65.6-369.7,65.1-371.5,65.1z"/>
			</g>
			<g id="Group_1594-2" transform="translate(1.198 18.815)">
				<path id="Path_3387-2" class="st65" d="M-364.8,48.3c0,0-4.7,16.3-7.5,18.5c-2.7,2.2-16.9,3.9-16.9,3.9l-0.6-2.3
					c0,0,9.2-5.9,14.1-5.4c-3.4-6.2-1.7-14.7-1.7-14.7L-364.8,48.3z"/>
			</g>
			<g id="Group_1595-2" transform="translate(7.007 18.815)">
				<path id="Path_3388-2" class="st66" d="M-370.4,48.3l6.6,13.3l0,18.3l-2.2,0.6c0,0-5.1-10.9-2.4-16.4c0,0-13.8-8.8-14.6-15.7
					L-370.4,48.3z"/>
			</g>
			<g id="Group_1596-2" transform="translate(10.632 9.296)">
				<path id="Path_3389-2" class="st67" d="M-375.9,37.6c2.4,1.7,4.5,3.8,6.3,6.1c2.2-1.8,5.7-4.4,5.7-4.4l1.2,0.8
					c0,0-4.5,6.8-6.8,7.5c-2.3,0.7-9.5-5.2-9.5-5.2L-375.9,37.6z"/>
			</g>
			<g id="Group_1597-2" transform="translate(11.198 5.248)">
				<path id="Path_3390-2" class="st67" d="M-372.4,33.8l-0.5,3.8l-5.2-1.4l3.8-3.2L-372.4,33.8z"/>
			</g>
			<g id="Group_1598-2" transform="translate(6.066 6.76)">
				<path id="Path_3391-2" class="st68" d="M-373,34.7c-7.3,7.1-11.3,16.8-11.1,26.9h15.3l1-25.5L-373,34.7z"/>
			</g>
			<g id="Group_1599-2" transform="translate(7.002 9.63)">
				<path id="Path_3392-2" class="st67" d="M-383,43.9c-0.4,2.7,12.6,7.1,12.6,7.1l0.4-1.3c0,0-5.1-5.5-7.9-6c1.3-0.4,2.6-1,3.6-1.8
					l-3.3-3.9C-379.9,39.8-382.8,42.5-383,43.9z"/>
			</g>
			<g id="Group_1600-2" transform="translate(11.679 0.339)">
				<path id="Path_3393-2" class="st67" d="M-377.1,35.6c-0.1-0.3-0.2-0.6-0.3-1c0-0.1-0.1-0.4-0.1-0.6c0-0.2-0.1-0.5-0.1-0.7
					c0-0.6,0-1.2,0.2-1.7c0.2-1,0.8-2,1.5-2.8c0.7-0.9,1.8-1.4,2.9-1.4c0.2,0,0.5,0,0.7,0c0.2,0,0.4,0.1,0.6,0.1
					c0.2,0.1,0.4,0.1,0.5,0.2c0.2,0.1,0.4,0.2,0.6,0.3c0.2,0.1,0.4,0.2,0.5,0.4c0.5,0.4,0.9,0.9,1.2,1.4c0.2,0.3,0.1,0.3,0.3,0.5
					c0.2,0.3,0.3,0.7,0.4,1.1l0,0c0.2,0.5,0.2,1,0.3,1.6c0.1,3.2-2.1,7-4.5,7.1c-1.7,0.1-3.4-1.6-4.4-3.7l0-0.1
					C-377,36-377,35.8-377.1,35.6z"/>
			</g>
			<g id="Group_1601-2" transform="translate(12.686 15.041)">
				<path id="Path_3394-2" class="st67" d="M-372.3,46.4c-0.4,0.6-1.3,0.8-1.9,0.4c0,0,0,0,0,0l-1.8-1.1c-0.4-0.3-0.5-0.8-0.3-1.2
					l0,0c0.2-0.3,0.6-0.5,1-0.4l2.1,0.4c0.7,0.1,1.2,0.8,1.1,1.5c0,0,0,0.1,0,0.1C-372.2,46.2-372.2,46.3-372.3,46.4z"/>
			</g>
			<g id="Group_1602-2" transform="translate(17.281 8.91)">
				<path id="Path_3395-2" class="st67" d="M-367.6,37.6c0.5,0.6,0.3,1.5-0.3,1.9c0,0,0,0,0,0l-1.7,1.2c-0.4,0.3-1,0.2-1.3-0.2l0,0
					c-0.2-0.3-0.3-0.7-0.1-1l1.1-1.8c0.4-0.6,1.2-0.8,1.8-0.5c0,0,0.1,0,0.1,0.1C-367.8,37.5-367.7,37.5-367.6,37.6z"/>
			</g>
			<g id="Group_1603-2" transform="translate(11.19)">
				<path id="Path_3396-2" class="st69" d="M-366.7,32.4l-3.2-0.8l-1.9,1.4l-1.5-0.6l-2.5,5.2l-2.3-3.3
					C-378.3,24.4-367.6,25.5-366.7,32.4z"/>
			</g>
			<g id="Group_1604-2" transform="translate(9.392 8.537)">
				<path id="Path_3397-2" class="st70" d="M-380.2,38.9l3.7,4.4c0.7-0.5,1.4-1,2-1.3c1.4-0.9,1.7-2.7,0.9-4
					c-0.9-1.3-2.7-1.7-4.1-0.9c0,0-0.1,0.1-0.1,0.1C-378.6,37.6-379.4,38.2-380.2,38.9z"/>
			</g>
		</g>
	</g>
</g>
</svg>
