<svg xmlns="http://www.w3.org/2000/svg" width="242.573" height="1055.955" viewBox="0 0 242.573 1055.955">
  <g id="Group_11617" data-name="Group 11617" transform="translate(-185.349 -35.078)">
    <g id="Group_11614" data-name="Group 11614" transform="translate(200.179 35.078)">
      <g id="Group_11596" data-name="Group 11596" transform="translate(0 193.89)">
        <g id="Group_11594" data-name="Group 11594" transform="translate(4.1 51.008)">
          <path id="Path_22173" data-name="Path 22173" d="M245.838,152.553c-11.06.255-22.014,3.107-30.542,6.009,0,0-2.685-13.068-16.163-25.394a83.126,83.126,0,0,1,8.373-1.837C218.4,139.281,231.67,147.339,245.838,152.553Z" transform="translate(-182.983 -131.27)" fill="#3e6308"/>
          <path id="Path_22174" data-name="Path 22174" d="M224.023,157.447a128.5,128.5,0,0,0-16.109,6.67c.42-.84,3.739-8.157-14.43-25.849,0,0,4.426-3.481,14.376-6.215C221.338,144.378,224.023,157.447,224.023,157.447Z" transform="translate(-191.71 -130.154)" fill="#78c156"/>
          <path id="Path_22175" data-name="Path 22175" d="M208.863,165.31c.924-2.436-.056-5.031-1.036-7.266a32.36,32.36,0,0,0-3.942-6.413,98.451,98.451,0,0,0-10.144-11.417l-.954-.98,1.043-.72a31.853,31.853,0,0,1,5.573-3.029,40.283,40.283,0,0,1,5.833-2.056,60.508,60.508,0,0,1,12.073-2.122l.025.143a79.929,79.929,0,0,0-11.806,2.873,42.586,42.586,0,0,0-10.918,5.184l.005-.188a80.447,80.447,0,0,1,10.177,11.669,33.8,33.8,0,0,1,3.731,6.792c.85,2.382,1.606,5.159.445,7.6Z" transform="translate(-192.787 -131.307)" fill="#9ef476"/>
          <path id="Path_22176" data-name="Path 22176" d="M245.878,139.783c-4.054.527-8.024,1.239-11.971,2.069-3.94.845-7.864,1.753-11.717,2.947-3.9,1-7.721,2.306-11.557,3.588-3.82,1.323-7.655,2.644-11.457,4.12l-.064-.125a131.9,131.9,0,0,1,22.716-8.851,98.55,98.55,0,0,1,24.05-3.881Z" transform="translate(-183.015 -118.416)" fill="#314c03"/>
        </g>
        <g id="Group_11595" data-name="Group 11595">
          <path id="Path_22177" data-name="Path 22177" d="M212.521,155.014c-6.474-4.688-12.111-9.32-16.634-13.267,0,0,16.054-9.518,23.006-25.745a76.491,76.491,0,0,0,16.743,9.737c16.318,6.586,37.161,25.335,35,46.654h.059c-.58,2.891-1,5.836-1.318,8.8a93.146,93.146,0,0,1-18.479-4.955h-.048C236.685,171.021,223.418,162.964,212.521,155.014Z" transform="translate(-183.898 -103.944)" fill="#4c7c0e"/>
          <path id="Path_22178" data-name="Path 22178" d="M214.164,111.844a91.984,91.984,0,0,0,11.954,10.582c-6.953,16.227-23.006,25.745-23.006,25.745-7.482-6.584-11.9-11.266-11.9-11.266S204.368,133.117,214.164,111.844Z" transform="translate(-191.122 -110.368)" fill="#86d366"/>
          <path id="Path_22179" data-name="Path 22179" d="M191.187,137.726c5.38-2.191,9.7-6.3,13.313-10.7a62.529,62.529,0,0,0,8.933-14.646l.491-1.112.875.893A93.99,93.99,0,0,0,233.637,127.1a90.483,90.483,0,0,0,10.752,5.367,62.923,62.923,0,0,1,10.735,6.166,63.8,63.8,0,0,1,17.1,17.629c4.489,6.889,6.851,15.359,5.726,23.48l-.13-.02c.855-8.134-1.853-16.275-6.268-23.032A62.733,62.733,0,0,0,254.5,139.549a61.865,61.865,0,0,0-10.6-5.927A71.5,71.5,0,0,1,233,128.16a94.93,94.93,0,0,1-18.894-15.377l.165-.018a63.776,63.776,0,0,1-9.233,14.73c-3.789,4.36-8.314,8.332-13.817,10.345Z" transform="translate(-191.159 -111.264)" fill="#9ef476"/>
          <path id="Path_22180" data-name="Path 22180" d="M276.64,172.511a92.564,92.564,0,0,1-12.447-2.311,115.463,115.463,0,0,1-11.974-4.169,156.77,156.77,0,0,1-22.546-11.6,215.429,215.429,0,0,1-20.306-15.15,155.334,155.334,0,0,1-18.191-17.525l.1-.087a224.632,224.632,0,0,0,39.093,31.657c14.147,8.943,29.631,16.369,46.285,19.049Z" transform="translate(-191.176 -95.19)" fill="#314c03"/>
        </g>
      </g>
      <g id="Group_11599" data-name="Group 11599" transform="translate(124.384)">
        <g id="Group_11597" data-name="Group 11597" transform="translate(19.265 13.208)">
          <path id="Path_22181" data-name="Path 22181" d="M286.345,73a29.314,29.314,0,0,0-15,1.056c-9.538-8.375-9.9-25.643-9.9-26.864a80.371,80.371,0,0,1,12.32-6.413C273.765,41.043,273.819,56.743,286.345,73Z" transform="translate(-226.264 -39.475)" fill="#86d366"/>
          <path id="Path_22182" data-name="Path 22182" d="M282.767,43.3c0,1.222.364,18.489,9.9,26.864a31.109,31.109,0,0,0-15.644,12c-12.371,17.53-20.634,31.323-24.32,31.12-.949-5.53-2.53-10.1-5.062-11.432A74.485,74.485,0,0,1,282.767,43.3Z" transform="translate(-247.585 -35.582)" fill="#4c7c0e"/>
          <path id="Path_22183" data-name="Path 22183" d="M304.587,53.847a31.623,31.623,0,0,0-17.906,3.189A33.954,33.954,0,0,0,273.6,69.445L262.725,84.765c-1.883,2.517-3.766,5.036-5.777,7.472-1.036,1.178-2.1,2.357-3.252,3.459-1.158,1-2.377,2.324-4.08,2.341l.01-.132c1.555-.112,2.693-1.456,3.772-2.5,1.061-1.138,2.049-2.357,3-3.6,1.911-2.481,3.7-5.049,5.484-7.62L272.528,68.7c3.405-5.23,7.984-9.91,13.712-12.587a30.045,30.045,0,0,1,18.377-2.385Z" transform="translate(-244.539 -20.279)" fill="#314c03"/>
          <path id="Path_22184" data-name="Path 22184" d="M247.621,106.523A65.332,65.332,0,0,1,251.38,85.6a75.753,75.753,0,0,1,9.808-18.988,69.83,69.83,0,0,1,14.891-15.422,84.96,84.96,0,0,1,18.682-10.439l1.176-.486.033,1.285a52.028,52.028,0,0,0,3.624,16.789,66.921,66.921,0,0,0,8.136,15.392l-.1.089a63.978,63.978,0,0,1-8.719-15.2A52.408,52.408,0,0,1,295,41.546l.148.1c-13,5.467-24.77,14.155-33.089,25.607a74.878,74.878,0,0,0-9.93,18.626,70.954,70.954,0,0,0-4.375,20.645Z" transform="translate(-247.621 -40.268)" fill="#9ef476"/>
        </g>
        <g id="Group_11598" data-name="Group 11598">
          <path id="Path_22185" data-name="Path 22185" d="M269.661,39.705c1.153,7.688,1.153,19.426-4.052,34.649a73.6,73.6,0,0,0-10.17,33.051c.636,4.377,1.166,8.752,1.479,13.122-15.69-23.017-5.578-50.66-14.32-75.4C242.6,45.123,261.181,45.123,269.661,39.705Z" transform="translate(-236.116 -27.93)" fill="#3e6308"/>
          <path id="Path_22186" data-name="Path 22186" d="M270.664,35.6a35.106,35.106,0,0,1,2.9,10.434c-8.48,5.418-27.063,5.418-27.063,5.418a52.625,52.625,0,0,0-6.423-12.526S252.763,40.624,270.664,35.6Z" transform="translate(-240.015 -34.264)" fill="#78c156"/>
          <path id="Path_22187" data-name="Path 22187" d="M240.083,39.672A88.247,88.247,0,0,0,255.4,38.608a124.745,124.745,0,0,0,14.929-3.268l.893-.262.384.809a36.842,36.842,0,0,1,3.166,11.44,61.723,61.723,0,0,1,.321,11.694A72.788,72.788,0,0,1,269.582,81.5l-.122-.038a83.791,83.791,0,0,0,4.522-22.5,60.8,60.8,0,0,0-.461-11.465,39.992,39.992,0,0,0-2.99-11.03l.132.059a100.615,100.615,0,0,1-15.16,2.983,73.823,73.823,0,0,1-15.435.3Z" transform="translate(-240.025 -35.078)" fill="#9ef476"/>
          <path id="Path_22188" data-name="Path 22188" d="M260.8,124.9a49.327,49.327,0,0,1-5.815-9.971,60,60,0,0,1-3.212-11.134c-1.456-7.6-1.764-15.346-2.117-22.966-.109-7.625-.257-15.254-1.616-22.7a60.971,60.971,0,0,0-7.991-21.161l.1-.069a54.165,54.165,0,0,1,8.778,21.052c1.507,7.515,1.8,15.206,2.041,22.833.221,7.642.384,15.321,1.695,22.851a52.9,52.9,0,0,0,8.243,21.189Z" transform="translate(-240.051 -32.269)" fill="#314c03"/>
        </g>
      </g>
      <g id="Group_11600" data-name="Group 11600" transform="translate(79.812 79.415)">
        <path id="Path_22189" data-name="Path 22189" d="M280.415,110.18a146.885,146.885,0,0,1-4.846,21.586c-7.057-24.846-32.12-24.7-48.962-40.541,0,0,21.691-6.207,34.8-20.426C269.464,80.22,279.2,94.6,280.415,110.18Z" transform="translate(-216.249 -59.306)" fill="#4c7c0e"/>
        <path id="Path_22190" data-name="Path 22190" d="M255.661,66.307a112.149,112.149,0,0,1,11.213,11.432c-13.109,14.219-34.8,20.426-34.8,20.426a44.256,44.256,0,0,1-9.007-11.847S241.972,82,255.661,66.307Z" transform="translate(-221.717 -66.246)" fill="#86d366"/>
        <path id="Path_22191" data-name="Path 22191" d="M235.933,66.283a79.489,79.489,0,0,1,11.279,10.182,94.394,94.394,0,0,1,9.406,12.022,71.459,71.459,0,0,1,6.833,13.7,61.314,61.314,0,0,1,2.033,7.385,50.958,50.958,0,0,1,.687,7.6l-.132.008c-.822-10.081-5.087-19.558-10.526-27.979a112.36,112.36,0,0,0-19.667-22.81Z" transform="translate(-201.975 -66.283)" fill="#314c03"/>
        <path id="Path_22192" data-name="Path 22192" d="M281.761,138.815a34.941,34.941,0,0,0-10.918-16.283c-5.052-4.276-11.076-7.2-17.1-10.1-6.014-2.914-12.175-5.83-17.659-9.963a46.03,46.03,0,0,1-13.022-15.7l-.527-1.033,1.127-.285a67.734,67.734,0,0,0,17.6-7.35A68.431,68.431,0,0,0,256.4,66.286l.094.074a62.891,62.891,0,0,1-14.842,12.391,68.574,68.574,0,0,1-17.759,7.7l.074-.168a44.866,44.866,0,0,0,12.908,15.14c5.327,4.069,11.353,7.077,17.336,10.06s12.05,6.021,17.135,10.452a33.9,33.9,0,0,1,10.529,16.827Z" transform="translate(-222.537 -66.278)" fill="#9ef476"/>
      </g>
      <g id="Group_11601" data-name="Group 11601" transform="translate(148.724 92.573)">
        <path id="Path_22193" data-name="Path 22193" d="M287.051,96.518a42.264,42.264,0,0,1-8.263,8.8s-16.949-8.953-17.8-17.7v-.061c5.484-8.943,6.635-16.1,6.635-16.1C268.414,92.777,287.051,96.518,287.051,96.518Z" transform="translate(-232.044 -71.438)" fill="#86d366"/>
        <path id="Path_22194" data-name="Path 22194" d="M278.531,77.813c.85,8.742,17.8,17.7,17.8,17.7-17.9,14.628-46.7,18.637-46.7,18.637.629-3.9,1.158-7.793,1.468-11.742C265.216,95.287,273.581,85.865,278.531,77.813Z" transform="translate(-249.587 -61.627)" fill="#62a514"/>
        <path id="Path_22195" data-name="Path 22195" d="M284.379,71.478a41.091,41.091,0,0,1-4.006,13.241,57.253,57.253,0,0,1-7.65,11.641A60.558,60.558,0,0,1,262.4,105.7a56.71,56.71,0,0,1-12.162,6.551l-.056-.1a69.774,69.774,0,0,0,21.546-16.644,56.032,56.032,0,0,0,12.526-24.052Z" transform="translate(-248.734 -71.453)" fill="#314c03"/>
        <path id="Path_22196" data-name="Path 22196" d="M249.615,123.9c5.154-.99,10.159-2.558,15.163-4.018a116.486,116.486,0,0,0,14.621-5.52,75.7,75.7,0,0,0,13.394-7.765A46.372,46.372,0,0,0,303.81,95.981l.6,1.489A26.911,26.911,0,0,1,290,87.806c-3.626-4.673-4.884-10.684-4.868-16.351h.14a27.278,27.278,0,0,0,5.349,15.87,25.877,25.877,0,0,0,14,9.1l.163.023-.094.14c-6.044,8.739-15.354,14.5-24.879,18.723a125.174,125.174,0,0,1-30.181,8.722Z" transform="translate(-249.615 -71.45)" fill="#9ef476"/>
      </g>
      <g id="Group_11602" data-name="Group 11602" transform="translate(45.957 133.289)">
        <path id="Path_22197" data-name="Path 22197" d="M246.56,100.4c17.894,8.167,31.265,23.317,24.9,47.013v.043c-2.372,3.586-4.741,7.169-7.009,10.752-2.888-32.28-32.845-28.427-51.749-46.277,0,0,15.85-3.9,23.48-18.639A33.082,33.082,0,0,0,246.56,100.4Z" transform="translate(-203.871 -78.437)" fill="#62a514"/>
        <path id="Path_22198" data-name="Path 22198" d="M234.474,87.475s-.631,7.523,6.317,14.791c-7.63,14.74-23.48,18.639-23.48,18.639a42.847,42.847,0,0,1-7.586-9.648S225.989,104.376,234.474,87.475Z" transform="translate(-208.477 -87.416)" fill="#86d366"/>
        <path id="Path_22199" data-name="Path 22199" d="M269.722,167.292c-.8-7.078-3.415-13.967-8.1-19.161-4.693-5.22-11.16-8.421-17.624-11.264-6.479-2.894-13.3-5.372-19.39-9.424a45.046,45.046,0,0,1-14.926-15.718l-.453-.837.87-.4a54.018,54.018,0,0,0,14.236-9.561,52.29,52.29,0,0,0,10.834-13.478l.112.064a50.628,50.628,0,0,1-10.447,13.951,55.163,55.163,0,0,1-14.361,9.92l.053-.148A43.9,43.9,0,0,0,225.3,126.39c6.014,3.843,12.656,6.551,19.148,9.5,6.459,2.942,13.02,6.291,17.779,11.74,4.823,5.372,7.06,12.58,7.63,19.652Z" transform="translate(-209.234 -87.452)" fill="#9ef476"/>
        <path id="Path_22200" data-name="Path 22200" d="M219.556,87.466a19.322,19.322,0,0,0,3.4,10.121,25.918,25.918,0,0,0,7.439,7.574c2.932,2.094,6.25,3.354,9.638,5.016a55.179,55.179,0,0,1,9.472,5.955,37.888,37.888,0,0,1,12.463,18.4,35.345,35.345,0,0,1,1.306,11.081,46.458,46.458,0,0,1-2.138,10.841l-.127-.025c1.863-7.042,2.285-14.633.092-21.632a36.832,36.832,0,0,0-12.43-17.644,55.493,55.493,0,0,0-9.157-6c-3.24-1.664-6.686-3.041-9.648-5.248-5.965-4.153-10.582-10.966-10.442-18.446Z" transform="translate(-193.496 -87.438)" fill="#314c03"/>
      </g>
      <g id="Group_11605" data-name="Group 11605" transform="translate(106.331 156.446)">
        <g id="Group_11603" data-name="Group 11603" transform="translate(0 27.76)">
          <path id="Path_22201" data-name="Path 22201" d="M277.247,107.645c-9.8,15.053,9.1,31.855,9.1,31.855s-6.367,2.934-17,3.942c0,0-11.266-13.267-6.9-29.694a36.857,36.857,0,0,0,4.477-1.308A56.376,56.376,0,0,0,277.247,107.645Z" transform="translate(-188.95 -107.172)" fill="#86d366"/>
          <path id="Path_22202" data-name="Path 22202" d="M313.354,139.737a76.026,76.026,0,0,1-14.272-.051c-18.955-1.888-41.694,3.1-66.125,24.472a88.088,88.088,0,0,1,7.691-18.311c3-5.38,6.047-10.689,9-16.061.1-.2.262-.417.372-.631,11.424-19.693,34.8-19.591,46.435-18.319a23.54,23.54,0,0,0,3.26.1,28.006,28.006,0,0,0,6.736-.9C302.088,126.471,313.354,139.737,313.354,139.737Z" transform="translate(-232.957 -103.467)" fill="#4c7c0e"/>
          <path id="Path_22203" data-name="Path 22203" d="M320.2,139.828c-4.461-3.988-8.523-8.7-10.877-14.4a21.833,21.833,0,0,1-1.746-9.073,18.142,18.142,0,0,1,2.81-8.9l1.242,1.257a51.923,51.923,0,0,1-18.975,7.164c-3.418.616-7-.028-10.162-.29a73.294,73.294,0,0,0-9.834-.069,46.338,46.338,0,0,0-18.833,4.963,36.4,36.4,0,0,0-14.226,13.31l-.109-.051a34.933,34.933,0,0,1,13.964-13.951,47.333,47.333,0,0,1,19.12-5.324,71.94,71.94,0,0,1,9.991-.074c3.326.237,6.625.741,9.925.214a50.979,50.979,0,0,0,18.6-6.762l.384-.211-.239.372a17.166,17.166,0,0,0-2.782,8.4,21.208,21.208,0,0,0,1.573,8.75,41.774,41.774,0,0,0,10.259,14.562Z" transform="translate(-222.864 -107.459)" fill="#9ef476"/>
          <path id="Path_22204" data-name="Path 22204" d="M233.053,148.643a96.88,96.88,0,0,1,20.965-15.677,83.041,83.041,0,0,1,24.678-9.185,74.528,74.528,0,0,1,13.2-1.005c4.431-.008,8.8.751,13.056.891a72.74,72.74,0,0,0,12.906-.616,54.261,54.261,0,0,0,12.643-2.873l.059.13a65.084,65.084,0,0,1-25.625,4.268c-4.365-.074-8.681-.769-13.033-.7a75.861,75.861,0,0,0-12.969,1.2c-17.227,3.044-32.769,12.251-45.791,23.676Z" transform="translate(-232.809 -87.809)" fill="#314c03"/>
        </g>
        <g id="Group_11604" data-name="Group 11604" transform="translate(17.064 0)">
          <path id="Path_22205" data-name="Path 22205" d="M279.958,129.542a36.857,36.857,0,0,1-4.477,1.308,28.006,28.006,0,0,1-6.736.9C264.591,114.9,253,107.684,253,107.684c3.324-3.744,5.741-7.635,5.948-11.109C258.952,96.575,276.227,105.475,279.958,129.542Z" transform="translate(-219.049 -96.514)" fill="#78c156"/>
          <path id="Path_22206" data-name="Path 22206" d="M289.357,125.005a23.54,23.54,0,0,1-3.26-.1c-11.635-1.272-35.011-1.374-46.435,18.319,4.573-8.271,8.948-16.631,12.791-25.215l.056-.051c1.1-.69,13.476-8.485,21.108-17.013C273.617,100.94,285.2,108.155,289.357,125.005Z" transform="translate(-239.662 -89.77)" fill="#3e6308"/>
          <path id="Path_22207" data-name="Path 22207" d="M255.387,96.551a29.515,29.515,0,0,1,8.536,5.617,41.088,41.088,0,0,1,6.574,7.943,42.915,42.915,0,0,1,4.265,9.381,38.74,38.74,0,0,1,1.68,10.073l-.122.02a50.5,50.5,0,0,0-6.925-18.782,42.3,42.3,0,0,0-14.071-14.137Z" transform="translate(-215.467 -96.551)" fill="#314c03"/>
          <path id="Path_22208" data-name="Path 22208" d="M244.674,124.72l7.734-6.367c2.555-2.122,5.141-4.194,7.533-6.446a66.24,66.24,0,0,0,6.976-6.935c2.087-2.476,4.136-5.115,4.825-8.4l.13.013c-.262,3.4-2.138,6.385-4.146,9.024a58.854,58.854,0,0,1-6.9,7.276,124.966,124.966,0,0,1-16.089,11.946Z" transform="translate(-231.919 -96.522)" fill="#9ef476"/>
        </g>
      </g>
      <g id="Group_11609" data-name="Group 11609" transform="translate(101.862 231.45)">
        <g id="Group_11606" data-name="Group 11606">
          <path id="Path_22209" data-name="Path 22209" d="M306.633,147.437a165.445,165.445,0,0,0-15.478,13.8c-28.748-6.118-38.118-18.433-38.118-18.433l-.053-.048a59.219,59.219,0,0,0,6-16.639C275.944,146.177,306.633,147.437,306.633,147.437Z" transform="translate(-197.549 -125.876)" fill="#86d366"/>
          <path id="Path_22210" data-name="Path 22210" d="M324.779,151.137a125.807,125.807,0,0,0-10.74,12.109c-1.1,1.362-2.158,2.731-3.163,4.151-1.685,2.385-3.37,4.642-5.2,6.785a98.319,98.319,0,0,1-23.7,21.543,7.618,7.618,0,0,1-.794.534,93.089,93.089,0,0,1-39.9,13.631c-2.733.318-5.53.468-8.375.58-.735-5.367-1.262-10.735-1.685-16.168h.059c3.84-27,39.169-45.058,48.751-53.217a30.35,30.35,0,0,0,6.579-8.429l.053.048S296.031,145.019,324.779,151.137Z" transform="translate(-231.173 -115.775)" fill="#62a514"/>
          <path id="Path_22211" data-name="Path 22211" d="M340.257,147.637a81.094,81.094,0,0,1-13.3-1.672,69.6,69.6,0,0,1-12.893-3.856c-8.325-3.362-16.186-8.322-22.159-15.242l1.659-.438c-1.753,8.5-4.642,16.98-10.612,23.721-3.181,3.311-6.889,5.456-10.4,7.915-3.56,2.38-7.093,4.779-10.541,7.281a111.342,111.342,0,0,0-19.046,16.888c-5.459,6.408-10.193,13.809-11.633,22.314l-.13-.02c1.232-8.543,5.678-16.277,11.18-22.81a113.273,113.273,0,0,1,19.011-17.209c3.443-2.558,6.96-4.983,10.5-7.416,3.469-2.464,7.195-4.713,10.114-7.826,5.721-6.38,8.747-14.745,10.523-23.032l.048-.214.148.16c5.764,6.818,13.442,11.8,21.645,15.2a84.464,84.464,0,0,0,25.9,6.11Z" transform="translate(-231.201 -126.023)" fill="#9ef476"/>
          <path id="Path_22212" data-name="Path 22212" d="M231.861,207.633a105.938,105.938,0,0,0,16.619-2.387,95.758,95.758,0,0,0,15.995-4.815,91.87,91.87,0,0,0,28-17.787,107.669,107.669,0,0,0,11.577-11.974c3.586-4.245,6.619-9.027,10.353-13.3a141.463,141.463,0,0,1,24.8-22.9l.084.112A163.49,163.49,0,0,0,315.1,157.938c-3.639,4.283-6.6,9.08-10.193,13.43a108.071,108.071,0,0,1-11.564,12.262,93.282,93.282,0,0,1-28.539,17.657,98.737,98.737,0,0,1-32.939,6.472Z" transform="translate(-230.181 -112.976)" fill="#314c03"/>
        </g>
        <g id="Group_11607" data-name="Group 11607" transform="translate(49.934 47.44)">
          <path id="Path_22213" data-name="Path 22213" d="M268.84,144.676c17.425,19.046,15.112,33.013,15.112,33.013a57.791,57.791,0,0,0-16.585-4.632v-.069a29.614,29.614,0,0,0-6.848-17.308l-.043-.069c1.832-2.143,3.517-4.4,5.2-6.785C266.682,147.407,267.736,146.038,268.84,144.676Z" transform="translate(-235.909 -144.645)" fill="#78c156"/>
          <path id="Path_22214" data-name="Path 22214" d="M281.752,166.35c-13.267-1.669-25.22.954-30.588,4.166a98.319,98.319,0,0,0,23.7-21.543l.043.069A29.614,29.614,0,0,1,281.752,166.35Z" transform="translate(-250.294 -138.007)" fill="#3e6308"/>
          <path id="Path_22215" data-name="Path 22215" d="M278.855,177.675a33.809,33.809,0,0,0-1.8-8.963,52.259,52.259,0,0,0-3.558-8.355,75.709,75.709,0,0,0-4.568-7.912c-1.667-2.575-3.4-5.151-5.2-7.7l.1-.084a69.5,69.5,0,0,1,10.839,15.1,45.5,45.5,0,0,1,3.372,8.688,26.163,26.163,0,0,1,.949,9.253Z" transform="translate(-230.887 -144.664)" fill="#9ef476"/>
          <path id="Path_22216" data-name="Path 22216" d="M250.822,161.424c3.291-2.609,7.393-4.031,11.462-5a57.333,57.333,0,0,1,12.519-1.283,59.233,59.233,0,0,1,12.47,1.642,46.187,46.187,0,0,1,11.6,4.637l-.046.125a61.54,61.54,0,0,0-24.05-5.085,62.407,62.407,0,0,0-12.31.975c-4.026.8-8.1,1.863-11.577,4.105Z" transform="translate(-250.822 -128.47)" fill="#314c03"/>
        </g>
        <g id="Group_11608" data-name="Group 11608" transform="translate(1.731 91.56)">
          <path id="Path_22217" data-name="Path 22217" d="M260.4,162.055c2.107,14.254,12.371,17.581,12.371,17.581a32.153,32.153,0,0,1-9.164,5.049c-9.365-6.1-13.208-18.792-13.208-18.792A54.825,54.825,0,0,0,260.4,162.055Z" transform="translate(-203.273 -161.915)" fill="#86d366"/>
          <path id="Path_22218" data-name="Path 22218" d="M279.006,164.427s3.843,12.694,13.208,18.792c-24.948,9.32-58.809-8.945-58.809-8.945-.575-3.525-1.1-7.113-1.524-10.689,2.845-.112,5.642-.262,8.375-.58C255.417,169.1,269.841,167.056,279.006,164.427Z" transform="translate(-231.881 -160.449)" fill="#4c7c0e"/>
          <path id="Path_22219" data-name="Path 22219" d="M296.273,179.779a18.576,18.576,0,0,1-9.073-6.77,25.291,25.291,0,0,1-4.319-10.712l1.509.771a60.287,60.287,0,0,1-24.556,6.462,52.914,52.914,0,0,1-12.692-.9,49.392,49.392,0,0,1-11.979-4l.053-.12a56.243,56.243,0,0,0,24.549,3.853,65.416,65.416,0,0,0,24.085-6.289l.135-.074.023.15a25.149,25.149,0,0,0,3.838,10.422,18.708,18.708,0,0,0,8.475,7.077Z" transform="translate(-226.809 -162)" fill="#9ef476"/>
          <path id="Path_22220" data-name="Path 22220" d="M232.524,167.408a158.289,158.289,0,0,0,16.761,6.054,103.4,103.4,0,0,0,17.252,3.823,60.054,60.054,0,0,0,17.5.155,38.719,38.719,0,0,0,16.387-6.133l.079.112a36.35,36.35,0,0,1-16.288,7.044,58.987,58.987,0,0,1-17.855.13,109.587,109.587,0,0,1-33.9-11.065Z" transform="translate(-230.979 -153.645)" fill="#314c03"/>
        </g>
      </g>
      <g id="Group_11612" data-name="Group 11612" transform="translate(0.005 291.776)">
        <g id="Group_11610" data-name="Group 11610">
          <path id="Path_22221" data-name="Path 22221" d="M267.229,164.33a161.483,161.483,0,0,0,2.952,18,17.7,17.7,0,0,0-4.161-4.377c-7.108-5.319-17.642-5.042-27.432-2.1a55.006,55.006,0,0,0-14.214,6.482,39.111,39.111,0,0,1-16.906,5.517c1.323-22.691-10.053-36.632-10.053-36.632,20.958.888,48.96-5.428,69.757,13.112Z" transform="translate(-181.541 -147.963)" fill="#62a514"/>
          <path id="Path_22222" data-name="Path 22222" d="M207,152.953s11.376,13.941,10.053,36.632a54.066,54.066,0,0,1-14.845-.412c5.215-25.483-11-39.426-11-39.426C195.69,151.843,201.052,152.688,207,152.953Z" transform="translate(-191.127 -149.698)" fill="#86d366"/>
          <path id="Path_22223" data-name="Path 22223" d="M191.265,149.73a36.114,36.114,0,0,1,6.848,8.248,36.775,36.775,0,0,1,4.347,9.89,46.743,46.743,0,0,1,.7,21.528l-.748-1.117a54.475,54.475,0,0,0,20.2-.751,35,35,0,0,0,9.419-3.453,68.867,68.867,0,0,1,9.271-4.881,50.9,50.9,0,0,1,20.512-4.321c7.009-.013,14.387,3.143,18.049,9.208l-.109.079c-3.863-5.925-11.114-8.556-17.947-8.52a50.186,50.186,0,0,0-20.092,4.515,67.9,67.9,0,0,0-9.1,4.94,36.753,36.753,0,0,1-9.712,3.708,55.034,55.034,0,0,1-20.688.522l-.117-.025.028-.1a45.83,45.83,0,0,0-.422-21.133,39.6,39.6,0,0,0-10.531-18.224Z" transform="translate(-191.178 -149.722)" fill="#9ef476"/>
          <path id="Path_22224" data-name="Path 22224" d="M276.759,166.134a55.331,55.331,0,0,0-19.586-9.862,82.749,82.749,0,0,0-21.836-2.441c-7.365-.234-14.791.109-22.258.064-7.391-.028-15.214-.461-21.9-4.047l.061-.122c6.8,3.13,14.466,3.28,21.828,3.26,7.429-.089,14.85-.573,22.289-.463a83.309,83.309,0,0,1,22.065,2.878,49.585,49.585,0,0,1,19.421,10.633Z" transform="translate(-191.17 -149.727)" fill="#314c03"/>
        </g>
        <g id="Group_11611" data-name="Group 11611" transform="translate(33.214 25.806)">
          <path id="Path_22225" data-name="Path 22225" d="M223.564,161.949c9.79-2.937,20.324-3.214,27.432,2.1-8.37,4.589-13.112,15.066-15.433,22.317h-.056c-9.579,1.382-27.162-7.673-28.366-8.3A117.822,117.822,0,0,0,223.564,162Z" transform="translate(-199.73 -159.867)" fill="#3e6308"/>
          <path id="Path_22226" data-name="Path 22226" d="M239.858,175.319h.056a62.521,62.521,0,0,0-2.049,7.754c-17.428,0-33.54-11.109-33.54-11.109a60.116,60.116,0,0,0,7.111-4.945h.056C212.7,167.646,230.278,176.7,239.858,175.319Z" transform="translate(-204.081 -148.816)" fill="#86d366"/>
          <path id="Path_22227" data-name="Path 22227" d="M217.464,191.609a40.418,40.418,0,0,1,1.5-8.923,51.867,51.867,0,0,1,3.3-8.49,36.127,36.127,0,0,1,5.25-7.515,20.29,20.29,0,0,1,7.492-5.179l.061.1c-5.24,2.924-8.928,7.958-11.635,13.2a65.545,65.545,0,0,0-5.846,16.83Z" transform="translate(-183.782 -157.341)" fill="#314c03"/>
          <path id="Path_22228" data-name="Path 22228" d="M228.083,160.763A94.75,94.75,0,0,1,217.643,172.8a70.836,70.836,0,0,1-12.618,9.971l.107-1.977a82.269,82.269,0,0,0,15.662,7.933,62.348,62.348,0,0,0,17.178,4.108v.112a53.925,53.925,0,0,1-17.53-3.224,75.033,75.033,0,0,1-16.046-7.869l-.168-.1.181-.115a78.871,78.871,0,0,0,12.569-9.559,130.617,130.617,0,0,0,11-11.391Z" transform="translate(-204.229 -158.605)" fill="#9ef476"/>
        </g>
      </g>
      <g id="Group_11613" data-name="Group 11613" transform="translate(84.16 79.29)">
        <path id="Path_22229" data-name="Path 22229" d="M243.46,312.976c.422,3.576.949,7.164,1.524,10.689.792,4.795,4.291,22.306,5.291,27.1v.626H238.533c-3.107-8.375-8.126-29.674-10.019-38.419a176.4,176.4,0,0,1-3.163-55.009c.316-2.962.738-5.907,1.318-8.8a122.631,122.631,0,0,1,9-29.756,161.131,161.131,0,0,1,10.735-19.482v-.046c2.268-3.583,4.637-7.167,7.009-10.752v-.043c6.105-9.208,12.218-18.481,17.005-28.376A153.574,153.574,0,0,0,279,138.752v-.046a146.885,146.885,0,0,0,4.846-21.586,166.879,166.879,0,0,0,1.209-37.691c-.313-4.37-.842-8.744-1.479-13.122,2.532,1.331,4.113,5.9,5.062,11.432,1.367,7.948,1.578,17.741,1.787,22.278a159.976,159.976,0,0,1-.318,20.161c-.311,3.95-.84,7.844-1.468,11.742q-1.038,6.3-2.685,12.473a181.784,181.784,0,0,1-9.844,27.066l-.056.051c-3.843,8.584-8.218,16.944-12.791,25.215-.109.214-.267.428-.372.631-2.955,5.372-6,10.681-9,16.061a88.088,88.088,0,0,0-7.691,18.311l-.051.061c-5.79,19.538-5.79,40.966-4.637,60.862.1,1.362.163,2.8.265,4.156C242.2,302.242,242.724,307.609,243.46,312.976Z" transform="translate(-224.027 -66.121)" fill="#352f29"/>
        <path id="Path_22230" data-name="Path 22230" d="M275.29,66.234c2.665,1.7,3.476,4.907,4.3,7.676a66.9,66.9,0,0,1,1.527,8.752c.682,5.871.881,11.786,1.143,17.687a147.821,147.821,0,0,1-2.41,35.344c-4.512,23.352-15.43,44.766-26.89,65.339-2.866,5.164-5.886,10.256-8.658,15.453a89.89,89.89,0,0,0-6.467,16.389c-3.278,11.312-4.606,23.123-4.952,34.909-.466,23.569,4.219,59.969,9.149,83.067l-.387.087c-2.988-11.45-7.9-35.82-9.551-47.606a308.333,308.333,0,0,1-2.27-35.647,132.41,132.41,0,0,1,4.566-35.81,93.627,93.627,0,0,1,6.576-17.158c2.827-5.4,5.726-10.4,8.551-15.611,11.689-20.382,22.368-41.327,27.317-64.016a146.678,146.678,0,0,0,3.344-34.647c.02-5.935.1-11.793-.3-17.647a65.57,65.57,0,0,0-1.082-8.688c-.659-2.754-1.323-5.879-3.721-7.546Z" transform="translate(-215.633 -66.234)" fill="#564536"/>
        <path id="Path_22231" data-name="Path 22231" d="M238.483,351.562c-8.238-22.482-15.15-59.264-14.14-83.278a140.239,140.239,0,0,1,5.948-35.426,132.916,132.916,0,0,1,15.41-32.463c6.388-10.154,13.381-19.876,19.38-30.221A148.283,148.283,0,0,0,279.2,137.366c6.813-22.935,7.849-47.377,4.342-71.007l.519-.074a161.375,161.375,0,0,1,3.952,35.975,156.28,156.28,0,0,1-4.891,36.25,137.047,137.047,0,0,1-13.893,34.057c-6.021,10.676-12.939,20.566-19.067,30.611-6.408,9.882-11.76,20.016-15.285,31.1-3.619,11-5.393,22.558-6.436,34.189a169.449,169.449,0,0,0,.985,35.2c1.2,11.8,6.416,36.141,9.551,47.725Z" transform="translate(-224.245 -66.154)" fill="#7f644b"/>
      </g>
    </g>
    <g id="Group_11616" data-name="Group 11616" transform="translate(185.349 393.275)">
      <path id="Path_22232" data-name="Path 22232" d="M236.68,239.5c25.8-38.373,48.087-60.567,43.524-44.3s-24.139,43.035-24.139,43.035Z" transform="translate(-106.044 -154.229)" fill="#ffc961"/>
      <path id="Path_22233" data-name="Path 22233" d="M252.129,229c34.275-31.046,61.242-47.222,52.9-32.532s-33.779,35.968-33.779,35.968Z" transform="translate(-82.176 -152.409)" fill="#ffc961"/>
      <path id="Path_22234" data-name="Path 22234" d="M244.02,233.793c31.3-34.039,56.686-52.609,49.721-37.22s-30.366,38.895-30.366,38.895Z" transform="translate(-94.704 -152.22)" fill="#ffc961"/>
      <path id="Path_22235" data-name="Path 22235" d="M288.308,191.052a1.039,1.039,0,0,1,.387.631,2.194,2.194,0,0,1-.018.7,6.1,6.1,0,0,1-.369,1.265,19.344,19.344,0,0,1-1.14,2.316c-.845,1.491-1.8,2.911-2.769,4.314-1.96,2.792-4.069,5.474-6.238,8.1a173.875,173.875,0,0,1-14.183,14.7l-.257-.28a59.034,59.034,0,0,1,5.383-8.92c1.919-2.794,4.041-5.375,6.141-7.961l3.288-3.761c1.171-1.191,2.214-2.474,3.415-3.637l3.466-3.573c.606-.58,1.14-1.191,1.682-1.792a7.031,7.031,0,0,0,.707-.916,2.42,2.42,0,0,0,.267-.453c.025-.059.056-.069.094-.16a1.293,1.293,0,0,0-.122-.305Z" transform="translate(-64.267 -152.303)" fill="#eb991f"/>
      <path id="Path_22236" data-name="Path 22236" d="M273.137,191.323a2.26,2.26,0,0,1,.224,2.008,13.7,13.7,0,0,1-.58,1.868,37.683,37.683,0,0,1-1.652,3.489c-1.2,2.268-2.527,4.466-3.909,6.622a146.616,146.616,0,0,1-9.119,12.346l-.3-.234a30.34,30.34,0,0,1,2.558-7.592,57.63,57.63,0,0,1,3.662-6.6l2.125-3.059c.794-.965,1.461-2,2.3-2.924.769-.967,1.621-1.888,2.415-2.83.435-.456.812-.929,1.2-1.392a5.8,5.8,0,0,0,.517-.7,2.3,2.3,0,0,0,.219-.354c.087-.033.112-.219.041-.4Z" transform="translate(-73.409 -151.884)" fill="#eb991f"/>
      <path id="Path_22237" data-name="Path 22237" d="M203.041,246.98c19.754-38.747,52.077-71.154,71.154-71.154,16.453,0,50.617,28.908,71.152,71.154Z" transform="translate(-158.015 -175.826)" fill="#443400"/>
      <path id="Path_22238" data-name="Path 22238" d="M274.831,246.98h-71.79c19.754-38.747,52.714-71.154,71.79-71.154Z" transform="translate(-158.015 -175.826)" fill="#7d4f21"/>
      <path id="Path_22239" data-name="Path 22239" d="M418.329,192.379c-11.452.809-34.357,32.15-45.809,33.023-10.92.83-64.576-9.895-99.039-13.481,1.792-1.158,3.593-2.26,5.355-3.235,10.126-5.579,23.953-8.546,21.154-14.555-5.09-10.931-49.26-.99-85.083,17.362-7.281,2.423-17.919,11.055-21.311,18.965a71.74,71.74,0,0,0-3.889,43.422l68.7-.527s7.21-15.27,12.31-16.542,53.454-2.545,83.994-2.545,49.263-25.381,57.261-36.355C420.386,206.361,429.782,191.562,418.329,192.379Z" transform="translate(-181.264 -154.571)" fill="#ffba57"/>
      <path id="Path_22240" data-name="Path 22240" d="M188.607,271.011l8.607-1,8.6-.83c5.736-.534,11.475-.931,17.211-1.407l17.211-1.074,17.211-.809-4.573,2.448a107.165,107.165,0,0,1,7.467-10.948,31.525,31.525,0,0,1,2.57-2.894l.206-.2.6-.484a9.323,9.323,0,0,1,1.453-.858,14.326,14.326,0,0,1,1.415-.565c.758-.252,1.412-.428,2.026-.58,2.428-.6,4.555-.944,6.734-1.3,8.594-1.4,17-2.1,25.452-2.794,8.442-.68,16.865-1.29,25.325-1.563,4.23-.163,8.454-.305,12.73-.392,4.362-.081,8.577-.051,12.59-.036,8.047.038,15.466-.883,22.462-3.665,7.06-2.637,13.529-7.108,19.581-12.412a153.684,153.684,0,0,0,17-17.677,119.155,119.155,0,0,0,7.342-9.925,47.282,47.282,0,0,0,2.97-5.327,12.531,12.531,0,0,0,.939-2.787,2.4,2.4,0,0,0-.527-2.415l.377-.664a3.222,3.222,0,0,1,1.285,3.135,13.315,13.315,0,0,1-.636,3.179,38.792,38.792,0,0,1-2.471,5.866,97.155,97.155,0,0,1-6.543,10.831A138.24,138.24,0,0,1,397.077,233.3a68.82,68.82,0,0,1-20.622,14.608c-7.785,3.494-16.374,4.759-24.788,4.978-16.822.109-33.565,1.211-50.334,2.262-8.373.593-16.756,1.227-25.063,2.273-2.072.277-4.151.568-6.164,1.01a6.532,6.532,0,0,0-2.621.957,26.833,26.833,0,0,0-2.092,2.255c-2.667,3.189-5.1,6.622-7.459,10.073l-.178.257h-.3l-68.846-.2Z" transform="translate(-180.315 -152.61)" fill="#eb991f"/>
      <path id="Path_22241" data-name="Path 22241" d="M220.825,222.948a3.825,3.825,0,0,1-2.245.275,3.363,3.363,0,0,1-2.374-2.369,6.357,6.357,0,0,1-.048-3.087,15.061,15.061,0,0,1,.649-2.331,24.949,24.949,0,0,1,4.3-6.851,33.157,33.157,0,0,1,5.6-5.1,37.461,37.461,0,0,1,6.51-3.667,75.3,75.3,0,0,1,12.7-4.217c2.082-.514,4.22-.881,6.143-1.39a24.1,24.1,0,0,0,2.708-.741,3.476,3.476,0,0,0,1.049-.5,1.565,1.565,0,0,0,.6-1.278l.646-.407a3.2,3.2,0,0,1-.13,3.624,10.77,10.77,0,0,1-2.451,2.537,40.337,40.337,0,0,1-5.851,3.537c-4.031,2.066-8.177,3.83-12.223,5.739a55.581,55.581,0,0,0-11.455,6.739,27.561,27.561,0,0,0-4.777,4.51,4.786,4.786,0,0,0-1.267,2.662c-.018.853,1.01,1.362,2.064,1.557Z" transform="translate(-138.014 -151.933)" fill="#eb991f"/>
      <path id="Path_22242" data-name="Path 22242" d="M218.708,198.1q25.714,3.035,51.388,6.357c17.089,2.42,34.184,4.838,51.187,7.869l-.092.5a252.969,252.969,0,0,1-26.048-.708c-4.316-.224-8.592-.741-12.89-1.1l-12.837-1.522-12.786-1.932c-4.242-.8-8.505-1.433-12.73-2.38a205.943,205.943,0,0,1-25.254-6.579Z" transform="translate(-133.904 -141.42)" fill="#eb991f"/>
      <g id="Group_11615" data-name="Group 11615" transform="translate(0 118.783)">
        <rect id="Rectangle_9920" data-name="Rectangle 9920" width="89.449" height="562.434" transform="translate(0 16.542)" fill="#0b6c75"/>
        <rect id="Rectangle_9921" data-name="Rectangle 9921" width="34.374" height="562.434" transform="translate(55.074 16.542)" fill="#08626a"/>
        <rect id="Rectangle_9922" data-name="Rectangle 9922" width="82.109" height="16.542" transform="translate(2.664)" fill="#fff"/>
      </g>
    </g>
  </g>
</svg>
